<?xml version="1.0" encoding="utf-8"?>
<!-- Generator: Adobe Illustrator 21.1.0, SVG Export Plug-In . SVG Version: 6.00 Build 0)  -->
<svg version="1.1"
	 id="svg2" inkscape:version="0.91 r13725" sodipodi:docname="MH-S412_icon.svg" xmlns:cc="http://creativecommons.org/ns#" xmlns:dc="http://purl.org/dc/elements/1.1/" xmlns:inkscape="http://www.inkscape.org/namespaces/inkscape" xmlns:rdf="http://www.w3.org/1999/02/22-rdf-syntax-ns#" xmlns:sodipodi="http://sodipodi.sourceforge.net/DTD/sodipodi-0.dtd" xmlns:svg="http://www.w3.org/2000/svg"
	 xmlns="http://www.w3.org/2000/svg" xmlns:xlink="http://www.w3.org/1999/xlink" x="0px" y="0px" viewBox="0 0 150.4 244.7"
	 style="enable-background:new 0 0 150.4 244.7;" xml:space="preserve">
<style type="text/css">
	.st0{fill:none;stroke:#000000;stroke-linejoin:bevel;}
	.st1{fill:#000200;}
	.st2{fill:#0066CC;}
	.st3{fill:none;stroke:#000000;stroke-miterlimit:10;}
</style>
<sodipodi:namedview  bordercolor="#666666" borderopacity="1" fit-margin-bottom="5" fit-margin-left="5" fit-margin-right="5" fit-margin-top="5" gridtolerance="10" guidetolerance="10" id="namedview194" inkscape:current-layer="svg2" inkscape:cx="74.609338" inkscape:cy="170.23821" inkscape:pageopacity="0" inkscape:pageshadow="2" inkscape:window-height="781" inkscape:window-maximized="0" inkscape:window-width="1321" inkscape:window-x="0" inkscape:window-y="0" inkscape:zoom="1" objecttolerance="10" pagecolor="#ffffff" showgrid="false">
	</sodipodi:namedview>
<path id="path126" inkscape:connector-curvature="0" class="st0" d="M0,1.9v240.9"/>
<path id="path130" inkscape:connector-curvature="0" class="st0" d="M1.2,244.2h148.2"/>
<path id="path144" inkscape:connector-curvature="0" class="st0" d="M150.4,242.8V1.9"/>
<path id="path146" inkscape:connector-curvature="0" class="st0" d="M147.8,241.4H3.1V3.3h144.7V241.4z"/>
<path id="path148" inkscape:connector-curvature="0" class="st0" d="M149.5,0.5H1.4"/>
<g id="Layer1007" transform="translate(-163.6351,-451.0562)">
	<path id="path166" inkscape:connector-curvature="0" class="st1" d="M286.6,671v4.3c0,0.4-0.1,0.5-0.5,0.5h-2.8c0,0-0.3,0-0.6,0.3
		c-0.4,0.4-1.7,1.5-1.7,1.5s-0.9,0.7,0.1,0.7h7.9c0.7,0,0.9-0.2,0.9-0.9v-8.5c0-0.7-0.2-1-1-1h-3.1l0,0l0,0c-0.5,0-1.2,0.1-1.6,0.5
		c-0.3,0.2-4.9,4.3-4.9,4.3s-0.2,0.2-0.4,0.2l0,0c-0.1,0-0.3-0.2-0.3-0.2s-4.6-4.1-4.9-4.4c-0.4-0.3-1.1-0.4-1.6-0.4l0,0l0,0h-3.3
		c-0.8,0-1,0.3-1,1v5.4v1v2.1c0,0.6,0.2,0.8,0.8,0.9l0,0h0.1l0,0h1.4h0.6c0,0,0.3,0,0.6-0.3c0.4-0.4,1.7-1.5,1.7-1.5
		s0.9-0.7-0.1-0.7h-1.4c-0.4,0-0.5-0.1-0.5-0.5c0,0,0,0,0-0.1v-0.9v-3.4c0-0.2,0-0.6,0.5-0.2l4.7,4.2c0.1,0.1,0.2,0.2,0.3,0.3
		l-3,2.7c0,0-0.5,0.4,0.2,0.4h3l0,0l0,0c0.3,0,0.9,0,1.6-0.5c0.3-0.2,7.9-7,7.9-7C286.6,670.4,286.6,670.8,286.6,671L286.6,671z"/>
	<path id="path168" inkscape:connector-curvature="0" class="st1" d="M289.5,681.6H284c-0.4,0-0.6,0.2-0.6,0.6v3.5
		c0,0.4,0.2,0.6,0.6,0.6h5.5c0.4,0,0.6-0.2,0.6-0.6v-3.5C290.1,681.8,289.9,681.6,289.5,681.6z M288.5,684.8L288.5,684.8
		c0,0.2,0,0.2-0.2,0.2h-3c-0.2,0-0.2,0-0.2-0.2V683c0-0.2,0-0.2,0.2-0.2h3c0.2,0,0.2,0,0.2,0.2V684.8z"/>
	<path id="path170" inkscape:connector-curvature="0" class="st1" d="M273.5,681.6H268c-0.4,0-0.6,0.2-0.6,0.6v3.5
		c0,0.4,0.2,0.6,0.6,0.6h5.5c0.4,0,0.6-0.2,0.6-0.6v-3.5C274.1,681.8,273.9,681.6,273.5,681.6z M272.5,684.8L272.5,684.8
		c0,0.2,0,0.2-0.2,0.2h-3c-0.2,0-0.2,0-0.2-0.2V683c0-0.2,0-0.2,0.2-0.2h3c0.2,0,0.2,0,0.2,0.2V684.8z"/>
	<path id="path172" inkscape:connector-curvature="0" class="st1" d="M282.1,681.6h-0.7c-0.3,0-0.5,0.1-0.5,0.5v2h-3.5v-2
		c0-0.3-0.1-0.5-0.5-0.5h-0.7c-0.3,0-0.5,0.1-0.5,0.5v3.7c0,0.3,0.1,0.5,0.5,0.5h0.7c0.3,0,0.5-0.1,0.5-0.5v-0.5h3.5v0.5
		c0,0.3,0.1,0.5,0.5,0.5h0.7c0.3,0,0.5-0.1,0.5-0.5v-3.7C282.6,681.7,282.4,681.6,282.1,681.6z"/>
	<path id="path174" inkscape:connector-curvature="0" class="st1" d="M300.6,682.7h4.3c0.2,0,0.3-0.1,0.3-0.3v-0.6
		c0-0.2-0.1-0.3-0.3-0.3h-2.2h-3h-0.5c-0.4,0-0.6,0.2-0.6,0.6v3.5c0,0.4,0.2,0.6,0.6,0.6h0.5h3h2.2c0.2,0,0.3-0.1,0.3-0.3v-0.6
		c0-0.2-0.1-0.3-0.3-0.3h-4.3c-0.2,0-0.3-0.1-0.3-0.3v-0.3h4.6c0.2,0,0.3-0.1,0.3-0.3v-0.6c0-0.2-0.1-0.3-0.3-0.3h-4.6v-0.3
		C300.2,682.8,300.4,682.7,300.6,682.7L300.6,682.7z"/>
	<path id="path176" inkscape:connector-curvature="0" class="st1" d="M261.8,684.5v0.3c0,0.2,0.2,0.3,0.3,0.3h4.3
		c0.2,0,0.3,0.1,0.3,0.3v0.6c0,0.2-0.1,0.3-0.3,0.3h-2.2h-3h-0.4c-0.4,0-0.6-0.2-0.6-0.6v-3.5c0-0.4,0.2-0.6,0.6-0.6h0.5h3h2.2
		c0.2,0,0.3,0.1,0.3,0.3v0.6c0,0.2-0.1,0.3-0.3,0.3h-4.3c-0.2,0-0.3,0.1-0.3,0.3v0.3v1.1L261.8,684.5L261.8,684.5z"/>
	<path id="path178" inkscape:connector-curvature="0" class="st1" d="M258.9,681.5H258c-0.3,0-0.5,0-0.8,0.3c-0.1,0.1-1,0.9-1,0.9
		s-0.1,0.1-0.2,0.1s-0.2-0.1-0.2-0.1s-0.8-0.8-1-0.9c-0.4-0.3-0.6-0.3-0.8-0.3h-0.9c-0.3,0-0.5,0.2-0.5,0.5v3.8
		c0,0.3,0.1,0.4,0.5,0.4h0.7c0.3,0,0.4-0.1,0.4-0.5v-2.3c0,0,1.3,1.1,1.4,1.3c0.1,0.1,0.2,0.1,0.3,0.1l0,0l0,0l0,0
		c0.1,0,0.2,0,0.3-0.1c0.2-0.1,1.4-1.3,1.4-1.3v2.4c0,0.3,0.1,0.5,0.4,0.5h0.7c0.3,0,0.5-0.1,0.5-0.4v-3.8
		C259.4,681.7,259.3,681.5,258.9,681.5L258.9,681.5z"/>
	<path id="path180" inkscape:connector-curvature="0" class="st1" d="M297.3,681.5h-0.9c-0.3,0-0.5,0-0.8,0.3c-0.1,0.1-1,0.9-1,0.9
		s-0.1,0.1-0.2,0.1s-0.2-0.1-0.2-0.1s-0.8-0.8-1-0.9c-0.4-0.3-0.6-0.3-0.8-0.3h-0.9c-0.3,0-0.5,0.2-0.5,0.5v3.8
		c0,0.3,0.1,0.4,0.5,0.4h0.7c0.3,0,0.4-0.1,0.4-0.5v-2.3c0,0,1.3,1.1,1.4,1.3c0.1,0.1,0.2,0.1,0.3,0.1l0,0l0,0l0,0
		c0.1,0,0.2,0,0.3-0.1c0.2-0.1,1.4-1.3,1.4-1.3v2.4c0,0.3,0.1,0.5,0.4,0.5h0.7c0.3,0,0.5-0.1,0.5-0.4v-3.8
		C297.7,681.7,297.6,681.5,297.3,681.5L297.3,681.5z"/>
</g>
<path class="st0" d="M150.4,1.9c0-0.8-0.5-1.4-1.1-1.4"/>
<path class="st0" d="M0,1.9c0-0.8,0.6-1.4,1.2-1.4"/>
<path class="st0" d="M0,242.8c0,0.8,0.6,1.4,1.2,1.4"/>
<path class="st0" d="M150.4,242.8c0,0.8-0.5,1.4-1.1,1.4"/>
<g>
	<path id="path182" inkscape:connector-curvature="0" class="st2" d="M75.7,40.3c-1.7,0-3.1,1.4-3.1,3.1s1.4,3.1,3.1,3.1
		s3.1-1.4,3.1-3.1S77.4,40.3,75.7,40.3z"/>
	<path id="path184" inkscape:connector-curvature="0" class="st2" d="M84.6,43.8l-1.1,2.6c7.4,3.2,12,10.4,12,18.2l0,0l0,0
		c0,1.3-0.1,2.6-0.4,4c-1.9,9.2-10,15.9-19.4,15.9s-17.5-6.6-19.4-15.9c-1.9-9.2,3-18.5,11.6-22.2l-1.1-2.6
		C56.9,48,51.3,58.6,53.5,69.2s11.4,18.1,22.2,18.1s20.1-7.6,22.2-18.1C100.1,58.7,94.5,48.1,84.6,43.8z"/>
	<path id="path186" inkscape:connector-curvature="0" class="st2" d="M75.7,46.5c1.7,0,3.1-1.4,3.1-3.1s-1.4-3.1-3.1-3.1
		s-3.1,1.4-3.1,3.1S74,46.5,75.7,46.5z"/>
</g>
<g>
	<path id="path154" inkscape:connector-curvature="0" class="st3" d="M83.8,102.2c0-1.7-1.4-3.1-3.1-3.1s-3.1,1.4-3.1,3.1
		s1.4,3.1,3.1,3.1C82.4,105.3,83.8,104,83.8,102.2z"/>
	<path id="path156" inkscape:connector-curvature="0" class="st3" d="M73.9,102.2c0-1.7-1.4-3.1-3.1-3.1s-3.1,1.4-3.1,3.1
		s1.4,3.1,3.1,3.1C72.5,105.3,73.9,104,73.9,102.2z"/>
	<path id="path188" inkscape:connector-curvature="0" class="st3" d="M63.5,103.8c-8.5,5.4-12.4,15.8-9.6,25.5s11.7,16.4,21.8,16.4
		s19-6.7,21.8-16.4s-1.1-20.1-9.6-25.5l-1.5,2.4c5.8,3.7,9.2,10.1,9.2,16.7l0,0l0,0c0,1.8-0.3,3.7-0.8,5.5
		c-2.5,8.5-10.2,14.3-19.1,14.3s-16.6-5.8-19.1-14.3s1-17.6,8.4-22.3C65.1,106.2,63.5,103.8,63.5,103.8z"/>
	<path id="path190" inkscape:connector-curvature="0" class="st3" d="M67.6,102.2c0,1.7,1.4,3.1,3.1,3.1s3.1-1.4,3.1-3.1
		s-1.4-3.1-3.1-3.1S67.6,100.5,67.6,102.2z"/>
	<path id="path192" inkscape:connector-curvature="0" class="st3" d="M80.7,99.1c-1.7,0-3.1,1.4-3.1,3.1s1.4,3.1,3.1,3.1
		s3.1-1.4,3.1-3.1S82.4,99.1,80.7,99.1z"/>
</g>
<g>
	<path id="path188_4_" inkscape:connector-curvature="0" class="st3" d="M60.5,165.6"/>
	<path id="path188_10_" inkscape:connector-curvature="0" class="st3" d="M63,167"/>
	<path id="path188_13_" inkscape:connector-curvature="0" class="st3" d="M62.4,167.5"/>
	<ellipse class="st3" cx="75.7" cy="160.6" rx="3.4" ry="3.2"/>
	<ellipse class="st3" cx="67.2" cy="162.4" rx="3.4" ry="3.2"/>
	<ellipse class="st3" cx="84.3" cy="162.4" rx="3.4" ry="3.2"/>
	<path class="st3" d="M89.1,167.6"/>
	<path class="st3" d="M89.1,167.7l2-2c6.2,5.7,8.8,14.6,6.4,23c-2.8,9.7-11.7,16.3-21.8,16.3s-19-6.7-21.8-16.3
		c-2.4-8.3,0.1-17.1,6.2-22.8l2,1.9c-5.4,5-7.7,12.7-5.5,20c2.5,8.5,10.2,14.3,19.1,14.3s16.6-5.8,19.1-14.3
		c0.5-1.8,0.8-3.7,0.8-5.5l0,0l0,0C95.6,176.8,93.3,171.4,89.1,167.7z"/>
</g>
</svg>
