<?xml version="1.0" encoding="utf-8"?>
<!-- Generator: Adobe Illustrator 23.1.0, SVG Export Plug-In . SVG Version: 6.00 Build 0)  -->
<svg version="1.1" id="Laag_1" xmlns="http://www.w3.org/2000/svg" xmlns:xlink="http://www.w3.org/1999/xlink" x="0px" y="0px"
	 viewBox="0 0 952 942" style="enable-background:new 0 0 952 942;" xml:space="preserve">
<style type="text/css">
	.st0{fill:#000200;}
	.st1{fill:#FFFFFF;}
	.st2{display:none;fill:none;stroke:#000000;stroke-width:10;stroke-miterlimit:10;}
	.st3{display:none;}
	.st4{display:inline;}
</style>
<g>
	<path d="M897,10c24.81,0,45,20.19,45,45v832c0,24.81-20.19,45-45,45H55c-24.81,0-45-20.19-45-45V55c0-24.81,20.19-45,45-45H897
		 M897,0H55C24.75,0,0,24.75,0,55v832c0,30.25,24.75,55,55,55h842c30.25,0,55-24.75,55-55V55C952,24.75,927.25,0,897,0L897,0z"/>
</g>
<g id="Layer1007" transform="translate(-163.6351,-451.0562)">
	<path id="path166" class="st0" d="M660.64,506.78v15.38c0,1.05-0.85,1.9-1.9,1.9l-11.1,0c0,0-1.18,0-2.36,1.08
		c-1.58,1.44-6.7,5.4-6.7,5.4s-3.55,2.52,0.39,2.52l31.25,0c1.89,0,3.42-1.53,3.42-3.42v-31.72c0,0-1.24-3.8-4.28-3.86l-11.78,1l0,0
		l0,0c-1.9-0.94-4.56-0.56-6.08,0.96c-1.14,0.76-18.62,16.33-18.62,16.33s-0.76,0.76-1.52,0.76l0,0c-0.38,0-1.14-0.76-1.14-0.76
		s-17.48-15.58-18.62-16.72c-1.52-1.14-4.18-1.52-6.08-1.58l0,0l0,0h-12.54c-3.04,0.06-3.36,3.86-3.36,3.86v20.74v3.6v7.56
		c0,2.16,0.72,2.88,2.88,3.24l0,0h0.36l0,0l5.04,0l2.16,0c0,0,1.08,0,2.16-1.08c1.44-1.44,6.12-5.4,6.12-5.4s3.24-2.52-0.36-2.52
		l-4.46,0c-1.05,0-1.9-0.85-1.9-1.9v-0.26v-3.24v-12.24c0-0.72,0-2.16,1.89-0.72l17.68,15.04c0,0.89,0,1.32,0,2.21l-10.12,8.67
		c0,0-1.89,1.44,0.76,1.44l11.35,0l0,0l0,0c1.13,0,3.4,0,6.05-1.8c1.13-0.72,29.88-25.2,29.88-25.2
		C660.64,504.62,660.64,506.06,660.64,506.78L660.64,506.78z"/>
	<path id="path168" class="st0" d="M671.36,546.06l-20.44,0c-1.26,0-2.28,1.02-2.28,2.28v13.44c0,1.26,1.02,2.28,2.28,2.28l20.44,0
		c1.26,0,2.28-1.02,2.28-2.28v-13.44C673.64,547.08,672.61,546.06,671.36,546.06z M667.64,558.33L667.64,558.33
		c0,0.73,0,0.73-0.76,0.73l-11.48,0c-0.42,0-0.76-0.34-0.76-0.76v-6.48c0-0.42,0.34-0.76,0.76-0.76l11.48,0
		c0.42,0,0.76,0.34,0.76,0.76V558.33z"/>
	<path id="path170" class="st0" d="M610.36,546.06l-20.44,0c-1.26,0-2.28,1.02-2.28,2.28v13.44c0,1.26,1.02,2.28,2.28,2.28l20.44,0
		c1.26,0,2.28-1.02,2.28-2.28v-13.44C612.64,547.08,611.61,546.06,610.36,546.06z M606.64,558.33L606.64,558.33
		c0,0.73,0,0.73-0.76,0.73l-11.48,0c-0.42,0-0.76-0.34-0.76-0.76v-6.48c0-0.42,0.34-0.76,0.76-0.76l11.48,0
		c0.42,0,0.76,0.34,0.76,0.76V558.33z"/>
	<path id="path172" class="st0" d="M643.87,546.06l-3.38,0c-1.11,0-1.86,0.36-1.86,1.8v7.2l-13,0v-7.08c0-1.15-0.35-1.91-1.76-1.92
		l-2.47,0c-1.06,0-1.76,0.38-1.76,1.91v14.17c0,1.15,0.35,1.91,1.76,1.92l2.24,0c1.2,0,2-0.4,2-2v-2l14,0v2.08
		c0,1.15,0.35,1.91,1.76,1.92l2.47,0c1.06,0,1.76-0.38,1.76-1.91v-14.17C645.64,546.44,644.93,546.06,643.87,546.06z"/>
	<path id="path174" class="st0" d="M713.8,550.06l16.7,0c0.63,0,1.14-0.51,1.14-1.14v-1.98c0,0-0.73-1.14-1.49-1.88l-8.36,0l-11.4,1
		h-1.9c-1.52-0.26-1.85,2.02-1.85,2.02v13.3c0,0,0.33,2.28,1.85,1.69l1.9,0l11.4,1h8.36c0.76-0.41,1.49-1.54,1.49-1.54v-2.28
		c0,0-0.73-1.14-1.49-1.18h-16.34c-0.76,0.03-1.14-0.35-1.17-1.11v-0.89h17.51c0.76-0.24,1.49-1.38,1.49-1.38v-2.48
		c0-0.63-0.51-1.14-1.14-1.14l-17.86,0v-1.2C712.25,550.46,713.02,550.06,713.8,550.06L713.8,550.06z"/>
	<path id="path176" class="st0" d="M566.64,557.06v0.75c0,0.83,0.78,1.25,1.16,1.25l16.7,0c0.63,0,1.14,0.51,1.14,1.14v2.72
		c0,0.63-0.51,1.14-1.14,0.14l-8.55,0l-11.48,1h-1.55c-1.26,0-2.28-1.02-2.28-2.28v-13.44c0-1.26,1.02-2.28,2.28-2.28l1.93,0
		l10.37,1h9.27c0.63-1,1.14-0.49,1.14,0.14v2.72c0,0.63-0.51,1.14-1.14,1.14h-16.58c0,0-1.14,0.04-2.28,0.8V553v4.06l0.76,0H566.64z
		"/>
	<path id="path178" class="st0" d="M555.51,545.06h-3.55c0,0-1.9,0.72-3.04,1.86c-0.38,0.38-3.8,3.42-3.8,3.42s-0.38,0.38-0.76,0.38
		c-0.38,0-0.76-0.38-0.76-0.38s-3.04-3.04-3.8-3.42c-1.52-1.14-3.04-0.86-3.04-0.86l-3.23,0c-1.05,0-1.9,0.85-1.9,1.9v14.57
		c0,1.15,0.38,1.53,1.91,1.53l2.56,0c1.15,0,1.53-0.38,1.53-1.9v-8.74c0,0,4.97,4.18,5.35,4.94c0.38,0.38,0.76,0.38,1.15,0.38l0,0
		l0,0l0,0c0.38,0,0.76,0,1.15-0.38c0.76-0.38,5.35-4.94,5.35-4.94v9.12c0,0.84,0.68,1.52,1.52,1.52l2.96,0
		c0.84,0,1.52-0.68,1.52-1.52v-15.11C557.39,545.85,557.01,545.06,555.51,545.06L555.51,545.06z"/>
	<path id="path180" class="st0" d="M701.51,545.06h-3.66c0,0-1.9,0.74-3.04,1.88c-0.38,0.38-3.8,3.42-3.8,3.42s-0.38,0.38-0.76,0.38
		c-0.38,0-0.76-0.38-0.76-0.38s-3.04-3.04-3.8-3.42c-1.52-1.14-3.04-0.87-3.04-0.87l-3.12,0c-1.05,0-1.9,0.85-1.9,1.9v14.57
		c0,1.15,0.38,1.53,1.91,1.53l2.56,0c1.15,0,1.53-0.38,1.53-1.9v-8.74c0,0,4.97,4.18,5.35,4.94c0.38,0.38,0.76,0.38,1.15,0.38l0,0
		l0,0l0,0c0.38,0,0.76,0,1.15-0.38c0.76-0.38,5.35-4.94,5.35-4.94v9.12c0,0.84,0.68,1.52,1.52,1.52l2.58,0c1.05,0,1.9-0.85,1.9-1.9
		v-14.73C703.01,545.85,702.64,545.06,701.51,545.06L701.51,545.06z"/>
</g>
<rect x="147" y="163" class="st0" width="659" height="409"/>
<circle class="st0" cx="160.5" cy="801.5" r="35.5"/>
<g>
	<path d="M476.5,711c49.9,0,90.5,40.6,90.5,90.5S526.4,892,476.5,892S386,851.4,386,801.5S426.6,711,476.5,711 M476.5,706
		c-52.74,0-95.5,42.76-95.5,95.5s42.76,95.5,95.5,95.5s95.5-42.76,95.5-95.5S529.24,706,476.5,706L476.5,706z"/>
</g>
<g>
	<path class="st1" d="M330,207.35c0.97-0.17,2.23-0.32,3.84-0.32c1.98,0,3.42,0.5,4.34,1.4c0.85,0.8,1.36,2.02,1.36,3.52
		c0,1.52-0.41,2.72-1.2,3.6c-1.06,1.22-2.78,1.85-4.73,1.85c-0.6,0-1.15-0.02-1.61-0.15V224h-2V207.35z M332,215.23
		c0.47,0.13,1.07,0.17,1.8,0.17c2.62,0,4.22-1.27,4.22-3.6c0-2.22-1.57-3.3-3.97-3.3c-0.95,0-1.67,0.07-2.05,0.17V215.23z"/>
	<path class="st1" d="M356.78,216.44c-0.13-2.4-0.28-5.29-0.26-7.44h0.1c-0.59,2.03-1.31,4.19-2.19,6.59l-3.06,8.41h-1.7l-2.8-8.26
		c-0.82-2.44-1.52-4.68-2.01-6.74h0.13c-0.05,2.15-0.18,5.03-0.33,7.62L344.2,224h-2.07l1.19-17h2.71l2.91,8.25
		c0.71,2.1,1.29,3.97,1.72,5.75h0.08c0.43-1.72,1.04-3.59,1.8-5.75l3.04-8.25h2.71l1.06,17h-2.12L356.78,216.44z"/>
	<path class="st1" d="M362,224v-1.52l1.68-1.67c4.05-3.95,5.88-6.05,5.9-8.5c0-1.65-0.78-3.17-3.15-3.17
		c-1.44,0-2.63,0.75-3.37,1.37l-0.68-1.55c1.1-0.95,2.66-1.65,4.49-1.65c3.41,0,4.85,2.4,4.85,4.72c0,3-2.12,5.42-5.46,8.72
		l-1.27,1.2V222h7v2H362z"/>
	<path class="st1" d="M374.91,222.45c0-0.92,0.62-1.57,1.5-1.57s1.47,0.65,1.47,1.57c0,0.9-0.57,1.57-1.5,1.57
		C375.51,224.02,374.91,223.35,374.91,222.45z"/>
	<path class="st1" d="M390,209h-6.7l-0.68,4.51c0.41-0.05,0.78-0.11,1.43-0.11c1.35,0,2.7,0.3,3.78,0.95
		c1.38,0.78,2.51,2.3,2.51,4.51c0,3.43-2.73,6-6.54,6c-1.92,0-3.54-0.54-4.38-1.08l0.59-1.81c0.73,0.43,2.16,0.97,3.76,0.97
		c2.24,0,4.16-1.46,4.16-3.81c-0.03-2.27-1.54-3.89-5.05-3.89c-1,0-1.78,0.11-2.43,0.19l1.14-8.43h8.4V209z"/>
</g>
<g>
	<path class="st1" d="M423,277v-5.1l6.73-6.7c16.19-15.8,23.51-24.2,23.61-34c0-6.6-3.12-12.7-12.59-12.7c-5.76,0-10.54,3-13.46,5.5
		l-2.73-6.2c4.39-3.8,10.63-6.6,17.95-6.6c13.66,0,19.41,9.6,19.41,18.9c0,12-8.49,21.7-21.85,34.9l-5.07,4.8v0.2h30v7H423z"/>
	<path class="st1" d="M476.26,266.94c2.5,1.6,8.3,4.1,14.4,4.1c11.3,0,14.8-7.2,14.7-12.6c-0.1-9.1-8.3-13-16.8-12.44H484v-7h4.56
		c6.4-0.16,14.5-3.46,14.5-11.16c0-5.2-3.3-9.8-11.4-9.8c-5.2,0-10.2,2.3-13,4.3l-2.3-6.4c3.4-2.5,10-5,17-5
		c12.8,0,18.6,7.6,18.6,15.5c0,6.7-4,12.4-11.96,15.3v0.2c7.96,1.6,14.46,7.6,14.46,16.7c0,10.4-8.1,19.5-23.7,19.5
		c-7.3,0-13.7-2.3-16.9-4.4L476.26,266.94z"/>
</g>
<g>
	<path class="st1" d="M545,270.73c0,1.24,0.02,2.33,0.09,3.27h-2.29l-0.13-2h-0.6c-0.57,0.96-1.83,2.22-3.95,2.22
		c-1.88,0-4.12-1.04-4.12-5.23V262h3v6.7c0,2.3,0.72,3.85,2.79,3.85c1.53,0,2.59-1.02,3-2c0.13-0.32,0.21-0.72,0.21-1.12V262h2
		V270.73z"/>
	<path class="st1" d="M559.11,262c-0.05,0.96-0.11,2.03-0.11,3.64v6.67c0,2.71-0.51,4.37-1.6,5.39c-1.09,1.07-2.67,1.41-4.09,1.41
		c-1.35,0-2.84-0.34-3.74-0.98l0.51-1.63c0.74,0.49,1.91,0.93,3.3,0.93c2.09,0,3.63-1.15,3.63-4.12V272h-0.05
		c-0.63,1.1-1.84,1.98-3.58,1.98c-2.79,0-4.79-2.49-4.79-5.76c0-4,2.49-6.27,5.07-6.27c1.95,0,3.02,1.07,3.51,2.05h-0.27l0.11-2
		H559.11z M556,266.86c0-0.38-0.02-0.7-0.13-1c-0.4-1.27-1.47-2.32-3.07-2.32c-2.32,0-3.9,2.16-3.55,5.47
		c0.13,1.22,0.75,2.38,1.82,2.99c1.91,1.08,4.08,0.2,4.76-1.79c0.13-0.38,0.17-0.8,0.17-1.17V266.86z"/>
	<path class="st1" d="M560.46,275l6.93-18h1.69l-6.95,18H560.46z"/>
	<path class="st1" d="M571,265.25c0-1.24-0.02-2.26-0.09-3.25h1.77l0.1,2h0.07c0,0,1.8-2.19,3.8-2.19c1.65,0,3.42,3.19,3.42,3.19
		h0.69c0.34-0.61,0.77-1.09,1.22-1.42c0.66-0.5,1.38-0.77,2.42-0.77c1.45,0,3.6,0.95,3.6,4.75V274h-2v-6.85
		c0-2.32-0.79-3.72-2.43-3.72c-1.16,0-2.06,0.92-2.41,2c-0.09,0.3-0.16,0.7-0.16,1.1V274h-3v-7.25c0-1.92-0.78-3.32-2.33-3.32
		c-1.27,0-2.19,1.1-2.51,2.2c-0.12,0.33-0.16,0.7-0.16,1.07v7.3h-2V265.25z"/>
</g>
<g>
	<path class="st1" d="M252,402v-1.43l2.24-2.01c5.4-4.74,7.84-7.26,7.87-10.2c0-1.98-1.04-3.81-4.2-3.81c-1.92,0-3.51,0.9-4.49,1.65
		l-0.91-1.86c1.46-1.14,3.54-1.98,5.98-1.98c4.55,0,6.47,2.88,6.47,5.67c0,3.6-2.83,6.51-7.28,10.47l-1.69,1.44V400h8v2H252z"/>
	<path class="st1" d="M278,384.95c-0.54-0.03-1.23,0-1.98,0.12c-4.14,0.69-6.33,3.72-6.78,6.93h0.09c0.93-1.23,2.55-2.25,4.71-2.25
		c3.45,0,5.88,2.49,5.88,6.3c0,3.57-2.43,6.87-6.48,6.87c-4.17,0-6.9-3.24-6.9-8.31c0-3.84,1.38-6.87,3.3-8.79
		c1.62-1.59,3.78-2.58,6.24-2.88c0.78-0.12,1.44-0.15,1.92-0.15V384.95z M277.68,396.16c0-2.79-1.59-4.47-4.02-4.47
		c-1.59,0-3.06,0.99-3.78,2.4c-0.18,0.3-0.3,0.69-0.3,1.17c0.06,3.21,1.53,5.58,4.29,5.58
		C276.15,400.84,277.68,398.95,277.68,396.16z"/>
	<path class="st1" d="M301.37,402c-0.8,0.4-2.4,0.8-4.45,0.8c-4.75,0-8.32-3-8.32-8.52c0-5.27,3.57-8.85,8.8-8.85
		c2.1,0,3.42,0.45,4,0.75l-0.52,1.77c-0.82-0.4-2-0.7-3.4-0.7c-3.95,0-6.57,2.52-6.57,6.95c0,4.12,2.37,6.77,6.47,6.77
		c1.32,0,2.67-0.27,3.55-0.7L301.37,402z"/>
	<path class="st1" d="M264,433h-6.7l-0.68,4.51c0.41-0.05,0.78-0.11,1.43-0.11c1.35,0,2.7,0.3,3.78,0.95
		c1.38,0.78,2.51,2.3,2.51,4.51c0,3.43-2.73,6-6.54,6c-1.92,0-3.54-0.54-4.38-1.08l0.59-1.81c0.73,0.43,2.16,0.97,3.76,0.97
		c2.24,0,4.16-1.46,4.16-3.81c-0.03-2.27-1.54-3.89-5.05-3.89c-1,0-1.78,0.11-2.43,0.19l1.14-8.43H264V433z"/>
	<path class="st1" d="M276,450v-5h-10v-1.72l9.04-12.28H278v12h3v2h-3v5H276z M275,443v-6.8c0-1.07,0.03-2.13,0.08-3.2H275
		c-0.56,1.19-1.01,2.07-1.52,3.01l-4.48,6.93V443H275z"/>
	<path class="st1" d="M283,450v-1.43l2.24-2.01c5.4-4.74,7.84-7.26,7.87-10.2c0-1.98-1.04-3.81-4.2-3.81c-1.92,0-3.51,0.9-4.49,1.65
		l-0.91-1.86c1.46-1.14,3.54-1.98,5.98-1.98c4.55,0,6.47,2.88,6.47,5.67c0,3.6-2.83,6.51-7.28,10.47l-1.69,1.44V448h8v2H283z"/>
	<path class="st1" d="M305,441.94c0-1.55-0.05-2.79-0.09-3.94h1.88l0.1,2h-0.05c0.96-1.58,2.49-2.52,4.61-2.52
		c3.13,0,5.49,2.65,5.49,6.59c0,4.66-2.84,6.96-5.89,6.96c-1.71,0-3.21-0.75-3.99-2.04H307v6h-2V441.94z M307,445.62
		c0,0.33,0.05,0.63,0.1,0.9c0.4,1.52,1.72,2.57,3.3,2.57c2.32,0,3.67-1.9,3.67-4.67c0-2.42-1.27-4.5-3.6-4.5
		c-1.5,0-2.9,1.07-3.32,2.72c-0.07,0.27-0.15,0.6-0.15,0.9V445.62z"/>
	<path class="st1" d="M319,441.94c0-1.55-0.05-2.79-0.09-3.94h2.11l0.1,2h-0.27c0.96-1.58,2.49-2.52,4.61-2.52
		c3.13,0,5.49,2.65,5.49,6.59c0,4.66-2.84,6.96-5.89,6.96c-1.71,0-3.21-0.75-3.99-2.04H321v6h-2V441.94z M321,445.62
		c0,0.33,0.05,0.63,0.1,0.9c0.4,1.52,1.72,2.57,3.3,2.57c2.32,0,3.67-1.9,3.67-4.67c0-2.42-1.28-4.5-3.6-4.5
		c-1.5,0-2.9,1.07-3.32,2.72c-0.07,0.27-0.15,0.6-0.15,0.9V445.62z"/>
	<path class="st1" d="M333,441.25c0-1.24-0.02-2.26-0.09-3.25h2.28l0.1,2h0.07c0,0,1.8-1.83,3.8-1.83c1.65,0,3.42,1.83,3.42,1.83
		h0.05c0,0,0.85-0.6,1.35-0.98c0.72-0.55,1.52-0.85,2.67-0.85c1.6,0,3.97,1.05,4.34,5.25V451h-3v-6.85c0-2.32-0.79-3.72-2.43-3.72
		c-1.16,0-2.06,0.92-2.41,2c-0.09,0.3-0.16,0.7-0.16,1.1V451h-2v-7.7c-0.06-1.92-0.91-3.32-2.59-3.32c-1.37,0-2.37,1.1-2.72,2.2
		c-0.13,0.33-0.69,1.07-0.69,1.07V450h-2V441.25z"/>
	<path class="st1" d="M252.73,495.51c0.77,0.49,2.55,1.24,4.42,1.24c3.47,0,4.54-2.18,4.51-3.82c-0.03-2.76-2.55-3.94-5.15-3.94H255
		v-2h1.5c1.96,0,4.45-1,4.45-3.33c0-1.57-1.01-2.97-3.5-2.97c-1.59,0-3.13,0.7-3.99,1.3l-0.71-1.94c1.04-0.76,3.07-1.51,5.21-1.51
		c3.93,0,5.7,2.3,5.7,4.7c0,2.03-1.23,3.76-3.68,4.64v0.06c2.45,0.48,4.45,2.3,4.45,5.06c0,3.15-2.48,5.91-7.27,5.91
		c-2.24,0-4.2-0.7-5.18-1.33L252.73,495.51z"/>
	<path class="st1" d="M280.26,488.59c0,6.63-2.46,10.29-6.78,10.29c-3.81,0-6.39-3.57-6.45-10.02c0-6.54,2.82-10.14,6.78-10.14
		C277.92,478.72,280.26,482.38,280.26,488.59z M269.67,488.89c0,5.07,1.56,7.95,3.96,7.95c2.7,0,3.99-3.15,3.99-8.13
		c0-4.8-1.23-7.95-3.96-7.95C271.35,480.76,269.67,483.58,269.67,488.89z"/>
	<path class="st1" d="M300,481v14.02c0,1.02,0.02,2.19,0.1,2.98h-1.88l-0.1-2h-0.41c-0.64,1.28-2.04,2.26-3.92,2.26
		c-2.78,0-4.91-2.35-4.91-5.84c-0.02-3.82,2.35-6.17,5.15-6.17c1.76,0,2.94,0.83,3.47,1.76h0.5v-7H300z M298,491.37
		c0-0.28-0.03-0.65-0.1-0.92c-0.33-1.4-1.52-2.55-3.17-2.55c-2.27,0-3.62,2-3.62,4.67c0,2.45,1.2,4.47,3.57,4.47
		c1.47,0,2.82-0.97,3.22-2.62c0.07-0.3,0.1-0.6,0.1-0.95V491.37z"/>
	<path class="st1" d="M304,482.1c0.93-0.2,2.4-0.34,3.89-0.34c2.13,0,3.5,0.37,4.53,1.2c0.86,0.64,1.37,1.62,1.37,2.91
		c0,1.59-1.05,2.99-2.79,3.62v0.05c1.57,0.39,3.4,1.69,3.4,4.14c0,1.42-0.56,2.5-1.4,3.3c-1.15,1.05-3.01,1.54-5.7,1.54
		c-1.47,0-2.59-0.1-3.3-0.2V482.1z M306,489h1.97c2.3,0,3.65-1.2,3.65-2.82c0-1.97-1.5-2.75-3.7-2.75c-1,0-1.57,0.07-1.92,0.15V489z
		 M306,496.42c0.42,0.08,1.05,0.1,1.82,0.1c2.25,0,4.32-0.82,4.32-3.27c0-2.3-1.97-3.25-4.35-3.25H306V496.42z"/>
	<path class="st1" d="M323.87,499l-0.17-2h-0.08c-0.67,0.97-1.97,1.82-3.7,1.82c-2.45,0-3.7-1.72-3.7-3.47c0-2.92,2.6-4.52,7.78-4.5
		v-0.25c-0.5-1-0.78-2.8-3.25-2.8c-1.12,0-2.3,0.35-3.15,0.9l-0.5-1.45c1-0.65,2.45-1.08,3.97-1.08c3.7,0,4.6,2.52,4.93,4.95v4.52
		c-0.33,1.05-0.28,2.07-0.13,3.35H323.87z M324,492.37c-2.4-0.05-5.12,0.38-5.12,2.72c0,1.42,0.95,2.1,2.07,2.1
		c1.57,0,2.57-1,2.92-2.02c0.07-0.22,0.13-0.47,0.13-0.7V492.37z"/>
	<path class="st1" d="M252.73,543.51c0.77,0.49,2.55,1.24,4.42,1.24c3.47,0,4.54-2.18,4.51-3.82c-0.03-2.76-2.55-3.94-5.15-3.94H255
		v-2h1.5c1.96,0,4.45-1,4.45-3.33c0-1.57-1.01-2.97-3.5-2.97c-1.59,0-3.13,0.7-3.99,1.3l-0.71-1.94c1.04-0.76,3.07-1.51,5.21-1.51
		c3.93,0,5.7,2.3,5.7,4.7c0,2.03-1.23,3.76-3.68,4.64v0.06c2.45,0.48,4.45,2.3,4.45,5.06c0,3.15-2.48,5.91-7.27,5.91
		c-2.24,0-4.2-0.7-5.18-1.33L252.73,543.51z"/>
	<path class="st1" d="M280.26,536.59c0,6.63-2.46,10.29-6.78,10.29c-3.81,0-6.39-3.57-6.45-10.02c0-6.54,2.82-10.14,6.78-10.14
		C277.92,526.72,280.26,530.38,280.26,536.59z M269.67,536.89c0,5.07,1.56,7.95,3.96,7.95c2.7,0,3.99-3.15,3.99-8.13
		c0-4.8-1.23-7.95-3.96-7.95C271.35,528.76,269.67,531.58,269.67,536.89z"/>
	<path class="st1" d="M295.65,536.59c0,6.63-2.46,10.29-6.78,10.29c-3.81,0-6.39-3.57-6.45-10.02c0-6.54,2.82-10.14,6.78-10.14
		C293.31,526.72,295.65,530.38,295.65,536.59z M285.06,536.89c0,5.07,1.56,7.95,3.96,7.95c2.7,0,3.99-3.15,3.99-8.13
		c0-4.8-1.23-7.95-3.96-7.95C286.74,528.76,285.06,531.58,285.06,536.89z"/>
	<path class="st1" d="M305,530h2v15h7v2h-9V530z"/>
	<path class="st1" d="M326,542.73c0,1.24,0.02,2.33,0.09,3.27h-1.48l-0.13-1h-0.41c-0.57,0.96-1.83,2.22-3.95,2.22
		c-1.88,0-4.12-1.04-4.12-5.23V535h2v6.7c0,2.3,0.72,3.85,2.79,3.85c1.53,0,2.59-1.02,3-2c0.13-0.33,0.21-0.73,0.21-1.13V534h2
		V542.73z"/>
	<path class="st1" d="M330.86,534l1.89,2.84c0.49,0.74,0.9,1.42,1.34,2.16h0.08c0.44-0.79,0.87-1.48,1.31-2.19l1.86-2.81h2.08
		l-4.09,5.8l4.22,6.2h-2.48l-1.77-2.18c-0.47-0.7-0.88-1.37-1.3-1.82h-0.05c-0.4,0.45-0.82,1.1-1.27,1.82l-1.75,2.18h-2.41
		l4.26-6.12l-4.07-5.88H330.86z"/>
</g>
<g>
	<path class="st1" d="M590,403v-5h-9v-1.72l8.29-12.28H592v12h3v2h-3v5H590z M590,396v-6.8c0-1.07,0.03-2.13,0.08-3.2H590
		c-0.56,1.19-1.01,2.07-1.52,3.01l-4.48,6.93V396H590z"/>
	<path class="st1" d="M609,386h-6.7l-0.68,4.51c0.41-0.05,0.78-0.11,1.43-0.11c1.35,0,2.7,0.3,3.78,0.95
		c1.38,0.78,2.51,2.3,2.51,4.51c0,3.43-2.73,6-6.54,6c-1.92,0-3.54-0.54-4.38-1.08l0.59-1.81c0.73,0.43,2.16,0.97,3.76,0.97
		c2.24,0,4.16-1.46,4.16-3.81c-0.03-2.27-1.54-3.89-5.05-3.89c-1,0-1.78,0.11-2.43,0.19l1.14-8.43H609V386z"/>
	<path class="st1" d="M626.15,391.87c0,3.42-1.8,5.12-3.9,5.12c-2.02,0-3.77-1.62-3.8-4.9c0-3.25,1.78-5.07,3.92-5.07
		C624.65,387.02,626.15,388.77,626.15,391.87z M620.2,392.02c-0.05,2.07,0.72,3.65,2.1,3.65c1.45,0,2.1-1.55,2.1-3.7
		c0-1.97-0.58-3.62-2.1-3.62C620.92,388.35,620.2,389.97,620.2,392.02z M622.03,404l9.66-17h1.42l-9.66,17H622.03z M636.72,398.6
		c0,3.42-1.8,5.12-3.88,5.12c-2.02,0-3.77-1.62-3.8-4.87c0-3.27,1.77-5.1,3.92-5.1C635.25,393.75,636.72,395.5,636.72,398.6z
		 M630.77,398.75c-0.03,2.07,0.78,3.65,2.13,3.65c1.45,0,2.1-1.55,2.1-3.7c0-1.97-0.58-3.62-2.1-3.62
		C631.52,395.07,630.77,396.7,630.77,398.75z"/>
	<path class="st1" d="M639,386.38c1.07-0.22,2.6-0.35,4.06-0.35c2.26,0,3.72,0.42,4.74,1.37c0.83,0.75,1.29,1.9,1.29,3.2
		c0,2.22-1.36,3.7-3.09,4.3v0.62c0,0,2.67,1.65,3.07,3.4c0.55,2.35,0.95,3.97,1.3,4.08h-2.25c-0.27,0.07-0.65-1.38-1.13-3.48
		c-0.5-2.32-1.4-3.2-3.37-3.52H642v7h-3V386.38z M642,395h2.22c2.33,0,3.8-1.27,3.8-3.2c0-2.17-1.58-3.12-3.88-3.15
		c-1.05,0-1.8,0.1-2.15,0.2V395z"/>
	<path class="st1" d="M655,387v7h8v-7h2v17h-2v-8h-8v8h-2v-17H655z"/>
	<path class="st1" d="M594,434h-6.7l-0.68,4.51c0.41-0.05,0.78-0.11,1.43-0.11c1.35,0,2.7,0.3,3.78,0.95
		c1.38,0.78,2.51,2.3,2.51,4.51c0,3.43-2.73,6-6.54,6c-1.92,0-3.54-0.54-4.38-1.08l0.59-1.81c0.73,0.43,2.16,0.97,3.76,0.97
		c2.24,0,4.16-1.46,4.16-3.81c-0.03-2.27-1.54-3.89-5.05-3.89c-1,0-1.78,0.11-2.43,0.19l1.14-8.43H594V434z"/>
	<path class="st1" d="M610.26,441.59c0,6.63-2.46,10.29-6.78,10.29c-3.81,0-6.39-3.57-6.45-10.02c0-6.54,2.82-10.14,6.78-10.14
		C607.92,431.72,610.26,435.38,610.26,441.59z M599.67,441.89c0,5.07,1.56,7.95,3.96,7.95c2.7,0,3.99-3.15,3.99-8.13
		c0-4.8-1.23-7.95-3.96-7.95C601.35,433.76,599.67,436.58,599.67,441.89z"/>
	<path class="st1" d="M620,442.94c0-1.55-0.05-2.79-0.09-3.94h1.49l0.1,2h0.34c0.96-1.58,2.49-2.52,4.61-2.52
		c3.13,0,5.49,2.65,5.49,6.59c0,4.66-2.84,6.96-5.89,6.96c-1.71,0-3.21-0.75-3.99-2.04H622v6h-2V442.94z M622,446.62
		c0,0.33,0.05,0.63,0.1,0.9c0.4,1.52,1.72,2.57,3.3,2.57c2.32,0,3.67-1.9,3.67-4.67c0-2.42-1.27-4.5-3.6-4.5
		c-1.5,0-2.9,1.07-3.32,2.72c-0.08,0.27-0.15,0.6-0.15,0.9V446.62z"/>
	<path class="st1" d="M634,442.94c0-1.55-0.05-2.79-0.09-3.94h1.72l0.1,2h0.12c0.96-1.58,2.49-2.52,4.61-2.52
		c3.13,0,5.49,2.65,5.49,6.59c0,4.66-2.84,6.96-5.89,6.96c-1.71,0-3.21-0.75-3.99-2.04H636v6h-2V442.94z M636,446.62
		c0,0.33,0.05,0.63,0.1,0.9c0.4,1.52,1.72,2.57,3.3,2.57c2.32,0,3.67-1.9,3.67-4.67c0-2.42-1.27-4.5-3.6-4.5
		c-1.5,0-2.9,1.07-3.32,2.72c-0.08,0.27-0.15,0.6-0.15,0.9V446.62z"/>
	<path class="st1" d="M647.87,452c0.05-1.28,0.13-3.58,0.13-3.58V434h2v7h0.05c0.76-1.33,2.14-2.18,4.05-2.18
		c2.94,0,5.03,2.45,5.01,6.06c0,4.25-2.68,6.36-5.33,6.36c-1.72,0-3.09-0.66-3.98-2.23h0.07l-0.1,3H647.87z M650,446.7
		c0,0.27,0.05,0.55,0.1,0.8c0.42,1.52,1.7,2.57,3.3,2.57c2.3,0,3.67-1.87,3.67-4.65c0-2.42-1.25-4.5-3.6-4.5
		c-1.5,0-2.9,1.02-3.35,2.7c-0.05,0.25-0.13,0.55-0.13,0.9V446.7z"/>
</g>
<line class="st2" x1="957" y1="395" x2="957" y2="496"/>
<line class="st2" x1="957" y1="547" x2="957" y2="648"/>
<g class="st3">
	<path class="st4" d="M886,429h18v4h-14v11h13v4h-13v15h-4V429z"/>
	<path class="st4" d="M908,463v-2.87l4.05-3.35c8.3-7.9,12.05-12.1,12.1-17c0-3.3-1.6-6.35-6.45-6.35c-2.95,0-5.4,1.5-6.9,2.75
		l-1.4-3.1c2.25-1.9,5.45-3.3,9.2-3.3c7,0,9.95,4.8,9.95,9.45c0,6-4.35,10.85-11.2,17.45l-2.35,2.4V459h14v4H908z"/>
</g>
<g class="st3">
	<path class="st4" d="M886,578h18v4h-14v11h13v4h-13v15h-4V578z"/>
	<path class="st4" d="M918,584h-0.24l-5.51,2.97l-0.83-3.27l6.93-3.71H922v32h-4V584z"/>
</g>
</svg>
