<?xml version="1.0" encoding="utf-8"?>
<!-- Generator: Adobe Illustrator 21.1.0, SVG Export Plug-In . SVG Version: 6.00 Build 0)  -->
<svg version="1.1"
	 id="svg2" inkscape:version="0.91 r13725" sodipodi:docname="MH-S412_icon.svg" xmlns:cc="http://creativecommons.org/ns#" xmlns:dc="http://purl.org/dc/elements/1.1/" xmlns:inkscape="http://www.inkscape.org/namespaces/inkscape" xmlns:rdf="http://www.w3.org/1999/02/22-rdf-syntax-ns#" xmlns:sodipodi="http://sodipodi.sourceforge.net/DTD/sodipodi-0.dtd" xmlns:svg="http://www.w3.org/2000/svg"
	 xmlns="http://www.w3.org/2000/svg" xmlns:xlink="http://www.w3.org/1999/xlink" x="0px" y="0px" viewBox="0 0 244.8 244.7"
	 style="enable-background:new 0 0 244.8 244.7;" xml:space="preserve">
<style type="text/css">
	.st0{fill:none;stroke:#000000;stroke-linejoin:bevel;}
	.st1{fill:#000200;}
	.st2{fill:none;}
	.st3{fill:none;stroke:#000000;stroke-miterlimit:10;}
	.st4{fill:none;stroke:#000000;}
</style>
<path id="path126" inkscape:connector-curvature="0" class="st0" d="M0.5,1.9v240.9"/>
<path id="path130" inkscape:connector-curvature="0" class="st0" d="M2,244.2h240.9"/>
<path id="path144" inkscape:connector-curvature="0" class="st0" d="M244.3,242.8V1.9"/>
<path id="path146" inkscape:connector-curvature="0" class="st0" d="M241.5,241.4H3.4V3.3h238.1V241.4z"/>
<path id="path148" inkscape:connector-curvature="0" class="st0" d="M242.9,0.5H2"/>
<g id="Layer1007" transform="translate(-163.6351,-451.0562)">
	<path id="path166" inkscape:connector-curvature="0" class="st1" d="M374.2,665v4.3c0,0.4-0.1,0.5-0.5,0.5h-2.8c0,0-0.3,0-0.6,0.3
		c-0.4,0.4-1.7,1.5-1.7,1.5s-0.9,0.7,0.1,0.7h7.9c0.7,0,0.9-0.2,0.9-0.9v-8.5c0-0.7-0.2-1-1-1h-3.1l0,0l0,0c-0.5,0-1.2,0.1-1.6,0.5
		c-0.3,0.2-4.9,4.3-4.9,4.3s-0.2,0.2-0.4,0.2l0,0c-0.1,0-0.3-0.2-0.3-0.2s-4.6-4.1-4.9-4.4c-0.4-0.3-1.1-0.4-1.6-0.4l0,0l0,0h-3.3
		c-0.8,0-1,0.3-1,1v5.4v1v2.1c0,0.6,0.2,0.8,0.8,0.9l0,0h0.1l0,0h1.4h0.6c0,0,0.3,0,0.6-0.3c0.4-0.4,1.7-1.5,1.7-1.5
		s0.9-0.7-0.1-0.7h-1.4c-0.4,0-0.5-0.1-0.5-0.5c0,0,0,0,0-0.1v-0.9v-3.4c0-0.2,0-0.6,0.5-0.2l4.7,4.2c0.1,0.1,0.2,0.2,0.3,0.3
		l-3,2.7c0,0-0.5,0.4,0.2,0.4h3l0,0l0,0c0.3,0,0.9,0,1.6-0.5c0.3-0.2,7.9-7,7.9-7C374.2,664.4,374.2,664.8,374.2,665L374.2,665z"/>
	<path id="path168" inkscape:connector-curvature="0" class="st1" d="M377.1,675.6h-5.5c-0.4,0-0.6,0.2-0.6,0.6v3.5
		c0,0.4,0.2,0.6,0.6,0.6h5.5c0.4,0,0.6-0.2,0.6-0.6v-3.5C377.7,675.8,377.5,675.6,377.1,675.6z M376.1,678.8L376.1,678.8
		c0,0.2,0,0.2-0.2,0.2h-3c-0.2,0-0.2,0-0.2-0.2V677c0-0.2,0-0.2,0.2-0.2h3c0.2,0,0.2,0,0.2,0.2V678.8z"/>
	<path id="path170" inkscape:connector-curvature="0" class="st1" d="M361.1,675.6h-5.5c-0.4,0-0.6,0.2-0.6,0.6v3.5
		c0,0.4,0.2,0.6,0.6,0.6h5.5c0.4,0,0.6-0.2,0.6-0.6v-3.5C361.7,675.8,361.5,675.6,361.1,675.6z M360.1,678.8L360.1,678.8
		c0,0.2,0,0.2-0.2,0.2h-3c-0.2,0-0.2,0-0.2-0.2V677c0-0.2,0-0.2,0.2-0.2h3c0.2,0,0.2,0,0.2,0.2V678.8z"/>
	<path id="path172" inkscape:connector-curvature="0" class="st1" d="M369.7,675.6H369c-0.3,0-0.5,0.1-0.5,0.5v2H365v-2
		c0-0.3-0.1-0.5-0.5-0.5h-0.7c-0.3,0-0.5,0.1-0.5,0.5v3.7c0,0.3,0.1,0.5,0.5,0.5h0.7c0.3,0,0.5-0.1,0.5-0.5v-0.5h3.5v0.5
		c0,0.3,0.1,0.5,0.5,0.5h0.7c0.3,0,0.5-0.1,0.5-0.5v-3.7C370.2,675.7,370,675.6,369.7,675.6z"/>
	<path id="path174" inkscape:connector-curvature="0" class="st1" d="M388.2,676.7h4.3c0.2,0,0.3-0.1,0.3-0.3v-0.6
		c0-0.2-0.1-0.3-0.3-0.3h-2.2h-3h-0.5c-0.4,0-0.6,0.2-0.6,0.6v3.5c0,0.4,0.2,0.6,0.6,0.6h0.5h3h2.2c0.2,0,0.3-0.1,0.3-0.3v-0.6
		c0-0.2-0.1-0.3-0.3-0.3h-4.3c-0.2,0-0.3-0.1-0.3-0.3v-0.3h4.6c0.2,0,0.3-0.1,0.3-0.3v-0.6c0-0.2-0.1-0.3-0.3-0.3h-4.6v-0.3
		C387.8,676.8,388,676.7,388.2,676.7L388.2,676.7z"/>
	<path id="path176" inkscape:connector-curvature="0" class="st1" d="M349.4,678.5v0.3c0,0.2,0.2,0.3,0.3,0.3h4.3
		c0.2,0,0.3,0.1,0.3,0.3v0.6c0,0.2-0.1,0.3-0.3,0.3h-2.2h-3h-0.4c-0.4,0-0.6-0.2-0.6-0.6v-3.5c0-0.4,0.2-0.6,0.6-0.6h0.5h3h2.2
		c0.2,0,0.3,0.1,0.3,0.3v0.6c0,0.2-0.1,0.3-0.3,0.3h-4.3c-0.2,0-0.3,0.1-0.3,0.3v0.3v1.1L349.4,678.5L349.4,678.5z"/>
	<path id="path178" inkscape:connector-curvature="0" class="st1" d="M346.5,675.5h-0.9c-0.3,0-0.5,0-0.8,0.3c-0.1,0.1-1,0.9-1,0.9
		s-0.1,0.1-0.2,0.1s-0.2-0.1-0.2-0.1s-0.8-0.8-1-0.9c-0.4-0.3-0.6-0.3-0.8-0.3h-0.9c-0.3,0-0.5,0.2-0.5,0.5v3.8
		c0,0.3,0.1,0.4,0.5,0.4h0.7c0.3,0,0.4-0.1,0.4-0.5v-2.3c0,0,1.3,1.1,1.4,1.3c0.1,0.1,0.2,0.1,0.3,0.1l0,0l0,0l0,0
		c0.1,0,0.2,0,0.3-0.1c0.2-0.1,1.4-1.3,1.4-1.3v2.4c0,0.3,0.1,0.5,0.4,0.5h0.7c0.3,0,0.5-0.1,0.5-0.4v-3.8
		C347,675.7,346.9,675.5,346.5,675.5L346.5,675.5z"/>
	<path id="path180" inkscape:connector-curvature="0" class="st1" d="M384.9,675.5H384c-0.3,0-0.5,0-0.8,0.3c-0.1,0.1-1,0.9-1,0.9
		s-0.1,0.1-0.2,0.1s-0.2-0.1-0.2-0.1s-0.8-0.8-1-0.9c-0.4-0.3-0.6-0.3-0.8-0.3h-0.9c-0.3,0-0.5,0.2-0.5,0.5v3.8
		c0,0.3,0.1,0.4,0.5,0.4h0.7c0.3,0,0.4-0.1,0.4-0.5v-2.3c0,0,1.3,1.1,1.4,1.3c0.1,0.1,0.2,0.1,0.3,0.1l0,0l0,0l0,0
		c0.1,0,0.2,0,0.3-0.1c0.2-0.1,1.4-1.3,1.4-1.3v2.4c0,0.3,0.1,0.5,0.4,0.5h0.7c0.3,0,0.5-0.1,0.5-0.4v-3.8
		C385.3,675.7,385.2,675.5,384.9,675.5L384.9,675.5z"/>
</g>
<path id="path182" inkscape:connector-curvature="0" class="st2" d="M122.4,64c-1.7,0-3.1,1.4-3.1,3.1s1.4,3.1,3.1,3.1
	s3.1-1.4,3.1-3.1S124.1,64,122.4,64z"/>
<g>
	<path id="path184" inkscape:connector-curvature="0" class="st3" d="M98.3,68.5l-1.1,2.6c7.4,3.2,12,10.4,12,18.2l0,0l0,0
		c0,1.3-0.1,2.6-0.4,4c-1.9,9.2-10,15.9-19.4,15.9S71.9,102.6,70,93.3c-1.9-9.2,3-18.5,11.6-22.2l-1.1-2.6
		C70.6,72.7,65,83.3,67.2,93.9S78.6,112,89.4,112s20.1-7.6,22.2-18.1C113.8,83.4,108.2,72.8,98.3,68.5z"/>
	<path id="path186" inkscape:connector-curvature="0" class="st3" d="M89.4,71.2c1.7,0,3.1-1.4,3.1-3.1S91.1,65,89.4,65
		s-3.1,1.4-3.1,3.1C86.3,69.8,87.7,71.2,89.4,71.2z"/>
</g>
<g>
	<path id="path154" inkscape:connector-curvature="0" d="M165.4,68.1c0-1.7-1.4-3.1-3.1-3.1c-1.7,0-3.1,1.4-3.1,3.1s1.4,3.1,3.1,3.1
		C164,71.3,165.4,69.9,165.4,68.1z"/>
	<path id="path156" inkscape:connector-curvature="0" d="M155.5,68.1c0-1.7-1.4-3.1-3.1-3.1s-3.1,1.4-3.1,3.1s1.4,3.1,3.1,3.1
		C154.1,71.3,155.5,69.9,155.5,68.1z"/>
	<path id="path188" inkscape:connector-curvature="0" d="M145.1,69.7c-8.5,5.4-12.4,15.8-9.6,25.5s11.7,16.4,21.8,16.4
		s19-6.7,21.8-16.4s-1.1-20.1-9.6-25.5l-1.5,2.4c5.8,3.7,9.2,10.1,9.2,16.7l0,0l0,0c0,1.8-0.3,3.7-0.8,5.5
		c-2.5,8.5-10.2,14.3-19.1,14.3c-8.9,0-16.6-5.8-19.1-14.3s1-17.6,8.4-22.3C146.7,72.1,145.1,69.7,145.1,69.7z"/>
	<path id="path190" inkscape:connector-curvature="0" d="M149.2,68.1c0,1.7,1.4,3.1,3.1,3.1s3.1-1.4,3.1-3.1S154,65,152.3,65
		S149.2,66.4,149.2,68.1z"/>
	<path id="path192" inkscape:connector-curvature="0" d="M162.3,65c-1.7,0-3.1,1.4-3.1,3.1s1.4,3.1,3.1,3.1c1.7,0,3.1-1.4,3.1-3.1
		S164,65,162.3,65z"/>
</g>
<path class="st0" d="M244.3,1.9c0-0.8-0.6-1.4-1.4-1.4"/>
<path class="st0" d="M0.5,1.9c0-0.8,0.7-1.4,1.5-1.4"/>
<path class="st0" d="M0.5,242.8c0,0.8,0.7,1.4,1.5,1.4"/>
<path class="st0" d="M244.3,242.8c0,0.8-0.6,1.4-1.4,1.4"/>
<g>
	<ellipse class="st3" cx="144.3" cy="141.2" rx="3.3" ry="3.1"/>
	<ellipse class="st3" cx="161.4" cy="137.6" rx="3.3" ry="3.1"/>
	<ellipse class="st3" cx="152.4" cy="137.6" rx="3.3" ry="3.1"/>
	<ellipse class="st3" cx="169.1" cy="141.2" rx="3.3" ry="3.1"/>
	<path id="path188_3_" inkscape:connector-curvature="0" class="st3" d="M141.1,146.5"/>
	<path id="path188_7_" inkscape:connector-curvature="0" class="st3" d="M138.7,145.2"/>
	<path id="path188_8_" inkscape:connector-curvature="0" class="st3" d="M138.8,145.1"/>
	<path id="path188_6_" inkscape:connector-curvature="0" class="st3" d="M138.8,145"/>
	<path class="st4" d="M138.7,145.2"/>
	<path class="st4" d="M138.6,145.3"/>
	<path class="st4" d="M138.6,145.3"/>
	<path class="st4" d="M172.9,146.8"/>
	<path class="st4" d="M172.9,146.8"/>
	<path class="st4" d="M175.3,145.3"/>
	<path class="st4" d="M175.3,145.3"/>
	<path class="st4" d="M175.3,145.3"/>
	<path class="st3" d="M175.3,145.3l-2.3,1.6c0.5,0.7,1,1.4,1.4,2.2c1.6,2.9,2.4,6.1,2.4,9.4l0,0l0,0l0,0l0,0c0,0.9-0.1,1.8-0.2,2.7
		c-0.1,0.9-0.3,1.8-0.6,2.7c-1.2,4.2-3.8,7.8-7.1,10.3s-7.5,3.9-11.9,3.9s-8.6-1.4-11.9-3.9c-3.3-2.5-5.9-6-7.1-10.3
		c-1.2-4.2-1-8.6,0.5-12.5c0.6-1.6,1.5-3.2,2.5-4.6l-0.5-0.3l0.5,0.3l-1.1-0.8l-1.1-0.8l1.1,0.8l0.7,0.5l-1.8-1.2
		c-1.2,1.6-2.1,3.4-2.8,5.3c-1.7,4.5-2,9.5-0.6,14.3s4.3,8.9,8.2,11.8s8.6,4.5,13.6,4.5s9.8-1.7,13.6-4.5c3.8-2.9,6.8-6.9,8.2-11.8
		c1.4-4.8,1.1-9.8-0.6-14.3C177.5,148.7,176.5,146.9,175.3,145.3z"/>
</g>
<g>
	<path id="path188_4_" inkscape:connector-curvature="0" class="st3" d="M74.1,141.9"/>
	<path id="path188_10_" inkscape:connector-curvature="0" class="st3" d="M76.6,143.3"/>
	<path id="path188_13_" inkscape:connector-curvature="0" class="st3" d="M76,143.8"/>
	<ellipse class="st3" cx="89.3" cy="136.9" rx="3.4" ry="3.2"/>
	<ellipse class="st3" cx="80.8" cy="138.7" rx="3.4" ry="3.2"/>
	<ellipse class="st3" cx="97.9" cy="138.7" rx="3.4" ry="3.2"/>
	<path class="st3" d="M102.7,143.9"/>
	<path class="st3" d="M102.7,144l2-2c6.2,5.7,8.8,14.6,6.4,23c-2.8,9.7-11.7,16.3-21.8,16.3s-19-6.7-21.8-16.3
		c-2.4-8.3,0.1-17.1,6.2-22.8l2,1.9c-5.4,5-7.7,12.7-5.5,20c2.5,8.5,10.2,14.3,19.1,14.3s16.6-5.8,19.1-14.3
		c0.5-1.8,0.8-3.7,0.8-5.5l0,0l0,0C109.2,153.1,106.9,147.7,102.7,144z"/>
</g>
</svg>
