<?xml version="1.0" encoding="utf-8"?>
<!-- Generator: Adobe Illustrator 21.1.0, SVG Export Plug-In . SVG Version: 6.00 Build 0)  -->
<svg version="1.1" id="Laag_1" xmlns="http://www.w3.org/2000/svg" xmlns:xlink="http://www.w3.org/1999/xlink" x="0px" y="0px"
	 viewBox="0 0 867.1 867.1" style="enable-background:new 0 0 867.1 867.1;" xml:space="preserve">
<style type="text/css">
	.st0{fill:none;stroke:#000000;stroke-width:3;stroke-linecap:round;stroke-linejoin:round;stroke-miterlimit:10;}
	.st1{stroke:#000000;stroke-miterlimit:10;}
	.st2{fill:#FFFFFF;stroke:#000000;stroke-miterlimit:10;}
	.st3{fill:none;stroke:#000000;stroke-linecap:round;stroke-linejoin:round;stroke-miterlimit:10;}
	.st4{fill:#FFFFFF;}
</style>
<path class="st0" d="M863.5,8.5c0-2.8-2.2-5-5-5H8.5c-2.8,0-5,2.2-5,5v850c0,2.8,2.2,5,5,5h850c2.8,0,5-2.2,5-5"/>
<path class="st1" d="M116.5,228.5c0-12.7-10.3-23-23-23s-23,10.3-23,23s10.3,23,23,23S116.5,241.2,116.5,228.5L116.5,228.5z
	 M121,228.5c0-15.2-12.3-27.5-27.5-27.5S66,213.4,66,228.5c0,15.2,12.3,27.5,27.5,27.5S121,243.7,121,228.5L121,228.5z M92.9,652.8
	c0.7-2.2,1.4-4.3,2.1-6.4l9.6-27.8h7.1v40h-5.1v-33.5L95,658.5h-4.8l-11.6-34.1v34.1h-5.1v-40h8l9.5,28.3
	C91.6,648.8,92.3,650.8,92.9,652.8L92.9,652.8z M99,226.3l8.4,2.2l-8.4,2.2h-8v-12.5l2.5-9.3l2.5,9.3v8h3V226.3z M773.5,256.2
	l25,43.3h-5.2l-19.8-34.3l-19.8,34.3h-5.2L773.5,256.2L773.5,256.2z M798.5,567.5l-25,43.3l-25-43.3h5.2l19.8,34.3l19.8-34.3H798.5
	L798.5,567.5z"/>
<path class="st2" d="M70.5,228.5c0-12.7,10.3-23,23-23s23,10.3,23,23s-10.3,23-23,23S70.5,241.2,70.5,228.5L70.5,228.5z"/>
<g id="LWPOLYLINE_1_">
	<rect x="223.5" y="128.5" class="st1" width="420" height="610"/>
</g>
<g id="LINE_15_">
	<line class="st0" x1="863.5" y1="858.5" x2="863.5" y2="8.5"/>
</g>
<g id="LINE_36_">
	<line class="st0" x1="189.5" y1="128.5" x2="13.5" y2="128.5"/>
</g>
<g id="LINE_37_">
	<line class="st0" x1="677.5" y1="128.5" x2="853.5" y2="128.5"/>
</g>
<g id="LINE_38_">
	<line class="st0" x1="13.5" y1="134.5" x2="183.5" y2="134.5"/>
</g>
<g id="LINE_39_">
	<line class="st0" x1="683.5" y1="134.5" x2="853.5" y2="134.5"/>
</g>
<g id="LINE_41_">
	<line class="st0" x1="183.5" y1="732.5" x2="183.5" y2="537"/>
</g>
<g id="LINE_42_">
	<line class="st0" x1="183.5" y1="531" x2="183.5" y2="336"/>
</g>
<g id="LINE_43_">
	<line class="st0" x1="183.5" y1="330" x2="183.5" y2="134.5"/>
</g>
<g id="LINE_44_">
	<line class="st0" x1="189.5" y1="128.5" x2="189.5" y2="738.5"/>
</g>
<g id="LINE_53_">
	<line class="st3" x1="753.7" y1="299.5" x2="748.5" y2="299.5"/>
</g>
<g id="LINE_55_">
	<line class="st0" x1="13.5" y1="330" x2="183.5" y2="330"/>
</g>
<g id="LINE_56_">
	<line class="st0" x1="13.5" y1="336" x2="183.5" y2="336"/>
</g>
<g id="LINE_59_">
	<line class="st0" x1="683.5" y1="430.5" x2="853.5" y2="430.5"/>
</g>
<g id="LINE_60_">
	<line class="st0" x1="683.5" y1="436.5" x2="853.5" y2="436.5"/>
</g>
<g id="LINE_61_">
	<line class="st0" x1="13.5" y1="531" x2="183.5" y2="531"/>
</g>
<g id="LINE_62_">
	<line class="st0" x1="13.5" y1="537" x2="183.5" y2="537"/>
</g>
<g id="LINE_70_">
	<line class="st0" x1="677.5" y1="738.5" x2="677.5" y2="128.5"/>
</g>
<g id="LINE_76_">
	<line class="st0" x1="683.5" y1="134.5" x2="683.5" y2="430.5"/>
</g>
<g id="LINE_77_">
	<line class="st0" x1="683.5" y1="436.5" x2="683.5" y2="732.5"/>
</g>
<g id="LINE_78_">
	<line class="st0" x1="183.5" y1="732.5" x2="13.5" y2="732.5"/>
</g>
<g id="LINE_79_">
	<line class="st0" x1="683.5" y1="732.5" x2="853.5" y2="732.5"/>
</g>
<g id="LINE_80_">
	<line class="st0" x1="13.5" y1="738.5" x2="189.5" y2="738.5"/>
</g>
<g id="LINE_82_">
	<line class="st0" x1="677.5" y1="738.5" x2="853.5" y2="738.5"/>
</g>
<g id="LWPOLYLINE_13_">
	<polygon class="st4" points="436.6,229.7 443.4,229.7 444.1,221.6 437.3,221.6 	"/>
</g>
<g id="LWPOLYLINE_14_">
	<polygon class="st4" points="445.9,201 439.1,201 438.4,209 445.2,209 	"/>
</g>
<g id="LWPOLYLINE_15_">
	<path class="st4" d="M386.9,210.9l2.6,2.5h0.2l2.6-2.1l1.2-13.3c0.2-1.7-0.5-3.4-1.8-4.5l-3.8,5.6L386.9,210.9z"/>
</g>
<g id="LWPOLYLINE_16_">
	<path class="st4" d="M391.7,218.4l-2.1-2h-0.2l-3.2,2.6l-1.1,13l2.9,5.1c1.4-0.9,2.3-2.4,2.5-4.1
		C390.4,233.1,391.7,218.4,391.7,218.4z"/>
</g>
<g id="LWPOLYLINE_17_">
	<path class="st4" d="M425.9,191.6c0.6,0,1.3,0.1,1.9,0.3l-3.4,5.1h-14.1l-2.6-5.3c0.5-0.1,1-0.1,1.5-0.1
		C409.2,191.6,425.9,191.6,425.9,191.6z"/>
</g>
<g id="LWPOLYLINE_18_">
	<polygon class="st4" points="422.4,217.5 408.1,217.5 405.3,214.6 408.7,212 422.5,212 425.6,214.9 	"/>
</g>
<g id="LWPOLYLINE_19_">
	<path class="st4" d="M421.7,238.2c0.6,0.1,1.3,0,1.9-0.2l-3.1-5.3h-14l-3.1,5.3c0.5,0.1,1.1,0.2,1.6,0.2H421.7z"/>
</g>
<g id="LWPOLYLINE_20_">
	<path class="st4" d="M424.5,210.9l2.6,2.5h0.2l2.6-2.1l1.2-13.3c0.2-1.7-0.5-3.4-1.8-4.5l-3.8,5.6L424.5,210.9z"/>
</g>
<g id="LWPOLYLINE_21_">
	<path class="st4" d="M401.1,217.9l2.4-1.8h0.2l2.9,2.8l-1,11.3l-4.1,7c-1.2-0.9-1.8-2.4-1.7-3.9
		C399.7,233.2,401.1,217.9,401.1,217.9z"/>
</g>
<g id="LWPOLYLINE_22_">
	<path class="st4" d="M477.5,191.6c0.6,0,1.3,0.1,1.9,0.3L476,197h-14.1l-2.6-5.3c0.5-0.1,1-0.1,1.5-0.1L477.5,191.6L477.5,191.6z"
		/>
</g>
<g id="LWPOLYLINE_23_">
	<path class="st4" d="M473.3,238.2c0.6,0.1,1.3,0,1.9-0.2l-3.1-5.3h-14L455,238c0.5,0.1,1.1,0.2,1.6,0.2H473.3z"/>
</g>
<g id="LWPOLYLINE_24_">
	<path class="st4" d="M476.1,210.9l2.6,2.5h0.2l2.6-2.1l1.2-13.3c0.2-1.7-0.5-3.4-1.8-4.5l-3.8,5.6L476.1,210.9z"/>
</g>
<g id="LWPOLYLINE_25_">
	<path class="st4" d="M458.8,210.4l-3.4,2.7h-0.2l-2-1.9l1.3-14.6c0-0.2,0-0.4,0.1-0.6c0.2-1.6,1-3.1,2.4-4l2.9,5.9L458.8,210.4z"/>
</g>
<g id="LWPOLYLINE_26_">
	<path class="st4" d="M480.9,218.4l-2.1-2h-0.2l-3.2,2.6l-1.1,13l2.9,5.1c1.4-0.9,2.3-2.4,2.5-4.1
		C479.7,233.1,480.9,218.4,480.9,218.4z"/>
</g>
<g id="LWPOLYLINE_27_">
	<path class="st4" d="M452.7,217.9l2.4-1.8h0.2l2.9,2.8l-1,11.3l-4.1,7c-1.2-0.9-1.8-2.4-1.7-3.9L452.7,217.9z"/>
</g>
<g id="LWPOLYLINE_28_">
	<path class="st4" d="M515.2,191.6c0.6,0,1.3,0.1,1.9,0.3l-3.4,5.1h-14.1l-2.6-5.3c0.5-0.1,1-0.1,1.5-0.1
		C498.4,191.6,515.2,191.6,515.2,191.6z"/>
</g>
<g id="LWPOLYLINE_29_">
	<path class="st4" d="M511,238.2c0.6,0.1,1.3,0,1.9-0.2l-3.1-5.3h-14l-3.1,5.3c0.5,0.1,1.1,0.2,1.6,0.2
		C494.2,238.2,511,238.2,511,238.2z"/>
</g>
<g id="LWPOLYLINE_30_">
	<path class="st4" d="M513.8,210.9l2.6,2.5h0.2l2.6-2.1l1.2-13.3c0.2-1.7-0.5-3.4-1.8-4.5l-3.8,5.6L513.8,210.9z"/>
</g>
<g id="LWPOLYLINE_31_">
	<path class="st4" d="M496.5,210.4L493,213h-0.2l-2-1.9l1.3-14.6c0-0.2,0-0.4,0.1-0.6c0.2-1.6,1-3.1,2.4-4l2.9,5.9L496.5,210.4z"/>
</g>
<g id="LWPOLYLINE_32_">
	<path class="st4" d="M518.6,218.4l-2.1-2h-0.2l-3.2,2.6l-1.1,13l2.9,5.1c1.4-0.9,2.3-2.4,2.5-4.1
		C517.3,233.1,518.6,218.4,518.6,218.4z"/>
</g>
<g id="LWPOLYLINE_33_">
	<path class="st4" d="M490.3,217.9l2.4-1.8h0.2l2.9,2.8l-1,11.3l-4.1,7c-1.2-0.9-1.8-2.4-1.7-3.9C489,233.2,490.3,217.9,490.3,217.9
		z"/>
</g>
<g id="LWPOLYLINE_34_">
	<path class="st4" d="M552,398.2h-37c-0.8,0-1.6,0.1-2.3,0.2l5.5,11.2h31.7l7-10.4C555.4,398.5,553.7,398.2,552,398.2z"/>
</g>
<g id="LWPOLYLINE_35_">
	<polygon class="st4" points="545.2,453.3 513.1,453.3 507,447.3 514.3,441.6 546.1,441.6 552.4,447.5 	"/>
</g>
<g id="LWPOLYLINE_36_">
	<path class="st4" d="M548.3,497.1l-6.5-11.3h-31.4l-6.3,10.9c1.4,0.6,2.9,0.8,4.3,0.8h37C546.3,497.5,547.3,497.4,548.3,497.1z"/>
</g>
<g id="LWPOLYLINE_37_">
	<path class="st4" d="M433.4,398.2c-0.8,0-1.6,0.1-2.3,0.2l5.5,11.2h31.7l7-10.4c-1.5-0.7-3.2-1.1-4.9-1.1
		C470.4,398.2,433.4,398.2,433.4,398.2z"/>
</g>
<g id="LWPOLYLINE_38_">
	<polygon class="st4" points="463.6,453.3 431.5,453.3 425.4,447.3 432.6,441.6 464.5,441.6 470.7,447.5 	"/>
</g>
<g id="LWPOLYLINE_39_">
	<path class="st4" d="M419.1,440.2l4.6,4.5l7.2-5.6l2.5-28.8l-5.3-10.8c-3.5,1.8-5.9,5.3-6.3,9.3
		C421.8,408.7,419.1,440.2,419.1,440.2z"/>
</g>
<g id="LWPOLYLINE_40_">
	<path class="st4" d="M428.7,485.8l-6.3,10.9c1.4,0.6,2.9,0.8,4.3,0.8h37c1,0,2-0.1,3-0.4l-6.5-11.3H428.7z"/>
</g>
<g id="LWPOLYLINE_41_">
	<path class="st4" d="M429.4,455.6l-2.3,26.1l-7.7,13.2c-3-2.4-4.6-6.2-4.3-10.1l2.8-31.6l5.1-4L429.4,455.6z"/>
</g>
<g id="LWPOLYLINE_42_">
	<path class="st4" d="M351.4,455.6l-2.3,26.1l-7.7,13.2c-3-2.4-4.6-6.2-4.3-10.1l2.8-31.6l5.1-4L351.4,455.6z"/>
</g>
<g id="LWPOLYLINE_43_">
	<path class="st4" d="M388.6,497.1l-6.5-11.3h-31.4l-6.3,10.9c1.4,0.6,2.9,0.8,4.3,0.8h37C386.6,497.5,387.6,497.4,388.6,497.1z"/>
</g>
<g id="LWPOLYLINE_44_">
	<path class="st4" d="M392.3,398.2h-37c-0.8,0-1.6,0.1-2.3,0.2l5.5,11.2h31.7l7-10.4C395.7,398.5,394,398.2,392.3,398.2z"/>
</g>
<g id="LWPOLYLINE_45_">
	<polygon class="st4" points="385.5,453.3 353.4,453.3 347.3,447.3 354.6,441.6 386.4,441.6 392.7,447.5 	"/>
</g>
<g id="LWPOLYLINE_46_">
	<path class="st4" d="M401.2,441.5l2.7-30.7c0.3-3.7-1.2-7.4-4-9.8l-7.9,11.6l-2.4,27.7l6.1,5.7L401.2,441.5z"/>
</g>
<g id="LWPOLYLINE_47_">
	<path class="st4" d="M466.4,455l-2.7,30.6l5.9,10.3c3.2-1.9,5.3-5.2,5.7-9l2.8-32.3l-5.2-4.9L466.4,455z"/>
</g>
<g id="LWPOLYLINE_48_">
	<polygon class="st4" points="490.7,502.1 491.2,491.8 482,491.8 481.5,502.1 	"/>
</g>
<g id="LWPOLYLINE_49_">
	<path class="st4" d="M482,410.8c0.3-3.7-1.2-7.4-4-9.8l-7.9,11.6l-2.4,27.7l6.1,5.7l5.5-4.5L482,410.8z"/>
</g>
<g id="LWPOLYLINE_50_">
	<path class="st4" d="M500.7,440.2l4.6,4.5l7.2-5.6l2.5-28.8l-5.3-10.8c-3.5,1.8-5.9,5.3-6.3,9.3
		C503.5,408.7,500.7,440.2,500.7,440.2z"/>
</g>
<g id="LWPOLYLINE_51_">
	<path class="st4" d="M554.5,449.8L548,455l-2.7,30.6l5.9,10.3c3.2-1.9,5.3-5.2,5.7-9l2.8-32.3L554.5,449.8z"/>
</g>
<g id="CIRCLE_2_">
	<path class="st4" d="M596.1,393.8c0-2.2,1.8-4,4-4s4,1.8,4,4s-1.8,4-4,4S596.1,396,596.1,393.8L596.1,393.8z"/>
</g>
<g id="LWPOLYLINE_52_">
	<polygon class="st4" points="613.2,401 614,401.3 614.7,401.8 615.2,402.3 615.8,403 616.2,403.8 616.5,404.7 621.2,403.5 621,403 
		620.7,402.1 620.3,401.2 619.8,400.5 619.3,399.8 618.8,399.2 618.4,398.9 617.7,398.4 617,397.9 616.2,397.5 615.4,397.2 
		614.6,397 613.7,396.8 612.7,396.7 611.7,396.6 610.8,396.7 609.9,396.8 609,396.9 608.1,397.1 607.3,397.4 606.5,397.8 
		605.8,398.2 605,398.7 604.4,399.3 603.7,399.9 603.2,400.5 602.7,401.1 602.3,401.8 601.9,402.6 601.6,403.4 601.3,404.2 
		601.1,405.1 600.9,406 600.8,407 600.7,408 600.7,409 600.7,409.6 600.8,410.6 600.9,411.6 601,412.5 601.3,413.4 601.5,414.2 
		601.9,415 602.2,415.8 602.7,416.5 603.2,417.2 603.7,417.8 604.1,418.2 604.8,418.8 605.5,419.3 606.2,419.8 607,420.2 
		607.8,420.5 608.7,420.7 609.6,420.9 610.5,421 611.4,421 611.8,421 612.8,421 613.7,420.8 614.6,420.6 615.5,420.4 616.3,420 
		617,419.6 617.7,419.2 618.1,418.9 618.6,418.3 619.2,417.7 619.7,417 620.2,416.2 620.6,415.3 620.9,414.4 621.2,413.4 616.6,412 
		616.4,412.8 616.1,413.7 615.7,414.5 615.2,415.2 614.6,415.8 614,416.3 613.2,416.7 612.3,416.9 611.4,417 611.1,417 610.2,416.8 
		609.3,416.6 608.6,416.2 607.8,415.7 607.2,415.1 607,414.9 606.7,414.3 606.3,413.6 606.1,412.8 605.9,411.9 605.7,410.9 
		605.6,409.9 605.6,408.7 605.6,408.6 605.6,407.4 605.7,406.4 605.9,405.4 606.1,404.6 606.4,403.8 606.8,403.2 607.2,402.6 
		607.5,402.3 608.1,401.8 608.9,401.3 609.7,401 610.5,400.8 611.5,400.7 612.3,400.8 	"/>
</g>
<path class="st4" d="M261.1,454.2v12.3c-1.6,1.3-2,3.6-0.7,5.3s3.6,2,5.3,0.7c1.6-1.3,2-3.6,0.7-5.3c-0.2-0.3-0.4-0.5-0.7-0.7v-12.3
	c-0.1-1.3-1.3-2.2-2.5-2.1C262.1,452.3,261.2,453.1,261.1,454.2z"/>
<g id="LINE_787_">
	<rect x="247.2" y="453.9" class="st4" width="2.5" height="19.4"/>
</g>
<path class="st4" d="M279.6,453.9v19.4h-2.5v-19.4H279.6z"/>
<polyline class="st4" points="241.8,452.8 263.4,437.2 284.9,452.8 280.6,452.8 263.4,440.3 246.1,452.8 "/>
<g id="HATCH_22_">
	<path d="M498,807.5h-2.4c-0.7,0-1.3,0-2.3,0.9c-0.4,0.3-2.7,2.4-2.7,2.4s-0.2,0.2-0.5,0.3c-0.3,0-0.5-0.3-0.5-0.3s-2.3-2.1-2.7-2.4
		c-1-0.9-1.6-0.9-2.3-0.9h-2.4c-0.9,0-1.3,0.4-1.3,1.3v10.4c0,0.9,0.4,1.1,1.3,1.1h2c0.9,0,1.1-0.4,1.1-1.3v-6.5
		c0,0,3.4,3.1,3.9,3.5c0.4,0.3,0.7,0.4,0.9,0.4c0.2,0,0.5,0,0.9-0.4c0.5-0.4,3.9-3.5,3.9-3.5v6.5c0,0.9,0.2,1.3,1.1,1.3h2
		c0.9,0,1.3-0.2,1.3-1.1v-10.4C499.3,807.9,498.9,807.5,498,807.5z M393.6,807.5h-2.4c-0.7,0-1.3,0-2.3,0.9
		c-0.4,0.3-2.7,2.4-2.7,2.4s-0.2,0.2-0.5,0.3c-0.3,0-0.5-0.3-0.5-0.3s-2.3-2.1-2.7-2.4c-1-0.9-1.6-0.9-2.3-0.9h-2.4
		c-0.9,0-1.3,0.4-1.3,1.3v10.4c0,0.9,0.4,1.1,1.3,1.1h2c0.9,0,1.1-0.4,1.1-1.3v-6.5c0,0,3.4,3.1,3.9,3.5c0.4,0.3,0.7,0.4,0.9,0.4
		c0.2,0,0.5,0,0.9-0.4c0.5-0.4,3.9-3.5,3.9-3.5v6.5c0,0.9,0.2,1.3,1.1,1.3h2c0.9,0,1.3-0.2,1.3-1.1v-10.4
		C394.8,807.9,394.4,807.5,393.6,807.5z M401.4,815.6v0.8c0,0.5,0.4,0.7,0.9,0.7h11.6c0.6,0,0.8,0.2,0.8,0.8v1.5
		c0,0.7-0.2,0.8-0.8,0.8H408h-8.1h-1.4c-1.1,0-1.6-0.6-1.6-1.6v-9.4c0-1.1,0.6-1.6,1.6-1.6h1.4h8.1h5.9c0.6,0,0.8,0.2,0.8,0.8v1.5
		c0,0.6-0.2,0.8-0.8,0.8h-11.6c-0.5,0-0.9,0.2-0.9,0.7v0.9V815.6z M507,810.8h11.6c0.6,0,0.8-0.2,0.8-0.8v-1.5
		c0-0.6-0.2-0.8-0.8-0.8h-5.9h-8.1h-1.4c-1.1,0-1.6,0.6-1.6,1.6v9.4c0,1.1,0.6,1.6,1.6,1.6h1.4h8.1h5.9c0.6,0,0.8-0.2,0.8-0.8V818
		c0-0.6-0.2-0.8-0.8-0.8H507c-0.5,0-0.9-0.2-0.9-0.7v-0.8h12.6c0.6,0,0.8-0.2,0.8-0.8v-1.5c0-0.6-0.2-0.8-0.8-0.8h-12.6v-0.9
		C506.1,811,506.5,810.8,507,810.8z M456.7,807.6h-1.8c-0.9,0-1.2,0.4-1.2,1.3v5.6h-9.5v-5.6c0-0.9-0.4-1.3-1.3-1.3h-1.8
		c-0.9,0-1.3,0.4-1.3,1.3v10.2c0,0.9,0.4,1.3,1.3,1.3h1.8c0.9,0,1.3-0.4,1.3-1.3v-1.4h9.5v1.4c0,0.9,0.4,1.3,1.2,1.3h1.8
		c0.9,0,1.3-0.4,1.3-1.3v-10.2C458,808,457.6,807.6,456.7,807.6z M430.5,816.4c0,0.5-0.1,0.6-0.6,0.6h-8.1c-0.5,0-0.6-0.1-0.6-0.6
		v-4.9c0-0.5,0.1-0.6,0.6-0.6h8.1c0.5,0,0.6,0.1,0.6,0.6V816.4z M433.3,807.6h-14.9c-1.1,0-1.6,0.6-1.6,1.6v9.4
		c0,1.1,0.6,1.6,1.6,1.6h14.9c1.1,0,1.6-0.6,1.6-1.6v-9.4C434.9,808.1,434.4,807.6,433.3,807.6z M474.1,816.4c0,0.5-0.1,0.6-0.6,0.6
		h-8.1c-0.5,0-0.6-0.1-0.6-0.6v-4.9c0-0.5,0.1-0.6,0.6-0.6h8.1c0.5,0,0.6,0.1,0.6,0.6V816.4z M476.9,807.6H462
		c-1.1,0-1.6,0.6-1.6,1.6v9.4c0,1.1,0.6,1.6,1.6,1.6h14.9c1.1,0,1.6-0.6,1.6-1.6v-9.4C478.6,808.1,478,807.6,476.9,807.6z
		 M468.9,778.7v11.6c0,1.1-0.4,1.5-1.5,1.5h-7.6c0,0-0.9,0-1.7,0.7c-1.1,1-4.6,4.1-4.6,4.1s-2.4,2,0.4,2h21.4c1.9,0,2.5-0.6,2.5-2.3
		v-23.2c0-2-0.7-2.7-2.8-2.7h-8.5c-1.4,0-3.3,0.3-4.5,1.3c-0.9,0.7-13.3,11.8-13.3,11.8s-0.6,0.6-1,0.6h-0.1
		c-0.4-0.1-0.9-0.6-0.9-0.6s-12.6-11.2-13.4-11.9c-1.2-0.9-3-1.2-4.4-1.2h-8.5c-2.1,0-2.8,0.7-2.8,2.7v14.7v2.6v5.8
		c0,1.7,0.5,2.3,2.2,2.3h0.3h4h1.8c0,0,0.9,0,1.7-0.7c1.1-1,4.6-4.1,4.6-4.1s2.4-2-0.4-2H428c-1,0-1.4-0.4-1.4-1.3
		c0-0.1,0-0.1,0-0.2v-2.5v-9.2c0-0.5,0-1.6,1.3-0.5l12.7,11.4c0.3,0.2,0.5,0.5,0.8,0.7l-8.2,7.3c0,0-1.4,1.1,0.5,1.1h8.2
		c0.9,0,2.4,0,4.4-1.4c0.9-0.6,21.6-19.1,21.6-19.1C468.9,777.1,468.9,778.2,468.9,778.7z"/>
</g>
<rect x="13.5" y="13.5" class="st0" width="840" height="840"/>
<g id="LINE_54_">
	<polygon class="st1" points="91,232.2 91,219.7 93.5,210.4 96,219.7 96,227.7 99,227.7 107.4,229.9 99,232.2 	"/>
</g>
<polygon points="88.8,435.3 108,435.3 108,430.8 88.8,430.8 88.8,418 111,418 111,413.2 83.7,413.2 83.7,453.8 88.8,453.8 "/>
</svg>
