<?xml version="1.0" encoding="utf-8"?>
<!-- Generator: Adobe Illustrator 21.1.0, SVG Export Plug-In . SVG Version: 6.00 Build 0)  -->
<svg version="1.1" id="Laag_1" xmlns="http://www.w3.org/2000/svg" xmlns:xlink="http://www.w3.org/1999/xlink" x="0px" y="0px"
	 viewBox="0 0 900 900" style="enable-background:new 0 0 900 900;" xml:space="preserve">
<style type="text/css">
	.st0{fill:#0066CC;stroke:#0066CC;stroke-miterlimit:10;}
	.st1{fill:#FFFFFF;}
</style>
<g id="_x23_000000ff">
	<path d="M11.8,0h873c4.2,0.7,10.1-0.9,13,3.1c2.1,3.2,0.9,7.3,1.2,10.9c0,292.7,0,585.4,0,878.1c0.3,3.6-2.5,7-6.1,7.3
		c-2.7,0.2-8,0.4-10.7,0.6H21.6c-4.5-0.3-13.4-1-17.9-1.3c-2-1.1-3.1-3.2-3.8-5.3V6.8C0.3,0.7,7-0.2,11.8,0 M5.1,3.9
		c-2.9,1.6-1.6,5.4-1.9,8c0,293.4,0,586.7,0,880.1c-0.2,1.8,0.9,3.8,2.8,4c2.6,0.3,5.3,0.2,7.9,0.2c292.3,0,584.7,0,877,0
		c3.1,0.6,5.6-2.1,4.9-5.2c0-294.4,0-588.8,0-883.2c0.3-2.3-1.4-4.6-3.8-4.4c-293.3,0-586.7,0-880,0C9.7,3.6,7.3,3.1,5.1,3.9z"/>
	<path d="M11.1,11c0.7-0.1,2.1-0.2,2.9-0.3c288,0,576,0,864,0c3,0.1,6-0.2,9,0.1c1.8-0.1,1.5,2,1.6,3.1c0,290.7,0,581.4,0,872.1
		c0.3,1.7-0.6,3.2-2.5,2.8c-291.1,0-582.1,0-873.2,0c-1.9,0.4-2.7-1.2-2.4-2.8c0-290.7,0-581.4,0-872.1C10.4,12.9,10.6,11.9,11.1,11
		 M13.6,13.9c0,38.9,0,77.8,0,116.7c58.4,0,116.9,0,175.3,0c2.7-0.1,5.4-0.1,8,0.2c0.1,105.1,0,210.2,0.1,315.2
		c-0.1,107.6,0.2,215.3-0.1,322.9c-6.9,0.4-13.9,0.1-20.9,0.2c-54.1,0-108.2,0-162.4,0c0,38.9,0,77.8,0,116.6
		c290.6,0,581.2,0,871.8,0c0-38.9,0-77.8,0-116.6c-60.8,0-121.7,0.1-182.5,0c-0.2-0.2-0.6-0.7-0.9-1c0-212-0.1-424.1,0-636.1
		c0.2-0.3,0.7-1,0.9-1.4c60.8-0.1,121.6,0,182.4,0c0-38.9,0-77.8,0-116.7C594.9,13.9,304.2,13.9,13.6,13.9 M13.6,133.8
		c0,0.8,0,2.3,0,3.1c58.9-0.1,117.7,0.2,176.6-0.1c1,2.7,0.4,5.5,0.5,8.3c0,65.7,0,131.3,0,196.9c0.3,1.6-1.6,1.8-2.7,1.7
		c-58.1,0-116.3,0-174.4,0c0,0.8,0,2.3,0,3.1c58.8-0.1,117.6,0.2,176.5-0.1c0.5,1.1,0.7,2.2,0.7,3.4c-0.1,67.3,0,134.7,0,202
		c-0.6,1.6-2.4,0.9-3.7,1.1c-57.8,0-115.6,0-173.4,0c0,0.8,0,2.3,0,3.1c58.7,0,117.5,0,176.2,0c0.2,0.3,0.7,0.8,0.9,1
		c0.1,68,0,135.9,0.1,203.9c0,1.2-0.6,1.8-1.8,1.9c-58.5,0-116.9,0-175.4,0c0,0.8,0,2.3,0,3.1c60.1,0,120.2,0,180.2,0
		c0-210.8,0-421.5,0-632.2C133.8,133.8,73.7,133.8,13.6,133.8 M705.3,133.8c0,210.8,0,421.5,0,632.2c60.1,0,120.1,0,180.2,0
		c0-1,0-2.1,0-3.1c-58.9,0-117.8-0.1-176.6,0.1c-0.8-2.9-0.4-6-0.5-8.9c0-100,0-200.1,0-300.1c-0.2-1.2,0.2-2.8,1.7-2.6
		c58.5,0,116.9,0,175.4,0c0-0.8,0-2.3,0-3.1c-58.9,0-117.8-0.1-176.7,0.1c-0.7-2.7-0.5-5.6-0.5-8.3c0-98.3,0-196.7,0-295
		c0-2.7-0.2-5.5,0.4-8.2c58.9,0.1,117.9,0.1,176.8,0c0-0.8,0-2.3-0.1-3.1C825.4,133.8,765.3,133.7,705.3,133.8 M13.6,140
		c0,66.8,0,133.7,0,200.5c58,0,116,0,174,0c0-66.8,0-133.7,0-200.5C129.6,140,71.6,140,13.6,140 M711.5,140c0,101.7,0,203.4,0,305.1
		c58,0,116,0,174,0c0-101.7,0-203.4,0-305.1C827.5,140,769.5,140,711.5,140 M13.6,349.9c0,66.7,0,133.3,0,200c58,0,116,0,174,0
		c0-66.7,0-133.3,0-200C129.6,349.9,71.6,349.9,13.6,349.9 M711.5,454.5c0,101.8,0,203.5,0,305.2c58,0,116,0,174,0
		c0-101.8,0-203.5,0-305.2C827.5,454.5,769.5,454.5,711.5,454.5 M13.6,559.2c0,66.8,0,133.7,0,200.5c58,0,116,0,174,0
		c0-66.8,0-133.6,0-200.5C129.6,559.2,71.6,559.2,13.6,559.2z"/>
	<path d="M230.4,768c0-212.1,0-424.2,0-636.4c146.1,0,292.2,0,438.4,0c0,212.1,0,424.2,0,636.4C522.6,768,376.5,768,230.4,768
		 M422.6,197.8c0.9,1.9,1.8,3.8,2.7,5.7c5,0,9.9,0,14.9,0c1.2-1.8,2.4-3.7,3.6-5.6C436.7,197.6,429.6,197.8,422.6,197.8
		 M476.3,197.8c0.9,1.9,1.8,3.8,2.8,5.7c4.9-0.1,9.9,0,14.8,0c1.2-1.8,2.5-3.7,3.7-5.6C490.5,197.6,483.4,197.8,476.3,197.8
		 M515.6,197.8c0.9,1.9,1.8,3.8,2.8,5.7c5,0,9.9,0,14.9,0c1.2-1.8,2.4-3.7,3.6-5.5C529.8,197.5,522.7,197.8,515.6,197.8
		 M471.5,202.1c-0.7,5.4-1,10.9-1.5,16.4c0.6,0.5,1.7,1.5,2.3,2c1.2-1,2.4-1.9,3.6-2.9c0.3-4.3,0.9-8.7,1.1-13
		c-0.8-2.3-2-4.4-3.1-6.5C472.9,199.2,471.7,200.4,471.5,202.1 M510.7,202.2c-0.6,5.3-1,10.7-1.5,16.1c0.6,0.5,1.7,1.5,2.3,2.1
		c1.3-1,2.5-1.9,3.8-2.9c0.2-4.4,0.9-8.8,0.9-13.2c-0.8-2.2-2-4.3-3.1-6.4C512,199.2,510.8,200.4,510.7,202.2 M401.8,207.6
		c-0.3,3.5-0.6,7-0.9,10.4c1,0.9,1.9,1.8,2.9,2.7c0.9-0.8,1.9-1.5,2.8-2.3c0.4-4.9,1-9.7,1.3-14.6c0.2-1.7-1-3-1.8-4.3
		C404.6,202.2,401.9,204.4,401.8,207.6 M445.3,199.6c-1.4,1.9-2.8,3.9-4,5.9c-0.7,4.1-0.7,8.3-1.2,12.4c1,0.9,1.9,1.8,2.9,2.8
		c1-0.8,1.9-1.5,2.9-2.3c0.4-4.9,1-9.7,1.2-14.6C447.3,202.2,446.1,200.9,445.3,199.6 M495,205.7c-0.6,4.1-0.7,8.2-1.2,12.3
		c0.9,0.9,1.9,1.9,2.9,2.8c1-0.8,1.9-1.5,2.9-2.3c0.4-4.9,1-9.7,1.2-14.6c0.2-1.7-0.9-3-1.8-4.3C497.7,201.6,496.1,203.5,495,205.7
		 M538.4,199.6c-1.4,1.9-2.9,3.9-4.1,6c-0.7,4.1-0.7,8.3-1.2,12.4c1,0.9,1.9,1.9,2.8,2.9c1-0.8,1.9-1.5,2.9-2.3
		c0.4-4.9,1-9.7,1.2-14.6C540.3,202.2,539.2,200.9,538.4,199.6 M455.3,207.6c-0.2,2.8-0.5,5.6-0.7,8.4c2.4,0,4.8,0,7.2,0
		c0.2-2.8,0.5-5.6,0.7-8.4C460.1,207.6,457.7,207.6,455.3,207.6 M420,221.8c1,1,2,2,3,3c5,0,10,0,15,0c1.1-0.9,2.3-1.8,3.4-2.7
		c-1.1-1.1-2.2-2.1-3.3-3.2c-4.8,0-9.6,0-14.4,0C422.5,219.9,421.3,220.9,420,221.8 M400.2,226.3c-0.3,4.6-1,9.1-1,13.6
		c0.8,2,2,3.7,3.1,5.6c1.1-1.3,2.5-2.6,2.5-4.4c0.5-5.1,0.8-10.2,1.3-15.3c-0.8-0.8-1.5-1.5-2.3-2.3
		C402.6,224.4,401.4,225.4,400.2,226.3 M415.8,225.2c-0.4,5.6-1.1,11.2-1.3,16.9c-0.1,1.4,1,2.5,1.8,3.6c1.4-2.6,3.2-5,4.3-7.7
		c0.6-3.8,0.7-7.7,1.1-11.6c-1.1-1-2.1-2.1-3.2-3.1C417.8,223.7,416.4,224.7,415.8,225.2 M469.5,225.2c-0.4,5.6-1.1,11.1-1.3,16.7
		c-0.1,1.4,1,2.5,1.7,3.7c1.4-2.5,3.1-4.9,4.3-7.5c0.7-3.9,0.7-7.9,1.2-11.9c-1.1-1.1-2.1-2.1-3.2-3.1
		C471.3,223.9,470.4,224.6,469.5,225.2 M493.1,226.3c-0.4,4.5-0.8,9.1-1.2,13.6c1,1.9,2.1,3.7,3.2,5.6c1.1-1.3,2.5-2.6,2.5-4.5
		c0.5-5.1,0.9-10.3,1.3-15.5c-0.6-0.5-1.8-1.6-2.4-2.1C495.5,224.5,494.3,225.4,493.1,226.3 M508.6,225.2
		c-0.4,5.3-0.9,10.5-1.3,15.8c-0.3,1.8,0.7,3.2,1.6,4.7c1.5-2.5,3.1-4.8,4.3-7.4c0.8-4,0.8-8.1,1.2-12.1c-1.1-1-2.2-2-3.2-2.9
		C510.4,223.9,509.5,224.6,508.6,225.2 M532.4,226.3c-0.4,4.5-0.8,9.1-1.2,13.6c1,2,2.2,3.9,3.6,5.7c0.8-1.5,2-2.9,2.1-4.6
		c0.5-5.1,0.8-10.2,1.3-15.3c-0.8-0.7-1.6-1.5-2.4-2.2C534.7,224.4,533.6,225.4,532.4,226.3 M453.5,229c-0.2,2.9-0.5,5.7-0.7,8.6
		c2.4,0,4.8,0,7.2,0c0.2-2.9,0.5-5.8,0.7-8.6C458.3,229,455.9,229,453.5,229 M421.4,240.6c-1.2,1.9-2.5,3.8-3,6
		c7-0.2,14,0.1,21.1-0.2c-1.1-1.9-2.2-3.9-3.3-5.8C431.2,240.6,426.3,240.6,421.4,240.6 M475.1,240.6c-1.1,1.9-2.2,3.7-3.3,5.6
		c7.1,0.6,14.2,0.2,21.4,0.1c-1.1-1.9-2.2-3.9-3.3-5.8C485,240.6,480,240.6,475.1,240.6 M514.4,240.6c-1.2,1.9-2.4,3.8-3.1,5.9
		c7-0.1,14.1,0.1,21.1-0.1c-1.1-2-2.2-3.9-3.3-5.8C524.2,240.6,519.3,240.6,514.4,240.6 M621.5,404.5c-2.9,1-3.5,5.3-1.1,7.2
		c2.1,1.9,5.9,0.9,6.8-1.9C628.5,406.6,624.6,403,621.5,404.5 M628.4,413.4c-5.8,4.4-6.2,13.7-2.2,19.4c4.9,6.9,17.6,4.9,19.1-3.9
		c-1.6-0.5-3.3-1-4.9-1.5c-0.7,1.6-1.3,3.4-2.8,4.5c-2.9,1.8-7.2,0.1-8-3.2c-0.9-3-1-6.3,0-9.2c1-2.9,4.5-4.4,7.3-3.3
		c1.8,0.5,2.5,2.4,3.5,3.8c1.6-0.4,3.3-0.9,4.9-1.3C643.5,411.4,634,409.3,628.4,413.4 M365.6,413.1c1.9,4,3.9,7.9,5.8,11.9
		c11.1,0,22.1,0,33.2,0c2.4-3.7,4.9-7.3,7.4-11c-2.2-0.7-4.5-1.1-6.9-1C391.9,413.1,378.7,412.8,365.6,413.1 M446.9,413.1
		c1.9,4,3.8,8,5.8,11.9c11,0,22.1,0,33.1,0c2.5-3.7,5-7.4,7.4-11c-2.3-0.8-4.8-1.2-7.2-1.1C473,413,460,413,446.9,413.1
		 M531.9,413.1c1.9,4,3.8,8,5.8,11.9c11,0,22.1,0,33.1,0c2.5-3.7,5-7.4,7.4-11c-2.1-0.6-4.2-1.1-6.3-1
		C558.6,413.1,545.3,412.9,531.9,413.1 M437.3,424c-1,10.9-1.9,21.9-2.8,32.8c1.6,1.6,3.2,3.2,4.8,4.8c2.5-2,5.1-3.9,7.6-5.9
		c0.8-10,1.9-20,2.5-30c-1.6-3.9-3.7-7.6-5.5-11.5C440.4,416.3,437.6,419.8,437.3,424 M522.3,424c-1,10.9-1.9,21.9-2.8,32.8
		c1.6,1.6,3.2,3.2,4.8,4.8c2.5-2,5-3.9,7.6-5.9c0.8-8.6,1.5-17.2,2.3-25.8c1.4-5.9-3.3-10.6-5.3-15.8
		C525.4,416.3,522.6,419.8,522.3,424 M406.4,428.1c-1.1,9.6-1.7,19.3-2.6,28.9c2.2,2,4.2,4.3,6.8,5.9c1.7-1.6,3.5-3.2,5.4-4.6
		c1-10.8,1.9-21.6,2.9-32.5c0.3-3.8-1.6-7.3-4.1-10.1C411.9,419.8,408.9,423.8,406.4,428.1 M487.6,428.4c-1,9.5-1.6,19-2.5,28.5
		c2.1,2,4.3,4,6.5,6c1.9-1.6,3.8-3.1,5.8-4.7c0.9-10.8,2-21.5,2.8-32.2c0.4-3.9-1.4-7.6-4.2-10.2C493.3,420,490,424,487.6,428.4
		 M249.7,470c1.6,0,3.2,0,4.8,0c5.9-4.4,11.9-8.6,17.9-13c6,4.3,11.9,8.7,17.9,13c1.6,0,3.1,0,4.7,0c-7.5-5.5-15.1-11-22.6-16.4
		C264.8,459.1,257.2,464.5,249.7,470 M367.3,458.2c-2.6,2-5.1,4-7.6,6c2.1,2.1,4.3,4.2,6.5,6.3c11.2,0,22.4,0,33.5,0
		c2.5-2,5-4,7.5-6c-2.2-2.1-4.4-4.1-6.5-6.2C389.5,458.2,378.4,458.3,367.3,458.2 M448.5,458.2c-2.5,2-5.2,3.9-7.4,6.3
		c2.2,1.9,4.3,4,6.4,6c11.2-0.1,22.3,0,33.5,0c2.5-2,4.9-4,7.4-6c-2.2-2.1-4.3-4.2-6.6-6.2C470.7,458.3,459.6,458.2,448.5,458.2
		 M533.6,458.3c-2.5,2-5,4-7.6,5.9c2.1,2.1,4.2,4.3,6.5,6.3c11.2,0,22.4,0,33.5,0c2.5-2,5-4,7.5-6.1c-2.2-2.1-4.4-4.2-6.6-6.2
		C555.8,458.3,544.7,458.2,533.6,458.3 M433.2,470.4c-0.9,10.9-1.9,21.8-2.9,32.7c-0.5,4.1,1.5,8.2,4.5,10.9c2.7-4.6,5.6-9.2,8-13.9
		c1.1-9.1,1.6-18.2,2.5-27.3c-2.2-2.2-4.5-4.5-6.7-6.7C436.8,467.5,435,468.9,433.2,470.4 M352,470.3c-1,10.9-2,21.9-2.9,32.8
		c-0.5,4.1,1.5,8.1,4.4,10.9c2.7-4.6,5.6-9.2,8.1-14c1.1-9.1,1.6-18.2,2.5-27.3c-2.2-2.2-4.5-4.5-6.7-6.7
		C355.6,467.5,353.8,468.9,352,470.3 M490.6,466.6c-2.3,1.9-4.6,3.7-6.8,5.6c-0.9,10.7-1.9,21.3-2.8,32c2.1,3.6,4.1,7.3,6.3,10.9
		c3-2.1,5.5-5.3,5.9-9c1.1-11.4,2-22.9,3-34.3C494.2,470,492.4,468.3,490.6,466.6 M568.8,472.2c-0.9,10.7-1.9,21.3-2.8,32
		c2.1,3.6,4.1,7.3,6.3,10.9c3.3-2.3,5.8-5.9,6-10c1-11.1,1.9-22.2,2.9-33.3c-1.8-1.7-3.7-3.4-5.5-5
		C573.3,468.5,571,470.3,568.8,472.2 M270,471c-0.3,4.3,0,8.6-0.1,12.9c-1,1.5-2.1,3.4-1.1,5.2c1.2,3.1,6.3,2.9,7.3-0.3
		c1.1-2-0.9-3.8-1.1-5.8c-0.2-4,0.2-8.1-0.1-12.1C274.4,468.5,270.4,468.6,270,471 M255.5,471c0,6.8,0,13.6,0,20.4c0.7,0,2,0,2.6,0
		c0-6.8,0-13.6,0-20.4C257.5,471,256.2,471,255.5,471 M286.6,471c0,6.8,0,13.6,0,20.4c0.7,0,2.1,0,2.7,0c0-6.8,0-13.6,0-20.4
		C288.7,471,287.3,471,286.6,471 M363.3,504.2c-2.2,3.9-4.5,7.7-6.7,11.6c4.7,1.1,9.6,0.5,14.4,0.6c10.7-0.1,21.3,0.2,32-0.2
		c-2.2-4-4.6-8-6.9-12.1C385.1,504.2,374.2,504.2,363.3,504.2 M444.5,504.2c-2.2,3.9-4.5,7.7-6.7,11.7c4.7,1,9.4,0.4,14.2,0.6
		c10.8-0.1,21.6,0.2,32.3-0.2c-2.2-4.1-4.6-8-6.9-12C466.5,504.2,455.5,504.2,444.5,504.2 M529.6,504.2c-2.2,3.9-4.5,7.7-6.7,11.6
		c4.6,1.1,9.4,0.5,14.1,0.6c10.8-0.1,21.5,0.2,32.3-0.2c-2.2-4.1-4.6-8-6.9-12C551.5,504.2,540.5,504.2,529.6,504.2 M500,510.5
		c-0.2,3.6-0.4,7.3-0.6,10.9c3.2,0,6.5,0,9.7,0c0.2-3.6,0.4-7.3,0.5-10.9C506.5,510.5,503.3,510.5,500,510.5z"/>
	<path d="M89.4,207.8c14.5-3.4,30.3,6.2,34.1,20.6c4.2,13.9-3.7,29.9-17.2,35c-13.2,5.5-29.8-0.4-36.4-13.1
		c-4.7-8.4-4.8-19.2-0.2-27.7C73.6,215.1,81,209.4,89.4,207.8 M89.3,213.6c-10.3,2.6-17.9,12.8-17.4,23.4
		c0.1,9.9,7.4,19.1,16.9,21.7c7.8,2.4,16.7,0.1,22.5-5.4c6.5-6,9.1-15.8,6.3-24.1C114.3,217.6,101,210.2,89.3,213.6z"/>
	<path d="M92.3,227.1c0.8-3.9,2-7.7,3-11.6c1.9,6.3,3.9,12.7,3.1,19.3c4.6,0,8.9,1.9,13.4,2.8c-3.4,0.9-6.7,2-10.1,2.7
		c-3.2,0.4-6.3,0.1-9.5,0.2C92.3,236.1,92.1,231.6,92.3,227.1z"/>
	<path class="st0" d="M776.8,310.8c8.9-15.6,17.9-31.1,26.9-46.7c9,15.5,18,31,26.9,46.6c-2.2,0-4.4,0-6.6,0
		c-6.8-11.7-13.5-23.5-20.3-35.2c-6.8,11.8-13.6,23.5-20.4,35.3C781.2,310.9,779,310.9,776.8,310.8z"/>
	<path d="M85.1,428.6c9.5,0,19,0,28.5,0c0,1.7,0,3.4,0,5.1c-7.7,0-15.4,0-23.1,0c0,4.4,0,8.8,0,13.2c6.7,0,13.3,0,20,0
		c0,1.6,0,3.1,0,4.7c-6.7,0-13.3,0-20,0c0,6.4,0,12.8,0,19.2c-1.8,0-3.6,0-5.4,0C85.1,456.9,85.1,442.8,85.1,428.6z"/>
	<path d="M776.8,588.9c2.2,0,4.4,0,6.6,0c6.8,11.7,13.5,23.5,20.3,35.2c6.8-11.7,13.6-23.5,20.4-35.2c2.2,0,4.4,0,6.6,0
		c-9,15.6-17.9,31.1-27,46.7C794.8,620,785.7,604.5,776.8,588.9z"/>
	<path d="M74.1,642c3.1,0,6.1,0,9.2,0c3.8,11.5,7.8,22.9,11.5,34.5c3.9-11.5,7.9-22.9,11.8-34.4c2.8,0,5.5,0,8.3,0
		c0,14.2,0,28.4,0,42.6c-2.1,0-4.2,0-6.4,0c0-10.7,0-21.4,0-32.2c-3.7,10.7-7.4,21.4-11.2,32.1c-1.9,0-3.8,0-5.7,0
		c-3.8-11-7.5-22-11.2-32.9c0,11,0,21.9,0,32.9c-2.1,0-4.2,0-6.3,0C74.1,670.5,74.1,656.2,74.1,642z"/>
	<path d="M433.1,802c0.2-0.3,0.7-0.8,0.9-1.1c4-0.3,8-0.2,12-0.1c1.9,0,3.5,1.2,4.8,2.4c4.5,4,8.9,8,13.4,11.9
		c5.6-4.3,10.3-9.6,16-13.7c4.4-1.2,9.1-0.5,13.6-0.5c1.7-0.1,1.8,1.8,1.8,3.1c0,7.7,0,15.4,0,23.2c0,1.2,0,3.2-1.8,3.1
		c-6,0.3-12,0-18,0.1c-2.4-0.1-5,0.4-7.1-0.8c2.3-2.2,4.5-4.5,7.1-6.3c3.4-0.3,6.8-0.1,10.1-0.2c0.3-4.9,0.2-9.9,0-14.8
		c-7.4,6.3-14.5,12.9-21.8,19.3c-4.2,4.4-10.8,2.3-16.2,2.6c2.9-3.2,6.2-5.8,9.4-8.7c-5-4.5-10-9-15-13.4c-0.1,5-0.2,10,0,14.9
		c2.3,0,4.6,0.1,6.9,0.2c-1.5,2.9-4.3,4.8-6.8,6.8c-3,0.5-6.4,0.7-9.4-0.1c-0.7-1.5-0.3-3.1-0.5-4.7
		C433.1,817.3,432.8,809.7,433.1,802z"/>
	<path d="M390.3,839.4c2.1,0.1,4.6-0.7,6.2,0.9c1.1,0.9,2.2,1.9,3.3,2.8c1.5-1.3,2.8-2.8,4.5-3.7c1.6-0.2,3.2-0.1,4.8-0.1
		c0.4,4.5,0.2,8.9,0.2,13.4c-1.5,0-3,0-4.5,0c-0.1-2.7-0.1-5.3-0.1-8c-1.5,1.4-3,2.8-4.7,3.9c-2.1-0.5-3.5-2.6-5.1-3.8
		c0,2.6,0,5.2-0.1,7.8c-1.5,0-3.1,0-4.6,0C390.1,848.3,390,843.8,390.3,839.4z"/>
	<path d="M499.1,839.4c1.6,0,3.1-0.1,4.7,0.1c1.8,0.8,3.2,2.4,4.7,3.7c1.5-1.3,2.9-2.9,4.8-3.7c1.6-0.2,3.2-0.1,4.8,0
		c0.1,4.4,0.1,8.9,0,13.3c-1.5,0-3,0-4.5,0c-0.1-2.7-0.1-5.4,0-8.1c-1.6,1.6-3.3,3.2-5.3,4.3c-1.5-1.4-3.1-2.8-4.6-4.1
		c0,2.6,0,5.2,0,7.8c-1.6,0-3.1,0-4.6,0.1C498.9,848.3,498.7,843.8,499.1,839.4z"/>
	<path d="M411.5,851.8c0.1-4-0.9-8.6,0.6-12.2c6-0.3,12-0.1,17.9-0.1c0,0.8-0.1,2.5-0.1,3.3c-4.6,0.1-9.2,0-13.8,0.1
		c0,2.1,0,4.2,0,6.4c4.6,0.2,9.2,0.1,13.8,0.1c0,1.1,0,2.2,0,3.3c-5.9,0-11.8,0.2-17.7-0.1C412.1,852.4,411.7,852,411.5,851.8z"/>
	<path d="M432.1,839.8c6.3-0.6,12.6-0.3,18.9-0.1c0.2,4.2,0.1,8.4,0.1,12.7c-3.7,0.8-7.4,0.3-11.1,0.4c-2.6,0-5.3,0.3-7.9-0.5
		C432.1,848.1,432.1,843.9,432.1,839.8 M436.9,843c0,2.1,0,4.1,0,6.2c3.2,0,6.3,0,9.5,0c0-2.1,0-4.1,0-6.2
		C443.2,843,440,843,436.9,843z"/>
	<path d="M456.1,839.7c1.5-0.1,3-0.1,4.4-0.3c0.2,2.4,0.3,4.8,0.2,7.2c3.2,0,6.5,0,9.7,0c-0.1-2.4,0.1-4.8,0.2-7.2
		c1.5,0,2.9,0.1,4.4,0.1c0.1,4.4,0.1,8.8,0,13.2c-1.4,0-2.8,0.1-4.2,0.1c-0.1-0.7-0.3-2.1-0.5-2.8c-3.2,0-6.4,0-9.5,0
		c-0.1,0.7-0.2,2.1-0.3,2.8c-1.5-0.1-2.9-0.1-4.4-0.1C455.9,848.4,456,844,456.1,839.7z"/>
	<path d="M477.7,839.6c6.2-0.1,12.5-0.2,18.7,0.1c0.1,4.2,0,8.3,0.1,12.5c-6,1.2-12.2,0.5-18.2,0.4l-0.6-0.6
		C477.3,847.8,477.4,843.7,477.7,839.6 M482.3,843c0,2.1,0,4.1,0,6.2c3.2,0,6.3,0,9.5,0c0-2.1,0-4.1,0-6.2
		C488.6,843,485.4,843,482.3,843z"/>
	<path d="M520.7,852.2c-0.6-4.2-0.5-8.4,0.1-12.6c6.1-0.1,12.2,0,18.4,0c0,0.8,0,2.4,0,3.2c-4.5,0.2-9-0.2-13.5,0.2
		c-0.2,0.4-0.5,1.1-0.7,1.5c4.8,0.2,9.5,0,14.3,0.1c0,0.8,0,2.5,0,3.3c-4.8,0.1-9.7-0.2-14.5,0.3c0.4,0.3,1.2,0.8,1.5,1.1
		c4.3,0.3,8.6,0,12.9,0.1c0,1.1,0,2.1,0,3.2c-6-0.1-12,0.2-17.9-0.1L520.7,852.2z"/>
</g>
<g id="_x23_ffffffff">
	<path class="st1" d="M422.6,197.8c7.1,0,14.2-0.2,21.2,0.1c-1.2,1.9-2.4,3.7-3.6,5.6c-5,0-9.9,0-14.9,0
		C424.4,201.6,423.5,199.7,422.6,197.8z"/>
	<path class="st1" d="M476.3,197.8c7.1-0.1,14.2-0.2,21.3,0.1c-1.2,1.9-2.4,3.7-3.7,5.6c-4.9,0-9.9,0-14.8,0
		C478.1,201.6,477.2,199.7,476.3,197.8z"/>
	<path class="st1" d="M515.6,197.8c7.1,0,14.2-0.3,21.3,0.2c-1.2,1.9-2.4,3.7-3.6,5.5c-5,0-9.9,0-14.9,0
		C517.4,201.6,516.5,199.7,515.6,197.8z"/>
	<path class="st1" d="M471.5,202.1c0.1-1.7,1.4-2.9,2.4-4.1c1.1,2.1,2.3,4.2,3.1,6.5c-0.1,4.4-0.7,8.7-1.1,13
		c-1.2,1-2.4,1.9-3.6,2.9c-0.6-0.5-1.7-1.5-2.3-2C470.5,213,470.9,207.5,471.5,202.1z"/>
	<path class="st1" d="M510.7,202.2c0.1-1.8,1.4-3,2.4-4.4c1.1,2.1,2.3,4.1,3.1,6.4c0,4.4-0.7,8.8-0.9,13.2c-1.3,0.9-2.6,1.9-3.8,2.9
		c-0.6-0.5-1.7-1.5-2.3-2.1C509.7,212.9,510,207.6,510.7,202.2z"/>
	<path class="st1" d="M401.8,207.6c0.1-3.2,2.8-5.4,4.3-8c0.8,1.3,2,2.6,1.8,4.3c-0.2,4.9-0.9,9.7-1.3,14.6c-1,0.8-1.9,1.5-2.8,2.3
		c-1-0.9-1.9-1.8-2.9-2.7C401.3,214.6,401.5,211.1,401.8,207.6z"/>
	<path class="st1" d="M445.3,199.6c0.8,1.3,2,2.6,1.8,4.2c-0.2,4.9-0.8,9.7-1.2,14.6c-1,0.8-1.9,1.5-2.9,2.3c-1-0.9-1.9-1.8-2.9-2.8
		c0.5-4.1,0.5-8.3,1.2-12.4C442.5,203.5,443.9,201.6,445.3,199.6z"/>
	<path class="st1" d="M495,205.7c1.1-2.2,2.6-4.1,4-6.1c0.9,1.3,2,2.6,1.8,4.3c-0.3,4.9-0.9,9.7-1.2,14.6c-1,0.8-1.9,1.5-2.9,2.3
		c-1-0.9-1.9-1.8-2.9-2.8C494.3,213.9,494.4,209.8,495,205.7z"/>
	<path class="st1" d="M538.4,199.6c0.7,1.3,1.9,2.6,1.7,4.3c-0.2,4.9-0.8,9.7-1.2,14.6c-1,0.8-1.9,1.5-2.9,2.3
		c-1-0.9-1.9-1.9-2.8-2.9c0.5-4.1,0.5-8.3,1.2-12.4C535.5,203.4,537,201.5,538.4,199.6z"/>
	<path class="st1" d="M455.3,207.6c2.4,0,4.8,0,7.2,0c-0.2,2.8-0.5,5.6-0.7,8.4c-2.4,0-4.8,0-7.2,0
		C454.8,213.2,455.1,210.4,455.3,207.6z"/>
	<path class="st1" d="M420,221.8c1.2-0.9,2.5-1.9,3.7-2.8c4.8,0,9.6,0,14.4,0c1.1,1.1,2.2,2.1,3.3,3.2c-1.1,0.9-2.3,1.8-3.4,2.7
		c-5,0-10,0-15,0C422.1,223.9,421,222.9,420,221.8z"/>
	<path class="st1" d="M400.2,226.3c1.2-1,2.4-1.9,3.5-2.9c0.8,0.8,1.5,1.5,2.3,2.3c-0.4,5.1-0.8,10.2-1.3,15.3
		c0,1.8-1.4,3.1-2.5,4.4c-1.1-1.8-2.3-3.6-3.1-5.6C399.2,235.4,400,230.9,400.2,226.3z"/>
	<path class="st1" d="M415.8,225.2c0.7-0.5,2-1.5,2.7-2c1.1,1,2.1,2.1,3.2,3.1c-0.4,3.8-0.5,7.8-1.1,11.6c-1.1,2.8-2.9,5.1-4.3,7.7
		c-0.8-1.1-1.9-2.1-1.8-3.6C414.6,236.4,415.3,230.8,415.8,225.2z"/>
	<path class="st1" d="M469.5,225.2c0.9-0.7,1.8-1.4,2.7-2.1c1.1,1,2.1,2.1,3.2,3.1c-0.5,3.9-0.5,7.9-1.2,11.9
		c-1.2,2.6-2.9,5-4.3,7.5c-0.7-1.2-1.8-2.2-1.7-3.7C468.4,236.4,469.1,230.8,469.5,225.2z"/>
	<path class="st1" d="M493.1,226.3c1.1-0.9,2.3-1.9,3.5-2.8c0.6,0.5,1.8,1.6,2.4,2.1c-0.4,5.2-0.8,10.3-1.3,15.5
		c0,1.8-1.4,3.2-2.5,4.5c-1.1-1.8-2.1-3.7-3.2-5.6C492.4,235.4,492.8,230.9,493.1,226.3z"/>
	<path class="st1" d="M508.6,225.2c0.9-0.7,1.8-1.3,2.7-2c1.1,1,2.2,2,3.2,2.9c-0.5,4-0.5,8.1-1.2,12.1c-1.2,2.6-2.9,5-4.3,7.4
		c-0.9-1.4-1.9-2.9-1.6-4.7C507.7,235.8,508.3,230.5,508.6,225.2z"/>
	<path class="st1" d="M532.4,226.3c1.2-0.9,2.3-1.9,3.5-2.8c0.8,0.7,1.6,1.5,2.4,2.2c-0.5,5.1-0.8,10.2-1.3,15.3
		c-0.2,1.7-1.3,3.1-2.1,4.6c-1.4-1.7-2.6-3.7-3.6-5.7C531.7,235.4,532,230.9,532.4,226.3z"/>
	<path class="st1" d="M453.5,229c2.4,0,4.8,0,7.2,0c-0.2,2.9-0.5,5.8-0.7,8.6c-2.4,0-4.8,0-7.2,0C453,234.7,453.2,231.9,453.5,229z"
		/>
	<path class="st1" d="M421.4,240.6c4.9,0,9.8,0,14.7,0c1.1,1.9,2.2,3.8,3.3,5.8c-7,0.2-14.1,0-21.1,0.2
		C418.9,244.4,420.2,242.5,421.4,240.6z"/>
	<path class="st1" d="M475.1,240.6c4.9,0,9.8,0,14.7,0c1.1,1.9,2.2,3.8,3.3,5.8c-7.1,0-14.3,0.4-21.4-0.1
		C472.9,244.4,474,242.5,475.1,240.6z"/>
	<path class="st1" d="M514.4,240.6c4.9,0,9.8,0,14.7,0c1.1,1.9,2.2,3.8,3.3,5.8c-7,0.2-14.1,0-21.1,0.1
		C512,244.4,513.2,242.5,514.4,240.6z"/>
	<path class="st1" d="M621.5,404.5c3.2-1.5,7.1,2.1,5.6,5.3c-0.8,2.8-4.6,3.8-6.8,1.9C617.9,409.9,618.6,405.6,621.5,404.5z"/>
	<path class="st1" d="M628.4,413.4c5.6-4.1,15.1-1.9,16.9,5.2c-1.6,0.4-3.3,0.9-4.9,1.3c-0.9-1.4-1.7-3.3-3.5-3.8
		c-2.8-1.1-6.3,0.5-7.3,3.3c-1,3-0.9,6.2,0,9.2c0.8,3.3,5.2,4.9,8,3.2c1.5-1,2.1-2.9,2.8-4.5c1.6,0.5,3.2,1,4.9,1.5
		c-1.5,8.8-14.2,10.8-19.1,3.9C622.2,427.1,622.6,417.7,628.4,413.4z"/>
	<path class="st1" d="M365.6,413.1c13.2-0.3,26.3,0,39.5-0.1c2.3-0.1,4.7,0.3,6.9,1c-2.4,3.7-4.9,7.3-7.4,11c-11.1,0-22.1,0-33.2,0
		C369.5,421,367.4,417.1,365.6,413.1z"/>
	<path class="st1" d="M446.9,413.1c13.1-0.1,26.1-0.1,39.1-0.2c2.4-0.1,4.9,0.3,7.2,1.1c-2.5,3.7-4.9,7.4-7.4,11
		c-11,0-22.1,0-33.1,0C450.8,421,448.8,417.1,446.9,413.1z"/>
	<path class="st1" d="M531.9,413.1c13.4-0.2,26.7,0,40-0.1c2.1-0.1,4.2,0.4,6.3,1c-2.5,3.7-4.9,7.4-7.4,11c-11,0-22.1,0-33.1,0
		C535.8,421,533.8,417.1,531.9,413.1z"/>
	<path class="st1" d="M437.3,424c0.3-4.2,3.1-7.7,6.6-9.8c1.8,3.8,3.9,7.6,5.5,11.5c-0.7,10-1.7,20-2.5,30c-2.5,2-5.1,3.9-7.6,5.9
		c-1.6-1.6-3.2-3.2-4.8-4.8C435.5,445.9,436.3,434.9,437.3,424z"/>
	<path class="st1" d="M522.3,424c0.3-4.2,3.1-7.7,6.6-9.8c1.9,5.2,6.7,9.9,5.3,15.8c-0.8,8.6-1.5,17.2-2.3,25.8
		c-2.5,2-5.1,3.9-7.6,5.9c-1.6-1.6-3.2-3.2-4.8-4.8C520.5,445.9,521.3,434.9,522.3,424z"/>
	<path class="st1" d="M406.4,428.1c2.5-4.3,5.5-8.3,8.4-12.3c2.5,2.7,4.4,6.2,4.1,10.1c-0.9,10.8-1.9,21.6-2.9,32.5
		c-1.9,1.4-3.7,3-5.4,4.6c-2.6-1.6-4.6-3.9-6.8-5.9C404.7,447.4,405.3,437.7,406.4,428.1z"/>
	<path class="st1" d="M487.6,428.4c2.3-4.5,5.6-8.4,8.3-12.6c2.8,2.6,4.6,6.4,4.2,10.2c-0.8,10.8-1.9,21.5-2.8,32.2
		c-1.9,1.6-3.9,3.1-5.8,4.7c-2.2-2-4.3-4-6.5-6C486,447.4,486.7,437.9,487.6,428.4z"/>
	<path class="st1" d="M249.7,470c7.5-5.5,15.1-10.9,22.6-16.4c7.6,5.5,15.1,10.9,22.6,16.4c-1.6,0-3.2,0-4.7,0
		c-6-4.3-11.9-8.7-17.9-13c-6,4.3-12,8.6-17.9,13C252.9,470,251.3,470,249.7,470z"/>
	<path class="st1" d="M367.3,458.2c11.1,0,22.2,0,33.3,0c2.2,2.1,4.4,4.1,6.5,6.2c-2.5,2-5,4-7.5,6c-11.2,0-22.4,0-33.5,0
		c-2.2-2.1-4.4-4.2-6.5-6.3C362.2,462.2,364.7,460.2,367.3,458.2z"/>
	<path class="st1" d="M448.5,458.2c11.1,0,22.2,0,33.4,0c2.2,2,4.4,4.1,6.6,6.2c-2.5,2-5,4-7.4,6c-11.2,0-22.3,0-33.5,0
		c-2.1-2-4.2-4.1-6.4-6C443.3,462.1,446,460.3,448.5,458.2z"/>
	<path class="st1" d="M533.6,458.3c11.1,0,22.2,0,33.3,0c2.2,2,4.5,4.1,6.6,6.2c-2.5,2-5,4.1-7.5,6.1c-11.2,0-22.4,0-33.5,0
		c-2.2-2.1-4.4-4.2-6.5-6.3C528.5,462.2,531.1,460.2,533.6,458.3z"/>
	<path class="st1" d="M433.2,470.4c1.8-1.5,3.6-2.9,5.4-4.3c2.2,2.2,4.5,4.5,6.7,6.7c-0.9,9.1-1.4,18.2-2.5,27.3
		c-2.5,4.8-5.4,9.3-8,13.9c-3-2.8-5-6.8-4.5-10.9C431.3,492.2,432.3,481.3,433.2,470.4z"/>
	<path class="st1" d="M352,470.3c1.8-1.4,3.6-2.8,5.4-4.2c2.2,2.2,4.5,4.5,6.7,6.7c-0.9,9.1-1.4,18.2-2.5,27.3
		c-2.5,4.8-5.4,9.3-8.1,14c-3-2.8-4.9-6.8-4.4-10.9C350.1,492.1,351,481.2,352,470.3z"/>
	<path class="st1" d="M490.6,466.6c1.8,1.7,3.6,3.4,5.5,5.1c-1,11.4-1.9,22.9-3,34.3c-0.4,3.8-2.8,6.9-5.9,9
		c-2.1-3.6-4.2-7.3-6.3-10.9c0.9-10.7,1.9-21.3,2.8-32C486,470.3,488.3,468.5,490.6,466.6z"/>
	<path class="st1" d="M568.8,472.2c2.3-1.8,4.5-3.6,6.8-5.5c1.8,1.7,3.7,3.4,5.5,5c-0.9,11.1-1.9,22.2-2.9,33.3
		c-0.2,4.1-2.7,7.8-6,10c-2.1-3.6-4.2-7.3-6.3-10.9C566.9,493.5,567.8,482.8,568.8,472.2z"/>
	<path class="st1" d="M270,471c0.4-2.5,4.4-2.6,4.8,0c0.3,4-0.1,8.1,0.1,12.1c0.2,1.9,2.3,3.7,1.1,5.8c-1,3.2-6,3.4-7.3,0.3
		c-1-1.8,0-3.7,1.1-5.2C270,479.7,269.7,475.4,270,471z"/>
	<path class="st1" d="M255.5,471c0.7,0,2,0,2.6,0c0,6.8,0,13.6,0,20.4c-0.6,0-2,0-2.6,0C255.5,484.6,255.5,477.8,255.5,471z"/>
	<path class="st1" d="M286.6,471c0.7,0,2.1,0,2.8,0c0,6.8,0,13.6,0,20.4c-0.7,0-2.1,0-2.7,0C286.6,484.6,286.6,477.8,286.6,471z"/>
	<path class="st1" d="M363.3,504.2c10.9,0,21.9,0,32.8,0c2.3,4,4.6,8,6.9,12.1c-10.6,0.5-21.3,0.1-32,0.2c-4.8-0.2-9.7,0.5-14.4-0.6
		C358.8,512,361,508.1,363.3,504.2z"/>
	<path class="st1" d="M444.5,504.2c11,0,22,0,32.9,0c2.3,4,4.6,8,6.9,12c-10.8,0.5-21.6,0.1-32.3,0.2c-4.7-0.2-9.5,0.5-14.2-0.6
		C440,512,442.3,508.1,444.5,504.2z"/>
	<path class="st1" d="M529.6,504.2c11,0,21.9,0,32.9,0c2.3,4,4.6,8,6.9,12c-10.8,0.5-21.5,0.1-32.3,0.2c-4.7-0.2-9.5,0.5-14.1-0.6
		C525.1,512,527.4,508.1,529.6,504.2z"/>
	<path class="st1" d="M500,510.5c3.2,0,6.5,0,9.7,0c-0.2,3.6-0.4,7.2-0.5,10.9c-3.2,0-6.5,0-9.7,0
		C499.7,517.7,499.8,514.1,500,510.5z"/>
</g>
</svg>
