<?xml version="1.0" encoding="utf-8"?>
<!-- Generator: Adobe Illustrator 21.1.0, SVG Export Plug-In . SVG Version: 6.00 Build 0)  -->
<svg version="1.1"
	 id="svg2" inkscape:version="0.91 r13725" sodipodi:docname="MH-S412_icon.svg" xmlns:cc="http://creativecommons.org/ns#" xmlns:dc="http://purl.org/dc/elements/1.1/" xmlns:inkscape="http://www.inkscape.org/namespaces/inkscape" xmlns:rdf="http://www.w3.org/1999/02/22-rdf-syntax-ns#" xmlns:sodipodi="http://sodipodi.sourceforge.net/DTD/sodipodi-0.dtd" xmlns:svg="http://www.w3.org/2000/svg"
	 xmlns="http://www.w3.org/2000/svg" xmlns:xlink="http://www.w3.org/1999/xlink" x="0px" y="0px" viewBox="0 0 244.8 244.7"
	 style="enable-background:new 0 0 244.8 244.7;" xml:space="preserve">
<style type="text/css">
	.st0{fill:none;stroke:#000000;stroke-linejoin:bevel;}
	.st1{fill:#000200;}
	.st2{fill:none;}
</style>
<sodipodi:namedview  bordercolor="#666666" borderopacity="1" fit-margin-bottom="5" fit-margin-left="5" fit-margin-right="5" fit-margin-top="5" gridtolerance="10" guidetolerance="10" id="namedview194" inkscape:current-layer="svg2" inkscape:cx="74.609338" inkscape:cy="170.23821" inkscape:pageopacity="0" inkscape:pageshadow="2" inkscape:window-height="781" inkscape:window-maximized="0" inkscape:window-width="1321" inkscape:window-x="0" inkscape:window-y="0" inkscape:zoom="1" objecttolerance="10" pagecolor="#ffffff" showgrid="false">
	</sodipodi:namedview>
<path id="path126" inkscape:connector-curvature="0" class="st0" d="M0.5,1.9v240.9"/>
<path id="path130" inkscape:connector-curvature="0" class="st0" d="M2,244.2h240.9"/>
<path id="path144" inkscape:connector-curvature="0" class="st0" d="M244.3,242.8V1.9"/>
<path id="path146" inkscape:connector-curvature="0" class="st0" d="M241.5,241.4H3.4V3.3h238.1V241.4z"/>
<path id="path148" inkscape:connector-curvature="0" class="st0" d="M242.9,0.5H2"/>
<g id="Layer1007" transform="translate(-163.6351,-451.0562)">
	<path id="path166" inkscape:connector-curvature="0" class="st1" d="M374.2,665v4.3c0,0.4-0.1,0.5-0.5,0.5h-2.8c0,0-0.3,0-0.6,0.3
		c-0.4,0.4-1.7,1.5-1.7,1.5s-0.9,0.7,0.1,0.7h7.9c0.7,0,0.9-0.2,0.9-0.9v-8.5c0-0.7-0.2-1-1-1h-3.1l0,0l0,0c-0.5,0-1.2,0.1-1.6,0.5
		c-0.3,0.2-4.9,4.3-4.9,4.3s-0.2,0.2-0.4,0.2l0,0c-0.1,0-0.3-0.2-0.3-0.2s-4.6-4.1-4.9-4.4c-0.4-0.3-1.1-0.4-1.6-0.4l0,0l0,0h-3.3
		c-0.8,0-1,0.3-1,1v5.4v1v2.1c0,0.6,0.2,0.8,0.8,0.9l0,0h0.1l0,0h1.4h0.6c0,0,0.3,0,0.6-0.3c0.4-0.4,1.7-1.5,1.7-1.5
		s0.9-0.7-0.1-0.7h-1.4c-0.4,0-0.5-0.1-0.5-0.5c0,0,0,0,0-0.1v-0.9v-3.4c0-0.2,0-0.6,0.5-0.2l4.7,4.2c0.1,0.1,0.2,0.2,0.3,0.3
		l-3,2.7c0,0-0.5,0.4,0.2,0.4h3l0,0l0,0c0.3,0,0.9,0,1.6-0.5c0.3-0.2,7.9-7,7.9-7C374.2,664.4,374.2,664.8,374.2,665L374.2,665z"/>
	<path id="path168" inkscape:connector-curvature="0" class="st1" d="M377.1,675.6h-5.5c-0.4,0-0.6,0.2-0.6,0.6v3.5
		c0,0.4,0.2,0.6,0.6,0.6h5.5c0.4,0,0.6-0.2,0.6-0.6v-3.5C377.7,675.8,377.5,675.6,377.1,675.6z M376.1,678.8L376.1,678.8
		c0,0.2,0,0.2-0.2,0.2h-3c-0.2,0-0.2,0-0.2-0.2V677c0-0.2,0-0.2,0.2-0.2h3c0.2,0,0.2,0,0.2,0.2V678.8z"/>
	<path id="path170" inkscape:connector-curvature="0" class="st1" d="M361.1,675.6h-5.5c-0.4,0-0.6,0.2-0.6,0.6v3.5
		c0,0.4,0.2,0.6,0.6,0.6h5.5c0.4,0,0.6-0.2,0.6-0.6v-3.5C361.7,675.8,361.5,675.6,361.1,675.6z M360.1,678.8L360.1,678.8
		c0,0.2,0,0.2-0.2,0.2h-3c-0.2,0-0.2,0-0.2-0.2V677c0-0.2,0-0.2,0.2-0.2h3c0.2,0,0.2,0,0.2,0.2V678.8z"/>
	<path id="path172" inkscape:connector-curvature="0" class="st1" d="M369.7,675.6H369c-0.3,0-0.5,0.1-0.5,0.5v2H365v-2
		c0-0.3-0.1-0.5-0.5-0.5h-0.7c-0.3,0-0.5,0.1-0.5,0.5v3.7c0,0.3,0.1,0.5,0.5,0.5h0.7c0.3,0,0.5-0.1,0.5-0.5v-0.5h3.5v0.5
		c0,0.3,0.1,0.5,0.5,0.5h0.7c0.3,0,0.5-0.1,0.5-0.5v-3.7C370.2,675.7,370,675.6,369.7,675.6z"/>
	<path id="path174" inkscape:connector-curvature="0" class="st1" d="M388.2,676.7h4.3c0.2,0,0.3-0.1,0.3-0.3v-0.6
		c0-0.2-0.1-0.3-0.3-0.3h-2.2h-3h-0.5c-0.4,0-0.6,0.2-0.6,0.6v3.5c0,0.4,0.2,0.6,0.6,0.6h0.5h3h2.2c0.2,0,0.3-0.1,0.3-0.3v-0.6
		c0-0.2-0.1-0.3-0.3-0.3h-4.3c-0.2,0-0.3-0.1-0.3-0.3v-0.3h4.6c0.2,0,0.3-0.1,0.3-0.3v-0.6c0-0.2-0.1-0.3-0.3-0.3h-4.6v-0.3
		C387.8,676.8,388,676.7,388.2,676.7L388.2,676.7z"/>
	<path id="path176" inkscape:connector-curvature="0" class="st1" d="M349.4,678.5v0.3c0,0.2,0.2,0.3,0.3,0.3h4.3
		c0.2,0,0.3,0.1,0.3,0.3v0.6c0,0.2-0.1,0.3-0.3,0.3h-2.2h-3h-0.4c-0.4,0-0.6-0.2-0.6-0.6v-3.5c0-0.4,0.2-0.6,0.6-0.6h0.5h3h2.2
		c0.2,0,0.3,0.1,0.3,0.3v0.6c0,0.2-0.1,0.3-0.3,0.3h-4.3c-0.2,0-0.3,0.1-0.3,0.3v0.3v1.1L349.4,678.5L349.4,678.5z"/>
	<path id="path178" inkscape:connector-curvature="0" class="st1" d="M346.5,675.5h-0.9c-0.3,0-0.5,0-0.8,0.3c-0.1,0.1-1,0.9-1,0.9
		s-0.1,0.1-0.2,0.1s-0.2-0.1-0.2-0.1s-0.8-0.8-1-0.9c-0.4-0.3-0.6-0.3-0.8-0.3h-0.9c-0.3,0-0.5,0.2-0.5,0.5v3.8
		c0,0.3,0.1,0.4,0.5,0.4h0.7c0.3,0,0.4-0.1,0.4-0.5v-2.3c0,0,1.3,1.1,1.4,1.3c0.1,0.1,0.2,0.1,0.3,0.1l0,0l0,0l0,0
		c0.1,0,0.2,0,0.3-0.1c0.2-0.1,1.4-1.3,1.4-1.3v2.4c0,0.3,0.1,0.5,0.4,0.5h0.7c0.3,0,0.5-0.1,0.5-0.4v-3.8
		C347,675.7,346.9,675.5,346.5,675.5L346.5,675.5z"/>
	<path id="path180" inkscape:connector-curvature="0" class="st1" d="M384.9,675.5H384c-0.3,0-0.5,0-0.8,0.3c-0.1,0.1-1,0.9-1,0.9
		s-0.1,0.1-0.2,0.1s-0.2-0.1-0.2-0.1s-0.8-0.8-1-0.9c-0.4-0.3-0.6-0.3-0.8-0.3h-0.9c-0.3,0-0.5,0.2-0.5,0.5v3.8
		c0,0.3,0.1,0.4,0.5,0.4h0.7c0.3,0,0.4-0.1,0.4-0.5v-2.3c0,0,1.3,1.1,1.4,1.3c0.1,0.1,0.2,0.1,0.3,0.1l0,0l0,0l0,0
		c0.1,0,0.2,0,0.3-0.1c0.2-0.1,1.4-1.3,1.4-1.3v2.4c0,0.3,0.1,0.5,0.4,0.5h0.7c0.3,0,0.5-0.1,0.5-0.4v-3.8
		C385.3,675.7,385.2,675.5,384.9,675.5L384.9,675.5z"/>
</g>
<path class="st0" d="M244.3,1.9c0-0.8-0.6-1.4-1.4-1.4"/>
<path class="st0" d="M0.5,1.9c0-0.8,0.7-1.4,1.5-1.4"/>
<path class="st0" d="M0.5,242.8c0,0.8,0.7,1.4,1.5,1.4"/>
<path class="st0" d="M244.3,242.8c0,0.8-0.6,1.4-1.4,1.4"/>
<path id="path115" inkscape:connector-curvature="0" class="st2" d="M123,98.8c-1.7,0-3.1,1.4-3.1,3.1s1.4,3.1,3.1,3.1
	s3.1-1.4,3.1-3.1C126.1,100.1,124.7,98.8,123,98.8z"/>
<path id="path117" inkscape:connector-curvature="0" class="st1" d="M131.9,102.3l-1.1,2.6c7.4,3.2,12,10.4,12,18.2l0,0l0,0
	c0,1.3-0.1,2.6-0.4,4c-1.9,9.2-10,15.9-19.4,15.9s-17.5-6.6-19.4-15.9c-1.9-9.2,3-18.5,11.6-22.2l-1.1-2.6
	c-9.9,4.2-15.5,14.8-13.3,25.4s11.4,18.1,22.2,18.1s20.1-7.6,22.2-18.1C147.4,117.1,141.8,106.5,131.9,102.3z"/>
<path id="path119" inkscape:connector-curvature="0" class="st1" d="M123,105c1.7,0,3.1-1.4,3.1-3.1s-1.4-3.1-3.1-3.1
	c-1.7,0-3.1,1.4-3.1,3.1C119.9,103.6,121.3,105,123,105z"/>
</svg>
