<?xml version="1.0" encoding="utf-8"?>
<!-- Generator: Adobe Illustrator 24.2.1, SVG Export Plug-In . SVG Version: 6.00 Build 0)  -->
<svg version="1.1" id="Capa_1" xmlns="http://www.w3.org/2000/svg" xmlns:xlink="http://www.w3.org/1999/xlink" x="0px" y="0px"
	 viewBox="0 0 61.2 43.3" style="enable-background:new 0 0 61.2 43.3;" xml:space="preserve">
<path d="M52.2,17.9c-0.5-9-8-16.2-16.9-16.2c-5.4,0-10.7,2.7-14,7c-0.1,0-0.1-0.1-0.2-0.1c-0.2-0.1-0.4-0.2-0.6-0.3
	c-0.1-0.1-0.2-0.1-0.3-0.1C20,8.1,19.8,8,19.6,8c-0.1,0-0.2-0.1-0.3-0.1c-0.2-0.1-0.5-0.1-0.7-0.1c-0.1,0-0.2,0-0.3-0.1
	c-0.3,0-0.7,0-1,0c-5,0-9,4-9,9c0,0.1,0,0.3,0,0.4l0,0c-4.2,2.3-7,7-7,11.8c0,7.1,5.8,12.8,12.8,12.8h10.8c-0.2-0.5-0.2-1-0.3-1.5
	c0-0.2-0.1-0.3-0.1-0.5H14.1c-6,0-10.9-4.9-10.9-10.8c0-4.1,2.7-8.5,6.4-10.3l0.6-0.3v-0.6c0-0.1,0-0.3,0-0.4l0-0.2l0-0.2
	c0-0.1,0-0.2,0-0.2c0-3.9,3.1-7,7-7c0.3,0,0.6,0,0.9,0.1c0.1,0,0.2,0,0.2,0c0.3,0,0.5,0.1,0.8,0.2c0,0,0.1,0,0.1,0
	c0.3,0.1,0.6,0.2,0.8,0.3c0.1,0,0.1,0.1,0.2,0.1c0.2,0.1,0.5,0.3,0.7,0.4c1.9,1.2,3.2,3.4,3.2,5.9c0,0.5,0.5,1,1,1s1-0.5,1-1
	c0-2.8-1.3-5.2-3.2-6.9c2.9-3.8,7.6-6.1,12.3-6.1c7.7,0,14.2,6.1,14.9,13.9c-1-0.1-2.5-0.1-4.1,0.1c-0.5,0.1-0.9,0.6-0.8,1.1
	c0.1,0.5,0.5,0.9,1,0.9c0,0,0.1,0,0.2,0c2.2-0.3,4.5,0,4.7,0c3.5,0.7,6.3,3.3,7.5,6.6c0.1,0,0.2,0,0.3,0c0.7,0,1.3,0.1,1.8,0.3
	c0,0,0.1,0,0.1,0C59.7,22.4,56.4,19,52.2,17.9z"/>
<g>
	<g>
		<path d="M21.6,26.7H24l3.8,12.2l3.8-12.3h2.4l-5.1,15.6h-2.1L21.6,26.7z"/>
		<path d="M38.4,41.7c-0.8-0.5-1.5-1.2-1.9-2s-0.7-1.9-0.7-3v-4.4c0-1.1,0.2-2.1,0.7-3c0.5-0.9,1.1-1.5,1.9-2s1.8-0.7,2.9-0.7
			s2,0.2,2.9,0.7c0.8,0.5,1.5,1.1,1.9,2c0.5,0.9,0.7,1.9,0.7,3v4.4c0,1.2-0.2,2.2-0.7,3c-0.5,0.9-1.1,1.5-1.9,2s-1.8,0.7-2.9,0.7
			C40.2,42.5,39.2,42.2,38.4,41.7z M43,39.8c0.5-0.3,0.9-0.7,1.1-1.2s0.4-1.2,0.4-1.8v-4.6c0-0.7-0.1-1.3-0.4-1.9s-0.7-1-1.1-1.2
			c-0.5-0.3-1.1-0.4-1.7-0.4s-1.2,0.1-1.7,0.4c-0.5,0.3-0.9,0.7-1.1,1.2c-0.3,0.5-0.4,1.1-0.4,1.9v4.6c0,0.7,0.1,1.3,0.4,1.8
			s0.7,1,1.1,1.2c0.5,0.3,1.1,0.4,1.7,0.4S42.5,40.1,43,39.8z"/>
		<path d="M53.8,42.5c0,0-0.4-0.2-1.2-0.7s-1.5-1.2-1.9-2S50,37.8,50,36.6v-4.3c0-1.2,0.2-2.2,0.7-3.1s1.1-1.6,1.9-2
			c0.8-0.5,1.8-0.7,2.8-0.7c0.9,0,1.7,0.2,2.5,0.6c0.8,0.4,1.4,0.9,1.9,1.6c0.5,0.7,0.8,1.5,1,2.4h-2.3c-0.1-0.5-0.4-0.9-0.7-1.3
			c-0.3-0.4-0.7-0.7-1.1-0.9s-0.9-0.3-1.3-0.3c-0.6,0-1.2,0.1-1.7,0.5s-0.8,0.7-1.1,1.3c-0.3,0.6-0.4,1.2-0.4,1.9v4.3
			c0,0.7,0.1,1.4,0.4,1.9s0.6,1,1.1,1.3s1,0.5,1.7,0.5c0.5,0,0.9-0.1,1.3-0.3c0.4-0.2,0.8-0.5,1.1-0.9s0.5-0.8,0.7-1.3h2.3
			c-0.2,0.9-0.5,1.7-1,2.4s-1.1,1.2-1.9,1.6c-0.8,0.4-1.6,0.6-2.5,0.6C54.3,42.5,53.8,42.5,53.8,42.5z"/>
	</g>
</g>
</svg>
