<?xml version="1.0" encoding="UTF-8" ?>
<!DOCTYPE svg PUBLIC "-//W3C//DTD SVG 1.1//EN" "http://www.w3.org/Graphics/SVG/1.1/DTD/svg11.dtd">
<svg width="1892pt" height="722pt" viewBox="0 0 1892 722" version="1.1" xmlns="http://www.w3.org/2000/svg">
<g id="#ffffffff">
</g>
<g id="#d0031aff">
<path fill="#d0031a" opacity="1.00" d=" M 573.89 19.60 C 576.61 19.51 579.17 18.33 581.91 18.46 C 620.96 18.48 660.01 18.46 699.07 18.47 C 700.60 18.49 702.17 18.56 703.68 18.97 C 709.75 20.58 716.29 19.10 722.25 21.32 C 737.13 23.65 751.83 29.67 762.98 40.01 C 767.88 44.83 773.67 48.62 778.51 53.49 C 783.20 58.16 788.75 61.87 793.47 66.51 C 798.54 71.48 804.27 75.69 809.45 80.54 C 816.43 87.61 824.62 93.33 831.59 100.42 C 841.49 108.48 850.50 117.53 860.39 125.59 C 866.38 131.65 873.13 136.85 879.45 142.54 C 886.74 149.96 895.31 155.97 902.57 163.44 C 909.45 169.21 916.20 175.11 922.68 181.32 C 932.29 188.63 940.10 198.06 950.19 204.75 C 952.32 206.41 955.27 206.47 957.80 205.80 C 967.94 199.95 975.46 190.75 984.54 183.52 C 990.66 178.67 995.85 172.80 1001.99 167.97 C 1008.49 162.84 1014.01 156.60 1020.52 151.48 C 1027.01 146.34 1032.53 140.11 1039.06 135.02 C 1044.62 130.64 1049.35 125.32 1054.80 120.81 C 1063.12 114.17 1070.50 106.47 1078.85 99.86 C 1086.66 92.23 1095.43 85.65 1103.22 78.00 C 1111.47 71.37 1118.92 63.84 1127.13 57.17 C 1132.12 53.18 1136.33 48.33 1141.44 44.49 C 1145.84 41.23 1149.55 37.08 1154.28 34.24 C 1163.00 28.42 1172.99 24.85 1183.09 22.30 C 1186.16 21.96 1189.14 21.19 1192.13 20.39 C 1197.72 19.75 1203.41 19.94 1208.91 18.54 C 1247.94 18.35 1286.99 18.55 1326.03 18.44 C 1328.17 18.45 1330.37 18.37 1332.48 18.96 C 1337.96 20.42 1343.94 18.99 1349.21 21.44 C 1356.06 23.46 1361.78 28.85 1364.29 35.52 C 1367.10 41.28 1365.66 47.93 1367.49 53.96 C 1367.69 159.31 1367.48 264.67 1367.59 370.02 C 1367.93 375.12 1365.96 379.96 1366.01 385.05 C 1365.35 393.07 1359.14 400.30 1351.44 402.50 C 1345.27 404.91 1338.46 403.99 1332.00 404.38 C 1238.00 404.43 1144.00 404.38 1050.00 404.40 C 1043.65 404.38 1037.30 404.50 1030.97 404.00 C 1027.51 403.95 1024.72 401.65 1022.18 399.58 C 1021.90 397.20 1021.56 394.74 1022.25 392.41 C 1026.81 382.72 1035.54 376.24 1043.42 369.43 C 1050.74 362.04 1059.22 355.94 1066.53 348.54 C 1073.31 342.61 1080.24 336.86 1086.70 330.57 C 1095.10 323.96 1102.24 314.89 1113.03 312.15 C 1119.98 311.20 1127.01 311.73 1134.00 311.60 C 1160.66 311.60 1187.33 311.60 1214.00 311.60 C 1220.45 311.47 1227.04 312.25 1233.30 310.27 C 1237.44 310.07 1240.64 307.14 1243.00 303.98 C 1246.46 298.27 1245.90 291.41 1245.89 285.00 C 1245.84 232.64 1245.98 180.28 1245.82 127.92 C 1246.12 124.14 1244.12 120.73 1241.68 118.02 C 1239.48 118.06 1237.10 117.83 1235.23 119.19 C 1224.88 125.13 1217.24 134.57 1208.08 142.04 C 1202.49 146.44 1197.59 151.59 1192.27 156.28 C 1182.77 164.07 1174.13 172.82 1164.61 180.60 C 1157.62 187.65 1149.70 193.67 1142.52 200.51 C 1137.04 206.07 1130.80 210.78 1125.05 216.04 C 1116.88 224.25 1107.51 231.14 1099.36 239.37 C 1090.14 246.68 1082.07 255.28 1072.92 262.68 C 1067.96 266.77 1063.61 271.55 1058.54 275.52 C 1051.99 280.62 1046.49 286.88 1039.98 292.02 C 1034.06 296.73 1028.93 302.32 1023.06 307.08 C 1019.63 309.97 1016.15 312.81 1012.99 315.99 C 1007.64 321.34 1001.43 325.73 996.01 331.01 C 989.64 337.37 982.34 342.70 975.87 348.96 C 969.77 354.16 963.58 359.26 957.88 364.89 C 951.60 369.94 945.71 375.43 939.46 380.50 C 925.31 392.83 907.53 400.91 889.06 403.88 C 870.72 404.72 852.35 404.17 834.00 404.33 C 809.01 404.30 784.01 404.40 759.02 404.28 C 755.20 404.02 750.08 404.70 747.90 400.80 C 746.69 396.07 750.54 392.31 753.81 389.56 C 758.07 385.91 762.52 382.47 766.49 378.49 C 772.14 372.77 778.81 368.19 784.49 362.49 C 790.19 356.82 796.81 352.18 802.49 346.49 C 808.44 340.40 815.51 335.56 821.50 329.50 C 827.89 323.18 835.23 317.91 841.59 311.55 C 850.06 304.32 858.46 297.00 866.32 289.11 C 860.12 283.13 853.10 278.08 847.00 272.00 C 840.77 265.87 833.64 260.73 827.49 254.51 C 821.29 248.34 814.10 243.27 807.98 237.01 C 801.30 230.68 793.87 225.17 787.47 218.53 C 781.64 213.00 775.14 208.22 769.48 202.52 C 763.92 197.04 757.57 192.46 752.01 186.99 C 745.65 180.65 738.30 175.41 732.00 169.00 C 726.34 163.29 719.86 158.49 714.02 152.97 C 706.78 145.84 698.53 139.83 691.44 132.54 C 685.90 127.71 680.57 122.43 674.05 118.91 C 672.32 117.81 670.18 118.12 668.25 117.98 C 665.66 120.66 663.60 124.02 664.10 127.90 C 663.95 181.60 664.09 235.30 664.04 289.00 C 664.17 292.87 663.74 296.96 665.44 300.58 C 666.45 304.41 669.51 307.22 672.69 309.36 C 676.10 310.21 679.59 310.78 683.04 311.50 C 703.37 311.89 723.73 311.20 744.05 311.86 C 747.90 311.66 751.10 313.98 753.83 316.42 C 754.14 319.47 754.58 322.91 752.63 325.55 C 746.67 336.03 736.30 342.62 727.95 350.96 C 722.63 355.99 716.69 360.33 711.50 365.50 C 705.95 370.99 699.51 375.47 694.01 381.01 C 689.02 386.04 683.30 390.27 678.08 395.07 C 674.02 399.08 668.83 401.65 663.53 403.61 C 656.10 404.93 648.50 404.22 641.00 404.40 C 621.67 404.40 602.33 404.40 583.00 404.40 C 575.22 404.12 567.15 405.09 559.60 402.86 C 551.29 401.06 544.48 393.53 543.87 385.00 C 543.62 381.64 542.13 378.48 542.37 375.07 C 542.33 274.71 542.37 174.36 542.35 74.00 C 542.50 66.87 542.05 59.71 542.57 52.59 C 543.74 48.46 543.62 44.16 544.12 39.94 C 545.80 31.75 551.66 24.32 559.78 21.76 C 564.18 19.63 569.14 19.87 573.89 19.60 Z" />
<path fill="#d0031a" opacity="1.00" d=" M 14.49 530.50 C 17.91 527.64 22.41 525.89 26.90 526.08 C 40.59 526.11 54.28 525.93 67.96 526.18 C 76.47 527.29 84.34 531.63 90.63 537.39 C 102.27 547.02 112.85 557.82 124.31 567.68 C 127.42 570.03 129.64 574.32 133.98 574.37 C 136.32 574.48 139.02 574.51 140.81 572.75 C 152.12 563.46 161.96 552.55 173.36 543.37 C 182.27 534.33 193.60 525.46 206.98 526.07 C 219.97 526.13 232.97 525.93 245.95 526.17 C 253.97 526.53 260.55 533.90 260.03 541.92 C 260.15 589.27 260.03 636.63 260.09 683.99 C 260.04 686.86 260.16 689.79 259.59 692.64 C 258.52 695.28 256.72 697.72 254.24 699.21 C 245.30 702.94 235.43 701.23 226.00 701.60 C 220.24 701.31 214.22 702.52 208.72 700.30 C 203.00 698.92 200.14 692.55 200.17 687.10 C 199.98 656.54 200.36 625.97 199.99 595.41 C 192.21 602.13 184.27 608.71 176.91 615.92 C 170.93 621.28 164.55 626.18 158.96 631.97 C 153.63 636.66 148.47 641.63 142.55 645.57 C 138.02 647.03 132.99 646.91 128.40 645.79 C 124.25 643.75 121.26 640.13 117.86 637.13 C 112.93 632.72 107.63 628.73 102.99 624.00 C 97.29 618.34 90.69 613.67 85.01 607.99 C 80.33 603.56 75.79 598.85 70.28 595.44 C 69.93 621.29 70.23 647.15 70.13 673.00 C 70.02 679.28 70.43 685.59 69.73 691.85 C 68.73 695.52 66.18 699.42 62.18 700.18 C 59.85 700.80 57.55 701.73 55.09 701.61 C 45.71 701.60 36.32 701.58 26.93 701.62 C 23.36 701.74 20.00 700.33 16.59 699.46 C 12.39 696.85 10.06 691.92 10.19 687.04 C 10.16 639.67 10.20 592.29 10.17 544.92 C 10.00 539.85 11.37 534.53 14.49 530.50 Z" />
<path fill="#d0031a" opacity="1.00" d=" M 290.95 527.34 C 295.16 525.95 299.64 526.47 304.00 526.40 C 371.36 526.40 438.73 526.40 506.09 526.40 C 511.25 526.20 517.65 529.14 517.83 534.98 C 518.05 543.97 517.96 552.98 517.88 561.98 C 517.99 566.65 513.96 571.30 509.02 570.41 C 458.02 570.54 407.01 570.43 356.00 570.47 C 351.40 570.55 346.66 569.93 342.23 571.51 C 338.09 571.96 333.77 575.46 334.09 579.92 C 334.00 601.63 334.10 623.34 334.04 645.06 C 334.07 646.90 334.01 648.78 334.44 650.60 C 336.16 654.74 340.64 656.71 344.98 656.28 C 399.02 656.44 453.06 656.25 507.09 656.26 C 511.45 656.16 516.68 658.29 517.67 662.96 C 518.22 668.95 517.82 674.99 517.94 681.00 C 517.84 685.53 518.24 690.11 517.56 694.62 C 516.84 696.66 515.04 698.16 513.51 699.64 C 510.07 700.48 506.50 700.27 503.00 700.34 C 436.66 700.32 370.33 700.33 304.00 700.33 C 298.71 700.28 293.38 700.51 288.12 699.81 C 279.87 697.77 273.44 689.63 273.90 681.05 C 273.72 638.70 273.88 596.35 273.82 554.00 C 273.84 549.96 273.74 545.91 274.24 541.90 C 275.90 534.07 282.90 527.83 290.95 527.34 Z" />
<path fill="#d0031a" opacity="1.00" d=" M 546.96 527.37 C 548.91 526.85 550.88 526.35 552.93 526.45 C 620.98 526.53 689.04 526.38 757.09 526.52 C 761.35 527.58 766.06 527.63 769.77 530.27 C 775.36 533.76 778.57 540.47 778.16 547.01 C 778.24 591.69 778.29 636.38 778.14 681.06 C 778.67 691.29 769.38 701.09 758.98 700.23 C 690.66 700.47 622.33 700.27 554.01 700.33 C 549.53 700.08 544.66 700.76 540.59 698.46 C 533.71 695.24 529.43 687.57 529.92 680.02 C 529.85 635.67 529.83 591.31 529.93 546.96 C 529.36 537.28 537.13 527.88 546.96 527.37 M 592.53 572.37 C 589.65 574.76 590.14 578.62 590.10 581.97 C 590.15 604.33 590.05 626.69 590.15 649.05 C 589.52 653.26 594.09 656.32 597.93 655.78 C 635.63 655.80 673.33 655.85 711.03 655.76 C 713.74 656.15 715.72 654.16 717.68 652.63 C 718.37 629.43 717.77 606.20 717.99 582.99 C 717.77 579.34 718.80 574.89 715.47 572.35 C 710.66 571.82 705.82 572.02 701.00 572.00 C 679.33 572.00 657.67 572.00 636.00 572.00 C 621.51 572.22 606.99 571.53 592.53 572.37 Z" />
</g>
<g id="#000200ff">
<path fill="#000200" opacity="1.00" d=" M 1367.73 537.97 C 1367.91 531.56 1374.23 527.12 1380.09 526.23 C 1392.72 525.86 1405.36 526.17 1418.00 526.07 C 1421.94 526.21 1426.11 525.64 1429.79 527.40 C 1439.54 529.91 1446.98 537.20 1454.42 543.56 C 1464.05 553.30 1474.96 561.66 1484.52 571.48 C 1487.14 574.77 1491.89 574.88 1495.66 573.87 C 1501.86 569.81 1506.63 564.02 1512.10 559.08 C 1518.76 553.08 1525.75 547.44 1532.03 541.02 C 1539.62 534.06 1548.45 527.44 1558.95 526.18 C 1570.63 525.93 1582.32 526.13 1594.00 526.06 C 1599.01 526.19 1604.41 525.37 1608.91 528.13 C 1612.57 530.47 1616.05 534.32 1616.09 538.91 C 1616.52 545.93 1616.23 552.97 1616.32 560.00 C 1616.30 602.33 1616.35 644.67 1616.29 687.00 C 1616.42 691.06 1615.88 695.71 1612.28 698.21 C 1609.21 700.99 1604.77 700.26 1600.98 700.59 C 1589.31 700.45 1577.62 700.94 1565.97 700.31 C 1562.53 700.52 1560.49 697.67 1558.47 695.39 C 1557.98 692.16 1556.73 689.10 1556.39 685.87 C 1556.27 655.76 1556.49 625.64 1556.28 595.52 C 1554.20 596.61 1552.64 598.39 1550.98 599.99 C 1545.10 605.80 1538.34 610.64 1532.50 616.50 C 1526.50 622.54 1519.50 627.46 1513.51 633.50 C 1509.64 637.33 1505.48 640.86 1501.14 644.13 C 1497.57 647.25 1492.35 646.62 1487.97 646.40 C 1484.18 646.36 1481.47 643.48 1478.63 641.40 C 1474.29 637.40 1470.17 633.16 1465.55 629.48 C 1458.39 623.68 1452.14 616.90 1444.99 611.10 C 1438.55 606.01 1433.24 599.66 1426.54 594.89 C 1426.13 621.25 1426.48 647.63 1426.36 674.00 C 1426.22 680.59 1426.78 687.26 1425.66 693.80 C 1424.58 695.94 1423.27 698.00 1421.34 699.47 C 1415.06 701.28 1408.43 700.38 1402.00 700.60 C 1393.01 700.39 1383.98 701.11 1375.04 700.05 C 1372.05 699.98 1370.35 697.27 1368.45 695.38 C 1367.40 692.02 1367.46 688.46 1367.41 684.99 C 1367.41 642.66 1367.41 600.33 1367.41 558.00 C 1367.50 551.32 1367.15 544.63 1367.73 537.97 Z" />
<path fill="#000200" opacity="1.00" d=" M 854.57 528.42 C 859.58 527.07 864.85 527.49 870.00 527.40 C 878.34 527.52 886.70 527.12 895.04 527.67 C 900.09 527.48 903.88 531.93 905.75 536.16 C 906.88 547.39 906.04 558.73 906.30 570.00 C 906.26 586.59 906.38 603.19 906.23 619.78 C 930.47 620.44 954.75 619.88 979.00 620.07 C 998.03 620.03 1017.07 620.13 1036.10 620.02 C 1036.21 593.64 1036.00 567.26 1036.20 540.88 C 1036.76 535.61 1039.40 529.47 1045.03 528.01 C 1051.97 527.00 1059.01 527.53 1066.00 527.40 C 1072.98 527.54 1080.03 526.97 1086.96 528.05 C 1092.85 529.71 1095.34 536.37 1095.78 541.92 C 1095.86 589.30 1095.80 636.69 1095.81 684.08 C 1096.00 690.65 1092.39 697.72 1085.84 699.76 C 1076.27 700.75 1066.61 700.05 1057.01 700.27 C 1051.82 699.98 1045.85 701.16 1041.64 697.39 C 1036.71 693.53 1035.65 686.88 1036.12 680.99 C 1036.11 675.38 1036.16 669.77 1036.09 664.15 C 992.83 664.21 949.56 663.94 906.31 664.29 C 906.20 672.21 906.49 680.14 906.11 688.06 C 906.14 694.82 899.71 700.45 893.07 700.13 C 882.03 700.33 870.97 700.40 859.94 700.09 C 854.76 700.16 850.25 696.42 848.24 691.82 C 847.59 688.59 847.63 685.27 847.59 681.99 C 847.59 640.66 847.59 599.33 847.59 558.00 C 847.68 551.32 847.34 544.62 847.88 537.95 C 847.84 533.67 851.64 530.94 854.57 528.42 Z" />
<path fill="#000200" opacity="1.00" d=" M 1118.71 528.68 C 1121.96 527.41 1125.58 527.67 1129.02 527.48 C 1195.35 527.45 1261.68 527.48 1328.00 527.46 C 1333.27 527.51 1338.60 527.25 1343.81 528.26 C 1348.64 530.41 1353.03 534.22 1354.55 539.43 C 1356.41 543.00 1355.90 547.13 1356.06 551.01 C 1356.03 594.02 1356.12 637.03 1356.01 680.04 C 1356.29 687.72 1352.01 695.77 1344.68 698.70 C 1341.12 700.67 1336.87 700.05 1332.98 700.32 C 1265.99 700.35 1199.00 700.33 1132.01 700.33 C 1128.42 700.26 1124.81 700.32 1121.27 699.73 C 1114.92 697.80 1109.63 692.40 1108.15 685.91 C 1107.38 678.63 1107.83 671.30 1107.71 664.00 C 1107.77 624.66 1107.58 585.32 1107.80 545.99 C 1107.41 538.61 1112.17 531.80 1118.71 528.68 M 1170.60 572.31 C 1169.90 573.14 1169.13 573.90 1168.30 574.59 C 1167.53 590.37 1168.15 606.20 1167.95 622.00 C 1168.16 632.46 1167.49 642.96 1168.38 653.40 C 1172.22 656.67 1177.35 655.67 1182.01 655.80 C 1217.36 655.78 1252.71 655.84 1288.07 655.77 C 1292.32 656.46 1296.54 652.36 1295.79 648.07 C 1295.79 624.69 1295.90 601.30 1295.74 577.92 C 1295.98 575.73 1294.30 574.17 1293.39 572.39 C 1290.26 572.03 1287.12 571.93 1283.99 571.99 C 1255.33 572.01 1226.66 572.00 1198.00 572.00 C 1188.87 572.15 1179.71 571.66 1170.60 572.31 Z" />
<path fill="#000200" opacity="1.00" d=" M 1627.92 546.95 C 1627.50 538.70 1632.96 530.33 1641.02 528.05 C 1645.97 527.32 1651.00 527.48 1656.00 527.47 C 1724.67 527.47 1793.33 527.46 1862.00 527.47 C 1864.36 527.61 1866.98 527.46 1869.09 528.79 C 1870.33 530.68 1872.01 532.54 1871.87 534.97 C 1872.04 544.32 1872.06 553.68 1871.86 563.02 C 1872.00 565.66 1870.00 567.65 1868.38 569.48 C 1860.90 572.40 1852.84 571.28 1845.00 571.47 C 1796.33 571.52 1747.66 571.36 1698.99 571.55 C 1694.50 571.03 1690.08 573.18 1688.38 577.40 C 1687.79 582.29 1688.20 587.24 1688.13 592.17 C 1746.11 592.26 1804.09 592.15 1862.08 592.22 C 1866.34 592.19 1871.02 594.68 1871.77 599.19 C 1872.20 605.78 1871.87 612.39 1871.98 619.00 C 1871.87 623.10 1872.27 627.27 1871.46 631.33 C 1870.26 632.88 1868.92 634.33 1867.46 635.63 C 1864.68 636.27 1861.80 636.22 1858.99 636.27 C 1802.07 636.26 1745.16 636.27 1688.25 636.27 C 1688.12 640.78 1687.87 645.32 1688.31 649.82 C 1689.52 653.00 1692.25 656.10 1695.93 656.08 C 1703.94 656.70 1711.98 656.27 1720.00 656.33 C 1767.04 656.38 1814.07 656.28 1861.10 656.26 C 1865.61 656.11 1870.82 658.41 1871.75 663.21 C 1872.21 669.46 1871.87 675.73 1871.98 682.00 C 1871.87 686.44 1872.29 690.95 1871.49 695.35 C 1870.26 696.91 1868.87 698.32 1867.58 699.81 C 1858.42 700.81 1849.19 700.13 1840.00 700.33 C 1776.67 700.32 1713.35 700.37 1650.03 700.31 C 1644.70 700.44 1638.94 699.90 1634.90 696.08 C 1630.09 692.26 1627.58 686.10 1627.91 680.02 C 1627.84 635.66 1627.81 591.31 1627.92 546.95 Z" />
</g>
</svg>
