<?xml version="1.0" encoding="utf-8"?>
<!-- Generator: Adobe Illustrator 24.0.0, SVG Export Plug-In . SVG Version: 6.00 Build 0)  -->
<svg version="1.1" id="Laag_1" xmlns="http://www.w3.org/2000/svg" xmlns:xlink="http://www.w3.org/1999/xlink" x="0px" y="0px"
	 viewBox="0 0 825.6 386.1" style="enable-background:new 0 0 825.6 386.1;" xml:space="preserve">
<style type="text/css">
	.st0{fill:#D0031A;}
</style>
<g id="_x23_ffffffff">
</g>
<path class="st0" d="M32.1,1.1c2.7-0.1,5.3-1.3,8-1.1c39.1,0,78.1,0,117.2,0c1.5,0,3.1,0.1,4.6,0.5c6.1,1.6,12.6,0.1,18.6,2.4
	c14.9,2.3,29.6,8.4,40.7,18.7c4.9,4.8,10.7,8.6,15.5,13.5c4.7,4.7,10.2,8.4,15,13c5.1,5,10.8,9.2,16,14c7,7.1,15.2,12.8,22.1,19.9
	c9.9,8.1,18.9,17.1,28.8,25.2c6,6.1,12.7,11.3,19.1,16.9c7.3,7.4,15.9,13.4,23.1,20.9c6.9,5.8,13.6,11.7,20.1,17.9
	c9.6,7.3,17.4,16.7,27.5,23.4c2.1,1.7,5.1,1.7,7.6,1.1c10.1-5.9,17.7-15.1,26.7-22.3c6.1-4.9,11.3-10.7,17.5-15.6
	c6.5-5.1,12-11.4,18.5-16.5c6.5-5.1,12-11.4,18.5-16.5c5.6-4.4,10.3-9.7,15.7-14.2c8.3-6.6,15.7-14.3,24-20.9
	c7.8-7.6,16.6-14.2,24.4-21.9c8.2-6.6,15.7-14.2,23.9-20.8c5-4,9.2-8.8,14.3-12.7c4.4-3.3,8.1-7.4,12.8-10.2
	C621,10,631,6.4,641.1,3.9c3.1-0.3,6.1-1.1,9-1.9c5.6-0.6,11.3-0.4,16.8-1.8c39-0.2,78.1,0,117.1-0.1c2.1,0,4.3-0.1,6.4,0.5
	c5.5,1.5,11.5,0,16.7,2.5c6.9,2,12.6,7.4,15.1,14.1c2.8,5.8,1.4,12.4,3.2,18.4c0.2,105.3,0,210.7,0.1,316.1c0.3,5.1-1.6,9.9-1.6,15
	c-0.7,8-6.9,15.2-14.6,17.5c-6.2,2.4-13,1.5-19.4,1.9c-94,0-188,0-282,0c-6.3,0-12.7,0.1-19-0.4c-3.5,0-6.2-2.4-8.8-4.4
	c-0.3-2.4-0.6-4.8,0.1-7.2c4.6-9.7,13.3-16.2,21.2-23c7.3-7.4,15.8-13.5,23.1-20.9c6.8-5.9,13.7-11.7,20.2-18
	c8.4-6.6,15.5-15.7,26.3-18.4c6.9-0.9,14-0.4,21-0.5c26.7,0,53.3,0,80,0c6.4-0.1,13,0.6,19.3-1.3c4.1-0.2,7.3-3.1,9.7-6.3
	c3.5-5.7,2.9-12.6,2.9-19c-0.1-52.4,0.1-104.7-0.1-157.1c0.3-3.8-1.7-7.2-4.1-9.9c-2.2,0-4.6-0.2-6.5,1.2
	c-10.3,5.9-18,15.4-27.2,22.8c-5.6,4.4-10.5,9.6-15.8,14.2c-9.5,7.8-18.1,16.5-27.7,24.3c-7,7-14.9,13.1-22.1,19.9
	c-5.5,5.6-11.7,10.3-17.5,15.5c-8.2,8.2-17.5,15.1-25.7,23.3c-9.2,7.3-17.3,15.9-26.4,23.3c-5,4.1-9.3,8.9-14.4,12.8
	c-6.6,5.1-12.1,11.4-18.6,16.5c-5.9,4.7-11,10.3-16.9,15.1c-3.4,2.9-6.9,5.7-10.1,8.9c-5.3,5.4-11.6,9.7-17,15
	c-6.4,6.4-13.7,11.7-20.1,17.9c-6.1,5.2-12.3,10.3-18,15.9c-6.3,5-12.2,10.5-18.4,15.6c-14.2,12.3-31.9,20.4-50.4,23.4
	c-18.3,0.8-36.7,0.3-55.1,0.4c-25,0-50,0.1-75,0c-3.8-0.3-8.9,0.4-11.1-3.5c-1.2-4.7,2.6-8.5,5.9-11.2c4.3-3.6,8.7-7.1,12.7-11.1
	c5.7-5.7,12.3-10.3,18-16s12.3-10.3,18-16c6-6.1,13-10.9,19-17c6.4-6.3,13.7-11.6,20.1-18c8.5-7.2,16.9-14.5,24.7-22.4
	c-6.2-6-13.2-11-19.3-17.1c-6.2-6.1-13.4-11.3-19.5-17.5c-6.2-6.2-13.4-11.2-19.5-17.5c-6.7-6.3-14.1-11.8-20.5-18.5
	c-5.8-5.5-12.3-10.3-18-16c-5.6-5.5-11.9-10.1-17.5-15.5c-6.4-6.3-13.7-11.6-20-18c-5.7-5.7-12.1-10.5-18-16
	c-7.2-7.1-15.5-13.1-22.6-20.4c-5.5-4.8-10.9-10.1-17.4-13.6c-1.7-1.1-3.9-0.8-5.8-0.9c-2.6,2.7-4.7,6-4.2,9.9
	c-0.1,53.7,0,107.4-0.1,161.1c0.1,3.9-0.3,8,1.4,11.6c1,3.8,4.1,6.6,7.2,8.8c3.4,0.9,6.9,1.4,10.3,2.1c20.3,0.4,40.7-0.3,61,0.4
	c3.9-0.2,7,2.1,9.8,4.6c0.3,3,0.8,6.5-1.2,9.1c-6,10.5-16.3,17.1-24.7,25.4c-5.3,5-11.3,9.4-16.5,14.5c-5.5,5.5-12,10-17.5,15.5
	c-5,5-10.7,9.3-15.9,14.1c-4.1,4-9.2,6.6-14.5,8.5c-7.4,1.3-15,0.6-22.5,0.8c-19.3,0-38.7,0-58,0c-7.8-0.3-15.8,0.7-23.4-1.5
	c-8.3-1.8-15.1-9.3-15.7-17.9c-0.2-3.4-1.7-6.5-1.5-9.9C0,256.2,0,155.9,0,55.5c0.2-7.1-0.3-14.3,0.2-21.4c1.2-4.1,1-8.4,1.5-12.7
	C3.4,13.2,9.2,5.8,17.4,3.2C22.4,1.1,27.3,1.4,32.1,1.1z"/>
</svg>
