<?xml version="1.0" encoding="utf-8"?>
<!-- Generator: Adobe Illustrator 21.1.0, SVG Export Plug-In . SVG Version: 6.00 Build 0)  -->
<svg version="1.1" id="Laag_1" xmlns="http://www.w3.org/2000/svg" xmlns:xlink="http://www.w3.org/1999/xlink" x="0px" y="0px"
	 viewBox="0 0 1892 722" style="enable-background:new 0 0 1892 722;" xml:space="preserve">
<style type="text/css">
	.st0{fill:#D0031A;}
	.st1{fill:#000200;}
</style>
<g id="_x23_ffffffff">
</g>
<g id="_x23_d0031aff">
	<path class="st0" d="M573.9,19.6c2.7-0.1,5.3-1.3,8-1.1c39.1,0,78.1,0,117.2,0c1.5,0,3.1,0.1,4.6,0.5c6.1,1.6,12.6,0.1,18.6,2.4
		c14.9,2.3,29.6,8.4,40.7,18.7c4.9,4.8,10.7,8.6,15.5,13.5c4.7,4.7,10.2,8.4,15,13c5.1,5,10.8,9.2,16,14c7,7.1,15.2,12.8,22.1,19.9
		c9.9,8.1,18.9,17.1,28.8,25.2c6,6.1,12.7,11.3,19.1,16.9c7.3,7.4,15.9,13.4,23.1,20.9c6.9,5.8,13.6,11.7,20.1,17.9
		c9.6,7.3,17.4,16.7,27.5,23.4c2.1,1.7,5.1,1.7,7.6,1.1c10.1-5.9,17.7-15.1,26.7-22.3c6.1-4.9,11.3-10.7,17.5-15.6
		c6.5-5.1,12-11.4,18.5-16.5c6.5-5.1,12-11.4,18.5-16.5c5.6-4.4,10.3-9.7,15.7-14.2c8.3-6.6,15.7-14.3,24-20.9
		c7.8-7.6,16.6-14.2,24.4-21.9c8.2-6.6,15.7-14.2,23.9-20.8c5-4,9.2-8.8,14.3-12.7c4.4-3.3,8.1-7.4,12.8-10.2
		c8.7-5.8,18.7-9.4,28.8-11.9c3.1-0.3,6.1-1.1,9-1.9c5.6-0.6,11.3-0.4,16.8-1.8c39-0.2,78.1,0,117.1-0.1c2.1,0,4.3-0.1,6.4,0.5
		c5.5,1.5,11.5,0,16.7,2.5c6.9,2,12.6,7.4,15.1,14.1c2.8,5.8,1.4,12.4,3.2,18.4c0.2,105.3,0,210.7,0.1,316.1c0.3,5.1-1.6,9.9-1.6,15
		c-0.7,8-6.9,15.2-14.6,17.5c-6.2,2.4-13,1.5-19.4,1.9c-94,0-188,0-282,0c-6.3,0-12.7,0.1-19-0.4c-3.5,0-6.2-2.4-8.8-4.4
		c-0.3-2.4-0.6-4.8,0.1-7.2c4.6-9.7,13.3-16.2,21.2-23c7.3-7.4,15.8-13.5,23.1-20.9c6.8-5.9,13.7-11.7,20.2-18
		c8.4-6.6,15.5-15.7,26.3-18.4c6.9-0.9,14-0.4,21-0.5c26.7,0,53.3,0,80,0c6.4-0.1,13,0.6,19.3-1.3c4.1-0.2,7.3-3.1,9.7-6.3
		c3.5-5.7,2.9-12.6,2.9-19c-0.1-52.4,0.1-104.7-0.1-157.1c0.3-3.8-1.7-7.2-4.1-9.9c-2.2,0-4.6-0.2-6.5,1.2
		c-10.3,5.9-18,15.4-27.2,22.8c-5.6,4.4-10.5,9.6-15.8,14.2c-9.5,7.8-18.1,16.5-27.7,24.3c-7,7-14.9,13.1-22.1,19.9
		c-5.5,5.6-11.7,10.3-17.5,15.5c-8.2,8.2-17.5,15.1-25.7,23.3c-9.2,7.3-17.3,15.9-26.4,23.3c-5,4.1-9.3,8.9-14.4,12.8
		c-6.6,5.1-12.1,11.4-18.6,16.5c-5.9,4.7-11,10.3-16.9,15.1c-3.4,2.9-6.9,5.7-10.1,8.9c-5.3,5.4-11.6,9.7-17,15
		c-6.4,6.4-13.7,11.7-20.1,17.9c-6.1,5.2-12.3,10.3-18,15.9c-6.3,5-12.2,10.5-18.4,15.6c-14.2,12.3-31.9,20.4-50.4,23.4
		c-18.3,0.8-36.7,0.3-55.1,0.4c-25,0-50,0.1-75,0c-3.8-0.3-8.9,0.4-11.1-3.5c-1.2-4.7,2.6-8.5,5.9-11.2c4.3-3.6,8.7-7.1,12.7-11.1
		c5.7-5.7,12.3-10.3,18-16c5.7-5.7,12.3-10.3,18-16c6-6.1,13-10.9,19-17c6.4-6.3,13.7-11.6,20.1-18c8.5-7.2,16.9-14.5,24.7-22.4
		c-6.2-6-13.2-11-19.3-17.1c-6.2-6.1-13.4-11.3-19.5-17.5c-6.2-6.2-13.4-11.2-19.5-17.5c-6.7-6.3-14.1-11.8-20.5-18.5
		c-5.8-5.5-12.3-10.3-18-16c-5.6-5.5-11.9-10.1-17.5-15.5c-6.4-6.3-13.7-11.6-20-18c-5.7-5.7-12.1-10.5-18-16
		c-7.2-7.1-15.5-13.1-22.6-20.4c-5.5-4.8-10.9-10.1-17.4-13.6c-1.7-1.1-3.9-0.8-5.8-0.9c-2.6,2.7-4.7,6-4.2,9.9
		c-0.1,53.7,0,107.4-0.1,161.1c0.1,3.9-0.3,8,1.4,11.6c1,3.8,4.1,6.6,7.2,8.8c3.4,0.9,6.9,1.4,10.3,2.1c20.3,0.4,40.7-0.3,61,0.4
		c3.9-0.2,7,2.1,9.8,4.6c0.3,3,0.8,6.5-1.2,9.1c-6,10.5-16.3,17.1-24.7,25.4c-5.3,5-11.3,9.4-16.5,14.5c-5.5,5.5-12,10-17.5,15.5
		c-5,5-10.7,9.3-15.9,14.1c-4.1,4-9.2,6.6-14.5,8.5c-7.4,1.3-15,0.6-22.5,0.8c-19.3,0-38.7,0-58,0c-7.8-0.3-15.8,0.7-23.4-1.5
		c-8.3-1.8-15.1-9.3-15.7-17.9c-0.2-3.4-1.7-6.5-1.5-9.9c0-100.4,0-200.7,0-301.1c0.2-7.1-0.3-14.3,0.2-21.4c1.2-4.1,1-8.4,1.5-12.7
		c1.7-8.2,7.5-15.6,15.7-18.2C564.2,19.6,569.1,19.9,573.9,19.6z"/>
	<path class="st0" d="M14.5,530.5c3.4-2.9,7.9-4.6,12.4-4.4c13.7,0,27.4-0.2,41.1,0.1c8.5,1.1,16.4,5.5,22.7,11.2
		c11.6,9.6,22.2,20.4,33.7,30.3c3.1,2.4,5.3,6.6,9.7,6.7c2.3,0.1,5,0.1,6.8-1.6c11.3-9.3,21.2-20.2,32.6-29.4
		c8.9-9,20.2-17.9,33.6-17.3c13,0.1,26-0.1,39,0.1c8,0.4,14.6,7.7,14.1,15.8c0.1,47.4,0,94.7,0.1,142.1c0,2.9,0.1,5.8-0.5,8.7
		c-1.1,2.6-2.9,5.1-5.3,6.6c-8.9,3.7-18.8,2-28.2,2.4c-5.8-0.3-11.8,0.9-17.3-1.3c-5.7-1.4-8.6-7.8-8.6-13.2
		c-0.2-30.6,0.2-61.1-0.2-91.7c-7.8,6.7-15.7,13.3-23.1,20.5c-6,5.4-12.4,10.3-17.9,16c-5.3,4.7-10.5,9.7-16.4,13.6
		c-4.5,1.5-9.6,1.3-14.2,0.2c-4.1-2-7.1-5.7-10.5-8.7c-4.9-4.4-10.2-8.4-14.9-13.1c-5.7-5.7-12.3-10.3-18-16
		c-4.7-4.4-9.2-9.1-14.7-12.5c-0.3,25.8,0,51.7-0.2,77.6c-0.1,6.3,0.3,12.6-0.4,18.8c-1,3.7-3.6,7.6-7.6,8.3
		c-2.3,0.6-4.6,1.5-7.1,1.4c-9.4,0-18.8,0-28.2,0c-3.6,0.1-6.9-1.3-10.3-2.2c-4.2-2.6-6.5-7.5-6.4-12.4c0-47.4,0-94.8,0-142.1
		C10,539.8,11.4,534.5,14.5,530.5z"/>
	<path class="st0" d="M291,527.3c4.2-1.4,8.7-0.9,13-0.9c67.4,0,134.7,0,202.1,0c5.2-0.2,11.6,2.7,11.7,8.6c0.2,9,0.1,18,0,27
		c0.1,4.7-3.9,9.3-8.9,8.4c-51,0.1-102,0-153,0.1c-4.6,0.1-9.3-0.5-13.8,1c-4.1,0.5-8.5,4-8.1,8.4c-0.1,21.7,0,43.4,0,65.1
		c0,1.8,0,3.7,0.4,5.5c1.7,4.1,6.2,6.1,10.5,5.7c54,0.2,108.1,0,162.1,0c4.4-0.1,9.6,2,10.6,6.7c0.5,6,0.2,12,0.3,18
		c-0.1,4.5,0.3,9.1-0.4,13.6c-0.7,2-2.5,3.5-4,5c-3.4,0.8-7,0.6-10.5,0.7c-66.3,0-132.7,0-199,0c-5.3,0-10.6,0.2-15.9-0.5
		c-8.2-2-14.7-10.2-14.2-18.8c-0.2-42.3,0-84.7-0.1-127c0-4-0.1-8.1,0.4-12.1C275.9,534.1,282.9,527.8,291,527.3z"/>
	<path class="st0" d="M547,527.4c1.9-0.5,3.9-1,6-0.9c68,0.1,136.1-0.1,204.2,0.1c4.3,1.1,9,1.1,12.7,3.8c5.6,3.5,8.8,10.2,8.4,16.7
		c0.1,44.7,0.1,89.4,0,134c0.5,10.2-8.8,20-19.2,19.2c-68.3,0.2-136.6,0-205,0.1c-4.5-0.2-9.4,0.4-13.4-1.9
		c-6.9-3.2-11.2-10.9-10.7-18.4c-0.1-44.4-0.1-88.7,0-133.1C529.4,537.3,537.1,527.9,547,527.4 M592.5,572.4
		c-2.9,2.4-2.4,6.2-2.4,9.6c0.1,22.4,0,44.7,0.1,67.1c-0.6,4.2,3.9,7.3,7.8,6.7c37.7,0,75.4,0.1,113.1,0c2.7,0.4,4.7-1.6,6.6-3.1
		c0.7-23.2,0.1-46.4,0.3-69.6c-0.2-3.6,0.8-8.1-2.5-10.6c-4.8-0.5-9.6-0.3-14.5-0.3c-21.7,0-43.3,0-65,0
		C621.5,572.2,607,571.5,592.5,572.4z"/>
</g>
<g id="_x23_000200ff">
	<path class="st1" d="M1367.7,538c0.2-6.4,6.5-10.8,12.4-11.7c12.6-0.4,25.3-0.1,37.9-0.2c3.9,0.1,8.1-0.4,11.8,1.3
		c9.8,2.5,17.2,9.8,24.6,16.2c9.6,9.7,20.5,18.1,30.1,27.9c2.6,3.3,7.4,3.4,11.1,2.4c6.2-4.1,11-9.8,16.4-14.8
		c6.7-6,13.7-11.6,19.9-18.1c7.6-7,16.4-13.6,26.9-14.8c11.7-0.2,23.4,0,35.1-0.1c5,0.1,10.4-0.7,14.9,2.1c3.7,2.3,7.1,6.2,7.2,10.8
		c0.4,7,0.1,14.1,0.2,21.1c0,42.3,0,84.7,0,127c0.1,4.1-0.4,8.7-4,11.2c-3.1,2.8-7.5,2-11.3,2.4c-11.7-0.1-23.4,0.3-35-0.3
		c-3.4,0.2-5.5-2.6-7.5-4.9c-0.5-3.2-1.7-6.3-2.1-9.5c-0.1-30.1,0.1-60.2-0.1-90.3c-2.1,1.1-3.6,2.9-5.3,4.5
		c-5.9,5.8-12.6,10.7-18.5,16.5c-6,6-13,11-19,17c-3.9,3.8-8,7.4-12.4,10.6c-3.6,3.1-8.8,2.5-13.2,2.3c-3.8,0-6.5-2.9-9.3-5
		c-4.3-4-8.5-8.2-13.1-11.9c-7.2-5.8-13.4-12.6-20.6-18.4c-6.4-5.1-11.8-11.4-18.4-16.2c-0.4,26.4-0.1,52.7-0.2,79.1
		c-0.1,6.6,0.4,13.3-0.7,19.8c-1.1,2.1-2.4,4.2-4.3,5.7c-6.3,1.8-12.9,0.9-19.3,1.1c-9-0.2-18,0.5-27-0.5c-3-0.1-4.7-2.8-6.6-4.7
		c-1-3.4-1-6.9-1-10.4c0-42.3,0-84.7,0-127C1367.5,551.3,1367.2,544.6,1367.7,538z"/>
	<path class="st1" d="M854.6,528.4c5-1.3,10.3-0.9,15.4-1c8.3,0.1,16.7-0.3,25,0.3c5.1-0.2,8.8,4.3,10.7,8.5
		c1.1,11.2,0.3,22.6,0.5,33.8c0,16.6,0.1,33.2-0.1,49.8c24.2,0.7,48.5,0.1,72.8,0.3c19,0,38.1,0.1,57.1,0
		c0.1-26.4-0.1-52.8,0.1-79.1c0.6-5.3,3.2-11.4,8.8-12.9c6.9-1,14-0.5,21-0.6c7,0.1,14-0.4,21,0.6c5.9,1.7,8.4,8.3,8.8,13.9
		c0.1,47.4,0,94.8,0,142.2c0.2,6.6-3.4,13.6-10,15.7c-9.6,1-19.2,0.3-28.8,0.5c-5.2-0.3-11.2,0.9-15.4-2.9c-4.9-3.9-6-10.5-5.5-16.4
		c0-5.6,0-11.2,0-16.8c-43.3,0.1-86.5-0.2-129.8,0.1c-0.1,7.9,0.2,15.9-0.2,23.8c0,6.8-6.4,12.4-13,12.1c-11,0.2-22.1,0.3-33.1,0
		c-5.2,0.1-9.7-3.7-11.7-8.3c-0.6-3.2-0.6-6.5-0.6-9.8c0-41.3,0-82.7,0-124c0.1-6.7-0.2-13.4,0.3-20
		C847.8,533.7,851.6,530.9,854.6,528.4z"/>
	<path class="st1" d="M1118.7,528.7c3.2-1.3,6.9-1,10.3-1.2c66.3,0,132.7,0,199,0c5.3,0,10.6-0.2,15.8,0.8c4.8,2.1,9.2,6,10.7,11.2
		c1.9,3.6,1.3,7.7,1.5,11.6c0,43,0.1,86-0.1,129c0.3,7.7-4,15.7-11.3,18.7c-3.6,2-7.8,1.3-11.7,1.6c-67,0-134,0-201,0
		c-3.6-0.1-7.2,0-10.7-0.6c-6.3-1.9-11.6-7.3-13.1-13.8c-0.8-7.3-0.3-14.6-0.4-21.9c0.1-39.3-0.1-78.7,0.1-118
		C1107.4,538.6,1112.2,531.8,1118.7,528.7 M1170.6,572.3c-0.7,0.8-1.5,1.6-2.3,2.3c-0.8,15.8-0.2,31.6-0.4,47.4
		c0.2,10.5-0.5,21,0.4,31.4c3.8,3.3,9,2.3,13.6,2.4c35.3,0,70.7,0,106.1,0c4.2,0.7,8.5-3.4,7.7-7.7c0-23.4,0.1-46.8-0.1-70.2
		c0.2-2.2-1.4-3.8-2.3-5.5c-3.1-0.4-6.3-0.5-9.4-0.4c-28.7,0-57.3,0-86,0C1188.9,572.2,1179.7,571.7,1170.6,572.3z"/>
	<path class="st1" d="M1627.9,547c-0.4-8.2,5-16.6,13.1-18.9c4.9-0.7,10-0.6,15-0.6c68.7,0,137.3,0,206,0c2.4,0.1,5,0,7.1,1.3
		c1.2,1.9,2.9,3.8,2.8,6.2c0.2,9.4,0.2,18.7,0,28.1c0.1,2.6-1.9,4.6-3.5,6.5c-7.5,2.9-15.5,1.8-23.4,2c-48.7,0.1-97.3-0.1-146,0.1
		c-4.5-0.5-8.9,1.6-10.6,5.9c-0.6,4.9-0.2,9.8-0.2,14.8c58,0.1,116,0,173.9,0c4.3,0,8.9,2.5,9.7,7c0.4,6.6,0.1,13.2,0.2,19.8
		c-0.1,4.1,0.3,8.3-0.5,12.3c-1.2,1.5-2.5,3-4,4.3c-2.8,0.6-5.7,0.6-8.5,0.6c-56.9,0-113.8,0-170.7,0c-0.1,4.5-0.4,9,0.1,13.5
		c1.2,3.2,3.9,6.3,7.6,6.3c8,0.6,16,0.2,24.1,0.2c47,0,94.1,0,141.1-0.1c4.5-0.2,9.7,2.1,10.7,7c0.5,6.2,0.1,12.5,0.2,18.8
		c-0.1,4.4,0.3,9-0.5,13.3c-1.2,1.6-2.6,3-3.9,4.5c-9.2,1-18.4,0.3-27.6,0.5c-63.3,0-126.7,0-190,0c-5.3,0.1-11.1-0.4-15.1-4.2
		c-4.8-3.8-7.3-10-7-16.1C1627.8,635.7,1627.8,591.3,1627.9,547z"/>
</g>
</svg>
