<?xml version="1.0" encoding="utf-8"?>
<!-- Generator: Adobe Illustrator 21.1.0, SVG Export Plug-In . SVG Version: 6.00 Build 0)  -->
<svg version="1.1" id="Laag_1" xmlns="http://www.w3.org/2000/svg" xmlns:xlink="http://www.w3.org/1999/xlink" x="0px" y="0px"
	 viewBox="0 0 899 1410" style="enable-background:new 0 0 899 1410;" xml:space="preserve">
<path d="M121.4,0h655.1c20.3,0.4,40.6,5.1,58.4,15c15.2,8.1,28.2,19.7,39,32.9c15.5,18.8,23,43,25,67V1289
	c-0.5,21.8-6.3,43.5-17.8,62.1c-7.1,11.6-16.8,21.2-27.1,30c-13.9,11.4-30.4,19.5-47.8,24.1c-9.7,2.7-19.8,3.7-29.7,4.8h-655
	c-17-1.5-34-4.8-49.6-12c-28.4-12.7-52.5-36.1-63.6-65.4C3.5,1320.7,1,1308,0,1295.2V113.9c1.3-17.8,6.1-35.5,14.7-51.2
	c8.4-14.9,20-28,33.8-38.2C69.4,8.9,95.4,0.4,121.4,0 M121.2,3.2c-34.6,0.3-68.8,16.3-91,42.9c-18.3,21-27.6,49.2-27,76.9
	c0,387.7,0,775.3,0,1163c-0.6,26.1,7.8,52.4,23.8,73.1c23,29.4,59.8,47,97,47.2c215.7,0,431.3,0,647,0c31.6,0.5,63.6-11,86.7-32.7
	c24.8-21.3,38.5-54.2,37.9-86.7c0-385,0-770,0-1154.9c0-9.6,0.3-19.4-1.3-28.9c-3-18.9-10.1-37.4-22.1-52.3
	c-11.2-13.9-24.9-26-40.8-34.1C812.9,6.9,791.8,2.8,771,3.1C554.4,3.2,337.8,3,121.2,3.2z"/>
<path d="M111.6,10.8C117.7,10,123.8,10,130,10c216.4,0,432.7,0,649.1,0c17.6,1.3,35.3,5.4,50.8,14.1c11.2,5.9,21.5,13.7,29.9,23.2
	c15.5,16.2,24.9,37.7,27.6,59.8c1,7.9,0.7,15.9,0.7,23.8c0,386.7,0,773.3,0,1160c-0.3,19.5-6,39-16.6,55.5
	c-9.2,14.8-22.3,26.9-37.2,35.8c-6.9,4.5-14.5,7.9-22.4,10.3c-7.5,2.3-15.1,4.6-22.9,5.4c-12.3,1.5-24.6,0.7-36.9,0.9
	c-203,0-406,0-609,0c-14.4-0.1-28.9,0.8-43.1-2.4c-7.5-2.1-15.1-4-22.3-7c-7.4-3.4-14.5-7.4-21.2-12c-11.7-8.8-22.4-19.4-30-32
	c-6.1-9.7-10.3-20.5-13.5-31.5c-3-10-3.4-20.6-3.2-31c0-384.7,0-769.4,0-1154c-0.1-10.5-0.2-21.2,2.5-31.4
	c3.3-11.1,7-22.2,13.1-32.2c7.1-12.1,16.8-22.5,27.8-31.2C61.5,28,70.5,23,79.8,18.6C90.1,14.8,100.8,12.6,111.6,10.8 M121.2,13.2
	C112,13.3,103,15.5,94,17.6C88.6,19,83,20.4,78,23c-8.6,4.4-17.2,9.1-24.8,15.2c-7.7,6.4-14.7,13.5-20.5,21.7
	c-8.7,11.9-13.9,26-17.8,40.2c-2.6,11.1-1.9,22.6-2,33.9c0,385.4,0,770.7,0,1156.1c-0.2,15.8,4.8,31.2,11.5,45.3
	c8.1,16.3,20.7,30.1,35.5,40.6c8.5,5.2,17.1,10.6,26.8,13.3c7,2,13.8,4.5,21.1,5.3c14.3,1.8,28.8,0.8,43.1,1.1
	c206,0,411.9,0,617.9,0c10.6,0.1,21.3-0.3,31.5-3.2c8.1-2.2,16.3-4.6,23.9-8.3c17.3-9,33.1-21.7,43.7-38.3
	c11-16.4,16.8-36.1,17-55.9c0-390.3,0-780.7,0-1171c0-14.2-3.3-28.2-8.8-41.2c-7.1-16.5-19-30.7-33.1-41.7
	c-12.7-9-26.8-16.5-42.1-19.6c-9.4-2.3-19.1-3.9-28.8-3.4C555.1,13.2,338.1,13,121.2,13.2z"/>
<path d="M141,198.7c155.6-0.2,311.3,0,467-0.1c49.7,0.1,99.3-0.1,149,0.1c0,112.1,0,224.1,0,336.2c-0.1,75.8,0.2,151.7-0.1,227.5
	c-200,0.1-400,0-599.9,0c-5.3-0.1-10.7,0.2-16-0.2C141,574.4,141,386.6,141,198.7 M433.8,268.6c0.9,1.9,1.9,3.9,2.8,5.9
	c5,0,10,0.1,15-0.1c1.2-1.9,2.4-3.8,3.7-5.7C448.1,268.5,441,268.7,433.8,268.6 M483.4,272.9c-0.7,5.5-1,11-1.5,16.5
	c0.8,0.7,1.5,1.4,2.3,2.1c1.2-1,2.5-1.9,3.8-2.9c0.4-4.4,0.9-8.7,1.1-13.1c-0.7-2.4-2.1-4.5-3.2-6.8
	C484.9,270,483.6,271.2,483.4,272.9 M488.2,268.6c0.9,2,1.9,3.9,2.9,5.9c4.9,0,9.9,0,14.8,0c1.3-1.9,2.6-3.8,3.9-5.8
	C502.5,268.5,495.4,268.7,488.2,268.6 M525.4,268.7c-0.9,1.3-2.2,2.6-2.3,4.3c-0.7,5.4-1,10.9-1.5,16.3c0.7,0.7,1.5,1.5,2.2,2.2
	c1.3-1,2.6-2,3.8-2.9c0.3-4.5,1-8.9,1-13.4C527.8,272.9,526.6,270.8,525.4,268.7 M527.9,268.6c0.9,1.9,1.9,3.9,2.8,5.9
	c5,0,10,0,15,0c1.3-1.9,2.5-3.8,3.8-5.8C542.3,268.5,535.1,268.7,527.9,268.6 M412.9,279c-0.3,3.4-0.6,6.7-0.9,10.1
	c1,0.9,2,1.9,3,2.8c1-0.8,2-1.5,3-2.3c0.5-4.5,0.9-9.1,1.3-13.6c0.3-2.1-0.8-3.9-1.8-5.6C415.6,273,412.9,275.5,412.9,279
	 M456.9,270.4c-1.4,2-3,4-4.1,6.2c-0.7,4.1-0.8,8.4-1.3,12.5c1,0.9,2,1.8,3,2.8c1-0.8,2-1.6,3-2.4c0.4-4.8,1-9.6,1.2-14.5
	C459,273.2,457.7,271.8,456.9,270.4 M507.2,276.7c-0.6,4.1-0.8,8.3-1.2,12.4c1,0.9,2,1.8,3,2.8c1-0.8,2-1.6,3-2.4
	c0.4-4.9,1-9.7,1.2-14.6c0.1-1.8-1.1-3.2-1.9-4.6C509.9,272.4,508.2,274.4,507.2,276.7 M546.6,278.9c-0.3,3.4-0.6,6.9-0.9,10.3
	c1,0.9,2,1.8,3,2.8c1-0.8,2-1.6,3-2.4c0.3-4.9,1-9.7,1.2-14.5c0.1-1.7-1.1-3.1-1.8-4.6C549.3,273,546.6,275.5,546.6,278.9
	 M467,278.5c-0.3,2.9-0.5,5.8-0.7,8.6c2.4,0,4.9,0,7.3,0c0.3-2.9,0.5-5.8,0.8-8.6C471.9,278.5,469.5,278.5,467,278.5 M431.3,293
	c1,1,2,2,3,3c5,0,10,0.1,15-0.1c1.3-0.7,2.5-1.7,3.7-2.6c-1.1-1-2.2-2.1-3.3-3.1c-4.9-0.1-9.8,0-14.7,0
	C433.8,291.1,432.5,292,431.3,293 M411.4,298c-0.5,4.5-1.1,9.1-1.2,13.6c0.9,1.9,2.1,3.7,3.2,5.5c0.9-1.2,2.2-2.3,2.4-3.9
	c0.7-5.4,0.9-10.8,1.5-16.1c-0.8-0.8-1.6-1.5-2.4-2.2C413.7,295.9,412.2,296.7,411.4,298 M427,296.4c-0.5,5.9-1.3,11.7-1.5,17.6
	c0.4,0.8,1.2,2.3,1.6,3.1c1.8-3.2,4.7-6.1,4.9-10c0.3-3.2,0.5-6.4,0.8-9.7c-1.1-1-2.1-2-3.2-3C428.8,295,427.9,295.7,427,296.4
	 M481.4,296.4c-0.4,5.5-1.1,11.1-1.5,16.6c-0.3,1.6,1,2.7,1.8,3.9c1.6-3.2,4.5-6.1,4.7-9.8c0.3-3.2,0.5-6.5,0.8-9.8
	c-1.1-1-2.1-2-3.2-3C483.2,295,482.3,295.7,481.4,296.4 M505.2,297.8c-0.3,4.6-1.1,9.2-1.1,13.9c0.9,1.9,2.1,3.6,3.2,5.4
	c1-1.3,2.3-2.5,2.5-4.2c0.6-5.3,0.9-10.6,1.4-15.8c-0.8-0.7-1.6-1.5-2.4-2.2C507.6,295.8,506.4,296.8,505.2,297.8 M521.1,296.4
	c-0.5,5.2-1,10.4-1.4,15.6c-0.4,1.9,0.6,3.5,1.5,5c2-3.5,5.1-6.7,5-10.9c0.2-2.9,0.5-5.9,0.7-8.8c-1.1-1-2.1-2-3.2-3
	C522.9,295,522,295.7,521.1,296.4 M544.9,297.8c-0.3,3.8-0.7,7.5-1,11.3c-0.8,3.1,1.8,5.5,3.1,8.1c0.9-1.3,2.3-2.5,2.5-4.2
	c0.6-5.3,0.9-10.6,1.5-15.8c-0.8-0.8-1.5-1.5-2.2-2.3C547.4,295.8,546.2,296.8,544.9,297.8 M465,300.2c-0.3,2.9-0.5,5.8-0.8,8.8
	c2.5,0,5,0,7.4,0c0.2-2.9,0.5-5.8,0.7-8.7C470,300.2,467.5,300.2,465,300.2 M429.3,318c7.2,0.1,14.4,0.1,21.6,0
	c-1.1-2-2.2-4-3.3-5.9c-5-0.1-9.9,0-14.9,0C431.5,314,430.4,315.9,429.3,318 M487,312c-1.1,2-2.2,3.9-3.3,5.9
	c7.2,0.1,14.4,0.1,21.6,0c-1.1-2-2.2-4-3.3-5.9C497,312,492,312,487,312 M523.4,317.9c7.2,0.1,14.4,0.1,21.6,0c-1.1-2-2.2-4-3.3-6
	c-5,0-9.9,0-14.9,0C525.6,314,524.5,315.9,523.4,317.9 M147.4,339.2c200.5,0,400.9,0,601.4,0c0-1.9,0-3.8,0-5.6
	c-200.5,0-400.9,0-601.4,0C147.4,335.5,147.4,337.4,147.4,339.2 M228.6,451.4c-1.6,9-3.3,18-4.9,27c1.3,0,2.7,0,4,0
	c0.6-3.4,1.2-6.8,1.7-10.2c3.9,0.3,8.4,0.6,11.6-2.2c3.6-2.8,4.4-8.9,1.3-12.4C238.7,450.2,233.1,451,228.6,451.4 M266.9,451.5
	c-3.1,6.2-6.1,12.4-9.2,18.6c-1-6.3-2-12.7-3.1-19c-0.4,0.1-1.3,0.4-1.7,0.5c-3.6,8.8-6.4,17.9-9.7,26.7c0.9,0,2.7,0,3.6,0
	c2-5.5,4.1-11,6.1-16.5c1,5.6,1.8,11.2,3,16.8c0.2,0.1,0.5,0.2,0.7,0.2c3.2-5.5,6-11.4,9.1-17c0,5.5,0.1,11,0.3,16.5
	c1.3,0,2.6,0,3.9,0c-0.4-9.1-0.3-18.2-0.9-27.2C268.4,451.2,267.4,451.4,266.9,451.5 M275.1,454.9c0.7,0.4,2,1.3,2.7,1.7
	c1.8-2.1,4.6-2.8,7.1-1.7c0.3,0.6,1,1.8,1.3,2.5c-2.5,8.2-10.6,13.2-13.6,21c5.1,0.1,10.2,0,15.3,0c0.2-0.9,0.5-2.5,0.6-3.4
	c-3.3,0-6.6,0-9.9,0c3.3-4.5,7-8.7,10-13.4c1.8-2.8,2.2-7.1-0.8-9.3C283.7,449.9,277.6,450.5,275.1,454.9 M303.4,451.2
	c-0.8,4.5-1.6,9-2.3,13.5c2.1-0.5,4.1-1.2,6.2-1.8c6.1,1.6,4.5,11.5-1.3,12.3c-2.1,0.7-4-0.8-5.8-1.7c-0.5,1.2-1.1,2.3-1.7,3.5
	c3.6,2.2,8.3,2.2,12,0.2c4.4-2.7,5.3-8.6,4.3-13.3c-1.3-3.9-6.1-4.8-9.6-3.4c0.4-2,0.8-4.1,1.1-6.1c3.3,0,6.5,0,9.8,0
	c0.2-1.1,0.4-2.2,0.6-3.2C312.4,451.2,307.9,451.2,303.4,451.2 M291.6,478.6c2.9,2.7,6-1.3,4.1-4.2
	C293,472.8,289.4,475.8,291.6,478.6 M309.9,488.8c2,4.2,4.1,8.4,6.1,12.5c11,0,22,0,32.9,0c2.7-4,5.4-8,8.1-12.1
	c-2.3-0.5-4.7-0.6-7-0.6C336.6,488.8,323.2,488.6,309.9,488.8 M397.4,488.8c2,4.2,4.1,8.3,6.1,12.5c11,0,22,0,32.9,0
	c2.7-4.1,5.5-8,8.1-12.1c-2.5-0.4-4.9-0.6-7.4-0.5C423.8,488.8,410.6,488.6,397.4,488.8 M484.9,488.9c2.1,4.2,4.1,8.4,6.2,12.6
	c10.9,0,21.8-0.1,32.8,0c2.8-4,5.5-8.1,8.2-12.1c-5.6-1.1-11.4-0.5-17-0.7C505,488.9,494.9,488.5,484.9,488.9 M386.6,499.2
	c-1.1,11.7-2.1,23.4-3.1,35.1c1.6,1.6,3.2,3.2,4.8,4.8c2.8-2.1,5.5-4.2,8.3-6.4c0.8-9.6,1.8-19.2,2.4-28.8
	c-1.9-4.9-4.5-9.5-6.9-14.2C389.2,492.1,386.8,495.3,386.6,499.2 M474.1,499.9c-0.9,11.4-2.1,22.7-2.9,34.1c0.9,2.1,3.2,3.4,4.7,5.1
	c2.7-2.1,5.4-4.2,8.2-6.3c0.8-9.7,1.8-19.3,2.4-29c-2-4.8-4.6-9.4-6.8-14.1C476.6,492.2,474.2,495.8,474.1,499.9 M360.5,493
	c-2.9,4.5-6.2,8.8-8.9,13.4c-1.1,9.2-1.6,18.4-2.5,27.6c2.2,2,4.3,4,6.6,5.9c2.1-1.8,4.2-3.5,6.3-5.2c0.9-10.6,1.9-21.2,2.8-31.8
	C365,499.1,363.1,495.6,360.5,493 M439.2,506.3c-1.1,9.2-1.6,18.5-2.5,27.7c2.1,2,4.2,4,6.4,5.9c2.2-1.7,4.3-3.5,6.5-5.2
	c0.9-10.3,1.9-20.6,2.7-30.9c0.5-4.1-1.4-8-4.1-10.9C445.2,497.5,442,501.7,439.2,506.3 M312.4,536.2c-2.7,2.1-5.5,4.2-8.2,6.3
	c2.3,2.1,4.5,4.4,6.7,6.6c11.1,0,22.2,0,33.3,0c2.5-2,5-4.1,7.5-6.1c-2.4-2.3-4.9-4.5-7.3-6.8C333.8,536.2,323.1,536.2,312.4,536.2
	 M400.1,536.3c-3,1.7-5.5,4.2-8.3,6.2c2.4,2.1,4.4,4.7,7,6.5c10.8,0.1,21.7,0.1,32.5,0c3-1.5,5.2-4.1,7.9-6
	c-2.4-2.3-4.9-4.6-7.4-6.8C421.3,536.3,410.7,536.1,400.1,536.3 M479.9,542.3c2.2,2.2,4.4,4.4,6.6,6.6c11.1,0,22.2,0,33.3,0
	c2.5-2,5-4,7.5-6.1c-2.4-2.2-4.9-4.5-7.3-6.7c-10.7,0.1-21.3-0.1-32,0.1C485,537.9,482.6,540.3,479.9,542.3 M382.2,550.1
	c-1,12-2.1,24-3.1,35.9c-0.5,3.5,1.4,6.7,3.9,9.1c3.1-5.5,6.5-10.8,9.4-16.4c1-8.7,1.6-17.5,2.4-26.3c-2.3-2.2-4.6-4.5-6.8-6.8
	C386.1,547.1,384.1,548.6,382.2,550.1 M347.6,552.7c-0.9,10.1-1.8,20.2-2.7,30.3c2.3,4,4.6,8.1,7,12.1c2.9-2.2,5.3-5.3,5.7-9.1
	c1.1-11.6,2-23.2,3.1-34.8c-1.8-1.7-3.5-3.3-5.3-4.9C352.7,548.5,350.1,550.6,347.6,552.7 M435.1,553c-1.2,10-1.8,20-2.8,30
	c2.3,4,4.6,8.1,7,12.1c2.8-2.3,5.3-5.3,5.6-9.1c1.1-11.6,2.1-23.2,3.1-34.7c-1.7-1.6-3.5-3.3-5.2-4.9
	C440.3,548.6,437.3,550.5,435.1,553 M522.7,552.8c-0.8,10.1-2,20.2-2.6,30.3c2,4.1,4.6,8,6.8,12c2.9-2.2,5.3-5.3,5.7-9
	c1.1-11.6,2.1-23.2,3.1-34.8c-1.8-1.7-3.5-3.3-5.4-4.8C527.8,548.6,525.2,550.7,522.7,552.8 M307.2,584.5c-2.5,4.2-5,8.4-7.4,12.6
	c7,0.8,14.1,0.2,21.2,0.4c8.7-0.2,17.4,0.5,26.1-0.4c-2.4-4.2-4.9-8.4-7.3-12.6C328.9,584.5,318,584.5,307.2,584.5 M387.5,597.1
	c3.8,0.6,7.7,0.4,11.6,0.4c11.9-0.2,23.9,0.4,35.8-0.3c-2.4-4.3-4.9-8.5-7.3-12.7c-10.9,0-21.8,0-32.7,0
	C392.4,588.7,389.9,592.9,387.5,597.1 M450.5,585.4c-0.2,4-0.4,8.1-0.6,12.1c3.6,0,7.2,0,10.9,0c0.2-4,0.4-8.1,0.6-12.1
	C457.8,585.4,454.2,585.4,450.5,585.4 M482.3,584.5c-2.4,4.2-4.9,8.3-7.3,12.5c6.6,0.9,13.3,0.3,19.9,0.4c9.1-0.2,18.3,0.3,27.4-0.3
	c-2.4-4.3-4.9-8.5-7.3-12.7C504.1,584.5,493.2,584.5,482.3,584.5 M152.3,627.3c-2.3,0.2-4,2.5-3.9,4.7c0,9.6,0,19.2,0,28.8
	c-0.3,3,2.6,5.5,5.6,5c73.4,0,146.8,0,220.2,0c2.6,0.2,5-2.2,4.8-4.8c0.1-9,0-18.1,0-27.1c0-1.9,0.1-4.1-1.4-5.4
	c-1.5-1.5-3.6-1.3-5.5-1.3C298.7,627.3,225.5,627.1,152.3,627.3 M390.3,627.4c-2.5,0.5-3.8,3.3-3.5,5.6c0,9.3-0.1,18.6,0,27.9
	c-0.2,2.8,2.4,5.3,5.1,4.9c73.4,0,146.8,0,220.1,0c2.8,0.4,5.5-2,5.3-4.9c0-9.7,0.1-19.3,0-29c0.2-2.8-2.6-5.1-5.3-4.8
	C538.1,627.3,464.2,627,390.3,627.4 M161.4,680.3c-0.2,12.9,0,25.9-0.1,38.8c-5.2,3.5-8,10.4-5.7,16.5c2.3,7.3,11.2,11.4,18.2,8.4
	c6.9-2.5,10.7-11,8-17.8c-0.9-3.1-3.6-5-5.5-7.3c-0.2-12.3,0-24.5-0.1-36.8c0.2-3-1.2-6-3.9-7.4C168,672.2,161.8,675.2,161.4,680.3
	 M436.6,675.7c-2.1,5.4-4,10.8-6.2,16.1c-1.6-3.7-3-7.5-4.4-11.3c-2.9,7.3-5.5,14.7-8.6,22c-1.4,3.5-0.1,7.9,2.9,10.2
	c3.8,3.2,10.1,2.3,13-1.7c2.2-2.8,2.1-6.6,0.9-9.7c5,1.7,10.6-3,9.1-8.2C441,687.3,438.7,681.5,436.6,675.7 M207.1,680
	c1.3,2.7,2.6,5.5,3.9,8.2c7.5,0,15,0,22.5,0c1.7-2.6,3.4-5.2,5-7.8C228.2,679.4,217.6,680.3,207.1,680 M262.1,680
	c1.3,2.7,2.6,5.5,4,8.2c7.5,0,15,0,22.5,0c1.7-2.6,3.4-5.1,5.1-7.7c-3.2-0.8-6.4-0.6-9.7-0.6C276.7,680,269.4,679.9,262.1,680
	 M470,680c1.3,2.8,2.6,5.5,4,8.2c7.5,0,15,0,22.4,0c1.7-2.6,3.5-5.1,5.1-7.8C491,679.4,480.5,680.2,470,680 M525,680
	c1.3,2.8,2.6,5.5,4,8.2c7.5,0,15,0,22.4,0c1.7-2.5,3.5-5.1,5.2-7.7C546.1,679.3,535.5,680.3,525,680 M255.9,686.9
	c-0.8,7.5-1.3,15.2-2.1,22.7c1.1,1.1,2.2,2.3,3.3,3.4c1.7-1.4,3.5-2.7,5.2-4c0.5-6.8,1.3-13.5,1.7-20.3c-0.9-2.8-2.5-5.4-3.8-8
	C258.1,682.2,256,684.2,255.9,686.9 M518.5,687.1c-0.8,7.5-1.3,15.1-2.1,22.7c1.1,1,2.2,2.1,3.4,3c1.8-1.2,3.4-2.6,5.1-3.9
	c0.5-6.8,1.4-13.7,1.6-20.5c-1.1-2.6-2.5-5.1-3.7-7.6C520.7,682.3,518.8,684.4,518.5,687.1 M240.4,681.9c-2.3,3.8-6.3,7.2-6.1,12
	c-0.4,5.4-1,10.7-1.4,16.1c1.5,1.3,3,2.6,4.4,3.9c1.3-1.1,2.6-2.2,3.9-3.2c0.6-7.3,1.3-14.5,1.8-21.8
	C243.5,686.2,242.1,683.8,240.4,681.9 M295.4,681.8c-1.9,2.9-4.2,5.6-5.7,8.8c-0.8,6.4-1.2,12.9-1.8,19.3c1.4,1.3,2.9,2.7,4.3,4
	c1.4-1.1,2.7-2.2,4.1-3.3c0.6-7.2,1.3-14.5,1.9-21.7C298.6,686.2,297.1,683.8,295.4,681.8 M552.2,694c-0.4,5.3-1,10.6-1.4,15.9
	c1.5,1.3,2.9,2.7,4.3,4c1.3-1.1,2.6-2.2,4-3.2c0.7-7.2,1.3-14.4,1.9-21.6c0.4-2.8-1-5.3-2.7-7.3C556,685.6,551.9,689,552.2,694
	 M497.1,693.9c-0.4,5.4-0.9,10.7-1.4,16c1.5,1.3,3,2.6,4.4,3.9c1.3-1.1,2.6-2.1,3.9-3.2c0.6-7.2,1.3-14.4,1.8-21.7
	c0.4-2.8-1.1-5.2-2.7-7.2C500.9,685.7,496.8,689.1,497.1,693.9 M572.3,686.3c-2.9,2.2-1.9,9.2,2.6,8.4c2.6-0.5,2.8-3.6,2.5-5.7
	C577.7,686.3,574.3,685.1,572.3,686.3 M579.5,689.4c-1.9,5-3.9,9.8-5.7,14.9c0.4-0.1,1.3-0.4,1.8-0.5c2.6-6,4.9-12.1,7.2-18.1
	C580.5,685.6,580.1,687.8,579.5,689.4 M580.4,695.5c-2.2,1.3-1.7,4.3-1.4,6.5c1.2,3.1,6.5,2.5,6.5-1
	C586.4,697.8,583.9,693.9,580.4,695.5 M319.3,708c0.7,1.6,1.5,3.3,2.2,4.9c4.6,0.2,9.1,0.1,13.7,0.1c1-1.6,2.1-3.2,3-4.8
	C331.9,707.8,325.6,708.1,319.3,708 M315.4,712.1c-0.5,4.6-1,9.1-1.1,13.8c0.4,0.5,1.3,1.6,1.7,2.1c1-0.8,2.1-1.7,3.2-2.5
	c0.1-5.8,2.5-12.1-1.3-17.2C316.9,709.4,315.5,710.4,315.4,712.1 M203.1,714.5c1.4,1.4,2.8,2.9,4.3,4.3c6.9,0,13.8,0,20.6,0
	c3.1,0.5,5-2.5,7.3-4.1c-1.5-1.4-2.9-2.8-4.4-4.2c-7.6,0-15.1,0-22.7,0C206.5,711.9,204.8,713.2,203.1,714.5 M258.1,714.5
	c1.4,1.4,2.8,2.9,4.3,4.3c6.9,0,13.7,0,20.6,0c3.2,0.5,5-2.5,7.3-4.1c-1.5-1.4-2.9-2.8-4.4-4.2c-7.6,0-15.1,0-22.7,0
	C261.5,711.9,259.8,713.2,258.1,714.5 M465.9,714.6c1.4,1.4,2.9,2.9,4.3,4.3c7.6-0.1,15.2,0.2,22.8-0.1c2-1,3.5-2.7,5.2-4.1
	c-1.5-1.4-2.9-2.7-4.3-4.1c-7.6,0-15.2,0-22.8,0C469.3,712,467.6,713.3,465.9,714.6 M197.9,718.9c-0.5,7.7-1.5,15.4-1.9,23.2
	c-0.2,2.5,1.4,4.6,3,6.5c1.8-3.2,4-6.3,5.5-9.6c0.8-6.1,1.1-12.2,1.8-18.3c-1.5-1.5-3-3.1-4.6-4.6
	C200.4,716.9,199.2,717.9,197.9,718.9 M252.9,718.8c-0.5,7.7-1.5,15.4-1.9,23.2c-0.2,2.6,1.5,4.7,3,6.6c1.8-3.3,4-6.3,5.5-9.7
	c0.7-6,1.2-12.1,1.7-18.2c-1.2-1.8-3-3.2-4.5-4.8C255.4,716.9,254.2,717.9,252.9,718.8 M515.8,718.8c-0.6,7.7-1.5,15.5-2,23.2
	c-0.2,2.5,1.4,4.7,3,6.5c2.2-4.3,6.1-8.2,6-13.4c0.4-4.9,0.9-9.8,1.3-14.7c-1.5-1.5-3-3-4.5-4.5C518.3,716.9,517,717.8,515.8,718.8
	 M287.1,720.2c-0.6,7.2-1.2,14.4-1.9,21.6c1.4,2.5,2.8,4.9,4.3,7.4c2-1.6,3.8-3.7,4-6.3c0.7-7.6,1.3-15.3,2-23
	c-1.2-1.2-2.5-2.4-3.7-3.6C290.2,717.6,288.7,718.9,287.1,720.2 M494.9,720.1c-0.5,7.2-1.5,14.5-1.7,21.7c1.2,2.6,2.8,4.9,4.2,7.3
	c1.8-1.6,3.6-3.4,3.8-6c0.8-7.8,1.4-15.6,2.1-23.4c-1.2-1.2-2.4-2.4-3.6-3.5C498.1,717.5,496.5,718.8,494.9,720.1 M549.9,720.1
	c-0.5,7.2-1.4,14.4-1.7,21.7c1.2,2.6,2.8,4.9,4.2,7.4c1.7-1.6,3.6-3.4,3.8-5.9c0.8-7.8,1.3-15.6,2.1-23.4c-1.2-1.2-2.5-2.4-3.7-3.5
	C553,717.5,551.5,718.8,549.9,720.1 M320,726.2c-1.1,0.8-2.2,1.7-3.3,2.5c0.6,0.6,1.9,2,2.5,2.6c4.6,0,9.3,0,13.9,0
	c1-0.8,2-1.7,3.1-2.5c-0.9-0.9-1.9-1.8-2.8-2.6C329,726.2,324.5,726.3,320,726.2 M334.2,732.1c-0.3,4.4-0.8,8.7-1.1,13.1
	c0.9,1.5,1.8,3.1,2.8,4.6c0.8-1.2,2.1-2.2,2.2-3.8c0.6-4.7,0.9-9.4,1.3-14.1c-0.6-0.5-1.8-1.6-2.4-2.1
	C336.1,730.6,335.1,731.3,334.2,732.1 M299.4,741.5c-0.2,2.5-0.3,4.9-0.4,7.4c2.2,0,4.4,0,6.6,0c0.1-2.5,0.3-4.9,0.4-7.4
	C303.8,741.5,301.6,741.5,299.4,741.5 M201.1,750c10.5,0.3,21,0.2,31.5,0c-1.5-2.8-3.1-5.5-4.6-8.2c-7.4,0-14.9,0-22.3,0
	C203.9,744.4,202.3,747.1,201.1,750 M256.1,750c10.5,0.3,20.9,0.2,31.4,0.1c-1.5-2.8-3-5.6-4.6-8.3c-7.4,0-14.9,0-22.3,0
	C259,744.4,257.3,747.1,256.1,750 M468.4,741.8c-1.6,2.7-3.1,5.3-4.6,8.1c10.5,0.6,21,0.3,31.6,0.2c-1.5-2.8-3.1-5.5-4.6-8.2
	C483.2,741.7,475.8,741.7,468.4,741.8 M523.3,741.8c-1.6,2.7-3.2,5.3-4.5,8.1c10.5,0.5,21,0.2,31.5,0.2c-1.5-2.8-3.1-5.5-4.6-8.3
	C538.2,741.7,530.7,741.8,523.3,741.8 M318.1,745c-0.9,1.6-1.9,3.2-2.8,4.9c6.4,0.1,12.8,0.2,19.1,0.1c-0.9-1.7-1.9-3.4-2.8-5
	C327.2,745,322.6,745,318.1,745z"/>
<path d="M231.7,454.6c2.3-0.2,4.9-0.7,6.9,0.7c2.9,2.3,1.9,7.4-1.3,9c-2.3,1.2-4.9,0.9-7.4,0.7C230.5,461.5,231.1,458,231.7,454.6z"
	/>
<path d="M151.6,630.7c1.2-1,2.9-0.6,4.4-0.7c72.4,0.1,144.7,0,217.1,0c1.1,0,3.2,0.2,3,1.8c0.2,9.8,0.1,19.6,0,29.4
	c0.2,1.6-1.8,2.1-3,1.9c-72.7,0-145.4,0-218.1,0c-1.3-0.2-3.4,0.5-3.7-1.3c-0.3-8.9,0-17.9-0.1-26.8
	C151.4,633.6,150.9,631.9,151.6,630.7 M164.7,632.5c-0.2,1-0.4,2-0.6,3c2.5,0,4.9,0,7.4,0c-1.2,6.7-2.4,13.5-3.5,20.2
	c1.1,0,2.2,0,3.4,0c1.2-6.8,2.4-13.5,3.5-20.2c2.5,0,5.1,0,7.6,0c0.2-1,0.4-2,0.6-3C177,632.5,170.9,632.5,164.7,632.5 M296.7,635.2
	c-0.2,1.1-0.5,2.2-0.7,3.3c-1.4,0.1-2.3,0.8-2.6,2.2c0.5,0.2,1.6,0.5,2.1,0.7c-0.6,3.8-2.2,7.6-2,11.5c0.3,4.1,8.9,4.6,8.2,0.2
	c-1.6,0-3.1,0-4.7,0c-0.6-4.1,1-8,1.6-12c2.2-0.2,5.4,0.9,5.3-2.4c-1.6,0-3.1,0-4.7,0c0.4-1.6,0.8-3.3,1.2-4.9
	C299.1,634.3,297.9,634.7,296.7,635.2 M182.8,652.2c1,3.6,5.2,4.3,8.4,3.5c2.2,0.1,2.5-1.8,2.7-3.5c-2.2,0.5-4.7,2-6.7,0.4
	c-1.6-0.8-1.4-3-1.9-4.5c4.1,0.8,9.6,0.8,11.8-3.4c1.6-2.8-0.9-6.4-4-6.3C185.7,637.2,180,645.7,182.8,652.2 M201,639
	c0.4,5.7-1.3,11.2-2.1,16.8c0.8,0,2.4,0,3.2,0c0.7-4.2,1.5-8.4,2.2-12.6c1.7-1.8,5.5-3.4,6.6-0.1c-0.5,4.3-1.5,8.4-2.2,12.7
	c1.1,0,2.2,0,3.3,0c0.7-4.2,1.6-8.5,2.1-12.8c1.1-0.9,2.4-1.6,3.7-2.1c0.6,0.3,1.8,0.8,2.4,1c0.5,4.7-1.1,9.2-1.7,13.8
	c1.1,0,2.1,0,3.2,0c0.7-4.6,1.9-9.1,2.2-13.7c-0.6-4.8-6.8-4.3-9.6-1.8c-2.8-2.7-7.1-2.1-10.1,0v-1.9
	C203.2,638.5,201.8,638.8,201,639 M227.9,639c0.1,8-2.5,15.8-3.4,23.7c4.7,0.8,3.6-4.6,4.4-7.5c3.2,1.5,7.2,1,9.9-1.4
	c3.1-3.1,4.3-8.2,2.8-12.4c-2-3.9-7.4-3.4-10.5-1.1l-0.1-1.9C230.1,638.6,228.6,638.9,227.9,639 M244.8,652c1,5.1,11.1,6,11.3,0.3
	c-2.1,0.5-4.6,1.9-6.6,0.4c-1.9-0.7-1.5-3.1-2-4.7c4,1.1,9.4,0.8,11.7-3.2c1.4-3-1-6.6-4.3-6.3C247.7,637.4,242.6,645.5,244.8,652
	 M264.5,638.9c-1.3,5.6-2,11.3-3.1,16.9c1.1,0,2.1,0,3.2,0c0.7-3.6,1-7.4,2-11c0.9-2.8,4-4.5,6.8-3.1c0.2-0.8,0.6-2.5,0.8-3.3
	c-2.8-0.3-5.3,0.7-7.3,2.7c0.1-0.6,0.5-1.8,0.6-2.4C266.8,638.7,265.2,638.8,264.5,638.9 M274.5,649.1c-0.4,2.4,0.4,5.4,2.8,6.5
	c2.6,0.9,5.3,0.2,7.6-1.2c0.9,0.4,2.8,1.1,3.8,1.5c-1.6-5.5,0.6-11,1.6-16.3c-2.9-0.9-6.2-1.9-9.1-0.6
	C277.1,640.6,274.8,644.9,274.5,649.1 M305.5,652c0.3,5.4,7.5,4.7,10.3,1.8l-0.6,2c0.8,0,2.5-0.1,3.4-0.1c1-5.7,2.1-11.4,3.1-17
	c-0.8,0-2.4,0.2-3.2,0.2c-1.1,3.7-1.2,7.6-2.4,11.2c-1.1,2.7-4.3,3.8-7,2.7c-0.6-4.8,1.1-9.4,1.8-14.1c-0.8,0.1-2.4,0.2-3.2,0.2
	C306.8,643.2,305.9,647.6,305.5,652 M326.3,638.8c-1,5.7-2,11.3-2.9,17c1,0,2,0,3.1,0c0.8-3.8,1.1-7.8,2.4-11.6c1-2.6,4-3.7,6.5-2.5
	c0.2-0.8,0.6-2.5,0.8-3.3c-2.7-0.3-5.2,0.6-7.1,2.5c0.1-0.6,0.4-1.7,0.5-2.2C328.7,638.8,327.1,638.8,326.3,638.8 M337.6,645
	c-1.2,3.6-0.8,9.2,3.5,10.6c2.9,0.6,8.1,0.9,7.7-3.4c-2.2,0.5-4.6,2-6.7,0.4c-1.7-0.8-1.5-3-2-4.5c3.1,0.4,6.4,0.9,9.2-0.8
	c3-1.3,4.3-5.8,1.4-8C345.8,636.6,339.1,639.7,337.6,645z"/>
<path d="M390.3,630.4c1.4-0.7,3.1-0.4,4.7-0.5c71.3,0,142.7,0,214,0c1.8,0.3,5.5-0.8,5.5,2c0.1,9.6,0,19.3,0,29
	c0.4,2.2-1.9,2.3-3.4,2.2c-72.7,0-145.4,0-218.1,0c-1.4,0.1-3.6-0.2-3.3-2.1c0-10-0.2-20,0.1-30L390.3,630.4 M506.8,635.1
	c1,0.4,2,2,3.2,1.1c2.1-0.7,1.1-4.1-0.9-3.6C507.5,632.4,507.4,634.1,506.8,635.1 M527,632.1c-0.5,2.7-1,5.3-1.4,8
	c-1.6-1.1-3.6-2.2-5.6-1.4c-5.8,1.3-8.3,8.7-6.2,13.8c1.6,3.1,6,3.2,8.7,1.5c1,0.7,2.1,1,3.4,1c1.4-7.6,2.7-15.3,4-22.9
	C529.2,632.1,527.8,632.1,527,632.1 M535.5,632.5c-2.8,0.1-2.1,4.7,0.5,3.9C538.5,636,537.8,632.3,535.5,632.5 M440.8,654.9
	c0.8,0,2.5,0,3.3,0c0.6-3.5,1.2-7,1.9-10.5c3.1,0,6.2,0,9.4,0c-0.6,3.5-1.3,7-1.9,10.5c1.1,0,2.2,0,3.3,0c1.3-7.3,2.6-14.7,3.9-22
	c-0.8,0-2.5,0-3.3,0c-0.5,2.9-1,5.8-1.5,8.8c-3.2,0-6.4,0-9.5,0c0.5-3,1.1-5.9,1.6-8.9c-0.8,0.1-2.3,0.2-3.1,0.2
	C443.2,640.2,442.1,647.6,440.8,654.9 M544.3,635.4c-0.2,1-0.4,2-0.6,3c-1.5,0.2-2.3,1.1-2.6,2.6l2.1,0.1c-0.6,3.7-2,7.3-2,11
	c0.5,3.7,4.9,3,7.6,2.8c0.1-0.7,0.2-2,0.2-2.6c-1.6,0.1-4,0.9-4.7-1.3c0.2-3.4,1.2-6.6,1.8-9.9c1.5,0,2.9,0,4.4,0
	c0.1-0.6,0.4-1.8,0.5-2.4c-1.5,0-2.9,0-4.4,0c0.3-1.6,0.7-3.2,1.1-4.7C546.8,634.4,545.1,635.1,544.3,635.4 M463.4,638.9
	c-0.8,4.3-2.1,8.7-2,13.2c0.9,4.5,7,3.5,9.6,1.1l-0.4,1.7c0.8,0,2.4,0,3.2,0c0.9-5.4,2-10.8,2.9-16.2c-0.8,0.1-2.3,0.2-3.1,0.2
	c-1.1,3.7-1,7.7-2.5,11.3c-1.1,2.3-5.6,3.8-6.5,0.7c0.1-4.1,1.3-8.1,1.8-12.2C465.7,638.7,464.2,638.8,463.4,638.9 M480,639.1
	c0.2,5.3-1.3,10.5-2,15.8c0.8,0,2.3,0,3.1,0c0.8-3.9,1.2-7.9,2.2-11.7c1.1-2,3.5-2.2,5.6-1.8c0.8,4.6-1.1,9-1.6,13.6
	c0.8,0,2.4,0,3.2,0c0.7-3.8,1.2-7.7,2.1-11.4c0.6-2.9,6.1-3.4,5.9,0.2c-0.5,3.8-1.3,7.5-1.9,11.3c0.8,0,2.3,0,3.1,0
	c0.6-4.3,1.8-8.5,2-12.8c-0.4-4.6-6.3-4.2-9-1.9c-2.8-2.2-6.8-2.2-9.5,0.1c-0.1-0.5-0.2-1.5-0.3-2C482,638.5,480.6,638.9,480,639.1
	 M504.5,641.2c0.6,0,1.8,0.1,2.4,0.1c-0.8,4.5-1.6,9.1-2.4,13.6c0.7,0,2.2,0,3,0c1-5.4,2-10.8,3-16.2
	C508.1,639,504.5,637.7,504.5,641.2 M531.3,641.3c0.5,0,1.6,0,2.1,0c-0.8,4.5-1.6,9.1-2.4,13.6c0.8,0,2.3,0,3.1,0
	c0.9-5.4,1.9-10.8,2.8-16.1c-1.7,0-3.4,0-5,0C531.6,639.6,531.4,640.4,531.3,641.3 M552.5,638.7c0.7,4.3,1.3,8.6,2.1,12.8
	c0.2,1.7,1.6,2.8,2.6,4c-1.3,1.8-3.4,2.5-5.6,2.7c0,0.8,0,2.2,0,3c2.6-0.4,5.9-0.6,7.2-3.3c3.2-6.3,5.8-12.9,8.8-19.3
	c-0.8,0-2.5,0-3.3,0c-2,4.5-3.8,9.1-6,13.6c-1.8-4.3-1.8-9.1-2.6-13.6C554.9,638.8,553.3,638.7,552.5,638.7z"/>
<path d="M185.7,645.7c1.2-2.1,2.6-4.6,5.3-4.7c1.8-0.3,3.1,0.7,3.7,2.3C192.9,646.5,188.9,646.4,185.7,645.7z"/>
<path d="M234.2,641.1c1.8-0.4,4.1,0.5,4.5,2.4c1.2,4-0.9,9.7-5.6,10c-1.6,0.2-4.5-0.1-3.7-2.4C230.3,647.6,229.3,641.8,234.2,641.1z
	"/>
<path d="M251.4,641.5c1.9-0.9,5.1-1,5.4,1.7c-1.5,3.5-5.9,3.1-8.9,2.4C248.8,644.1,249.6,642.2,251.4,641.5z"/>
<path d="M282.1,641.2c1.3-0.3,4-1,4.6,0.7c-0.4,3.2-1,6.5-2.5,9.4c-1,2-4.1,3.3-5.9,1.5C276.5,648.7,278.3,643.3,282.1,641.2z"/>
<path d="M344.4,641.3c1.8-0.7,4.9-0.7,5.1,1.9c-1.4,3.5-5.8,3-8.8,2.5C341.6,644,342.5,642.1,344.4,641.3z"/>
<path d="M520.2,641.3c1.8-0.9,4.2-0.4,4.8,1.7c-0.2,2.9-0.5,6.2-2.5,8.5c-1.4,1.6-4.7,2-5.7-0.2
	C515.2,647.8,516.5,642.8,520.2,641.3z"/>
<path d="M166.8,698c-0.4-2.3,3.4-2.9,4-0.8c0.3,8.8,0,17.7,0.1,26.6c4.3,1.6,6.8,7.1,4.1,11.1c-2.7,4.9-10.9,4.3-12.9-0.9
	c-2-4.1,0.7-8.6,4.6-10.2C166.8,715.2,166.7,706.6,166.8,698z"/>
<path d="M287.3,1085c6.1,0.2,12.3-0.6,18.4,0.6c7.6,2.4,8.1,14.6,1.1,18.1c-4.1,1.8-8.7,1.1-13,1.3c0,4,0,8,0,12c-2.1,0-4.3,0-6.4,0
	C287.3,1106.3,287.3,1095.7,287.3,1085 M293.7,1090.5c0,3,0,6,0,9c3-0.1,6.2,0.4,9-0.7c3-1.4,3-6.2,0-7.6
	C299.9,1090.1,296.7,1090.6,293.7,1090.5z"/>
<path d="M318.6,1085c3.2,0,6.5,0,9.7,0c2,7.3,3.8,14.6,5.8,21.8c1.9-7.3,3.8-14.6,5.7-21.8c3.2,0,6.5,0,9.7,0c0,10.7,0,21.3,0,32
	c-2,0-4,0-6,0c-0.1-8.4-0.2-16.8-0.2-25.2c-2.1,8.4-4.1,16.8-6.2,25.2c-2.1,0-4.1,0-6.2,0c-2-8-3.7-16.1-5.9-24
	c-0.4,8-0.2,16-0.3,24c-2,0-4.1,0-6.1,0.1C318.6,1106.3,318.6,1095.7,318.6,1085z"/>
<path d="M361.3,1087.2c5.6-4.5,16.7-2.3,17.2,5.8c0.5,8.3-7.9,12.3-12.5,17.9c4.2,0.1,8.4,0.1,12.5,0.1c0,2,0,4,0,6
	c-7.2,0-14.4,0.1-21.6-0.1c1.3-8.1,8.9-12.5,13.8-18.2c2.4-2.4,2.2-7.8-1.8-8.2c-3.2-0.8-5,2.3-5.3,4.9c-2-0.2-4-0.4-6-0.6
	C358.3,1092.1,358.9,1089,361.3,1087.2z"/>
<path d="M436.6,1085c3.2,0,6.4,0,9.7,0c2,7.3,3.9,14.6,5.8,21.9c1.9-7.3,3.8-14.6,5.7-21.8c3.2,0,6.5,0,9.7,0.1
	c-0.1,10.6,0,21.3,0,31.9c-2,0-4,0-6,0c-0.1-8.4-0.2-16.8-0.2-25.2c-2.1,8.4-4.1,16.8-6.2,25.2c-2.1,0-4.1,0-6.2,0
	c-2-8.1-3.7-16.2-6-24.2c-0.3,8-0.2,16.1-0.3,24.2c-2,0-4,0-6,0C436.6,1106.3,436.6,1095.7,436.6,1085z"/>
<path d="M400.7,1103.2c1.1-5.9,2.1-11.8,3.1-17.7c5.4,0,10.8,0,16.1,0c0,2,0,4,0,6c-3.9,0-7.7,0-11.5,0c-0.3,1.8-0.7,3.5-1,5.3
	c3.6-1.3,8.1-1.1,10.9,1.9c5.9,5.6,2.8,17.2-5.4,18.6c-6.3,1.7-12.7-3.2-13-9.6c1.9-0.2,3.9-0.4,5.9-0.6c0.8,2.3,2.2,5.4,5.2,4.9
	c5.1-0.3,5.8-8.9,1-10.3c-2.5-0.9-4.7,0.8-6.6,2.2C403.9,1103.7,402.3,1103.4,400.7,1103.2z"/>
<path d="M536.2,1086.5c2,0,4.1,0,6.1,0c0,1.8,0,3.7,0,5.5c-2,0-4.1,0-6.1,0C536.2,1090.1,536.2,1088.3,536.2,1086.5z"/>
<path d="M552.4,1089.1c2.1-1.2,4.1-2.4,6.2-3.6c0,2.7,0,5.3,0,8c1.4,0,2.8,0,4.1,0c0,1.5,0,3,0,4.5c-1.4,0-2.8,0-4.2,0
	c0.1,4.6-0.3,9.3,0.2,13.9c0.3,1.8,2.8,0.5,4,0.7c0.1,1.4,0.2,2.8,0.4,4.2c-3.4,0.8-9,1.5-10.3-2.8c-1-5.3-0.3-10.7-0.5-16
	c-0.7,0-2,0-2.7-0.1c0-1.5,0-3,0-4.4c0.7,0,2.1-0.1,2.8-0.1C552.4,1092,552.4,1090.5,552.4,1089.1z"/>
<path d="M483.5,1093.7c5.3-1.9,12,0.2,14.6,5.3c3.1,5.8,1.3,14.2-4.8,17.3c-4.2,2.2-9.6,1.6-13.4-1.2
	C473.1,1109.4,474.8,1096.3,483.5,1093.7 M485.2,1098.1c-5.2,3.3-4.4,14.7,2.7,14.9c4.7-0.4,6-6.1,5.2-10
	C493,1099.3,488.8,1096,485.2,1098.1z"/>
<path d="M505.1,1093.5c1.9,0,3.8,0,5.7,0c0,0.8,0,2.3-0.1,3.1c3.7-4.5,12.4-5.3,14.9,0.7c1.3,6.5,0.3,13.1,0.6,19.7
	c-2.1,0-4.1,0-6.2,0c-0.2-5.6,0.4-11.2-0.3-16.8c-0.8-4.2-7.1-3.1-7.9,0.5c-1,5.3-0.3,10.8-0.5,16.3c-2.1,0-4.1,0-6.2,0
	C505.1,1109.2,505.1,1101.3,505.1,1093.5z"/>
<path d="M574.4,1093.5c7.5-2.7,16.2,3.4,15.7,11.5c0.7,8.2-8.3,14.9-16,11.8C563.5,1114,563.8,1096.3,574.4,1093.5 M575.3,1098.4
	c-3.2,2.4-3.2,7-2.3,10.6c0.8,3,4.5,5.2,7.4,3.5c3.7-2.2,3.8-7.3,2.8-11C582.4,1098.2,578.2,1096.2,575.3,1098.4z"/>
<path d="M601.4,1096.7c1.3-1.4,2.4-3.3,4.5-3.6c1.7-0.4,3.4,0.6,5,0.9c-0.6,1.9-1.3,3.8-1.9,5.8c-2-0.8-5.1-1.4-6,1.3
	c-1.6,5.1-0.7,10.7-1,16c-2.1,0-4.1,0-6.2,0c0-7.8,0-15.7,0-23.5c1.9,0,3.8,0,5.7,0C601.6,1094.3,601.5,1095.9,601.4,1096.7z"/>
<path d="M536.2,1095c2,0,4.1,0,6.1,0c0,7.8,0,15.7,0,23.5c-2,0-4.1,0-6.1,0C536.2,1110.7,536.2,1102.8,536.2,1095z"/>
<path d="M385.2,1111c2,0,4.1,0,6.1,0c0,2,0,4,0,6c-2,0-4.1,0-6.1,0C385.2,1115,385.2,1113,385.2,1111z"/>
<path d="M396.9,1205c-0.3-1.9,0.9-3.8,3-3.6c5.1-0.1,10.1-0.2,15.2,0c3.6,0.1,6.1,2.8,8.6,5c5.7,5,11.3,10.2,17.1,15.1
	c6.7-5.9,13.3-11.9,20-17.7c3-2.8,7.4-2.5,11.2-2.5c3.5,0.1,7.1-0.2,10.7,0.2c2.1,0.3,2,2.9,2.1,4.5c0,10.7,0,21.4,0,32.1
	c-0.1,1.5,0.2,4-1.9,4.2c-2.9,0.4-5.9,0.2-8.8,0.2c-8.9-0.2-17.8,0.4-26.6-0.4c2.2-3.9,6.1-6.5,9.4-9.3c4.7-1.5,10.1,0.8,14.7-1.2
	c0.5-6.6,0.2-13.3,0.1-19.9c-2.8,1.3-4.9,3.6-7.1,5.6c-8.1,7.3-16.2,14.5-24.4,21.7c-2,1.8-4.4,3.2-7.2,3.2
	c-4.9,0.1-9.8,0.2-14.7-0.2c4-4.4,8.8-8,13.1-12.1c-7.1-6.1-13.7-12.9-21.2-18.5c-0.2,6.9-0.2,13.7,0,20.6c3.1,0.3,6.3-0.1,9.4,0.6
	c0.2,1.6-1.4,2.4-2.3,3.4c-2.4,2.1-4.6,4.4-7.3,6.1c-3.9,0.3-7.9,0.4-11.8-0.2c-1.5-0.8-1.1-2.7-1.2-4.1
	C396.9,1227,396.8,1216,396.9,1205z"/>
<path d="M337.2,1255.2c2.2-0.1,4.5-0.3,6.7,0c2.5,1.1,4.2,3.4,6.3,5.1c2-1.7,3.8-3.6,6.1-5c2.3-0.4,4.6-0.2,7-0.3
	c1.1,6.1,0.3,12.3,0.4,18.5c-2.1-0.1-4.9,1.2-6.4-0.6c-0.3-3.5-0.1-7-0.1-10.4c-2.2,2.1-4.5,4.2-7,5.9c-2.2-2-4.4-4-6.6-5.9
	c0,3.5,0.2,6.9-0.1,10.4c-0.6,1.7-3,0.7-4.4,0.9c-1.4,0.2-2-0.4-2-1.8C336.9,1266.5,336.6,1260.8,337.2,1255.2z"/>
<path d="M368.3,1255.4c8.1-0.3,16.3-0.1,24.5-0.1c0,1.6,0,3.1,0,4.7c-6.5,0.2-13,0-19.5,0.2c-0.1,2.9-0.1,5.8,0,8.7
	c6.5,0.4,13,0,19.5,0.2c0,1.5,0,3.1,0,4.7c-6.6,0.3-13.3,0.1-19.9,0.2c-2.1,0.1-4.2-0.2-6.2-0.7c0.1-5.8-0.5-11.6,0.3-17.3
	C367.4,1255.9,368,1255.6,368.3,1255.4z"/>
<path d="M396.5,1255.6c6.1-0.8,12.4-0.1,18.6-0.4c2.2,0.2,4.8-0.5,6.9,0.8c0.5,4.6,0.1,9.3,0.3,14c-0.1,1.3,0.3,3.1-1.3,3.8
	c-4.9,0.5-9.9,0.1-14.9,0.2c-3.2-0.1-6.5,0.3-9.6-0.4c-1.3-1.1-0.6-3.1-0.9-4.5c0.2-4.4-0.3-8.8,0.3-13.1L396.5,1255.6 M402,1260.2
	c0,3,0,5.9,0,8.9c4.6,0.1,9.1,0,13.7,0c0-3,0-6,0-9C411.2,1260.1,406.6,1260.1,402,1260.2z"/>
<path d="M429.1,1255.8c2-0.5,4.3-1,6.3-0.1c0.8,3.1,0.3,6.4,0.4,9.6c4.5,0,9.1,0,13.6,0c0.1-3.2-0.4-6.4,0.4-9.5
	c1.5-0.8,3.4-0.5,5-0.4c1.6,0.5,0.9,2.4,1.1,3.6c-0.2,4.9,0.3,9.8-0.3,14.6c-1.8,0.8-3.9,0.3-5.8,0.5c-0.2-1.3-0.4-2.6-0.6-3.9
	c-4.4,0-8.9,0-13.3,0c-0.2,1.3-0.4,2.6-0.6,3.9c-1.9-0.2-4.1,0.5-5.8-0.5C428.6,1267.7,429.4,1261.7,429.1,1255.8z"/>
<path d="M460.3,1255.5c7.2-0.5,14.5-0.1,21.8-0.2c1.3,0,3.7,0,3.6,1.9c0.1,5.2,0.2,10.4-0.1,15.5c-0.7,1.9-3.1,1.1-4.6,1.4
	c-6.7-0.1-13.4,0.2-20-0.2c-1.5,0-2-1.6-1.8-2.8c0-4.9-0.3-9.9,0.2-14.8C459.6,1256.1,460,1255.7,460.3,1255.5 M465.7,1260.2
	c-0.1,2.9-0.1,5.8,0,8.8c4.5,0,9,0,13.5,0c0-2.9,0-5.8,0-8.7C474.7,1260.2,470.2,1260.2,465.7,1260.2z"/>
<path d="M490,1255.2c2.2-0.3,4.5-0.4,6.7,0.2c2.2,1.4,4,3.3,6,5c1.9-1.7,3.6-3.6,5.7-5c2.5-0.8,5.1-0.3,7.6,0.2
	c-0.1,5.9-0.1,11.9,0,17.8c-2.1,0.2-4.5,1.1-6.4-0.2c-0.6-3.5-0.2-7.1-0.2-10.7c-2.4,1.7-4.2,5.1-7.3,5.5c-2.3-1.7-4.2-3.7-6.3-5.5
	c-0.1,3.6,0.2,7.2-0.2,10.8c-1.9,0.8-4.1,0.6-6.1,0.1c-0.5-4.8-0.1-9.7-0.2-14.6C489.4,1257.8,488.8,1256,490,1255.2z"/>
<path d="M519.5,1257.1c0-1.8,2.1-1.9,3.5-1.9c7.6,0.1,15.1-0.2,22.7,0.2c-0.3,1.4,0.5,3.6-0.7,4.5c-6.2,0.5-12.4-0.2-18.6,0.3
	c-0.2,0.5-0.5,1.4-0.7,1.9c6.6,0.1,13.3-0.1,19.9,0.2c0,1.5,0,3,0,4.5c-6.6,0.5-13.3,0.1-19.9,0.3c0.2,0.4,0.5,1.3,0.7,1.8
	c6.4,0.5,12.8-0.1,19.2,0.3c0,1.5,0,3,0,4.5c-7.2,0.4-14.4,0.1-21.6,0.2c-1.7-0.1-4.6,0.3-4.5-2.1
	C519.3,1267,519.2,1262,519.5,1257.1z"/>
</svg>
