<?xml version="1.0" encoding="utf-8"?>
<!-- Generator: Adobe Illustrator 21.1.0, SVG Export Plug-In . SVG Version: 6.00 Build 0)  -->
<svg version="1.1" id="Laag_1" xmlns="http://www.w3.org/2000/svg" xmlns:xlink="http://www.w3.org/1999/xlink" x="0px" y="0px"
	 viewBox="0 0 876.3 1353.1" style="enable-background:new 0 0 876.3 1353.1;" xml:space="preserve">
<style type="text/css">
	.st0{font-family:'Arial-BoldMT';}
	.st1{font-size:42.9313px;}
	.st2{fill:none;stroke:#000000;stroke-width:1.4173;stroke-linecap:round;stroke-linejoin:round;stroke-miterlimit:10;}
	.st3{fill:none;stroke:#000000;stroke-width:3;stroke-linecap:round;stroke-linejoin:round;stroke-miterlimit:10;}
	.st4{stroke:#000000;stroke-width:1.4173;stroke-linecap:round;stroke-linejoin:round;stroke-miterlimit:10;}
	.st5{fill:#FFFFFF;}
	.st6{display:none;}
	.st7{display:inline;fill:#FFFFFF;}
	.st8{fill:#0078CC;stroke:#000000;stroke-miterlimit:10;}
</style>
<g id="MTEXT">
	<text transform="matrix(1 0 0 1 272.5791 1072.4468)" class="st0 st1">P</text>
</g>
<g id="MTEXT_1_">
	<text transform="matrix(1 0 0 1 303.0591 1072.4468)" class="st0 st1">M</text>
</g>
<g id="MTEXT_2_">
	<text transform="matrix(1 0 0 1 341.9715 1072.4468)" class="st0 st1">2</text>
</g>
<g id="MTEXT_3_">
	<text transform="matrix(1 0 0 1 366.5591 1072.4468)" class="st0 st1">.</text>
</g>
<g id="MTEXT_4_">
	<text transform="matrix(1 0 0 1 381.9765 1072.4468)" class="st0 st1">5</text>
</g>
<g id="MTEXT_5_">
	<text transform="matrix(1 0 0 1 416.0891 1072.4468)" class="st0 st1">M</text>
</g>
<g id="MTEXT_6_">
	<text transform="matrix(1 0 0 1 455.0015 1072.4468)" class="st0 st1">o</text>
</g>
<g id="MTEXT_7_">
	<text transform="matrix(1 0 0 1 482.1291 1072.4468)" class="st0 st1">n</text>
</g>
<g id="MTEXT_8_">
	<text transform="matrix(1 0 0 1 511.5165 1073.8943)" class="st0 st1">i</text>
</g>
<g id="MTEXT_9_">
	<text transform="matrix(1 0 0 1 526.9339 1072.4468)" class="st0 st1">t</text>
</g>
<g id="MTEXT_10_">
	<text transform="matrix(1 0 0 1 541.9965 1072.4468)" class="st0 st1">o</text>
</g>
<g id="MTEXT_11_">
	<text transform="matrix(1 0 0 1 569.1241 1072.4468)" class="st0 st1">r</text>
</g>
<g id="SPLINE">
	<path class="st2" d="M119.6,1.5V0.9V1.5z"/>
</g>
<g id="SPLINE_1_">
	<path class="st2" d="M119.6,1351.6v-0.6V1351.6z"/>
</g>
<g id="SPLINE_2_">
	<path class="st2" d="M861.3,1237.9L861.3,1237.9z"/>
</g>
<g id="SPLINE_3_">
	<path class="st2" d="M1.5,1234.1c0-0.6,0-0.6,0-0.6S1.5,1233.4,1.5,1234.1z"/>
</g>
<g id="SPLINE_4_">
	<path class="st2" d="M136.1,731.2L136.1,731.2z"/>
</g>
<g id="LWPOLYLINE">
	<line class="st3" x1="119.6" y1="1351.6" x2="742.6" y2="1351.6"/>
</g>
<g id="LWPOLYLINE_1_">
	<line class="st3" x1="119.6" y1="1341.4" x2="742.6" y2="1341.4"/>
</g>
<g id="LWPOLYLINE_2_">
	<line class="st3" x1="1.5" y1="114.6" x2="1.5" y2="1237.9"/>
</g>
<g id="LWPOLYLINE_3_">
	<line class="st3" x1="11" y1="114.6" x2="11" y2="1237.9"/>
</g>
<g id="LWPOLYLINE_4_">
	<line class="st3" x1="851.1" y1="1237.9" x2="851.1" y2="114.6"/>
</g>
<g id="LWPOLYLINE_5_">
	<line class="st3" x1="861.3" y1="1237.9" x2="861.3" y2="114.6"/>
</g>
<g id="LWPOLYLINE_6_">
	<line class="st3" x1="742.6" y1="11.1" x2="119.6" y2="11.1"/>
</g>
<g id="LWPOLYLINE_7_">
	<line class="st3" x1="742.6" y1="1.5" x2="119.6" y2="1.5"/>
</g>
<g id="SPLINE_5_">
	<path class="st3" d="M119.6,1.5c-15.2,0-31.1,2.5-45.1,8.3c-14.6,5.7-27.3,14-38.7,24.8C25,45.4,16.1,57.4,10.4,71.4
		S1.5,100,1.5,114.6"/>
</g>
<g id="SPLINE_6_">
	<path class="st3" d="M861.3,114.6c0-14.6-3.2-29.2-8.9-43.2s-14.6-26-26-36.8c-10.8-10.8-24.1-19.1-38.1-24.8
		c-14.6-5.7-29.8-8.3-45.7-8.3"/>
</g>
<g id="SPLINE_7_">
	<path class="st3" d="M1.5,1237.9c0,14.6,3.2,29.8,8.9,43.2c5.7,14,14.6,26.7,25.4,36.8c11.4,10.8,24.1,19.1,38.7,24.8
		c14,5.7,29.8,8.9,45.1,8.9"/>
</g>
<g id="SPLINE_8_">
	<path class="st3" d="M742.6,1351.6c15.9,0,31.1-3.2,45.7-8.9c14-5.7,27.3-14,38.1-24.8c11.4-10.2,20.3-22.9,26-36.8
		c5.7-13.3,8.9-28.6,8.9-43.2"/>
</g>
<g id="SPLINE_9_">
	<path class="st3" d="M11,1237.9c0,6.3,0.6,12.7,1.9,19c1.9,7,3.8,13.3,6.3,19.1c2.5,6.3,5.7,12.1,9.5,17.8
		c3.8,5.7,8.3,11.4,13.3,15.9c5.1,5.1,10.2,9.5,15.9,13.3c6.4,3.8,12.7,7.6,19,10.2c7,2.5,14,4.4,21,6.3c7.6,1.3,14.6,1.9,21.6,1.9"
		/>
</g>
<g id="SPLINE_10_">
	<path class="st3" d="M119.6,11.1c-7,0-14,0.6-21.6,2.5c-7,1.3-14,3.2-21,5.7c-6.3,3.2-12.7,6.4-18.4,10.2
		c-6.3,3.8-11.4,8.3-16.5,13.3S32.6,53,28.8,58.7s-7,11.4-9.5,17.8c-2.6,6.3-4.5,12.7-6.4,19c-1.3,6.3-1.9,12.7-1.9,19.1"/>
</g>
<g id="SPLINE_11_">
	<path class="st3" d="M851.1,114.6c0-6.4-0.6-12.7-1.9-19.1s-3.2-12.7-5.7-19.1c-2.5-6.3-5.7-12.1-9.5-17.8s-8.3-10.8-13.3-15.9
		c-5.1-5.1-10.2-9.5-16.5-13.3c-5.7-3.8-12.1-7-19-10.2c-6.3-2.5-13.3-4.4-20.3-5.7c-7.6-1.9-14.6-2.5-22.2-2.5"/>
</g>
<g id="SPLINE_12_">
	<path class="st3" d="M742.6,1341.4c7.6,0,14.6-0.6,21.6-1.9c7.6-1.9,14.6-3.8,21-6.3c7-2.5,13.3-6.4,19-10.2
		c6.4-3.8,11.4-8.3,16.5-13.3c5.1-4.4,9.5-10.2,13.3-15.9c3.8-5.7,7-11.4,9.5-17.8c2.5-5.7,4.4-12.1,5.7-19.1
		c1.3-6.3,1.9-12.7,1.9-19"/>
</g>
<g id="LWPOLYLINE_10_">
	<polyline class="st4" points="726,191.4 726,731.2 136.1,731.2 	"/>
</g>
<g id="LWPOLYLINE_11_">
	<polyline class="st4" points="726,191.4 136.1,191.4 136.1,731.2 	"/>
</g>
<g id="LWPOLYLINE_12_">
	<path class="st5" d="M455.2,480.3l-2.9,32.6l4.4,4.3h0.4l7.6-5.9l2.4-27.8l-6.5-13.2c-3,2-4.9,5.3-5.3,8.8
		C455.3,479.4,455.2,479.9,455.2,480.3z"/>
</g>
<g id="LWPOLYLINE_13_">
	<path class="st5" d="M430.1,473.5l-8.5,12.6l-2.3,26.5l5.9,5.5h0.4l5.9-4.8l2.6-29.6C434.4,479.8,432.9,476,430.1,473.5z"/>
</g>
<g id="LWPOLYLINE_14_">
	<path class="st5" d="M371.1,480.3l-2.9,32.6l4.4,4.3h0.4l7.6-5.9l2.4-27.8l-6.5-13.2c-3,2-4.9,5.3-5.3,8.8
		C371.2,479.4,371.1,479.9,371.1,480.3z"/>
</g>
<g id="LWPOLYLINE_15_">
	<path class="st5" d="M346,473.5l-8.5,12.6l-2.3,26.5l5.9,5.5h0.4l5.9-4.8l2.6-29.6C350.4,479.8,348.9,476,346,473.5z"/>
</g>
<g id="LWPOLYLINE_16_">
	<path class="st5" d="M287.1,480.3l-2.9,32.6l4.4,4.3h0.4l7.6-5.9l2.4-27.8l-6.5-13.2c-3,2-4.9,5.3-5.3,8.8
		C287.2,479.4,287.1,479.9,287.1,480.3z"/>
</g>
<g id="LWPOLYLINE_17_">
	<path class="st5" d="M262,473.5l-8.5,12.6l-2.3,26.5l5.9,5.5h0.4l5.9-4.8l2.6-29.6C266.3,479.8,264.8,476,262,473.5z"/>
</g>
<g id="LWPOLYLINE_18_">
	<path class="st5" d="M514.1,473.5l-8.5,12.6l-2.3,26.5l5.9,5.5h0.4l5.9-4.8l2.6-29.6C518.5,479.8,517,476,514.1,473.5z"/>
</g>
<g id="LWPOLYLINE_19_">
	<path class="st5" d="M505.7,652.8c-0.5,0-1.1,0.1-1.6,0.2l3.7,7.6h21.5l4.7-7c-1-0.5-2.2-0.7-3.3-0.7L505.7,652.8L505.7,652.8z"/>
</g>
<g id="LWPOLYLINE_20_">
	<path class="st5" d="M523.7,712.1h-21.3l-4.3,7.4c0.9,0.4,1.9,0.6,2.9,0.6h25c0.7,0,1.4-0.1,2-0.3L523.7,712.1z"/>
</g>
<g id="LWPOLYLINE_21_">
	<path class="st5" d="M592.6,606.7c0-2.5-2-4.5-4.5-4.5H375.9c-2.5,0-4.5,2-4.5,4.5v28c0,2.5,2,4.5,4.5,4.5h212.2
		c2.5,0,4.5-2,4.5-4.5V606.7z"/>
</g>
<g id="LWPOLYLINE_22_">
	<path d="M589.9,606.7c0-1-0.8-1.8-1.8-1.8H375.9c-1,0-1.8,0.8-1.8,1.8v28c0,1,0.8,1.8,1.8,1.8h212.2c1,0,1.8-0.8,1.8-1.8
		L589.9,606.7L589.9,606.7z"/>
</g>
<g id="LWPOLYLINE_23_">
	<polygon class="st5" points="494,617.3 493.2,619 492.8,621 492.6,623.2 492.6,623.7 493,625.8 494,627.4 494.2,627.6 495.8,628.6 
		497.9,628.9 499.2,628.8 501,628.1 502.5,626.9 502.1,628.6 504.8,628.6 508.6,606.9 506,606.9 504.6,614.8 504.5,614.8 
		503.1,613.4 501.2,613 500.1,613 498.2,613.5 496.5,614.4 495,615.8 	"/>
</g>
<g id="LWPOLYLINE_24_">
	<path class="st5" d="M509,524.8l-7.2,5.9l-2.6,29l6.6,11.4c3.1-2,5.2-5.4,5.5-9.1l2.9-32.7l-4.7-4.4H509V524.8z"/>
</g>
<g id="LWPOLYLINE_25_">
	<path class="st5" d="M480.1,685.2l3.7-3l1.8-20.8c0.2-2.5-0.8-5-2.7-6.6l-5.3,7.9l-1.7,18.8C476,681.3,480.1,685.2,480.1,685.2z"/>
</g>
<g id="LWPOLYLINE_26_">
	<path class="st5" d="M497.8,660l-1.9,21.3l3.1,3l4.9-3.8l1.7-19.5l-3.6-7.3C499.7,654.9,498.1,657.3,497.8,660z"/>
</g>
<g id="LWPOLYLINE_27_">
	<path class="st5" d="M227.9,685.2l3.7-3l1.8-20.8c0.2-2.5-0.8-5-2.7-6.6l-5.3,7.9l-1.7,18.8L227.9,685.2z"/>
</g>
<g id="LWPOLYLINE_28_">
	<path class="st5" d="M412.6,668.2l-3.7-9.6l-5.8,15.1c-2,3.2-1.1,7.4,2.1,9.5c3.2,2,7.4,1.1,9.5-2.1c1.4-2.3,1.4-5.1,0-7.4
		l-1.4-3.6C413,669.5,412.7,668.9,412.6,668.2z"/>
</g>
<g id="LWPOLYLINE_29_">
	<path class="st5" d="M413,664.2l-4.1-10.7l-7.3,19.1c-2.6,4-1.4,9.4,2.6,12s9.4,1.4,12-2.6c1.8-2.8,1.8-6.4,0.1-9.2
		c3.3,1.5,7.2,0.1,8.7-3.2c0.9-2,0.8-4.4-0.4-6.3l-5.5-14.4l-5.5,14.4C413.3,663.6,413.1,663.9,413,664.2z"/>
</g>
<g id="LWPOLYLINE_30_">
	<path class="st5" d="M414.3,667.9l0.5,1.3c1.3,2.3,4.2,3.1,6.5,1.8s3.1-4.2,1.8-6.5c0-0.1-0.1-0.2-0.1-0.2l-4-10.4l-4,10.4
		C414.3,665.3,414.1,666.6,414.3,667.9z"/>
</g>
<g id="LWPOLYLINE_31_">
	<path class="st5" d="M245.6,660l-1.9,21.3l3.1,3l4.9-3.8l1.7-19.5l-3.6-7.3C247.4,654.9,245.8,657.3,245.6,660z"/>
</g>
<g id="LWPOLYLINE_32_">
	<path class="st5" d="M284.4,682.1l1.8-20.8c0.2-2.5-0.8-5-2.7-6.6l-5.3,7.9l-1.7,18.8l4.1,3.8L284.4,682.1z"/>
</g>
<g id="LWPOLYLINE_33_">
	<path class="st5" d="M155,653.2v37.3c-6.2,3.9-8.1,12.1-4.2,18.3c3.9,6.2,12.1,8.1,18.3,4.2c6.2-3.9,8.1-12.1,4.2-18.3
		c-1.1-1.7-2.5-3.1-4.2-4.2v-37.3c-0.5-3.9-4-6.7-7.9-6.2C158,647.3,155.4,649.9,155,653.2z"/>
</g>
<g id="LWPOLYLINE_34_">
	<path class="st5" d="M156.6,653.3v38.1c-5.7,3-7.9,10-4.9,15.7s10,7.9,15.7,4.9s7.9-10,4.9-15.7c-1.1-2.1-2.8-3.8-4.9-4.9v-38.1
		c-0.4-3-3.2-5.1-6.2-4.7C158.9,648.9,157,650.8,156.6,653.3z"/>
</g>
<g id="LWPOLYLINE_35_">
	<polygon class="st5" points="318.1,661.5 318.3,662.1 321.3,661.4 321.2,661.1 321,660.5 320.7,659.9 320.4,659.4 320.1,659 
		319.8,658.6 319.5,658.4 319.1,658.1 318.6,657.8 318.1,657.5 317.6,657.3 317.1,657.2 316.5,657.1 315.9,657 315.2,657 314.7,657 
		314.1,657 313.5,657.1 312.9,657.3 312.4,657.5 311.9,657.7 311.4,658 310.9,658.3 310.5,658.7 310.1,659.1 309.8,659.4 
		309.5,659.9 309.2,660.3 308.9,660.8 308.7,661.3 308.6,661.8 308.4,662.4 308.3,663 308.2,663.6 308.2,664.3 308.1,664.9 
		308.2,665.3 308.2,666 308.3,666.6 308.4,667.2 308.5,667.7 308.7,668.3 308.9,668.8 309.1,669.3 309.4,669.7 309.7,670.2 
		310.1,670.6 310.3,670.8 310.8,671.2 311.2,671.5 311.7,671.8 312.2,672.1 312.7,672.3 313.3,672.4 313.8,672.6 314.4,672.6 
		315.1,672.6 315.3,672.6 315.9,672.6 316.5,672.5 317.1,672.4 317.6,672.2 318.2,672 318.6,671.7 319.1,671.4 319.3,671.3 
		319.7,670.9 320,670.5 320.4,670 320.7,669.5 320.9,669 321.2,668.4 321.3,667.8 318.4,666.8 318.2,667.3 318,667.9 317.8,668.4 
		317.5,668.9 317.1,669.3 316.7,669.6 316.2,669.8 315.6,670 315,670 314.8,670 314.2,670 313.7,669.8 313.2,669.6 312.7,669.2 
		312.3,668.8 312.2,668.7 312,668.3 311.8,667.8 311.6,667.3 311.5,666.8 311.4,666.1 311.3,665.5 311.3,664.7 311.3,664.6 
		311.3,663.9 311.4,663.2 311.5,662.6 311.7,662.1 311.8,661.6 312.1,661.2 312.4,660.8 312.5,660.6 312.9,660.3 313.4,660 
		313.9,659.7 314.5,659.6 315.1,659.6 315.6,659.6 316.2,659.7 316.7,660 317.2,660.3 317.5,660.6 317.8,661 	"/>
</g>
<g id="LWPOLYLINE_36_">
	<path class="st5" d="M323.2,700.9l-2.3,1.9l-1.1,12.4l2.4,4.2c1.3-0.8,2.2-2.1,2.3-3.6l1.2-13.1l-1.8-1.7h-0.7V700.9z"/>
</g>
<g id="LWPOLYLINE_37_">
	<polygon class="st5" points="322.6,699.7 319.7,702.1 306.7,702.1 304.2,699.6 307.2,697.3 320.1,697.3 	"/>
</g>
<g id="LWPOLYLINE_38_">
	<path class="st5" d="M319.8,720c0.4,0,0.8-0.1,1.2-0.2l-2.7-4.6h-12.8l-2.6,4.4c0.6,0.2,1.2,0.3,1.8,0.3L319.8,720L319.8,720z"/>
</g>
<g id="LWPOLYLINE_39_">
	<path class="st5" d="M324.5,680.1c-0.6-0.3-1.3-0.4-2-0.4h-15c-0.3,0-0.6,0-0.9,0.1l2.2,4.6h12.9L324.5,680.1z"/>
</g>
<g id="LWPOLYLINE_40_">
	<path class="st5" d="M223.1,719.8l-4.4-7.7h-21.3l-4.3,7.4c0.9,0.4,1.9,0.6,2.9,0.6h25C221.7,720,222.4,719.9,223.1,719.8z"/>
</g>
<g id="LWPOLYLINE_41_">
	<polygon class="st5" points="225.8,686.2 221,690.1 199.3,690.1 195.1,686 200,682.2 221.6,682.2 	"/>
</g>
<g id="LWPOLYLINE_42_">
	<path class="st5" d="M190.1,690.1l-1.9,21.4c-0.2,2.6,0.9,5.2,2.9,6.8l5.2-8.9l1.6-17.7l-4.3-4.3L190.1,690.1z"/>
</g>
<g id="LWPOLYLINE_43_">
	<path d="M160.1,670.1v25c-3.7,1.1-5.8,5-4.7,8.6c1.1,3.7,5,5.8,8.6,4.7c3.7-1.1,5.8-5,4.7-8.6c-0.7-2.3-2.4-4.1-4.7-4.7v-25
		c0-1.1-0.9-2-2-2C161,668.1,160.1,669,160.1,670.1z"/>
</g>
<g id="LWPOLYLINE_44_">
	<path class="st5" d="M242.9,690.1l-1.9,21.4c-0.2,2.6,0.9,5.2,2.9,6.8l5.2-8.9l1.6-17.7l-4.3-4.3L242.9,690.1z"/>
</g>
<g id="LWPOLYLINE_45_">
	<path class="st5" d="M281.7,712.9l1.9-21.8l-3.5-3.3l-4.4,3.6l-1.8,20.7l4,6.9C280.1,717.6,281.5,715.4,281.7,712.9z"/>
</g>
<g id="LWPOLYLINE_46_">
	<path class="st5" d="M302.8,684l-1.1,12.8l1.8,1.8l2.9-2.3l1-11.7l-2.2-4.4C303.9,680.9,302.9,682.4,302.8,684z"/>
</g>
<g id="LWPOLYLINE_47_">
	<path class="st5" d="M271.5,712.1h-21.3l-4.3,7.4c0.9,0.4,1.9,0.6,2.9,0.6h25c0.7,0,1.4-0.1,2-0.3
		C275.9,719.8,271.5,712.1,271.5,712.1z"/>
</g>
<g id="LWPOLYLINE_48_">
	<polygon class="st5" points="293.7,711.9 287.5,711.9 287.1,718.8 293.3,718.8 	"/>
</g>
<g id="LWPOLYLINE_49_">
	<polygon class="st5" points="252.1,690.1 247.9,686 252.8,682.2 274.4,682.2 278.6,686.2 273.8,690.1 	"/>
</g>
<g id="LWPOLYLINE_50_">
	<path class="st5" d="M495.2,690.1l-1.9,21.4c-0.2,2.6,0.9,5.2,2.9,6.8l5.2-8.9l1.6-17.7l-4.3-4.3L495.2,690.1z"/>
</g>
<g id="LWPOLYLINE_51_">
	<path class="st5" d="M479.6,687.7l-4.4,3.6l-1.8,20.7l4,6.9c2.2-1.3,3.6-3.6,3.8-6.1l1.9-21.8L479.6,687.7z"/>
</g>
<g id="LWPOLYLINE_52_">
	<polygon class="st5" points="478.1,686.2 473.3,690.1 451.5,690.1 447.4,686 452.3,682.2 473.9,682.2 	"/>
</g>
<g id="LWPOLYLINE_53_">
	<path class="st5" d="M475.4,719.8l-4.4-7.7h-21.3l-4.3,7.4c0.9,0.4,1.9,0.6,2.9,0.6h25C474,720,474.7,719.9,475.4,719.8z"/>
</g>
<g id="LWPOLYLINE_54_">
	<polygon class="st5" points="337.5,521.3 330.4,527.1 298.6,527.1 292.2,520.8 299.9,514.9 330.6,514.9 	"/>
</g>
<g id="LWPOLYLINE_55_">
	<path class="st5" d="M359.2,602.2H147c-2.5,0-4.5,2-4.5,4.5v28c0,2.5,2,4.5,4.5,4.5h212.2c2.5,0,4.5-2,4.5-4.5v-28
		C363.7,604.2,361.7,602.2,359.2,602.2z"/>
</g>
<g id="LWPOLYLINE_56_">
	<path d="M359.2,604.9H147c-1,0-1.8,0.8-1.8,1.8v28c0,1,0.8,1.8,1.8,1.8h212.2c1,0,1.8-0.8,1.8-1.8v-28
		C361,605.7,360.2,604.9,359.2,604.9z"/>
</g>
<g id="LWPOLYLINE_57_">
	<polygon class="st5" points="313.3,629.4 315,620.1 315.5,618.4 316.7,616.7 317.8,615.9 319.7,615.3 319.8,615.3 321.8,616.1 
		322.6,613.1 321,612.9 319,613.2 317.2,614.2 315.8,615.8 316.2,613.2 313.3,613.2 310.5,629.4 	"/>
</g>
<g id="LWPOLYLINE_58_">
	<path class="st5" d="M291.6,573.5h37.3c1.4,0.1,2.9,0,4.2-0.4l-6.9-11.9h-31.3L288,573C289.2,573.4,290.4,573.5,291.6,573.5z"/>
</g>
<g id="LWPOLYLINE_59_">
	<path class="st5" d="M228.9,653.5c-1-0.5-2.2-0.7-3.3-0.7h-25c-0.5,0-1.1,0.1-1.6,0.2l3.7,7.6h21.5L228.9,653.5z"/>
</g>
<g id="LWPOLYLINE_60_">
	<polygon class="st5" points="228.4,628.2 229.9,626.7 230.9,625.1 231.8,623.2 232.2,621.2 232.4,619 232.4,618.1 231.9,616 
		230.9,614.5 230.4,614.1 228.7,613.2 226.4,613 226,613 223.9,613.5 223.5,613.8 221.8,615 221.6,613 218.7,613.5 218.7,613.6 
		218.9,615.8 218.9,615.9 218.7,618 215.5,635.9 218.4,635.9 219.7,628.6 221.1,629.5 223.2,629.8 224.7,629.7 226.6,629.1 	"/>
</g>
<g id="LWPOLYLINE_61_">
	<polygon points="223.3,616 225.3,615.4 226.7,615.5 228.3,616.4 228.9,617.2 229.4,619.4 229.2,621.6 228.6,623.6 227.6,625.2 
		226.7,626.2 224.9,627.1 222.8,627.4 221.2,627.1 220.1,626.2 221.6,617.3 	"/>
</g>
<g id="LWPOLYLINE_62_">
	<polygon class="st5" points="214.5,618.6 214.7,617.1 214.6,615.9 213.8,614.2 212.4,613.2 210.3,612.9 209.6,612.9 207.4,613.5 
		207,613.7 205.4,615.1 204.8,614.2 203.2,613.2 200.9,612.9 200.1,612.9 198,613.5 197.5,613.7 196,615 195.7,612.9 192.9,613.5 
		193,613.9 193.1,616.1 193.1,617.6 191,629.4 193.9,629.4 196,617.4 196.1,617.4 197.6,616 199.5,615.3 199.7,615.3 201.7,615.9 
		202.4,617.4 202.4,617.9 200.3,629.4 203.3,629.4 205.4,617.4 206.9,615.9 208.9,615.3 209.4,615.4 211.1,616.1 211.6,618 
		211.5,619.2 209.7,629.4 212.6,629.4 	"/>
</g>
<g id="LWPOLYLINE_63_">
	<polygon class="st5" points="178.4,625.3 177.9,623.2 178.1,621.8 179.5,622.3 181.7,622.6 183.4,622.5 185.5,621.9 187.2,621 
		187.9,620.5 189.1,618.9 189.5,616.8 189.2,615.5 188,613.9 186.5,613.2 184.2,612.9 183,612.9 180.9,613.5 179.2,614.3 
		177.6,615.7 176.7,616.7 175.7,618.6 175.1,620.5 174.9,622.7 175,624.1 175.5,626.1 176.3,627.7 177.5,628.8 179.2,629.5 
		181.2,629.7 181.3,629.7 183.3,629.5 185.5,628.9 185.8,626 184.1,626.9 182.2,627.3 180.7,627.1 179,626.2 	"/>
</g>
<g id="LWPOLYLINE_64_">
	<polygon points="182.1,615.6 184,615.3 185.9,615.7 186.6,617.2 186.5,618 185.2,619.4 183.5,620 181.3,620.2 180.6,620.1 
		178.6,619.7 179.3,618.1 180.6,616.6 	"/>
</g>
<g id="LWPOLYLINE_65_">
	<polygon class="st5" points="164.5,629.4 167.9,610 175.2,610 175.7,607.2 158.2,607.2 157.7,610 164.8,610 161.4,629.4 	"/>
</g>
<g id="LWPOLYLINE_66_">
	<polygon class="st5" points="277.1,629.2 276.6,627.2 276.4,625.1 276.5,623.7 278.5,614.2 277.4,613.6 275.4,613.1 272.9,612.9 
		271.2,613 269.3,613.7 267.6,614.8 266.2,616.3 266.1,616.4 265,618.1 264.2,620 263.7,622.1 263.5,624.2 263.5,624.5 263.9,626.7 
		264.9,628.3 266.4,629.4 268.6,629.7 269.5,629.7 271.6,629.2 272,629 273.7,627.8 274.2,629.4 277.1,629.4 	"/>
</g>
<g id="LWPOLYLINE_67_">
	<polygon points="266.8,621.5 267.4,619.5 268.4,617.8 269.1,616.9 270.7,615.6 272.6,615.2 273.8,615.3 275.3,615.9 274.1,621.9 
		274,622 273.3,624.1 272.3,625.8 271.2,626.8 269.4,627.4 268.3,627.2 267,626.2 266.5,624.1 266.5,623.7 	"/>
</g>
<g id="LWPOLYLINE_68_">
	<polygon class="st5" points="253.9,629.4 255.5,620.1 256,618.4 257.3,616.7 258.3,615.9 260.2,615.3 260.4,615.3 262.3,616.1 
		263.1,613.1 261.5,612.9 259.5,613.2 257.8,614.2 256.3,615.8 256.7,613.2 253.9,613.2 251,629.4 	"/>
</g>
<g id="LWPOLYLINE_69_">
	<polygon class="st5" points="238,625.3 237.6,623.2 237.7,621.8 239.2,622.3 241.4,622.6 243.1,622.5 245.1,621.9 246.9,621 
		247.6,620.5 248.8,618.9 249.1,616.8 248.9,615.5 247.7,613.9 246.1,613.2 243.8,612.9 242.6,612.9 240.6,613.5 238.8,614.3 
		237.2,615.7 236.4,616.7 235.4,618.6 234.8,620.5 234.6,622.7 234.6,624.1 235.1,626.1 235.9,627.7 237.2,628.8 238.8,629.5 
		240.9,629.7 241,629.7 242.9,629.5 245.1,628.9 245.5,626 243.8,626.9 241.8,627.3 240.4,627.1 238.7,626.2 	"/>
</g>
<g id="LWPOLYLINE_70_">
	<polygon points="241.8,615.6 243.7,615.3 245.6,615.7 246.3,617.2 246.2,618 244.8,619.4 243.2,620 240.9,620.2 240.2,620.1 
		238.2,619.7 238.9,618.1 240.2,616.6 	"/>
</g>
<g id="LWPOLYLINE_71_">
	<polygon class="st5" points="296.5,623.5 298.4,613.2 295.4,613.2 293.5,623.9 293.3,625.4 293.5,626.9 294.4,628.6 295.2,629.2 
		297.4,629.7 297.9,629.7 300.2,629.4 301.9,628.5 303.2,627.1 302.8,629.4 305.8,629.4 308.8,613.2 305.8,613.2 303.9,623.2 
		303.5,624.4 302.1,626.1 301,626.8 299,627.3 298.7,627.3 296.9,626.6 296.4,624.8 	"/>
</g>
<g id="LWPOLYLINE_72_">
	<polygon class="st5" points="284.9,623.5 286.6,615.4 291.1,615.4 291.5,613.2 287.1,613.2 288.2,608.6 284.9,609.8 284.2,613.2 
		282.3,613.2 281.9,615.4 283.7,615.4 281.8,624.7 281.6,625.7 281.8,626.9 282.6,628.6 283.3,629.2 285.3,629.7 287.5,629.6 
		289.3,629.3 289.4,626.7 289.1,626.9 287,627.3 285.3,626.8 284.7,625 	"/>
</g>
<g id="CIRCLE">
	<path class="st5" d="M305.2,655.2c0-1.4,1.1-2.6,2.6-2.6s2.6,1.1,2.6,2.6c0,1.4-1.1,2.6-2.6,2.6S305.2,656.6,305.2,655.2
		L305.2,655.2z"/>
</g>
<g id="CIRCLE_1_" class="st6">
	<path class="st7" d="M306,655.2c0-0.9,0.8-1.7,1.7-1.7c0.9,0,1.7,0.8,1.7,1.7s-0.8,1.7-1.7,1.7S306,656.1,306,655.2L306,655.2z"/>
</g>
<g id="LWPOLYLINE_73_">
	<path class="st5" d="M278.4,652.8h-25c-0.5,0-1.1,0.1-1.6,0.2l3.7,7.6H277l4.7-7C280.7,653,279.6,652.8,278.4,652.8z"/>
</g>
<g id="LWPOLYLINE_74_">
	<path class="st5" d="M256.8,524.8l-7.2,5.9l-2.6,29l6.6,11.4c3.1-2,5.2-5.4,5.5-9.1l2.9-32.7l-4.7-4.4h-0.5L256.8,524.8
		L256.8,524.8z"/>
</g>
<g id="LWPOLYLINE_75_">
	<path class="st5" d="M288.5,524l6.4,6.3l-2.2,25.2l-9,15.5c-2.7-2-4.1-5.3-3.8-8.6l3-34.3l5.3-4.1L288.5,524L288.5,524z"/>
</g>
<g id="LWPOLYLINE_76_">
	<polygon class="st5" points="442.9,562 432.6,562 432,573.5 442.3,573.5 	"/>
</g>
<g id="LWPOLYLINE_77_">
	<path class="st5" d="M501.3,573.1l-6.9-11.9h-31.3l-6.9,11.8c1.2,0.3,2.4,0.5,3.6,0.5h37.3C498.5,573.6,499.9,573.5,501.3,573.1z"
		/>
</g>
<g id="LWPOLYLINE_78_">
	<path class="st5" d="M417.3,573.1l-6.9-11.9h-31.3l-6.9,11.8c1.2,0.3,2.4,0.5,3.6,0.5h37.3C414.4,573.6,415.9,573.5,417.3,573.1z"
		/>
</g>
<g id="LWPOLYLINE_79_">
	<polygon class="st5" points="327,625.3 326.6,623.2 326.8,621.8 328.2,622.3 330.4,622.6 332.1,622.5 334.2,621.9 335.9,621 
		336.6,620.5 337.8,618.9 338.2,616.8 337.9,615.5 336.7,613.9 335.1,613.2 332.9,612.9 331.6,612.9 329.6,613.5 327.8,614.3 
		326.2,615.7 325.4,616.7 324.4,618.6 323.8,620.5 323.6,622.7 323.7,624.1 324.2,626.1 325,627.7 326.2,628.8 327.9,629.5 
		329.9,629.7 330,629.7 332,629.5 334.2,628.9 334.5,626 332.8,626.9 330.9,627.3 329.4,627.1 327.7,626.2 	"/>
</g>
<g id="LWPOLYLINE_80_">
	<polygon points="330.8,615.6 332.7,615.3 334.6,615.7 335.3,617.2 335.2,618 333.8,619.4 332.2,620 330,620.2 329.3,620.1 
		327.3,619.7 328,618.1 329.2,616.6 	"/>
</g>
<g id="LWPOLYLINE_81_">
	<path class="st5" d="M481.2,653.5c-1-0.5-2.2-0.7-3.3-0.7h-25c-0.5,0-1.1,0.1-1.6,0.2l3.7,7.6h21.5
		C476.5,660.6,481.2,653.5,481.2,653.5z"/>
</g>
<g id="LWPOLYLINE_82_">
	<polygon class="st5" points="472.6,617.3 472.6,617.2 474,615.8 475.9,615.3 476.4,615.3 477.9,616 478.5,617.8 478.3,618.9 
		476.6,628.6 479.4,628.6 481.2,618.3 481.4,616.9 481.2,615.8 480.6,614.2 479.2,613.3 477.2,612.9 476.5,613 474.5,613.5 
		474.1,613.7 472.5,615 472,614.2 470.5,613.3 468.3,612.9 467.5,613 465.5,613.5 465.1,613.7 463.6,615 463.3,612.9 460.6,613.5 
		460.7,613.9 460.9,616.1 460.8,617.4 458.9,628.6 461.7,628.6 463.7,617.3 465.2,615.9 467,615.3 467.2,615.3 469.1,615.8 
		469.7,617.3 469.7,617.7 467.7,628.6 470.6,628.6 	"/>
</g>
<g id="LWPOLYLINE_83_">
	<polygon class="st5" points="446,623.1 447.7,613.2 444.9,613.2 443.1,623.3 442.9,624.8 443.1,626.2 443.9,627.8 444.8,628.5 
		446.8,628.9 447.3,628.9 449.4,628.6 451.1,627.8 452.3,626.5 451.9,628.6 454.8,628.6 457.6,613.2 454.7,613.2 453,622.7 
		452.6,623.9 451.3,625.5 450.2,626.2 448.3,626.6 448,626.6 446.4,625.9 445.8,624.2 	"/>
</g>
<g id="LWPOLYLINE_84_">
	<polygon class="st5" points="427,607.6 423.2,628.6 426.2,628.6 428,618.5 437.2,618.5 435.4,628.6 438.4,628.6 442.1,607.6 
		439.1,607.6 437.7,616 428.4,616 429.9,607.6 	"/>
</g>
<g id="LWPOLYLINE_85_">
	<polygon points="495.7,620.9 496.2,619 497.2,617.3 497.8,616.7 499.5,615.6 501.4,615.3 502.7,615.6 503.7,616.7 504,617.5 
		503.4,621.3 503.4,621.5 502.7,623.6 501.7,625.2 500.7,626.1 498.9,626.7 498.4,626.7 496.8,626.1 495.9,624.7 495.5,622.6 	"/>
</g>
<g id="LWPOLYLINE_86_">
	<polygon class="st5" points="490.1,610.4 490.7,609.1 490.1,607.7 488.8,607.2 487.4,607.7 486.9,609.1 487.4,610.4 488.8,611 	"/>
</g>
<g id="LWPOLYLINE_87_">
	<polygon class="st5" points="487.1,628.6 489.9,613.3 485.1,613.3 484.6,615.5 486.7,615.5 484.4,628.6 	"/>
</g>
<g id="LWPOLYLINE_88_">
	<polygon class="st5" points="421.6,521.3 414.4,527.1 382.7,527.1 376.3,520.8 383.9,514.9 414.7,514.9 	"/>
</g>
<g id="LWPOLYLINE_89_">
	<path class="st5" d="M340.9,524.8l-7.2,5.9l-2.6,29l6.6,11.4c3.1-2,5.2-5.4,5.5-9.1l2.9-32.7l-4.7-4.4L340.9,524.8z"/>
</g>
<g id="LWPOLYLINE_90_">
	<path class="st5" d="M372.6,524l6.4,6.3l-2.2,25.2l-9,15.5c-2.7-2-4.1-5.3-3.8-8.6l3-34.3l5.3-4.1L372.6,524L372.6,524z"/>
</g>
<g id="LWPOLYLINE_91_">
	<path class="st5" d="M456.6,524l6.4,6.3l-2.2,25.2l-9,15.5c-2.7-2-4.1-5.3-3.8-8.6l3-34.3l5.3-4.1C456.2,524,456.6,524,456.6,524z"
		/>
</g>
<g id="LWPOLYLINE_92_">
	<path class="st5" d="M424.9,524.8l-7.2,5.9l-2.6,29l6.6,11.4c3.1-2,5.2-5.4,5.5-9.1l2.9-32.7l-4.7-4.4h-0.5L424.9,524.8
		L424.9,524.8z"/>
</g>
<g id="LWPOLYLINE_93_">
	<path class="st5" d="M536.7,682.1l1.8-20.8c0.2-2.5-0.8-5-2.7-6.6l-5.3,7.9l-1.7,18.8l4.1,3.8L536.7,682.1z"/>
</g>
<g id="LWPOLYLINE_94_">
	<path class="st5" d="M552.4,664.3c0.1-1,0.1-2.1,0-3.1c-0.1-0.6-0.8-1-1.4-0.9c-0.5,0.1-0.8,0.5-0.9,1c-0.1,1-0.1,2,0,3
		c0.3,0.6,1,0.9,1.6,0.7C552,664.8,552.3,664.6,552.4,664.3z"/>
</g>
<g id="LWPOLYLINE_95_">
	<polygon class="st5" points="550.9,675.8 552.4,675.8 559.2,658.5 557.7,658.5 	"/>
</g>
<g id="LWPOLYLINE_96_">
	<path class="st5" d="M553.1,659c-1.2-0.7-2.6-0.7-3.8,0c-0.4,0.3-0.8,0.8-1,1.3c-0.3,1.3-0.3,2.6-0.2,3.8c0.3,1.7,1.9,2.9,3.6,2.7
		c1.3-0.2,2.4-1.2,2.6-2.5c0.1-1.1,0.1-2.2,0-3.3C554.3,660.2,553.8,659.5,553.1,659z"/>
</g>
<g id="LWPOLYLINE_97_">
	<path class="st5" d="M528,691.3l-1.8,20.7l4,6.9c2.2-1.3,3.6-3.6,3.8-6.1l1.9-21.8l-3.5-3.3L528,691.3z"/>
</g>
<g id="LWPOLYLINE_98_">
	<path class="st5" d="M546,710.8c0.7,0.1,1.4-0.3,1.8-0.9l0.2-0.7v-1.6l-0.2-0.5l-0.2-0.2l-0.9-0.5h-2v4.3
		C544.7,710.8,546,710.8,546,710.8z"/>
</g>
<g id="LWPOLYLINE_99_">
	<path class="st5" d="M547.6,713.3l0.2,0.5l0.2,0.7v4.5l0.2,0.7h2.9c-0.4-0.8-0.6-1.6-0.7-2.5v-3c-0.1-0.4-0.3-0.8-0.5-1.1
		c-0.3-0.6-0.8-1.1-1.4-1.4c0.5-0.3,1-0.7,1.4-1.1c0.6-1.4,0.6-3,0.2-4.5c-0.6-1.1-1.7-1.8-2.9-1.8H542v15.4h2.5v-6.8h2
		C546.7,712.9,547.6,713.3,547.6,713.3z"/>
</g>
<g id="LWPOLYLINE_100_">
	<polygon class="st5" points="552.6,719.7 555.1,719.7 555.1,712.6 558.7,712.6 558.7,719.7 561.2,719.7 561.2,704.3 558.7,704.3 
		558.7,710.4 555.1,710.4 555.1,704.3 552.6,704.3 	"/>
</g>
<g id="LWPOLYLINE_101_">
	<path class="st5" d="M555.9,669.3c-0.3,1.3-0.3,2.6-0.2,3.8c0.3,1.7,1.9,2.9,3.6,2.7c1.3-0.2,2.4-1.2,2.6-2.5
		c0.1-1.1,0.1-2.2,0-3.3c-0.1-0.8-0.6-1.5-1.3-2c-1.2-0.7-2.6-0.7-3.8,0C556.5,668.4,556.1,668.8,555.9,669.3z"/>
</g>
<g id="LWPOLYLINE_102_">
	<path class="st5" d="M559.9,673.3c0.1-1,0.1-2.1,0-3.1c-0.1-0.6-0.8-1-1.4-0.9c-0.5,0.1-0.8,0.5-0.9,1c-0.1,1-0.1,2,0,3
		c0.3,0.6,1,0.9,1.6,0.7C559.5,673.9,559.8,673.6,559.9,673.3z"/>
</g>
<g id="LWPOLYLINE_103_">
	<polygon class="st5" points="535.1,628.7 534.7,629.7 533.5,631.1 532,631.7 529.7,631.9 529.7,634.7 531,634.6 533.1,634.3 
		534.6,633.7 534.7,633.7 536.1,632.4 537.2,630.5 544.9,613.2 541.9,613.2 536.3,626.1 536.1,626 535.1,624.4 533.4,613.2 
		530.5,613.2 532.4,624.7 532.8,626.6 533.8,628.2 	"/>
</g>
<g id="LWPOLYLINE_104_">
	<polygon class="st5" points="522.6,623.1 524.2,615.4 528.4,615.4 528.9,613.2 524.7,613.2 525.7,608.8 522.6,610 521.9,613.2 
		520.2,613.2 519.7,615.4 521.5,615.4 519.6,624.1 519.5,625.1 519.6,626.2 520.4,627.9 521,628.4 523,628.9 525.1,628.8 
		526.8,628.5 526.9,626.1 526.6,626.2 524.6,626.6 523,626.1 522.4,624.4 	"/>
</g>
<g id="LWPOLYLINE_105_">
	<polygon class="st5" points="515.6,610.4 516.1,609.1 515.6,607.7 514.2,607.2 512.9,607.7 512.3,609.1 512.9,610.4 514.2,611 	"/>
</g>
<g id="LWPOLYLINE_106_">
	<polygon class="st5" points="512.6,628.6 515.3,613.3 510.6,613.3 510.1,615.5 512.1,615.5 509.8,628.6 	"/>
</g>
<g id="LWPOLYLINE_107_">
	<polygon class="st5" points="547.3,556.9 546.6,559 545.9,560.3 544.6,561.7 544,562.1 542.1,562.6 540.3,562 540.3,562 
		539.1,560.3 539.1,560.2 538.8,558 538.8,557.9 539.2,555.8 539.4,555.1 540.4,553.3 540.5,553.2 542,551.8 543.8,551.3 
		544.7,551.4 546.4,552.4 547,553.3 547.4,555.4 	"/>
</g>
<g id="LWPOLYLINE_108_">
	<polygon class="st5" points="523,561.2 523.2,559.3 525.3,549.6 522.7,549.6 520.9,558.3 520.6,559.9 520.4,561.6 520.4,562.4 
		521.4,564.1 522.3,564.6 524.3,565.1 524.8,565.1 526.5,564.6 528.2,563.6 529.8,562 529.3,564.7 531.7,564.7 534.8,549.6 
		532.2,549.6 530.9,556.1 530.7,557.1 530.2,558.9 530,559.3 528.9,561 528.8,561.2 527.2,562.4 527,562.5 525,563 523.5,562.5 	"/>
</g>
<g id="LWPOLYLINE_109_">
	<polygon class="st5" points="538,563.2 539.6,564.3 541.6,564.7 542.4,564.7 544.1,564 545.9,562.7 545.6,563.9 545,566 
		544.4,567.5 543.1,568.3 541,568.6 539.2,568.3 538.4,567.6 538.2,566.3 535.6,566.1 535.5,566.9 535.5,567.1 536.2,568.9 
		536.4,569.2 538.1,570.3 539.2,570.6 541.3,570.8 542.7,570.6 544.6,570.1 545.5,569.5 546.9,568 547.6,566.4 548.2,564.2 
		551.2,549.6 548.9,549.6 548.4,552.1 547.3,550.6 545.7,549.6 543.8,549.2 542.2,549.4 540.3,550.3 540.1,550.5 538.6,551.8 
		537.4,553.6 537.1,554.3 536.4,556.2 536.2,558.3 536.3,559.5 536.8,561.5 537.7,563 	"/>
</g>
<g id="LWPOLYLINE_110_">
	<polygon class="st5" points="585.6,553.5 586.9,554.1 588.4,554.3 589,554.3 590.4,553.8 591.5,553 591.9,552.5 592.6,551.3 
		592.8,549.9 592.8,549.8 592.5,548.4 592.4,548.3 591.3,547.4 591.9,547 592.9,546 593.2,545.6 593.5,544.2 593.3,543 592.5,541.8 
		591.3,541.1 589.9,540.8 588.4,541 587.2,541.7 587.1,541.8 586.2,542.9 585.7,544.2 587.3,544.6 587.4,543.9 588.2,542.8 
		588.4,542.6 589.7,542.1 590,542.1 591.3,542.8 591.4,543 591.8,544.3 591.8,544.8 591.1,546 590.4,546.4 588.9,546.6 588.5,546.6 
		588.2,547.9 589.3,547.9 590.5,548.5 590.8,548.8 591.2,550.2 591.1,550.9 590.3,552.2 589.6,552.7 588.2,553 587.9,553 
		586.6,552.4 586.2,551.9 585.8,550.4 584.2,550.6 584.2,550.8 584.6,552.2 585.4,553.3 	"/>
</g>
<g id="LWPOLYLINE_111_">
	<polygon class="st5" points="570.3,549.2 569.8,549.3 567.8,549.9 566.9,550.5 565.2,552.1 565.8,549.6 563.2,549.6 560.1,564.7 
		562.6,564.7 564.1,557.6 564.6,555.7 565.4,554 565.8,553.4 567.3,552.1 567.7,551.9 569.6,551.4 570.8,551.8 571.3,553 
		571.1,554.5 568.9,564.7 571.5,564.7 573.1,557.4 573.5,555.5 574.2,553.9 574.5,553.4 576.1,552.1 576.5,551.9 578.4,551.4 
		579.7,551.8 580.2,552.9 580,554.7 577.9,564.7 580.5,564.7 582.5,555 582.5,554.6 582.8,552.7 582.7,551.8 581.9,550.1 
		581.1,549.6 579,549.2 578.3,549.3 576.3,549.9 575.4,550.6 573.9,552.1 573.8,551.6 572.6,550 572.3,549.7 	"/>
</g>
<g id="LWPOLYLINE_112_">
	<polygon class="st5" points="560.8,543.5 563,543.5 551.8,565.1 549.5,565.1 	"/>
</g>
<g id="LWPOLYLINE_113_">
	<rect x="141.5" y="320.3" class="st5" width="577.3" height="5.3"/>
</g>
<g id="LWPOLYLINE_114_">
	<path class="st5" d="M469.1,469.3c-1.1-0.1-2.3,0-3.4,0.2l5.8,11.9h31.4l7.7-11.4c-1.3-0.5-2.8-0.7-4.2-0.7H469.1z"/>
</g>
<g id="LWPOLYLINE_115_">
	<path class="st5" d="M505.7,299.6l-3.1,5.4c0.5,0.1,1.1,0.2,1.6,0.2h16.9c0.6,0.1,1.3,0,1.9-0.2l-3.1-5.4H505.7z"/>
</g>
<g id="LWPOLYLINE_116_">
	<path class="st5" d="M506.9,258l2.6,5.4h14.3l3.5-5.2c-0.6-0.2-1.3-0.3-1.9-0.3h-16.9C507.9,257.9,507.4,257.9,506.9,258z"/>
</g>
<g id="LWPOLYLINE_117_">
	<path class="st5" d="M486.9,304.1c1.4-0.9,2.3-2.5,2.5-4.1l1.3-14.8l-2.1-2h-0.2l-3.3,2.7l-1.2,13.1L486.9,304.1z"/>
</g>
<g id="LWPOLYLINE_118_">
	<path class="st5" d="M500.6,304c-1.2-0.9-1.9-2.4-1.7-3.9l1.4-15.5l2.4-1.9h0.2l2.9,2.8l-1,11.4L500.6,304z"/>
</g>
<g id="LWPOLYLINE_119_">
	<path class="st5" d="M396.7,304.1c1.4-0.9,2.3-2.5,2.5-4.1l1.3-14.8l-2.1-2h-0.2l-3.3,2.7l-1.2,13.1L396.7,304.1z"/>
</g>
<g id="LWPOLYLINE_120_">
	<path class="st5" d="M415.4,299.6l-3.1,5.4c0.5,0.1,1.1,0.2,1.6,0.2h16.9c0.6,0.1,1.3,0,1.9-0.2l-3.1-5.4H415.4z"/>
</g>
<g id="LWPOLYLINE_121_">
	<path class="st5" d="M410.3,304c-1.2-0.9-1.9-2.4-1.7-3.9l1.4-15.5l2.4-1.9h0.2l2.9,2.8l-1,11.4L410.3,304z"/>
</g>
<g id="LWPOLYLINE_122_">
	<path class="st5" d="M484.9,305l-3.1-5.4h-14.2l-3.1,5.4c0.5,0.1,1.1,0.2,1.6,0.2H483C483.6,305.2,484.3,305.1,484.9,305z"/>
</g>
<g id="LWPOLYLINE_123_">
	<path class="st5" d="M462.5,304c-1.2-0.9-1.9-2.4-1.7-3.9l1.4-15.5l2.4-1.9h0.2l2.9,2.8l-1,11.4C466.6,297,462.5,304,462.5,304z"/>
</g>
<g id="LWPOLYLINE_124_">
	<path class="st5" d="M297.6,469.4l5.8,11.9h31.4l7.7-11.4c-1.3-0.5-2.8-0.7-4.2-0.7H301C299.9,469.2,298.7,469.2,297.6,469.4z"/>
</g>
<g id="LWPOLYLINE_125_">
	<polygon class="st5" points="151.5,392 141.5,392 141.5,381.7 151.5,379.8 	"/>
</g>
<g id="LWPOLYLINE_126_">
	<polygon class="st5" points="166.5,377 166.5,392 156.5,392 156.5,378.8 	"/>
</g>
<g id="LWPOLYLINE_127_">
	<polygon class="st5" points="181.5,374.1 181.5,392 171.5,392 171.5,376 	"/>
</g>
<g id="LWPOLYLINE_128_">
	<polygon class="st5" points="196.5,371.3 196.5,392 186.5,392 186.5,373.2 	"/>
</g>
<g id="LWPOLYLINE_129_">
	<path class="st5" d="M292.9,381.1h4v12.4c0,4.4-3.6,8-8,8H141.6v-4.2h146.3c2.8,0,5-2.2,5-5L292.9,381.1L292.9,381.1z"/>
</g>
<g id="LWPOLYLINE_130_">
	<polygon class="st5" points="211.5,368.4 211.5,392 201.5,392 201.5,370.3 	"/>
</g>
<g id="LWPOLYLINE_131_">
	<polygon class="st5" points="271.5,357.1 271.5,392 261.5,392 261.5,359 	"/>
</g>
<g id="LWPOLYLINE_132_">
	<polygon class="st5" points="286.5,354.2 286.5,392 276.5,392 276.5,356.1 	"/>
</g>
<g id="LWPOLYLINE_133_">
	<polygon class="st5" points="226.5,365.6 226.5,392 216.5,392 216.5,367.5 	"/>
</g>
<g id="LWPOLYLINE_134_">
	<polygon class="st5" points="241.5,362.7 241.5,392 231.5,392 231.5,364.6 	"/>
</g>
<g id="LWPOLYLINE_135_">
	<polygon class="st5" points="256.5,359.9 256.5,392 246.5,392 246.5,361.8 	"/>
</g>
<g id="LWPOLYLINE_136_">
	<polygon class="st5" points="229.5,448.5 231.4,447.3 231.6,447 233.2,445.3 234.1,443.1 234.4,440.5 234.4,440.2 234.1,438 
		233.2,436.2 231.8,434.8 230,433.8 227.6,433.2 224.7,433 224.6,433 222.4,433.1 219.5,433.4 214.8,459.2 218.5,459.2 220.2,449.2 
		221.2,449.4 223.7,449.6 224.6,449.6 227.1,449.3 	"/>
</g>
<g id="LWPOLYLINE_137_">
	<polygon points="230.2,443.2 228.7,445 228.4,445.3 226.3,446.2 223.7,446.5 223.2,446.5 220.8,446.1 222.5,436.5 223.1,436.4 
		225.6,436.1 226.9,436.2 229,437 230.3,438.6 230.7,440.8 	"/>
</g>
<g id="LWPOLYLINE_138_">
	<polygon class="st5" points="159.2,456.1 160,455.4 161.3,453.6 161.8,452.5 162,450.1 162,449.6 161.5,447.5 161.4,447.3 
		160,445.6 159.9,445.5 157.9,444.4 157.5,444.3 155.3,443.6 153.6,443 152.2,442.2 151.2,441.2 150.8,439.6 151.2,437.7 
		152.4,436.3 154.3,435.4 154.5,435.4 156.7,435.1 157.9,435.2 160.2,435.5 161.2,435.8 163.3,436.6 163.8,433.8 162.9,433.5 
		160.6,432.8 159,432.6 156.6,432.4 155,432.5 152.9,433 151.9,433.3 150,434.5 149.5,435.1 148.3,437 148,437.9 147.7,440.2 
		147.7,440.2 148.1,442.4 149.4,444 151.1,445.1 151.2,445.1 153.3,445.9 155.4,446.5 157.1,447.3 158.4,448.5 158.9,450.3 
		158.4,452.5 157,454.2 156.8,454.3 154.7,455.3 153.9,455.4 151.6,455.6 149.7,455.5 148,455.1 146.4,454.6 145,453.9 144.4,456.7 
		145.5,457.2 147.2,457.8 149.3,458.1 149.4,458.2 151.7,458.3 153.7,458.2 155.9,457.8 157.3,457.3 	"/>
</g>
<g id="LWPOLYLINE_139_">
	<polygon class="st5" points="171.2,432.9 166,457.9 181,457.9 181.6,455.1 169.6,455.1 171.4,446.4 181.5,446.4 182,443.7 
		172,443.7 173.7,435.6 184.9,435.6 185.5,432.9 	"/>
</g>
<g id="LWPOLYLINE_140_">
	<polygon class="st5" points="188.5,432.9 187.9,435.6 195.6,435.6 191,457.9 194.1,457.9 198.7,435.6 206.4,435.6 207,432.9 	"/>
</g>
<g id="LWPOLYLINE_141_">
	<polygon class="st5" points="276.9,456 267.3,456 273.6,447.8 274.9,446.1 276.4,444 277.4,442.3 277.9,441 278.4,438.6 
		277.9,436.3 276.5,434.4 276,434.1 273.9,433.2 271.2,432.9 269.8,433 267.4,433.6 265.6,434.8 264.3,436.7 266.7,438.3 
		268.6,436.5 270.8,436 271.2,436 273.6,436.7 273.6,436.8 274.7,438.9 274.6,439.5 273.8,441.9 273.6,442.4 272.3,444.2 
		270.4,446.7 262,457.6 262,459.2 276.3,459.2 	"/>
</g>
<g id="LWPOLYLINE_142_">
	<polygon class="st5" points="256.3,433.4 247.3,451.5 244.4,433.4 242.7,433.4 233.5,459.2 236.8,459.2 242.8,443.1 245.6,459.5 
		246.4,459.5 255,443.2 255.3,459.2 258.9,459.2 258.2,433.4 	"/>
</g>
<g id="LWPOLYLINE_143_">
	<polygon class="st5" points="294.5,459.3 296.6,458.8 298.4,457.9 299.9,456.6 301.1,454.9 301.9,452.9 302.4,450.4 302.6,447.7 
		302.2,445.3 300.9,443.3 298.9,442 296.5,441.6 295.2,441.6 293,442.5 294.1,436.2 303.5,436.2 304.1,433.2 291.3,433.2 
		289.1,445.8 290.9,445.8 292.2,445 294.7,444.5 295.5,444.6 297.6,445.7 298.2,446.5 298.8,448.8 298.7,449.9 298.3,452.4 
		297.2,454.4 296.9,454.7 295,456 292.5,456.5 290.4,456 288.3,454.6 286.8,457.6 287.3,458.1 289.4,459.2 292,459.5 	"/>
</g>
<g id="LWPOLYLINE_144_">
	<polygon class="st5" points="280.1,459.5 279.3,457.6 280.1,455.7 281.9,454.9 283.8,455.7 284.5,457.6 283.8,459.5 281.9,460.3 	
		"/>
</g>
<g id="LWPOLYLINE_145_">
	<polygon class="st5" points="177.6,354.8 178.4,354.4 179.2,354.8 179.5,355.7 179.2,356.6 178.4,357 177.6,356.6 177.4,355.7 	"/>
</g>
<g id="LWPOLYLINE_146_">
	<polygon class="st5" points="182.2,356.5 183.2,356.9 184.6,357 184.7,357 186,356.9 187.1,356.4 188,355.6 188.6,354.7 189,353.4 
		189.2,351.8 189.1,350.8 188.7,349.4 188,348.3 187.2,347.7 186.2,347.2 184.9,347 183.8,347.1 183.8,342.5 188.6,342.5 
		188.6,340.8 182.3,340.8 182.3,348.9 183.2,348.8 184.3,348.7 184.5,348.7 185.8,349 186.7,349.6 187.3,350.5 187.5,352 
		187.4,353.3 186.7,354.4 185.8,355.1 184.6,355.4 184.1,355.3 183,355 181.9,354.3 181.9,356.4 	"/>
</g>
<g id="LWPOLYLINE_147_">
	<polygon class="st5" points="168.1,343.9 169.1,342.9 170.2,342.4 171.2,342.2 172,342.3 173,342.9 173.4,343.5 173.6,345 
		173.5,345.9 173.1,347.3 172.8,347.9 172,349 171,350.4 167.3,355 167.3,356.8 175.1,356.8 175.1,355 169.2,355 169.2,354.9 
		172.2,351.4 172.3,351.1 173.3,349.9 174,348.7 174.6,347.7 174.6,347.7 175,346.3 175.2,344.8 175.2,344.2 174.9,342.8 
		174.2,341.7 173.8,341.3 172.8,340.7 171.5,340.5 171.2,340.5 170.1,340.7 169,341.2 168,341.9 168,344 	"/>
</g>
<g id="LWPOLYLINE_148_">
	<polygon class="st5" points="151.6,356.8 153.2,356.8 153.2,346 153.1,344.3 153.1,343 153.1,343 153.2,343.4 153.5,344.7 
		157.7,356.8 158.6,356.8 162.8,344.6 162.9,344.5 163.2,343 163.3,343 163.2,343.2 163.2,344.8 163.1,346.2 163.1,356.8 
		164.8,356.8 164.8,340.8 162.6,340.8 158.8,351.7 158.2,353.7 158.2,353.7 158,353.3 157.6,351.7 153.8,340.8 151.6,340.8 	"/>
</g>
<g id="LWPOLYLINE_149_">
	<polygon class="st5" points="146.8,343.4 147.3,344.3 147.5,345.7 147.3,347 146.7,348.1 146.6,348.2 145.7,348.8 144.4,349 
		142.9,349 142.9,342.6 144.6,342.6 145.9,342.8 	"/>
</g>
<g id="LWPOLYLINE_150_">
	<polygon class="st5" points="148.6,348.4 149,347.1 149.2,345.6 149.1,344.5 148.8,343.1 148.1,342 147.3,341.3 146.2,340.9 
		144.8,340.8 141.2,340.8 141.2,356.8 142.9,356.8 142.9,350.8 144.5,350.8 145.8,350.7 146.9,350.2 147.9,349.4 	"/>
</g>
<g id="LWPOLYLINE_151_">
	<path class="st5" d="M381.6,469.4l5.8,11.9h31.4l7.7-11.4c-1.3-0.5-2.8-0.7-4.2-0.7H385C383.9,469.2,382.8,469.2,381.6,469.4z"/>
</g>
<g id="LWPOLYLINE_152_">
	<polygon class="st5" points="215.3,216.4 215.3,229.1 207.6,216.4 203.9,216.4 203.9,235.3 207.4,235.3 207.4,223 215,235.3 
		218.8,235.3 218.8,216.4 	"/>
</g>
<g id="LWPOLYLINE_153_">
	<polygon class="st5" points="193.1,235.6 194.4,235.4 195.5,235 196.5,234.5 197.5,233.8 198.4,233.1 198.7,232.7 199.3,231.8 
		199.9,230.9 200.3,229.8 200.6,228.6 200.8,227.3 200.8,225.9 200.8,225.3 200.7,223.9 200.5,222.7 200.1,221.6 199.7,220.5 
		199.1,219.6 198.4,218.7 198.3,218.6 197.4,217.9 196.4,217.2 195.4,216.7 194.2,216.4 193,216.2 191.7,216.1 191.2,216.1 
		189.9,216.2 188.7,216.5 187.6,216.9 187.1,217.1 186.1,217.7 185.2,218.6 184.7,219.1 184,220.1 183.4,221.2 183.4,221.2 
		183,222.2 182.7,223.3 182.6,224.6 182.5,226 182.5,226.5 182.6,227.8 182.9,229.1 183.2,230.2 183.7,231.3 184.3,232.2 185,233.1 
		185.1,233.2 186,233.9 186.9,234.5 188,235 189.1,235.4 190.4,235.6 191.7,235.6 191.8,235.6 	"/>
</g>
<g id="LWPOLYLINE_154_">
	<polygon points="192.9,232.3 191.7,232.4 191,232.4 189.9,232.1 188.9,231.5 187.9,230.7 187.8,230.5 187.2,229.6 186.8,228.5 
		186.5,227.3 186.5,225.9 186.5,225.5 186.6,224.1 186.9,222.9 187.3,221.8 187.9,221 188.3,220.5 189.3,219.9 190.4,219.5 
		191.7,219.4 192.4,219.4 193.6,219.7 194.6,220.2 195.5,221 195.6,221.2 196.2,222 196.6,223.1 196.8,224.4 196.9,225.8 
		196.9,226.3 196.8,227.7 196.5,228.9 196.1,229.9 195.5,230.7 195,231.2 194,231.8 	"/>
</g>
<g id="LWPOLYLINE_155_">
	<polygon class="st5" points="164.8,235.3 164.8,220.5 168.6,235.3 172.2,235.3 176,220.5 176,235.3 179.5,235.3 179.5,216.4 
		173.8,216.4 170.4,229.3 167,216.4 161.3,216.4 161.3,235.3 	"/>
</g>
<g id="LWPOLYLINE_156_">
	<polygon class="st5" points="434.7,281.5 431.4,284.1 417.1,284.1 414.2,281.3 417.6,278.6 431.6,278.6 	"/>
</g>
<g id="LWPOLYLINE_157_">
	<path class="st5" d="M400.5,259.8l-3.8,5.7l-1.1,12l2.7,2.5h0.2l2.7-2.2l1.2-13.4C402.4,262.7,401.8,261,400.5,259.8z"/>
</g>
<g id="LWPOLYLINE_158_">
	<path class="st5" d="M464.1,262.3c0.2-1.6,1-3.1,2.4-4l3,6l-1.1,12.6l-3.5,2.7h-0.2l-2-1.9l1.3-14.8
		C464,262.7,464.1,262.5,464.1,262.3z"/>
</g>
<g id="LWPOLYLINE_159_">
	<path class="st5" d="M438.5,259.8l-3.8,5.7l-1.1,12l2.7,2.5h0.2l2.7-2.2l1.2-13.4C440.5,262.7,439.8,261,438.5,259.8z"/>
</g>
<g id="LWPOLYLINE_160_">
	<path class="st5" d="M490.7,259.8l-3.8,5.7l-1.1,12l2.7,2.5h0.2l2.7-2.2l1.2-13.4C492.7,262.7,492,261,490.7,259.8z"/>
</g>
<g id="LWPOLYLINE_161_">
	<path class="st5" d="M502.2,262.3c0.2-1.6,1-3.1,2.4-4l3,6l-1.1,12.6l-3.5,2.7h-0.2l-2-1.9l1.3-14.8
		C502.1,262.7,502.1,262.5,502.2,262.3z"/>
</g>
<g id="LWPOLYLINE_162_">
	<polygon class="st5" points="448.4,267.4 447.7,275.6 454.6,275.6 455.3,267.4 	"/>
</g>
<g id="LWPOLYLINE_163_">
	<path class="st5" d="M416.6,258l2.6,5.4h14.2l3.5-5.2c-0.6-0.2-1.3-0.3-1.9-0.3h-16.9C417.6,257.9,417.1,257.9,416.6,258z"/>
</g>
<g id="LWPOLYLINE_164_">
	<path class="st5" d="M468.8,258l2.6,5.4h14.2l3.5-5.2c-0.6-0.2-1.3-0.3-1.9-0.3h-16.9C469.8,257.9,469.3,257.9,468.8,258z"/>
</g>
<g id="LWPOLYLINE_165_">
	<polygon class="st5" points="452.8,296.5 453.5,288.3 446.5,288.3 445.8,296.5 	"/>
</g>
<g id="LWPOLYLINE_166_">
	<path class="st5" d="M525,304.1c1.4-0.9,2.3-2.5,2.5-4.1l1.3-14.8l-2.1-2h-0.2l-3.3,2.7L522,299L525,304.1z"/>
</g>
<g id="LWPOLYLINE_167_">
	<polygon class="st5" points="600.7,293.4 601.6,293.1 602.5,293.4 602.8,294.3 602.5,295.2 601.6,295.6 600.7,295.2 600.3,294.3 	
		"/>
</g>
<g id="LWPOLYLINE_168_">
	<polygon class="st5" points="597.8,284.1 597.8,283.7 597.5,282.3 596.7,281.2 596.3,280.8 595,280.3 593.5,280 593.4,280 
		592,280.2 590.6,280.7 589.4,281.4 589.4,283.3 590.6,282.4 591.9,281.8 593.2,281.6 594.1,281.7 595.3,282.3 595.7,282.9 
		596,284.3 595.9,285.1 595.4,286.5 595,286.9 594.2,288 592.9,289.3 588.6,293.6 588.6,295.3 597.7,295.3 597.7,293.6 590.8,293.6 
		590.8,293.6 594.3,290.3 594.3,290.2 595.5,288.9 596.5,287.8 597.1,286.8 597.7,285.5 	"/>
</g>
<g id="LWPOLYLINE_169_">
	<polygon class="st5" points="570.2,295.3 572,295.3 572,283.7 571.9,282.4 571.9,282.4 572,282.7 572.4,284 577.3,295.3 
		578.4,295.3 583.4,283.9 583.4,283.9 583.8,282.4 583.8,282.4 583.8,284 583.7,285.4 583.7,295.3 585.6,295.3 585.6,280.3 
		583.1,280.3 578.6,290.6 578.5,290.9 577.9,292.4 577.9,292.4 577.8,292.1 577.2,290.6 572.8,280.3 570.2,280.3 	"/>
</g>
<g id="LWPOLYLINE_170_">
	<polygon class="st5" points="567.2,286.3 567.4,284.8 567.3,283.9 566.9,282.5 566.1,281.5 565.2,280.9 563.9,280.4 562.3,280.3 
		558,280.3 558,295.3 559.9,295.3 559.9,289.7 561.9,289.7 563.3,289.6 564.7,289.2 565.8,288.4 566.6,287.5 	"/>
</g>
<g id="LWPOLYLINE_171_">
	<polygon points="564.4,282.7 565.1,283.6 565.3,284.9 565.2,286.1 564.4,287.2 563.3,287.8 561.8,288 559.9,288 559.9,282 562,282 
		563.3,282.1 	"/>
</g>
<g id="LWPOLYLINE_172_">
	<path class="st5" d="M528.8,259.8l-3.8,5.7l-1.1,12l2.7,2.5h0.2l2.7-2.2l1.2-13.4C530.8,262.7,530.1,261,528.8,259.8z"/>
</g>
<g id="LWPOLYLINE_173_">
	<polygon class="st5" points="605.9,295.1 607.2,295.4 608.9,295.6 610.3,295.4 611.7,295 612.8,294.2 613.4,293.5 614,292.2 
		614.2,290.7 614.1,289.8 613.7,288.5 612.9,287.4 612.1,286.8 610.8,286.3 609.2,286.2 607.9,286.2 607.9,282 613.5,282 
		613.5,280.3 606.1,280.3 606.1,287.9 607.2,287.8 608.5,287.8 608.6,287.8 610.2,288 611.3,288.6 611.9,289.4 612.3,290.8 
		612.1,291.9 611.3,293.1 610.3,293.7 608.8,294 608.4,294 607,293.7 605.7,293 605.7,294.9 	"/>
</g>
<g id="_x31_">
	<g id="HATCH_9_">
		<path d="M493.5,1204.9h-3.4c-1,0-1.8,0-3.2,1.2c-0.6,0.5-3.7,3.4-3.7,3.4s-0.3,0.3-0.7,0.4c-0.4,0-0.7-0.4-0.7-0.4
			s-3.2-2.9-3.7-3.4c-1.4-1.2-2.2-1.2-3.2-1.2h-3.4c-1.2,0-1.8,0.6-1.8,1.9v14.5c0,1.2,0.6,1.5,1.8,1.5h2.8c1.2,0,1.6-0.5,1.6-1.8
			v-9.1c0,0,4.8,4.3,5.4,4.9c0.5,0.5,0.9,0.5,1.2,0.5c0.3,0,0.7,0,1.2-0.5c0.6-0.6,5.4-4.9,5.4-4.9v9.1c0,1.2,0.3,1.8,1.6,1.8h2.8
			c1.2,0,1.8-0.3,1.8-1.5v-14.5C495.3,1205.6,494.7,1204.9,493.5,1204.9z M347.3,1204.9h-3.4c-1,0-1.8,0-3.2,1.2
			c-0.6,0.5-3.7,3.4-3.7,3.4s-0.3,0.3-0.7,0.4c-0.4,0-0.7-0.4-0.7-0.4s-3.2-2.9-3.7-3.4c-1.4-1.2-2.2-1.2-3.2-1.2h-3.4
			c-1.2,0-1.8,0.6-1.8,1.9v14.5c0,1.2,0.6,1.5,1.8,1.5h2.8c1.2,0,1.6-0.5,1.6-1.8v-9.1c0,0,4.8,4.3,5.4,4.9c0.5,0.5,0.9,0.5,1.2,0.5
			c0.3,0,0.7,0,1.2-0.5c0.6-0.6,5.4-4.9,5.4-4.9v9.1c0,1.2,0.3,1.8,1.6,1.8h2.8c1.2,0,1.8-0.3,1.8-1.5v-14.5
			C349.1,1205.6,348.5,1204.9,347.3,1204.9z M358.3,1216.3v1.1c0,0.7,0.6,1,1.3,1h16.3c0.9,0,1.2,0.3,1.2,1.2v2.1
			c0,0.9-0.3,1.2-1.2,1.2h-8.2h-11.4h-1.9c-1.5,0-2.3-0.8-2.3-2.3v-13.2c0-1.5,0.8-2.3,2.3-2.3h1.9h11.4h8.2c0.9,0,1.2,0.3,1.2,1.2
			v2.1c0,0.9-0.3,1.2-1.2,1.2h-16.3c-0.7,0-1.3,0.2-1.3,1v1.2V1216.3z M506.2,1209.6h16.3c0.9,0,1.2-0.3,1.2-1.2v-2.1
			c0-0.9-0.3-1.2-1.2-1.2h-8.2h-11.4H501c-1.5,0-2.3,0.8-2.3,2.3v13.2c0,1.5,0.8,2.3,2.3,2.3h1.9h11.4h8.2c0.9,0,1.2-0.3,1.2-1.2
			v-2.1c0-0.9-0.3-1.2-1.2-1.2h-16.3c-0.7,0-1.3-0.3-1.3-1v-1.1h17.6c0.9,0,1.2-0.3,1.2-1.2v-2.1c0-0.9-0.3-1.2-1.2-1.2h-17.6v-1.2
			C504.9,1209.8,505.5,1209.6,506.2,1209.6z M435.8,1205.1h-2.6c-1.2,0-1.7,0.5-1.7,1.8v7.8h-13.3v-7.8c0-1.2-0.5-1.8-1.8-1.8h-2.6
			c-1.2,0-1.8,0.5-1.8,1.8v14.3c0,1.2,0.5,1.8,1.8,1.8h2.6c1.2,0,1.8-0.5,1.8-1.8v-2h13.3v2c0,1.2,0.5,1.8,1.7,1.8h2.6
			c1.2,0,1.8-0.5,1.8-1.8v-14.3C437.5,1205.6,437,1205.1,435.8,1205.1z M399.1,1217.4c0,0.7-0.1,0.9-0.9,0.9h-11.3
			c-0.7,0-0.9-0.1-0.9-0.9v-6.8c0-0.7,0.1-0.9,0.9-0.9h11.3c0.7,0,0.9,0.1,0.9,0.9C399.1,1210.5,399.1,1217.4,399.1,1217.4z
			 M402.9,1205.1H382c-1.5,0-2.3,0.8-2.3,2.3v13.2c0,1.5,0.8,2.3,2.3,2.3h20.9c1.5,0,2.3-0.8,2.3-2.3v-13.2
			C405.2,1205.8,404.5,1205.1,402.9,1205.1z M460.1,1217.4c0,0.7-0.1,0.9-0.9,0.9h-11.3c-0.7,0-0.9-0.1-0.9-0.9v-6.8
			c0-0.7,0.1-0.9,0.9-0.9h11.3c0.7,0,0.9,0.1,0.9,0.9C460.1,1210.5,460.1,1217.4,460.1,1217.4z M464,1205.1h-20.9
			c-1.5,0-2.3,0.8-2.3,2.3v13.2c0,1.5,0.8,2.3,2.3,2.3H464c1.5,0,2.3-0.8,2.3-2.3v-13.2C466.3,1205.8,465.5,1205.1,464,1205.1z
			 M452.9,1164.7v16.3c0,1.5-0.6,2.1-2.1,2.1h-10.7c0,0-1.2-0.1-2.3,1c-1.6,1.4-6.5,5.8-6.5,5.8s-3.3,2.8,0.5,2.8h30
			c2.7,0,3.5-0.8,3.5-3.3V1157c0-2.8-0.9-3.8-3.9-3.8h-11.9c-1.9,0-4.6,0.5-6.3,1.8c-1.2,0.9-18.7,16.5-18.7,16.5s-0.9,0.9-1.4,0.9
			c-0.1,0-0.1,0-0.2,0c-0.5-0.1-1.2-0.9-1.2-0.9s-17.6-15.7-18.8-16.6c-1.7-1.3-4.2-1.7-6.1-1.7h-11.9c-3,0-3.9,1-3.9,3.8v20.6v3.6
			v8.2c0,2.4,0.7,3.2,3.1,3.3h0.4h5.5h2.5c0,0,1.2,0.1,2.3-1c1.6-1.4,6.5-5.8,6.5-5.8s3.3-2.8-0.5-2.8h-5.3c-1.4,0-2-0.5-2-1.9
			c0-0.1,0-0.1,0-0.2v-3.4v-12.9c0-0.7,0-2.2,1.8-0.8l17.8,15.9c0.4,0.3,0.8,0.7,1.1,1l-11.5,10.2c0,0-2,1.6,0.7,1.6h11.4
			c1.2,0,3.3,0,6.1-1.9c1.3-0.9,30.2-26.8,30.2-26.8C452.8,1162.4,452.9,1163.9,452.9,1164.7z"/>
	</g>
</g>
<g id="SPLINE_17_">
	<path class="st5" d="M399.1,1217.4c0,0.7-0.1,0.9-0.9,0.9h-11.3c-0.7,0-0.9-0.1-0.9-0.9v-6.8c0-0.7,0.1-0.9,0.9-0.9h11.3
		c0.7,0,0.9,0.1,0.9,0.9C399.1,1210.5,399.1,1217.4,399.1,1217.4z"/>
</g>
<rect x="862.8" y="558.7" class="st8" width="13" height="78.5"/>
<rect x="862.8" y="327.6" class="st8" width="13" height="78.5"/>
</svg>
