<?xml version="1.0" encoding="utf-8"?>
<!-- Generator: Adobe Illustrator 21.1.0, SVG Export Plug-In . SVG Version: 6.00 Build 0)  -->
<svg version="1.1" id="Laag_1" xmlns="http://www.w3.org/2000/svg" xmlns:xlink="http://www.w3.org/1999/xlink" x="0px" y="0px"
	 viewBox="0 0 913 1410" style="enable-background:new 0 0 913 1410;" xml:space="preserve">
<style type="text/css">
	.st0{fill:#FFFFFF;}
	.st1{fill:#0278CA;}
</style>
<g id="_x23_000000ff">
	<path d="M121.5,0h655c20.3,0.4,40.6,5.1,58.5,15c14.5,7.7,27.1,18.8,37.7,31.3c16.8,19.8,25.4,45.9,26.1,71.7
		c0,74.2,0,148.5,0,222.8c4.7,0,9.5,0,14.2,0v82.7c-4.8,0.1-9.5,0.1-14.2,0.1c0,52.7,0,105.3,0,158c4.8,0,9.5,0,14.2,0v82.7
		c-4.8,0-9.5,0-14.2,0c0,206.9,0,413.8,0,620.8c0.6,21.9-4.8,44-15.8,63c-5.9,10.3-13.7,19.4-22.5,27.3
		c-14.4,13.7-32.2,23.6-51.3,29c-10.7,3.2-21.7,4.5-32.8,5.6H121.6c-16.8-1.5-33.6-4.7-49-11.7c-28.5-12.5-52.7-35.8-64-65
		c-5-12.2-7.6-25.2-8.6-38.3V114.1C1.3,96,6.2,77.9,15.1,62c8.2-14.2,19.2-26.8,32.3-36.7C68.6,9.2,95,0.3,121.5,0 M121.1,3.2
		c-15,0.4-30.1,3.1-44,8.9C51.9,22.2,30.3,41.2,17.1,65c-6.7,12.4-11,26.1-12.9,40.1c-1.3,8.6-1,17.2-1,25.9c0,385.3,0,770.7,0,1156
		c-0.4,25.8,7.9,51.7,23.8,72.1c22.6,28.9,58.6,46.4,95.1,47.3c217,0.1,434,0,651,0c23.1,0,46.2-6.4,65.9-18.5
		c11-6.6,20.5-15.3,29.2-24.7c14.8-16.7,23.7-38.1,26.6-60.1c1.1-8.3,0.8-16.8,0.9-25.1c0-382.3,0-764.6,0-1146.9
		c0-9.1,0.3-18.2-1.2-27.2c-3-19.4-10.2-38.4-22.7-53.7c-10.1-12.3-22-23.3-35.9-31.1c-13.7-7.9-29-12.9-44.7-14.9
		c-11.3-1.5-22.8-1-34.1-1.1C545,3.2,333.1,3,121.1,3.2 M899.2,341.8c0,26.9,0,53.8,0,80.8c4.2,0,8.3,0,12.5,0c0-26.9,0-53.8,0-80.8
		C907.6,341.8,903.4,341.8,899.2,341.8 M899.2,582.5c0,26.9,0,53.8,0,80.8c4.2,0,8.3,0,12.5,0c0-26.9,0-53.8,0-80.8
		C907.6,582.5,903.4,582.5,899.2,582.5z"/>
	<path d="M111.5,10.8c8.1-1.1,16.3-0.8,24.5-0.8c211.3,0,422.7,0,634,0c10.4-0.5,20.7,0.8,30.8,3.3c16.2,3.1,31.1,11,44.4,20.5
		c13.5,10.6,25,24,32.5,39.6c7.2,15.4,11,32.5,10.5,49.6c0,387.3,0,774.7,0,1162c0.6,21.3-4.8,42.8-16.3,60.8
		c-7.1,11.8-17,21.7-27.8,30c-7.9,5.4-16,10.8-25,14.2c-7,2.7-14.3,4.7-21.6,6.5c-13.3,3-26.9,2.2-40.4,2.3c-208.3,0-416.7,0-625,0
		c-12.1,0.1-24.5-0.1-36.3-3.6c-8.5-2.4-17.1-4.7-24.8-9.2c-21.1-10.8-38.8-28.3-49.4-49.5c-4.1-8.5-7.2-17.4-9.5-26.6
		c-2.8-11.8-2.1-24.1-2.2-36.1c0-382.3,0-764.7,0-1147c-0.1-9.8,0-19.8,2.5-29.4c2.4-8,5-16,8.5-23.6c5.9-12.3,14.2-23.5,24.2-32.8
		c10-9.7,22.3-16.6,34.8-22.6C90.1,14.8,100.8,12.6,111.5,10.8 M121.2,13.2c-9.3,0.1-18.3,2.3-27.3,4.4C88.4,19,83,20.4,78,23
		c-10.5,5.4-20.9,11.2-29.5,19.4c-10.9,9.8-19.9,21.8-25.8,35.3c-2.9,6.8-5.2,13.8-7.3,20.9c-2.5,9.6-2.4,19.6-2.4,29.4
		c0,384.3,0,768.7,0,1153c-0.1,9.8-0.1,19.8,2.4,29.4c2.6,9.8,6,19.4,10.9,28.3c12,22,32,39.3,55.2,48.8c6.4,2.3,13,4.1,19.6,5.9
		c11.5,2.6,23.4,2.3,35.1,2.3c209.3,0,418.7,0,628,0c11.3,0,22.9,0.2,34-2.5c8.5-2.2,17-4.6,25-8.3c14.3-7.1,27.4-16.9,37.9-29.1
		c11.3-13.8,19.4-30.3,22.5-48c2.3-11.2,1.7-22.6,1.7-33.9c0-380.3,0-760.7,0-1141c-0.1-9,0.4-18.1-0.9-27
		c-2.5-17.7-9.2-34.9-20.2-49c-8.4-10.6-18.2-20.1-30-26.9c-8.3-4.9-16.8-9.4-26.1-11.9c-11.7-3.1-23.6-5.7-35.8-5.2
		C555,13.2,338.1,13,121.2,13.2z"/>
	<path d="M141,198.7c158.3-0.2,316.6,0,475-0.1c47,0.1,94-0.1,141,0.1c0,112.5,0,224.9,0,337.3c-0.1,75.5,0.1,151-0.1,226.4
		c-202,0.1-404,0-605.9,0c-3.3,0-6.6,0-10-0.2C141,574.5,141,386.6,141,198.7 M433.8,268.6c0.9,1.9,1.9,3.9,2.8,5.9
		c5,0,9.9,0,14.9,0c1.3-1.9,2.6-3.8,3.8-5.8C448.2,268.5,441,268.7,433.8,268.6 M483.3,273.8c-0.5,5.2-0.9,10.4-1.4,15.6
		c0.8,0.7,1.5,1.4,2.3,2.1c1.3-1,2.5-2,3.8-2.9c0.3-4.3,0.9-8.7,1-13c-0.7-2.5-2.1-4.6-3.2-6.9C484.7,270.2,483.3,271.8,483.3,273.8
		 M488.2,268.6c0.9,1.9,1.9,3.9,2.8,5.9c4.9,0,9.9,0,14.9,0c1.3-1.9,2.6-3.8,3.9-5.8C502.5,268.5,495.4,268.6,488.2,268.6 M523,274
		c-0.5,5.1-0.9,10.2-1.4,15.3c0.7,0.7,1.5,1.5,2.2,2.2c1.3-1,2.6-2,3.8-2.9c0.3-4.5,1-8.9,1-13.4c-0.9-2.3-2.1-4.4-3.3-6.5
		C524.3,270.3,523,271.9,523,274 M527.9,268.6c0.9,1.9,1.9,3.9,2.8,5.9c5,0,10,0,15,0c1.3-1.9,2.6-3.9,3.8-5.8
		C542.3,268.5,535.1,268.7,527.9,268.6 M413.3,276.5c-0.7,4.2-0.8,8.4-1.3,12.6c1,0.9,2,1.8,3,2.8c1-0.8,2-1.6,3-2.4
		c-0.1-6.4,3-13.4-0.5-19.2C416,272.3,414.4,274.3,413.3,276.5 M457,270.2c-1.7,2.7-4.5,5.2-4.5,8.6c-0.3,3.4-0.6,6.8-0.9,10.3
		c1,0.9,2,1.8,3,2.8c1-0.8,2-1.6,3-2.4c0.4-4.8,1-9.6,1.2-14.5C458.9,273.2,457.7,271.8,457,270.2 M507.2,276.7
		c-0.6,4.1-0.8,8.3-1.2,12.5c1,0.9,2,1.8,3,2.7c1-0.8,2-1.6,3-2.4c0.4-4.8,1-9.7,1.2-14.5c0.1-1.7-1.1-3.2-1.8-4.7
		C509.9,272.4,508.3,274.4,507.2,276.7 M546.6,278.9c-0.3,3.4-0.6,6.9-0.9,10.3c1,0.9,2,1.8,3,2.8c1-0.8,2-1.6,3-2.4
		c0.4-4.8,1-9.6,1.2-14.5c0.1-1.8-1.1-3.2-1.8-4.7C549.4,273,546.7,275.4,546.6,278.9 M467,278.5c-0.3,2.9-0.5,5.8-0.8,8.6
		c2.4,0,4.9,0,7.3,0c0.3-2.9,0.5-5.8,0.7-8.6C471.9,278.5,469.5,278.5,467,278.5 M431.3,293c1,1,2,2,3,3c5,0,10.1,0,15.1,0
		c1.1-0.9,2.3-1.8,3.5-2.7c-1.1-1-2.2-2.1-3.3-3.1c-4.9,0-9.8,0-14.7,0C433.8,291.1,432.5,292,431.3,293 M411.3,297.8
		c-0.4,4.6-0.8,9.2-1.3,13.8c1.1,1.9,2.2,3.8,3.5,5.6c1-1.5,2.4-3,2.4-5c0.5-5,0.9-10.1,1.3-15.1c-0.8-0.7-1.6-1.5-2.3-2.2
		C413.7,295.8,412.5,296.8,411.3,297.8 M427,296.4c-0.4,5.9-1.3,11.7-1.4,17.5c0.4,0.8,1.1,2.4,1.5,3.2c1.8-3.2,4.8-6.2,5-10.1
		c0.3-3.2,0.5-6.5,0.9-9.7c-1.1-1-2.1-2-3.2-3C428.8,295,427.9,295.7,427,296.4 M481.4,296.4c-0.4,5.5-1.1,11.1-1.5,16.6
		c-0.2,1.5,1,2.7,1.5,4c1.7-2.6,3.7-5.2,4.7-8.2c0.6-3.8,0.7-7.7,1.1-11.5c-1.1-1-2.1-2-3.2-3.1C483.2,295,482.3,295.7,481.4,296.4
		 M505.2,297.8c-0.4,4.6-0.9,9.2-1.3,13.8c1.1,1.9,2.3,3.8,3.6,5.6c1-1.6,2.3-3.2,2.4-5.1c0.5-5,0.9-10,1.3-15
		c-0.8-0.7-1.6-1.5-2.4-2.2C507.6,295.8,506.4,296.8,505.2,297.8 M521.1,296.4c-0.5,5.2-1,10.4-1.4,15.7c-0.4,1.9,0.7,3.5,1.4,5.1
		c2.1-3.5,5.2-6.7,5.1-11c0.2-2.9,0.5-5.9,0.7-8.8c-1-1-2.1-2-3.1-3C522.9,295,522,295.7,521.1,296.4 M544.9,297.8
		c-0.3,3.8-0.7,7.6-1,11.3c-0.8,3.1,1.9,5.5,3.1,8.1c1.1-1.6,2.5-3.1,2.5-5.1c0.5-5,0.8-10,1.3-15c-0.8-0.8-1.5-1.5-2.3-2.3
		C547.4,295.8,546.2,296.8,544.9,297.8 M465,300.2c-0.3,2.9-0.5,5.8-0.8,8.8c2.5,0,5,0,7.4,0c0.2-2.9,0.5-5.8,0.8-8.7
		C470,300.2,467.5,300.2,465,300.2 M429.3,318c7.2,0.1,14.4,0.1,21.6,0c-1.1-2-2.2-4-3.3-6c-5,0-9.9,0-14.9,0
		C431.5,314,430.4,316,429.3,318 M487,312c-1.1,2-2.2,4-3.4,6c7.2,0.1,14.4,0.1,21.6,0c-1.1-2-2.2-4-3.3-5.9
		C497,312,492,312,487,312 M523.4,317.9c7.2,0.1,14.4,0.1,21.6,0c-1.1-2-2.2-4-3.3-6c-5,0-9.9,0-14.9,0
		C525.6,314,524.5,315.9,523.4,317.9 M147.4,339.2c200.5,0,400.9,0,601.4,0c0-1.9,0-3.8,0-5.6c-200.5,0-400.9,0-601.4,0
		C147.4,335.5,147.4,337.4,147.4,339.2 M228.6,451.4c-1.6,9-3.3,18-4.9,27c1.3,0,2.7,0,4,0c0.6-3.4,1.2-6.8,1.7-10.2
		c4.1,0.3,9,0.5,12.2-2.7c3.7-3.4,3.8-10.8-1-13.2C236.9,450.4,232.6,451.1,228.6,451.4 M266.9,451.4c-3.1,6.2-6.1,12.4-9.2,18.6
		c-1.1-6.5-1.9-13-3.3-19.4c-1.1,0.8-2.1,1.8-2.4,3.2c-2.9,8.2-5.8,16.4-8.7,24.5c0.9,0,2.7,0,3.6,0c2-5.5,4.1-11,6.1-16.5
		c1.1,5.6,1.7,11.2,3,16.7c0.1,0.1,0.4,0.3,0.5,0.4c3.3-5.5,6.1-11.4,9.2-17.1c0,5.5,0.1,11,0.3,16.5c1.3,0,2.6,0,3.9,0
		c-0.3-9-0.4-18.1-0.8-27.1C268.4,451.3,267.4,451.4,266.9,451.4 M275,454.8c0.6,0.4,1.9,1.3,2.5,1.8c2-1.9,4.6-2.7,7.2-1.8
		c0.4,0.7,1,2,1.4,2.7c-2.8,8-10.3,13.2-13.8,20.8c5.2,0.2,10.4,0.1,15.5,0.1c0.2-0.9,0.5-2.5,0.6-3.4c-3.3,0-6.6,0-9.9,0
		c3.3-4.5,7-8.7,10-13.5c1.8-2.8,2.1-7.1-0.9-9.3C283.6,449.8,277.7,450.6,275,454.8 M303.4,451.2c-0.8,4.5-1.7,9-2.2,13.6
		c2.1-0.6,4.1-1.3,6.2-1.9c6,1.7,4.4,11.5-1.4,12.4c-2.1,0.7-4-0.9-5.9-1.7c-0.5,1.2-1.1,2.3-1.6,3.5c5.1,3,13.2,2,15.5-4
		c1.2-3.6,2.3-8.4-0.7-11.4c-2.1-2.1-5.4-1.8-8-1.2c0.4-2,0.8-4,1.1-6c3.3,0,6.5,0,9.8,0c0.2-1.1,0.4-2.2,0.6-3.2
		C312.4,451.2,307.9,451.2,303.4,451.2 M291.4,475.4c-1.5,2,1.2,5.2,3.4,3.8c2.2-0.5,1.3-3.2,1.2-4.7
		C294.4,474.2,292.1,473.5,291.4,475.4 M309.8,488.8c2,4.2,4.1,8.4,6.1,12.6c11,0,22,0,32.9,0c2.7-4.1,5.5-8,8.1-12.2
		c-2.3-0.3-4.6-0.5-7-0.5C336.6,488.8,323.2,488.7,309.8,488.8 M397.4,488.8c2,4.2,4.1,8.4,6.1,12.6c11,0,22,0,32.9,0
		c2.7-4.1,5.5-8.1,8.1-12.2c-2.5-0.4-5-0.5-7.5-0.5C423.8,488.8,410.5,488.7,397.4,488.8 M484.9,488.9c2.1,4.2,4.1,8.4,6.1,12.6
		c11,0,21.9,0,32.9,0c2.7-4,5.5-8,8.1-12.1c-5.3-0.9-10.7-0.5-16-0.6C505.6,488.8,495.3,488.6,484.9,488.9 M386.7,498.5
		c-1.2,11.9-2.1,23.9-3.2,35.8c1.6,1.6,3.2,3.2,4.8,4.8c2.8-2.1,5.5-4.2,8.3-6.4c0.7-8.7,1.5-17.4,2.3-26.1c0.1-1.4,0.4-2.9-0.4-4.2
		c-2.1-4.3-4.2-8.5-6.3-12.8C389.5,492,387.1,494.9,386.7,498.5 M474.2,498.9c-1.1,11.8-2.1,23.7-3.2,35.5c1.6,1.5,3.2,3.1,4.8,4.7
		c2.7-2.1,5.5-4.2,8.2-6.3c0.8-9.6,1.8-19.3,2.4-28.9c-2-4.9-4.6-9.4-6.8-14.2C477,492,474.5,495.1,474.2,498.9 M351.6,506.5
		c-1.1,9.2-1.6,18.4-2.5,27.6c2.1,2,4.2,4,6.4,5.9c2.2-1.7,4.3-3.5,6.5-5.2c0.9-10.6,1.9-21.2,2.8-31.9c0.3-3.8-1.7-7.2-4.1-9.9
		C357.5,497.4,354.3,501.8,351.6,506.5 M439.2,506.4c-1.1,9.2-1.6,18.5-2.5,27.7c2.1,2,4.2,4,6.4,5.9c2.2-1.7,4.3-3.5,6.5-5.2
		c0.9-10.6,2-21.2,2.7-31.8c0.3-3.8-1.7-7.2-4.1-10C445.2,497.5,441.9,501.7,439.2,506.4 M312.4,536.2c-2.7,2.1-5.4,4.2-8.2,6.3
		c2.3,2.2,4.5,4.4,6.7,6.6c11.1,0,22.2,0,33.3,0c2.5-2,5-4.1,7.5-6.1c-2.4-2.3-4.9-4.5-7.3-6.8C333.7,536.2,323.1,536.2,312.4,536.2
		 M400,536.4c-3,1.7-5.5,4.2-8.2,6.2c2.3,2.2,4.5,4.4,6.8,6.6c10.9-0.1,21.9,0.1,32.8-0.1c3-1.5,5.2-4,7.9-6
		c-2.4-2.3-4.9-4.6-7.3-6.8C421.3,536.3,410.7,536.1,400,536.4 M479.8,542.3c2.2,2.2,4.4,4.4,6.6,6.6c11.1,0,22.2,0,33.3,0
		c2.5-2,5-4,7.5-6c-2.4-2.2-4.8-4.5-7.2-6.7c-10.8,0-21.5,0-32.2,0C485.1,538.2,482.5,540.2,479.8,542.3 M382.2,550.1
		c-1,12-2.2,24-3.1,35.9c-0.5,3.6,1.5,6.7,3.9,9.1c3.1-5.5,6.5-10.8,9.4-16.5c1.1-8.7,1.6-17.5,2.4-26.2c-2.3-2.2-4.6-4.5-6.8-6.8
		C386.1,547.1,384.1,548.6,382.2,550.1 M347.5,552.8c-0.9,10.1-1.8,20.2-2.7,30.3c2.3,4.1,4.7,8.1,7,12.1c2.8-2.3,5.3-5.4,5.6-9.1
		c1.1-11.6,2-23.2,3.1-34.8c-1.8-1.6-3.5-3.3-5.3-4.9C352.7,548.5,350.1,550.6,347.5,552.8 M435,552.8c-0.9,10.1-1.8,20.2-2.7,30.3
		c2.4,4.1,4.6,8.1,7.1,12.1c2.7-2.4,5.3-5.3,5.5-9.1c1.1-11.6,2.1-23.2,3.1-34.8c-1.7-1.6-3.5-3.3-5.2-4.9
		C440.2,548.5,437.6,550.7,435,552.8 M522.7,552.8c-0.9,10.1-1.9,20.2-2.7,30.4c2.3,4,4.7,8.1,7,12.1c2.8-2.3,5.3-5.4,5.6-9.1
		c1.1-11.6,2.1-23.2,3.1-34.8c-1.8-1.6-3.5-3.3-5.3-4.8C527.8,548.5,525.2,550.7,522.7,552.8 M307.1,584.5
		c-2.5,4.2-4.9,8.4-7.4,12.7c6.1,0.7,12.2,0.2,18.2,0.3c9.7-0.1,19.5,0.3,29.2-0.2c-2.4-4.3-4.9-8.5-7.4-12.8
		C328.9,584.5,318,584.5,307.1,584.5 M387.5,597.1c6.8,0.8,13.7,0.2,20.6,0.4c8.9-0.1,17.9,0.3,26.9-0.3c-2.4-4.3-4.9-8.5-7.4-12.7
		c-10.9,0-21.8,0-32.7,0C392.4,588.7,389.9,592.9,387.5,597.1 M450.5,585.4c-0.2,4-0.4,8.1-0.6,12.1c3.6,0,7.2,0,10.9,0
		c0.2-4,0.4-8.1,0.6-12.1C457.8,585.4,454.2,585.4,450.5,585.4 M475,597.1c6.3,0.8,12.7,0.3,19,0.4c9.5-0.1,18.9,0.3,28.4-0.2
		c-2.4-4.3-4.9-8.5-7.4-12.8c-10.9,0-21.8,0-32.7,0C479.9,588.7,477.4,592.9,475,597.1 M152.2,627.4c-2.3,0.2-3.9,2.5-3.8,4.7
		c0,9.6,0,19.2,0,28.8c-0.3,3,2.6,5.5,5.5,5c73.4,0,146.8,0,220.1,0c2.6,0.3,5.1-2.2,4.8-4.8c0.1-9,0-18.1,0-27.1
		c0-1.9,0.1-4.1-1.4-5.4c-1.4-1.5-3.6-1.3-5.4-1.3C298.8,627.3,225.5,627.1,152.2,627.4 M390.3,627.4c-2.5,0.5-3.8,3.2-3.6,5.6
		c0,9.4-0.1,18.7,0,28.1c-0.2,2.7,2.4,5.1,5,4.8c73.4,0,146.8,0,220.2,0c2.8,0.4,5.5-2,5.3-4.9c0.1-9.7,0.1-19.4,0-29
		c0.2-2.8-2.6-5.1-5.3-4.8C538.1,627.3,464.2,627,390.3,627.4 M161.4,681.1c-0.1,12.6,0,25.3,0,37.9c-6.3,4.2-8.6,13.4-4.1,19.7
		c4.6,7.5,16.5,8.3,22,1.4c5.7-6.1,3.9-16.7-3-21.1c-0.1-12.7,0.1-25.4,0-38.1c0-4.2-4.1-7.7-8.3-7.1
		C164.3,674.1,161.3,677.5,161.4,681.1 M430.3,691.8c-1.5-3.7-2.9-7.5-4.4-11.3c-2.9,7.3-5.5,14.7-8.5,22c-1.4,3.6-0.1,7.9,2.9,10.2
		c4,3.3,10.7,2.1,13.3-2.3c1.8-2.7,1.5-6.1,0.5-9.1c5,1.5,10.6-3.1,9-8.3c-2.1-5.8-4.5-11.5-6.6-17.3
		C434.5,681.1,432.5,686.5,430.3,691.8 M207.1,680c1.3,2.8,2.6,5.5,4,8.2c7.5,0,15,0,22.5,0c1.7-2.6,3.4-5.2,5-7.9
		C228.2,679.5,217.6,680.2,207.1,680 M262.1,680c1.3,2.8,2.6,5.5,4,8.2c7.5,0,15,0,22.5,0c1.7-2.6,3.5-5.2,5.1-7.8
		C283.2,679.5,272.6,680.2,262.1,680 M469.9,680c1.3,2.8,2.6,5.5,4,8.2c7.5,0,15,0,22.5,0c1.7-2.6,3.5-5.2,5.1-7.9
		C491,679.5,480.5,680.2,469.9,680 M524.9,680c1.3,2.8,2.6,5.5,4,8.2c7.5,0,15,0,22.5,0c1.6-2.5,3.8-4.8,4.7-7.8
		C545.8,679.4,535.3,680.2,524.9,680 M255.9,686.8c-0.8,7.6-1.3,15.2-2.1,22.8c1.1,1.1,2.2,2.2,3.3,3.3c1.7-1.4,3.8-2.6,5.2-4.3
		c0.7-6.6,1.3-13.3,1.7-19.9c-0.9-2.9-2.5-5.5-3.9-8.1C258.2,682.3,256.1,684.1,255.9,686.8 M518.6,687.1
		c-0.8,7.5-1.3,15.1-2.1,22.6c1.1,1,2.2,2.1,3.3,3.2c1.7-1.3,3.4-2.7,5.2-4c0.5-6.8,1.4-13.7,1.6-20.5c-1.1-2.7-2.5-5.2-3.9-7.8
		C520.8,682.4,518.8,684.4,518.6,687.1 M240.5,681.8c-2.4,3.8-6.4,7.2-6.2,12.1c-0.4,5.3-1,10.7-1.4,16c1.5,1.3,3,2.6,4.5,3.9
		c1.3-1.1,2.6-2.1,3.9-3.2c0.6-7.2,1.3-14.5,1.9-21.8C243.6,686.2,242,683.9,240.5,681.8 M295.5,681.7c-2,2.9-4.2,5.6-5.7,8.7
		c-0.9,6.5-1.2,13-1.9,19.5c1.4,1.3,2.9,2.7,4.3,4c1.3-1.1,2.7-2.2,4-3.2c0.6-7.2,1.3-14.4,1.9-21.6
		C298.6,686.2,297.1,683.8,295.5,681.7 M552.2,693.9c-0.5,5.3-1,10.7-1.4,16c1.4,1.3,2.9,2.7,4.3,4c1.3-1.1,2.7-2.2,4-3.2
		c0.6-7.2,1.3-14.5,1.9-21.7c0.4-2.8-1.1-5.2-2.6-7.3C556,685.5,552,689,552.2,693.9 M497.1,693.9c-0.4,5.3-0.9,10.7-1.4,16
		c1.5,1.3,3,2.6,4.5,3.9c1.3-1.1,2.6-2.1,3.9-3.2c0.6-7.2,1.3-14.5,1.8-21.7c0.4-2.8-1.2-5.1-2.7-7.3
		C500.9,685.7,496.9,689,497.1,693.9 M572.3,686.3c-2.1,1.4-1.6,4.4-1.2,6.5c1.4,3.3,7,2,6.4-1.7
		C578.6,687.9,575.5,684.4,572.3,686.3 M580.1,687.9c-2.1,5.5-4.5,11-6.4,16.6c0.5-0.2,1.4-0.7,1.8-1c2.5-6,5-12.1,7.1-18.3
		C581.6,685.9,580.4,686.6,580.1,687.9 M580.4,695.5c-3.2,2.1-2.2,9.3,2.5,8.6C587.6,702.6,585.8,693.2,580.4,695.5 M319.2,708
		c0.8,1.7,1.5,3.3,2.3,5c4.5,0.1,9.1,0,13.6,0c1-1.6,2.1-3.2,3-4.9C331.9,707.9,325.6,708,319.2,708 M315.3,712.9
		c-0.3,4.2-1,8.5-1,12.8c0.4,0.6,1.2,1.7,1.6,2.2c1.1-0.9,2.2-1.7,3.3-2.5c0.2-5.8,2.6-12.2-1.4-17.3
		C316.6,709.5,315.3,711,315.3,712.9 M203.1,714.6c1.4,1.4,2.9,2.9,4.3,4.3c7.6-0.1,15.2,0.1,22.7-0.1c1.9-1.1,3.5-2.6,5.2-4
		c-1.5-1.4-2.9-2.8-4.4-4.2c-7.6,0-15.1,0-22.7,0C206.5,711.9,204.8,713.2,203.1,714.6 M258.1,714.6c1.4,1.4,2.9,2.9,4.3,4.3
		c6.9,0,13.7,0,20.6,0c3.1,0.5,5-2.5,7.3-4.1c-1.5-1.4-2.9-2.8-4.4-4.2c-7.6,0-15.1,0-22.7,0C261.5,711.9,259.8,713.2,258.1,714.6
		 M465.9,714.6c1.4,1.4,2.9,2.8,4.3,4.3c7.7,0,15.3,0,23,0c1.7-1.4,3.3-2.7,5-4.1c-1.5-1.4-2.9-2.8-4.4-4.2c-7.6,0-15.2,0-22.7,0
		C469.3,712,467.6,713.3,465.9,714.6 M197.9,718.8c-0.6,7.4-1.4,14.8-1.9,22.2c-0.5,2.9,1.2,5.5,2.9,7.6c1.8-3.2,4-6.3,5.5-9.7
		c0.9-6.1,1.1-12.2,1.8-18.4c-1.5-1.5-3.1-3.1-4.6-4.6C200.4,716.9,199.2,717.9,197.9,718.8 M252.9,718.8
		c-0.6,7.8-1.6,15.5-1.9,23.2c-0.2,2.5,1.5,4.6,2.9,6.5c1.8-3.2,4-6.3,5.5-9.7c0.8-6.1,1.1-12.2,1.8-18.3c-1.5-1.5-3-3.1-4.6-4.6
		C255.4,716.9,254.2,717.9,252.9,718.8 M515.8,718.8c-0.7,7.4-1.4,14.9-2,22.3c-0.4,2.9,1.2,5.3,2.9,7.5c1.9-3.3,4.2-6.4,5.6-10
		c0.8-6,1.1-12.1,1.7-18.1c-1.5-1.5-3-3-4.5-4.5C518.3,716.9,517,717.8,515.8,718.8 M287.1,720.2c-0.6,7.2-1.2,14.4-1.9,21.7
		c1.4,2.5,2.9,5,4.4,7.5c1.8-1.8,3.7-3.8,3.8-6.4c0.7-7.7,1.3-15.3,2-23c-1.2-1.2-2.5-2.4-3.7-3.5
		C290.2,717.6,288.7,718.9,287.1,720.2 M494.9,720.1c-0.5,7.2-1.5,14.4-1.7,21.7c1.1,2.7,2.8,5,4.3,7.5c1.8-1.9,3.7-4,3.8-6.7
		c0.7-7.6,1.3-15.2,2-22.7c-1.2-1.2-2.5-2.4-3.7-3.5C498,717.5,496.5,718.8,494.9,720.1 M549.9,720.1c-0.5,7.2-1.5,14.4-1.7,21.7
		c1.1,2.6,2.8,5,4.3,7.5c1.8-1.9,3.7-3.9,3.8-6.7c0.7-7.6,1.3-15.2,2-22.8c-1.2-1.2-2.5-2.3-3.7-3.5
		C553,717.5,551.5,718.8,549.9,720.1 M320.1,726.4c-1.2,0.6-2.3,1.5-3.5,2.3c0.7,0.7,2,2,2.6,2.7c4.6,0,9.2,0,13.9,0
		c1-0.8,2-1.7,3.1-2.5c-0.9-0.9-1.9-1.8-2.8-2.6C329,726.3,324.5,726,320.1,726.4 M334.2,732c-0.4,4.4-0.8,8.7-1.1,13.1
		c0.9,1.6,1.9,3.1,2.9,4.7c0.7-1.3,1.9-2.4,2.1-3.9c0.6-4.7,0.9-9.4,1.3-14c-0.6-0.5-1.8-1.6-2.4-2.1
		C336,730.5,335.1,731.3,334.2,732 M299.4,741.5c-0.2,2.5-0.3,4.9-0.4,7.4c2.2,0,4.4,0,6.6,0c0.1-2.5,0.3-4.9,0.4-7.4
		C303.8,741.5,301.6,741.5,299.4,741.5 M201,749.9c10.5,0.5,21,0.2,31.6,0.2c-1.5-2.8-3.1-5.5-4.7-8.3c-7.4,0-14.9,0-22.3,0
		C204,744.4,202.4,747.1,201,749.9 M256,749.9c10.5,0.5,21,0.2,31.5,0.2c-1.5-2.8-3-5.6-4.6-8.3c-7.4,0-14.9,0-22.3,0
		C259,744.4,257.4,747.1,256,749.9 M468.4,741.8c-1.6,2.7-3.1,5.4-4.6,8.1c10.5,0.6,21.1,0.2,31.6,0.2c-1.5-2.8-3.1-5.5-4.7-8.3
		C483.2,741.8,475.8,741.7,468.4,741.8 M523.2,741.8c-1.6,2.7-3.1,5.4-4.6,8.1c10.5,0.6,21.1,0.2,31.6,0.2c-1.5-2.8-3.1-5.5-4.6-8.3
		C538.2,741.8,530.7,741.8,523.2,741.8 M318.1,745c-0.9,1.6-1.9,3.2-2.7,4.9c6.4,0.1,12.8,0.1,19.2,0.2c-0.9-1.7-1.9-3.4-2.9-5.1
		C327.2,745,322.6,745,318.1,745z"/>
	<path d="M231.7,454.5c2.3-0.1,4.8-0.6,6.9,0.8c2.7,2.1,2,6.8-0.7,8.6c-2.3,1.6-5.3,1.2-8,1.2C230.5,461.5,231.1,458,231.7,454.5z"
		/>
	<path d="M151.3,630.5c3.2-0.7,6.4-0.5,9.7-0.5c70.7,0,141.5,0,212.2,0c1.1,0,3.2,0.2,2.9,1.8c0.1,9.8,0.1,19.6,0,29.4
		c0.2,1.7-1.8,2.1-3,2c-73,0-146.1,0-219.1,0c-1.5,0.3-2.8-0.5-2.6-2.1C151.2,650.8,151.2,640.7,151.3,630.5 M164.7,632.5
		c-0.2,1-0.4,2-0.6,3c2.5,0,4.9,0,7.4,0c-1.2,6.7-2.4,13.5-3.6,20.2c1.1,0,2.2,0,3.4,0c1.2-6.8,2.4-13.5,3.6-20.2c2.5,0,5.1,0,7.6,0
		c0.2-1,0.4-2,0.5-3C177,632.5,170.9,632.5,164.7,632.5 M296.7,635.2c-0.2,1-0.5,2-0.7,3.1c-1,0.7-2,1.4-2.9,2.1
		c0.6,0.3,1.8,0.8,2.4,1.1c-0.5,4.4-3.4,9.1-1.2,13.3c2.1,1.8,7.5,2.3,7.7-1.5c-1.7-0.1-3.4-0.1-5.1-0.2c-0.3-4,1-7.9,1.7-11.9
		c2.2-0.2,5.2,0.6,5.5-2.4c-1.6,0-3.3-0.1-4.9-0.1c0.4-1.6,0.8-3.3,1.2-4.9C299.1,634.3,297.9,634.7,296.7,635.2 M182.8,644.7
		c-1.3,3.6-1,9.2,3.1,10.9c3,0.8,7.9,1,8.1-3.2c-2.3,0.3-4.8,1.9-6.9,0.2c-1.6-0.8-1.5-2.9-2.1-4.4c3.2,0.3,6.6,0.9,9.5-0.9
		c3-1.4,4-6,1.1-8C190.9,636.8,184.5,639.7,182.8,644.7 M201.1,639c0.3,5.7-1.3,11.2-2.2,16.8c0.8,0,2.4,0,3.2,0
		c0.7-4.3,1.5-8.5,2.2-12.8c1.8-1.6,5.4-3.1,6.5,0.1c-0.4,4.3-1.5,8.5-2.2,12.7c1.1,0,2.2,0,3.3,0c0.8-4.3,1.5-8.6,2.3-12.9
		c1.1-0.7,2.2-1.4,3.4-2c0.7,0.3,2.1,0.9,2.8,1.2c0.2,4.6-1.2,9.1-1.9,13.7c1.1,0,2.1,0,3.2,0c0.7-4.3,1.7-8.5,2.1-12.8
		c0.3-2.2-1.4-4.6-3.7-4.5c-2.1-0.5-4,0.8-5.8,1.5c-3.1-2.3-7-1.8-10.1,0l0-1.7C203.3,638.5,201.8,638.8,201.1,639 M227.9,639
		c0,8-2.5,15.8-3.5,23.7c0.8-0.1,2.3-0.3,3.1-0.4c0.6-2.3,0.9-4.7,1.3-7c2.2,0.5,4.5,1.2,6.7,0.3c4.1-1.2,6.4-5.5,6.6-9.6
		c0.3-2.4-0.1-5.4-2.5-6.7c-2.7-1.8-6-0.6-8.6,0.8l-0.1-1.7C230.2,638.6,228.6,638.9,227.9,639 M244.5,650.9
		c0.1,5.9,10.9,7.5,11.7,1.4c-2.2,0.3-4.8,1.9-6.9,0.3c-1.7-0.8-1.4-3-2-4.5c3.7,0.6,7.9,0.8,10.8-2c2.5-2.3,1.4-7.3-2.2-7.5
		C248.9,636.7,242.8,644.2,244.5,650.9 M264.5,639c-1.3,5.5-2,11.2-3.1,16.8c1.1,0,2.1,0,3.2,0c0.8-3.9,1-7.9,2.3-11.6
		c1.1-2.6,4-3.5,6.6-2.6c0.2-0.8,0.5-2.4,0.7-3.2c-2.7-0.1-5.2,0.9-7.3,2.6c0.2-0.6,0.5-1.8,0.7-2.4
		C266.8,638.6,265.3,638.8,264.5,639 M280.4,639.3c-4.6,2.5-6.9,8.6-5.5,13.6c1.5,4,6.6,3.5,9.7,1.8c1.3,0.5,2.6,1.1,4,1.5
		c-1.4-5.7,0.7-11.2,1.6-16.8C287,638.7,283.5,637.6,280.4,639.3 M307.3,640.8c-0.5,4-2,8.1-1.6,12.2c1.4,4.6,7.3,3.1,10.3,1
		l-0.7,1.7c0.8,0,2.5,0,3.4,0c1-5.7,2.2-11.5,3.1-17.2c-0.8,0.1-2.4,0.3-3.2,0.4c-1.1,3.6-1.2,7.5-2.4,11.1c-1.1,2.8-4.3,3.8-7,2.7
		c-0.4-4.8,1.1-9.5,1.8-14.2C309.2,638.7,307,638.5,307.3,640.8 M326.3,638.7c-1,5.7-2,11.3-2.9,17c1,0,2,0,3.1,0
		c0.8-3.9,1.1-7.9,2.4-11.6c1.1-2.7,4.1-3.4,6.6-2.6c0.2-0.8,0.5-2.4,0.7-3.2c-2.7-0.1-5.2,0.8-7.3,2.5c0.2-0.5,0.5-1.6,0.7-2.1
		C328.7,638.8,327.1,638.8,326.3,638.7 M337.5,651.9c1,5.1,10.9,6.1,11.4,0.4c-2.2,0.3-4.7,1.9-6.8,0.3c-1.7-0.8-1.5-2.9-2.2-4.4
		c3.9,0.5,8.9,0.8,11.5-2.8c2.2-2.7,0-7-3.4-6.9C340.8,637,335,645.4,337.5,651.9z"/>
	<path d="M390.3,630.4c1.5-0.6,3.2-0.4,4.8-0.5c72,0.1,144,0,216,0c1.4,0,3.7-0.2,3.4,2c0.1,9.7,0.1,19.3,0,29
		c0.4,2.3-1.9,2.1-3.4,2.1c-71,0-142,0-213,0c-2.6,0-5.3,0.2-7.8-0.4c-0.9-1.8-0.4-3.8-0.6-5.7c0.2-8.7-0.2-17.3,0.2-26L390.3,630.4
		 M508.4,632.7c-2.8,0.7-0.5,5.1,1.6,3.5C512.5,635.3,510.6,631.7,508.4,632.7 M527,632.1c-0.5,2.6-0.9,5.1-1.3,7.7
		c-1.8-0.7-3.7-1.9-5.7-1.2c-5.8,1.3-8.3,8.7-6.3,13.8c1.6,3.2,5.8,3,8.6,1.7c1.1,0.5,2.2,0.8,3.4,1c1.5-7.7,2.7-15.4,4.1-23.1
		C529.2,632.1,527.7,632.1,527,632.1 M535.5,632.4c-2.8,0.2-2.1,4.7,0.6,4C538.5,636,537.8,632.3,535.5,632.4 M440.8,654.9
		c0.8,0,2.5,0,3.3,0c0.6-3.5,1.2-7,1.9-10.5c3.1,0,6.3,0,9.4,0c-0.6,3.5-1.3,7-1.9,10.5c1.1,0,2.2,0,3.3,0
		c1.3-7.4,2.6-14.8,3.9-22.2c-0.8,0.1-2.4,0.3-3.2,0.4c-0.7,2.8-1,5.7-1.5,8.5c-3.2,0-6.4,0-9.5,0c0.5-3,1.1-6,1.6-8.9
		c-0.8,0.1-2.3,0.3-3.1,0.4C443.2,640.3,442.1,647.6,440.8,654.9 M544.3,635.4c-0.2,0.9-0.4,1.8-0.6,2.7c-1.1,0.8-2.1,1.8-2.9,2.9
		l2.4,0.2c-0.7,3.7-2,7.3-2,11c0.5,3.6,4.8,2.9,7.5,2.9c0.1-0.7,0.3-2,0.4-2.7c-1.7,0-3.8,0.6-4.8-1.2c0.2-3.4,1.2-6.7,1.8-10
		c1.5,0,2.9,0,4.4,0c0.1-0.6,0.4-1.8,0.5-2.4c-1.5,0-2.9,0-4.4,0c0.4-1.6,0.7-3.2,1.1-4.7C546.9,634.4,545.2,635.1,544.3,635.4
		 M463.5,639c-0.9,4.3-2.1,8.7-2,13.1c1,4.6,6.9,3.3,9.8,1.2l-0.6,1.6c0.8,0,2.4,0,3.2,0c0.9-5.5,2-10.9,2.9-16.3
		c-0.8,0.1-2.3,0.3-3.1,0.4c-1.1,3.6-1,7.6-2.5,11.1c-1.1,2.7-6.8,3.9-6.6-0.1c0.4-3.9,1.3-7.7,1.9-11.5
		C465.7,638.6,464.2,638.9,463.5,639 M480.1,639.3c-0.2,5.3-1.3,10.4-2.2,15.6c0.8,0,2.3,0,3.1,0c0.7-4,1.4-8.1,2.1-12.1
		c1.7-1.3,3.6-1.9,5.7-1.5c0.4,4.6-1,9-1.8,13.5c1.1,0,2.1,0,3.2,0c0.7-3.8,1.2-7.7,2.1-11.5c0.6-2.6,5.4-3.5,5.9-0.4
		c-0.3,4-1.3,7.9-1.9,11.9c0.8,0,2.3,0,3.1,0c0.6-4.3,1.8-8.5,2-12.8c-0.4-4.6-6.1-4-9.1-2.1c-3-1.9-6.6-1.8-9.5,0.1
		c-0.1-0.5-0.3-1.5-0.4-2C481.9,638.4,480.7,639,480.1,639.3 M504.4,641.1c0.6,0,1.9,0.1,2.5,0.2c-0.8,4.5-1.6,9-2.4,13.6
		c0.8,0,2.2,0,3,0c1-5.4,2-10.8,3-16.2C508.1,638.9,504.8,637.8,504.4,641.1 M531.3,641.3c0.5,0,1.6,0,2.1,0
		c-0.8,4.5-1.6,9.1-2.4,13.6c0.8,0,2.3,0,3.1,0c0.9-5.4,1.9-10.8,2.8-16.1c-1.7,0-3.4,0-5,0C531.6,639.6,531.4,640.4,531.3,641.3
		 M552.5,638.7c1.6,5.7,0.4,12.6,4.8,17.2c-1.6,1.4-3.5,2.2-5.6,2.5c0,0.7,0.1,2.2,0.1,3c2.6-0.5,5.9-0.6,7.2-3.4
		c3.2-6.3,5.8-12.9,8.7-19.2c-0.8,0-2.5,0-3.3,0c-2,4.6-3.8,9.2-6.2,13.7c-1.5-4.4-1.8-9.1-2.5-13.7
		C554.9,638.8,553.3,638.7,552.5,638.7z"/>
	<path d="M185.6,645.7c1.4-2.2,3.2-5.2,6.3-4.7c1.5-0.1,2.4,0.7,2.6,2.3C193,646.8,188.7,646.1,185.6,645.7z"/>
	<path d="M234.2,641.1c5-1,5.7,5.5,3.8,8.8c-1.1,3.3-6.4,5.2-8.7,2.4C230.3,648.5,229,642,234.2,641.1z"/>
	<path d="M247.7,645.6c1.5-2.2,3.2-5,6.2-4.7c1.6-0.1,2.5,0.7,2.9,2.2C255.1,646.7,250.8,646.2,247.7,645.6z"/>
	<path d="M278.4,652.8c-2.6-5.3,1.8-13.6,8.4-11.9c-0.4,3.5-0.8,7.2-2.6,10.3C283.2,653.2,280.2,654.5,278.4,652.8z"/>
	<path d="M344.3,641.3c1.6-0.6,3.3-0.1,4.9,0c1,5-5.3,5.2-8.7,4.4C341.6,644.1,342.5,642.1,344.3,641.3z"/>
	<path d="M520.3,641.3c2-1.1,5.2,0.2,4.7,2.7c-0.3,3.5-1.2,8.6-5.6,8.9C514,651.7,515.8,642.8,520.3,641.3z"/>
	<path d="M166.8,697.9c-0.4-2.8,4.4-2.6,4,0.1c0.1,8.6,0,17.1,0,25.7c2.2,1.3,4.5,2.9,5,5.5c1.3,4.3-2.3,9.2-6.9,9.1
		c-4.7,0.4-8.7-4.8-7.2-9.3c0.5-2.6,2.9-4,5-5.4C166.8,715.1,166.7,706.5,166.8,697.9z"/>
	<path d="M287.3,1085c6.1,0.2,12.3-0.6,18.3,0.6c7.7,2.3,8.1,14.7,1.1,18.1c-4.1,1.8-8.7,1.1-13,1.3c0,4,0,8,0,12
		c-2.2,0-4.3,0-6.4,0C287.3,1106.3,287.3,1095.7,287.3,1085 M293.7,1090.5c0,3,0,6.1,0,9.1c3-0.1,6.2,0.3,9.1-0.8
		c3-1.4,3-6.2,0.1-7.6C299.9,1090.1,296.7,1090.6,293.7,1090.5z"/>
	<path d="M318.6,1085c3.2,0,6.5,0,9.7,0c2,7.3,3.9,14.6,5.8,21.9c1.9-7.3,3.8-14.6,5.7-21.9c3.2,0,6.5,0,9.7,0c0,10.7,0,21.3,0,32
		c-2,0-4,0-6,0c-0.1-8.4-0.2-16.9-0.2-25.3c-2.1,8.4-4.1,16.9-6.2,25.3c-2.1,0-4.1,0-6.2,0c-2-8.2-3.9-16.5-6-24.7
		c-0.2,8.2-0.1,16.5-0.3,24.7c-2,0-4,0-6,0C318.6,1106.3,318.6,1095.7,318.6,1085z"/>
	<path d="M361.9,1086.8c3.9-2.5,9.4-2.6,13.2,0.1c3.4,2.4,4.3,7.2,2.7,10.8c-2.3,5.6-8,8.7-11.8,13.2c4.2,0.1,8.4,0.1,12.6,0.1
		c0,2,0,4,0,6c-7.2,0-14.5,0.1-21.7-0.1c1.6-8,8.9-12.5,13.9-18.2c2.4-2.4,2.2-7.8-1.8-8.2c-3.2-0.8-4.7,2.5-5.4,5
		c-2-0.2-4-0.4-5.9-0.6C358.4,1091.9,359.1,1088.6,361.9,1086.8z"/>
	<path d="M436.6,1085c3.2,0,6.5,0,9.7,0c2,7.3,3.9,14.6,5.8,21.9c1.9-7.3,3.8-14.6,5.7-21.9c3.2,0,6.5,0,9.7,0c0,10.7,0,21.3,0,32
		c-2,0-4,0-6,0c-0.1-8.4-0.2-16.9-0.2-25.3c-2.1,8.4-4.1,16.9-6.2,25.3c-2.1,0-4.1,0-6.2,0c-2-8.3-3.9-16.6-6-24.8
		c-0.2,8.3-0.1,16.5-0.2,24.8c-2,0-4,0-6,0C436.6,1106.3,436.6,1095.7,436.6,1085z"/>
	<path d="M400.7,1103.2c1-5.9,2.1-11.8,3.1-17.7c5.4,0,10.8,0,16.1,0c0,2,0,4,0,6c-3.8,0-7.7,0-11.5,0c-0.3,1.7-0.7,3.4-1,5.2
		c3-0.6,6.5-1.2,9.2,0.7c5.8,3.4,6.3,12.3,1.7,16.9c-4,4.3-11.7,4.4-15.6,0c-1.7-1.8-2.2-4.3-2.9-6.5c2-0.2,3.9-0.5,5.9-0.7
		c1.1,2.2,2.3,5.4,5.4,4.9c5-0.4,5.7-9,0.9-10.3c-2.5-0.9-4.7,1-6.7,2.2C403.8,1103.7,402.2,1103.4,400.7,1103.2z"/>
	<path d="M536.2,1086.5c2,0,4.1,0,6.1,0c0,1.8,0,3.7,0,5.5c-2,0-4.1,0-6.1,0C536.2,1090.2,536.2,1088.3,536.2,1086.5z"/>
	<path d="M552.4,1089c2.1-1.2,4.1-2.4,6.2-3.6c0,2.7,0,5.3,0,8c1.4,0,2.8,0,4.1,0c0,1.5,0,3,0,4.5c-1.4,0-2.8,0-4.2,0
		c0.1,4.8-0.4,9.8,0.4,14.6c1.2,0.4,2.5,0.4,3.8,0.2c0.1,1.4,0.2,2.8,0.4,4.3c-2.9,0.2-6.1,1.1-8.7-0.6c-1.5-1-1.7-2.9-1.9-4.5
		c-0.3-4.6-0.1-9.2-0.1-13.9c-0.7,0-2.1,0-2.7-0.1c0-1.5,0-3,0-4.4c0.7,0,2.1-0.1,2.8-0.1C552.4,1092,552.4,1090.5,552.4,1089z"/>
	<path d="M483.4,1093.7c7.5-3.1,16.7,3,16.2,11.3c0.8,8.4-8.6,15.1-16.3,11.8C473.1,1113.7,473.4,1096.8,483.4,1093.7 M485.2,1098.1
		c-5.2,3.3-4.4,14.8,2.8,14.9c5.1-0.5,6-6.9,4.9-10.9C492.4,1098.7,488.4,1096.2,485.2,1098.1z"/>
	<path d="M505.1,1093.5c1.9,0,3.8,0,5.7,0c0,0.7-0.1,2.2-0.2,3c2.2-1.5,4.4-3.5,7.3-3.5c3.6-0.3,7.8,2,8,5.9c0.5,6,0.1,12,0.2,18.1
		c-2.1,0-4.1,0-6.2,0c-0.2-5.6,0.4-11.2-0.3-16.8c-0.7-4.2-7.1-3.2-7.8,0.5c-1.1,5.4-0.3,10.9-0.5,16.3c-2.1,0-4.1,0-6.2,0
		C505.1,1109.2,505.1,1101.3,505.1,1093.5z"/>
	<path d="M574.4,1093.5c5.6-1.8,12.4,0.8,14.7,6.4c2.4,5.7,0.6,13.2-5.1,16.2c-4.3,2.3-10,1.7-13.8-1.3
		C563.5,1109.1,565.5,1095.9,574.4,1093.5 M575.4,1098.3c-4.6,3.5-4,13.8,2.6,14.7c5.1,0.1,6.6-6.1,5.7-10.1
		C583.4,1099.1,578.8,1095.8,575.4,1098.3z"/>
	<path d="M601.4,1096.5c1.2-1.1,2.2-2.4,3.6-3.2c2-0.8,4,0.2,6,0.6c-0.6,1.9-1.2,3.8-1.9,5.7c-2.1-0.4-5.1-1.3-6,1.4
		c-1.6,5.1-0.8,10.7-1,16c-2.1,0-4.1,0-6.2,0c0-7.8,0-15.7,0-23.5c1.9,0,3.8,0,5.8,0C601.6,1094.3,601.4,1095.8,601.4,1096.5z"/>
	<path d="M536.2,1095c2,0,4.1,0,6.1,0c0,7.8,0,15.7,0,23.5c-2,0-4.1,0-6.1,0C536.2,1110.7,536.2,1102.8,536.2,1095z"/>
	<path d="M385.2,1111c2,0,4.1,0,6.1,0c0,2,0,4,0,6c-2,0-4.1,0-6.1,0C385.2,1115,385.2,1113,385.2,1111z"/>
	<path d="M396.9,1206c0-1.7,0-4.4,2.2-4.6c5.3-0.4,10.7-0.3,16-0.1c2.8,0.1,5,1.8,7,3.6c6.2,5.5,12.4,11.1,18.7,16.5
		c6.7-5.9,13.3-11.9,20.1-17.7c3-2.8,7.4-2.5,11.2-2.5c3.5,0.1,7.1-0.2,10.6,0.3c2.2,0.2,2,2.8,2.1,4.4c-0.1,11.3,0.2,22.7-0.1,34.1
		c0.1,3-3.6,2.5-5.6,2.6c-10.6-0.2-21.3,0.4-31.9-0.4c2.9-3.7,6.3-7.1,10.2-9.6c4.6-0.9,9.6,0.7,14.1-0.9c0.5-6.7,0.2-13.5,0.1-20.2
		c-10.9,8.7-20.9,18.6-31.5,27.6c-6,5.5-14.7,2.7-22,3.1c4.1-4.4,8.8-8.1,13.2-12.1c-7.1-6.2-13.8-12.8-21.2-18.6
		c-0.2,6.9-0.2,13.8,0,20.7c3.4,0.2,6.7,0.2,10.1,0.6c-3,3.5-6.3,7-10.2,9.5c-3.9,0.5-8,0.5-11.9-0.1c-1.4-0.9-1.1-2.7-1.2-4.1
		C396.9,1227.4,396.9,1216.7,396.9,1206z"/>
	<path d="M337.1,1255.2c2.3-0.1,4.5-0.2,6.8,0.1c2.5,1.2,4.3,3.3,6.3,5.1c3.3-3.7,8-7.1,13.1-4.7c0.8,6,0.2,12.1,0.2,18.1
		c-2.1,0.1-4.2,0.2-6.2-0.1c-0.5-3.6-0.3-7.3-0.3-11c-2.3,2-4.5,4.1-6.9,5.9c-2.3-2-4.5-4-6.7-6c-0.1,3.7,0.5,7.5-0.5,11.1
		c-2,0.2-3.9,0.1-5.9,0.1C336.7,1267.6,336.7,1261.4,337.1,1255.2z"/>
	<path d="M366.9,1257c-0.2-1.7,2-1.6,3-1.7c7.6-0.1,15.3-0.1,22.9,0c0,1.6,0,3.1,0,4.7c-6.5,0.1-13,0-19.5,0.1
		c-0.1,2.9-0.1,5.8,0,8.8c6.5,0.3,13,0,19.5,0.2c0,1.6,0,3.1,0,4.7c-8.7,0-17.4,0.6-26-0.4C366.8,1268,366.5,1262.5,366.9,1257z"/>
	<path d="M396.5,1255.6c5.1-0.9,10.3-0.2,15.5-0.4c3.3,0.2,6.8-0.6,9.9,0.7c0.4,5.6,0.4,11.3,0,17c-1.5,1.6-4,0.9-5.9,1.1
		c-6.6-0.3-13.3,0.5-19.8-0.4c-1-1.3-0.6-3.1-0.7-4.6c0-4.4-0.2-8.8,0.3-13.1L396.5,1255.6 M402,1260.2c0,3,0,5.9,0,8.9
		c4.6,0,9.2,0,13.7,0c0-3,0-6,0-9C411.2,1260.1,406.6,1260.1,402,1260.2z"/>
	<path d="M429.1,1255.6c2.1-0.2,4.2-0.5,6.2,0c0.6,3.2,0.4,6.5,0.4,9.7c4.5,0,9.1,0,13.6,0c0-3.2-0.2-6.4,0.3-9.6
		c1.9-0.6,4.5-1.1,6,0.4c0.4,6,0.3,12-0.1,18c-1.9-0.1-3.9-0.1-5.8-0.1c-0.2-1.3-0.4-2.6-0.5-3.8c-4.4,0-8.9,0-13.3,0
		c-0.2,1.2-0.4,2.5-0.6,3.8c-2,0-3.9,0.1-5.9,0.1C428.9,1267.9,429.2,1261.7,429.1,1255.6z"/>
	<path d="M460.3,1255.5c6.5-0.6,13.1-0.1,19.7-0.3c1.8,0.2,4.1-0.4,5.5,1c0.4,5.2,0.3,10.6,0.1,15.8c0,2.4-3,1.8-4.6,2
		c-6.9-0.2-13.9,0.4-20.8-0.3c-0.2-0.2-0.7-0.7-0.9-0.9c-0.5-4.6-0.2-9.3-0.2-13.9C459.3,1257.7,458.8,1256,460.3,1255.5
		 M465.7,1260.3c0,2.9,0,5.8,0,8.7c4.5,0,9,0,13.5,0c0-2.9,0-5.8,0-8.7C474.7,1260.2,470.2,1260.2,465.7,1260.3z"/>
	<path d="M489.5,1255.5c2.9-0.6,6.6-1.1,9,1.2c1.4,1.2,2.8,2.5,4.2,3.7c2.1-1.8,3.8-4.1,6.4-5.1c2.2-0.1,5-0.9,6.8,0.7
		c0.4,5.9,0.1,11.9,0,17.8c-2-0.2-4.5,0.6-6.2-0.6c-0.6-3.5-0.2-7.1-0.3-10.6c-2.1,1.9-4.1,4-6.5,5.5c-2.9-0.7-4.8-3.8-7.2-5.6
		c-0.1,3.7,0.2,7.4-0.2,11c-2,0.4-4.1,0.2-6.2,0.2C489.3,1267.7,489,1261.6,489.5,1255.5z"/>
	<path d="M519.5,1257.1c0.1-2.3,2.9-1.7,4.4-1.9c7.2,0,14.4-0.1,21.6,0.1c0,1.5,0,3.1,0,4.6c-6.3,0.5-12.7-0.2-18.9,0.4
		c-0.3,0.4-1,1.3-1.3,1.8c6.8,0.3,13.5,0,20.2,0.2c0,1.5,0,3,0,4.6c-6.7,0.4-13.5,0-20.2,0.3c0.8,1.3,2,2.1,3.6,1.8
		c5.5,0.1,11.1-0.1,16.6,0.1c0,1.5,0,3.1,0,4.6c-8.5,0.1-17,0.6-25.5-0.2C518.6,1268.3,519.5,1262.6,519.5,1257.1z"/>
</g>
<g id="_x23_ffffffff">
	<path class="st0" d="M433.8,268.6c7.2,0,14.4-0.1,21.6,0.1c-1.3,1.9-2.6,3.8-3.8,5.8c-5,0-9.9,0-14.9,0
		C435.7,272.5,434.7,270.6,433.8,268.6z"/>
	<path class="st0" d="M483.3,273.8c0-2,1.4-3.6,2.5-5.2c1.1,2.3,2.6,4.4,3.2,6.9c-0.1,4.4-0.7,8.7-1,13c-1.3,1-2.5,1.9-3.8,2.9
		c-0.8-0.7-1.5-1.4-2.3-2.1C482.4,284.2,482.8,279,483.3,273.8z"/>
	<path class="st0" d="M488.2,268.6c7.2,0,14.4-0.1,21.5,0.1c-1.3,1.9-2.6,3.8-3.9,5.8c-4.9,0-9.9,0-14.9,0
		C490.1,272.5,489.1,270.6,488.2,268.6z"/>
	<path class="st0" d="M523,274c0-2.1,1.3-3.7,2.4-5.3c1.2,2.1,2.4,4.2,3.3,6.5c0,4.5-0.7,8.9-1,13.4c-1.3,1-2.6,2-3.8,2.9
		c-0.8-0.7-1.5-1.5-2.2-2.2C522.1,284.2,522.4,279,523,274z"/>
	<path class="st0" d="M527.9,268.6c7.2,0,14.4-0.1,21.6,0.1c-1.3,1.9-2.5,3.9-3.8,5.8c-5,0-10,0-15,0
		C529.7,272.5,528.8,270.6,527.9,268.6z"/>
	<path class="st0" d="M413.3,276.5c1.1-2.2,2.7-4.2,4.2-6.2c3.5,5.9,0.4,12.9,0.5,19.2c-1,0.8-2,1.6-3,2.4c-1-0.9-2-1.8-3-2.8
		C412.5,284.9,412.6,280.7,413.3,276.5z"/>
	<path class="st0" d="M457,270.2c0.7,1.5,1.9,3,1.8,4.8c-0.2,4.8-0.9,9.6-1.2,14.5c-1,0.8-2,1.6-3,2.4c-1-0.9-2-1.8-3-2.8
		c0.3-3.4,0.6-6.8,0.9-10.3C452.6,275.4,455.3,273,457,270.2z"/>
	<path class="st0" d="M507.2,276.7c1.1-2.3,2.7-4.3,4.2-6.4c0.7,1.5,1.8,2.9,1.8,4.7c-0.2,4.9-0.8,9.7-1.2,14.5c-1,0.8-2,1.6-3,2.4
		c-1-0.9-2-1.8-3-2.7C506.4,285,506.6,280.8,507.2,276.7z"/>
	<path class="st0" d="M546.6,278.9c0.1-3.4,2.8-5.9,4.5-8.6c0.7,1.5,1.9,3,1.8,4.7c-0.2,4.8-0.9,9.6-1.2,14.5c-1,0.8-2,1.6-3,2.4
		c-1-0.9-2-1.8-3-2.8C546,285.7,546.2,282.3,546.6,278.9z"/>
	<path class="st0" d="M467,278.5c2.4,0,4.9,0,7.3,0c-0.2,2.9-0.5,5.8-0.7,8.6c-2.4,0-4.9,0-7.3,0C466.5,284.2,466.8,281.4,467,278.5
		z"/>
	<path class="st0" d="M431.3,293c1.2-1,2.4-1.9,3.7-2.9c4.9,0,9.8,0,14.7,0c1.1,1,2.2,2.1,3.3,3.1c-1.2,0.9-2.3,1.8-3.5,2.7
		c-5,0-10.1,0-15.1,0C433.3,295,432.3,294,431.3,293z"/>
	<path class="st0" d="M411.3,297.8c1.2-1,2.4-2,3.6-2.9c0.8,0.7,1.6,1.5,2.3,2.2c-0.5,5-0.8,10.1-1.3,15.1c0,2-1.4,3.5-2.4,5
		c-1.2-1.8-2.3-3.7-3.5-5.6C410.5,307,410.9,302.4,411.3,297.8z"/>
	<path class="st0" d="M427,296.4c0.9-0.7,1.8-1.4,2.7-2c1,1,2.1,2,3.2,3c-0.3,3.2-0.5,6.5-0.9,9.7c-0.2,3.9-3.2,6.9-5,10.1
		c-0.4-0.8-1.1-2.4-1.5-3.2C425.7,308,426.6,302.2,427,296.4z"/>
	<path class="st0" d="M481.4,296.4c0.9-0.7,1.8-1.4,2.7-2.1c1.1,1,2.1,2,3.2,3.1c-0.4,3.8-0.5,7.7-1.1,11.5c-1,3-3,5.5-4.7,8.2
		c-0.5-1.3-1.7-2.5-1.5-4C480.3,307.5,481,302,481.4,296.4z"/>
	<path class="st0" d="M505.2,297.8c1.2-1,2.4-2,3.6-3c0.8,0.7,1.6,1.5,2.4,2.2c-0.5,5-0.8,10-1.3,15c-0.1,2-1.4,3.5-2.4,5.1
		c-1.3-1.8-2.4-3.7-3.6-5.6C504.4,307,504.8,302.4,505.2,297.8z"/>
	<path class="st0" d="M521.1,296.4c0.9-0.7,1.8-1.4,2.7-2.1c1.1,1,2.1,2,3.1,3c-0.2,2.9-0.5,5.9-0.7,8.8c0.1,4.3-3.1,7.5-5.1,11
		c-0.7-1.6-1.8-3.3-1.4-5.1C520.1,306.8,520.6,301.6,521.1,296.4z"/>
	<path class="st0" d="M544.9,297.8c1.2-1,2.4-2,3.7-2.9c0.8,0.8,1.5,1.5,2.3,2.3c-0.5,5-0.8,10-1.3,15c0,2-1.5,3.5-2.5,5.1
		c-1.3-2.6-3.9-5-3.1-8.1C544.2,305.3,544.6,301.5,544.9,297.8z"/>
	<path class="st0" d="M465,300.2c2.5,0,5,0,7.4,0c-0.3,2.9-0.5,5.8-0.8,8.7c-2.5,0-5,0-7.4,0C464.5,306.1,464.8,303.2,465,300.2z"/>
	<path class="st0" d="M429.3,318c1.1-2,2.2-4,3.3-6c5,0,9.9,0,14.9,0c1.1,2,2.2,4,3.3,6C443.7,318,436.5,318,429.3,318z"/>
	<path class="st0" d="M487,312c5,0,9.9,0,14.9,0c1.1,2,2.2,3.9,3.3,5.9c-7.2,0.1-14.4,0.1-21.6,0C484.8,316,485.9,314,487,312z"/>
	<path class="st0" d="M523.4,317.9c1.1-2,2.2-4,3.3-5.9c5,0,9.9,0,14.9,0c1.1,2,2.2,4,3.3,6C537.8,318,530.6,318,523.4,317.9z"/>
	<path class="st0" d="M147.4,339.2c0-1.9,0-3.8,0-5.6c200.5,0,400.9,0,601.4,0c0,1.9,0,3.8,0,5.6
		C548.3,339.2,347.8,339.2,147.4,339.2z"/>
	<path class="st0" d="M228.6,451.4c3.9-0.3,8.2-0.9,11.9,0.9c4.8,2.4,4.7,9.8,1,13.2c-3.2,3.2-8,3-12.2,2.7
		c-0.5,3.4-1.1,6.8-1.7,10.2c-1.3,0-2.7,0-4,0C225.3,469.4,227,460.4,228.6,451.4 M231.7,454.5c-0.6,3.5-1.3,7-1.8,10.5
		c2.7,0,5.6,0.4,8-1.2c2.8-1.8,3.4-6.5,0.7-8.6C236.6,453.9,234,454.4,231.7,454.5z"/>
	<path class="st0" d="M266.9,451.4c0.5,0,1.5-0.1,2.1-0.2c0.4,9,0.5,18.1,0.8,27.1c-1.3,0-2.6,0-3.9,0c-0.1-5.5-0.3-11-0.3-16.5
		c-3.1,5.7-5.9,11.5-9.2,17.1c-0.1-0.1-0.4-0.3-0.5-0.4c-1.3-5.5-1.9-11.2-3-16.7c-2,5.5-4.1,11-6.1,16.5c-0.9,0-2.7,0-3.6,0
		c2.9-8.2,5.8-16.3,8.7-24.5c0.3-1.4,1.4-2.3,2.4-3.2c1.5,6.4,2.2,12.9,3.3,19.4C260.8,463.9,263.8,457.6,266.9,451.4z"/>
	<path class="st0" d="M275,454.8c2.7-4.2,8.5-5,12.6-2.6c3,2.1,2.7,6.5,0.9,9.3c-3,4.8-6.7,9-10,13.5c3.3,0,6.6,0,9.9,0
		c-0.2,0.8-0.5,2.5-0.6,3.4c-5.2,0-10.4,0.1-15.5-0.1c3.6-7.6,11-12.8,13.8-20.8c-0.4-0.7-1-2-1.4-2.7c-2.6-0.9-5.2-0.1-7.2,1.8
		C276.9,456.1,275.7,455.2,275,454.8z"/>
	<path class="st0" d="M303.4,451.2c4.5,0,9,0,13.5,0c-0.2,1.1-0.4,2.2-0.6,3.2c-3.3,0-6.5,0-9.8,0c-0.4,2-0.7,4-1.1,6
		c2.7-0.5,5.9-0.9,8,1.2c3,3,1.9,7.8,0.7,11.4c-2.4,6-10.5,7-15.5,4c0.5-1.2,1.1-2.3,1.6-3.5c1.8,0.8,3.7,2.4,5.9,1.7
		c5.8-0.8,7.4-10.6,1.4-12.4c-2.1,0.6-4.2,1.3-6.2,1.9C301.7,460.3,302.6,455.8,303.4,451.2z"/>
	<path class="st0" d="M291.4,475.4c0.7-1.9,3.1-1.1,4.5-0.9c0.1,1.5,1,4.2-1.2,4.7C292.6,480.5,289.9,477.4,291.4,475.4z"/>
	<path class="st0" d="M309.8,488.8c13.4-0.1,26.8,0,40.2-0.1c2.3,0,4.7,0.1,7,0.5c-2.6,4.1-5.4,8.1-8.1,12.2c-11,0-22,0-32.9,0
		C313.9,497.2,311.8,493,309.8,488.8z"/>
	<path class="st0" d="M397.4,488.8c13.2-0.1,26.4,0,39.6-0.1c2.5,0,5,0.1,7.5,0.5c-2.6,4.1-5.4,8.1-8.1,12.2c-11,0-21.9,0-32.9,0
		C401.4,497.2,399.3,493,397.4,488.8z"/>
	<path class="st0" d="M484.9,488.9c10.4-0.4,20.8-0.1,31.1-0.2c5.3,0.1,10.8-0.3,16,0.6c-2.6,4.1-5.4,8.1-8.1,12.1
		c-11,0-21.9,0-32.9,0C489,497.3,487,493.1,484.9,488.9z"/>
	<path class="st0" d="M386.7,498.5c0.4-3.6,2.8-6.5,5.4-8.9c2.1,4.2,4.2,8.5,6.3,12.8c0.8,1.3,0.4,2.8,0.4,4.2
		c-0.8,8.7-1.5,17.4-2.3,26.1c-2.8,2.1-5.5,4.3-8.3,6.4c-1.6-1.6-3.2-3.2-4.8-4.8C384.6,522.3,385.5,510.4,386.7,498.5z"/>
	<path class="st0" d="M474.2,498.9c0.3-3.8,2.7-6.8,5.5-9.3c2.2,4.7,4.9,9.3,6.8,14.2c-0.6,9.6-1.6,19.3-2.4,28.9
		c-2.7,2.1-5.5,4.2-8.2,6.3c-1.6-1.6-3.2-3.1-4.8-4.7C472.1,522.5,473.1,510.7,474.2,498.9z"/>
	<path class="st0" d="M351.6,506.5c2.7-4.7,5.9-9,9-13.5c2.4,2.7,4.4,6.1,4.1,9.9c-0.8,10.6-1.9,21.2-2.8,31.9
		c-2.1,1.7-4.3,3.5-6.5,5.2c-2.2-2-4.3-4-6.4-5.9C350,524.8,350.5,515.6,351.6,506.5z"/>
	<path class="st0" d="M439.2,506.4c2.7-4.6,5.9-8.9,8.9-13.4c2.4,2.8,4.4,6.2,4.1,10c-0.7,10.6-1.9,21.2-2.7,31.8
		c-2.1,1.7-4.3,3.5-6.5,5.2c-2.1-2-4.2-3.9-6.4-5.9C437.6,524.8,438.1,515.6,439.2,506.4z"/>
	<path class="st0" d="M312.4,536.2c10.7,0,21.3,0,32,0c2.4,2.3,4.9,4.5,7.3,6.8c-2.5,2-5,4.1-7.5,6.1c-11.1,0-22.2,0-33.3,0
		c-2.2-2.2-4.4-4.4-6.7-6.6C307,540.4,309.7,538.3,312.4,536.2z"/>
	<path class="st0" d="M400,536.4c10.6-0.3,21.3,0,31.9-0.1c2.5,2.3,4.9,4.5,7.3,6.8c-2.7,1.9-5,4.5-7.9,6c-10.9,0.2-21.8,0-32.8,0.1
		c-2.2-2.2-4.5-4.4-6.8-6.6C394.6,540.5,397.1,538.1,400,536.4z"/>
	<path class="st0" d="M479.8,542.3c2.6-2.1,5.3-4.1,8-6.2c10.8,0,21.5,0,32.2,0c2.4,2.2,4.8,4.5,7.2,6.7c-2.5,2-5,4-7.5,6
		c-11.1,0-22.2,0-33.3,0C484.2,546.7,482,544.5,479.8,542.3z"/>
	<path class="st0" d="M382.2,550.1c1.9-1.5,3.8-3,5.8-4.5c2.3,2.3,4.5,4.5,6.8,6.8c-0.8,8.8-1.3,17.5-2.4,26.2
		c-2.9,5.6-6.3,11-9.4,16.5c-2.4-2.4-4.4-5.6-3.9-9.1C380.1,574,381.2,562,382.2,550.1z"/>
	<path class="st0" d="M347.5,552.8c2.6-2.1,5.2-4.2,7.8-6.3c1.8,1.6,3.5,3.2,5.3,4.9c-1.1,11.6-2,23.2-3.1,34.8
		c-0.3,3.8-2.8,6.8-5.6,9.1c-2.4-4-4.7-8.1-7-12.1C345.7,573,346.6,562.8,347.5,552.8z"/>
	<path class="st0" d="M435,552.8c2.6-2.1,5.1-4.3,7.8-6.3c1.8,1.6,3.5,3.2,5.2,4.9c-1.1,11.6-2,23.2-3.1,34.8
		c-0.3,3.8-2.9,6.7-5.5,9.1c-2.4-4-4.7-8.1-7.1-12.1C433.2,573,434.1,562.9,435,552.8z"/>
	<path class="st0" d="M522.7,552.8c2.6-2.1,5.1-4.2,7.7-6.3c1.8,1.6,3.5,3.2,5.3,4.8c-1.1,11.6-2,23.2-3.1,34.8
		c-0.3,3.8-2.9,6.8-5.6,9.1c-2.4-4-4.7-8.1-7-12.1C520.8,573,521.7,562.9,522.7,552.8z"/>
	<path class="st0" d="M307.1,584.5c10.9,0,21.8,0,32.7,0c2.5,4.2,4.9,8.5,7.4,12.8c-9.7,0.5-19.5,0.1-29.2,0.2
		c-6.1-0.1-12.2,0.3-18.2-0.3C302.2,592.9,304.7,588.7,307.1,584.5z"/>
	<path class="st0" d="M387.5,597.1c2.4-4.2,4.9-8.4,7.4-12.6c10.9,0,21.8,0,32.7,0c2.4,4.2,4.9,8.5,7.4,12.7
		c-8.9,0.6-17.9,0.1-26.9,0.3C401.2,597.3,394.3,597.9,387.5,597.1z"/>
	<path class="st0" d="M450.5,585.4c3.6,0,7.2,0,10.9,0c-0.2,4-0.4,8.1-0.6,12.1c-3.6,0-7.2,0-10.9,0
		C450.1,593.5,450.4,589.4,450.5,585.4z"/>
	<path class="st0" d="M475,597.1c2.4-4.2,4.9-8.4,7.4-12.6c10.9,0,21.8,0,32.7,0c2.5,4.2,4.9,8.5,7.4,12.8
		c-9.5,0.5-18.9,0.1-28.4,0.2C487.7,597.4,481.3,597.9,475,597.1z"/>
	<path class="st0" d="M152.2,627.4c73.3-0.3,146.6,0,219.8-0.1c1.9,0,4-0.1,5.4,1.3c1.6,1.3,1.4,3.5,1.4,5.4c-0.1,9,0,18.1,0,27.1
		c0.3,2.6-2.2,5-4.8,4.8c-73.4,0-146.8,0-220.1,0c-2.9,0.5-5.8-2-5.5-5c0-9.6,0-19.2,0-28.8C148.3,629.8,149.9,627.6,152.2,627.4
		 M151.3,630.5c-0.1,10.2-0.1,20.3,0,30.5c-0.2,1.6,1.1,2.4,2.6,2.1c73,0,146.1,0,219.1,0c1.2,0.2,3.2-0.3,3-2
		c0.1-9.8,0.1-19.6,0-29.4c0.3-1.6-1.8-1.8-2.9-1.8c-70.7-0.1-141.5,0-212.2,0C157.8,630,154.5,629.8,151.3,630.5z"/>
	<path class="st0" d="M390.3,627.4c73.9-0.4,147.8-0.1,221.7-0.2c2.7-0.3,5.5,1.9,5.3,4.8c0.1,9.7,0.1,19.3,0,29
		c0.2,2.9-2.5,5.3-5.3,4.9c-73.4,0-146.8,0-220.2,0c-2.7,0.3-5.2-2.1-5-4.8c-0.1-9.4,0-18.7,0-28.1
		C386.6,630.6,387.8,627.9,390.3,627.4 M390.3,630.4l-0.5,0.6c-0.4,8.6,0,17.3-0.2,26c0.1,1.9-0.4,4,0.6,5.7
		c2.6,0.6,5.2,0.3,7.8,0.4c71,0,142,0,213,0c1.5,0,3.8,0.1,3.4-2.1c0.1-9.7,0.1-19.4,0-29c0.3-2.1-2-1.9-3.4-2c-72,0-144,0-216,0
		C393.4,630,391.8,629.8,390.3,630.4z"/>
	<path class="st0" d="M164.7,632.5c6.1,0,12.2,0,18.4,0c-0.2,1-0.4,2-0.5,3c-2.5,0-5.1,0-7.6,0c-1.2,6.8-2.4,13.5-3.6,20.2
		c-1.1,0-2.2,0-3.4,0c1.2-6.8,2.4-13.5,3.6-20.2c-2.5,0-4.9,0-7.4,0C164.4,634.5,164.5,633.5,164.7,632.5z"/>
	<path class="st0" d="M508.4,632.7c2.1-1,4,2.6,1.6,3.5C508,637.7,505.6,633.4,508.4,632.7z"/>
	<path class="st0" d="M527,632.1c0.7,0,2.1,0,2.8,0c-1.4,7.7-2.6,15.4-4.1,23.1c-1.2-0.2-2.3-0.5-3.4-1c-2.8,1.3-7,1.5-8.6-1.7
		c-2.1-5.1,0.5-12.5,6.3-13.8c2-0.8,3.9,0.5,5.7,1.2C526.1,637.3,526.5,634.7,527,632.1 M520.3,641.3c-4.5,1.5-6.3,10.5-0.9,11.6
		c4.3-0.3,5.3-5.5,5.6-8.9C525.5,641.4,522.2,640.2,520.3,641.3z"/>
	<path class="st0" d="M535.5,632.4c2.4-0.1,3,3.5,0.6,4C533.4,637.1,532.7,632.6,535.5,632.4z"/>
	<path class="st0" d="M440.8,654.9c1.4-7.3,2.5-14.6,4.1-21.8c0.8-0.1,2.3-0.3,3.1-0.4c-0.5,3-1,6-1.6,8.9c3.2,0,6.4,0,9.5,0
		c0.5-2.8,0.8-5.8,1.5-8.5c0.8-0.1,2.4-0.3,3.2-0.4c-1.3,7.4-2.6,14.8-3.9,22.2c-1.1,0-2.2,0-3.3,0c0.6-3.5,1.2-7,1.9-10.5
		c-3.1,0-6.3,0-9.4,0c-0.6,3.5-1.2,7-1.9,10.5C443.2,654.9,441.6,654.9,440.8,654.9z"/>
	<path class="st0" d="M296.7,635.2c1.2-0.5,2.4-0.9,3.6-1.3c-0.4,1.6-0.8,3.3-1.2,4.9c1.6,0,3.3,0,4.9,0.1c-0.3,3-3.3,2.2-5.5,2.4
		c-0.7,3.9-2,7.8-1.7,11.9c1.7,0.1,3.4,0.1,5.1,0.2c-0.1,3.7-5.6,3.3-7.7,1.5c-2.2-4.2,0.7-9,1.2-13.3c-0.6-0.3-1.8-0.8-2.4-1.1
		c1-0.7,1.9-1.4,2.9-2.1C296.3,637.2,296.5,636.2,296.7,635.2z"/>
	<path class="st0" d="M544.3,635.4c0.9-0.3,2.6-1,3.4-1.3c-0.4,1.5-0.7,3.1-1.1,4.7c1.5,0,2.9,0,4.4,0c-0.1,0.6-0.4,1.8-0.5,2.4
		c-1.5,0-2.9,0-4.4,0c-0.6,3.3-1.6,6.6-1.8,10c1,1.9,3,1.3,4.8,1.2c-0.1,0.7-0.3,2-0.4,2.7c-2.7,0-7,0.8-7.5-2.9c0-3.8,1.3-7.4,2-11
		l-2.4-0.2c0.8-1.1,1.8-2.1,2.9-2.9C543.9,637.2,544.1,636.3,544.3,635.4z"/>
	<path class="st0" d="M182.8,644.7c1.7-5,8-8,12.8-5.4c2.9,2,1.9,6.6-1.1,8c-2.9,1.8-6.3,1.2-9.5,0.9c0.6,1.4,0.5,3.5,2.1,4.4
		c2.1,1.6,4.6,0,6.9-0.2c-0.1,4.2-5.1,4-8.1,3.2C181.8,654,181.5,648.4,182.8,644.7 M185.6,645.7c3.1,0.5,7.4,1.1,8.9-2.4
		c-0.2-1.6-1.1-2.3-2.6-2.3C188.8,640.5,187.1,643.4,185.6,645.7z"/>
	<path class="st0" d="M201.1,639c0.7-0.1,2.2-0.5,2.9-0.6l0,1.7c3.2-1.8,7-2.3,10.1,0c1.9-0.8,3.8-2,5.8-1.5c2.3,0,4.1,2.3,3.7,4.5
		c-0.5,4.3-1.4,8.5-2.1,12.8c-1.1,0-2.1,0-3.2,0c0.7-4.6,2-9.1,1.9-13.7c-0.7-0.3-2.1-0.9-2.8-1.2c-1.1,0.6-2.3,1.3-3.4,2
		c-0.8,4.3-1.5,8.6-2.3,12.9c-1.1,0-2.2,0-3.3,0c0.7-4.2,1.7-8.4,2.2-12.7c-1.1-3.2-4.7-1.6-6.5-0.1c-0.7,4.3-1.5,8.5-2.2,12.8
		c-0.8,0-2.4,0-3.2,0C199.7,650.2,201.3,644.7,201.1,639z"/>
	<path class="st0" d="M227.9,639c0.8-0.1,2.3-0.4,3-0.5l0.1,1.7c2.6-1.4,5.9-2.6,8.6-0.8c2.3,1.3,2.7,4.3,2.5,6.7
		c-0.2,4-2.5,8.4-6.6,9.6c-2.2,0.9-4.5,0.2-6.7-0.3c-0.4,2.3-0.7,4.7-1.3,7c-0.8,0.1-2.3,0.3-3.1,0.4
		C225.4,654.8,227.9,647,227.9,639 M234.2,641.1c-5.2,0.9-4,7.4-4.9,11.2c2.3,2.8,7.6,0.9,8.7-2.4
		C239.9,646.6,239.2,640.1,234.2,641.1z"/>
	<path class="st0" d="M244.5,650.9c-1.7-6.7,4.4-14.2,11.4-12.3c3.7,0.2,4.8,5.2,2.2,7.5c-2.9,2.8-7.2,2.6-10.8,2
		c0.6,1.5,0.3,3.7,2,4.5c2.1,1.6,4.7,0,6.9-0.3C255.4,658.4,244.6,656.8,244.5,650.9 M247.7,645.6c3.1,0.6,7.4,1.1,9.1-2.4
		c-0.4-1.6-1.3-2.3-2.9-2.2C250.9,640.6,249.1,643.4,247.7,645.6z"/>
	<path class="st0" d="M264.5,639c0.8-0.1,2.3-0.3,3-0.4c-0.2,0.6-0.5,1.8-0.7,2.4c2.1-1.8,4.6-2.8,7.3-2.6c-0.2,0.8-0.5,2.4-0.7,3.2
		c-2.6-0.8-5.5,0-6.6,2.6c-1.3,3.7-1.5,7.7-2.3,11.6c-1.1,0-2.1,0-3.2,0C262.5,650.2,263.2,644.5,264.5,639z"/>
	<path class="st0" d="M280.4,639.3c3.1-1.7,6.7-0.7,9.9,0.2c-1,5.5-3.1,11.1-1.6,16.8c-1.3-0.5-2.7-1-4-1.5
		c-3.1,1.7-8.2,2.2-9.7-1.8C273.5,647.9,275.7,641.8,280.4,639.3 M278.4,652.8c1.8,1.8,4.8,0.5,5.8-1.5c1.7-3.2,2.2-6.8,2.6-10.3
		C280.1,639.1,275.7,647.4,278.4,652.8z"/>
	<path class="st0" d="M307.3,640.8c-0.2-2.3,1.9-2.2,3.6-2.2c-0.7,4.7-2.2,9.4-1.8,14.2c2.6,1.1,5.9,0.1,7-2.7
		c1.2-3.6,1.3-7.5,2.4-11.1c0.8-0.1,2.4-0.3,3.2-0.4c-1,5.7-2.1,11.5-3.1,17.2c-0.8,0-2.5,0-3.4,0l0.7-1.7c-3,2-8.9,3.5-10.3-1
		C305.3,648.9,306.7,644.9,307.3,640.8z"/>
	<path class="st0" d="M326.3,638.7c0.8,0,2.4,0,3.2,0c-0.2,0.5-0.5,1.5-0.7,2.1c2.1-1.7,4.6-2.7,7.3-2.5c-0.2,0.8-0.5,2.4-0.7,3.2
		c-2.5-0.8-5.5-0.1-6.6,2.6c-1.4,3.7-1.6,7.8-2.4,11.6c-1,0-2.1,0-3.1,0C324.3,650.1,325.3,644.4,326.3,638.7z"/>
	<path class="st0" d="M337.5,651.9c-2.5-6.5,3.2-14.9,10.5-13.4c3.5-0.1,5.6,4.2,3.4,6.9c-2.6,3.6-7.6,3.2-11.5,2.8
		c0.6,1.5,0.5,3.6,2.2,4.4c2.1,1.6,4.6,0,6.8-0.3C348.4,658,338.5,657,337.5,651.9 M344.3,641.3c-1.9,0.8-2.7,2.8-3.8,4.4
		c3.4,0.9,9.6,0.6,8.7-4.4C347.6,641.3,345.9,640.7,344.3,641.3z"/>
	<path class="st0" d="M463.5,639c0.7-0.1,2.2-0.3,3-0.4c-0.5,3.8-1.4,7.6-1.9,11.5c-0.1,3.9,5.5,2.8,6.6,0.1
		c1.5-3.5,1.4-7.5,2.5-11.1c0.8-0.1,2.3-0.3,3.1-0.4c-0.9,5.5-2,10.9-2.9,16.3c-0.8,0-2.4,0-3.2,0l0.6-1.6c-2.8,2.1-8.8,3.3-9.8-1.2
		C461.4,647.6,462.6,643.3,463.5,639z"/>
	<path class="st0" d="M480.1,639.3c0.6-0.3,1.8-0.9,2.4-1.2c0.1,0.5,0.3,1.5,0.4,2c2.9-1.9,6.5-2,9.5-0.1c2.9-1.8,8.6-2.5,9.1,2.1
		c-0.2,4.3-1.4,8.5-2,12.8c-0.8,0-2.3,0-3.1,0c0.6-4,1.6-7.9,1.9-11.9c-0.5-3.1-5.3-2.2-5.9,0.4c-0.9,3.8-1.4,7.6-2.1,11.5
		c-1.1,0-2.1,0-3.2,0c0.7-4.5,2.1-9,1.8-13.5c-2.1-0.4-4.1,0.1-5.7,1.5c-0.7,4-1.4,8.1-2.1,12.1c-0.8,0-2.3,0-3.1,0
		C478.8,649.7,479.9,644.5,480.1,639.3z"/>
	<path class="st0" d="M504.4,641.1c0.4-3.3,3.7-2.3,6-2.5c-1,5.4-2,10.8-3,16.2c-0.7,0-2.2,0-3,0c0.8-4.5,1.6-9.1,2.4-13.6
		C506.3,641.3,505,641.2,504.4,641.1z"/>
	<path class="st0" d="M531.3,641.3c0.2-0.9,0.3-1.7,0.5-2.5c1.7,0,3.4,0,5,0c-0.9,5.4-1.9,10.8-2.8,16.1c-0.8,0-2.3,0-3.1,0
		c0.8-4.5,1.6-9.1,2.4-13.6C532.8,641.2,531.8,641.3,531.3,641.3z"/>
	<path class="st0" d="M552.5,638.7c0.8,0,2.4,0,3.2,0c0.8,4.6,1,9.3,2.5,13.7c2.3-4.4,4.1-9.1,6.2-13.7c0.8,0,2.5,0,3.3,0
		c-3,6.4-5.6,13-8.7,19.2c-1.3,2.8-4.6,2.9-7.2,3.4c0-0.7-0.1-2.2-0.1-3c2.1-0.3,4-1.1,5.6-2.5C552.9,651.3,554.1,644.4,552.5,638.7
		z"/>
	<path class="st0" d="M161.4,681.1c-0.1-3.6,2.9-7,6.5-7.2c4.1-0.7,8.3,2.9,8.3,7.1c0.1,12.7,0,25.4,0,38.1c6.9,4.5,8.7,15,3,21.1
		c-5.6,6.8-17.4,6-22-1.4c-4.5-6.3-2.2-15.5,4.1-19.7C161.4,706.4,161.3,693.7,161.4,681.1 M166.8,697.9c-0.1,8.6,0,17.2,0,25.7
		c-2.1,1.3-4.5,2.8-5,5.4c-1.5,4.5,2.5,9.6,7.2,9.3c4.5,0.1,8.2-4.8,6.9-9.1c-0.5-2.6-2.8-4.2-5-5.5c0-8.6,0.1-17.1,0-25.7
		C171.2,695.3,166.4,695.2,166.8,697.9z"/>
	<path class="st0" d="M430.3,691.8c2.2-5.3,4.1-10.8,6.2-16.1c2.1,5.8,4.5,11.5,6.6,17.3c1.6,5.2-4,9.8-9,8.3c1,2.9,1.3,6.4-0.5,9.1
		c-2.7,4.5-9.3,5.6-13.3,2.3c-3-2.3-4.3-6.7-2.9-10.2c3-7.2,5.7-14.7,8.5-22C427.4,684.3,428.8,688.1,430.3,691.8z"/>
	<path class="st0" d="M207.1,680c10.5,0.2,21-0.5,31.5,0.4c-1.6,2.7-3.3,5.3-5,7.9c-7.5,0-15,0-22.5,0
		C209.8,685.5,208.4,682.8,207.1,680z"/>
	<path class="st0" d="M262.1,680c10.5,0.2,21.1-0.6,31.5,0.4c-1.6,2.6-3.4,5.2-5.1,7.8c-7.5,0-15,0-22.5,0
		C264.8,685.5,263.4,682.8,262.1,680z"/>
	<path class="st0" d="M469.9,680c10.5,0.1,21.1-0.5,31.6,0.4c-1.6,2.7-3.4,5.3-5.1,7.9c-7.5,0-15,0-22.5,0
		C472.6,685.5,471.2,682.8,469.9,680z"/>
	<path class="st0" d="M524.9,680c10.4,0.2,20.8-0.6,31.1,0.5c-0.9,2.9-3.1,5.2-4.7,7.8c-7.5,0-15,0-22.5,0
		C527.6,685.5,526.2,682.8,524.9,680z"/>
	<path class="st0" d="M255.9,686.8c0.2-2.7,2.3-4.5,4.2-6.2c1.3,2.7,2.9,5.3,3.9,8.1c-0.4,6.7-1,13.3-1.7,19.9
		c-1.4,1.8-3.4,2.9-5.2,4.3c-1.1-1.1-2.2-2.2-3.3-3.3C254.5,702.1,255,694.4,255.9,686.8z"/>
	<path class="st0" d="M518.6,687.1c0.2-2.8,2.3-4.7,4.2-6.5c1.4,2.6,2.8,5.1,3.9,7.8c-0.2,6.9-1.2,13.7-1.6,20.5
		c-1.7,1.3-3.5,2.7-5.2,4c-1.1-1.1-2.2-2.2-3.3-3.2C517.2,702.2,517.7,694.6,518.6,687.1z"/>
	<path class="st0" d="M240.5,681.8c1.5,2.1,3,4.4,2.6,7.1c-0.5,7.2-1.3,14.5-1.9,21.8c-1.3,1.1-2.6,2.1-3.9,3.2
		c-1.5-1.3-3-2.6-4.5-3.9c0.4-5.3,1-10.7,1.4-16C234.2,689.1,238.1,685.6,240.5,681.8z"/>
	<path class="st0" d="M295.5,681.7c1.5,2.1,3,4.5,2.6,7.3c-0.6,7.2-1.3,14.4-1.9,21.6c-1.4,1.1-2.7,2.2-4,3.2
		c-1.4-1.3-2.9-2.7-4.3-4c0.7-6.5,1-13,1.9-19.5C291.3,687.3,293.6,684.5,295.5,681.7z"/>
	<path class="st0" d="M552.2,693.9c-0.2-4.9,3.8-8.3,6.1-12.2c1.5,2.1,3.1,4.5,2.6,7.3c-0.5,7.2-1.2,14.5-1.9,21.7
		c-1.3,1.1-2.7,2.1-4,3.2c-1.5-1.4-2.9-2.7-4.3-4C551.2,704.5,551.7,699.2,552.2,693.9z"/>
	<path class="st0" d="M497.1,693.9c-0.2-4.9,3.8-8.3,6.1-12.2c1.5,2.1,3.1,4.5,2.7,7.3c-0.5,7.2-1.2,14.5-1.8,21.7
		c-1.3,1-2.6,2.1-3.9,3.2c-1.5-1.3-3-2.6-4.5-3.9C496.1,704.6,496.6,699.3,497.1,693.9z"/>
	<path class="st0" d="M572.3,686.3c3.2-1.9,6.3,1.6,5.2,4.7c0.6,3.7-5,5-6.4,1.7C570.7,690.7,570.2,687.7,572.3,686.3z"/>
	<path class="st0" d="M580.1,687.9c0.3-1.3,1.5-2,2.5-2.6c-2,6.2-4.5,12.3-7.1,18.3c-0.5,0.2-1.4,0.7-1.8,1
		C575.6,698.9,578,693.5,580.1,687.9z"/>
	<path class="st0" d="M580.4,695.5c5.4-2.4,7.2,7.1,2.5,8.6C578.2,704.9,577.2,697.6,580.4,695.5z"/>
	<path class="st0" d="M319.2,708c6.3,0,12.7-0.1,19,0.1c-1,1.6-2,3.2-3,4.9c-4.5,0-9.1,0-13.6,0C320.8,711.3,320,709.7,319.2,708z"
		/>
	<path class="st0" d="M315.3,712.9c0-1.9,1.3-3.4,2.5-4.8c4,5.1,1.6,11.5,1.4,17.3c-1.1,0.8-2.2,1.7-3.3,2.5
		c-0.4-0.6-1.2-1.7-1.6-2.2C314.4,721.5,315,717.2,315.3,712.9z"/>
	<path class="st0" d="M203.1,714.6c1.7-1.3,3.4-2.6,5.1-3.9c7.6,0,15.1,0,22.7,0c1.5,1.4,3,2.8,4.4,4.2c-1.7,1.3-3.3,2.9-5.2,4
		c-7.6,0.2-15.2,0-22.7,0.1C206,717.4,204.6,716,203.1,714.6z"/>
	<path class="st0" d="M258.1,714.6c1.7-1.3,3.4-2.6,5.1-3.9c7.6,0,15.1,0,22.7,0c1.5,1.4,2.9,2.8,4.4,4.2c-2.3,1.5-4.2,4.6-7.3,4.1
		c-6.9,0-13.7,0-20.6,0C261,717.4,259.6,716,258.1,714.6z"/>
	<path class="st0" d="M465.9,714.6c1.7-1.3,3.4-2.6,5.1-4c7.6,0,15.2,0,22.7,0c1.5,1.4,2.9,2.8,4.4,4.2c-1.7,1.3-3.3,2.7-5,4.1
		c-7.7,0-15.3,0-23,0C468.8,717.4,467.3,716,465.9,714.6z"/>
	<path class="st0" d="M197.9,718.8c1.2-1,2.5-1.9,3.7-2.9c1.5,1.5,3,3,4.6,4.6c-0.6,6.1-0.9,12.3-1.8,18.4c-1.5,3.4-3.7,6.5-5.5,9.7
		c-1.7-2.2-3.4-4.7-2.9-7.6C196.6,733.6,197.4,726.2,197.9,718.8z"/>
	<path class="st0" d="M252.9,718.8c1.2-1,2.5-1.9,3.7-2.9c1.5,1.5,3,3,4.6,4.6c-0.6,6.1-0.9,12.2-1.8,18.3c-1.5,3.4-3.7,6.5-5.5,9.7
		c-1.4-1.9-3.1-4-2.9-6.5C251.4,734.3,252.4,726.6,252.9,718.8z"/>
	<path class="st0" d="M515.8,718.8c1.2-1,2.5-1.9,3.7-2.9c1.5,1.5,3,3,4.5,4.5c-0.6,6-0.9,12.1-1.7,18.1c-1.4,3.6-3.7,6.7-5.6,10
		c-1.6-2.2-3.3-4.6-2.9-7.5C514.4,733.7,515.1,726.2,515.8,718.8z"/>
	<path class="st0" d="M287.1,720.2c1.5-1.3,3.1-2.5,4.6-3.8c1.2,1.2,2.5,2.4,3.7,3.5c-0.7,7.7-1.3,15.3-2,23
		c-0.1,2.7-2.1,4.6-3.8,6.4c-1.5-2.5-3-5-4.4-7.5C285.9,734.6,286.5,727.4,287.1,720.2z"/>
	<path class="st0" d="M494.9,720.1c1.6-1.3,3.1-2.5,4.7-3.8c1.2,1.2,2.5,2.3,3.7,3.5c-0.7,7.6-1.3,15.2-2,22.7
		c-0.1,2.8-2,4.8-3.8,6.7c-1.5-2.4-3.2-4.8-4.3-7.5C493.5,734.5,494.4,727.3,494.9,720.1z"/>
	<path class="st0" d="M549.9,720.1c1.5-1.3,3.1-2.5,4.7-3.8c1.2,1.1,2.5,2.3,3.7,3.5c-0.7,7.6-1.3,15.2-2,22.8
		c-0.1,2.7-2,4.8-3.8,6.7c-1.5-2.4-3.2-4.8-4.3-7.5C548.5,734.5,549.4,727.3,549.9,720.1z"/>
	<path class="st0" d="M320.1,726.4c4.4-0.3,8.8,0,13.3-0.1c0.9,0.9,1.9,1.7,2.8,2.6c-1,0.8-2,1.7-3.1,2.5c-4.6,0-9.2,0-13.9,0
		c-0.7-0.7-2-2-2.6-2.7C317.8,727.9,318.9,727,320.1,726.4z"/>
	<path class="st0" d="M334.2,732c0.9-0.8,1.9-1.5,2.8-2.2c0.6,0.5,1.8,1.6,2.4,2.1c-0.5,4.7-0.7,9.4-1.3,14
		c-0.2,1.5-1.4,2.6-2.1,3.9c-1-1.6-1.9-3.1-2.9-4.7C333.4,740.8,333.8,736.4,334.2,732z"/>
	<path class="st0" d="M299.4,741.5c2.2,0,4.4,0,6.6,0c-0.1,2.5-0.3,4.9-0.4,7.4c-2.2,0-4.4,0-6.6,0
		C299.1,746.4,299.3,744,299.4,741.5z"/>
	<path class="st0" d="M201,749.9c1.4-2.8,3-5.5,4.6-8.1c7.4,0,14.9,0,22.3,0c1.6,2.8,3.2,5.5,4.7,8.3
		C222,750.1,211.5,750.4,201,749.9z"/>
	<path class="st0" d="M256,749.9c1.4-2.8,3-5.5,4.6-8.1c7.4,0,14.9,0,22.3,0c1.6,2.8,3.1,5.5,4.6,8.3C277,750,266.5,750.4,256,749.9
		z"/>
	<path class="st0" d="M468.4,741.8c7.4,0,14.9,0,22.4,0c1.6,2.8,3.1,5.5,4.7,8.3c-10.5,0-21.1,0.4-31.6-0.2
		C465.2,747.1,466.8,744.4,468.4,741.8z"/>
	<path class="st0" d="M523.2,741.8c7.5,0,14.9,0,22.3,0c1.5,2.8,3.1,5.5,4.6,8.3c-10.5,0-21.1,0.4-31.6-0.2
		C520.1,747.1,521.7,744.4,523.2,741.8z"/>
	<path class="st0" d="M318.1,745c4.5,0,9.1,0,13.6,0c1,1.7,1.9,3.3,2.9,5.1c-6.4,0-12.8,0-19.2-0.2
		C316.2,748.2,317.2,746.6,318.1,745z"/>
	<path class="st0" d="M402,1260.2c4.6-0.1,9.1,0,13.7,0c0,3,0,6,0,9c-4.6,0-9.1,0-13.7,0C402,1266.1,402,1263.1,402,1260.2z"/>
</g>
<g id="_x23_0278caff">
	<path class="st1" d="M899.2,341.8c4.2,0,8.3,0,12.5,0c0,26.9,0,53.8,0,80.8c-4.2,0-8.3,0-12.5,0
		C899.2,395.6,899.2,368.7,899.2,341.8z"/>
	<path class="st1" d="M899.2,582.5c4.2,0,8.3,0,12.5,0c0,26.9,0,53.8,0,80.8c-4.2,0-8.4,0-12.5,0
		C899.2,636.3,899.2,609.4,899.2,582.5z"/>
</g>
</svg>
