<?xml version="1.0" encoding="utf-8"?>
<!-- Generator: Adobe Illustrator 21.1.0, SVG Export Plug-In . SVG Version: 6.00 Build 0)  -->
<svg version="1.1"
	 id="svg4174" inkscape:version="0.91 r13725" sodipodi:docname="220-欧标丝印图案22.cdr.svg" xmlns:cc="http://creativecommons.org/ns#" xmlns:dc="http://purl.org/dc/elements/1.1/" xmlns:inkscape="http://www.inkscape.org/namespaces/inkscape" xmlns:rdf="http://www.w3.org/1999/02/22-rdf-syntax-ns#" xmlns:sodipodi="http://sodipodi.sourceforge.net/DTD/sodipodi-0.dtd" xmlns:svg="http://www.w3.org/2000/svg"
	 xmlns="http://www.w3.org/2000/svg" xmlns:xlink="http://www.w3.org/1999/xlink" x="0px" y="0px" viewBox="0 0 136.2 118.5"
	 style="enable-background:new 0 0 136.2 118.5;" xml:space="preserve">
<style type="text/css">
	.st0{fill:none;stroke:#000000;stroke-width:0.75;stroke-linejoin:bevel;}
	.st1{fill:none;stroke:#000000;stroke-width:0.216;stroke-linejoin:bevel;}
	.st2{fill:#0066CC;stroke:#000000;stroke-width:0.216;stroke-linejoin:bevel;}
	.st3{fill:#1B1918;}
	.st4{font-family:'ArialMT';}
	.st5{font-size:8px;}
</style>
<sodipodi:namedview  bordercolor="#666666" borderopacity="1" gridtolerance="10" guidetolerance="10" id="namedview6674" inkscape:current-layer="svg4174" inkscape:cx="169.67898" inkscape:cy="563.43657" inkscape:pageopacity="0" inkscape:pageshadow="2" inkscape:window-height="851" inkscape:window-maximized="1" inkscape:window-width="1440" inkscape:window-x="0" inkscape:window-y="1" inkscape:zoom="1.8756036" objecttolerance="10" pagecolor="#ffffff" showgrid="false">
	</sodipodi:namedview>
<path id="path4193" inkscape:connector-curvature="0" class="st0" d="M6.7,102.2V28.5"/>
<path id="path4195" inkscape:connector-curvature="0" class="st0" d="M6.8,102.2V28.5"/>
<path id="path4197" inkscape:connector-curvature="0" class="st0" d="M7.4,101.9V28.8"/>
<path id="path4199" inkscape:connector-curvature="0" class="st0" d="M117.9,113.5H18.7"/>
<path id="path4201" inkscape:connector-curvature="0" class="st0" d="M117.9,113.4H18.8"/>
<path id="path4203" inkscape:connector-curvature="0" class="st0" d="M117.7,112.9H19"/>
<path id="path4205" inkscape:connector-curvature="0" class="st1" d="M26.5,90.9l0.2,0.2"/>
<path id="path4207" inkscape:connector-curvature="0" class="st1" d="M110.1,105h-12"/>
<path id="path4209" inkscape:connector-curvature="0" class="st1" d="M95.3,105H83.9"/>
<path id="path4211" inkscape:connector-curvature="0" class="st1" d="M81.1,105H69.7"/>
<path id="path4213" inkscape:connector-curvature="0" class="st1" d="M66.9,105H55.6"/>
<path id="path4215" inkscape:connector-curvature="0" class="st1" d="M52.7,105H41.4"/>
<path id="path4217" inkscape:connector-curvature="0" class="st1" d="M38.6,105h-12"/>
<path id="path4219" inkscape:connector-curvature="0" class="st1" d="M26.7,104.9h11.8"/>
<path id="path4221" inkscape:connector-curvature="0" class="st1" d="M41.5,104.9h11.2"/>
<path id="path4223" inkscape:connector-curvature="0" class="st1" d="M55.7,104.9h11.2"/>
<path id="path4225" inkscape:connector-curvature="0" class="st1" d="M69.8,104.9H81"/>
<path id="path4227" inkscape:connector-curvature="0" class="st1" d="M84,104.9h11.2"/>
<path id="path4229" inkscape:connector-curvature="0" class="st1" d="M98.2,104.9H110"/>
<path id="path4231" inkscape:connector-curvature="0" class="st1" d="M38.5,104.9l0.1,0.2"/>
<path id="path4233" inkscape:connector-curvature="0" class="st1" d="M26.5,105V90.9"/>
<path id="path4235" inkscape:connector-curvature="0" class="st1" d="M26.7,104.9V91"/>
<path id="path4237" inkscape:connector-curvature="0" class="st1" d="M30,39.8v2.9"/>
<path id="path4239" inkscape:connector-curvature="0" class="st1" d="M30,46.9v2.9"/>
<path id="path4241" inkscape:connector-curvature="0" class="st1" d="M30,54v2.9"/>
<path id="path4243" inkscape:connector-curvature="0" class="st1" d="M30,61.1V64"/>
<path id="path4245" inkscape:connector-curvature="0" class="st1" d="M30,68.1v2.9"/>
<path id="path4247" inkscape:connector-curvature="0" class="st1" d="M30.1,39.8v2.8"/>
<path id="path4249" inkscape:connector-curvature="0" class="st1" d="M30.1,46.9v2.8"/>
<path id="path4251" inkscape:connector-curvature="0" class="st1" d="M30.1,54v2.8"/>
<path id="path4253" inkscape:connector-curvature="0" class="st1" d="M30.1,61.1v2.8"/>
<path id="path4255" inkscape:connector-curvature="0" class="st1" d="M30.1,68.2V71"/>
<path id="path4257" inkscape:connector-curvature="0" class="st1" d="M30,42.7L30,42.7"/>
<path id="path4259" inkscape:connector-curvature="0" class="st1" d="M41.5,91l-0.1-0.2"/>
<path id="path4261" inkscape:connector-curvature="0" class="st1" d="M40,39.8L40,39.8"/>
<path id="path4263" inkscape:connector-curvature="0" class="st1" d="M30,49.8L30,49.8"/>
<path id="path4265" inkscape:connector-curvature="0" class="st1" d="M30,68.1L30,68.1"/>
<path id="path4267" inkscape:connector-curvature="0" class="st1" d="M52.7,104.9l0.1,0.2"/>
<path id="path4269" inkscape:connector-curvature="0" class="st1" d="M38.5,91v13.8"/>
<path id="path4271" inkscape:connector-curvature="0" class="st1" d="M38.6,90.9V105"/>
<path id="path4273" inkscape:connector-curvature="0" class="st1" d="M40,71v-2.8"/>
<path id="path4275" inkscape:connector-curvature="0" class="st1" d="M40,63.9v-2.8"/>
<path id="path4277" inkscape:connector-curvature="0" class="st1" d="M40,56.8V54"/>
<path id="path4279" inkscape:connector-curvature="0" class="st1" d="M40,49.8v-2.8"/>
<path id="path4281" inkscape:connector-curvature="0" class="st1" d="M40,42.7v-2.8"/>
<path id="path4283" inkscape:connector-curvature="0" class="st1" d="M40,71.1v-2.9"/>
<path id="path4285" inkscape:connector-curvature="0" class="st1" d="M40,64v-2.9"/>
<path id="path4287" inkscape:connector-curvature="0" class="st1" d="M40,56.9V54"/>
<path id="path4289" inkscape:connector-curvature="0" class="st1" d="M40,49.8v-2.9"/>
<path id="path4291" inkscape:connector-curvature="0" class="st1" d="M40,42.7v-2.9"/>
<path id="path4293" inkscape:connector-curvature="0" class="st1" d="M41.4,105V90.9"/>
<path id="path4295" inkscape:connector-curvature="0" class="st1" d="M41.5,104.9V91"/>
<path id="path4297" inkscape:connector-curvature="0" class="st1" d="M40,46.9L40,46.9"/>
<path id="path4299" inkscape:connector-curvature="0" class="st1" d="M30,56.9L30,56.9"/>
<path id="path4301" inkscape:connector-curvature="0" class="st1" d="M44.2,42.7L44.2,42.7"/>
<path id="path4303" inkscape:connector-curvature="0" class="st1" d="M110,91H98.2"/>
<path id="path4305" inkscape:connector-curvature="0" class="st1" d="M95.2,91H84"/>
<path id="path4307" inkscape:connector-curvature="0" class="st1" d="M81,91H69.8"/>
<path id="path4309" inkscape:connector-curvature="0" class="st1" d="M66.8,91H55.7"/>
<path id="path4311" inkscape:connector-curvature="0" class="st1" d="M52.7,91H41.5"/>
<path id="path4313" inkscape:connector-curvature="0" class="st1" d="M38.5,91H26.7"/>
<path id="path4315" inkscape:connector-curvature="0" class="st1" d="M26.5,90.9h12"/>
<path id="path4317" inkscape:connector-curvature="0" class="st1" d="M41.4,90.9h11.3"/>
<path id="path4319" inkscape:connector-curvature="0" class="st1" d="M55.6,90.9h11.3"/>
<path id="path4321" inkscape:connector-curvature="0" class="st1" d="M69.7,90.9h11.3"/>
<path id="path4323" inkscape:connector-curvature="0" class="st1" d="M83.9,90.9h11.3"/>
<path id="path4325" inkscape:connector-curvature="0" class="st1" d="M98.1,90.9h12"/>
<path id="path4327" inkscape:connector-curvature="0" class="st1" d="M30,61.1L30,61.1"/>
<path id="path4329" inkscape:connector-curvature="0" class="st1" d="M40,71.1L40,71.1"/>
<path id="path4331" inkscape:connector-curvature="0" class="st1" d="M44.2,39.8v2.9"/>
<path id="path4333" inkscape:connector-curvature="0" class="st1" d="M44.2,46.9v2.9"/>
<path id="path4335" inkscape:connector-curvature="0" class="st1" d="M44.2,54v2.9"/>
<path id="path4337" inkscape:connector-curvature="0" class="st1" d="M44.2,61.1V64"/>
<path id="path4339" inkscape:connector-curvature="0" class="st1" d="M44.2,68.1v2.9"/>
<path id="path4341" inkscape:connector-curvature="0" class="st1" d="M44.2,39.8v2.8"/>
<path id="path4343" inkscape:connector-curvature="0" class="st1" d="M44.2,46.9v2.8"/>
<path id="path4345" inkscape:connector-curvature="0" class="st1" d="M44.2,54v2.8"/>
<path id="path4347" inkscape:connector-curvature="0" class="st1" d="M44.2,61.1v2.8"/>
<path id="path4349" inkscape:connector-curvature="0" class="st1" d="M44.2,68.2V71"/>
<path id="path4351" inkscape:connector-curvature="0" class="st1" d="M54.2,39.8L54.2,39.8"/>
<path id="path4353" inkscape:connector-curvature="0" class="st1" d="M40,54L40,54"/>
<path id="path4355" inkscape:connector-curvature="0" class="st1" d="M30,64L30,64"/>
<path id="path4357" inkscape:connector-curvature="0" class="st1" d="M44.2,49.8L44.2,49.8"/>
<path id="path4359" inkscape:connector-curvature="0" class="st1" d="M30,54L30,54"/>
<path id="path4361" inkscape:connector-curvature="0" class="st1" d="M44.2,68.1L44.2,68.1"/>
<path id="path4363" inkscape:connector-curvature="0" class="st1" d="M40,64L40,64"/>
<path id="path4365" inkscape:connector-curvature="0" class="st1" d="M55.7,91l-0.1-0.2"/>
<path id="path4367" inkscape:connector-curvature="0" class="st1" d="M66.8,104.9l0.1,0.2"/>
<path id="path4369" inkscape:connector-curvature="0" class="st1" d="M52.7,91v13.8"/>
<path id="path4371" inkscape:connector-curvature="0" class="st1" d="M54.2,46.9L54.2,46.9"/>
<path id="path4373" inkscape:connector-curvature="0" class="st1" d="M40,61.1L40,61.1"/>
<path id="path4375" inkscape:connector-curvature="0" class="st1" d="M30,71.1L30,71.1"/>
<path id="path4377" inkscape:connector-curvature="0" class="st1" d="M44.2,56.9L44.2,56.9"/>
<path id="path4379" inkscape:connector-curvature="0" class="st1" d="M58.4,42.7L58.4,42.7"/>
<path id="path4381" inkscape:connector-curvature="0" class="st1" d="M30,46.9L30,46.9"/>
<path id="path4383" inkscape:connector-curvature="0" class="st1" d="M44.2,61.1L44.2,61.1"/>
<path id="path4385" inkscape:connector-curvature="0" class="st1" d="M54.2,71.1L54.2,71.1"/>
<path id="path4387" inkscape:connector-curvature="0" class="st1" d="M40,56.9L40,56.9"/>
<path id="path4389" inkscape:connector-curvature="0" class="st1" d="M52.7,90.9V105"/>
<path id="path4391" inkscape:connector-curvature="0" class="st1" d="M54.2,71v-2.8"/>
<path id="path4393" inkscape:connector-curvature="0" class="st1" d="M54.2,63.9v-2.8"/>
<path id="path4395" inkscape:connector-curvature="0" class="st1" d="M54.2,56.8V54"/>
<path id="path4397" inkscape:connector-curvature="0" class="st1" d="M54.2,49.8v-2.8"/>
<path id="path4399" inkscape:connector-curvature="0" class="st1" d="M54.2,42.7v-2.8"/>
<path id="path4401" inkscape:connector-curvature="0" class="st1" d="M54.2,71.1v-2.9"/>
<path id="path4403" inkscape:connector-curvature="0" class="st1" d="M54.2,64v-2.9"/>
<path id="path4405" inkscape:connector-curvature="0" class="st1" d="M54.2,56.9V54"/>
<path id="path4407" inkscape:connector-curvature="0" class="st1" d="M54.2,49.8v-2.9"/>
<path id="path4409" inkscape:connector-curvature="0" class="st1" d="M54.2,42.7v-2.9"/>
<path id="path4411" inkscape:connector-curvature="0" class="st1" d="M55.6,105V90.9"/>
<path id="path4413" inkscape:connector-curvature="0" class="st1" d="M55.7,104.9V91"/>
<path id="path4415" inkscape:connector-curvature="0" class="st1" d="M38.5,91l0.1-0.2"/>
<path id="path4417" inkscape:connector-curvature="0" class="st1" d="M68.4,39.8L68.4,39.8"/>
<path id="path4419" inkscape:connector-curvature="0" class="st1" d="M54.2,54L54.2,54"/>
<path id="path4421" inkscape:connector-curvature="0" class="st1" d="M40,68.1L40,68.1"/>
<path id="path4423" inkscape:connector-curvature="0" class="st1" d="M44.2,64L44.2,64"/>
<path id="path4425" inkscape:connector-curvature="0" class="st1" d="M58.4,49.8L58.4,49.8"/>
<path id="path4427" inkscape:connector-curvature="0" class="st1" d="M30,71.1h10"/>
<path id="path4429" inkscape:connector-curvature="0" class="st1" d="M44.2,71.1h10"/>
<path id="path4431" inkscape:connector-curvature="0" class="st1" d="M58.4,71.1h10"/>
<path id="path4433" inkscape:connector-curvature="0" class="st1" d="M72.5,71.1h10"/>
<path id="path4435" inkscape:connector-curvature="0" class="st1" d="M30.1,71H40"/>
<path id="path4437" inkscape:connector-curvature="0" class="st1" d="M44.2,71h9.9"/>
<path id="path4439" inkscape:connector-curvature="0" class="st1" d="M58.4,71h9.9"/>
<path id="path4441" inkscape:connector-curvature="0" class="st1" d="M72.6,71h9.9"/>
<path id="path4443" inkscape:connector-curvature="0" class="st1" d="M30,39.8L30,39.8"/>
<path id="path4445" inkscape:connector-curvature="0" class="st1" d="M44.2,54L44.2,54"/>
<path id="path4447" inkscape:connector-curvature="0" class="st1" d="M58.4,68.1L58.4,68.1"/>
<path id="path4449" inkscape:connector-curvature="0" class="st1" d="M54.2,64L54.2,64"/>
<path id="path4451" inkscape:connector-curvature="0" class="st1" d="M40,49.8L40,49.8"/>
<path id="path4453" inkscape:connector-curvature="0" class="st1" d="M69.8,91l-0.1-0.2"/>
<path id="path4455" inkscape:connector-curvature="0" class="st1" d="M58.4,39.8v2.9"/>
<path id="path4457" inkscape:connector-curvature="0" class="st1" d="M58.4,46.9v2.9"/>
<path id="path4459" inkscape:connector-curvature="0" class="st1" d="M58.4,54v2.9"/>
<path id="path4461" inkscape:connector-curvature="0" class="st1" d="M58.4,61.1V64"/>
<path id="path4463" inkscape:connector-curvature="0" class="st1" d="M58.4,68.1v2.9"/>
<path id="path4465" inkscape:connector-curvature="0" class="st1" d="M58.4,39.8v2.8"/>
<path id="path4467" inkscape:connector-curvature="0" class="st1" d="M58.4,46.9v2.8"/>
<path id="path4469" inkscape:connector-curvature="0" class="st1" d="M58.4,54v2.8"/>
<path id="path4471" inkscape:connector-curvature="0" class="st1" d="M58.4,61.1v2.8"/>
<path id="path4473" inkscape:connector-curvature="0" class="st1" d="M58.4,68.2V71"/>
<path id="path4475" inkscape:connector-curvature="0" class="st1" d="M68.4,46.9L68.4,46.9"/>
<path id="path4477" inkscape:connector-curvature="0" class="st1" d="M54.2,61.1L54.2,61.1"/>
<path id="path4479" inkscape:connector-curvature="0" class="st1" d="M44.2,71.1L44.2,71.1"/>
<path id="path4481" inkscape:connector-curvature="0" class="st1" d="M58.4,56.9L58.4,56.9"/>
<path id="path4483" inkscape:connector-curvature="0" class="st1" d="M72.5,42.7L72.5,42.7"/>
<path id="path4485" inkscape:connector-curvature="0" class="st1" d="M82.5,68.2h-9.9"/>
<path id="path4487" inkscape:connector-curvature="0" class="st1" d="M68.3,68.2h-9.9"/>
<path id="path4489" inkscape:connector-curvature="0" class="st1" d="M54.2,68.2h-9.9"/>
<path id="path4491" inkscape:connector-curvature="0" class="st1" d="M40,68.2h-9.9"/>
<path id="path4493" inkscape:connector-curvature="0" class="st1" d="M82.5,68.1h-10"/>
<path id="path4495" inkscape:connector-curvature="0" class="st1" d="M68.4,68.1h-10"/>
<path id="path4497" inkscape:connector-curvature="0" class="st1" d="M54.2,68.1h-10"/>
<path id="path4499" inkscape:connector-curvature="0" class="st1" d="M40,68.1H30"/>
<path id="path4501" inkscape:connector-curvature="0" class="st1" d="M44.2,46.9L44.2,46.9"/>
<path id="path4503" inkscape:connector-curvature="0" class="st1" d="M58.4,61.1L58.4,61.1"/>
<path id="path4505" inkscape:connector-curvature="0" class="st1" d="M68.4,71.1L68.4,71.1"/>
<path id="path4507" inkscape:connector-curvature="0" class="st1" d="M54.2,56.9L54.2,56.9"/>
<path id="path4509" inkscape:connector-curvature="0" class="st1" d="M40,42.7L40,42.7"/>
<path id="path4511" inkscape:connector-curvature="0" class="st1" d="M81,104.9l0.1,0.2"/>
<path id="path4513" inkscape:connector-curvature="0" class="st1" d="M66.8,91v13.8"/>
<path id="path4515" inkscape:connector-curvature="0" class="st1" d="M66.9,90.9V105"/>
<path id="path4517" inkscape:connector-curvature="0" class="st1" d="M68.3,71v-2.8"/>
<path id="path4519" inkscape:connector-curvature="0" class="st1" d="M68.3,63.9v-2.8"/>
<path id="path4521" inkscape:connector-curvature="0" class="st1" d="M68.3,56.8V54"/>
<path id="path4523" inkscape:connector-curvature="0" class="st1" d="M68.3,49.8v-2.8"/>
<path id="path4525" inkscape:connector-curvature="0" class="st1" d="M68.3,42.7v-2.8"/>
<path id="path4527" inkscape:connector-curvature="0" class="st1" d="M68.4,71.1v-2.9"/>
<path id="path4529" inkscape:connector-curvature="0" class="st1" d="M68.4,64v-2.9"/>
<path id="path4531" inkscape:connector-curvature="0" class="st1" d="M68.4,56.9V54"/>
<path id="path4533" inkscape:connector-curvature="0" class="st1" d="M68.4,49.8v-2.9"/>
<path id="path4535" inkscape:connector-curvature="0" class="st1" d="M68.4,42.7v-2.9"/>
<path id="path4537" inkscape:connector-curvature="0" class="st1" d="M41.5,104.9l-0.1,0.2"/>
<path id="path4539" inkscape:connector-curvature="0" class="st1" d="M52.7,91l0.1-0.2"/>
<path id="path4541" inkscape:connector-curvature="0" class="st1" d="M82.5,39.8L82.5,39.8"/>
<path id="path4543" inkscape:connector-curvature="0" class="st1" d="M68.4,54L68.4,54"/>
<path id="path4545" inkscape:connector-curvature="0" class="st1" d="M54.2,68.1L54.2,68.1"/>
<path id="path4547" inkscape:connector-curvature="0" class="st1" d="M58.4,64L58.4,64"/>
<path id="path4549" inkscape:connector-curvature="0" class="st1" d="M72.5,49.8L72.5,49.8"/>
<path id="path4551" inkscape:connector-curvature="0" class="st1" d="M30,64h10"/>
<path id="path4553" inkscape:connector-curvature="0" class="st1" d="M44.2,64h10"/>
<path id="path4555" inkscape:connector-curvature="0" class="st1" d="M58.4,64h10"/>
<path id="path4557" inkscape:connector-curvature="0" class="st1" d="M72.5,64h10"/>
<path id="path4559" inkscape:connector-curvature="0" class="st1" d="M30.1,63.9H40"/>
<path id="path4561" inkscape:connector-curvature="0" class="st1" d="M44.2,63.9h9.9"/>
<path id="path4563" inkscape:connector-curvature="0" class="st1" d="M58.4,63.9h9.9"/>
<path id="path4565" inkscape:connector-curvature="0" class="st1" d="M72.6,63.9h9.9"/>
<path id="path4567" inkscape:connector-curvature="0" class="st1" d="M82.5,61.1h-9.9"/>
<path id="path4569" inkscape:connector-curvature="0" class="st1" d="M68.3,61.1h-9.9"/>
<path id="path4571" inkscape:connector-curvature="0" class="st1" d="M54.2,61.1h-9.9"/>
<path id="path4573" inkscape:connector-curvature="0" class="st1" d="M40,61.1h-9.9"/>
<path id="path4575" inkscape:connector-curvature="0" class="st1" d="M82.5,61.1h-10"/>
<path id="path4577" inkscape:connector-curvature="0" class="st1" d="M68.4,61.1h-10"/>
<path id="path4579" inkscape:connector-curvature="0" class="st1" d="M54.2,61.1h-10"/>
<path id="path4581" inkscape:connector-curvature="0" class="st1" d="M40,61.1H30"/>
<path id="path4583" inkscape:connector-curvature="0" class="st1" d="M44.2,39.8L44.2,39.8"/>
<path id="path4585" inkscape:connector-curvature="0" class="st1" d="M58.4,54L58.4,54"/>
<path id="path4587" inkscape:connector-curvature="0" class="st1" d="M72.5,68.1L72.5,68.1"/>
<path id="path4589" inkscape:connector-curvature="0" class="st1" d="M68.4,64L68.4,64"/>
<path id="path4591" inkscape:connector-curvature="0" class="st1" d="M54.2,49.8L54.2,49.8"/>
<path id="path4593" inkscape:connector-curvature="0" class="st1" d="M110,104.9l0.2,0.2"/>
<path id="path4595" inkscape:connector-curvature="0" class="st1" d="M84,91l-0.1-0.2"/>
<path id="path4597" inkscape:connector-curvature="0" class="st1" d="M69.7,105V90.9"/>
<path id="path4599" inkscape:connector-curvature="0" class="st1" d="M69.8,104.9V91"/>
<path id="path4601" inkscape:connector-curvature="0" class="st1" d="M72.5,39.8v2.9"/>
<path id="path4603" inkscape:connector-curvature="0" class="st1" d="M72.5,46.9v2.9"/>
<path id="path4605" inkscape:connector-curvature="0" class="st1" d="M72.5,54v2.9"/>
<path id="path4607" inkscape:connector-curvature="0" class="st1" d="M72.5,61.1V64"/>
<path id="path4609" inkscape:connector-curvature="0" class="st1" d="M72.5,68.1v2.9"/>
<path id="path4611" inkscape:connector-curvature="0" class="st1" d="M72.6,39.8v2.8"/>
<path id="path4613" inkscape:connector-curvature="0" class="st1" d="M72.6,46.9v2.8"/>
<path id="path4615" inkscape:connector-curvature="0" class="st1" d="M72.6,54v2.8"/>
<path id="path4617" inkscape:connector-curvature="0" class="st1" d="M72.6,61.1v2.8"/>
<path id="path4619" inkscape:connector-curvature="0" class="st1" d="M72.6,68.2V71"/>
<path id="path4621" inkscape:connector-curvature="0" class="st1" d="M82.5,46.9L82.5,46.9"/>
<path id="path4623" inkscape:connector-curvature="0" class="st1" d="M68.4,61.1L68.4,61.1"/>
<path id="path4625" inkscape:connector-curvature="0" class="st1" d="M58.4,71.1L58.4,71.1"/>
<path id="path4627" inkscape:connector-curvature="0" class="st1" d="M72.5,56.9L72.5,56.9"/>
<path id="path4629" inkscape:connector-curvature="0" class="st1" d="M26.7,104.9l-0.2,0.2"/>
<path id="path4631" inkscape:connector-curvature="0" class="st1" d="M82.5,54L82.5,54"/>
<path id="path4633" inkscape:connector-curvature="0" class="st1" d="M68.4,68.1L68.4,68.1"/>
<path id="path4635" inkscape:connector-curvature="0" class="st1" d="M72.5,64L72.5,64"/>
<path id="path4637" inkscape:connector-curvature="0" class="st1" d="M30,56.9h10"/>
<path id="path4639" inkscape:connector-curvature="0" class="st1" d="M44.2,56.9h10"/>
<path id="path4641" inkscape:connector-curvature="0" class="st1" d="M58.4,56.9h10"/>
<path id="path4643" inkscape:connector-curvature="0" class="st1" d="M72.5,56.9h10"/>
<path id="path4645" inkscape:connector-curvature="0" class="st1" d="M30.1,56.8H40"/>
<path id="path4647" inkscape:connector-curvature="0" class="st1" d="M44.2,56.8h9.9"/>
<path id="path4649" inkscape:connector-curvature="0" class="st1" d="M58.4,56.8h9.9"/>
<path id="path4651" inkscape:connector-curvature="0" class="st1" d="M72.6,56.8h9.9"/>
<path id="path4653" inkscape:connector-curvature="0" class="st1" d="M82.5,54h-9.9"/>
<path id="path4655" inkscape:connector-curvature="0" class="st1" d="M68.3,54h-9.9"/>
<path id="path4657" inkscape:connector-curvature="0" class="st1" d="M54.2,54h-9.9"/>
<path id="path4659" inkscape:connector-curvature="0" class="st1" d="M40,54h-9.9"/>
<path id="path4661" inkscape:connector-curvature="0" class="st1" d="M82.5,54h-10"/>
<path id="path4663" inkscape:connector-curvature="0" class="st1" d="M68.4,54h-10"/>
<path id="path4665" inkscape:connector-curvature="0" class="st1" d="M54.2,54h-10"/>
<path id="path4667" inkscape:connector-curvature="0" class="st1" d="M40,54H30"/>
<path id="path4669" inkscape:connector-curvature="0" class="st1" d="M58.4,46.9L58.4,46.9"/>
<path id="path4671" inkscape:connector-curvature="0" class="st1" d="M72.5,61.1L72.5,61.1"/>
<path id="path4673" inkscape:connector-curvature="0" class="st1" d="M82.5,71.1L82.5,71.1"/>
<path id="path4675" inkscape:connector-curvature="0" class="st1" d="M68.4,56.9L68.4,56.9"/>
<path id="path4677" inkscape:connector-curvature="0" class="st1" d="M54.2,42.7L54.2,42.7"/>
<path id="path4679" inkscape:connector-curvature="0" class="st1" d="M95.2,104.9l0.1,0.2"/>
<path id="path4681" inkscape:connector-curvature="0" class="st1" d="M55.7,104.9l-0.1,0.2"/>
<path id="path4683" inkscape:connector-curvature="0" class="st1" d="M82.5,61.1L82.5,61.1"/>
<path id="path4685" inkscape:connector-curvature="0" class="st1" d="M72.5,71.1L72.5,71.1"/>
<path id="path4687" inkscape:connector-curvature="0" class="st1" d="M30,49.8h10"/>
<path id="path4689" inkscape:connector-curvature="0" class="st1" d="M44.2,49.8h10"/>
<path id="path4691" inkscape:connector-curvature="0" class="st1" d="M58.4,49.8h10"/>
<path id="path4693" inkscape:connector-curvature="0" class="st1" d="M72.5,49.8h10"/>
<path id="path4695" inkscape:connector-curvature="0" class="st1" d="M30.1,49.8H40"/>
<path id="path4697" inkscape:connector-curvature="0" class="st1" d="M44.2,49.8h9.9"/>
<path id="path4699" inkscape:connector-curvature="0" class="st1" d="M58.4,49.8h9.9"/>
<path id="path4701" inkscape:connector-curvature="0" class="st1" d="M72.6,49.8h9.9"/>
<path id="path4703" inkscape:connector-curvature="0" class="st1" d="M58.4,39.8L58.4,39.8"/>
<path id="path4705" inkscape:connector-curvature="0" class="st1" d="M72.5,54L72.5,54"/>
<path id="path4707" inkscape:connector-curvature="0" class="st1" d="M82.5,64L82.5,64"/>
<path id="path4709" inkscape:connector-curvature="0" class="st1" d="M68.4,49.8L68.4,49.8"/>
<path id="path4711" inkscape:connector-curvature="0" class="st1" d="M81,91v13.8"/>
<path id="path4713" inkscape:connector-curvature="0" class="st1" d="M81.1,90.9V105"/>
<path id="path4715" inkscape:connector-curvature="0" class="st1" d="M82.5,71v-2.8"/>
<path id="path4717" inkscape:connector-curvature="0" class="st1" d="M82.5,63.9v-2.8"/>
<path id="path4719" inkscape:connector-curvature="0" class="st1" d="M82.5,56.8V54"/>
<path id="path4721" inkscape:connector-curvature="0" class="st1" d="M82.5,49.8v-2.8"/>
<path id="path4723" inkscape:connector-curvature="0" class="st1" d="M82.5,42.7v-2.8"/>
<path id="path4725" inkscape:connector-curvature="0" class="st1" d="M82.5,71.1v-2.9"/>
<path id="path4727" inkscape:connector-curvature="0" class="st1" d="M82.5,64v-2.9"/>
<path id="path4729" inkscape:connector-curvature="0" class="st1" d="M82.5,56.9V54"/>
<path id="path4731" inkscape:connector-curvature="0" class="st1" d="M82.5,49.8v-2.9"/>
<path id="path4733" inkscape:connector-curvature="0" class="st1" d="M82.5,42.7v-2.9"/>
<path id="path4735" inkscape:connector-curvature="0" class="st1" d="M83.9,105V90.9"/>
<path id="path4737" inkscape:connector-curvature="0" class="st1" d="M84,104.9V91"/>
<path id="path4739" inkscape:connector-curvature="0" class="st1" d="M66.8,91l0.1-0.2"/>
<path id="path4741" inkscape:connector-curvature="0" class="st1" d="M82.5,68.1L82.5,68.1"/>
<path id="path4743" inkscape:connector-curvature="0" class="st1" d="M82.5,46.9h-9.9"/>
<path id="path4745" inkscape:connector-curvature="0" class="st1" d="M68.3,46.9h-9.9"/>
<path id="path4747" inkscape:connector-curvature="0" class="st1" d="M54.2,46.9h-9.9"/>
<path id="path4749" inkscape:connector-curvature="0" class="st1" d="M40,46.9h-9.9"/>
<path id="path4751" inkscape:connector-curvature="0" class="st1" d="M82.5,46.9h-10"/>
<path id="path4753" inkscape:connector-curvature="0" class="st1" d="M68.4,46.9h-10"/>
<path id="path4755" inkscape:connector-curvature="0" class="st1" d="M54.2,46.9h-10"/>
<path id="path4757" inkscape:connector-curvature="0" class="st1" d="M40,46.9H30"/>
<path id="path4759" inkscape:connector-curvature="0" class="st1" d="M30,42.7h10"/>
<path id="path4761" inkscape:connector-curvature="0" class="st1" d="M44.2,42.7h10"/>
<path id="path4763" inkscape:connector-curvature="0" class="st1" d="M58.4,42.7h10"/>
<path id="path4765" inkscape:connector-curvature="0" class="st1" d="M72.5,42.7h10"/>
<path id="path4767" inkscape:connector-curvature="0" class="st1" d="M30.1,42.7H40"/>
<path id="path4769" inkscape:connector-curvature="0" class="st1" d="M44.2,42.7h9.9"/>
<path id="path4771" inkscape:connector-curvature="0" class="st1" d="M58.4,42.7h9.9"/>
<path id="path4773" inkscape:connector-curvature="0" class="st1" d="M72.6,42.7h9.9"/>
<path id="path4775" inkscape:connector-curvature="0" class="st1" d="M72.5,46.9L72.5,46.9"/>
<path id="path4777" inkscape:connector-curvature="0" class="st1" d="M82.5,56.9L82.5,56.9"/>
<path id="path4779" inkscape:connector-curvature="0" class="st1" d="M68.4,42.7L68.4,42.7"/>
<path id="path4781" inkscape:connector-curvature="0" class="st1" d="M72.5,39.8L72.5,39.8"/>
<path id="path4783" inkscape:connector-curvature="0" class="st1" d="M82.5,49.8L82.5,49.8"/>
<path id="path4785" inkscape:connector-curvature="0" class="st1" d="M98.2,91l-0.1-0.2"/>
<path id="path4787" inkscape:connector-curvature="0" class="st1" d="M69.8,104.9l-0.1,0.2"/>
<path id="path4789" inkscape:connector-curvature="0" class="st1" d="M82.5,39.8h-9.9"/>
<path id="path4791" inkscape:connector-curvature="0" class="st1" d="M68.3,39.8h-9.9"/>
<path id="path4793" inkscape:connector-curvature="0" class="st1" d="M54.2,39.8h-9.9"/>
<path id="path4795" inkscape:connector-curvature="0" class="st1" d="M40,39.8h-9.9"/>
<path id="path4797" inkscape:connector-curvature="0" class="st1" d="M82.5,39.8h-10"/>
<path id="path4799" inkscape:connector-curvature="0" class="st1" d="M68.4,39.8h-10"/>
<path id="path4801" inkscape:connector-curvature="0" class="st1" d="M54.2,39.8h-10"/>
<path id="path4803" inkscape:connector-curvature="0" class="st1" d="M40,39.8H30"/>
<path id="path4805" inkscape:connector-curvature="0" class="st1" d="M82.5,42.7L82.5,42.7"/>
<path id="path4811" inkscape:connector-curvature="0" class="st1" d="M95.2,91v13.8"/>
<path id="path4813" inkscape:connector-curvature="0" class="st1" d="M95.3,90.9V105"/>
<path id="path4815" inkscape:connector-curvature="0" class="st1" d="M81,91l0.1-0.2"/>
<path id="path4817" inkscape:connector-curvature="0" class="st1" d="M98.1,105V90.9"/>
<path id="path4819" inkscape:connector-curvature="0" class="st1" d="M98.2,104.9V91"/>
<path id="path4825" inkscape:connector-curvature="0" class="st1" d="M84,104.9l-0.1,0.2"/>
<path id="path4827" inkscape:connector-curvature="0" class="st1" d="M95.2,91l0.1-0.2"/>
<path id="path4829" inkscape:connector-curvature="0" class="st1" d="M110,104.9V91"/>
<path id="path4831" inkscape:connector-curvature="0" class="st1" d="M110.1,105V90.9"/>
<path id="path4833" inkscape:connector-curvature="0" class="st1" d="M98.2,104.9l-0.1,0.2"/>
<path id="path4835" inkscape:connector-curvature="0" class="st1" d="M110.1,90.9L110,91"/>
<path id="path4837" inkscape:connector-curvature="0" class="st0" d="M35.9,6.5h64.9"/>
<path id="path4839" inkscape:connector-curvature="0" class="st0" d="M35.8,5.9h65.1"/>
<path id="path4841" inkscape:connector-curvature="0" class="st0" d="M35.7,5.8h65.2"/>
<path id="path4843" inkscape:connector-curvature="0" class="st0" d="M129.3,28.8v73.2"/>
<path id="path4845" inkscape:connector-curvature="0" class="st0" d="M129.9,28.5v73.6"/>
<path id="path4847" inkscape:connector-curvature="0" class="st0" d="M130,102.2V28.5"/>
<path id="path4849" inkscape:connector-curvature="0" class="st0" d="M130,28.5c-8-9.5-17.9-17.2-29.1-22.7"/>
<path id="path4851" inkscape:connector-curvature="0" class="st0" d="M117.9,113.5c4.4-3.4,8.4-7.2,12-11.3"/>
<path id="path4853" inkscape:connector-curvature="0" class="st0" d="M6.7,102.2c3.7,4.1,7.7,7.9,12,11.3"/>
<path id="path4855" inkscape:connector-curvature="0" class="st0" d="M35.7,5.8C24.6,11.3,14.7,19,6.7,28.5"/>
<path id="path4857" inkscape:connector-curvature="0" class="st0" d="M117.9,113.4c4.3-3.4,8.3-7.2,12-11.3"/>
<path id="path4859" inkscape:connector-curvature="0" class="st0" d="M129.9,28.5c-8-9.4-17.9-17.1-29-22.6"/>
<path id="path4861" inkscape:connector-curvature="0" class="st0" d="M6.8,102.2c3.6,4.1,7.6,7.9,12,11.3"/>
<path id="path4863" inkscape:connector-curvature="0" class="st0" d="M35.8,5.9c-11.1,5.5-21,13.2-29,22.6"/>
<path id="path4865" inkscape:connector-curvature="0" class="st0" d="M35.9,6.5C25,11.9,15.3,19.5,7.4,28.8"/>
<path id="path4867" inkscape:connector-curvature="0" class="st0" d="M129.3,28.8c-7.9-9.3-17.6-16.8-28.5-22.2"/>
<path id="path4869" inkscape:connector-curvature="0" class="st0" d="M117.7,112.9c4.2-3.3,8.1-6.9,11.6-10.9"/>
<path id="path4871" inkscape:connector-curvature="0" class="st0" d="M7.4,101.9c3.5,4,7.4,7.6,11.6,10.9"/>
<path id="path4877" inkscape:connector-curvature="0" class="st2" d="M104.7,30.1c0-3.4-2.7-6.1-6.1-6.1c-3.4,0-6.1,2.7-6.1,6.1
	c0,3.4,2.7,6.1,6.1,6.1C102,36.2,104.7,33.4,104.7,30.1L104.7,30.1z"/>
<path id="path4881" inkscape:connector-curvature="0" class="st1" d="M88.4,18.6c0-1.6-1.3-2.8-2.8-2.8c-1.6,0-2.8,1.3-2.8,2.8
	c0,1.6,1.3,2.8,2.8,2.8C87.2,21.5,88.4,20.2,88.4,18.6z"/>
<path id="path4885" inkscape:connector-curvature="0" class="st1" d="M102.2,48.1V37c3.2-1.6,4.9-5.3,4-8.8c-0.8-3.5-4-6-7.6-6
	s-6.7,2.5-7.6,6c-0.8,3.5,0.8,7.1,4,8.8v11.1c0,0.3-0.1,0.5-0.4,0.6c-0.2,0.1-0.5,0.1-0.7,0c-0.2-0.1-0.4-0.4-0.4-0.6
	c0,0,0-10.2,0-10.2c-3.4-2.2-5-6.4-3.9-10.3c1.1-3.9,4.8-6.6,8.8-6.6c4.1,0,7.7,2.7,8.8,6.6c1.1,3.9-0.4,8.1-3.9,10.3v10.2
	c0,0.3-0.1,0.5-0.4,0.6c-0.2,0.1-0.5,0.1-0.7,0C102.3,48.5,102.2,48.3,102.2,48.1z"/>
<path id="path4887" inkscape:connector-curvature="0" class="st0" d="M6.8,28.5l0.6,0.2"/>
<path id="path4889" inkscape:connector-curvature="0" class="st1" d="M6.8,102.2l0.6-0.2"/>
<path id="path4891" inkscape:connector-curvature="0" class="st0" d="M129.9,102.2l0.1,0"/>
<path id="path4893" inkscape:connector-curvature="0" class="st0" d="M129.9,28.5l0.1,0"/>
<path id="path4895" inkscape:connector-curvature="0" class="st0" d="M100.9,5.9l0-0.1"/>
<path id="path4897" inkscape:connector-curvature="0" class="st0" d="M117.9,113.4l0,0.1"/>
<path id="path4899" inkscape:connector-curvature="0" class="st0" d="M18.8,113.4l0.2-0.6"/>
<path id="path4901" inkscape:connector-curvature="0" class="st0" d="M18.8,113.4l0,0.1"/>
<path id="path4903" inkscape:connector-curvature="0" class="st0" d="M117.9,113.4l-0.2-0.6"/>
<path id="path4905" inkscape:connector-curvature="0" class="st0" d="M129.9,102.2l-0.6-0.2"/>
<path id="path4907" inkscape:connector-curvature="0" class="st0" d="M35.8,5.9l0-0.1"/>
<path id="path4909" inkscape:connector-curvature="0" class="st0" d="M6.8,28.5l-0.1,0"/>
<path id="path4911" inkscape:connector-curvature="0" class="st0" d="M129.9,28.5l-0.6,0.2"/>
<path id="path4913" inkscape:connector-curvature="0" class="st1" d="M6.8,102.2l-0.1,0"/>
<path id="path4915" inkscape:connector-curvature="0" class="st0" d="M100.9,5.9l-0.1,0.6"/>
<path id="path4917" inkscape:connector-curvature="0" class="st0" d="M35.8,5.9l0.1,0.6"/>
<text transform="matrix(1 0 0 1 30.6495 84.5501)" class="st3 st4 st5">Micro Dimmer</text>
<g id="g6680" transform="translate(-180.20866,-11.729558)">
	<path id="path6682" inkscape:connector-curvature="0" class="st3" d="M244.4,32.6v4.3c0,0.4-0.1,0.5-0.5,0.5h-2.8
		c0,0-0.3,0-0.6,0.2c-0.4,0.4-1.7,1.5-1.7,1.5s-0.9,0.7,0.1,0.7h7.8c0.7,0,0.9-0.2,0.9-0.9v-8.5c0-0.7-0.2-1-1-1h-3.1l0,0
		c0,0,0,0,0,0c-0.5,0-1.2,0.1-1.6,0.5c-0.3,0.2-4.9,4.3-4.9,4.3s-0.2,0.2-0.4,0.2c0,0,0,0,0,0c-0.1,0-0.3-0.2-0.3-0.2
		s-4.6-4.1-4.9-4.3c-0.4-0.3-1.1-0.4-1.6-0.4c0,0,0,0,0,0l0,0h-3.1c-0.8,0-1,0.3-1,1V36v1V39c0,0.6,0.2,0.8,0.8,0.9v0h0.1
		c0,0,0,0,0,0h1.4h0.6c0,0,0.3,0,0.6-0.3c0.4-0.4,1.7-1.5,1.7-1.5s0.9-0.7-0.1-0.7h-1.4c-0.4,0-0.5-0.1-0.5-0.5c0,0,0,0,0-0.1V36
		v-3.4c0-0.2,0-0.6,0.5-0.2l4.6,4.2c0.1,0.1,0.2,0.2,0.3,0.3l-3,2.7c0,0-0.5,0.4,0.2,0.4h3l0,0c0,0,0,0,0,0c0.3,0,0.9,0,1.6-0.5
		c0.3-0.2,7.9-7,7.9-7C244.4,32,244.4,32.4,244.4,32.6L244.4,32.6z"/>
	<g id="g6684">
		<path id="path6686" inkscape:connector-curvature="0" class="st3" d="M247.1,43.2h-5.4c-0.4,0-0.6,0.2-0.6,0.6v3.4
			c0,0.4,0.2,0.6,0.6,0.6h5.4c0.4,0,0.6-0.2,0.6-0.6v-3.4C247.7,43.4,247.5,43.2,247.1,43.2z M246,46.4L246,46.4
			c0,0.2,0,0.2-0.2,0.2h-3c-0.2,0-0.2,0-0.2-0.2v-1.8c0-0.2,0-0.2,0.2-0.2h3c0.2,0,0.2,0,0.2,0.2V46.4z"/>
		<path id="path6688" inkscape:connector-curvature="0" class="st3" d="M231.4,43.2h-5.4c-0.4,0-0.6,0.2-0.6,0.6v3.4
			c0,0.4,0.2,0.6,0.6,0.6h5.4c0.4,0,0.6-0.2,0.6-0.6v-3.4C232,43.4,231.8,43.2,231.4,43.2z M230.3,46.4L230.3,46.4
			c0,0.2,0,0.2-0.2,0.2h-3c-0.2,0-0.2,0-0.2-0.2v-1.8c0-0.2,0-0.2,0.2-0.2h3c0.2,0,0.2,0,0.2,0.2V46.4z"/>
		<path id="path6690" inkscape:connector-curvature="0" class="st3" d="M239.9,43.2h-0.7c-0.3,0-0.5,0.1-0.5,0.5v2h-3.5v-2
			c0-0.3-0.1-0.5-0.5-0.5h-0.7c-0.3,0-0.5,0.1-0.5,0.5v3.7c0,0.3,0.1,0.5,0.5,0.5h0.7c0.3,0,0.5-0.1,0.5-0.5v-0.5h3.5v0.5
			c0,0.3,0.1,0.5,0.5,0.5h0.7c0.3,0,0.5-0.1,0.5-0.5v-3.7C240.4,43.3,240.2,43.2,239.9,43.2z"/>
		<path id="path6692" inkscape:connector-curvature="0" class="st3" d="M257.6,44.3l4.3,0c0.2,0,0.3-0.1,0.3-0.3v-0.6
			c0-0.2-0.1-0.3-0.3-0.3h-2.2h-3h-0.5c-0.4,0-0.6,0.2-0.6,0.6v3.4c0,0.4,0.2,0.6,0.6,0.6h0.5h3h2.2c0.2,0,0.3-0.1,0.3-0.3v-0.6
			c0-0.2-0.1-0.3-0.3-0.3l-4.3,0c-0.2,0-0.3-0.1-0.3-0.3v-0.3h4.6c0.2,0,0.3-0.1,0.3-0.3v-0.6c0-0.2-0.1-0.3-0.3-0.3h-4.6v-0.3
			C257.2,44.4,257.4,44.3,257.6,44.3L257.6,44.3z"/>
		<path id="path6694" inkscape:connector-curvature="0" class="st3" d="M219.9,46.1v0.3c0,0.2,0.2,0.3,0.3,0.3l4.3,0
			c0.2,0,0.3,0.1,0.3,0.3v0.6c0,0.2-0.1,0.3-0.3,0.3h-2.2h-3h-0.5c-0.4,0-0.6-0.2-0.6-0.6v-3.4c0-0.4,0.2-0.6,0.6-0.6h0.5h3h2.2
			c0.2,0,0.3,0.1,0.3,0.3V44c0,0.2-0.1,0.3-0.3,0.3l-4.3,0c-0.2,0-0.3,0.1-0.3,0.3v0.3V46.1L219.9,46.1z"/>
		<path id="path6696" inkscape:connector-curvature="0" class="st3" d="M217.3,43.1c0,0-0.9,0-0.9,0c-0.3,0-0.5,0-0.8,0.3
			c-0.1,0.1-1,0.9-1,0.9s-0.1,0.1-0.2,0.1c-0.1,0-0.2-0.1-0.2-0.1s-0.8-0.8-1-0.9c-0.4-0.3-0.6-0.3-0.8-0.3c0,0-0.9,0-0.9,0
			c-0.3,0-0.5,0.2-0.5,0.5v3.8c0,0.3,0.1,0.4,0.5,0.4h0.7c0.3,0,0.4-0.1,0.4-0.5V45c0,0,1.3,1.1,1.4,1.3c0.1,0.1,0.2,0.1,0.3,0.1
			c0,0,0,0,0,0c0,0,0,0,0,0h0c0.1,0,0.2,0,0.3-0.1c0.2-0.1,1.4-1.3,1.4-1.3v2.4c0,0.3,0.1,0.5,0.4,0.5h0.7c0.3,0,0.5-0.1,0.5-0.4
			v-3.8C217.8,43.3,217.7,43.1,217.3,43.1L217.3,43.1z"/>
		<path id="path6698" inkscape:connector-curvature="0" class="st3" d="M254.5,43.1c0,0-0.9,0-0.9,0c-0.3,0-0.5,0-0.8,0.3
			c-0.1,0.1-1,0.9-1,0.9s-0.1,0.1-0.2,0.1c-0.1,0-0.2-0.1-0.2-0.1s-0.8-0.8-1-0.9c-0.4-0.3-0.6-0.3-0.8-0.3c0,0-0.9,0-0.9,0
			c-0.3,0-0.5,0.2-0.5,0.5v3.8c0,0.3,0.1,0.4,0.5,0.4h0.7c0.3,0,0.4-0.1,0.4-0.5V45c0,0,1.3,1.1,1.4,1.3c0.1,0.1,0.2,0.1,0.3,0.1
			c0,0,0,0,0,0c0,0,0,0,0,0h0c0.1,0,0.2,0,0.3-0.1c0.2-0.1,1.4-1.3,1.4-1.3v2.4c0,0.3,0.1,0.5,0.4,0.5h0.7c0.3,0,0.5-0.1,0.5-0.4
			v-3.8C255,43.3,254.8,43.1,254.5,43.1L254.5,43.1z"/>
	</g>
</g>
</svg>
