<?xml version="1.0" encoding="utf-8"?>
<!-- Generator: Adobe Illustrator 21.1.0, SVG Export Plug-In . SVG Version: 6.00 Build 0)  -->
<svg version="1.1" id="Laag_1" xmlns="http://www.w3.org/2000/svg" xmlns:xlink="http://www.w3.org/1999/xlink" x="0px" y="0px"
	 viewBox="0 0 2400 3461" style="enable-background:new 0 0 2400 3461;" xml:space="preserve">
<style type="text/css">
	.st0{fill:#FFFFFF;stroke:#FFFFFF;stroke-miterlimit:10;}
	.st1{fill:#FFFFFF;}
	.st2{stroke:#336699;stroke-miterlimit:10;}
</style>
<path d="M24.4,0h2349.7c5.6,0.8,12.1-0.5,17.1,2.8c4.9,2.9,7.9,8.5,8.1,14.2c0,1140,0,2280.1,0,3420.1c-0.2,5.4,0.9,11.3-2,16.1
	c-2.6,4.6-7.8,7.1-12.9,7.8H14.8c-7.2-0.7-13.9-6.1-14.8-13.5V15.6c0.6-7,5.9-13.3,12.9-14.8C16.7,0.3,20.6,0.4,24.4,0 M13.3,7.2
	C8,8.9,5.7,14.7,6.3,20c0,1140.7,0,2281.4,0,3422.1c0.1,3-0.3,6.5,1.9,8.9c2.8,3.6,7.6,3.9,11.8,3.8c786,0,1572.1,0,2358.1,0
	c4.3,0,9.3,0.2,12.5-3.2c3.5-3.6,2.2-9,2.4-13.5c0-1137.7,0-2275.3,0-3413c-0.2-5.1,1-11.1-3-15.1c-2.5-2.9-6.5-3.4-10.1-3.1
	c-787,0-1574,0-2361,0C17.1,6.8,15.1,6.7,13.3,7.2z"/>
<path d="M29.2,27.1c4.3,0.5,8.6,0.4,12.9,0.4c770,0,1539.9,0,2309.9,0c5.9-0.1,11.7,0.2,17.6-0.3c0.8,0.5,1.6,1,2.4,1.5
	c0,1133.1,0,2266.2,0,3399.3c-0.4,2.4,1.1,6-1.6,7.5c-776.1,0-1552.3,0-2328.5,0c-4.2-0.1-8.5-0.1-12.7,0.3
	c-0.7-0.7-1.5-1.3-2.2-1.9c-0.1-1134,0-2268,0-3402C26.6,29.9,27.6,28.3,29.2,27.1 M33.3,33.8c0,1131.8,0,2263.6,0,3395.5
	c777.5,0,1555,0,2332.5,0c0-1131.8,0.1-2263.7,0-3395.5C1588.2,33.8,810.7,33.7,33.3,33.8z"/>
<path d="M385.3,400.3c0.7-0.1,2-0.4,2.7-0.5c537.7,0,1075.3,0,1613,0c4.3,0.1,8.6-0.5,12.9,0.5c6.4,1.7,11.4,7.9,11.4,14.6
	c0,653.7,0,1307.4,0,1961.1c-0.1,4.6,0.7,9.5-1.6,13.7c-1.8,3.1-3.9,6.3-7.3,7.6c-4.2,1.8-8.9,1-13.3,1.2
	c-537.7,0-1075.4,0-1613.2,0c-5.7,0-10.9-3.6-14-8.3c-2.7-4.3-1.8-9.5-1.9-14.3c0-653.7,0-1307.4,0-1961
	C373.8,408.2,378.9,402,385.3,400.3 M1077.3,610c2.2,5.1,4.9,10,7.1,15c12.9,0,25.8,0,38.7,0c3.2-4.9,6.5-9.6,9.7-14.5
	c-5.9-1.4-11.9-0.6-17.8-0.8C1102.4,609.9,1089.9,609.5,1077.3,610 M1180.4,609.9c2.3,5.1,4.9,10,7.2,15.1c12.9,0,25.8,0,38.7,0
	c3.2-4.8,6.5-9.6,9.6-14.5c-5.6-1.3-11.3-0.6-16.9-0.8C1206.1,609.8,1193.2,609.5,1180.4,609.9 M1321.7,609.9
	c2.3,5.1,4.9,10,7.2,15.1c12.9,0,25.8,0,38.8,0c3.1-4.8,6.4-9.6,9.5-14.4c-5.6-1.3-11.5-0.6-17.2-0.8
	C1347.2,609.9,1334.4,609.5,1321.7,609.9 M1424.8,610c2.2,5.1,4.9,10,7.2,15c12.9,0,25.8,0,38.7,0c3.1-4.9,6.5-9.6,9.7-14.4
	c-5.7-1.4-11.6-0.7-17.4-0.8C1450.3,609.9,1437.5,609.5,1424.8,610 M1167.5,622c-1.3,13.9-2.5,27.9-3.7,41.8c2,1.6,3.8,3.5,5.7,5.3
	c3.4-2.4,6.6-5,9.8-7.5c1-11.4,1.9-22.8,2.9-34.2c-2.7-5.6-5.4-11.1-8.1-16.6C1170.6,613.4,1167.9,617.4,1167.5,622 M1308.9,622.4
	c-1.3,13.8-2.4,27.5-3.7,41.3c1.9,1.8,3.9,3.6,5.8,5.4c3.2-2.5,6.4-5,9.6-7.4c1.2-11.5,2-23,3-34.5c-2.7-5.5-5.3-11.1-8.1-16.5
	C1311.9,613.6,1309.2,617.7,1308.9,622.4 M1412.2,621.7c-1.3,14-2.6,28-3.7,41.9c1.8,1.8,3.7,3.7,5.6,5.5c3.4-2.4,6.6-5,9.9-7.5
	c0.8-10.9,1.8-21.7,2.8-32.6c0.2-1.4-0.1-2.6-0.8-3.8c-2.4-4.8-4.7-9.7-7.2-14.5C1415.2,613.3,1412.6,617.2,1412.2,621.7
	 M1136.6,614.7c-3.3,5.3-7.2,10.3-10.4,15.8c-1.1,10.9-2,21.7-3,32.6c2.6,2.3,5,4.7,7.7,7c2.6-2,5.1-4,7.6-6.1
	c1-12.3,2.3-24.6,3.3-36.9C1142.2,622.4,1140.2,617.7,1136.6,614.7 M1229.4,630.3c-1.3,10.8-2,21.8-3.1,32.7c2.5,2.4,5,4.8,7.6,7.2
	c2.6-2,5.1-4,7.7-6c1.2-12.2,2.2-24.5,3.4-36.7c0.6-4.8-1.7-9.5-5.1-12.8C1236.3,619.8,1232.7,624.9,1229.4,630.3 M1381.4,614.5
	c-2.8,4.1-5.7,8.3-8.5,12.4c-1,1.6-2.4,3.2-2.4,5.3c-1,10.2-1.8,20.4-2.8,30.7c2.4,2.5,5,4.7,7.5,7.2c2.6-1.9,5.4-3.8,7.7-6.1
	c1.6-12,2.2-24.1,3.5-36.1C1387.1,622.9,1384.8,618.1,1381.4,614.5 M1266.6,635.5c-0.8,7.5-1.4,15-2.1,22.5c6.3,0,12.7,0,19,0
	c0.7-7.5,1.4-15,2.1-22.5C1279.2,635.5,1272.9,635.5,1266.6,635.5 M1070.7,673c2.7,2.7,5.3,5.3,8,8c13,0,25.9,0,38.9,0
	c3-2.4,6-4.8,9-7.3c-2.8-2.6-5.6-5.3-8.4-7.9c-12.7,0-25.4,0-38.1,0C1076.9,668.2,1073.8,670.6,1070.7,673 M1418.2,673
	c2.7,2.7,5.3,5.3,8,8c13,0,26.1,0,39.1,0c2.9-2.5,6-4.8,8.9-7.3c-2.7-2.7-5.6-5.3-8.3-8c-12.8,0-25.6,0-38.4,0
	C1424.4,668.2,1421.2,670.6,1418.2,673 M1059.4,681.5c-1.4,14.1-2.6,28.3-3.8,42.4c-0.5,4.2,1.7,8.2,4.8,11
	c3.7-6.4,7.7-12.7,11.2-19.3c1.2-10.3,1.8-20.7,2.9-31c-2.6-2.9-5.5-5.4-8.3-8C1063.8,678.2,1061.6,679.9,1059.4,681.5
	 M1162.3,681.8c-1.1,14-2.5,28-3.7,42c-0.5,4.3,1.7,8.4,4.9,11.2c3.4-5.8,6.7-11.6,10.1-17.3c1.4-2,1.2-4.5,1.5-6.7
	c0.7-8.8,1.5-17.6,2.3-26.4c-2.8-2.7-5.4-5.5-8.3-8C1166.9,678.2,1164.6,680,1162.3,681.8 M1303.6,681.8c-1.1,14-2.5,28-3.7,41.9
	c-0.5,4.3,1.7,8.4,4.8,11.2c3.7-6.4,7.6-12.7,11.1-19.2c1.3-10.4,1.9-20.9,2.9-31.3c-2.8-2.6-5.4-5.5-8.3-8
	C1308.1,678.2,1305.8,680,1303.6,681.8 M1224.7,685c-1.1,11.9-2,23.8-3.2,35.7c2.7,4.8,5.5,9.6,8.3,14.3c3.5-2.7,6.2-6.6,6.7-11
	c1.2-13.6,2.4-27.2,3.6-40.9c-2-1.9-4.1-3.8-6.1-5.7C1230.8,680,1227.8,682.5,1224.7,685 M1365.9,685c-1.1,11.9-2.1,23.8-3.2,35.8
	c2.8,4.8,5.5,9.5,8.3,14.3c3.8-2.8,6.5-7,6.8-11.7c1.2-13.4,2.4-26.8,3.5-40.2c-2-1.9-4.1-3.8-6.1-5.7
	C1372.1,680,1369,682.5,1365.9,685 M1469.1,685c-1,10.9-1.9,21.8-2.9,32.7c-0.1,1.6-0.5,3.3,0.6,4.6c2.4,4.3,5,8.5,7.4,12.8
	c3.6-2.7,6.3-6.7,6.7-11.2c1.3-13.6,2.3-27.2,3.6-40.7c-2.1-1.9-4.1-3.9-6.3-5.7C1475.2,680,1472.1,682.5,1469.1,685 M1261.6,692.2
	c-0.8,7.4-1.4,14.8-2.1,22.2c6.3,0.1,12.7,0,19,0c0.8-7.4,1.4-14.8,2.2-22.2C1274.2,692.2,1267.9,692.3,1261.6,692.2 M1065.3,737.5
	c6.5,1,13.1,0.3,19.6,0.5c12.1-0.2,24.2,0.3,36.4-0.3c-2.8-5-5.8-10-8.7-15c-12.9,0-25.9,0-38.8,0
	C1071,727.7,1068.1,732.5,1065.3,737.5 M1168.5,737.5c5.8,1,11.7,0.3,17.5,0.5c12.8-0.1,25.5,0.3,38.3-0.2c-2.5-5.2-5.8-10-8.6-15
	c-12.9,0-25.8,0-38.8,0C1174.1,727.7,1171.2,732.5,1168.5,737.5 M1309.9,737.5c6.7,0.9,13.4,0.3,20.1,0.5c12-0.2,24,0.4,35.9-0.3
	c-2.9-5-5.8-10-8.7-15c-12.9,0-25.8,0-38.8,0C1315.6,727.7,1312.7,732.6,1309.9,737.5 M1421.5,722.6c-2.9,4.9-5.8,10-8.7,14.9
	c4.3,0.9,8.8,0.4,13.2,0.5c14.4-0.1,28.8,0.2,43.3-0.2c-2.8-5.2-5.9-10.2-8.8-15.3C1447.4,722.6,1434.4,722.5,1421.5,722.6
	 M435.2,837.2c0,4.8,0,9.7,0,14.5c521.2,0,1042.5,0,1563.8,0c0-4.8,0-9.7,0-14.5C1477.8,837.2,956.5,837.2,435.2,837.2
	 M542.5,1134.7c-5.8,0.8-11.6,2.8-16.2,6.6c-9.7,7.7-15.6,19.4-17.5,31.5c-1.6,9.5-1.6,19.8,2.9,28.5c2.8,5.7,8.4,9.7,14.5,11.1
	c9.7,2,20.2-0.2,28.4-5.7c5.9-3.8,9.7-9.9,12.9-16c5.3-11.3,7.3-24.2,5.4-36.6c-0.8-5.2-3.2-10.3-7.3-13.7
	C559.3,1135,550.5,1133.7,542.5,1134.7 M462,1143.9c-7.8,7.7-13.5,17.7-15.2,28.6c-1.4,8.7-1.8,18,1.6,26.4
	c3.1,7.7,10.5,13.4,18.8,14.1c8.5,1.2,17.6-0.1,24.6-5.4c0.3-3.7,0.6-7.4,0.8-11.2c-6.8,5.2-15.7,9.6-24.3,6.4
	c-6.3-2-10.3-8.3-10.9-14.7c-1.1-10,0.8-20.7,6.4-29.2c4.1-7.4,11.3-13.8,20-14.5c5.1-0.9,10.1,0.7,14.6,3.1c1.1-3.5,2-7,3.1-10.5
	C488.4,1132.5,472.4,1134.3,462,1143.9 M589.9,1138.9c-3,1.6-4.5,4.8-6.4,7.5c2.5,1.7,5,3.4,7.5,5c1.8-1.8,3.6-3.5,5.4-5.3
	c3-0.8,6-1.4,9.1-2.1c2,0.6,4,1.2,6,1.9c1,2.2,2,4.3,3,6.5c-1.5,9.8-8.6,17.2-14.3,24.8c-7.4,9.6-14.8,19.2-22.2,28.7
	c-1.8,1.7-1.1,4.3-1.2,6.5c14.3,0,28.6,0.1,42.9,0c0.5-3.2,1.1-6.3,1.6-9.5c-9.3,0-18.7,0-28,0c7.2-9.4,14.4-18.8,21.6-28.1
	c5.2-7.3,11.4-15.3,10.4-24.8c-0.1-4.5-2.9-8.2-5.9-11.3C610.4,1133.9,598.7,1133.5,589.9,1138.9 M981.2,1149.1
	c5.7,11.9,11.5,23.8,17.3,35.6c31.4,0,62.8,0,94.2,0c7.6-11.4,15.3-22.7,23-34.1c-7.9-2.8-16.4-2.1-24.7-2.2c-32,0-64,0-96,0
	C990.4,1148.5,985.8,1148.2,981.2,1149.1 M1231.6,1149.1c5.7,11.9,11.5,23.8,17.4,35.7c31.4,0,62.8,0,94.2,0
	c7.6-11.4,15.4-22.7,22.9-34.1c-4.5-1.5-9.3-2.1-14-2.1c-30.4,0-60.8,0-91.1,0C1251.2,1148.8,1241.3,1147.8,1231.6,1149.1
	 M1482,1149.2c5.8,11.9,11.7,23.7,17.3,35.6c31.4,0,62.9,0,94.3,0c7.6-11.4,15.3-22.7,22.9-34.1c-6.9-2.5-14.3-2.2-21.5-2.2
	c-33,0-65.9,0-98.9,0C1491.4,1148.6,1486.6,1148.2,1482,1149.2 M951.6,1171.8c-2,7.9-2.2,16.1-3,24.2c-2.4,27.6-4.7,55.2-7.1,82.8
	c4.4,4.4,8.8,8.8,13.2,13.2c1.4-0.6,2.7-1.4,3.8-2.3c6.7-5.3,13.5-10.5,20.2-15.8c2.3-27.6,4.9-55.2,7.2-82.8
	c-6.1-13.4-13-26.5-19.4-39.8C959.4,1156.2,953.8,1163.4,951.6,1171.8 M1201.8,1172.7c-1.9,8.6-2.1,17.4-3,26.1
	c-2.3,26.8-4.6,53.6-6.9,80.3c4.3,4.4,9,8.4,13.2,12.9c1.4-0.5,2.7-1.3,3.8-2.2c6.7-5.3,13.4-10.5,20.2-15.8
	c2.4-27.8,5.1-55.6,7.2-83.4c-6.4-13.1-12.9-26.3-19.4-39.4C1209.6,1156.4,1203.9,1163.9,1201.8,1172.7 M1452.8,1170.6
	c-2.1,7-2.4,14.3-3,21.5c-2.4,29-5.1,58-7.4,87c4.5,4.4,8.8,9,13.6,13.1c8-5.8,15.6-12.1,23.4-18c2.5-27.8,5.1-55.6,7.2-83.3
	c-6.4-13.2-12.8-26.4-19.4-39.5C1460.5,1156,1455.2,1162.7,1452.8,1170.6 M1602.2,1197.3c-1.3,1.6-1,3.7-1.3,5.6
	c-2.1,25-4.5,49.9-6.4,74.9c5.1,5.1,10.5,9.8,15.7,14.9c0.9,0.8,2.2,2.4,3.5,1.3c5.9-4.4,11.5-9.2,17.2-13.8
	c2.6-29.6,5.2-59.2,7.8-88.9c1-11.2-3.6-22.6-12-30.1C1618.5,1173.1,1610.4,1185.2,1602.2,1197.3 M986.7,1285.6
	c-7.2,5.6-14.4,11.2-21.6,16.9c6.6,6,12.8,12.4,19.3,18.5c31.7,0,63.4,0,95.1,0c7.1-5.6,14.1-11.4,21.2-17
	c-6.6-6.6-13.6-12.7-20.3-19.2c-29.8,0-59.5,0-89.3,0C989.5,1284.8,987.8,1284.4,986.7,1285.6 M1215.6,1302.4
	c6.3,6.2,12.8,12.3,19,18.6c31.8,0,63.5,0,95.3,0c7-5.7,14.2-11.3,21.2-17.1c-6.9-6.3-13.6-13-20.6-19.2c-30.7,0.1-61.4,0.1-92.1,0
	C1230.7,1290.5,1223.2,1296.6,1215.6,1302.4 M1466,1302.4c6.2,6.3,12.7,12.3,18.8,18.6c31.8,0,63.6,0,95.4,0
	c7.1-5.7,14.1-11.4,21.2-17.1c-6.9-6.4-13.7-12.9-20.7-19.2c-30.7,0-61.4,0-92.1,0C1481.1,1290.7,1473.6,1296.5,1466,1302.4
	 M951.1,1313.2c-4.6,3.6-9.2,7.3-13.8,10.9c-2.9,34.3-6,68.6-9,102.8c-0.7,9.7,4,19.4,11.7,25.2c8.9-15.5,18.1-30.8,26.8-46.5
	c2.5-25,4.3-50,6.7-75c-6.2-6.2-12.3-12.5-18.7-18.6C953.7,1310.7,952.2,1312.6,951.1,1313.2 M1187.8,1324c-3,34-6,68-9,102.1
	c-1,9.9,3.7,20,11.6,26.1c9-15.5,18.1-30.9,26.9-46.5c2.4-25.1,4.4-50.2,6.5-75.3c-6.6-6.4-12.7-13.2-19.8-19.1
	C1198.5,1315.4,1193.2,1319.8,1187.8,1324 M1451,1314c-4.1,3.6-9,6.4-12.7,10.4c-3.2,33.8-6,67.6-9,101.4
	c-1.1,10.1,3.6,20.3,11.5,26.4c6.1-10.6,12.3-21.2,18.5-31.8c2.7-5.2,6.4-10,8.5-15.4c2.2-24.8,4.3-49.5,6.4-74.3
	c-5.6-6.3-12.1-11.8-17.9-18C1454.7,1310.4,1452.4,1312.8,1451,1314 M1088.4,1331.8c-1.8,22-3.7,44-5.5,66
	c-0.4,6.9-1.6,13.9-1.5,20.8c6.3,11.4,12.9,22.6,19.5,33.8c8.9-5.7,15.2-15.4,16.2-26c3-33,5.7-66,8.8-98.9
	c-4.8-4.7-9.8-9.2-14.8-13.7C1103.1,1319.3,1095.9,1325.8,1088.4,1331.8 M1359.3,1315.2c-6.8,5.5-13.6,11-20.5,16.5
	c-2.4,28.8-4.8,57.7-7.3,86.6c6.5,11.4,13.1,22.8,19.7,34.2c9.2-5.9,15.6-16.1,16.4-27c2.9-32.8,5.8-65.5,8.6-98.3
	c-4.7-4-9.1-8.5-13.7-12.6C1361.4,1313.7,1360.1,1314.3,1359.3,1315.2 M1589.3,1331.6c-2.5,29-5.1,58-7.3,86.9
	c6.4,11.4,12.9,22.8,19.7,34c8.9-5.8,15.2-15.7,16.2-26.4c2.9-32.9,5.8-65.8,8.6-98.7c-3.2-3.1-6.5-6.1-9.8-9.1
	c-1.8-1.6-3.3-3.6-5.7-4.2C1603.9,1319.9,1596.7,1325.8,1589.3,1331.6 M973.9,1422.5c-7,11.8-14,23.7-21,35.5
	c7.2,2.1,14.7,1.4,22.1,1.5c32,0,64,0,96,0c5.7-0.1,11.5,0.5,17-1.1c-6.9-11.9-13.7-23.9-20.6-35.9
	C1036.2,1422.5,1005,1422.5,973.9,1422.5 M1224.3,1422.5c-7,11.8-14.1,23.7-21,35.6c8.1,2.2,16.5,1.2,24.7,1.4c31,0,62,0,93,0
	c5.8-0.1,11.7,0.4,17.4-1.1c-6.9-12-13.7-24-20.6-36C1286.6,1422.5,1255.4,1422.5,1224.3,1422.5 M1474.5,1422.5
	c-6.9,11.8-13.9,23.7-20.8,35.5c7.3,2.1,14.9,1.4,22.3,1.5c31.7,0,63.3,0,95,0c5.9-0.1,12,0.4,17.8-1c-6.8-12-13.7-24-20.6-36
	C1536.9,1422.5,1505.7,1422.5,1474.5,1422.5 M473.5,1569.5c-7.3-0.4-14.4,5.6-14.4,13.1c-0.1,36.2,0,72.4,0,108.6
	c-0.3,6.5,4.5,12.8,11,13.8c4.3,0.5,8.7,0.1,13.1,0.2c222.4,0,444.8,0,667.2,0c5.4,0.1,10.5-3.6,12.4-8.6c1.3-3.4,0.9-7.1,0.9-10.6
	c0-34,0-68,0-101.9c0.1-4.4-1.6-8.8-5.1-11.5c-3.4-3-8.1-3.2-12.4-3.1C921.8,1569.5,697.6,1569.4,473.5,1569.5 M1285.5,1569.6
	c-7.4-0.3-14.2,6.1-14,13.6c0,35.9,0,71.8,0,107.7c-0.2,5.1,2.5,10.2,7,12.7c3.5,2.1,7.7,1.6,11.6,1.7c224.3,0,448.6,0,673,0
	c7.3,0.1,13.4-6.8,13-14c0-35.8,0-71.6,0-107.4c0.1-4.4-1.8-8.8-5.4-11.5c-3.2-2.6-7.6-2.9-11.6-2.9
	C1734.5,1569.6,1510,1569.4,1285.5,1569.6 M1425.8,1770.7c-5.5,13.8-10.4,27.8-16.2,41.4c-3.7-9.6-7.4-19.2-11.1-28.8
	c-6.2,15.9-12.2,31.9-18.4,47.8c-1.5,4.6-4.6,8.7-5,13.7c-1.5,10.2,4.4,21.1,14.1,25c9.9,4.3,22.5,0.9,28.6-8
	c5.3-7.4,5.7-17.7,1.3-25.6c4.2,1.8,9.1,1.9,13.4,0.2c8.4-3.1,13.3-13.1,10.6-21.7C1436.8,1800.3,1431.8,1785.3,1425.8,1770.7
	 M549.8,1780.7c-4.9,3.4-8.2,9.2-8.1,15.2c0,33.1,0,66.2,0,99.2c-4.7,3.1-8.8,7-11.6,11.9c-7.1,11.5-7,27,0.4,38.4
	c7.2,11.6,21.5,18.1,34.9,16.3c14.7-1.5,27.5-13.1,30.6-27.5c3.7-14.8-3.1-31.2-16.1-39.1c0-33.1,0-66.1,0-99.2
	c0.3-6.2-3.3-12.3-8.4-15.6C565.2,1776,556.1,1776.2,549.8,1780.7 M1513.3,1778.5c3.5,7,6.8,14,10.3,21c19.3,0,38.6,0,58,0
	c4.3-6.4,8.7-12.8,13.1-19.2c-6.5-3.1-13.8-1.8-20.7-2C1553.8,1778.4,1533.5,1777.9,1513.3,1778.5 M1656.1,1778.5
	c3.4,7,7,14,10.5,21c19.3,0,38.7,0,58,0c4.3-6.5,8.8-12.8,12.9-19.3c-3-1.2-6.2-2.2-9.5-2
	C1704.1,1778.4,1680.1,1777.9,1656.1,1778.5 M1584.8,1804.9c-1.9,16.9-3.1,33.9-4.8,50.8c3.7,3.3,7.2,6.9,10.9,10.3
	c3-1.4,5.3-4.1,8-5.9c0.9-1,2.5-1.6,2.6-3c1.7-18.7,3.3-37.3,5-55.9c0.6-6.7-2.5-13.3-7.4-17.7
	C1594.4,1790.6,1589.3,1797.5,1584.8,1804.9 M1728.6,1803.6c-0.9,1.2-1,2.7-1.1,4.2c-1.3,16-2.8,32-4.1,48.1c3.5,3.6,7.2,7,11,10.4
	c3.5-2.7,6.9-5.5,10.3-8.2c1.7-19,3.4-37.9,5-56.9c0.6-6.7-2.4-13.3-7.4-17.7C1737.7,1790.1,1733.2,1796.9,1728.6,1803.6
	 M661.1,1793.5c3.5,7,7,14,10.5,21c19.3,0,38.6,0,57.9,0c4.3-6.5,8.8-12.8,13.1-19.2c-6.5-3.1-13.7-1.7-20.5-2
	C701.7,1793.4,681.4,1792.9,661.1,1793.5 M804.2,1793.4c3.2,7.1,6.9,14,10.3,21.1c19.4,0,38.9,0,58.3,0c4.2-6.5,8.5-12.8,12.6-19.3
	c-3-1.1-6.1-2.1-9.3-2C852.1,1793.4,828.1,1793,804.2,1793.4 M787.2,1812.5c-1.6,19.3-3.4,38.6-5,57.8c2.7,2.8,5.7,5.4,8.5,8.1
	c4.4-3.6,9.1-6.8,13.3-10.6c1.9-17.5,3.1-35.2,4.7-52.7c-3.3-6.7-6.6-13.3-10-19.9C792.4,1798.8,787.7,1805.2,787.2,1812.5
	 M732.7,1820c-1.8,16.9-3.1,33.8-4.7,50.7c3.7,3.6,7.5,7,11.2,10.6c3.2-2.6,6.5-5,9.6-7.7c1-0.8,0.8-2.2,1-3.3
	c1.5-18.1,3.3-36.1,4.7-54.2c0.6-6.7-2.3-13.4-7.4-17.7C742.3,1805.6,737.2,1812.6,732.7,1820 M875.9,1819.7
	c-1.9,17-3,34.2-4.6,51.2c3.7,3.4,7.3,6.9,11,10.3c3.4-2.8,7-5.5,10.4-8.3c1.5-18.9,3.3-37.9,5-56.8c0.6-6.7-2.5-13.2-7.3-17.8
	C885.4,1805.4,880.6,1812.5,875.9,1819.7 M1502.4,1868.5c3.9,3.6,7.6,7.3,11.5,11c19.6,0.1,39.2,0,58.8,0c4.5-3.6,9-7.2,13.4-10.9
	c-3.9-3.5-7.7-7-11.5-10.6c-19.6,0-39.1,0-58.7,0C1511.3,1861.4,1506.9,1865,1502.4,1868.5 M1645.6,1868.5c3.7,3.7,7.4,7.5,11.3,11
	c19.6,0.1,39.2,0,58.8,0.1c4.6-3.5,9-7.2,13.4-10.8c-3.8-3.7-7.7-7.2-11.6-10.8c-19.6,0-39.2,0-58.9,0
	C1654.4,1861.6,1649.9,1864.9,1645.6,1868.5 M952.3,1866c1.9,4.3,4.1,8.5,6.2,12.7c11.7,0,23.3,0,35,0c2.6-3.9,5.4-7.8,7.9-11.7
	c-1.8-0.5-3.5-1.1-5.4-1C981.5,1866,966.9,1866,952.3,1866 M942.3,1876.9c-1.2,11.8-2.1,23.6-3.3,35.4c1.7,1.7,3.4,3.4,5.1,5.1
	c2.8-2,5.4-4.2,8.1-6.3c0.9-10.6,1.9-21.2,2.7-31.9c-1.7-4.2-3.8-8.2-5.7-12.2C945.7,1869.3,942.7,1872.7,942.3,1876.9
	 M995.5,1881.5c-1.3,10.3-1.9,20.7-2.9,31.1c2.2,2.1,4.5,4.2,6.8,6.3c2-1.8,4.5-3.2,6.1-5.4c1.2-11.1,1.9-22.2,3-33.3
	c0.6-4.3-1.4-8.5-4.4-11.5C1001.2,1873,998.2,1877.2,995.5,1881.5 M650.4,1883.3c3.8,3.8,7.5,7.6,11.5,11.2
	c19.6-0.1,39.2,0.2,58.8-0.1c4.6-3.3,8.9-7.2,13.4-10.7c-3.8-3.4-7.5-7.1-11.3-10.4c-1.5-0.5-3.1-0.3-4.7-0.3
	c-18.1,0.1-36.2,0-54.3,0C659.3,1876.5,654.8,1879.8,650.4,1883.3 M793.3,1883.2c3.7,3.8,7.5,7.5,11.3,11.3c19.7,0,39.4,0,59.1,0
	c4.5-3.6,9-7.2,13.4-10.9c-3.9-3.5-7.7-7.1-11.5-10.6c-19.6,0-39.2,0-58.9,0C802.2,1876.4,797.8,1879.8,793.3,1883.2 M1577.8,1882.3
	c-1.8,18.8-3.4,37.6-5,56.4c3.8,6.2,7.2,12.6,11,18.8c6.4-3.4,10.4-10.3,10.7-17.5c1.7-19.4,3.4-38.9,5.2-58.3
	c-3.3-3-6.5-6.2-9.8-9.1C1585.8,1875.9,1581.8,1879.1,1577.8,1882.3 M1722.8,1880.8c-0.9,0.7-2.1,1.4-2,2.7
	c-1.6,17.7-3.1,35.4-4.8,53.1c-0.3,1.3,0,2.5,0.7,3.6c3.4,5.8,6.7,11.6,10.1,17.4c5.5-3.5,9.6-9.3,10.4-15.8
	c1.8-20.1,3.6-40.1,5.3-60.2c-3.2-2.9-6.4-5.9-9.6-8.9C1729.6,1875.3,1726.2,1878.1,1722.8,1880.8 M637,1894.2
	c-1.8,19.5-3.6,39.1-5.2,58.7c-0.7,6.9,2.7,13.7,8,18.1c4.8-8.2,10-16.3,14.3-24.8c1.6-15.8,2.7-31.7,4.3-47.6
	c-3.7-4.2-8-7.8-11.9-11.8C643.3,1889.3,640.1,1891.7,637,1894.2 M780.1,1894.2c-1.8,19.6-3.6,39.2-5.3,58.9
	c-0.5,6.9,2.9,13.6,8.1,17.9c4.5-7.6,8.9-15.2,13.4-22.8c0.8-1.2,1.1-2.8,1.2-4.2c1.3-15.2,2.7-30.4,3.9-45.5
	c-4-3.8-7.8-7.8-11.7-11.6C786.4,1889.2,783.3,1891.7,780.1,1894.2 M868.8,1897.4c-1.6,18.8-3.4,37.6-5,56.3
	c3.8,6.2,7.2,12.6,11,18.8c5.6-3.5,9.8-9.4,10.5-16c1.8-19.9,3.5-39.9,5.3-59.8c-3.3-3-6.5-6-9.7-9.1
	C876.9,1890.9,872.8,1894.1,868.8,1897.4 M945.8,1920.2c2.2,2.3,4.5,4.5,6.8,6.8c11.9,0,23.8,0,35.6,0c2.7-2.2,5.4-4.4,8.1-6.6
	c-2.3-2.2-4.7-4.4-7-6.7c-11.8,0-23.6,0-35.4,0C951.2,1915.9,948.5,1918,945.8,1920.2 M937.8,1926.4c-1.1,11.7-2.1,23.5-3.2,35.3
	c-0.5,4.3,1.8,8.3,4.9,11.1c2.9-5.1,6.3-9.9,8.7-15.2c1.1-9.4,1.6-18.9,2.6-28.4c-2.4-2.4-4.8-4.8-7.2-7.2
	C941.7,1923.5,939.8,1924.9,937.8,1926.4 M991.1,1928.7c-0.8,11.2-2,22.3-2.8,33.5c1.7,4.2,4.4,8,6.6,11.9c3.5-2.4,6-6.2,6.3-10.5
	c0.9-11.8,2.3-23.6,3-35.5c-1.8-1.9-3.9-3.6-5.7-5.4C995.9,1924.6,993.5,1926.6,991.1,1928.7 M1496.8,1959.3c3,0.7,6,1.5,9.1,1.5
	c19.4,0,38.7,0,58.1,0c4.8-0.1,9.8,0.3,14.6-0.6c-4-7.1-8.2-14-12.2-21.1c-19.3-0.1-38.6,0-57.8,0
	C1504.7,1945.8,1500.7,1952.5,1496.8,1959.3 M1639.9,1959.1c2.6,0.8,5.3,1.5,8.1,1.4c19.6,0,39.3,0,58.9,0c4.9-0.1,9.9,0.4,14.8-0.6
	c-4-7.1-8.2-14.1-12.3-21.2c-19.2,0-38.5,0-57.7,0C1647.8,1945.5,1643.8,1952.3,1639.9,1959.1 M900.5,1953.2
	c-0.4,6.3-0.7,12.7-0.8,19c5.7,0,11.3,0,17,0c0.4-6.3,0.7-12.7,0.8-19C911.9,1953.2,906.2,1953.2,900.5,1953.2 M644.7,1974.2
	c5.6,1.9,11.5,1.3,17.2,1.3c17,0,34,0,51,0c4.5-0.1,9.1,0.3,13.6-0.5c-4.1-7.1-8.2-14.1-12.3-21.2c-19.2,0-38.5,0-57.7,0
	C652.7,1960.6,648.6,1967.3,644.7,1974.2 M787.8,1974.1c5.5,2,11.4,1.3,17.1,1.4c17,0,34.1,0,51.1,0c4.5-0.1,9.1,0.3,13.6-0.6
	c-4.1-7.1-8.2-14.1-12.3-21.2c-19.2,0-38.5,0-57.7,0C795.7,1960.5,791.8,1967.3,787.8,1974.1 M949.5,1962.3c-2.3,4.1-4.9,8.2-7,12.4
	c5.4,1.5,11,0.6,16.5,0.8c10.9-0.2,21.9,0.4,32.7-0.3c-2-3.6-4.1-7.2-6.2-10.8c-0.7-1-1.1-2.5-2.6-2.1
	C971.8,1962.2,960.6,1962.2,949.5,1962.3 M438.2,2049.8c0,5,0,10,0,15c514.7,0,1029.3,0,1544,0c0-5,0-10,0-15
	C1467.6,2049.8,952.9,2049.8,438.2,2049.8z"/>
<path d="M540.3,1144.6c5.9-1.7,12.9-0.7,17.4,3.8c2.2,1.9,3,4.9,3.9,7.6c2.1,12.3,0,25.5-6.6,36.1c-3.8,5.9-9.7,10.9-16.9,11.7
	c-6.1,1.5-12.5-1.6-15.9-6.7c-4.7-9-3.7-19.7-0.9-29.1C524.4,1158.3,529.9,1147.8,540.3,1144.6z"/>
<path d="M469.6,1578.7c1.2-1,2.9-0.9,4.4-0.9c225.1,0,450.1,0,675.2,0c3.1-0.3,6.3,2.1,6.1,5.3c0,36.3,0,72.7,0,109
	c0,3.2-3.2,5.5-6.2,5.2c-225.3,0-450.6,0-675.9,0c-3,0.2-6-2.2-5.8-5.3c0-36,0-72,0-108C467,1581.9,467.8,1579.8,469.6,1578.7
	 M526.7,1603.5c-0.6,2.7-1.1,5.5-1.8,8.2c7.1,0,14.2,0,21.3,0c-3.4,19.5-6.8,39-10.2,58.5c3.2,0,6.3,0,9.5,0
	c3.5-19.5,7-39,10.4-58.5c7.3,0,14.6,0,21.8,0c0.6-2.8,1.2-5.5,1.7-8.3C561.9,1603.5,544.3,1603.5,526.7,1603.5 M907.8,1611.1
	c-0.7,3.4-1.3,6.8-1.9,10.2c-2,0-3.9,0-5.8,0c-0.5,2.3-1,4.7-1.5,7c1.9,0,3.7,0,5.6,0c-1.9,9.2-3.9,18.5-5.8,27.7
	c-1.1,4.5,0.5,9.6,3.6,12.9c5.9,3.2,13.1,2.4,19.5,0.9c0-2.6,0.2-5.3,0.4-7.9c-4.1,1.1-8.3,2.1-12.3,0.2c-0.7-1.8-1.4-3.6-2.1-5.3
	c1.8-9.5,3.9-19,5.8-28.6c4.5,0,8.9,0,13.4,0c0.5-2.3,1-4.7,1.5-7c-4.4,0-8.9,0-13.3,0c1.1-4.7,2.3-9.4,3.3-14
	C914.7,1608.5,911.2,1609.8,907.8,1611.1 M583.9,1629.9c-6.7,7.9-8.3,19.2-5.8,29.1c1.6,6.7,7.9,11.9,14.9,11.9
	c5.4,0.5,10.8-0.3,16-2.1c0.3-3.1,0.7-6.1,1-9.2c-5.1,3.4-12.1,5.4-17.8,2.3c-5.7-2.1-6.2-9.3-5.7-14.5c8.2,3.4,18,2.9,25.8-1.3
	c4.9-2.2,8.3-7.2,8.5-12.5c0.8-4.2-1.6-8.1-4.8-10.5C605.4,1617.7,591.5,1620.8,583.9,1629.9 M630.9,1622.1
	c0.5,4.6,1.3,9.2,0.3,13.7c-2,11.5-4.1,23-6.2,34.4c3.1,0,6.2,0,9.2,0c2.1-11.9,4.2-23.8,6.2-35.6c2.9-3.3,6.5-5.9,10.9-6.9
	c2,0.6,4.1,1.1,6.2,1.7c0.9,2.2,2.5,4.3,1.8,6.8c-2,11.4-4,22.7-6,34.1c3,0,6,0,9,0c2.1-12,4.3-24,6.4-36c2.3-2.3,4.5-5.2,8-5.7
	c3.1-1.6,6.1,0.5,8.9,1.8c0.9,3.1,1.8,6.2,1.1,9.5c-1.8,10.2-3.6,20.3-5.3,30.5c3.1,0,6.2,0,9.2,0c1.9-11.6,4.2-23.2,5.9-34.8
	c1.3-6-1.8-13.7-8.6-14.4c-7-1.7-14.4,0.5-19.4,5.7c-2-3.4-5.7-5.6-9.7-5.8c-6.6-1.2-13.9,0.6-18.5,5.7c-0.3-2-0.6-4.1-1-6.1
	C636.6,1621,633.8,1621.6,630.9,1622.1 M708.7,1622.1c1.6,9.4-1.1,18.7-2.6,27.9c-2.4,13.2-4.8,26.5-7.1,39.7c3-0.1,6-0.1,9,0
	c1.2-7.3,2.5-14.5,3.7-21.8c8.4,6.2,20.7,3.5,28.1-3.1c8.5-8,11.7-20.4,9.7-31.7c-0.8-4.8-4-9.3-8.6-10.9c-7.6-3-16.8-1.4-22.7,4.3
	c-0.3-2-0.6-3.9-0.8-5.9C714.5,1621.1,711.5,1621.6,708.7,1622.1 M760,1635c-3.4,6.1-4,13.3-3.3,20.1c0.8,6.8,5,13.6,11.9,15.3
	c6.6,1.3,13.5,0.6,19.8-1.6c0.3-3.1,0.7-6.1,1.1-9.1c-5.4,3.4-12.7,5.5-18.5,1.9c-5.3-2.4-5.4-9.1-5.1-14.1c7.7,3,16.6,2.9,24.1-0.6
	c2.7-1.4,5.8-2.7,7.4-5.5c3.1-4.4,4.3-11.1,0.6-15.5c-2.1-3.6-6.4-4.7-10.2-5.1C776.9,1618.9,764.9,1624.9,760,1635 M814.5,1621.2
	c-3,16.3-5.8,32.7-8.8,49c3,0,6,0,9,0c1.8-9.3,3.3-18.6,5.1-27.8c1.4-6.3,5.7-13.2,12.6-14.3c2.7-0.8,5.2,1.3,7.8,2
	c0.8-3.1,1.6-6.3,2.4-9.4c-7.6-1.4-15.6,1.3-20.3,7.5c0.4-2.4,0.9-4.7,1.3-7C820.5,1621.2,817.5,1621.2,814.5,1621.2 M862.3,1622.3
	c-6.2,2.3-10.5,7.6-14,13.1c-4.1,7.8-5.6,17.1-3.8,25.7c1.4,5.3,6.4,9.8,12,9.8c6.3,0.9,12.9-0.8,17.6-5.2c0.5,1.5,1.1,3,1.7,4.6
	c3,0,6,0,9,0c-1.8-6.1-3-12.6-1.6-18.9c2-9,3.8-18.1,5.8-27.1C880.8,1620.1,870.9,1619.2,862.3,1622.3 M939.5,1621.2
	c-2,11.4-4.1,22.8-5.9,34.2c-0.8,5,0.7,10.9,5,14c8.2,3.2,19,1.8,24.4-5.7c-0.5,2.1-0.8,4.3-1.3,6.5c3.1,0,6.2,0,9.3,0
	c3-16.3,6-32.7,9-49c-3.1,0-6.2,0-9.3,0c-1.9,10-3.7,19.9-5.6,29.9c-1.6,8.9-12.7,15.6-20.9,10.3c-0.7-2.5-1.9-5.1-1.3-7.8
	c1.8-10.8,3.9-21.6,5.8-32.4C945.6,1621.2,942.5,1621.2,939.5,1621.2 M993.4,1621.2c-3,16.3-5.9,32.7-8.8,49c3,0,6,0,9,0
	c1.7-9.3,3.2-18.6,5-27.9c1.4-7,6.6-13.8,14.1-14.6c2.1,0.8,4.2,1.6,6.3,2.4c0.9-3.1,1.7-6.2,2.6-9.3c-7.8-1.4-16.1,1.2-20.7,7.9
	c0.6-2.5,1-5,1.5-7.4C999.5,1621.2,996.5,1621.2,993.4,1621.2 M1031.6,1629.5c-6.8,8-8.5,19.4-6.1,29.4c1.4,5.7,5.9,10.4,11.7,11.7
	c6.4,0.9,13.1,0.4,19.2-1.8c0.2-3.1,0.5-6.1,0.9-9.1c-5.2,3.6-12.5,5.4-18.2,1.9c-5.4-2.3-5.5-9.2-5.1-14.1
	c8.1,3.3,17.7,2.9,25.5-1.2c4.6-2,7.8-6.6,8.5-11.5c1.2-4.5-1.2-9.2-4.8-11.8C1052.8,1617.9,1039.2,1620.7,1031.6,1629.5z"/>
<path d="M1283.4,1578.1c7.1-0.8,14.4-0.1,21.6-0.3c219,0,438.1,0,657.1,0c2.9-0.2,5.8,2.2,5.6,5.2c0,36.3,0,72.7,0,109
	c0.1,3.3-3.4,5.5-6.5,5.2c-225.1,0-450.2,0-675.4,0c-3,0.3-6.3-2-6.1-5.3c-0.1-36,0-72,0-108
	C1279.4,1581.5,1280.8,1578.7,1283.4,1578.1 M1672.2,1622.3c-3.6-4.8-9.9-6.1-15.5-4.5c-7.3,1.4-13.3,6.8-16.8,13.2
	c-3.3,7.1-4.8,15.3-2.7,23c1.4,5.8,6.6,10.5,12.6,10.9c5.8,1.4,11.6-1.3,15.7-5.3c-0.3,1.6-0.7,3.2-1,4.8c2.8,0,5.6,0,8.4,0
	c3.8-21.9,7.5-43.8,11.3-65.8c-2.6,0-5.2,0-7.8,0C1675.1,1606.6,1673.7,1614.4,1672.2,1622.3 M1620.9,1601.5
	c-0.6,1.3-1.2,2.6-1.7,3.9c0.6,3.1,2.7,5.3,5.8,6c3.1-0.7,5.2-2.8,5.8-6c-0.6-1.3-1.2-2.6-1.7-3.9c-1.4-0.6-2.7-1.2-4.1-1.8
	C1623.6,1600.3,1622.3,1600.9,1620.9,1601.5 M1697.4,1601.5c-0.6,1.3-1.2,2.7-1.7,4.1c0.5,1.3,1.1,2.7,1.7,4.1
	c1.3,0.6,2.7,1.1,4,1.7c1.4-0.6,2.7-1.1,4.1-1.7c0.6-1.4,1.2-2.8,1.8-4.1c-0.6-1.4-1.2-2.8-1.8-4.1c-1.4-0.6-2.8-1.1-4.1-1.7
	C1700,1600.3,1698.7,1600.9,1697.4,1601.5 M1427.5,1664.3c3.1,0,6.2,0,9.3,0c1.8-10.2,3.7-20.4,5.4-30.7c9.1-0.1,18.3-0.1,27.4,0
	c-1.7,10.2-3.4,20.5-5.2,30.7c3,0,6,0,9,0c3.8-21.2,7.5-42.3,11.3-63.5c-3,0-6.1,0-9.1,0c-1.5,8.4-2.9,16.8-4.3,25.2
	c-9.2,0.1-18.3,0-27.4,0c1.4-8.4,2.8-16.8,4.4-25.2c-3.2,0-6.3,0-9.5,0C1435.1,1621.9,1431.3,1643.1,1427.5,1664.3 M1726.5,1607.7
	c-0.6,3.2-1.2,6.3-1.9,9.5c-1.8,0-3.5,0-5.2,0c-0.5,2.3-1,4.7-1.5,7c1.7,0,3.4,0,5.2,0c-1.8,9-3.8,17.9-5.5,26.9
	c-1,4.2,0.6,8.8,3.6,11.8c5.7,2.6,12.2,1.9,18.1,0.6c0-2.5,0.2-5,0.4-7.5c-3.2,0.6-6.5,2.2-9.7,0.9c-3-0.5-3.5-4.3-3.8-6.8
	c1.3-8.6,3.4-17,5.1-25.5c4.2,0,8.4,0,12.7,0c0.5-2.3,1-4.7,1.5-7c-4.2,0-8.3,0-12.5,0c1-4.5,2.1-8.9,3.1-13.4
	C1733,1605.3,1729.8,1606.5,1726.5,1607.7 M1522.4,1617.2c-1.7,9.3-3.3,18.6-5.1,27.8c-0.9,6.1-6,11.2-12,12.2
	c-2.7,1.2-5.2-0.6-7.7-1.6c-0.8-2.7-2.1-5.4-1.4-8.2c1.7-9.9,3.5-19.8,5.2-29.7c-3,0-6,0-9,0c-1.7,10.5-3.7,20.9-5.3,31.4
	c-0.9,5,0.1,11.3,4.7,14.2c7.7,2.9,17.8,1.5,23-5.5c-0.4,2-0.8,4.1-1.2,6.1c3,0,6.1,0,9.1,0c2.8-15.6,5.7-31.2,8.5-46.7
	C1528.3,1617.2,1525.3,1617.2,1522.4,1617.2 M1540.1,1618.3c0.6,5,1.2,10,0.1,15c-1.8,10.3-3.6,20.6-5.3,31c2.9,0,5.7,0,8.6,0
	c1.8-10,3.6-20.1,5.3-30.1c0-5.8,5.8-9.1,10.9-10.1c2,0.2,4,0.9,6,1.5c2.8,4.2,0.8,9,0.1,13.6c-1.5,8.5-3,16.9-4.4,25.4
	c2.9-0.1,5.9,0,8.8,0c2-11.4,4-22.8,6.1-34.3c2.2-2.3,4.4-5,7.8-5.4c2.8-1.5,5.5,0.3,8,1.6c0.7,2.4,2,4.9,1.4,7.5
	c-1.7,10.2-3.6,20.4-5.4,30.6c2.9,0,5.9,0,8.9-0.1c1.8-10.9,3.9-21.7,5.6-32.6c0.7-5-0.7-11.2-5.7-13.5c-6.9-2.7-15.6-1.1-20.7,4.4
	c-4.9-6.9-14.9-6.7-22-3.8c-1.7,1.2-3.2,2.7-4.7,4.1c-0.4-2.1-0.7-4.1-1-6.1C1545.5,1617.4,1542.8,1617.9,1540.1,1618.3
	 M1750.5,1617.2c1.4,8.9,2.9,17.7,4.3,26.6c1.1,6.5,1.7,13.3,5.6,18.8c1.2,0.7,2.5,1.4,3.8,2.1c-1.2,2.5-2.7,4.9-4.8,6.7
	c-3.4,2-7.5,2-11.3,2.4c0,2.8,0,5.6,0,8.5c4,0,8.1-0.5,11.9-1.7c6-1.7,9.3-7.6,11.8-12.8c7.5-16.9,15.1-33.6,22.4-50.5
	c-3.2,0-6.4,0-9.5,0.1c-5.5,13-11.1,26-16.7,38.9c-3.8-4.5-3.7-10.5-4.6-16c-1.2-7.7-2.4-15.4-3.6-23.1
	C1756.6,1617.2,1753.5,1617.2,1750.5,1617.2 M1614.1,1618c-0.5,2.3-1.1,4.6-1.5,7c2.1,0,4.1,0,6.2,0c-2.4,13.2-4.8,26.3-7.1,39.5
	c2.8,0,5.6,0,8.4,0c2.8-15.5,5.5-31,8.4-46.5C1623.7,1618,1618.9,1618,1614.1,1618 M1690.3,1618c-0.5,2.3-1,4.7-1.5,7
	c2.1,0,4.1,0,6.2,0c-2.4,13.2-4.7,26.3-7.1,39.5c2.9,0,5.8,0,8.6,0c2.7-15.5,5.4-31,8.2-46.5C1699.9,1618,1695.1,1618,1690.3,1618z"
	/>
<path d="M1647.5,1635.6c2.1-5.7,7.3-10.1,13.4-10.8c4.2-1.1,8.3,2.1,9.5,6c-1,6-1.4,12.3-3.6,18c-1.9,4-5,8.2-9.7,9
	c-2.7,1.2-5.4-0.4-7.9-1.3C1644.5,1650.7,1644.8,1642.2,1647.5,1635.6z"/>
<path d="M587.7,1640.9c2.2-6.3,7.4-12.1,14.3-13c2.7-0.8,5.4,0.4,8.1,0.9c0.8,1.5,1.6,3,2.5,4.5c-1.1,5.2-6.5,8.2-11.5,8.6
	C596.6,1643.1,592,1642.2,587.7,1640.9z"/>
<path d="M717.6,1633.6c3.8-3.9,9.3-6.2,14.7-5.4c2.8,1,6,2.4,7.3,5.3c2.2,6.9,1.3,14.7-1.9,21.1c-4.2,8.7-17.4,13-25,6.2
	C714.4,1651.7,716,1642.6,717.6,1633.6z"/>
<path d="M767.2,1640.9c2.4-6.3,7.6-12.3,14.6-13c2.7-0.7,5.3,0.4,7.9,1c0.7,1.5,1.5,2.9,2.2,4.4c-0.1,0.6-0.3,1.8-0.3,2.4
	c-2,1.9-3.7,4.4-6.5,5.2C779.3,1643,773,1642.9,767.2,1640.9z"/>
<path d="M864.8,1628.9c4.6-2.2,9.9-1.8,14.5,0.3c-1.9,8.6-2.8,17.5-6.4,25.7c-2.2,4.9-6.6,9.2-12.2,9.3c-2.8,0-4.8-2.1-6.9-3.6
	C850.5,1649.3,854.4,1635.2,864.8,1628.9z"/>
<path d="M1035.2,1640.9c2.2-6.1,6.9-11.9,13.7-12.8c2.9-0.9,5.9,0.2,8.8,0.8c0.8,1.5,1.6,3.1,2.5,4.6c-1.2,5.4-6.9,8.3-12,8.7
	C1043.7,1643.1,1039.3,1642.1,1035.2,1640.9z"/>
<g id="_x23_ffffffff">
	<path class="st0" d="M1077.3,610c12.5-0.5,25.1-0.1,37.7-0.2c6,0.2,12-0.6,17.8,0.8c-3.1,4.9-6.5,9.6-9.7,14.5
		c-12.9,0-25.8,0-38.7,0C1082.2,619.9,1079.5,615,1077.3,610z"/>
	<path class="st0" d="M1180.4,609.9c12.9-0.4,25.7-0.1,38.6-0.2c5.6,0.2,11.4-0.5,16.9,0.8c-3.2,4.9-6.4,9.7-9.6,14.5
		c-12.9,0-25.8,0-38.7,0C1185.3,619.9,1182.7,615,1180.4,609.9z"/>
	<path class="st0" d="M1321.7,609.9c12.8-0.4,25.6-0.1,38.3-0.2c5.7,0.2,11.5-0.5,17.2,0.8c-3.1,4.9-6.4,9.6-9.5,14.4
		c-12.9,0-25.8,0-38.8,0C1326.5,619.9,1323.9,615,1321.7,609.9z"/>
	<path class="st0" d="M1424.8,610c12.7-0.5,25.4-0.1,38.2-0.2c5.8,0.2,11.7-0.6,17.4,0.8c-3.2,4.8-6.5,9.5-9.7,14.4
		c-12.9,0-25.8,0-38.7,0C1429.7,619.9,1427,615.1,1424.8,610z"/>
	<path class="st0" d="M1167.5,622c0.3-4.6,3.1-8.5,6.6-11.3c2.8,5.5,5.4,11.1,8.1,16.6c-1,11.4-2,22.8-2.9,34.2
		c-3.2,2.5-6.4,5.2-9.8,7.5c-1.8-1.8-3.7-3.6-5.7-5.3C1165,649.8,1166.2,635.9,1167.5,622z"/>
	<path class="st0" d="M1308.9,622.4c0.2-4.7,3-8.8,6.6-11.6c2.9,5.4,5.4,11,8.1,16.5c-1.1,11.5-1.9,23-3,34.5
		c-3.2,2.4-6.4,4.9-9.6,7.4c-1.9-1.8-3.9-3.6-5.8-5.4C1306.5,649.9,1307.7,636.1,1308.9,622.4z"/>
	<path class="st0" d="M1412.2,621.7c0.4-4.4,3.1-8.3,6.5-10.9c2.5,4.8,4.8,9.6,7.2,14.5c0.7,1.2,1,2.4,0.8,3.8
		c-0.9,10.9-1.9,21.7-2.8,32.6c-3.3,2.5-6.5,5.1-9.9,7.5c-1.9-1.8-3.7-3.7-5.6-5.5C1409.6,649.6,1410.8,635.6,1412.2,621.7z"/>
	<path class="st0" d="M1136.6,614.7c3.6,3,5.6,7.7,5.2,12.4c-1,12.3-2.2,24.6-3.3,36.9c-2.5,2.1-5,4.1-7.6,6.1
		c-2.6-2.2-5.1-4.7-7.7-7c0.9-10.9,1.8-21.8,3-32.6C1129.3,625,1133.2,620,1136.6,614.7z"/>
	<path class="st0" d="M1229.4,630.3c3.3-5.4,6.9-10.5,10.5-15.7c3.4,3.3,5.6,8,5.1,12.8c-1.1,12.2-2.2,24.5-3.4,36.7
		c-2.6,2-5.1,4.1-7.7,6c-2.6-2.4-5.1-4.8-7.6-7.2C1227.4,652,1228,641.1,1229.4,630.3z"/>
	<path class="st0" d="M1381.4,614.5c3.4,3.5,5.7,8.4,5,13.4c-1.3,12-1.9,24.1-3.5,36.1c-2.3,2.3-5,4.1-7.7,6.1
		c-2.4-2.4-5.1-4.7-7.5-7.2c1-10.2,1.8-20.4,2.8-30.7c-0.1-2,1.3-3.6,2.4-5.3C1375.7,622.8,1378.5,618.7,1381.4,614.5z"/>
	<path class="st0" d="M1266.6,635.5c6.3,0,12.7,0,19,0c-0.7,7.5-1.4,15-2.1,22.5c-6.3,0-12.7,0-19,0
		C1265.2,650.5,1265.8,643,1266.6,635.5z"/>
	<path class="st0" d="M1070.7,673c3.1-2.4,6.2-4.9,9.3-7.3c12.7,0,25.4,0,38.1,0c2.8,2.6,5.6,5.3,8.4,7.9c-3,2.5-6,4.9-9,7.3
		c-13,0-25.9,0-38.9,0C1076,678.3,1073.3,675.7,1070.7,673z"/>
	<path class="st0" d="M1418.2,673c3.1-2.5,6.2-4.8,9.3-7.3c12.8,0,25.6,0,38.4,0c2.8,2.7,5.6,5.2,8.3,8c-2.9,2.5-5.9,4.8-8.9,7.3
		c-13.1,0-26.1,0-39.1,0C1423.5,678.3,1420.8,675.7,1418.2,673z"/>
	<path class="st0" d="M1059.4,681.5c2.2-1.7,4.4-3.4,6.7-5c2.8,2.6,5.7,5.2,8.3,8c-1.1,10.3-1.7,20.7-2.9,31
		c-3.4,6.6-7.4,12.9-11.2,19.3c-3.1-2.7-5.3-6.7-4.8-11C1056.7,709.8,1057.9,695.7,1059.4,681.5z"/>
	<path class="st0" d="M1162.3,681.8c2.3-1.8,4.6-3.5,6.8-5.3c2.9,2.6,5.5,5.4,8.3,8c-0.7,8.8-1.6,17.6-2.3,26.4
		c-0.3,2.3-0.1,4.8-1.5,6.7c-3.4,5.8-6.8,11.5-10.1,17.3c-3.2-2.7-5.4-6.8-4.9-11.2C1159.8,709.8,1161.2,695.8,1162.3,681.8z"/>
	<path class="st0" d="M1303.6,681.8c2.3-1.8,4.5-3.6,6.8-5.3c2.9,2.5,5.5,5.4,8.3,8c-1,10.4-1.6,20.9-2.9,31.3
		c-3.5,6.5-7.4,12.8-11.1,19.2c-3.2-2.8-5.3-6.9-4.8-11.2C1301.1,709.7,1302.4,695.8,1303.6,681.8z"/>
	<path class="st0" d="M1224.7,685c3.1-2.5,6.2-5.1,9.3-7.5c2,1.9,4.1,3.8,6.1,5.7c-1.2,13.6-2.4,27.2-3.6,40.9
		c-0.5,4.5-3.2,8.3-6.7,11c-2.8-4.8-5.6-9.5-8.3-14.3C1222.6,708.8,1223.6,696.9,1224.7,685z"/>
	<path class="st0" d="M1365.9,685c3.1-2.5,6.2-5,9.3-7.5c2.1,1.9,4.1,3.7,6.1,5.7c-1,13.4-2.3,26.8-3.5,40.2
		c-0.3,4.8-3.1,9-6.8,11.7c-2.8-4.8-5.6-9.5-8.3-14.3C1363.9,708.9,1364.8,697,1365.9,685z"/>
	<path class="st0" d="M1469.1,685c3.1-2.5,6.1-5,9.2-7.5c2.2,1.8,4.2,3.8,6.3,5.7c-1.3,13.5-2.3,27.1-3.6,40.7
		c-0.4,4.5-3.1,8.5-6.7,11.2c-2.5-4.3-5-8.5-7.4-12.8c-1.1-1.3-0.7-3.1-0.6-4.6C1467.2,706.8,1468.1,695.9,1469.1,685z"/>
	<path class="st0" d="M1261.6,692.2c6.3,0.1,12.7,0,19,0.1c-0.8,7.4-1.4,14.8-2.2,22.2c-6.3,0-12.7,0-19,0
		C1260.2,707.1,1260.8,699.6,1261.6,692.2z"/>
	<path class="st0" d="M1065.3,737.5c2.7-5,5.7-9.8,8.5-14.7c12.9,0,25.9,0,38.8,0c2.9,5,5.9,10,8.7,15c-12.1,0.6-24.2,0.1-36.4,0.3
		C1078.4,737.8,1071.8,738.5,1065.3,737.5z"/>
	<path class="st0" d="M1168.5,737.5c2.7-5,5.6-9.8,8.5-14.8c12.9,0,25.8,0,38.8,0c2.8,5,6.1,9.8,8.6,15c-12.8,0.5-25.5,0.1-38.3,0.2
		C1180.2,737.8,1174.3,738.5,1168.5,737.5z"/>
	<path class="st0" d="M1309.9,737.5c2.8-5,5.7-9.9,8.5-14.8c12.9,0,25.8,0,38.8,0c3,5,5.9,9.9,8.7,15c-12,0.6-24,0.1-35.9,0.3
		C1323.3,737.8,1316.5,738.5,1309.9,737.5z"/>
	<path class="st0" d="M1421.5,722.6c13-0.1,26,0,39,0c2.9,5.1,6,10.1,8.8,15.3c-14.4,0.4-28.8,0.1-43.3,0.2
		c-4.4-0.1-8.9,0.4-13.2-0.5C1415.7,732.6,1418.5,727.5,1421.5,722.6z"/>
	<path class="st1" d="M435.2,837.2c521.2,0,1042.5,0,1563.8,0c0,4.8,0,9.7,0,14.5c-521.2,0-1042.5,0-1563.8,0
		C435.2,846.9,435.2,842.1,435.2,837.2z"/>
	<path class="st1" d="M542.5,1134.7c7.9-1,16.8,0.3,23,5.7c4.1,3.4,6.4,8.5,7.3,13.7c1.9,12.3-0.1,25.2-5.4,36.6
		c-3.2,6.1-7,12.2-12.9,16c-8.2,5.6-18.7,7.8-28.4,5.7c-6.1-1.4-11.7-5.5-14.5-11.1c-4.5-8.7-4.5-19-2.9-28.5
		c1.9-12.1,7.8-23.8,17.5-31.5C530.9,1137.4,536.7,1135.5,542.5,1134.7 M540.3,1144.6c-10.4,3.2-15.9,13.7-19.1,23.3
		c-2.8,9.4-3.8,20.2,0.9,29.1c3.4,5.1,9.8,8.2,15.9,6.7c7.2-0.8,13.1-5.8,16.9-11.7c6.6-10.7,8.7-23.8,6.6-36.1
		c-0.9-2.7-1.7-5.7-3.9-7.6C553.2,1143.9,546.2,1142.9,540.3,1144.6z"/>
	<path class="st1" d="M462,1143.9c10.4-9.6,26.4-11.4,39.5-6.9c-1,3.5-2,7-3.1,10.5c-4.5-2.4-9.5-4-14.6-3.1
		c-8.7,0.8-15.9,7.2-20,14.5c-5.6,8.5-7.5,19.1-6.4,29.2c0.5,6.4,4.5,12.7,10.9,14.7c8.6,3.2,17.5-1.2,24.3-6.4
		c-0.1,3.7-0.5,7.4-0.8,11.2c-7,5.3-16.1,6.6-24.6,5.4c-8.3-0.6-15.8-6.4-18.8-14.1c-3.4-8.3-3-17.7-1.6-26.4
		C448.5,1161.6,454.2,1151.6,462,1143.9z"/>
	<path class="st1" d="M589.9,1138.9c8.8-5.4,20.5-5,29.4-0.2c3,3,5.8,6.8,5.9,11.3c1,9.5-5.3,17.5-10.4,24.8
		c-7.3,9.3-14.4,18.8-21.6,28.1c9.3,0,18.7,0,28,0c-0.6,3.1-1.1,6.3-1.6,9.5c-14.3,0.1-28.6,0-42.9,0c0.2-2.2-0.5-4.8,1.2-6.5
		c7.4-9.6,14.8-19.1,22.2-28.7c5.8-7.7,12.8-15,14.3-24.8c-1-2.2-2-4.4-3-6.5c-2-0.7-4-1.3-6-1.9c-3,0.7-6.1,1.3-9.1,2.1
		c-1.8,1.8-3.6,3.6-5.4,5.3c-2.5-1.7-5-3.3-7.5-5C585.4,1143.7,586.9,1140.5,589.9,1138.9z"/>
	<path class="st1" d="M981.2,1149.1c4.5-0.9,9.2-0.6,13.7-0.6c32,0,64,0,96,0c8.3,0.1,16.8-0.7,24.7,2.2
		c-7.6,11.4-15.4,22.7-23,34.1c-31.4,0-62.8,0-94.2,0C992.8,1172.9,986.9,1161.1,981.2,1149.1z"/>
	<path class="st1" d="M1231.6,1149.1c9.7-1.2,19.6-0.3,29.3-0.6c30.4,0,60.8,0,91.1,0c4.7,0,9.5,0.7,14,2.1
		c-7.5,11.4-15.4,22.7-22.9,34.1c-31.4,0-62.8,0-94.2,0C1243.2,1172.9,1237.3,1161,1231.6,1149.1z"/>
	<path class="st1" d="M1482,1149.2c4.6-1,9.4-0.6,14.1-0.7c33,0,65.9,0,98.9,0c7.2,0,14.6-0.3,21.5,2.2
		c-7.6,11.4-15.3,22.7-22.9,34.1c-31.4,0-62.8,0-94.3,0C1493.7,1172.8,1487.8,1161,1482,1149.2z"/>
	<path class="st1" d="M951.6,1171.8c2.2-8.4,7.8-15.7,14.9-20.5c6.3,13.3,13.3,26.4,19.4,39.8c-2.3,27.6-4.9,55.2-7.2,82.8
		c-6.7,5.3-13.5,10.5-20.2,15.8c-1.2,0.9-2.5,1.7-3.8,2.3c-4.4-4.4-8.9-8.8-13.2-13.2c2.5-27.6,4.7-55.2,7.1-82.8
		C949.4,1187.9,949.6,1179.7,951.6,1171.8z"/>
	<path class="st1" d="M1201.8,1172.7c2.1-8.7,7.8-16.3,15.1-21.3c6.5,13.1,13,26.2,19.4,39.4c-2.1,27.8-4.8,55.6-7.2,83.4
		c-6.7,5.2-13.5,10.4-20.2,15.8c-1.2,0.9-2.5,1.7-3.8,2.2c-4.2-4.5-8.8-8.6-13.2-12.9c2.3-26.8,4.6-53.6,6.9-80.3
		C1199.7,1190.1,1199.8,1181.2,1201.8,1172.7z"/>
	<path class="st1" d="M1452.8,1170.6c2.4-7.9,7.7-14.6,14.5-19.3c6.6,13.1,13,26.3,19.4,39.5c-2.2,27.8-4.8,55.6-7.2,83.3
		c-7.9,5.9-15.4,12.3-23.4,18c-4.8-4.1-9.1-8.7-13.6-13.1c2.3-29,4.9-58,7.4-87C1450.4,1184.9,1450.7,1177.6,1452.8,1170.6z"/>
	<path class="st1" d="M1602.2,1197.3c8.2-12.1,16.3-24.2,24.5-36.2c8.3,7.5,13,18.9,12,30.1c-2.6,29.6-5.1,59.2-7.8,88.9
		c-5.8,4.6-11.3,9.4-17.2,13.8c-1.3,1.2-2.6-0.5-3.5-1.3c-5.2-5-10.6-9.8-15.7-14.9c1.9-25,4.3-49.9,6.4-74.9
		C1601.2,1201,1600.9,1198.8,1602.2,1197.3z"/>
	<path class="st1" d="M986.7,1285.6c1.1-1.2,2.8-0.9,4.3-0.9c29.8,0.1,59.5,0,89.3,0c6.7,6.5,13.7,12.7,20.3,19.2
		c-7.1,5.6-14.1,11.3-21.2,17c-31.7,0-63.4,0-95.1,0c-6.5-6.1-12.7-12.5-19.3-18.5C972.3,1296.9,979.5,1291.2,986.7,1285.6z"/>
	<path class="st1" d="M1215.6,1302.4c7.6-5.9,15.1-11.9,22.8-17.7c30.7,0.1,61.4,0.1,92.1,0c7,6.2,13.7,12.8,20.6,19.2
		c-7,5.8-14.2,11.4-21.2,17.1c-31.8,0-63.5,0-95.3,0C1228.4,1314.7,1221.9,1308.7,1215.6,1302.4z"/>
	<path class="st1" d="M1466,1302.4c7.5-5.9,15.1-11.8,22.7-17.7c30.7,0,61.4,0,92.1,0c7,6.3,13.8,12.8,20.7,19.2
		c-7.1,5.7-14.2,11.4-21.2,17.1c-31.8,0-63.6,0-95.4,0C1478.7,1314.7,1472.2,1308.7,1466,1302.4z"/>
	<path class="st1" d="M951.1,1313.2c1-0.6,2.6-2.4,3.7-1.1c6.4,6.1,12.4,12.4,18.7,18.6c-2.4,25-4.1,50-6.7,75
		c-8.7,15.6-17.9,31-26.8,46.5c-7.7-5.9-12.4-15.6-11.7-25.2c3-34.3,6.1-68.6,9-102.8C941.9,1320.4,946.5,1316.8,951.1,1313.2z"/>
	<path class="st1" d="M1187.8,1324c5.4-4.2,10.7-8.6,16.3-12.7c7,5.9,13.2,12.8,19.8,19.1c-2.1,25.1-4.2,50.2-6.5,75.3
		c-8.8,15.6-17.9,31-26.9,46.5c-7.9-6.1-12.6-16.1-11.6-26.1C1181.8,1392.1,1184.8,1358,1187.8,1324z"/>
	<path class="st1" d="M1451,1314c1.5-1.2,3.7-3.6,5.4-1.3c5.8,6.2,12.3,11.6,17.9,18c-2.1,24.8-4.2,49.5-6.4,74.3
		c-2.2,5.4-5.8,10.2-8.5,15.4c-6.2,10.6-12.4,21.2-18.5,31.8c-8-6.1-12.6-16.3-11.5-26.4c3-33.8,5.8-67.6,9-101.4
		C1441.9,1320.4,1446.8,1317.6,1451,1314z"/>
	<path class="st1" d="M1088.4,1331.8c7.6-6,14.8-12.4,22.7-17.9c5,4.5,10,9,14.8,13.7c-3.1,33-5.8,66-8.8,98.9
		c-1.1,10.6-7.4,20.3-16.2,26c-6.6-11.2-13.1-22.5-19.5-33.8c-0.1-7,1.1-13.9,1.5-20.8C1084.7,1375.8,1086.6,1353.8,1088.4,1331.8z"
		/>
	<path class="st1" d="M1359.3,1315.2c0.8-0.9,2.1-1.5,3.2-0.5c4.7,4.1,9,8.5,13.7,12.6c-2.8,32.8-5.7,65.5-8.6,98.3
		c-0.8,10.9-7.2,21.1-16.4,27c-6.6-11.4-13.2-22.8-19.7-34.2c2.5-28.8,4.9-57.7,7.3-86.6C1345.7,1326.2,1352.4,1320.7,1359.3,1315.2
		z"/>
	<path class="st1" d="M1589.3,1331.6c7.3-5.8,14.6-11.7,21.8-17.6c2.4,0.7,3.9,2.7,5.7,4.2c3.2,3.1,6.6,6,9.8,9.1
		c-2.8,32.9-5.7,65.8-8.6,98.7c-1,10.7-7.3,20.5-16.2,26.4c-6.7-11.2-13.2-22.6-19.7-34C1584.2,1389.5,1586.8,1360.5,1589.3,1331.6z
		"/>
	<path class="st1" d="M973.9,1422.5c31.2,0,62.4,0,93.6,0c6.8,12,13.7,23.9,20.6,35.9c-5.5,1.6-11.3,1-17,1.1c-32,0-64,0-96,0
		c-7.4-0.1-14.9,0.6-22.1-1.5C959.9,1446.2,966.8,1434.3,973.9,1422.5z"/>
	<path class="st1" d="M1224.3,1422.5c31.2,0,62.3,0,93.5,0c6.9,12,13.8,24,20.6,36c-5.7,1.5-11.6,1-17.4,1.1c-31,0-62,0-93,0
		c-8.2-0.2-16.7,0.8-24.7-1.4C1210.2,1446.2,1217.3,1434.3,1224.3,1422.5z"/>
	<path class="st1" d="M1474.5,1422.5c31.2,0,62.5,0,93.7,0c6.9,12,13.8,23.9,20.6,36c-5.8,1.5-11.9,1-17.8,1c-31.7,0-63.3,0-95,0
		c-7.5-0.1-15.1,0.6-22.3-1.5C1460.6,1446.2,1467.6,1434.4,1474.5,1422.5z"/>
	<path class="st1" d="M473.5,1569.5c224.2-0.1,448.4,0,672.5-0.1c4.3,0,9,0.1,12.4,3.1c3.5,2.7,5.2,7.1,5.1,11.5c0,34,0,68,0,101.9
		c-0.1,3.5,0.4,7.2-0.9,10.6c-1.9,5-7,8.7-12.4,8.6c-222.4,0-444.8,0-667.2,0c-4.4-0.1-8.7,0.3-13.1-0.2c-6.4-1.1-11.2-7.4-11-13.8
		c0-36.2-0.1-72.4,0-108.6C459.1,1575.2,466.1,1569.1,473.5,1569.5 M469.6,1578.7c-1.8,1.1-2.6,3.2-2.4,5.3c0,36,0,72,0,108
		c-0.2,3.1,2.8,5.5,5.8,5.3c225.3,0,450.6,0,675.9,0c3,0.3,6.3-2,6.2-5.2c0-36.3,0-72.7,0-109c0.2-3.2-3-5.6-6.1-5.3
		c-225.1,0-450.1,0-675.2,0C472.5,1577.8,470.8,1577.7,469.6,1578.7z"/>
	<path class="st1" d="M1285.5,1569.6c224.5-0.2,449,0,673.5-0.1c4-0.1,8.3,0.2,11.6,2.9c3.6,2.6,5.5,7.1,5.4,11.5
		c0,35.8,0,71.6,0,107.4c0.4,7.2-5.7,14.1-13,14c-224.3,0-448.6,0-673,0c-3.9,0-8.1,0.4-11.6-1.7c-4.5-2.5-7.2-7.6-7-12.7
		c0-35.9,0-71.8,0-107.7C1271.3,1575.7,1278.1,1569.3,1285.5,1569.6 M1283.4,1578.1c-2.5,0.7-3.9,3.4-3.6,5.9c0,36,0,72,0,108
		c-0.2,3.2,3,5.6,6.1,5.3c225.1,0,450.2,0,675.4,0c3.1,0.3,6.6-1.9,6.5-5.2c0-36.3,0-72.7,0-109c0.1-3-2.8-5.5-5.6-5.2
		c-219,0-438.1,0-657.1,0C1297.8,1578,1290.5,1577.3,1283.4,1578.1z"/>
	<path class="st1" d="M1672.2,1622.3c1.4-7.9,2.8-15.7,4.4-23.6c2.6,0,5.2,0,7.8,0c-3.8,21.9-7.5,43.8-11.3,65.8c-2.8,0-5.6,0-8.4,0
		c0.3-1.7,0.6-3.2,1-4.8c-4.1,4-10,6.7-15.7,5.3c-6-0.4-11.3-5.1-12.6-10.9c-2-7.7-0.5-15.9,2.7-23c3.5-6.5,9.5-11.8,16.8-13.2
		C1662.3,1616.2,1668.7,1617.5,1672.2,1622.3 M1647.5,1635.6c-2.7,6.6-3,15.1,1.7,20.9c2.5,0.9,5.2,2.5,7.9,1.3c4.7-0.8,7.7-5,9.7-9
		c2.2-5.8,2.7-12,3.6-18c-1.2-3.9-5.4-7.1-9.5-6C1654.8,1625.5,1649.6,1630,1647.5,1635.6z"/>
	<path class="st1" d="M1620.9,1601.5c1.3-0.6,2.7-1.2,4.1-1.8c1.3,0.6,2.7,1.2,4.1,1.8c0.6,1.3,1.1,2.6,1.7,3.9
		c-0.6,3.1-2.7,5.3-5.8,6c-3.2-0.7-5.2-2.8-5.8-6C1619.8,1604.1,1620.3,1602.8,1620.9,1601.5z"/>
	<path class="st1" d="M1697.4,1601.5c1.3-0.6,2.7-1.2,4-1.7c1.3,0.5,2.7,1.1,4.1,1.7c0.6,1.4,1.2,2.7,1.8,4.1
		c-0.6,1.4-1.2,2.7-1.8,4.1c-1.4,0.5-2.8,1.1-4.1,1.7c-1.4-0.6-2.7-1.2-4-1.7c-0.6-1.4-1.1-2.8-1.7-4.1
		C1696.2,1604.2,1696.8,1602.8,1697.4,1601.5z"/>
	<path class="st1" d="M1427.5,1664.3c3.8-21.2,7.5-42.3,11.3-63.5c3.2,0,6.3,0,9.5,0c-1.5,8.4-2.9,16.8-4.4,25.2
		c9.1,0,18.3,0,27.4,0c1.4-8.4,2.9-16.8,4.3-25.2c3,0,6,0,9.1,0c-3.8,21.2-7.5,42.3-11.3,63.5c-3,0-6,0-9,0
		c1.8-10.2,3.5-20.5,5.2-30.7c-9.2-0.1-18.3-0.1-27.4,0c-1.7,10.2-3.6,20.4-5.4,30.7C1433.7,1664.2,1430.6,1664.2,1427.5,1664.3z"/>
	<path class="st1" d="M526.7,1603.5c17.6,0,35.2,0,52.8,0c-0.5,2.8-1.1,5.5-1.7,8.3c-7.3,0-14.6,0-21.8,0
		c-3.5,19.5-6.9,39-10.4,58.5c-3.1,0-6.3,0-9.5,0c3.4-19.5,6.8-39,10.2-58.5c-7.1,0-14.2,0-21.3,0
		C525.6,1609,526.2,1606.2,526.7,1603.5z"/>
	<path class="st1" d="M1726.5,1607.7c3.2-1.2,6.5-2.4,9.7-3.6c-1,4.5-2.1,8.9-3.1,13.4c4.2,0,8.3,0,12.5,0c-0.5,2.3-1,4.7-1.5,7
		c-4.2,0-8.5,0-12.7,0c-1.7,8.5-3.8,16.9-5.1,25.5c0.3,2.5,0.8,6.3,3.8,6.8c3.2,1.4,6.5-0.3,9.7-0.9c-0.2,2.5-0.3,5-0.4,7.5
		c-5.9,1.4-12.4,2-18.1-0.6c-3-3-4.6-7.5-3.6-11.8c1.7-9,3.7-17.9,5.5-26.9c-1.8,0-3.5,0-5.2,0c0.5-2.3,1-4.7,1.5-7
		c1.7,0,3.4,0,5.2,0C1725.3,1614.1,1725.9,1610.9,1726.5,1607.7z"/>
	<path class="st1" d="M907.8,1611.1c3.4-1.3,6.9-2.6,10.3-3.9c-1.1,4.7-2.2,9.4-3.3,14c4.4,0,8.9,0,13.3,0c-0.5,2.3-1,4.7-1.5,7
		c-4.5,0-8.9,0-13.4,0c-1.9,9.5-4,19-5.8,28.6c0.7,1.8,1.4,3.5,2.1,5.3c4,1.9,8.2,0.9,12.3-0.2c-0.2,2.6-0.3,5.2-0.4,7.9
		c-6.3,1.4-13.6,2.2-19.5-0.9c-3.1-3.4-4.7-8.4-3.6-12.9c1.8-9.2,3.9-18.5,5.8-27.7c-1.9,0-3.8,0-5.6,0c0.5-2.4,1-4.7,1.5-7
		c1.9,0,3.9,0,5.8,0C906.5,1617.8,907.1,1614.4,907.8,1611.1z"/>
	<path class="st1" d="M1522.4,1617.2c2.9,0,5.9,0,8.8,0c-2.8,15.6-5.8,31.1-8.5,46.7c-3,0-6.1,0-9.1,0c0.3-2.1,0.7-4.1,1.2-6.1
		c-5.1,6.9-15.3,8.3-23,5.5c-4.6-2.9-5.6-9.2-4.7-14.2c1.6-10.5,3.6-20.9,5.3-31.4c3,0,6,0,9,0c-1.7,9.9-3.5,19.8-5.2,29.7
		c-0.7,2.8,0.6,5.5,1.4,8.2c2.4,0.9,5,2.8,7.7,1.6c6-1,11.2-6.1,12-12.2C1519,1635.8,1520.7,1626.5,1522.4,1617.2z"/>
	<path class="st1" d="M1540.1,1618.3c2.7-0.4,5.4-0.9,8.1-1.4c0.4,2,0.7,4,1,6.1c1.5-1.4,3-2.9,4.7-4.1c7.1-2.8,17.1-3,22,3.8
		c5.2-5.5,13.8-7,20.7-4.4c5,2.3,6.4,8.5,5.7,13.5c-1.7,10.9-3.8,21.7-5.6,32.6c-3,0.1-5.9,0-8.9,0.1c1.8-10.2,3.7-20.4,5.4-30.6
		c0.6-2.6-0.7-5.1-1.4-7.5c-2.5-1.2-5.1-3.1-8-1.6c-3.4,0.4-5.6,3.1-7.8,5.4c-2,11.4-4,22.8-6.1,34.3c-2.9,0-5.9,0-8.8,0
		c1.4-8.5,2.9-16.9,4.4-25.4c0.7-4.6,2.7-9.4-0.1-13.6c-2-0.5-3.9-1.2-6-1.5c-5,1-10.9,4.3-10.9,10.1c-1.7,10-3.5,20.1-5.3,30.1
		c-2.9,0-5.7,0-8.6,0c1.8-10.3,3.6-20.6,5.3-31C1541.3,1628.3,1540.7,1623.2,1540.1,1618.3z"/>
	<path class="st1" d="M1750.5,1617.2c3.1,0,6.1,0,9.2,0c1.2,7.7,2.4,15.4,3.6,23.1c1,5.5,0.9,11.4,4.6,16
		c5.6-13,11.2-25.9,16.7-38.9c3.2-0.1,6.3-0.1,9.5-0.1c-7.3,16.9-15,33.7-22.4,50.5c-2.5,5.2-5.8,11.1-11.8,12.8
		c-3.9,1.2-7.9,1.7-11.9,1.7c0-2.9,0-5.7,0-8.5c3.8-0.4,7.9-0.4,11.3-2.4c2.1-1.9,3.6-4.2,4.8-6.7c-1.3-0.7-2.5-1.4-3.8-2.1
		c-3.9-5.5-4.5-12.4-5.6-18.8C1753.3,1634.9,1751.8,1626.1,1750.5,1617.2z"/>
	<path class="st1" d="M1614.1,1618c4.8,0,9.6,0,14.5,0c-2.9,15.5-5.6,31-8.4,46.5c-2.8,0-5.6,0-8.4,0c2.4-13.2,4.7-26.3,7.1-39.5
		c-2.1,0-4.2,0-6.2,0C1613,1622.6,1613.5,1620.3,1614.1,1618z"/>
	<path class="st1" d="M1690.3,1618c4.8,0,9.6,0,14.5,0c-2.8,15.5-5.5,31-8.2,46.5c-2.9,0-5.8,0-8.6,0c2.4-13.2,4.7-26.3,7.1-39.5
		c-2.1,0-4.2,0-6.2,0C1689.3,1622.7,1689.8,1620.3,1690.3,1618z"/>
	<path class="st1" d="M583.9,1629.9c7.5-9.1,21.5-12.2,32-6.8c3.2,2.4,5.6,6.3,4.8,10.5c-0.2,5.3-3.6,10.3-8.5,12.5
		c-7.8,4.2-17.6,4.7-25.8,1.3c-0.4,5.2,0.1,12.3,5.7,14.5c5.7,3.1,12.6,1.1,17.8-2.3c-0.4,3-0.7,6.1-1,9.2c-5.1,1.8-10.5,2.6-16,2.1
		c-6.9,0-13.3-5.2-14.9-11.9C575.6,1649.1,577.2,1637.8,583.9,1629.9 M587.7,1640.9c4.3,1.3,8.9,2.2,13.4,1.1
		c5-0.5,10.4-3.4,11.5-8.6c-0.9-1.5-1.7-3-2.5-4.5c-2.7-0.6-5.4-1.7-8.1-0.9C595.1,1628.8,589.9,1634.6,587.7,1640.9z"/>
	<path class="st1" d="M630.9,1622.1c2.8-0.5,5.7-1.1,8.5-1.7c0.3,2,0.7,4,1,6.1c4.6-5.1,11.9-6.9,18.5-5.7c3.9,0.2,7.6,2.5,9.7,5.8
		c5-5.2,12.4-7.4,19.4-5.7c6.7,0.8,9.8,8.4,8.6,14.4c-1.7,11.6-3.9,23.2-5.9,34.8c-3.1,0-6.2,0-9.2,0c1.8-10.2,3.6-20.3,5.3-30.5
		c0.6-3.2-0.2-6.4-1.1-9.5c-2.8-1.3-5.8-3.4-8.9-1.8c-3.5,0.5-5.6,3.4-8,5.7c-2.1,12-4.3,24-6.4,36c-3,0-6,0-9,0
		c2-11.4,4-22.7,6-34.1c0.7-2.5-0.9-4.6-1.8-6.8c-2.1-0.5-4.1-1.1-6.2-1.7c-4.4,1-8,3.6-10.9,6.9c-2,11.9-4.1,23.8-6.2,35.6
		c-3.1,0-6.2,0-9.2,0c2.1-11.5,4.2-22.9,6.2-34.4C632.2,1631.3,631.4,1626.7,630.9,1622.1z"/>
	<path class="st1" d="M708.7,1622.1c2.9-0.5,5.8-1,8.7-1.5c0.3,1.9,0.6,3.9,0.8,5.9c5.9-5.7,15.1-7.3,22.7-4.3
		c4.6,1.6,7.8,6.2,8.6,10.9c2,11.3-1.2,23.7-9.7,31.7c-7.4,6.6-19.7,9.3-28.1,3.1c-1.2,7.3-2.5,14.5-3.7,21.8c-3,0-6,0-9,0
		c2.3-13.3,4.7-26.5,7.1-39.7C707.6,1640.8,710.2,1631.5,708.7,1622.1 M717.6,1633.6c-1.6,9.1-3.2,18.1-4.9,27.2
		c7.6,6.8,20.8,2.5,25-6.2c3.2-6.5,4.2-14.2,1.9-21.1c-1.3-2.9-4.5-4.3-7.3-5.3C726.8,1627.3,721.3,1629.6,717.6,1633.6z"/>
	<path class="st1" d="M760,1635c4.9-10.1,16.8-16.1,27.9-14.2c3.8,0.4,8.2,1.5,10.2,5.1c3.7,4.4,2.4,11.1-0.6,15.5
		c-1.6,2.8-4.7,4-7.4,5.5c-7.5,3.5-16.5,3.6-24.1,0.6c-0.3,4.9-0.2,11.7,5.1,14.1c5.8,3.6,13.1,1.5,18.5-1.9c-0.4,3-0.8,6.1-1.1,9.1
		c-6.3,2.2-13.2,2.9-19.8,1.6c-7-1.7-11.1-8.6-11.9-15.3C756.1,1648.3,756.7,1641.1,760,1635 M767.2,1640.9c5.8,2,12.1,2.1,17.9,0.1
		c2.8-0.8,4.5-3.3,6.5-5.2c0.1-0.6,0.3-1.8,0.3-2.4c-0.8-1.5-1.5-3-2.2-4.4c-2.6-0.6-5.3-1.7-7.9-1
		C774.8,1628.6,769.6,1634.5,767.2,1640.9z"/>
	<path class="st1" d="M814.5,1621.2c3,0,6,0,9.1,0c-0.5,2.3-0.9,4.7-1.3,7c4.7-6.2,12.7-8.8,20.3-7.5c-0.8,3.1-1.5,6.3-2.4,9.4
		c-2.5-0.7-5-2.8-7.8-2c-6.9,1.1-11.2,7.9-12.6,14.3c-1.8,9.2-3.3,18.6-5.1,27.8c-3,0-6,0-9,0
		C808.7,1653.9,811.5,1637.6,814.5,1621.2z"/>
	<path class="st1" d="M862.3,1622.3c8.6-3.1,18.5-2.2,26.7,1.9c-2,9-3.8,18.1-5.8,27.1c-1.5,6.3-0.3,12.8,1.6,18.9c-3,0-6,0-9,0
		c-0.6-1.6-1.1-3.1-1.7-4.6c-4.7,4.4-11.3,6.1-17.6,5.2c-5.7,0-10.6-4.5-12-9.8c-1.8-8.7-0.3-17.9,3.8-25.7
		C851.7,1629.9,856,1624.6,862.3,1622.3 M864.8,1628.9c-10.4,6.3-14.3,20.4-11,31.7c2.1,1.5,4.1,3.6,6.9,3.6
		c5.6-0.1,10.1-4.4,12.2-9.3c3.5-8.1,4.4-17.1,6.4-25.7C874.8,1627.1,869.4,1626.7,864.8,1628.9z"/>
	<path class="st1" d="M939.5,1621.2c3.1,0,6.2,0,9.3,0c-1.9,10.8-4,21.6-5.8,32.4c-0.6,2.7,0.7,5.2,1.3,7.8
		c8.2,5.3,19.2-1.4,20.9-10.3c1.9-10,3.7-19.9,5.6-29.9c3.1,0,6.2,0,9.3,0c-3,16.3-6,32.7-9,49c-3.1,0-6.2,0-9.3,0
		c0.4-2.2,0.8-4.3,1.3-6.5c-5.4,7.5-16.2,8.9-24.4,5.7c-4.2-3-5.8-9-5-14C935.4,1644.1,937.5,1632.7,939.5,1621.2z"/>
	<path class="st1" d="M993.4,1621.2c3,0,6,0,9,0c-0.5,2.5-1,5-1.5,7.4c4.5-6.7,12.9-9.3,20.7-7.9c-0.8,3.1-1.7,6.2-2.6,9.3
		c-2.1-0.8-4.2-1.6-6.3-2.4c-7.5,0.8-12.7,7.6-14.1,14.6c-1.8,9.3-3.4,18.6-5,27.9c-3,0-6,0-9,0
		C987.6,1653.9,990.5,1637.6,993.4,1621.2z"/>
	<path class="st1" d="M1031.6,1629.5c7.5-8.8,21.2-11.6,31.6-6.5c3.6,2.6,6,7.3,4.8,11.8c-0.7,4.9-4,9.5-8.5,11.5
		c-7.8,4.1-17.4,4.5-25.5,1.2c-0.4,4.9-0.3,11.8,5.1,14.1c5.7,3.5,13,1.7,18.2-1.9c-0.4,3-0.7,6.1-0.9,9.1
		c-6.1,2.2-12.8,2.8-19.2,1.8c-5.8-1.2-10.3-6-11.7-11.7C1023.1,1648.9,1024.8,1637.5,1031.6,1629.5 M1035.2,1640.9
		c4.2,1.2,8.5,2.2,12.9,1.2c5.1-0.4,10.9-3.2,12-8.7c-0.9-1.5-1.7-3.1-2.5-4.6c-2.9-0.6-5.8-1.7-8.8-0.8
		C1042.1,1629,1037.4,1634.8,1035.2,1640.9z"/>
	<path class="st1" d="M1425.8,1770.7c6,14.6,11,29.6,17.3,44c2.8,8.6-2.2,18.5-10.6,21.7c-4.3,1.7-9.2,1.6-13.4-0.2
		c4.4,7.9,4,18.2-1.3,25.6c-6.2,8.9-18.7,12.3-28.6,8c-9.6-3.9-15.6-14.8-14.1-25c0.4-5,3.5-9.1,5-13.7c6.1-16,12.2-31.9,18.4-47.8
		c3.6,9.6,7.4,19.2,11.1,28.8C1415.4,1798.5,1420.3,1784.5,1425.8,1770.7z"/>
	<path class="st1" d="M549.8,1780.7c6.2-4.6,15.3-4.7,21.8-0.4c5.1,3.4,8.7,9.4,8.4,15.6c0,33.1,0,66.1,0,99.2
		c13,7.9,19.8,24.3,16.1,39.1c-3.2,14.4-16,25.9-30.6,27.5c-13.5,1.9-27.7-4.7-34.9-16.3c-7.4-11.4-7.5-26.9-0.4-38.4
		c2.9-4.8,7-8.8,11.6-11.9c0-33.1,0-66.2,0-99.2C541.6,1789.9,545,1784.1,549.8,1780.7z"/>
	<path class="st1" d="M1513.3,1778.5c20.2-0.6,40.5-0.1,60.7-0.3c6.9,0.2,14.2-1.1,20.7,2c-4.4,6.4-8.8,12.8-13.1,19.2
		c-19.3,0-38.6,0-58,0C1520.1,1792.5,1516.8,1785.5,1513.3,1778.5z"/>
	<path class="st1" d="M1656.1,1778.5c24-0.6,48-0.1,72-0.3c3.3-0.2,6.4,0.8,9.5,2c-4.2,6.5-8.6,12.8-12.9,19.3
		c-19.3-0.1-38.7,0-58,0C1663.1,1792.5,1659.6,1785.5,1656.1,1778.5z"/>
	<path class="st1" d="M1584.8,1804.9c4.5-7.3,9.6-14.3,14.4-21.5c4.9,4.4,8,11,7.4,17.7c-1.7,18.6-3.3,37.3-5,55.9
		c-0.1,1.5-1.7,2.1-2.6,3c-2.7,1.9-5.1,4.6-8,5.9c-3.7-3.4-7.2-6.9-10.9-10.3C1581.7,1838.8,1582.9,1821.8,1584.8,1804.9z"/>
	<path class="st1" d="M1728.6,1803.6c4.6-6.7,9.1-13.5,13.8-20.2c4.9,4.4,8,11,7.4,17.7c-1.6,19-3.4,37.9-5,56.9
		c-3.4,2.7-6.8,5.5-10.3,8.2c-3.7-3.4-7.4-6.8-11-10.4c1.3-16,2.8-32,4.1-48.1C1727.7,1806.3,1727.7,1804.8,1728.6,1803.6z"/>
	<path class="st1" d="M661.1,1793.5c20.3-0.6,40.6-0.1,60.9-0.2c6.9,0.3,14.1-1.1,20.5,2c-4.3,6.4-8.8,12.8-13.1,19.2
		c-19.3,0-38.6,0-57.9,0C668.1,1807.5,664.6,1800.5,661.1,1793.5z"/>
	<path class="st1" d="M804.2,1793.4c24-0.5,48-0.1,72-0.2c3.2-0.2,6.3,0.9,9.3,2c-4.1,6.5-8.5,12.9-12.6,19.3
		c-19.4-0.1-38.9,0-58.3,0C811,1807.5,807.4,1800.6,804.2,1793.4z"/>
	<path class="st1" d="M787.2,1812.5c0.5-7.3,5.2-13.8,11.5-17.2c3.4,6.6,6.7,13.3,10,19.9c-1.7,17.6-2.9,35.2-4.7,52.7
		c-4.2,3.8-8.9,7-13.3,10.6c-2.8-2.7-5.7-5.3-8.5-8.1C783.8,1851.1,785.5,1831.8,787.2,1812.5z"/>
	<path class="st1" d="M732.7,1820c4.5-7.4,9.7-14.3,14.4-21.5c5.1,4.3,8,11,7.4,17.7c-1.5,18.1-3.2,36.1-4.7,54.2
		c-0.2,1.1,0,2.5-1,3.3c-3.1,2.6-6.4,5.1-9.6,7.7c-3.7-3.6-7.5-7-11.2-10.6C729.6,1853.7,730.9,1836.8,732.7,1820z"/>
	<path class="st1" d="M875.9,1819.7c4.7-7.2,9.5-14.3,14.4-21.3c4.8,4.5,8,11.1,7.3,17.8c-1.6,18.9-3.5,37.9-5,56.8
		c-3.5,2.8-7,5.5-10.4,8.3c-3.7-3.4-7.3-6.9-11-10.3C872.9,1853.8,874,1836.7,875.9,1819.7z"/>
	<path class="st1" d="M1502.4,1868.5c4.5-3.5,9-7.1,13.5-10.5c19.6,0,39.1,0,58.7,0c3.8,3.6,7.6,7.2,11.5,10.6
		c-4.4,3.7-8.9,7.3-13.4,10.9c-19.6-0.1-39.2,0-58.8,0C1510,1875.9,1506.3,1872.1,1502.4,1868.5z"/>
	<path class="st1" d="M1645.6,1868.5c4.3-3.5,8.8-6.9,13.1-10.5c19.6,0,39.2,0,58.9,0c3.9,3.5,7.8,7.1,11.6,10.8
		c-4.5,3.6-8.9,7.3-13.4,10.8c-19.6-0.1-39.2,0-58.8-0.1C1653,1875.9,1649.3,1872.2,1645.6,1868.5z"/>
	<path class="st1" d="M952.3,1866c14.6,0,29.1,0,43.7,0c1.8-0.1,3.6,0.5,5.4,1c-2.6,3.9-5.3,7.8-7.9,11.7c-11.7,0-23.3,0-35,0
		C956.4,1874.5,954.2,1870.3,952.3,1866z"/>
	<path class="st1" d="M942.3,1876.9c0.4-4.3,3.4-7.7,6.9-9.9c1.9,4.1,4,8.1,5.7,12.2c-0.7,10.6-1.8,21.2-2.7,31.9
		c-2.7,2.1-5.3,4.3-8.1,6.3c-1.7-1.7-3.4-3.4-5.1-5.1C940.2,1900.6,941,1888.7,942.3,1876.9z"/>
	<path class="st1" d="M995.5,1881.5c2.7-4.3,5.8-8.5,8.5-12.8c3.1,3,5,7.1,4.4,11.5c-1,11.1-1.8,22.2-3,33.3
		c-1.6,2.2-4.1,3.6-6.1,5.4c-2.2-2.1-4.5-4.2-6.8-6.3C993.6,1902.2,994.2,1891.8,995.5,1881.5z"/>
	<path class="st1" d="M650.4,1883.3c4.4-3.4,8.9-6.8,13.3-10.3c18.1,0,36.2,0,54.3,0c1.5,0,3.2-0.2,4.7,0.3c3.9,3.4,7.5,7,11.3,10.4
		c-4.5,3.5-8.8,7.3-13.4,10.7c-19.6,0.3-39.2,0.1-58.8,0.1C657.9,1890.9,654.2,1887,650.4,1883.3z"/>
	<path class="st1" d="M793.3,1883.2c4.5-3.4,8.9-6.8,13.4-10.2c19.6,0,39.2,0,58.9,0c3.8,3.6,7.6,7.1,11.5,10.6
		c-4.4,3.7-8.9,7.3-13.4,10.9c-19.7-0.1-39.4,0-59.1,0C800.9,1890.7,797.1,1887,793.3,1883.2z"/>
	<path class="st1" d="M1577.8,1882.3c4-3.2,7.9-6.4,11.9-9.6c3.4,2.9,6.5,6.1,9.8,9.1c-1.8,19.4-3.5,38.9-5.2,58.3
		c-0.3,7.2-4.3,14.1-10.7,17.5c-3.7-6.2-7.2-12.6-11-18.8C1574.4,1919.9,1576.1,1901.1,1577.8,1882.3z"/>
	<path class="st1" d="M1722.8,1880.8c3.4-2.7,6.7-5.5,10.2-8.1c3.1,3,6.3,6,9.6,8.9c-1.6,20.1-3.5,40.1-5.3,60.2
		c-0.8,6.6-4.9,12.3-10.4,15.8c-3.4-5.8-6.7-11.6-10.1-17.4c-0.8-1.1-1-2.3-0.7-3.6c1.6-17.7,3.1-35.4,4.8-53.1
		C1720.8,1882.2,1721.9,1881.5,1722.8,1880.8z"/>
	<path class="st1" d="M637,1894.2c3.1-2.5,6.3-4.9,9.5-7.4c3.9,4,8.2,7.6,11.9,11.8c-1.6,15.8-2.7,31.7-4.3,47.6
		c-4.3,8.4-9.5,16.5-14.3,24.8c-5.3-4.4-8.6-11.1-8-18.1C633.4,1933.3,635.2,1913.7,637,1894.2z"/>
	<path class="st1" d="M780.1,1894.2c3.2-2.5,6.3-5,9.6-7.4c3.9,3.9,7.7,7.8,11.7,11.6c-1.2,15.2-2.6,30.4-3.9,45.5
		c-0.1,1.4-0.3,3-1.2,4.2c-4.5,7.6-8.9,15.2-13.4,22.8c-5.2-4.3-8.6-11-8.1-17.9C776.5,1933.4,778.3,1913.8,780.1,1894.2z"/>
	<path class="st1" d="M868.8,1897.4c4-3.3,8-6.5,12-9.8c3.2,3,6.4,6.1,9.7,9.1c-1.8,19.9-3.5,39.9-5.3,59.8
		c-0.7,6.6-4.9,12.5-10.5,16c-3.7-6.2-7.2-12.6-11-18.8C865.4,1934.9,867.2,1916.2,868.8,1897.4z"/>
	<path class="st1" d="M945.8,1920.2c2.6-2.2,5.4-4.3,8.1-6.4c11.8,0,23.6,0,35.4,0c2.3,2.3,4.6,4.4,7,6.7c-2.7,2.2-5.4,4.4-8.1,6.6
		c-11.9,0-23.8,0-35.6,0C950.3,1924.7,948.1,1922.4,945.8,1920.2z"/>
	<path class="st1" d="M937.8,1926.4c1.9-1.5,3.8-2.9,5.8-4.4c2.4,2.4,4.8,4.8,7.2,7.2c-1,9.4-1.5,18.9-2.6,28.4
		c-2.4,5.3-5.8,10.1-8.7,15.2c-3.1-2.8-5.4-6.8-4.9-11.1C935.7,1949.9,936.7,1938.2,937.8,1926.4z"/>
	<path class="st1" d="M991.1,1928.7c2.4-2.1,4.9-4.1,7.3-6c1.9,1.8,3.9,3.5,5.7,5.4c-0.6,11.8-2,23.7-3,35.5
		c-0.3,4.3-2.8,8.1-6.3,10.5c-2.2-4-4.9-7.7-6.6-11.9C989.1,1951,990.3,1939.8,991.1,1928.7z"/>
	<path class="st1" d="M1496.8,1959.3c3.9-6.8,7.9-13.5,11.8-20.3c19.3,0,38.6,0,57.8,0c4,7.1,8.2,14,12.2,21.1
		c-4.8,1-9.7,0.6-14.6,0.6c-19.4,0-38.7,0-58.1,0C1502.8,1960.8,1499.8,1960,1496.8,1959.3z"/>
	<path class="st1" d="M1639.9,1959.1c3.9-6.8,7.9-13.5,11.8-20.3c19.2,0,38.5,0,57.7,0c4.1,7.1,8.2,14.1,12.3,21.2
		c-4.9,1-9.8,0.4-14.8,0.6c-19.7,0-39.3,0-58.9,0C1645.2,1960.6,1642.5,1959.9,1639.9,1959.1z"/>
	<path class="st1" d="M900.5,1953.2c5.7,0,11.3,0,17,0c-0.1,6.3-0.4,12.7-0.8,19c-5.7,0-11.3,0-17,0
		C899.9,1965.9,900.2,1959.6,900.5,1953.2z"/>
	<path class="st1" d="M644.7,1974.2c3.8-6.9,7.9-13.6,11.8-20.4c19.2,0,38.5,0,57.7,0c4.1,7.1,8.2,14.2,12.3,21.2
		c-4.5,0.8-9.1,0.5-13.6,0.5c-17,0-34,0-51,0C656.2,1975.4,650.3,1976,644.7,1974.2z"/>
	<path class="st1" d="M787.8,1974.1c3.9-6.8,7.9-13.6,11.9-20.4c19.2,0,38.5,0,57.7,0c4.1,7,8.2,14.1,12.3,21.2
		c-4.5,0.8-9.1,0.5-13.6,0.6c-17,0-34.1,0-51.1,0C799.2,1975.4,793.3,1976.1,787.8,1974.1z"/>
	<path class="st1" d="M949.5,1962.3c11.2-0.1,22.3-0.1,33.5,0c1.5-0.3,1.9,1.1,2.6,2.1c2,3.6,4.2,7.1,6.2,10.8
		c-10.9,0.8-21.8,0.2-32.7,0.3c-5.5-0.2-11.2,0.7-16.5-0.8C944.6,1970.4,947.2,1966.4,949.5,1962.3z"/>
	<path class="st1" d="M438.2,2049.8c514.7,0,1029.3,0,1544,0c0,5,0,10,0,15c-514.7,0-1029.3,0-1544,0
		C438.2,2059.7,438.2,2054.7,438.2,2049.8z"/>
</g>
<path class="st2" d="M440.3,2930.3c2.5-2.6,6.4-2.7,9.7-2.8c12.7,0,25.3,0,38,0c7.1,0.1,14.6,1.6,20,6.4
	c19.8,17.2,39.3,34.8,59,52.2c1.8,2.2,4.5,0.8,6.1-0.9c16.9-15.1,33.8-30.2,50.8-45.2c4.4-3.6,8.2-8.2,13.7-10.1
	c10-3.9,20.8-2.3,31.3-2.6c8.3,0.2,16.7-0.5,25,0.4c4.6,0.4,7.7,4.8,7.5,9.2c0.1,34.7,0,69.4,0.1,104.2c0,2.8-0.3,6-2.6,7.9
	c-2.5,1.9-5.8,1.9-8.8,2.1c-29.7,0-59.4,0-89.1,0c-3.2-0.2-6.7,0.5-9.5-1.3c-1.7-2.4,0.8-5.1,2.4-6.8c6.4-6,13.1-11.7,19.5-17.6
	c2.4-2.2,5.1-4.5,8.5-4.5c11.7-0.2,23.4,0.1,35.2-0.1c2.7,0.1,5.6-1.7,5.4-4.7c0.2-15.7,0-31.3,0.1-47c0-3.4,0.4-6.9-0.9-10.2
	c-3.7,1-6.3,4-9.1,6.5c-23.9,21.4-47.9,42.9-72,64.2c-5.7,4.9-11.2,10-17.1,14.8c-6.3,5-14.5,7.1-22.5,6.7c-12-0.3-24,0.4-35.9-0.4
	c-2.9-0.2-1.8-3.5-0.1-4.5c12-10.7,24.1-21.5,36.1-32.2c-16-14.4-32-28.7-48-43.1c-5-4-9.1-9.2-14.9-12.1c-1.9,2.3-1.5,5.4-1.5,8.2
	c0.1,16,0,32,0,48.1c-0.1,2.3,1,4.9,3.5,5.4c8.3,1.6,17-0.9,25.2,1.5c0.5,3.1-1.5,5.8-3.7,7.8c-5.8,5.2-11.6,10.3-17.4,15.6
	c-2.9,2.6-6.1,5.9-10.4,5.7c-10-0.2-20,0.3-30-0.3c-4.3-0.4-6.4-4.9-6.2-8.7c-0.1-34,0-68.1-0.1-102.1
	C437.9,2936.6,437.8,2932.8,440.3,2930.3z"/>
<path class="st2" d="M1923.5,2952.8c36.2-4.9,74.2,3.6,104.4,24.3c27.2,18.3,47.8,46.1,57.6,77.3c12,37.7,8.6,80.1-9.9,115.2
	c-15,29-40.1,52.6-69.9,66c-37.7,17.1-82.6,17.6-120.7,1.4c-30.2-12.6-55.8-35.8-71.5-64.5c-19.3-34.7-23.6-77.2-12.3-115.3
	c8.9-30.4,28-57.8,53.5-76.6C1874.7,2965.7,1898.7,2956.1,1923.5,2952.8 M1928.5,2967.8c-30.2,3.5-59,17.8-80.1,39.6
	c-25.9,26.3-40.1,63.7-37.6,100.5c2,34.6,18.7,67.8,44.4,90.8c24.6,22.2,57.5,35.3,90.7,34.5c35.2-0.2,69.9-15.7,94-41.3
	c25.7-26.6,39.5-64.2,36.7-101.1c-2.2-35.3-19.2-69.4-46.3-92.2C2002.7,2974.8,1964.8,2963.5,1928.5,2967.8z"/>
<path class="st2" d="M1884.8,3039.2c7.3,0,14.7,0,22,0c12.4,35.8,24.7,71.7,37,107.6c12.3-35.9,24.6-71.7,37-107.6c8,0,16,0,24,0
	c0,40,0,80,0,120c-5.2,0-10.3,0-15.5,0c0-30.7,0-61.3,0-92c-11.7,30.7-23.4,61.3-35.1,92c-6.9,0-13.8,0-20.7,0
	c-11.7-30.7-23.4-61.4-35.2-92c0,30.7,0,61.3,0,92c-4.5,0-9,0-13.5,0C1884.7,3119.2,1884.8,3079.2,1884.8,3039.2z"/>
<path class="st2" d="M258.6,3093.2c0.3-4.3,5.3-4.2,8.4-4c5,0.4,10.5-1.1,14.9,1.7c5.7,4,10.2,9.5,15.8,13.6c3.3,0,5.1-3.5,7.6-5.2
	c4.1-3.3,7.5-8,12.6-9.8c5.6-0.6,11.2-0.4,16.8-0.2c2.8,0.2,3.8,3.2,3.6,5.6c0,15,0,30,0,45.1c0.2,2.3-0.8,5.2-3.6,5.3
	c-4.3,0.3-8.7,0.3-13,0c-2.4-0.4-3-3.2-3-5.2c-0.1-9.5,0-18.9,0-28.3c-4.7,4.4-9.6,8.6-14.3,12.9c-1.7,1.4-3.4,3.2-5.7,3.5
	c-1.9,0.4-3.6-0.8-5-1.9c-5.5-4.7-10.6-9.7-16.1-14.3c-0.2,10,0.4,20.1-0.3,30.1c-0.5,4.6-6.2,3.1-9.4,3.4c-3.2-0.2-8.9,1-9.5-3.5
	C258.5,3125.8,258.4,3109.5,258.6,3093.2z"/>
<path class="st2" d="M717.2,3090.2c2.3-1.5,5.2-0.8,7.8-0.9c4.9,0.2,10.3-1,14.5,2.2c5,3.8,9.2,8.4,14,12.4c1.1,1,2.9,1.1,3.9-0.1
	c4.7-4,9-8.6,13.9-12.4c4.2-3.2,9.8-1.7,14.6-2.1c2.9,0.2,6.8-0.9,8.7,2.1c0.6,1.4,0.5,3,0.6,4.6c0,13.7-0.1,27.4,0,41.1
	c-0.1,2.4,0.2,5.1-1.1,7.2c-2.9,2.1-6.8,1-10.1,1.3c-2.8-0.1-7.7,0.6-7.9-3.4c-0.3-10.1,0-20.3-0.1-30.4c-4.8,4.3-9.6,8.6-14.4,12.9
	c-1.9,1.6-4,3.7-6.7,3.7c-2.2-0.1-3.8-1.7-5.3-3c-5.1-4.5-10-9-15.1-13.5c0,9.4,0,18.8,0,28.2c0,2-0.4,4.8-2.7,5.2
	c-4.2,0.5-8.4,0.3-12.6,0.1c-2.4,0-4-2.1-3.9-4.3c-0.1-14.7,0-29.4-0.1-44.1C715.3,3094.6,715.1,3091.7,717.2,3090.2z"/>
<path class="st2" d="M349.5,3091.5c2.2-2.1,5.6-1.6,8.5-1.8c22.4,0.2,44.8-0.4,67.2,0.3c1.2,3.8,0.9,7.9,0.6,11.9
	c0,2-2.2,2.4-3.8,2.3c-16.7,0-33.4,0-50.1,0c-1.9-0.1-4.7,0.4-4.6,2.8c-0.1,7-0.1,14,0,21.1c-0.2,1.9,1.9,3.1,3.7,2.9
	c16.7,0.1,33.5,0,50.2,0c1.6,0.1,4.4-0.2,4.6,2.1c0.3,3.5,0.5,7.1-0.1,10.6c-0.4,2-3.1,1.7-4.7,1.8c-22.4-0.1-44.8,0.1-67.2-0.1
	c-3.6,0.2-6.5-3-6.3-6.5c-0.2-13.3,0-26.6-0.1-40C347.6,3096.4,347.4,3093.3,349.5,3091.5z"/>
<path class="st2" d="M437.4,3090.5c2.3-1.2,5-0.7,7.6-0.8c18.7,0,37.3,0,56,0c3,0,6-0.3,8.9,0.3c2.6,0.6,4.2,3.2,4.1,5.8
	c0.1,13.7,0,27.4,0.1,41.2c0,2.2,0,4.7-1.6,6.4c-1.6,1.7-4.2,1.8-6.4,1.9c-21.7-0.1-43.4,0-65.1-0.1c-3.5,0.3-6.7-2.7-6.5-6.2
	c-0.1-14,0-28,0-42.1C434.4,3094.5,435.1,3091.7,437.4,3090.5 M454,3104.8c-0.3,8.6-0.6,17.2,0.2,25.8c6.6,0.7,13.2,0.2,19.8,0.4
	c6.7-0.1,13.5,0.3,20.2-0.4c0.3-8.7,0.6-17.4-0.2-26.1C480.7,3104.6,467.4,3104.1,454,3104.8z"/>
<path class="st2" d="M535.4,3093.6c0.4-4.9,6.1-3.8,9.5-3.9c3.2,0.2,8.5-1.1,9.3,3.3c0.6,8.8,0,17.7,0.2,26.5c13.7,0,27.5,0,41.2,0
	c0-8.2,0-16.4,0-24.6c-0.2-2.2,0.9-4.9,3.4-5.1c3.9-0.3,7.9-0.2,11.8-0.1c3.1-0.1,4.2,3.5,4,6c0,14.1,0,28.1,0,42.2
	c-0.1,2.3,0.1,5.4-2.3,6.6c-3.1,1-6.5,0.4-9.7,0.6c-2.4,0-5.8,0.2-6.8-2.5c-0.9-2.9-0.3-6.1-0.5-9c-13.8,0-27.5,0-41.2,0
	c-0.1,3,0.4,6.1-0.5,9.1c-1.7,3.3-6,2.2-9,2.4c-2.9-0.3-6.6,0.8-8.8-1.6c-1.2-2-0.9-4.5-1-6.7C535.4,3122.5,535,3108,535.4,3093.6z"
	/>
<path class="st2" d="M628.4,3090.4c1.4-0.8,3-0.7,4.6-0.7c22,0.1,44,0,66,0.1c3.7-0.2,6.1,3.6,5.9,7c0.1,12.7,0,25.5,0.1,38.2
	c-0.1,2.8,0.2,6-1.7,8.3c-1.5,1.8-4.1,1.9-6.3,1.9c-21.7-0.1-43.4,0-65.1-0.1c-3.6,0.3-6.8-2.6-6.6-6.2c-0.2-13.7,0-27.4-0.1-41.1
	C625.2,3095.1,625.6,3091.8,628.4,3090.4 M644.8,3104.7c-0.1,8.6-0.2,17.2,0,25.9c6.7,0.8,13.4,0.3,20.1,0.4
	c6.7-0.1,13.4,0.4,20.1-0.4c0.3-8.6,0.2-17.2,0.1-25.9C671.7,3104.4,658.3,3104.3,644.8,3104.7z"/>
<path class="st2" d="M807.4,3091.4c2-2.1,5.1-1.6,7.7-1.7c22.6,0.2,45.3-0.3,67.9,0.2c2.2,4,0.8,9.1,0.7,13.6
	c-18.5,1.2-37.1-0.1-55.6,0.6c-3.2,0.1-2.8,3.8-2.9,6.1c18.3,0,36.7,0,55,0c1.5-0.3,2.7,0.6,3.9,1.4c-0.2,3.8,0.2,7.6-0.2,11.4
	c-0.7,1.9-3.1,1.5-4.8,1.7c-18,0-36,0-54,0c0.3,2-0.3,4.9,2.1,5.8c3.8,0.8,7.8,0.4,11.7,0.5c14.3,0.1,28.7-0.1,43,0.1
	c2-0.1,2.1,2.3,2,3.8c0,2.9,0.2,5.9-0.2,8.9c-0.5,1.5-2.5,1.4-3.8,1.5c-22.7-0.1-45.4,0-68.1,0c-3.4,0.2-6.4-2.8-6.2-6.2
	c-0.1-13.4,0-26.7-0.1-40C805.8,3096.4,805.5,3093.4,807.4,3091.4z"/>
<g id="_x23_0166feff">
	<path class="st2" d="M1923.6,2578.8c39-5.5,80,5.3,111.1,29.5c26.9,20.6,46.5,50.5,54.4,83.4c9.7,39.5,2.6,82.8-19.3,117
		c-18.1,28.7-46.2,51-78.3,61.8c-39,13.2-83.4,9.4-119.3-10.6c-30.7-16.8-55-44.8-67.5-77.4c-15.1-38.5-13.7-83.3,4.5-120.5
		c14.8-30.8,40.4-56.1,71.3-70.6C1894.1,2585.1,1908.6,2580.8,1923.6,2578.8 M1932.1,2597.1c-18.4,1.6-36.5,7.2-52.7,16.3
		c-29.1,16.1-51.9,43.3-62,75.1c-11.3,34.9-6.5,74.4,12.3,105.8c16.6,28.3,44.2,50,75.6,59.5c24.7,7.6,51.7,7.6,76.5,0.3
		c32.6-9.5,61-32.2,77.4-61.9c19.2-34.1,22.2-76.8,7.6-113.1c-7.3-18.1-18.7-34.6-33.1-47.8
		C2006.6,2606.3,1968.8,2593.7,1932.1,2597.1z"/>
	<path class="st2" d="M1909.6,2656c11.7-6.8,23.4-13.6,35.1-20.3c0,4.7,0,9.5,0,14.2c19.9,0.3,39.8,8.2,54.1,22.2
		c10.7,10.2,18.4,23.5,21.7,37.9c4.4,19.1,1.1,39.8-8.8,56.7c-8.5,14.5-21.8,26.1-37.4,32.6c-17.1,7.2-36.8,8.1-54.4,2.5
		c-19.4-6.1-36.4-19.9-45.8-38c-6.3-11.7-9.2-25-9.2-38.2c4.7,0,9.3,0,14,0c-0.5,19.4,8.5,38.6,23.5,50.8
		c13.6,11.4,32.1,16.9,49.8,14.6c14.3-1.7,28.1-8.3,38.1-18.8c14.5-14.5,20.8-36.3,17.3-56.4c-2.6-15.1-11.1-29-23.1-38.4
		c-11.2-8.9-25.4-13.7-39.7-13.8c0,4.2,0,8.4,0,12.6C1933,2669.6,1921.3,2662.8,1909.6,2656z"/>
</g>
</svg>
