<?xml version="1.0" encoding="utf-8"?>
<!-- Generator: Adobe Illustrator 21.1.0, SVG Export Plug-In . SVG Version: 6.00 Build 0)  -->
<svg version="1.1" id="Laag_1" xmlns="http://www.w3.org/2000/svg" xmlns:xlink="http://www.w3.org/1999/xlink" x="0px" y="0px"
	 viewBox="0 0 1151.6 1661.1" style="enable-background:new 0 0 1151.6 1661.1;" xml:space="preserve">
<style type="text/css">
	.st0{stroke:#000000;stroke-width:2;stroke-miterlimit:10;}
	.st1{fill:#FFFFFF;}
	.st2{fill:none;stroke:#000000;stroke-width:2;stroke-linecap:round;stroke-linejoin:round;stroke-miterlimit:10;}
	.st3{fill:none;stroke:#000000;stroke-width:3;stroke-linecap:round;stroke-linejoin:round;stroke-miterlimit:10;}
	.st4{fill:none;}
	.st5{fill:none;stroke:#000000;stroke-width:2;stroke-miterlimit:10;}
	.st6{fill:#0066CC;}
</style>
<path class="st0" d="M187,1150.1h777.6c2.4,0,4-0.8,4.9-2.4c0.8-0.8,1.6-2.4,1.6-4v-0.1V199.1c0-3.5-2.9-6.4-6.5-6.4H187l-6.5,6.4
	v944.5c0,1.6,0.8,3.2,1.6,4C183.7,1149.2,185.3,1150,187,1150.1"/>
<path class="st1" d="M616.9,818.3h325c3.6,0,6.5-2.9,6.5-6.5v-52c0-3.6-2.9-6.5-6.5-6.5h-325c-3.6,0-6.5,2.9-6.5,6.5v52
	C610.4,815.4,613.3,818.3,616.9,818.3L616.9,818.3z M616.9,814.4h325c1.4,0,2.6-1.2,2.6-2.6v-52c0-1.4-1.2-2.6-2.6-2.6h-325
	c-1.4,0-2.6,1.2-2.6,2.6v52C614.3,813.3,615.4,814.4,616.9,814.4L616.9,814.4z"/>
<g id="LWPOLYLINE_16_">
	<path d="M616.9,814.4h325c1.4,0,2.6-1.2,2.6-2.6v-52c0-1.4-1.2-2.6-2.6-2.6h-325c-1.4,0-2.6,1.2-2.6,2.6v52
		C614.3,813.3,615.4,814.4,616.9,814.4z"/>
</g>
<g id="LWPOLYLINE_21_">
	<path class="st1" d="M226.9,818.3h325c3.6,0,6.5-2.9,6.5-6.5v-52c0-3.6-2.9-6.5-6.5-6.5h-325c-3.6,0-6.5,2.9-6.5,6.5v52
		C220.4,815.4,223.3,818.3,226.9,818.3z"/>
</g>
<g id="HATCH_5_">
	<path class="st1" d="M226.9,818.3h325c3.6,0,6.5-2.9,6.5-6.5v-52c0-3.6-2.9-6.5-6.5-6.5h-325c-3.6,0-6.5,2.9-6.5,6.5v52
		C220.4,815.4,223.3,818.3,226.9,818.3L226.9,818.3z M226.9,814.4h325c1.4,0,2.6-1.2,2.6-2.6v-52c0-1.4-1.2-2.6-2.6-2.6h-325
		c-1.4,0-2.6,1.2-2.6,2.6v52C224.3,813.3,225.4,814.4,226.9,814.4L226.9,814.4z"/>
</g>
<g id="LWPOLYLINE_20_">
	<path d="M226.9,814.4h325c1.4,0,2.6-1.2,2.6-2.6v-52c0-1.4-1.2-2.6-2.6-2.6h-325c-1.4,0-2.6,1.2-2.6,2.6v52
		C224.3,813.3,225.4,814.4,226.9,814.4z"/>
</g>
<g id="SPLINE_6_">
	<path class="st2" d="M971.1,1144.4L971.1,1144.4z"/>
</g>
<g id="SPLINE_9_">
	<path class="st2" d="M971.1,1144.4L971.1,1144.4z"/>
</g>
<g id="LWPOLYLINE_3_">
	<line class="st3" x1="8" y1="1659.6" x2="1143.6" y2="1659.6"/>
</g>
<g id="LWPOLYLINE_4_">
	<line class="st3" x1="14.5" y1="1647.4" x2="1137.1" y2="1647.4"/>
</g>
<g id="LWPOLYLINE_5_">
	<line class="st3" x1="1.5" y1="8" x2="1.5" y2="1653.9"/>
</g>
<g id="LWPOLYLINE_6_">
	<line class="st3" x1="14.5" y1="14.5" x2="14.5" y2="1647.4"/>
</g>
<g id="LWPOLYLINE_9_">
	<line class="st3" x1="1137.1" y1="1647.4" x2="1137.1" y2="14.5"/>
</g>
<g id="LWPOLYLINE_10_">
	<line class="st3" x1="1150.1" y1="1653.9" x2="1150.1" y2="8"/>
</g>
<g id="LWPOLYLINE_11_">
	<line class="st3" x1="1137.1" y1="14.5" x2="14.5" y2="14.5"/>
</g>
<g id="LWPOLYLINE_12_">
	<line class="st3" x1="1143.6" y1="1.5" x2="8" y2="1.5"/>
</g>
<g id="LWPOLYLINE_14_">
	<line class="st4" x1="901.4" y1="1308.8" x2="895.7" y2="1308.8"/>
</g>
<g id="HATCH_96_">
	<path d="M379.1,1482.7H374c-1.5,0-2.7,0-4.7,1.8c-0.8,0.7-5.6,5.1-5.6,5.1s-0.5,0.5-1.1,0.5s-1.1-0.5-1.1-0.5s-4.8-4.4-5.6-5.1
		c-2.1-1.8-3.3-1.8-4.7-1.8h-5.1c-1.8,0-2.7,0.9-2.7,2.8v21.8c0,1.8,0.9,2.3,2.7,2.3h4.1c1.8,0,2.3-0.8,2.3-2.6v-13.7
		c0,0,7.2,6.5,8.2,7.3c0.8,0.7,1.4,0.7,1.8,0.7s1-0.1,1.8-0.7c1-0.8,8.2-7.3,8.2-7.3v13.7c0,1.8,0.5,2.6,2.3,2.6h4.1
		c1.8,0,2.7-0.5,2.7-2.3v-21.8C381.8,1483.6,381,1482.7,379.1,1482.7z M159.8,1482.7h-5.1c-1.5,0-2.7,0-4.7,1.8
		c-0.8,0.7-5.6,5.1-5.6,5.1s-0.5,0.5-1.1,0.5s-1.1-0.5-1.1-0.5s-4.8-4.4-5.6-5.1c-2.1-1.8-3.3-1.8-4.7-1.8h-5.1
		c-1.8,0-2.7,0.9-2.7,2.8v21.8c0,1.8,0.9,2.3,2.7,2.3h4.1c1.8,0,2.3-0.8,2.3-2.6v-13.7c0,0,7.2,6.5,8.2,7.3c0.8,0.7,1.4,0.7,1.8,0.7
		c0.4,0,1-0.1,1.8-0.7c1-0.8,8.2-7.3,8.2-7.3v13.7c0,1.8,0.5,2.6,2.3,2.6h4.2c1.8,0,2.7-0.5,2.7-2.3v-21.8
		C162.5,1483.6,161.6,1482.7,159.8,1482.7z M176.2,1499.7v1.6c0,1.1,0.9,1.5,2,1.5h24.4c1.4,0,1.8,0.4,1.8,1.8v3.2
		c0,1.4-0.4,1.8-1.8,1.8h-12.4h-17.1h-2.8c-2.3,0-3.4-1.2-3.4-3.4v-19.8c0-2.3,1.2-3.4,3.4-3.4h2.8h17.1h12.4c1.4,0,1.8,0.4,1.8,1.8
		v3.2c0,1.4-0.4,1.8-1.8,1.8h-24.4c-1.1,0-2,0.4-2,1.5v1.8V1499.7z M398.1,1489.7h24.4c1.4,0,1.8-0.4,1.8-1.8v-3.2
		c0-1.4-0.4-1.8-1.8-1.8h-12.4H393h-2.8c-2.3,0-3.4,1.2-3.4,3.4v19.8c0,2.3,1.2,3.4,3.4,3.4h2.8h17.1h12.4c1.4,0,1.8-0.4,1.8-1.8
		v-3.2c0-1.4-0.4-1.8-1.8-1.8h-24.4c-1.1,0-2-0.4-2-1.5v-1.6h26.4c1.4,0,1.8-0.4,1.8-1.8v-3.2c0-1.4-0.4-1.8-1.8-1.8h-26.4v-1.8
		C396.1,1490,397,1489.7,398.1,1489.7z M292.5,1482.9h-3.9c-1.8,0-2.6,0.8-2.6,2.6v11.7h-19.9v-11.7c0-1.8-0.8-2.6-2.6-2.6h-3.9
		c-1.8,0-2.6,0.8-2.6,2.6v21.4c0,1.8,0.8,2.6,2.6,2.6h3.9c1.8,0,2.6-0.8,2.6-2.6v-2.9H286v2.9c0,1.8,0.8,2.6,2.6,2.6h3.9
		c1.8,0,2.6-0.8,2.6-2.6v-21.4C295.1,1483.7,294.3,1482.9,292.5,1482.9z M237.4,1501.4c0,1.1-0.2,1.3-1.3,1.3h-17
		c-1.1,0-1.3-0.2-1.3-1.3v-10.2c0-1.1,0.2-1.3,1.3-1.3h17c1.1,0,1.3,0.2,1.3,1.3C237.4,1491.1,237.4,1501.4,237.4,1501.4z
		 M243.3,1482.9H212c-2.3,0-3.4,1.2-3.4,3.4v19.8c0,2.3,1.2,3.4,3.4,3.4h31.3c2.3,0,3.4-1.2,3.4-3.4v-19.8
		C246.7,1484.1,245.5,1482.9,243.3,1482.9z M329,1501.4c0,1.1-0.2,1.3-1.3,1.3h-17c-1.1,0-1.3-0.2-1.3-1.3v-10.2
		c0-1.1,0.2-1.3,1.3-1.3h17c1.1,0,1.3,0.2,1.3,1.3C329,1491.1,329,1501.4,329,1501.4z M334.9,1482.9h-31.3c-2.3,0-3.4,1.2-3.4,3.4
		v19.8c0,2.3,1.2,3.4,3.4,3.4h31.3c2.3,0,3.4-1.2,3.4-3.4v-19.8C338.3,1484.1,337.1,1482.9,334.9,1482.9z M318.1,1422.3v24.4
		c0,2.3-0.8,3.1-3.1,3.1h-16.1c0,0-1.8-0.1-3.5,1.4c-2.3,2.1-9.7,8.7-9.7,8.7s-5,4.3,0.8,4.3h44.9c4,0,5.3-1.2,5.3-4.9v-48.6
		c0-4.2-1.4-5.7-5.8-5.7H313c-2.9,0-6.9,0.7-9.5,2.7c-1.8,1.4-28,24.8-28,24.8s-1.3,1.3-2.1,1.3c-0.1,0-0.2,0-0.3,0
		c-0.7-0.2-1.8-1.3-1.8-1.3s-26.4-23.5-28.2-24.9c-2.6-2-6.3-2.5-9.2-2.5H216c-4.4,0-5.8,1.4-5.8,5.7v30.9v5.5v12.2
		c0,3.5,1.1,4.8,4.6,4.9h0.6c0,0,0,0,0.1,0h8.2h3.7c0,0,1.8,0.1,3.5-1.4c2.3-2.1,9.7-8.7,9.7-8.7s5-4.3-0.8-4.3h-8
		c-2.1,0-3-0.8-3-2.8c0-0.1,0-0.2,0-0.3v-5.2v-19.3c0-1.1,0-3.4,2.7-1.2l26.7,23.9c0.6,0.5,1.1,1,1.7,1.5l-17.2,15.3
		c0,0-3,2.4,1.1,2.4h17.1c1.8,0,5,0,9.2-2.9c1.9-1.3,45.3-40.2,45.3-40.2C318.1,1418.9,318.1,1421.2,318.1,1422.3z"/>
</g>
<g id="HATCH_4_">
	<path d="M502.2,781.6l2.7-0.5l2.7,0.6l1.1,2.1l-0.2,1.1l-2,2.1l-2.3,0.8l-3.3,0.3l-1-0.1l-2.9-0.7l1-2.3l1.8-2.2L502.2,781.6
		L502.2,781.6z M452.6,793l2.7-15h-4.4l-2.7,15.4l-0.3,2.3l0.3,2.1l1.3,2.5l1.2,0.9l3.1,0.7h0.7l3.3-0.5l2.5-1.3l1.9-1.9l-0.6,3.3
		h4.4l4.3-23.5h-4.4l-2.7,14.5l-0.5,1.7l-2,2.4l-1.7,1.1l-2.8,0.7h-0.4l-2.5-1l-0.8-2.6L452.6,793L452.6,793z M476.9,801.5l2.4-13.4
		l0.7-2.5l1.7-2.5l1.5-1.2l2.7-0.8h0.3l2.8,1.1l1.1-4.3l-2.3-0.3l-2.8,0.5l-2.5,1.4l-2.1,2.3l0.7-3.8h-4.2l-4.2,23.5H476.9
		L476.9,801.5z M496.7,795.6l-0.6-3.1l0.2-2l2.1,0.8l3.2,0.3l2.5-0.1l3-0.7l2.5-1.3l0.9-0.7l1.7-2.3l0.5-3l-0.3-1.9l-1.7-2.3
		l-2.3-1.1l-3.2-0.4l-1.8,0.1l-2.9,0.7l-2.6,1.3l-2.3,2l-1.2,1.5L493,786l-0.9,2.8l-0.3,3.2l0.1,2.1l0.7,2.9l1.2,2.3l1.7,1.6l2.4,1
		l3,0.3h0.1l2.9-0.3l3.2-0.9l0.4-4.2l-2.3,1.3l-2.8,0.5l-2.1-0.2l-2.5-1.3L496.7,795.6L496.7,795.6z M391,801.5l2.4-13.4l0.7-2.5
		l1.7-2.5l1.5-1.2l2.7-0.8h0.3l2.8,1.1l1.1-4.3l-2.3-0.3l-2.8,0.5l-2.5,1.4l-2.1,2.3l0.7-3.8H391l-4.2,23.5H391L391,801.5z
		 M405.2,790.9L405,794v0.3l0.5,3.2l1.4,2.3l2.3,1.5l3.1,0.5l1.3-0.1l3-0.7l0.7-0.3l2.4-1.7l0.7,2.3h4.2l-0.1-0.3l-0.7-2.9l-0.3-3.2
		l0.2-2l2.9-13.7l-1.7-0.9l-2.8-0.7l-3.6-0.3l-2.4,0.2l-2.7,0.9l-2.5,1.5l-2.1,2.3l-0.1,0.1l-1.7,2.5l-1.1,2.7L405.2,790.9
		L405.2,790.9z M409.6,790.1l0.9-2.9l1.4-2.5l1.1-1.3l2.3-1.8l2.7-0.6l1.7,0.1l2.2,0.8l-1.8,8.7l-0.1,0.3l-1,3l-1.5,2.4l-1.5,1.4
		l-2.6,0.9l-1.6-0.3l-1.9-1.5l-0.6-3v-0.6L409.6,790.1L409.6,790.1z M373.6,781.6l2.7-0.5l2.7,0.6l1.1,2.1l-0.2,1.1l-2,2.1l-2.3,0.8
		l-3.3,0.3l-1-0.1l-2.9-0.7l1-2.3l1.9-2.2L373.6,781.6L373.6,781.6z M346.9,782.1l2.9-0.9l1.9,0.1l2.4,1.3l0.9,1.2l0.6,3.2l-0.3,3.2
		l-0.8,2.8l-1.4,2.4l-1.4,1.3l-2.5,1.3l-3.1,0.5l-2.3-0.5l-1.6-1.2l2.3-12.9L346.9,782.1L346.9,782.1L346.9,782.1z M368.1,795.6
		l-0.7-3.1l0.2-2l2.1,0.8l3.2,0.3l2.5-0.1l3-0.7l2.5-1.3l1-0.7l1.7-2.3l0.5-3l-0.3-1.9l-1.7-2.3l-2.3-1.1l-3.3-0.4l-1.7,0.1l-3,0.7
		l-2.5,1.3l-2.3,2l-1.2,1.5l-1.4,2.6l-0.9,2.8l-0.3,3.2l0.1,2.1l0.7,2.9l1.2,2.3l1.7,1.6l2.4,1l3,0.3h0.1l2.8-0.3l3.2-0.9l0.5-4.2
		l-2.4,1.3l-2.8,0.5l-2.1-0.2l-2.5-1.3L368.1,795.6L368.1,795.6z M354.2,799.7l2.1-2.1l1.5-2.3l1.2-2.7l0.7-3l0.3-3.2l-0.1-1.2
		l-0.7-3.1l-1.5-2.2l-0.7-0.6l-2.5-1.2l-3.3-0.3h-0.6l-3,0.8l-0.6,0.3l-2.3,1.8l-0.4-3l-4.2,0.7l0.1,0.2l0.3,3.1v0.2l-0.3,3.1
		l-4.6,25.8h4.2l1.8-10.5l2.1,1.3l3,0.5l2.1-0.1l2.8-0.8C351.6,801.1,354.2,799.7,354.2,799.7L354.2,799.7z M282,795.6l-0.7-3.1
		l0.2-2l2.1,0.8l3.2,0.3l2.5-0.1l3-0.7l2.5-1.3l1-0.7l1.7-2.3l0.5-3l-0.3-1.9l-1.7-2.3l-2.3-1.1l-3.3-0.4l-1.7,0.1l-3,0.7l-2.5,1.3
		l-2.3,2l-1.3,1.5l-1.4,2.6l-0.9,2.8L277,792l0.1,2.1l0.7,2.9l1.2,2.3l1.8,1.6l2.3,1l3,0.3h0.1l2.8-0.3l3.2-0.9l0.5-4.2l-2.4,1.3
		l-2.8,0.5l-2.1-0.2l-2.5-1.3L282,795.6L282,795.6z M287.4,781.6l2.7-0.5l2.7,0.6l1.1,2.1l-0.2,1.1l-1.9,2.1l-2.3,0.8l-3.3,0.3
		l-1-0.1l-2.9-0.7l1.1-2.3l1.8-2.2L287.4,781.6L287.4,781.6z M261.8,801.5l5-28.1h10.5l0.7-4h-25.2l-0.7,4h10.2l-4.9,28.1H261.8
		L261.8,801.5z M313.7,801.5h4.2l3.1-17.4l2.2-2.1l2.9-0.9l0.7,0.1l2.4,1.1l0.7,2.7l-0.1,1.7l-2.6,14.8h4.3l2.7-15.7l0.2-2.1
		l-0.1-1.8l-1.1-2.4l-2.1-1.4l-3.1-0.5l-1,0.1l-3.1,0.8l-0.7,0.3l-2.3,1.9l-0.8-1.3l-2.3-1.4l-3.4-0.5l-1.2,0.1l-3,0.7l-0.7,0.3
		l-2.2,1.9l-0.5-3.1l-4,0.8l0.1,0.7l0.3,3.2l-0.1,2.1l-3,17.1h4.3l3-17.3h0.1l2.3-2.1l2.7-0.9h0.3l2.9,0.8l1,2.2l-0.1,0.7
		L313.7,801.5L313.7,801.5z M435.9,793l2.4-11.7h6.4l0.7-3.3H439l1.6-6.6l-4.8,1.7l-0.9,4.9h-2.7l-0.7,3.3h2.7l-2.8,13.3l-0.2,1.5
		l0.2,1.7l1.2,2.5l0.9,0.8l3,0.7l3.2-0.1l2.5-0.5l0.2-3.7l-0.6,0.3l-3,0.6l-2.4-0.7l-0.9-2.6L435.9,793L435.9,793z"/>
</g>
<g id="LWPOLYLINE_19_">
	<polygon class="st1" points="435.9,793 438.3,781.3 444.7,781.3 445.4,778.1 439,778.1 440.6,771.4 435.8,773.2 434.9,778.1 
		432.1,778.1 431.4,781.3 434.1,781.3 431.3,794.7 431.1,796.2 431.3,797.8 432.5,800.4 433.5,801.2 436.4,801.9 439.6,801.8 
		442.2,801.3 442.4,797.6 441.8,797.8 438.9,798.4 436.5,797.7 435.5,795.1 	"/>
</g>
<g id="HATCH_6_">
	<polygon points="209,401.7 959.6,401.7 959.6,408.6 209,408.6 	"/>
</g>
<g id="LWPOLYLINE_22_">
	<rect x="209" y="401.7" class="st1" width="750.5" height="6.9"/>
</g>
<g id="HATCH_7_">
	<polygon class="st1" points="440,946.4 440.4,937.4 432.3,937.4 431.9,946.4 	"/>
</g>
<g id="LWPOLYLINE_23_">
	<polygon class="st1" points="440,946.4 440.4,937.4 432.3,937.4 431.9,946.4 	"/>
</g>
<g id="HATCH_8_">
	<polygon class="st1" points="951.4,983.8 951.4,990.8 210.4,990.8 210.4,983.8 	"/>
</g>
<g id="LWPOLYLINE_24_">
	<rect x="210.4" y="983.8" class="st1" width="741" height="6.9"/>
</g>
<g id="HATCH_9_">
	<path class="st1" d="M349.5,897.7l5.3,5l4.9-3.9l2.4-27c0.3-3.3-1-6.5-3.5-8.6l-6.9,10.2C351.7,873.3,349.5,897.7,349.5,897.7
		L349.5,897.7z"/>
</g>
<g id="LWPOLYLINE_25_">
	<path class="st1" d="M349.5,897.7l5.3,5l4.9-3.9l2.4-27c0.3-3.3-1-6.5-3.5-8.6l-6.9,10.2L349.5,897.7z"/>
</g>
<g id="HATCH_10_">
	<path class="st1" d="M383.4,861.7c-3.1,1.6-5.2,4.7-5.5,8.2l-2.4,27.6l4,3.9l6.4-5l2.2-25.3L383.4,861.7L383.4,861.7z"/>
</g>
<g id="LWPOLYLINE_26_">
	<path class="st1" d="M383.4,861.7c-3.1,1.6-5.2,4.7-5.5,8.2l-2.4,27.6l4,3.9l6.4-5l2.2-25.3L383.4,861.7z"/>
</g>
<g id="HATCH_11_">
	<path class="st1" d="M423.5,902.7l4.9-3.9l2.4-27c0.3-3.3-1-6.5-3.5-8.6l-6.9,10.2l-2.1,24.4L423.5,902.7L423.5,902.7z"/>
</g>
<g id="LWPOLYLINE_27_">
	<path class="st1" d="M423.5,902.7l4.9-3.9l2.4-27c0.3-3.3-1-6.5-3.5-8.6l-6.9,10.2l-2.1,24.4L423.5,902.7z"/>
</g>
<g id="HATCH_12_">
	<path class="st1" d="M266.8,883.1v32.4c-4.8,1.4-7.5,6.4-6.1,11.2s6.4,7.5,11.2,6.1c4.8-1.4,7.5-6.4,6.1-11.2
		c-0.9-3-3.2-5.3-6.1-6.1v-32.4c0-1.4-1.1-2.5-2.5-2.5C267.9,880.5,266.8,881.7,266.8,883.1L266.8,883.1z M260.1,861.1v48.5
		c-8.1,5.1-10.5,15.7-5.5,23.8c5.1,8.1,15.7,10.5,23.8,5.5c8.1-5.1,10.5-15.7,5.5-23.8c-1.4-2.2-3.3-4.1-5.5-5.5v-48.5
		c-0.6-5.1-5.2-8.7-10.2-8.1C264,853.5,260.6,856.9,260.1,861.1L260.1,861.1z M262.2,861.2v49.6c-7.4,3.9-10.2,13.1-6.4,20.5
		c3.9,7.4,13.1,10.2,20.5,6.4s10.2-13.1,6.4-20.5c-1.4-2.7-3.6-4.9-6.4-6.4v-49.6c-0.5-3.9-4.1-6.6-8-6.1
		C265.2,855.6,262.7,858.1,262.2,861.2L262.2,861.2z"/>
</g>
<g id="LWPOLYLINE_28_">
	<path class="st1" d="M262.2,861.2v49.6c-7.4,3.9-10.2,13.1-6.4,20.5c3.9,7.4,13.1,10.2,20.5,6.4s10.2-13.1,6.4-20.5
		c-1.4-2.7-3.6-4.9-6.4-6.4v-49.6c-0.5-3.9-4.1-6.6-8-6.1C265.2,855.6,262.7,858.1,262.2,861.2z"/>
</g>
<g id="LWPOLYLINE_29_">
	<path class="st1" d="M260.1,861.1v48.5c-8.1,5.1-10.5,15.7-5.5,23.8c5.1,8.1,15.7,10.5,23.8,5.5c8.1-5.1,10.5-15.7,5.5-23.8
		c-1.4-2.2-3.3-4.1-5.5-5.5v-48.5c-0.6-5.1-5.2-8.7-10.2-8.1C264,853.5,260.6,856.9,260.1,861.1z"/>
</g>
<g id="HATCH_13_">
	<polygon class="st1" points="346.7,898.9 352.2,904 345.9,909.1 317.7,909.1 312.3,903.8 318.7,898.9 	"/>
</g>
<g id="LWPOLYLINE_30_">
	<polygon class="st1" points="346.7,898.9 352.2,904 345.9,909.1 317.7,909.1 312.3,903.8 318.7,898.9 	"/>
</g>
<g id="HATCH_14_">
	<path class="st1" d="M313.5,948H346c0.9,0,1.8-0.1,2.6-0.3l-5.8-10h-27.6l-5.6,9.6C310.9,947.8,312.2,948,313.5,948L313.5,948z"/>
</g>
<g id="LWPOLYLINE_31_">
	<path class="st1" d="M313.5,948H346c0.9,0,1.8-0.1,2.6-0.3l-5.8-10h-27.6l-5.6,9.6C310.9,947.8,312.2,948,313.5,948z"/>
</g>
<g id="LWPOLYLINE_32_">
	<path d="M266.8,883.1v32.4c-4.8,1.4-7.5,6.4-6.1,11.2s6.4,7.5,11.2,6.1c4.8-1.4,7.5-6.4,6.1-11.2c-0.9-3-3.2-5.3-6.1-6.1v-32.4
		c0-1.4-1.1-2.5-2.5-2.5C267.9,880.5,266.8,881.7,266.8,883.1z"/>
</g>
<g id="HATCH_15_">
	<path class="st1" d="M303.3,936.9c-0.3,3.4,1.1,6.7,3.8,8.8l6.8-11.6l2-23l-5.6-5.5l-4.5,3.5L303.3,936.9L303.3,936.9z"/>
</g>
<g id="LWPOLYLINE_33_">
	<path class="st1" d="M303.3,936.9c-0.3,3.4,1.1,6.7,3.8,8.8l6.8-11.6l2-23l-5.6-5.5l-4.5,3.5C305.7,909.1,303.3,936.9,303.3,936.9z
		"/>
</g>
<g id="HATCH_16_">
	<polygon class="st1" points="415.4,898.9 420.9,904 414.6,909.1 386.3,909.1 380.9,903.8 387.3,898.9 	"/>
</g>
<g id="LWPOLYLINE_34_">
	<polygon class="st1" points="415.4,898.9 420.9,904 414.6,909.1 386.3,909.1 380.9,903.8 387.3,898.9 	"/>
</g>
<g id="HATCH_17_">
	<path class="st1" d="M417.3,947.7l-5.8-10h-27.6l-5.6,9.6c1.2,0.5,2.5,0.7,3.8,0.7h32.5C415.6,948,416.4,947.9,417.3,947.7
		L417.3,947.7z"/>
</g>
<g id="LWPOLYLINE_35_">
	<path class="st1" d="M417.3,947.7l-5.8-10h-27.6l-5.6,9.6c1.2,0.5,2.5,0.7,3.8,0.7h32.5C415.6,948,416.4,947.9,417.3,947.7z"/>
</g>
<g id="HATCH_18_">
	<path class="st1" d="M372,936.9c-0.3,3.4,1.1,6.7,3.8,8.8l6.8-11.6l2-23l-5.6-5.5l-4.5,3.5L372,936.9L372,936.9z"/>
</g>
<g id="LWPOLYLINE_36_">
	<path class="st1" d="M372,936.9c-0.3,3.4,1.1,6.7,3.8,8.8l6.8-11.6l2-23l-5.6-5.5l-4.5,3.5L372,936.9z"/>
</g>
<g id="HATCH_19_">
	<path class="st1" d="M427.4,910.3l-4.6-4.3l-5.7,4.6l-2.4,26.9l5.2,9c2.8-1.7,4.7-4.6,5-7.9L427.4,910.3L427.4,910.3z"/>
</g>
<g id="LWPOLYLINE_37_">
	<path class="st1" d="M427.4,910.3l-4.6-4.3l-5.7,4.6l-2.4,26.9l5.2,9c2.8-1.7,4.7-4.6,5-7.9C424.9,938.7,427.4,910.3,427.4,910.3z"
		/>
</g>
<g id="LWPOLYLINE_38_">
	<polygon class="st1" points="313.7,801.5 317.9,801.5 321,784.2 323.2,782 326.1,781.1 326.8,781.2 329.2,782.3 329.9,785 
		329.8,786.7 327.2,801.5 331.5,801.5 334.2,785.8 334.4,783.8 334.3,781.9 333.2,779.5 331.1,778.1 328,777.7 327,777.7 
		323.9,778.5 323.3,778.9 320.9,780.8 320.1,779.5 317.8,778.1 314.5,777.7 313.3,777.7 310.3,778.5 309.6,778.8 307.4,780.7 
		306.9,777.7 302.9,778.5 303,779.1 303.3,782.3 303.2,784.4 300.1,801.5 304.4,801.5 307.4,784.2 307.5,784.2 309.8,782.1 
		312.5,781.1 312.8,781.1 315.7,781.9 316.7,784.2 316.6,784.9 	"/>
</g>
<g id="HATCH_20_">
	<path class="st1" d="M350.1,870.7l6.2-9.1c-1.4-0.6-2.8-1-4.3-1h-32.5c-0.7,0-1.4,0.1-2,0.2l4.9,9.9L350.1,870.7L350.1,870.7z"/>
</g>
<g id="LWPOLYLINE_39_">
	<path class="st1" d="M350.1,870.7l6.2-9.1c-1.4-0.6-2.8-1-4.3-1h-32.5c-0.7,0-1.4,0.1-2,0.2l4.9,9.9L350.1,870.7z"/>
</g>
<g id="LWPOLYLINE_40_">
	<polygon class="st1" points="261.8,801.5 266.8,773.4 277.3,773.4 278.1,769.5 252.9,769.5 252.1,773.4 262.3,773.4 257.4,801.5 	
		"/>
</g>
<g id="LWPOLYLINE_41_">
	<polygon class="st4" points="287.4,781.6 290.1,781.1 292.8,781.7 293.9,783.8 293.7,785 291.8,787 289.4,787.8 286.1,788.2 
		285.1,788.1 282.2,787.4 283.3,785.2 285.1,783 	"/>
</g>
<g id="LWPOLYLINE_42_">
	<polygon class="st1" points="282,795.6 281.3,792.5 281.5,790.5 283.6,791.3 286.8,791.6 289.3,791.5 292.2,790.7 294.8,789.4 
		295.8,788.7 297.5,786.3 298,783.4 297.7,781.4 295.9,779.1 293.6,778.1 290.3,777.7 288.6,777.7 285.7,778.5 283.1,779.7 
		280.8,781.7 279.6,783.2 278.1,785.8 277.3,788.7 277,791.8 277.1,793.9 277.7,796.8 278.9,799 280.8,800.7 283.1,801.7 
		286.1,801.9 286.2,801.9 289,801.7 292.2,800.8 292.7,796.6 290.3,797.9 287.5,798.4 285.4,798.2 282.9,796.9 	"/>
</g>
<g id="LWPOLYLINE_43_">
	<polygon class="st1" points="354.2,799.7 356.3,797.6 357.9,795.3 359.1,792.6 359.8,789.7 360,786.4 360,785.2 359.3,782.1 
		357.8,779.9 357.1,779.3 354.6,778.1 351.3,777.8 350.7,777.8 347.7,778.6 347.1,778.9 344.7,780.7 344.3,777.8 340.2,778.5 
		340.2,778.7 340.5,781.8 340.5,782 340.2,785.1 335.6,810.8 339.8,810.8 341.6,800.3 343.7,801.6 346.7,802.1 348.8,801.9 
		351.6,801.1 	"/>
</g>
<g id="HATCH_21_">
	<path class="st1" d="M424.9,861.6c-1.4-0.6-2.8-1-4.3-1h-32.5c-0.7,0-1.4,0.1-2,0.2l4.9,9.9h27.9L424.9,861.6L424.9,861.6z"/>
</g>
<g id="LWPOLYLINE_44_">
	<path class="st1" d="M424.9,861.6c-1.4-0.6-2.8-1-4.3-1h-32.5c-0.7,0-1.4,0.1-2,0.2l4.9,9.9h27.9L424.9,861.6z"/>
</g>
<g id="LWPOLYLINE_45_">
	<polygon class="st1" points="368.1,795.6 367.5,792.5 367.7,790.5 369.8,791.3 373,791.6 375.4,791.5 378.4,790.7 380.9,789.4 
		382,788.7 383.6,786.3 384.2,783.4 383.8,781.4 382.1,779.1 379.8,778.1 376.5,777.7 374.8,777.7 371.8,778.5 369.3,779.7 
		366.9,781.7 365.7,783.2 364.3,785.8 363.4,788.7 363.2,791.8 363.2,793.9 363.9,796.8 365.1,799 366.9,800.7 369.3,801.7 
		372.2,801.9 372.4,801.9 375.2,801.7 378.4,800.8 378.9,796.6 376.5,797.9 373.6,798.4 371.6,798.2 369.1,796.9 	"/>
</g>
<g id="LWPOLYLINE_46_">
	<polygon points="346.9,782.1 349.8,781.3 351.7,781.4 354.1,782.7 355,783.9 355.6,787 355.3,790.3 354.5,793.1 353.1,795.5 
		351.7,796.8 349.2,798.1 346.1,798.6 343.8,798.1 342.2,796.9 344.5,784 346.8,782.1 	"/>
</g>
<g id="LWPOLYLINE_47_">
	<polygon points="373.6,781.6 376.3,781.1 379,781.7 380.1,783.8 379.9,785 377.9,787 375.6,787.8 372.3,788.2 371.3,788.1 
		368.4,787.4 369.4,785.2 371.3,783 	"/>
</g>
<g id="LWPOLYLINE_48_">
	<polygon class="st4" points="409.6,790.1 410.5,787.2 411.9,784.7 413,783.4 415.3,781.6 418,781 419.8,781.1 422,781.9 
		420.2,790.6 420.1,790.9 419.1,793.9 417.6,796.3 416.1,797.7 413.5,798.6 411.9,798.3 409.9,796.8 409.3,793.9 409.3,793.3 	"/>
</g>
<g id="LWPOLYLINE_49_">
	<polygon class="st1" points="405.2,790.9 405,794 405,794.4 405.5,797.6 406.9,799.9 409.2,801.5 412.3,801.9 413.6,801.9 
		416.6,801.2 417.2,800.9 419.6,799.2 420.4,801.5 424.6,801.5 424.5,801.3 423.8,798.4 423.5,795.2 423.7,793.2 426.6,779.5 
		424.9,778.7 422.1,777.9 418.5,777.7 416.1,777.9 413.3,778.8 410.9,780.3 408.8,782.6 408.7,782.7 407,785.2 405.9,788 	"/>
</g>
<g id="LWPOLYLINE_50_">
	<polygon class="st1" points="391,801.5 393.4,788.1 394.2,785.6 395.9,783.2 397.4,781.9 400.1,781.1 400.4,781.1 403.2,782.2 
		404.3,777.9 402,777.7 399.2,778.1 396.6,779.5 394.5,781.8 395.2,778.1 391,778.1 386.8,801.5 	"/>
</g>
<g id="HATCH_22_">
	<path class="st1" d="M290.2,548.7l3.2,1l0.2,0.1l1.4,3l-0.1,0.9l-1.1,3.5l-0.4,0.6l-1.8,2.7l-2.7,3.5l-12,15.5v2.3h20.4l0.8-4.5
		h-13.5l8.9-11.6l1.8-2.3l2.1-3.1l1.4-2.3l0.8-1.9l0.6-3.4l-0.6-3.2l-2-2.7l-0.6-0.5l-3.1-1.2l-3.9-0.5l-1.9,0.2l-3.5,0.9l-2.6,1.7
		l-1.8,2.7l3.5,2.3l2.6-2.5l3.1-0.8h0.8V548.7z M249.1,567.5l0.2-2.4l0.6-3.5l1.1-3.3l1.6-3.3l0.8-1.3l2.5-2.7l2.7-1.6l3.1-0.6
		l1.4,0.1l2.9,0.9l2.1,1.9l1.2,2.8l0.4,3.8v0.2l-0.2,3.7l-0.6,3.5l-1.1,3.2l-1.6,3l-1,1.5l-2.5,2.3l-3,1.4l-3.3,0.5l-2.9-0.6
		l-2.5-2.2l-0.4-0.6l-1.1-3.1C249.5,571.4,249.1,567.5,249.1,567.5L249.1,567.5z M244.6,561l-0.6,3.5l-0.2,3.7v0.3l0.4,3.7l1,3.3
		l1.7,2.8l2.1,1.9l3,1.4l3.6,0.5l2.9-0.2l3.4-0.8l3.1-1.4l2.7-1.9l2.3-2.6l2.2-3.6l1.3-3.1l1-3.4l0.6-3.6l0.2-3.9v-0.2l-0.4-3.9
		l-1-3.2l-1.9-2.6l-2.6-1.9l-3.1-1.1l-3.9-0.4l-1.9,0.2l-3.3,0.7l-3.1,1.4l-2.7,2.1l-2.4,2.7l-0.1,0.1l-1.9,3l-1.4,3.1L244.6,561
		L244.6,561z M222.7,576.3l-1.9-2l-1.2-3l-0.3-3.9l0.2-2.9l0.7-3.5l1.3-3.2l1.9-3.1l1.1-1.5l2.7-2.4l2.9-1.4l3.2-0.5l3,0.3l2.9,1.3
		l1.4-4.9l-3.1-0.9l-3.9-0.2l-2.5,0.2l-3.4,0.7l-3,1.4l-2.8,2l-2.4,2.7l-0.3,0.4l-1.9,2.9l-1.5,3l-1,3.3l-0.6,3.5l-0.2,3.8v0.5
		l0.4,3.8l1.1,3.2l1.8,2.7l2.3,1.9l3.1,1.3l3.8,0.4l3.6-0.2l3.3-1l2.6-1.6l0.4-5.2l-2.3,1.6l-3.1,1.5l-3.2,0.5l-2.5-0.3L222.7,576.3
		L222.7,576.3z"/>
</g>
<g id="LWPOLYLINE_51_">
	<polygon class="st1" points="222.7,576.3 220.8,574.3 219.6,571.4 219.3,567.5 219.4,564.6 220.2,561.1 221.5,557.9 223.3,554.8 
		224.4,553.2 227.1,550.8 230,549.4 233.2,548.9 236.2,549.2 239.1,550.5 240.4,545.6 237.4,544.7 233.5,544.5 231,544.6 
		227.7,545.4 224.7,546.7 221.9,548.7 219.4,551.4 219.1,551.8 217.3,554.7 215.8,557.8 214.8,561.1 214.2,564.6 214,568.4 
		214,568.9 214.4,572.6 215.5,575.9 217.3,578.6 219.6,580.5 222.7,581.8 226.5,582.2 230.1,582 233.4,581 236,579.4 236.4,574.2 
		234.2,575.8 231,577.3 227.8,577.8 225.3,577.5 	"/>
</g>
<g id="LWPOLYLINE_52_">
	<polygon class="st1" points="244.6,561 244.1,564.5 243.8,568.2 243.8,568.5 244.2,572.2 245.3,575.5 247,578.4 249.1,580.3 
		252,581.7 255.7,582.2 258.6,582.1 261.9,581.3 265,579.9 267.7,578 270.1,575.4 272.2,571.8 273.5,568.7 274.5,565.3 275.1,561.7 
		275.2,557.8 275.2,557.5 274.8,553.6 273.8,550.4 271.9,547.9 269.3,545.9 266.2,544.8 262.3,544.4 260.4,544.6 257.1,545.3 
		254,546.6 251.4,548.7 249,551.5 248.9,551.6 247,554.5 245.7,557.7 	"/>
</g>
<g id="LWPOLYLINE_53_">
	<polygon points="249.1,567.5 249.3,565.1 249.9,561.6 251.1,558.3 252.7,555 253.5,553.7 256,551.1 258.7,549.5 261.9,548.9 
		263.3,549 266.2,549.9 268.3,551.7 269.5,554.5 269.9,558.3 269.9,558.6 269.7,562.3 269,565.8 267.9,569 266.3,572 265.2,573.5 
		262.7,575.9 259.8,577.3 256.5,577.8 253.6,577.1 251.1,575 250.7,574.4 249.5,571.4 	"/>
</g>
<g id="LWPOLYLINE_54_">
	<polygon class="st1" points="290.2,548.7 293.4,549.8 293.6,549.9 295,552.8 294.9,553.7 293.8,557.2 293.4,557.8 291.6,560.5 
		289,563.9 277,579.4 277,581.7 297.3,581.7 298.1,577.1 284.6,577.1 293.6,565.6 295.3,563.2 297.4,560.1 298.9,557.8 299.7,555.9 
		300.2,552.5 299.6,549.3 297.6,546.6 296.9,546.1 293.9,544.9 290,544.4 288.1,544.6 284.6,545.4 282.1,547.1 280.3,549.8 
		283.7,552 286.3,549.5 289.5,548.7 	"/>
</g>
<g id="LWPOLYLINE_55_">
	<path class="st4" d="M616.9,814.4h325c1.4,0,2.6-1.2,2.6-2.6v-52c0-1.4-1.2-2.6-2.6-2.6h-325c-1.4,0-2.6,1.2-2.6,2.6v52
		C614.3,813.3,615.4,814.4,616.9,814.4z"/>
</g>
<g id="HATCH_24_">
	<path class="st1" d="M471.8,871.3l0.3,0.7l0.2,0.8l3.9-0.9l-0.1-0.4l-0.3-0.8l-0.3-0.7l-0.4-0.6l-0.4-0.6l-0.5-0.5l-0.3-0.2
		l-0.6-0.4l-0.6-0.4l-0.6-0.3l-0.7-0.3l-0.7-0.2l-0.8-0.1l-0.8-0.1h-0.8h-0.7l-0.8,0.1l-0.8,0.1l-0.7,0.2l-0.7,0.2l-0.7,0.3
		l-0.6,0.4l-0.6,0.4l-0.6,0.5l-0.3,0.3l-0.4,0.5l-0.4,0.6l-0.4,0.6l-0.3,0.6l-0.3,0.7l-0.2,0.7l-0.2,0.7l-0.1,0.8l-0.1,0.8l-0.1,0.8
		v0.9v0.5v0.8l0.1,0.8l0.1,0.8l0.2,0.7l0.2,0.7l0.3,0.7l0.3,0.6l0.4,0.6l0.4,0.6l0.5,0.5l0.3,0.3l0.6,0.5l0.6,0.4l0.6,0.4l0.7,0.3
		l0.7,0.3l0.7,0.2l0.7,0.1l0.8,0.1h0.8h0.3h0.8l0.8-0.1l0.7-0.2l0.7-0.2l0.7-0.3l0.6-0.3l0.6-0.4l0.3-0.2l0.5-0.5l0.5-0.5l0.4-0.6
		l0.4-0.7l0.3-0.7l0.3-0.8l0.3-0.8l-3.9-1.2l-0.2,0.7l-0.3,0.8l-0.3,0.7l-0.4,0.6l-0.4,0.5l-0.6,0.4l-0.7,0.3l-0.7,0.2l-0.8,0.1H468
		l-0.8-0.1l-0.7-0.2l-0.7-0.3l-0.6-0.4l-0.5-0.5l-0.1-0.2l-0.3-0.5l-0.3-0.6l-0.2-0.7l-0.2-0.7l-0.1-0.8l-0.1-0.9v-1v-0.1v-0.9
		l0.1-0.9l0.1-0.8l0.2-0.7l0.3-0.6l0.3-0.6l0.4-0.5l0.2-0.2l0.6-0.5l0.6-0.4l0.7-0.3l0.7-0.2l0.8-0.1h0.7l0.7,0.2l0.7,0.3l0.6,0.4
		l0.4,0.4L471.8,871.3L471.8,871.3z M462,863.7c0-1.8-1.5-3.3-3.3-3.3s-3.3,1.5-3.3,3.3s1.5,3.3,3.3,3.3S462,865.5,462,863.7
		L462,863.7z M460.9,863.7c0-1.2-1-2.2-2.2-2.2s-2.2,1-2.2,2.2s1,2.2,2.2,2.2S460.9,864.9,460.9,863.7L460.9,863.7z"/>
</g>
<g id="LWPOLYLINE_57_">
	<polygon class="st1" points="471.8,871.3 472.2,872 472.4,872.8 476.3,871.8 476.2,871.4 475.9,870.6 475.6,869.9 475.2,869.3 
		474.8,868.7 474.3,868.2 474,867.9 473.5,867.5 472.9,867.1 472.2,866.8 471.5,866.5 470.8,866.3 470.1,866.2 469.3,866.1 
		468.4,866 467.7,866.1 466.9,866.1 466.2,866.3 465.4,866.5 464.7,866.7 464.1,867 463.4,867.4 462.9,867.8 462.3,868.2 
		461.8,868.8 461.3,869.3 460.9,869.8 460.6,870.4 460.3,871 460,871.7 459.8,872.4 459.6,873.1 459.4,873.9 459.3,874.7 
		459.2,875.5 459.2,876.4 459.2,876.9 459.3,877.7 459.4,878.5 459.5,879.3 459.7,880.1 459.9,880.8 460.2,881.4 460.5,882.1 
		460.9,882.7 461.3,883.2 461.7,883.7 462.1,884.1 462.6,884.6 463.2,885 463.8,885.4 464.5,885.7 465.2,886 465.9,886.2 
		466.6,886.3 467.4,886.4 468.2,886.4 468.5,886.4 469.3,886.4 470.1,886.3 470.9,886.1 471.6,885.9 472.2,885.6 472.9,885.3 
		473.4,884.9 473.7,884.6 474.2,884.2 474.7,883.6 475.1,883 475.5,882.4 475.8,881.7 476.1,880.9 476.4,880.1 472.5,878.8 
		472.3,879.5 472.1,880.3 471.7,881 471.3,881.5 470.9,882 470.3,882.4 469.7,882.8 468.9,883 468.2,883 467.9,883 467.1,882.9 
		466.4,882.7 465.8,882.4 465.2,882 464.7,881.4 464.5,881.3 464.2,880.8 463.9,880.2 463.7,879.5 463.5,878.8 463.4,878 
		463.3,877.1 463.3,876.1 463.3,876 463.4,875.1 463.4,874.2 463.6,873.4 463.8,872.7 464,872.1 464.3,871.5 464.7,871 464.9,870.8 
		465.4,870.3 466,869.9 466.7,869.7 467.5,869.5 468.2,869.4 468.9,869.5 469.6,869.7 470.3,869.9 470.9,870.3 471.4,870.7 	"/>
</g>
<g id="HATCH_25_">
	<path class="st1" d="M476.8,901.6l3.7-5.5c-0.8-0.4-1.7-0.6-2.6-0.6h-19.5c-0.4,0-0.8,0-1.2,0.1l2.9,5.9L476.8,901.6L476.8,901.6z"
		/>
</g>
<g id="LWPOLYLINE_58_">
	<path class="st1" d="M476.8,901.6l3.7-5.5c-0.8-0.4-1.7-0.6-2.6-0.6h-19.5c-0.4,0-0.8,0-1.2,0.1l2.9,5.9L476.8,901.6z"/>
</g>
<g id="HATCH_26_">
	<polygon class="st1" points="474.8,918.5 478.1,921.6 474.3,924.7 457.3,924.7 454.1,921.5 457.9,918.5 	"/>
</g>
<g id="LWPOLYLINE_59_">
	<polygon class="st1" points="474.8,918.5 478.1,921.6 474.3,924.7 457.3,924.7 454.1,921.5 457.9,918.5 	"/>
</g>
<g id="HATCH_27_">
	<path class="st1" d="M480.5,942.4l1.5-17l-2.8-2.6l-3.4,2.8l-1.4,16.2l3.1,5.4C479.2,946.2,480.3,944.4,480.5,942.4L480.5,942.4z"
		/>
</g>
<g id="LWPOLYLINE_60_">
	<path class="st1" d="M480.5,942.4l1.5-17l-2.8-2.6l-3.4,2.8l-1.4,16.2l3.1,5.4C479.2,946.2,480.3,944.4,480.5,942.4z"/>
</g>
<g id="HATCH_28_">
	<path class="st1" d="M454.8,948h19.5c0.5,0,1.1-0.1,1.6-0.2l-3.5-6h-16.6l-3.3,5.7C453.3,947.9,454,948,454.8,948L454.8,948z"/>
</g>
<g id="LWPOLYLINE_61_">
	<path class="st1" d="M454.8,948h19.5c0.5,0,1.1-0.1,1.6-0.2l-3.5-6h-16.6l-3.3,5.7C453.3,947.9,454,948,454.8,948z"/>
</g>
<g id="HATCH_29_">
	<path class="st1" d="M448.7,941.3c-0.2,2,0.7,4,2.3,5.3l4.1-7l1.2-13.8l-3.4-3.3l-2.7,2.1L448.7,941.3L448.7,941.3z"/>
</g>
<g id="LWPOLYLINE_62_">
	<path class="st1" d="M448.7,941.3c-0.2,2,0.7,4,2.3,5.3l4.1-7l1.2-13.8l-3.4-3.3l-2.7,2.1L448.7,941.3z"/>
</g>
<g id="HATCH_30_">
	<path class="st1" d="M476.5,917.8l3.2,3l2.9-2.4l1.4-16.2c0.2-2-0.6-3.9-2.1-5.2l-4.1,6.1L476.5,917.8L476.5,917.8z"/>
</g>
<g id="LWPOLYLINE_63_">
	<path class="st1" d="M476.5,917.8l3.2,3l2.9-2.4l1.4-16.2c0.2-2-0.6-3.9-2.1-5.2l-4.1,6.1L476.5,917.8z"/>
</g>
<g id="HATCH_31_">
	<path class="st1" d="M455.6,896.2c-1.9,1-3.1,2.8-3.3,4.9l-1.5,16.6l2.4,2.4l3.8-3l1.3-15.2L455.6,896.2L455.6,896.2z"/>
</g>
<g id="LWPOLYLINE_64_">
	<path class="st1" d="M455.6,896.2c-1.9,1-3.1,2.8-3.3,4.9l-1.5,16.6l2.4,2.4l3.8-3l1.3-15.2L455.6,896.2z"/>
</g>
<g id="CIRCLE">
	<path class="st1" d="M456.5,863.7c0-1.2,1-2.2,2.2-2.2s2.2,1,2.2,2.2s-1,2.2-2.2,2.2S456.5,864.9,456.5,863.7L456.5,863.7z"/>
</g>
<g id="CIRCLE_1_">
	<path class="st1" d="M455.4,863.7c0-1.8,1.5-3.3,3.3-3.3s3.3,1.5,3.3,3.3s-1.5,3.3-3.3,3.3S455.4,865.5,455.4,863.7L455.4,863.7z"
		/>
</g>
<g id="LWPOLYLINE_65_">
	<polygon class="st1" points="496.7,795.6 496.1,792.5 496.3,790.5 498.4,791.3 501.6,791.6 504.1,791.5 507,790.7 509.6,789.4 
		510.5,788.7 512.2,786.3 512.8,783.4 512.4,781.4 510.7,779.1 508.4,778.1 505.1,777.7 503.3,777.7 500.4,778.5 497.8,779.7 
		495.5,781.7 494.3,783.2 492.9,785.8 492.1,788.7 491.8,791.8 491.9,793.9 492.5,796.8 493.7,799 495.5,800.7 497.9,801.7 
		500.8,801.9 500.9,801.9 503.8,801.7 507,800.8 507.4,796.6 505.1,797.9 502.3,798.4 500.2,798.2 497.7,796.9 	"/>
</g>
<g id="LWPOLYLINE_66_">
	<polygon class="st1" points="476.9,801.5 479.3,788.1 480.1,785.6 481.8,783.2 483.3,781.9 486,781.1 486.3,781.1 489.1,782.2 
		490.3,777.9 487.9,777.7 485.1,778.1 482.5,779.5 480.4,781.8 481.1,778.1 476.9,778.1 472.7,801.5 	"/>
</g>
<g id="LWPOLYLINE_67_">
	<polygon class="st1" points="452.6,793 455.3,778.1 451,778.1 448.3,793.5 448,795.8 448.3,797.8 449.5,800.3 450.8,801.3 
		453.8,801.9 454.6,801.9 457.9,801.5 460.4,800.2 462.3,798.2 461.7,801.5 466,801.5 470.3,778.1 466,778.1 463.3,792.5 
		462.8,794.3 460.7,796.7 459.1,797.8 456.3,798.4 455.8,798.4 453.2,797.4 452.4,794.8 	"/>
</g>
<g id="LWPOLYLINE_68_">
	<polygon points="502.2,781.6 504.9,781.1 507.6,781.7 508.7,783.8 508.5,785 506.5,787 504.2,787.8 500.9,788.2 499.9,788.1 
		497,787.4 498,785.2 499.8,783 	"/>
</g>
<g id="HATCH_32_">
	<path class="st1" d="M679.1,869.8c-0.9,1.4-1.2,3.1-0.8,4.7l0.6,1.7c1.7,3,5.4,4,8.4,2.4s4-5.4,2.4-8.4c-0.1-0.1-0.1-0.2-0.2-0.3
		l-5.2-13.5L679.1,869.8L679.1,869.8z M677,877.4c-0.4-0.8-0.8-1.6-0.9-2.5l-4.8-12.5l-7.5,19.6c-2.7,4.2-1.4,9.7,2.7,12.3
		s9.7,1.4,12.3-2.7c1.9-2.9,1.9-6.7,0-9.6L677,877.4L677,877.4z M677.2,868.6c-0.2,0.4-0.5,0.8-0.6,1.2l-5.3-13.8l-9.5,24.8
		c-3.3,5.2-1.8,12.2,3.4,15.6c5.2,3.3,12.2,1.8,15.6-3.4c2.3-3.7,2.4-8.3,0.1-12c4.3,2,9.3,0.1,11.3-4.2c1.2-2.6,1-5.7-0.6-8.1
		l-7.2-18.8L677.2,868.6L677.2,868.6z"/>
</g>
<g id="LWPOLYLINE_69_">
	<path class="st1" d="M677.2,868.6c-0.2,0.4-0.5,0.8-0.6,1.2l-5.3-13.8l-9.5,24.8c-3.3,5.2-1.8,12.2,3.4,15.6
		c5.2,3.3,12.2,1.8,15.6-3.4c2.3-3.7,2.4-8.3,0.1-12c4.3,2,9.3,0.1,11.3-4.2c1.2-2.6,1-5.7-0.6-8.1l-7.2-18.8
		C684.3,849.8,677.2,868.6,677.2,868.6z"/>
</g>
<g id="LWPOLYLINE_70_">
	<path class="st1" d="M677,877.4c-0.4-0.8-0.8-1.6-0.9-2.5l-4.8-12.5l-7.5,19.6c-2.7,4.2-1.4,9.7,2.7,12.3s9.7,1.4,12.3-2.7
		c1.9-2.9,1.9-6.7,0-9.6C678.7,882.1,677,877.4,677,877.4z"/>
</g>
<g id="HATCH_33_">
	<path class="st1" d="M854.8,869.8c0.3,0.8,1.3,1.2,2.1,0.9c0.4-0.2,0.7-0.5,0.9-0.9c0.1-1.4,0.1-2.7,0-4.1c-0.2-0.8-1-1.3-1.8-1.1
		c-0.6,0.1-1.1,0.7-1.2,1.3C854.7,867.2,854.7,868.5,854.8,869.8L854.8,869.8z M860.4,865.6c-0.2-1.1-0.8-2-1.6-2.6
		c-1.5-0.9-3.4-0.9-4.9,0c-0.5,0.5-1,1-1.3,1.6c-0.3,1.6-0.4,3.3-0.2,5c0.3,2.2,2.4,3.8,4.7,3.5c1.7-0.2,3.1-1.5,3.4-3.2
		C860.6,868.4,860.6,867,860.4,865.6L860.4,865.6z M863.6,874.7c-0.5,0.5-1,1-1.3,1.6c-0.3,1.6-0.4,3.3-0.2,5
		c0.3,2.2,2.4,3.8,4.7,3.5c1.7-0.2,3.1-1.5,3.4-3.2c0.2-1.4,0.2-2.8,0-4.3c-0.2-1.1-0.8-2-1.6-2.6
		C867,873.9,865.1,873.9,863.6,874.7L863.6,874.7z M864.6,881.6c0.3,0.8,1.3,1.2,2.1,0.9c0.4-0.2,0.7-0.5,0.9-0.9
		c0.1-1.4,0.1-2.7,0-4.1c-0.2-0.8-1-1.3-1.8-1.1c-0.6,0.1-1.1,0.7-1.2,1.3C864.5,879,864.5,880.3,864.6,881.6L864.6,881.6z
		 M864.6,862.3l-8.8,22.6h2l8.8-22.6H864.6L864.6,862.3z"/>
</g>
<g id="LWPOLYLINE_71_">
	<polygon class="st1" points="864.6,862.3 855.8,884.9 857.8,884.9 866.6,862.3 	"/>
</g>
<g id="HATCH_34_">
	<path class="st1" d="M758.5,890.5l5.3,5l4.9-3.9l2.4-27c0.3-3.3-1-6.5-3.5-8.6l-6.9,10.2L758.5,890.5L758.5,890.5z"/>
</g>
<g id="LWPOLYLINE_72_">
	<path class="st1" d="M758.5,890.5l5.3,5l4.9-3.9l2.4-27c0.3-3.3-1-6.5-3.5-8.6l-6.9,10.2L758.5,890.5z"/>
</g>
<g id="HATCH_35_">
	<path class="st1" d="M832.5,895.5l4.9-3.9l2.4-27c0.3-3.3-1-6.5-3.5-8.6l-6.9,10.2l-2.1,24.4L832.5,895.5L832.5,895.5z"/>
</g>
<g id="LWPOLYLINE_73_">
	<path class="st1" d="M832.5,895.5l4.9-3.9l2.4-27c0.3-3.3-1-6.5-3.5-8.6l-6.9,10.2l-2.1,24.4C827.2,890.5,832.5,895.5,832.5,895.5z
		"/>
</g>
<g id="HATCH_36_">
	<path class="st1" d="M765.2,931.5l2.5-28.4l-4.6-4.3l-5.7,4.6l-2.4,26.9l5.2,9C763.1,937.8,764.9,934.8,765.2,931.5L765.2,931.5z"
		/>
</g>
<g id="LWPOLYLINE_76_">
	<path class="st1" d="M765.2,931.5l2.5-28.4l-4.6-4.3l-5.7,4.6l-2.4,26.9l5.2,9C763.1,937.8,764.9,934.8,765.2,931.5z"/>
</g>
<g id="HATCH_37_">
	<polygon class="st1" points="755.7,891.7 761.2,896.8 754.9,901.9 726.7,901.9 721.3,896.7 727.7,891.7 	"/>
</g>
<g id="LWPOLYLINE_77_">
	<polygon class="st1" points="755.7,891.7 761.2,896.8 754.9,901.9 726.7,901.9 721.3,896.7 727.7,891.7 	"/>
</g>
<g id="HATCH_38_">
	<path class="st1" d="M722.5,940.9H755c0.9,0,1.8-0.1,2.6-0.3l-5.8-10h-27.6l-5.6,9.6C719.9,940.6,721.2,940.9,722.5,940.9
		L722.5,940.9z"/>
</g>
<g id="LWPOLYLINE_78_">
	<path class="st1" d="M722.5,940.9H755c0.9,0,1.8-0.1,2.6-0.3l-5.8-10h-27.6l-5.6,9.6C719.9,940.6,721.2,940.9,722.5,940.9z"/>
</g>
<g id="HATCH_39_">
	<polygon class="st1" points="824.4,891.7 829.9,896.8 823.6,901.9 795.3,901.9 790,896.7 796.3,891.7 	"/>
</g>
<g id="LWPOLYLINE_79_">
	<polygon class="st1" points="824.4,891.7 829.9,896.8 823.6,901.9 795.3,901.9 790,896.7 796.3,891.7 	"/>
</g>
<g id="HATCH_40_">
	<path class="st1" d="M826.3,940.5l-5.8-10h-27.6l-5.6,9.6c1.2,0.5,2.5,0.7,3.8,0.7h32.5C824.6,940.9,825.4,940.7,826.3,940.5
		L826.3,940.5z"/>
</g>
<g id="LWPOLYLINE_80_">
	<path class="st1" d="M826.3,940.5l-5.8-10h-27.6l-5.6,9.6c1.2,0.5,2.5,0.7,3.8,0.7h32.5C824.6,940.9,825.4,940.7,826.3,940.5z"/>
</g>
<g id="HATCH_42_">
	<path class="st1" d="M836.4,903.1l-4.6-4.3l-5.7,4.6l-2.4,26.9l5.2,9c2.8-1.7,4.7-4.6,5-7.9L836.4,903.1L836.4,903.1z"/>
</g>
<g id="LWPOLYLINE_81_">
	<path class="st1" d="M836.4,903.1l-4.6-4.3l-5.7,4.6l-2.4,26.9l5.2,9c2.8-1.7,4.7-4.6,5-7.9C833.9,931.5,836.4,903.1,836.4,903.1z"
		/>
</g>
<g id="HATCH_43_">
	<path class="st1" d="M828.7,790.6l2.3-11.1h6.1l0.7-3.2h-6l1.5-6.4l-4.5,1.7l-0.9,4.6h-2.5l-0.7,3.2h2.5l-2.6,12.6l-0.2,1.4
		l0.1,1.6l1.2,2.4l0.8,0.7l2.9,0.7l3.1-0.1l2.4-0.5l0.1-3.5l-0.5,0.2l-2.8,0.6l-2.3-0.7l-0.9-2.5L828.7,790.6L828.7,790.6z
		 M818.6,772.4l0.8-1.9l-0.8-1.9l-1.9-0.8l-1.9,0.8l-0.8,1.9l0.8,1.9l1.9,0.8L818.6,772.4L818.6,772.4z M814.3,798.7l3.9-22.2h-6.8
		l-0.7,3.3h3l-3.4,18.9H814.3L814.3,798.7z M789.9,787.5l0.8-2.7l1.4-2.4l0.9-0.9l2.4-1.5l2.8-0.5l1.7,0.5l1.5,1.5l0.5,1.1l-0.9,5.6
		v0.3l-0.9,3l-1.5,2.3l-1.5,1.3l-2.5,0.8h-0.7l-2.3-0.9l-1.3-1.9l-0.5-3L789.9,787.5L789.9,787.5z M777.6,798.7l4-22.2h-6.8
		l-0.7,3.3h3l-3.4,18.9H777.6L777.6,798.7z M781.9,772.4l0.8-1.9l-0.8-1.9l-1.9-0.8l-1.9,0.8l-0.8,1.9l0.8,1.9l1.9,0.8L781.9,772.4
		L781.9,772.4z M787.5,782.2l-1.1,2.5l-0.7,2.9l-0.3,3.2l0.1,0.7l0.6,3l1.4,2.3l0.3,0.3l2.3,1.5l3,0.5l1.8-0.1l2.6-1l2.1-1.8
		l-0.5,2.5h3.9l5.4-31.4h-3.6l-2.1,11.4l-0.1-0.1l-2-1.9l-2.7-0.6l-1.6,0.1l-2.7,0.7l-2.5,1.3l-2.1,2L787.5,782.2L787.5,782.2z
		 M846.8,798.8l-0.5,1.3l-1.7,2.1l-2.1,0.8l-3.4,0.3v4l1.9-0.1l3-0.5l2.3-0.9l0.1-0.1l2-1.9l1.6-2.7l11.1-24.9h-4.4l-8,18.6
		l-0.3-0.1l-1.3-2.3l-2.5-16.2h-4.3l2.7,16.6l0.7,2.7l1.3,2.3L846.8,798.8L846.8,798.8z M718.1,790.6l2.5-14.2h-4.2l-2.5,14.6
		l-0.2,2.1l0.2,2l1.2,2.3l1.2,0.9l2.9,0.6h0.7l3.1-0.5l2.5-1.2l1.7-1.9l-0.6,3.2h4.2l4.1-22.3h-4.1l-2.5,13.7l-0.5,1.7l-1.9,2.3
		l-1.6,1l-2.7,0.7h-0.5l-2.3-1l-0.8-2.5L718.1,790.6L718.1,790.6z M690.7,768.2l-5.4,30.4h4.3l2.6-14.7h13.3l-2.5,14.7h4.2l5.4-30.4
		h-4.2l-2.1,12.2H693l2.1-12.2H690.7L690.7,768.2z M749.5,798.7h4.1l2.9-16.4v-0.1l2.1-2l2.7-0.8h0.7l2.2,1.1l0.8,2.5l-0.2,1.6
		l-2.5,14.1h4.1l2.6-14.9l0.2-2l-0.2-1.7l-1-2.3l-1.9-1.3l-2.9-0.5l-1,0.1l-2.9,0.7l-0.7,0.3l-2.2,1.8l-0.7-1.1l-2.2-1.3l-3.2-0.5
		l-1.1,0.1l-2.9,0.7l-0.6,0.3l-2.1,1.9l-0.5-3l-3.8,0.7l0.1,0.7l0.3,3.1l-0.1,1.9l-2.8,16.2h4l2.9-16.4l2.2-2l2.6-0.9h0.3l2.7,0.7
		l0.9,2.1l-0.1,0.6L749.5,798.7L749.5,798.7z"/>
</g>
<g id="LWPOLYLINE_82_">
	<polygon class="st4" points="749.5,798.7 753.6,798.7 756.5,782.2 756.5,782.2 758.6,780.2 761.3,779.4 762,779.4 764.2,780.4 
		765,783 764.8,784.6 762.4,798.7 766.4,798.7 769.1,783.8 769.3,781.8 769.1,780.1 768.1,777.8 766.1,776.5 763.2,776 762.2,776.1 
		759.3,776.8 758.7,777.1 756.4,778.9 755.7,777.8 753.5,776.5 750.3,776 749.2,776.1 746.3,776.8 745.7,777.1 743.6,778.9 
		743.1,776 739.3,776.7 739.4,777.4 739.7,780.5 739.6,782.4 736.7,798.7 740.8,798.7 743.6,782.2 745.9,780.2 748.5,779.4 
		748.7,779.4 751.5,780.1 752.4,782.2 752.4,782.8 	"/>
</g>
<g id="LWPOLYLINE_83_">
	<path class="st1" d="M679.1,869.8c-0.9,1.4-1.2,3.1-0.8,4.7l0.6,1.7c1.7,3,5.4,4,8.4,2.4s4-5.4,2.4-8.4c-0.1-0.1-0.1-0.2-0.2-0.3
		l-5.2-13.5L679.1,869.8z"/>
</g>
<g id="HATCH_44_">
	<path class="st1" d="M759.1,863.5l6.2-9.1c-1.4-0.6-2.8-1-4.3-1h-32.5c-0.7,0-1.4,0.1-2,0.2l4.9,9.9
		C731.2,863.5,759.1,863.5,759.1,863.5L759.1,863.5z"/>
</g>
<g id="LWPOLYLINE_84_">
	<path class="st1" d="M759.1,863.5l6.2-9.1c-1.4-0.6-2.8-1-4.3-1h-32.5c-0.7,0-1.4,0.1-2,0.2l4.9,9.9L759.1,863.5z"/>
</g>
<g id="LWPOLYLINE_85_">
	<polygon class="st4" points="690.7,768.2 685.2,798.7 689.5,798.7 692.1,784 705.4,784 702.9,798.7 707.1,798.7 712.5,768.2 
		708.2,768.2 706.1,780.4 692.7,780.4 694.9,768.2 	"/>
</g>
<g id="LWPOLYLINE_86_">
	<polygon class="st4" points="718.1,790.6 720.6,776.4 716.5,776.4 713.9,791 713.7,793.2 713.9,795.2 715.1,797.5 716.3,798.5 
		719.2,799.1 720,799.1 723.1,798.6 725.5,797.4 727.3,795.5 726.7,798.7 730.8,798.7 734.9,776.4 730.8,776.4 728.2,790.1 
		727.7,791.8 725.8,794.1 724.2,795.1 721.5,795.8 721,795.8 718.7,794.8 717.9,792.3 	"/>
</g>
<g id="LWPOLYLINE_87_">
	<polygon class="st1" points="846.8,798.8 846.2,800.1 844.5,802.3 842.4,803.1 839,803.4 839,807.4 840.9,807.3 843.9,806.8 
		846.2,806 846.3,805.9 848.3,804 849.9,801.3 861.1,776.4 856.6,776.4 848.6,795 848.3,794.9 846.9,792.6 844.4,776.4 840.1,776.4 
		842.9,793 843.6,795.7 844.9,798 	"/>
</g>
<g id="HATCH_45_">
	<path class="st1" d="M833.9,854.4c-1.4-0.6-2.8-1-4.3-1h-32.5c-0.7,0-1.4,0.1-2,0.2l4.9,9.9h27.8L833.9,854.4L833.9,854.4z"/>
</g>
<g id="LWPOLYLINE_88_">
	<path class="st1" d="M833.9,854.4c-1.4-0.6-2.8-1-4.3-1h-32.5c-0.7,0-1.4,0.1-2,0.2l4.9,9.9h27.9L833.9,854.4z"/>
</g>
<g id="LWPOLYLINE_89_">
	<path class="st1" d="M860.4,865.6c-0.2-1.1-0.8-2-1.6-2.6c-1.5-0.9-3.4-0.9-4.9,0c-0.5,0.5-1,1-1.3,1.6c-0.3,1.6-0.4,3.3-0.2,5
		c0.3,2.2,2.4,3.8,4.7,3.5c1.7-0.2,3.1-1.5,3.4-3.2C860.6,868.4,860.6,867,860.4,865.6z"/>
</g>
<g id="LWPOLYLINE_91_">
	<polygon class="st4" points="787.5,782.2 786.4,784.8 785.7,787.7 785.4,790.8 785.5,791.6 786.1,794.5 787.5,796.9 787.8,797.1 
		790.1,798.6 793.1,799.1 794.9,798.9 797.6,797.9 799.7,796.1 799.2,798.7 803.1,798.7 808.6,767.3 804.8,767.3 802.7,778.7 
		802.7,778.6 800.6,776.7 797.9,776.1 796.3,776.1 793.5,776.8 791.1,778.1 788.9,780.2 	"/>
</g>
<g id="LWPOLYLINE_92_">
	<polygon class="st4" points="781.9,772.4 782.7,770.4 781.9,768.5 779.9,767.7 778,768.5 777.2,770.4 778,772.4 779.9,773.2 	"/>
</g>
<g id="LWPOLYLINE_93_">
	<polygon class="st4" points="777.6,798.7 781.5,776.5 774.7,776.5 774,779.8 776.9,779.8 773.5,798.7 	"/>
</g>
<g id="LWPOLYLINE_94_">
	<polygon class="st4" points="789.9,787.5 790.7,784.7 792.1,782.3 793,781.4 795.4,779.9 798.2,779.4 800,779.9 801.4,781.4 
		802,782.6 801,788.1 801,788.4 800.1,791.4 798.6,793.7 797.1,795 794.5,795.8 793.9,795.8 791.5,795 790.2,793 789.7,790 	"/>
</g>
<g id="LWPOLYLINE_95_">
	<polygon class="st1" points="814.3,798.7 818.2,776.5 811.4,776.5 810.7,779.8 813.7,779.8 810.3,798.7 	"/>
</g>
<g id="LWPOLYLINE_96_">
	<polygon class="st1" points="818.6,772.4 819.4,770.4 818.6,768.5 816.7,767.7 814.7,768.5 813.9,770.4 814.7,772.4 816.7,773.2 	
		"/>
</g>
<g id="LWPOLYLINE_97_">
	<polygon class="st1" points="828.7,790.6 831.1,779.6 837.2,779.6 837.9,776.4 831.8,776.4 833.2,770 828.7,771.8 827.8,776.4 
		825.3,776.4 824.6,779.6 827.1,779.6 824.5,792.2 824.3,793.6 824.4,795.2 825.7,797.6 826.5,798.3 829.3,799.1 832.4,798.9 
		834.8,798.5 835,795 834.5,795.2 831.7,795.8 829.3,795 828.5,792.6 	"/>
</g>
<g id="HATCH_46_">
	<path class="st1" d="M639.2,680.6l9.4,16.3c4.5-2.9,7.4-7.7,7.8-13.1l4.1-46.8l-6.8-6.3h-0.6l-10.4,8.4L639.2,680.6L639.2,680.6z"
		/>
</g>
<g id="LWPOLYLINE_98_">
	<path class="st1" d="M639.2,680.6l9.4,16.3c4.5-2.9,7.4-7.7,7.8-13.1l4.1-46.8l-6.8-6.3h-0.6l-10.4,8.4
		C642.8,639.1,639.2,680.6,639.2,680.6z"/>
</g>
<g id="HATCH_47_">
	<path class="st1" d="M456,567c0.1-0.6,0.1-1.2,0.3-1.8c0.5-5.1,3.3-9.7,7.6-12.6l9.3,18.9l-3.5,39.8l-10.9,8.5h-0.6l-6.2-6.1
		L456,567L456,567z"/>
</g>
<g id="LWPOLYLINE_99_">
	<path class="st1" d="M456,567c0.1-0.6,0.1-1.2,0.3-1.8c0.5-5.1,3.3-9.7,7.6-12.6l9.3,18.9l-3.5,39.8l-10.9,8.5h-0.6l-6.2-6.1
		L456,567z"/>
</g>
<g id="HATCH_48_">
	<path class="st1" d="M576.2,567c0.1-0.6,0.1-1.2,0.3-1.8c0.5-5.1,3.3-9.7,7.6-12.6l9.3,18.9l-3.5,39.8l-10.9,8.5h-0.6l-6.2-6.1
		L576.2,567L576.2,567z"/>
</g>
<g id="LWPOLYLINE_100_">
	<path class="st1" d="M576.2,567c0.1-0.6,0.1-1.2,0.3-1.8c0.5-5.1,3.3-9.7,7.6-12.6l9.3,18.9l-3.5,39.8l-10.9,8.5h-0.6l-6.2-6.1
		L576.2,567z"/>
</g>
<g id="HATCH_49_">
	<path class="st1" d="M519,680.6l9.4,16.3c4.5-2.9,7.4-7.7,7.8-13.1l4.1-46.8l-6.8-6.3h-0.6l-10.4,8.4L519,680.6L519,680.6z"/>
</g>
<g id="LWPOLYLINE_101_">
	<path class="st1" d="M519,680.6l9.4,16.3c4.5-2.9,7.4-7.7,7.8-13.1l4.1-46.8l-6.8-6.3h-0.6l-10.4,8.4L519,680.6z"/>
</g>
<g id="HATCH_50_">
	<path class="st1" d="M464.1,674.5l-12.9,22.2c-3.8-2.9-5.9-7.6-5.5-12.3l4.3-49l7.5-5.9h0.6l9.1,9L464.1,674.5L464.1,674.5z"/>
</g>
<g id="LWPOLYLINE_102_">
	<path class="st1" d="M464.1,674.5l-12.9,22.2c-3.8-2.9-5.9-7.6-5.5-12.3l4.3-49l7.5-5.9h0.6l9.1,9L464.1,674.5z"/>
</g>
<g id="HATCH_51_">
	<path class="st1" d="M457.5,699.6c1.7,0.5,3.4,0.7,5.1,0.7H516c2,0.2,4.1,0,6.1-0.5l-9.8-17.1h-44.8L457.5,699.6L457.5,699.6z"/>
</g>
<g id="LWPOLYLINE_103_">
	<path class="st1" d="M457.5,699.6c1.7,0.5,3.4,0.7,5.1,0.7H516c2,0.2,4.1,0,6.1-0.5l-9.8-17.1h-44.8L457.5,699.6z"/>
</g>
<g id="HATCH_52_">
	<polygon class="st1" points="518.4,616.5 528.2,625.7 518,633.9 472.6,633.9 463.4,625 474.3,616.5 	"/>
</g>
<g id="LWPOLYLINE_104_">
	<polygon class="st1" points="518.4,616.5 528.2,625.7 518,633.9 472.6,633.9 463.4,625 474.3,616.5 	"/>
</g>
<g id="HATCH_53_">
	<path class="st1" d="M584.3,674.5l-12.9,22.2c-3.8-2.9-5.9-7.6-5.5-12.3l4.3-49l7.5-5.9h0.6l9.1,9L584.3,674.5L584.3,674.5z"/>
</g>
<g id="LWPOLYLINE_105_">
	<path class="st1" d="M584.3,674.5l-12.9,22.2c-3.8-2.9-5.9-7.6-5.5-12.3l4.3-49l7.5-5.9h0.6l9.1,9
		C587.5,638.5,584.3,674.5,584.3,674.5z"/>
</g>
<g id="HATCH_54_">
	<path class="st1" d="M577.7,699.6c1.7,0.5,3.4,0.7,5.1,0.7h53.4c2,0.2,4.1,0,6.1-0.5l-9.8-17.1h-44.8L577.7,699.6L577.7,699.6z"/>
</g>
<g id="LWPOLYLINE_106_">
	<path class="st1" d="M577.7,699.6c1.7,0.5,3.4,0.7,5.1,0.7h53.4c2,0.2,4.1,0,6.1-0.5l-9.8-17.1h-44.8L577.7,699.6z"/>
</g>
<g id="HATCH_55_">
	<polygon class="st1" points="638.6,616.5 648.4,625.7 638.2,633.9 592.8,633.9 583.6,625 594.5,616.5 	"/>
</g>
<g id="LWPOLYLINE_107_">
	<polygon class="st1" points="638.6,616.5 648.4,625.7 638.2,633.9 592.8,633.9 583.6,625 594.5,616.5 	"/>
</g>
<g id="HATCH_56_">
	<path class="st1" d="M476,551.2c-1.6-0.1-3.3-0.1-4.9,0.3l8.3,17h45l11-16.3c-1.9-0.7-4-1-6-1H476L476,551.2z"/>
</g>
<g id="LWPOLYLINE_108_">
	<path class="st1" d="M476,551.2c-1.6-0.1-3.3-0.1-4.9,0.3l8.3,17h45l11-16.3c-1.9-0.7-4-1-6-1H476z"/>
</g>
<g id="HATCH_57_">
	<path class="st1" d="M596.2,551.2c-1.6-0.1-3.3-0.1-4.9,0.3l8.3,17h45l11-16.3c-1.9-0.7-4-1-6-1H596.2L596.2,551.2z"/>
</g>
<g id="LWPOLYLINE_109_">
	<path class="st1" d="M596.2,551.2c-1.6-0.1-3.3-0.1-4.9,0.3l8.3,17h45l11-16.3c-1.9-0.7-4-1-6-1H596.2z"/>
</g>
<g id="HATCH_58_">
	<path class="st1" d="M696.4,567c0.1-0.6,0.1-1.2,0.3-1.8c0.5-5.1,3.3-9.7,7.6-12.6l9.3,18.9l-3.5,39.8l-10.9,8.5h-0.6l-6.2-6.1
		L696.4,567L696.4,567z"/>
</g>
<g id="LWPOLYLINE_110_">
	<path class="st1" d="M696.4,567c0.1-0.6,0.1-1.2,0.3-1.8c0.5-5.1,3.3-9.7,7.6-12.6l9.3,18.9l-3.5,39.8l-10.9,8.5h-0.6l-6.2-6.1
		C692.3,613.7,696.4,567,696.4,567z"/>
</g>
<g id="HATCH_59_">
	<path class="st1" d="M786.5,571.8c0.5-5.5-1.6-10.9-5.7-14.5l-12.1,17.9l-3.3,37.9l8.4,7.9h0.6l8.4-6.8L786.5,571.8L786.5,571.8z"
		/>
</g>
<g id="LWPOLYLINE_111_">
	<path class="st1" d="M786.5,571.8c0.5-5.5-1.6-10.9-5.7-14.5l-12.1,17.9l-3.3,37.9l8.4,7.9h0.6l8.4-6.8L786.5,571.8z"/>
</g>
<g id="HATCH_60_">
	<path class="st1" d="M759.4,680.6l9.4,16.3c4.5-2.9,7.4-7.7,7.8-13.1l4.1-46.8l-6.8-6.3h-0.6l-10.4,8.4L759.4,680.6L759.4,680.6z"
		/>
</g>
<g id="LWPOLYLINE_112_">
	<path class="st1" d="M759.4,680.6l9.4,16.3c4.5-2.9,7.4-7.7,7.8-13.1l4.1-46.8l-6.8-6.3h-0.6l-10.4,8.4L759.4,680.6z"/>
</g>
<g id="HATCH_61_">
	<polygon class="st1" points="758.7,616.5 768.6,625.7 758.4,633.9 712.9,633.9 703.8,625 714.7,616.5 	"/>
</g>
<g id="LWPOLYLINE_113_">
	<polygon class="st1" points="758.7,616.5 768.6,625.7 758.4,633.9 712.9,633.9 703.8,625 714.7,616.5 	"/>
</g>
<g id="HATCH_62_">
	<path class="st1" d="M704.5,674.5l-12.9,22.2c-3.8-2.9-5.9-7.6-5.5-12.3l4.3-49l7.5-5.9h0.6l9.1,9L704.5,674.5L704.5,674.5z"/>
</g>
<g id="LWPOLYLINE_114_">
	<path class="st1" d="M704.5,674.5l-12.9,22.2c-3.8-2.9-5.9-7.6-5.5-12.3l4.3-49l7.5-5.9h0.6l9.1,9L704.5,674.5z"/>
</g>
<g id="HATCH_63_">
	<path class="st1" d="M697.9,699.6c1.7,0.5,3.4,0.7,5.1,0.7h53.4c2,0.2,4.1,0,6.1-0.5l-9.8-17.1h-44.9L697.9,699.6L697.9,699.6z"/>
</g>
<g id="LWPOLYLINE_115_">
	<path class="st1" d="M697.9,699.6c1.7,0.5,3.4,0.7,5.1,0.7h53.4c2,0.2,4.1,0,6.1-0.5l-9.8-17.1h-44.8L697.9,699.6z"/>
</g>
<g id="HATCH_64_">
	<path class="st1" d="M823.3,624l0.1-0.8l0.6-3l0.4-1.1l1.4-2.5l0.1-0.3l2.1-2l2.6-0.7l0.8,0.1l2.5,1.4l0.8,1.2l0.5,3.1l-0.1,1.7
		l-0.6,2.9l-1.2,2.7l-0.6,1l-2,1.9l-2.5,0.6l-2.7-0.8l-1.7-2.1l-0.1-0.3L823.3,624L823.3,624z M858.5,611.4l-2.9-0.7l-0.7,0.1
		l-2.8,0.8l-1.4,0.9l-2.3,2.3l0.8-3.6h-3.7l-4.5,21.6h3.6l2.1-10.2l0.7-2.7l1.1-2.4l0.6-0.9l2.2-1.9l0.5-0.3l2.8-0.7l1.7,0.6
		l0.6,1.7l-0.3,2.1l-3.1,14.6h3.7l2.2-10.5l0.6-2.7l1-2.3l0.5-0.7l2.1-1.9l0.6-0.3l2.7-0.6l1.9,0.6l0.7,1.7l-0.4,2.5l-3,14.3h3.7
		l2.9-14l0.1-0.5l0.4-2.7l-0.1-1.2l-1.2-2.4l-1.1-0.7l-3-0.6l-1,0.1l-2.8,1l-1.3,0.8l-1.9,2.2l-0.2-0.7l-1.6-2.3L858.5,611.4
		L858.5,611.4z M805.6,633.3l2.8-0.7l1-0.6l2.3-1.9l1.4-1.7l1.4-2.8l0.1-0.4l0.7-2.7l0.3-3.1l-0.1-1.3l-0.6-2.9l-1.4-2.2v-0.1
		l-2.3-1.6l-2.9-0.6H808l-2.8,0.8l-1,0.6l-2.4,2.1l0.6-3H799l-6.3,29.9h3.7l2.5-11.7l1.2,1.8l2.1,1.6l2.7,0.6
		C805,633.4,805.6,633.3,805.6,633.3L805.6,633.3z M800.2,624v-0.8l0.6-3l0.4-1.1l1.3-2.5l0.2-0.3l2.1-2l2.6-0.7l0.8,0.1l2.4,1.4
		l0.8,1.2l0.5,3.1l-0.1,1.7l-0.6,2.9l-1.2,2.7l-0.6,1l-2.1,1.9l-2.5,0.6l-2.7-0.8l-1.7-2.1l-0.1-0.3L800.2,624L800.2,624z
		 M828.8,633.3l2.9-0.7l1-0.6l2.3-1.9l1.3-1.7l1.4-2.8l0.1-0.4l0.7-2.7l0.3-3.1l-0.1-1.3l-0.6-2.9l-1.3-2.2l-0.1-0.1l-2.3-1.6
		l-2.8-0.6h-0.4l-2.8,0.8l-1,0.6l-2.3,2.1l0.6-3h-3.4l-6.2,29.9h3.6l2.5-11.7l1.2,1.8l2.1,1.6l2.7,0.6L828.8,633.3L828.8,633.3z"/>
</g>
<g id="LWPOLYLINE_116_">
	<polygon class="st1" points="828.8,633.3 831.6,632.6 832.6,632 834.9,630 836.2,628.4 837.7,625.6 837.8,625.2 838.5,622.5 
		838.8,619.4 838.7,618.1 838.1,615.2 836.8,613 836.7,612.9 834.4,611.3 831.6,610.7 831.2,610.7 828.5,611.5 827.4,612.1 
		825.1,614.2 825.7,611.2 822.3,611.2 816.1,641.1 819.7,641.1 822.2,629.4 823.4,631.1 825.5,632.8 828.2,633.4 	"/>
</g>
<g id="LWPOLYLINE_117_">
	<polygon points="800.2,624 800.2,623.2 800.8,620.2 801.2,619.1 802.5,616.7 802.7,616.4 804.8,614.4 807.4,613.7 808.2,613.8 
		810.6,615.2 811.4,616.4 811.9,619.5 811.8,621.2 811.2,624 810,626.7 809.4,627.7 807.3,629.7 804.8,630.3 802.2,629.5 
		800.5,627.4 800.4,627.1 	"/>
</g>
<g id="LWPOLYLINE_119_">
	<polygon class="st1" points="858.5,611.4 855.7,610.7 854.9,610.8 852.1,611.6 850.8,612.5 848.4,614.8 849.2,611.2 845.5,611.2 
		841,632.8 844.7,632.8 846.8,622.6 847.5,619.9 848.6,617.5 849.2,616.6 851.4,614.7 852,614.5 854.7,613.8 856.4,614.4 
		857.1,616.1 856.8,618.2 853.7,632.8 857.4,632.8 859.6,622.4 860.3,619.7 861.3,617.4 861.8,616.7 863.9,614.7 864.5,614.4 
		867.3,613.8 869.2,614.3 869.9,616 869.5,618.6 866.5,632.8 870.2,632.8 873.1,618.9 873.2,618.4 873.6,615.6 873.4,614.4 
		872.2,612 871.1,611.3 868.1,610.7 867.1,610.8 864.3,611.7 863,612.6 860.8,614.8 860.6,614.1 859,611.8 	"/>
</g>
<g id="LWPOLYLINE_120_">
	<polygon points="823.3,624 823.4,623.2 824,620.2 824.4,619.1 825.7,616.7 825.9,616.4 827.9,614.4 830.5,613.7 831.4,613.8 
		833.8,615.2 834.6,616.4 835.1,619.5 835,621.2 834.4,624 833.2,626.7 832.5,627.7 830.5,629.7 828,630.3 825.3,629.5 823.6,627.4 
		823.6,627.1 	"/>
</g>
<g id="HATCH_65_">
	<path class="st1" d="M716.4,551.2c-1.6-0.1-3.3-0.1-4.9,0.3l8.3,17h45l11-16.3c-1.9-0.7-4-1-6-1H716.4L716.4,551.2z"/>
</g>
<g id="LWPOLYLINE_121_">
	<path class="st1" d="M716.4,551.2c-1.6-0.1-3.3-0.1-4.9,0.3l8.3,17h45l11-16.3c-1.9-0.7-4-1-6-1
		C769.8,551.2,716.4,551.2,716.4,551.2z"/>
</g>
<g id="HATCH_66_">
	<path class="st1" d="M636.5,292.6c-0.7-0.1-1.4,0-2,0.1l3.4,7h18.5l4.5-6.7c-0.8-0.3-1.6-0.4-2.5-0.4H636.5L636.5,292.6z"/>
</g>
<g id="LWPOLYLINE_122_">
	<path class="st1" d="M636.5,292.6c-0.7-0.1-1.4,0-2,0.1l3.4,7h18.5l4.5-6.7c-0.8-0.3-1.6-0.4-2.5-0.4
		C658.5,292.6,636.5,292.6,636.5,292.6z"/>
</g>
<g id="HATCH_67_">
	<path class="st1" d="M665.4,301c0.2-2.3-0.7-4.5-2.4-6l-5,7.4l-1.4,15.6l3.5,3.3h0.2l3.5-2.8L665.4,301L665.4,301z"/>
</g>
<g id="LWPOLYLINE_123_">
	<path class="st1" d="M665.4,301c0.2-2.3-0.7-4.5-2.4-6l-5,7.4l-1.4,15.6l3.5,3.3h0.2l3.5-2.8L665.4,301z"/>
</g>
<g id="HATCH_68_">
	<path class="st1" d="M654.2,345.8l3.9,6.7c1.8-1.2,3-3.2,3.2-5.4l1.7-19.3l-2.8-2.6H660l-4.3,3.5L654.2,345.8L654.2,345.8z"/>
</g>
<g id="LWPOLYLINE_124_">
	<path class="st1" d="M654.2,345.8l3.9,6.7c1.8-1.2,3-3.2,3.2-5.4l1.7-19.3l-2.8-2.6H660l-4.3,3.5
		C655.7,328.8,654.2,345.8,654.2,345.8z"/>
</g>
<g id="HATCH_69_">
	<path class="st1" d="M548,301c0.2-2.3-0.7-4.5-2.4-6l-5,7.4l-1.4,15.6l3.5,3.3h0.2l3.5-2.8L548,301L548,301z"/>
</g>
<g id="LWPOLYLINE_125_">
	<path class="st1" d="M548,301c0.2-2.3-0.7-4.5-2.4-6l-5,7.4l-1.4,15.6l3.5,3.3h0.2l3.5-2.8C546.5,318.5,548,301,548,301z"/>
</g>
<g id="HATCH_70_">
	<polygon class="st1" points="536.6,319.4 540.6,323.2 536.4,326.6 517.7,326.6 514,322.9 518.5,319.4 	"/>
</g>
<g id="LWPOLYLINE_126_">
	<polygon class="st1" points="536.6,319.4 540.6,323.2 536.4,326.6 517.7,326.6 514,322.9 518.5,319.4 	"/>
</g>
<g id="HATCH_71_">
	<path class="st1" d="M519.2,292.6c-0.7-0.1-1.4,0-2,0.1l3.4,7h18.5l4.5-6.7c-0.8-0.3-1.6-0.4-2.5-0.4
		C541.1,292.6,519.2,292.6,519.2,292.6L519.2,292.6z"/>
</g>
<g id="LWPOLYLINE_127_">
	<path class="st1" d="M519.2,292.6c-0.7-0.1-1.4,0-2,0.1l3.4,7h18.5l4.5-6.7c-0.8-0.3-1.6-0.4-2.5-0.4
		C541.1,292.6,519.2,292.6,519.2,292.6z"/>
</g>
<g id="HATCH_72_">
	<path class="st1" d="M511.5,353.7c0.7,0.2,1.4,0.3,2.1,0.3h22c0.8,0.1,1.7,0,2.5-0.2l-4.1-7h-18.5
		C515.6,346.7,511.5,353.7,511.5,353.7L511.5,353.7z"/>
</g>
<g id="LWPOLYLINE_128_">
	<path class="st1" d="M511.5,353.7c0.7,0.2,1.4,0.3,2.1,0.3h22c0.8,0.1,1.7,0,2.5-0.2l-4.1-7h-18.5L511.5,353.7z"/>
</g>
<g id="HATCH_73_">
	<path class="st1" d="M514.3,343.3l-5.3,9.1c-1.6-1.2-2.4-3.1-2.3-5.1l1.8-20.2l3.1-2.4h0.2l3.8,3.7L514.3,343.3L514.3,343.3z"/>
</g>
<g id="LWPOLYLINE_129_">
	<path class="st1" d="M514.3,343.3l-5.3,9.1c-1.6-1.2-2.4-3.1-2.3-5.1l1.8-20.2l3.1-2.4h0.2l3.8,3.7
		C515.6,328.5,514.3,343.3,514.3,343.3z"/>
</g>
<g id="HATCH_74_">
	<path class="st1" d="M597.5,301c0.2-2.3-0.7-4.5-2.4-6l-5,7.4l-1.4,15.6l3.5,3.3h0.2l3.5-2.8L597.5,301L597.5,301z"/>
</g>
<g id="LWPOLYLINE_130_">
	<path class="st1" d="M597.5,301c0.2-2.3-0.7-4.5-2.4-6l-5,7.4l-1.4,15.6l3.5,3.3h0.2l3.5-2.8L597.5,301z"/>
</g>
<g id="HATCH_75_">
	<path class="st1" d="M560.4,299.1c0-0.3,0.1-0.5,0.1-0.8c0.2-2.1,1.4-4,3.1-5.2l3.8,7.8l-1.4,16.4l-4.5,3.5h-0.2l-2.6-2.5
		L560.4,299.1L560.4,299.1z"/>
</g>
<g id="LWPOLYLINE_131_">
	<path class="st1" d="M560.4,299.1c0-0.3,0.1-0.5,0.1-0.8c0.2-2.1,1.4-4,3.1-5.2l3.8,7.8l-1.4,16.4l-4.5,3.5h-0.2l-2.6-2.5
		L560.4,299.1z"/>
</g>
<g id="HATCH_76_">
	<path class="st1" d="M561,353.7c0.7,0.2,1.4,0.3,2.1,0.3h22c0.8,0.1,1.7,0,2.5-0.2l-4.1-7H565L561,353.7L561,353.7z"/>
</g>
<g id="LWPOLYLINE_132_">
	<path class="st1" d="M561,353.7c0.7,0.2,1.4,0.3,2.1,0.3h22c0.8,0.1,1.7,0,2.5-0.2l-4.1-7H565L561,353.7z"/>
</g>
<g id="HATCH_77_">
	<path class="st1" d="M563.8,343.3l-5.3,9.1c-1.6-1.2-2.4-3.1-2.3-5.1l1.8-20.2l3.1-2.4h0.2l3.8,3.7L563.8,343.3L563.8,343.3z"/>
</g>
<g id="LWPOLYLINE_133_">
	<path class="st1" d="M563.8,343.3l-5.3,9.1c-1.6-1.2-2.4-3.1-2.3-5.1l1.8-20.2l3.1-2.4h0.2l3.8,3.7L563.8,343.3z"/>
</g>
<g id="HATCH_78_">
	<path class="st1" d="M586.4,345.8l3.9,6.7c1.8-1.2,3-3.2,3.2-5.4l1.7-19.3l-2.8-2.6h-0.2l-4.3,3.5L586.4,345.8L586.4,345.8z"/>
</g>
<g id="LWPOLYLINE_134_">
	<path class="st1" d="M586.4,345.8l3.9,6.7c1.8-1.2,3-3.2,3.2-5.4l1.7-19.3l-2.8-2.6h-0.2l-4.3,3.5L586.4,345.8z"/>
</g>
<g id="HATCH_79_">
	<path class="st1" d="M568.7,292.6c-0.7-0.1-1.4,0-2,0.1l3.4,7h18.5l4.5-6.7c-0.8-0.3-1.6-0.4-2.5-0.4H568.7L568.7,292.6z"/>
</g>
<g id="LWPOLYLINE_135_">
	<path class="st1" d="M568.7,292.6c-0.7-0.1-1.4,0-2,0.1l3.4,7h18.5l4.5-6.7c-0.8-0.3-1.6-0.4-2.5-0.4
		C590.6,292.6,568.7,292.6,568.7,292.6z"/>
</g>
<g id="HATCH_80_">
	<path class="st1" d="M628.9,353.7c0.7,0.2,1.4,0.3,2.1,0.3h22c0.8,0.1,1.7,0,2.5-0.2l-4.1-7h-18.5L628.9,353.7L628.9,353.7z"/>
</g>
<g id="LWPOLYLINE_136_">
	<path class="st1" d="M628.9,353.7c0.7,0.2,1.4,0.3,2.1,0.3h22c0.8,0.1,1.7,0,2.5-0.2l-4.1-7h-18.5L628.9,353.7z"/>
</g>
<g id="HATCH_81_">
	<path class="st1" d="M628.3,299.1c0-0.3,0.1-0.5,0.1-0.8c0.2-2.1,1.4-4,3.1-5.2l3.8,7.8l-1.4,16.4l-4.5,3.5h-0.2l-2.6-2.5
		L628.3,299.1L628.3,299.1z"/>
</g>
<g id="LWPOLYLINE_137_">
	<path class="st1" d="M628.3,299.1c0-0.3,0.1-0.5,0.1-0.8c0.2-2.1,1.4-4,3.1-5.2l3.8,7.8l-1.4,16.4l-4.5,3.5h-0.2l-2.6-2.5
		L628.3,299.1z"/>
</g>
<g id="HATCH_82_">
	<polygon class="st1" points="617,304.9 608,304.9 607,315.6 616,315.6 	"/>
</g>
<g id="LWPOLYLINE_138_">
	<polygon class="st1" points="617,304.9 608,304.9 607,315.6 616,315.6 	"/>
</g>
<g id="HATCH_83_">
	<polygon class="st1" points="604.6,342.7 613.6,342.7 614.6,332.1 605.6,332.1 	"/>
</g>
<g id="LWPOLYLINE_139_">
	<polygon class="st1" points="604.6,342.7 613.6,342.7 614.6,332.1 605.6,332.1 	"/>
</g>
<g id="HATCH_84_">
	<path class="st1" d="M631.6,343.3l-5.3,9.1c-1.6-1.2-2.4-3.1-2.3-5.1l1.8-20.2l3.1-2.4h0.2l3.8,3.7L631.6,343.3L631.6,343.3z"/>
</g>
<g id="LWPOLYLINE_140_">
	<path class="st1" d="M631.6,343.3l-5.3,9.1c-1.6-1.2-2.4-3.1-2.3-5.1l1.8-20.2l3.1-2.4h0.2l3.8,3.7
		C632.9,328.5,631.6,343.3,631.6,343.3z"/>
</g>
<g id="HATCH_85_">
	<path class="st1" d="M620.1,239.6l-0.5,1.5l-0.1,0.1l-1.3,0.9l-0.7,0.2l-1.5,0.1h-2.2h-3.7v-6.2h4.5h2l1,0.1l0.6,0.1l1.3,0.8
		l0.3,0.4l0.4,1.6L620.1,239.6L620.1,239.6z M629.7,256.6V232h5v24.6H629.7L629.7,256.6z M622.1,248.7l-0.8-0.9l-0.1-0.1l-1.2-1
		l-1.4-0.9l0.8-0.1l1.6-0.5l1.4-0.7l1.1-0.9l0.1-0.2l0.8-1.3l0.5-1.5l0.2-1.7V238l-0.4-1.6L624,235l-0.3-0.5l-1.1-1.1l-1.4-0.7
		l-0.7-0.2l-1.4-0.3l-1.7-0.2h-2H605v24.6h5v-10.3h1h1.1l1.4,0.2l0.2,0.1l1.3,0.9l0.5,0.6l0.9,1.3l1.2,1.8l3.6,5.3h5.9l-3-4.8v-0.1
		l-1.1-1.7L622.1,248.7L622.1,248.7z M589.1,242v-5.8H601v-4.1h-16.8v24.6h5v-10.4h10.2v-4.2h-10.3V242z"/>
</g>
<g id="LWPOLYLINE_141_">
	<polygon class="st1" points="589.1,242 589.1,236.1 601,236.1 601,232 584.2,232 584.2,256.6 589.1,256.6 589.1,246.1 599.4,246.1 
		599.4,242 	"/>
</g>
<g id="LWPOLYLINE_142_">
	<polygon class="st1" points="622.1,248.7 621.4,247.8 621.3,247.7 620.1,246.7 618.7,245.7 619.5,245.6 621.1,245.1 622.5,244.4 
		623.6,243.5 623.7,243.3 624.5,242 625,240.5 625.2,238.9 625.1,238 624.8,236.4 624.1,235 623.8,234.5 622.6,233.4 621.3,232.7 
		620.6,232.5 619.2,232.2 617.6,232 615.5,232 605.1,232 605.1,256.6 610.1,256.6 610.1,246.3 611.1,246.3 612.2,246.3 613.6,246.6 
		613.7,246.7 615.1,247.6 615.5,248.2 616.4,249.4 617.7,251.2 621.3,256.6 627.2,256.6 624.2,251.8 624.1,251.7 623.1,250 	"/>
</g>
<g id="LWPOLYLINE_143_">
	<rect x="629.7" y="232" class="st1" width="5" height="24.6"/>
</g>
<g id="LWPOLYLINE_144_">
	<polygon points="620.1,239.6 619.6,241 619.5,241.2 618.2,242.1 617.5,242.2 616,242.4 613.7,242.4 610.1,242.4 610.1,236.1 
		614.5,236.1 616.5,236.2 617.5,236.2 618.1,236.4 619.4,237.2 619.7,237.6 620.1,239.2 	"/>
</g>
<g id="HATCH_86_">
	<path class="st1" d="M677.8,299.1c0-0.3,0.1-0.5,0.1-0.8c0.2-2.1,1.4-4,3.1-5.2l3.8,7.8l-1.4,16.4l-4.5,3.5h-0.2l-2.6-2.5
		L677.8,299.1L677.8,299.1z"/>
</g>
<g id="LWPOLYLINE_145_">
	<path class="st1" d="M677.8,299.1c0-0.3,0.1-0.5,0.1-0.8c0.2-2.1,1.4-4,3.1-5.2l3.8,7.8l-1.4,16.4l-4.5,3.5h-0.2l-2.6-2.5
		L677.8,299.1z"/>
</g>
<g id="HATCH_87_">
	<polygon class="st1" points="703.5,319.4 707.5,323.2 703.3,326.6 684.6,326.6 680.8,322.9 685.3,319.4 	"/>
</g>
<g id="LWPOLYLINE_146_">
	<polygon class="st1" points="703.5,319.4 707.5,323.2 703.3,326.6 684.6,326.6 680.8,322.9 685.3,319.4 	"/>
</g>
<g id="HATCH_88_">
	<path class="st1" d="M678.4,353.7c0.7,0.2,1.4,0.3,2.1,0.3h22c0.8,0.1,1.7,0,2.5-0.2l-4.1-7h-18.5L678.4,353.7L678.4,353.7z"/>
</g>
<g id="LWPOLYLINE_147_">
	<path class="st1" d="M678.4,353.7c0.7,0.2,1.4,0.3,2.1,0.3h22c0.8,0.1,1.7,0,2.5-0.2l-4.1-7h-18.5L678.4,353.7z"/>
</g>
<g id="HATCH_89_">
	<path class="st1" d="M703.7,345.8l3.9,6.7c1.8-1.2,3-3.2,3.2-5.4l1.7-19.3l-2.8-2.6h-0.2l-4.3,3.5L703.7,345.8L703.7,345.8z"/>
</g>
<g id="LWPOLYLINE_148_">
	<path class="st1" d="M703.7,345.8l3.9,6.7c1.8-1.2,3-3.2,3.2-5.4l1.7-19.3l-2.8-2.6h-0.2l-4.3,3.5L703.7,345.8z"/>
</g>
<g id="HATCH_90_">
	<path class="st1" d="M686,292.6c-0.7-0.1-1.4,0-2,0.1l3.4,7h18.5l4.5-6.7c-0.8-0.3-1.6-0.4-2.5-0.4C708,292.6,686,292.6,686,292.6
		L686,292.6z"/>
</g>
<g id="LWPOLYLINE_149_">
	<path class="st1" d="M686,292.6c-0.7-0.1-1.4,0-2,0.1l3.4,7h18.5l4.5-6.7c-0.8-0.3-1.6-0.4-2.5-0.4C708,292.6,686,292.6,686,292.6z
		"/>
</g>
<g id="HATCH_91_">
	<path class="st1" d="M840.5,506.2v4.2h72.3c4.4,0,8-3.6,8-8V490h-4v11.2c0,2.8-2.2,5-5,5L840.5,506.2L840.5,506.2z"/>
</g>
<g id="LWPOLYLINE_150_">
	<path class="st1" d="M840.5,506.2v4.2h72.3c4.4,0,8-3.6,8-8V490h-4v11.2c0,2.8-2.2,5-5,5L840.5,506.2L840.5,506.2z"/>
</g>
<g id="HATCH_92_">
	<path class="st1" d="M877.4,466.7l-1.2-0.3l-0.9-0.7l-0.7-1l-0.4-1.3l-0.1-1.6v-0.7l0.2-1.4l0.4-1.4l0.6-1.3l0.8-1.3l0.1-0.1l1-1.2
		l1.1-0.8l1.2-0.5l1.3-0.1h0.1l1.6,0.2l1.2,0.6l0.7-2.4l-0.4-0.2l-1.4-0.3l-1.6-0.1h-0.8l-1.4,0.2l-1.3,0.4l-1.2,0.7l-1.1,0.9
		l-1,1.1l-0.1,0.1l-0.8,1.1l-0.6,1.2l-0.5,1.3l-0.4,1.4l-0.2,1.5v1.6v1.1l0.3,1.5l0.5,1.3l0.8,1.1l0.4,0.4l1.1,0.7l1.4,0.4l1.6,0.1
		h0.7l1.6-0.2l1.3-0.4l1-0.7l0.2-2.6l-0.2,0.2l-1.3,0.9l-1.3,0.5l-1.3,0.2L877.4,466.7L877.4,466.7z M844.1,468.9h1.2l9.6-18h-2.8
		l-6.6,12.9l-2.3-12.9h-2.7L844.1,468.9L844.1,468.9z M861.1,468.9l1.5-0.2l1.3-0.4l1.2-0.7l1.1-0.9l1-1.1l0.1-0.2l0.7-1.2l0.6-1.2
		l0.5-1.3l0.3-1.4l0.2-1.5v-1.6v-1l-0.3-1.5l-0.5-1.3l-0.8-1l-0.5-0.5l-1.2-0.7l-1.4-0.4l-1.6-0.1h-0.5l-1.4,0.2l-1.3,0.4l-1.2,0.7
		l-1.1,0.9l-1,1.1l-0.7,1.1l-0.6,1.3l-0.5,1.3l-0.3,1.4l-0.2,1.5l-0.1,1.5v1l0.3,1.5l0.5,1.3l0.7,1.1l0.3,0.3l1.1,0.9l1.3,0.5
		l1.5,0.2L861.1,468.9L861.1,468.9z M867,455.8l0.1,1.6v1.2l-0.2,1.5l-0.3,1.4l-0.5,1.3l-0.7,1.2l-0.1,0.1l-1,1.2l-1.1,0.8l-1.3,0.5
		l-1.4,0.1h-0.2l-1.4-0.4l-1-1l-0.4-0.7l-0.4-1.3l-0.1-1.6v-0.5l0.1-1.4l0.3-1.4l0.5-1.4l0.7-1.4l0.9-1.3l1.1-0.9l1.2-0.6l1.3-0.2
		h0.3l1.3,0.2l1,0.6l0.7,0.9L867,455.8L867,455.8z"/>
</g>
<g id="LWPOLYLINE_151_">
	<polygon points="867,455.8 867.1,457.3 867.1,458.6 866.9,460 866.5,461.5 866,462.8 865.3,464 865.3,464.1 864.3,465.3 
		863.2,466.1 861.9,466.6 860.5,466.8 860.3,466.8 858.9,466.4 857.9,465.4 857.5,464.8 857.2,463.4 857,461.8 857,461.3 
		857.2,459.9 857.5,458.5 858,457.1 858.7,455.7 859.6,454.5 860.7,453.5 861.9,453 863.2,452.8 863.4,452.8 864.8,453 865.8,453.6 
		866.5,454.5 	"/>
</g>
<g id="LWPOLYLINE_153_">
	<polygon class="st1" points="844.1,468.9 845.3,468.9 854.9,450.9 852.1,450.9 845.5,463.9 843.3,450.9 840.6,450.9 	"/>
</g>
<g id="HATCH_93_">
	<polygon class="st1" points="840.5,500.9 840.5,489.3 854.5,484.8 854.5,500.9 	"/>
</g>
<g id="LWPOLYLINE_154_">
	<polygon class="st1" points="840.5,500.9 840.5,489.3 854.5,484.8 854.5,500.9 	"/>
</g>
<g id="HATCH_94_">
	<polygon class="st1" points="910.5,500.9 896.5,500.9 896.5,471.2 910.5,466.7 	"/>
</g>
<g id="LWPOLYLINE_155_">
	<polygon class="st1" points="910.5,500.9 896.5,500.9 896.5,471.2 910.5,466.7 	"/>
</g>
<g id="HATCH_95_">
	<polygon class="st1" points="868.5,480.3 882.5,475.7 882.5,500.9 868.5,500.9 	"/>
</g>
<g id="LWPOLYLINE_157_">
	<polygon class="st1" points="868.5,480.3 882.5,475.7 882.5,500.9 868.5,500.9 	"/>
</g>
<g id="layer_1">
	<g id="SPLINE_12_">
		<path d="M318.1,1422.3v24.4c0,2.3-0.8,3.1-3.1,3.1h-16.1c0,0-1.8-0.1-3.5,1.4c-2.3,2.1-9.7,8.7-9.7,8.7s-5,4.3,0.8,4.3h44.9
			c4,0,5.3-1.2,5.3-4.9v-48.6c0-4.2-1.4-5.7-5.8-5.7H313l0,0l0,0c-2.9,0-6.8,0.7-9.4,2.7c-1.8,1.4-28,24.8-28,24.8s-1.3,1.3-2.1,1.3
			c-0.1,0-0.2,0-0.3,0c-0.7-0.2-1.8-1.3-1.8-1.3s-26.4-23.5-28.2-24.9c-2.6-2-6.3-2.5-9.2-2.5l0,0h-17.9c-4.4,0-5.8,1.4-5.8,5.7
			v30.9v5.5v12.2c0,3.5,1.1,4.8,4.6,4.9l0,0h0.6c0,0,0,0,0.1,0h8.2h3.7c0,0,1.8,0.1,3.5-1.4c2.3-2.1,9.7-8.7,9.7-8.7s5-4.3-0.8-4.3
			h-8c-2.1,0-3-0.8-3-2.8c0-0.1,0-0.2,0-0.3v-5.2v-19.3c0-1.1,0-3.4,2.7-1.2l26.7,23.9c0.6,0.5,1.1,1,1.7,1.5l-17.2,15.3
			c0,0-3,2.4,1.1,2.4H261l0,0l0,0c1.8,0,5,0,9.2-2.9c1.9-1.3,45.3-40.2,45.3-40.2C318.1,1418.9,318.1,1421.2,318.1,1422.3z"/>
	</g>
	<g id="SPLINE_13_">
		<path d="M334.9,1482.9h-31.3c-2.3,0-3.4,1.2-3.4,3.4v19.8c0,2.3,1.2,3.4,3.4,3.4h31.3c2.3,0,3.4-1.2,3.4-3.4v-19.8
			C338.3,1484.1,337.1,1482.9,334.9,1482.9z"/>
	</g>
	<g id="SPLINE_14_">
		<path class="st1" d="M329,1501.4c0,1.1-0.2,1.3-1.3,1.3h-17c-1.1,0-1.3-0.2-1.3-1.3v-10.2c0-1.1,0.2-1.3,1.3-1.3h17
			c1.1,0,1.3,0.2,1.3,1.3C329,1491.1,329,1501.4,329,1501.4z"/>
	</g>
	<g id="SPLINE_15_">
		<path d="M243.3,1482.9H212c-2.3,0-3.4,1.2-3.4,3.4v19.8c0,2.3,1.2,3.4,3.4,3.4h31.3c2.3,0,3.4-1.2,3.4-3.4v-19.8
			C246.7,1484.1,245.5,1482.9,243.3,1482.9z"/>
	</g>
	<g id="SPLINE_16_">
		<path class="st1" d="M237.4,1501.4c0,1.1-0.2,1.3-1.3,1.3h-17c-1.1,0-1.3-0.2-1.3-1.3v-10.2c0-1.1,0.2-1.3,1.3-1.3h17
			c1.1,0,1.3,0.2,1.3,1.3C237.4,1491.1,237.4,1501.4,237.4,1501.4z"/>
	</g>
	<g id="SPLINE_17_">
		<path d="M292.5,1482.9h-3.9c-1.8,0-2.6,0.8-2.6,2.6v11.7h-19.9v-11.7c0-1.8-0.8-2.6-2.6-2.6h-3.9c-1.8,0-2.6,0.8-2.6,2.6v21.4
			c0,1.8,0.8,2.6,2.6,2.6h3.9c1.8,0,2.6-0.8,2.6-2.6v-2.9H286v2.9c0,1.8,0.8,2.6,2.6,2.6h3.9c1.8,0,2.6-0.8,2.6-2.6v-21.4
			C295.1,1483.7,294.3,1482.9,292.5,1482.9z"/>
	</g>
	<g id="SPLINE_18_">
		<path d="M398.1,1489.7h24.4c1.4,0,1.8-0.4,1.8-1.8v-3.2c0-1.4-0.4-1.8-1.8-1.8h-12.4H393h-2.8c-2.3,0-3.4,1.2-3.4,3.4v19.8
			c0,2.3,1.2,3.4,3.4,3.4h2.8h17.1h12.4c1.4,0,1.8-0.4,1.8-1.8v-3.2c0-1.4-0.4-1.8-1.8-1.8h-24.4c-1.1,0-2-0.4-2-1.5v-1.6h26.4
			c1.4,0,1.8-0.4,1.8-1.8v-3.2c0-1.4-0.4-1.8-1.8-1.8h-26.4v-1.8C396.1,1490,397,1489.7,398.1,1489.7z"/>
	</g>
	<g id="SPLINE_19_">
		<path d="M176.2,1499.7v1.6c0,1.1,0.9,1.5,2,1.5h24.4c1.4,0,1.8,0.4,1.8,1.8v3.2c0,1.4-0.4,1.8-1.8,1.8h-12.4h-17.1h-2.8
			c-2.3,0-3.4-1.2-3.4-3.4v-19.8c0-2.3,1.2-3.4,3.4-3.4h2.8h17.1h12.4c1.4,0,1.8,0.4,1.8,1.8v3.2c0,1.4-0.4,1.8-1.8,1.8h-24.4
			c-1.1,0-2,0.4-2,1.5v1.8V1499.7z"/>
	</g>
	<g id="SPLINE_20_">
		<path d="M159.8,1482.7h-5.1c-1.5,0-2.7,0-4.7,1.8c-0.8,0.7-5.6,5.1-5.6,5.1s-0.5,0.5-1.1,0.5s-1.1-0.5-1.1-0.5s-4.8-4.4-5.6-5.1
			c-2.1-1.8-3.3-1.8-4.7-1.8h-5.1c-1.8,0-2.7,0.9-2.7,2.8v21.8c0,1.8,0.9,2.3,2.7,2.3h4.1c1.8,0,2.3-0.8,2.3-2.6v-13.7
			c0,0,7.2,6.5,8.2,7.3c0.8,0.7,1.4,0.7,1.8,0.7l0,0l0,0c0.4,0,1-0.1,1.8-0.7c1-0.8,8.2-7.3,8.2-7.3v13.7c0,1.8,0.5,2.6,2.3,2.6h4.2
			c1.8,0,2.7-0.5,2.7-2.3v-21.8C162.5,1483.6,161.6,1482.7,159.8,1482.7z"/>
	</g>
	<g id="SPLINE_21_">
		<path d="M379.1,1482.7H374c-1.5,0-2.7,0-4.7,1.8c-0.8,0.7-5.6,5.1-5.6,5.1s-0.5,0.5-1.1,0.5s-1.1-0.5-1.1-0.5s-4.8-4.4-5.6-5.1
			c-2.1-1.8-3.3-1.8-4.7-1.8h-5.1c-1.8,0-2.7,0.9-2.7,2.8v21.8c0,1.8,0.9,2.3,2.7,2.3h4.1c1.8,0,2.3-0.8,2.3-2.6v-13.7
			c0,0,7.2,6.5,8.2,7.3c0.8,0.7,1.4,0.7,1.8,0.7l0,0l0,0c0.4,0,1-0.1,1.8-0.7c1-0.8,8.2-7.3,8.2-7.3v13.7c0,1.8,0.5,2.6,2.3,2.6h4.1
			c1.8,0,2.7-0.5,2.7-2.3v-21.8C381.8,1483.6,381,1482.7,379.1,1482.7z"/>
	</g>
</g>
<path class="st5" d="M180.5,199.1c0-3.5,2.9-6.4,6.5-6.4"/>
<g id="LWPOLYLINE_15_">
	<polygon points="287.4,781.6 290.1,781.1 292.8,781.7 293.9,783.8 293.7,785 291.7,787 289.4,787.8 286.1,788.2 285.1,788.1 
		282.2,787.4 283.2,785.2 285.1,783 	"/>
</g>
<g id="LWPOLYLINE_17_">
	<polygon id="polygon259" points="409.6,790.1 410.5,787.2 411.9,784.7 413,783.4 415.3,781.6 418,781 419.8,781.1 422,781.9 
		420.2,790.6 420.1,790.9 419.1,793.9 417.6,796.3 416.1,797.7 413.5,798.6 411.9,798.3 409.9,796.8 409.3,793.9 409.3,793.3 	"/>
</g>
<g id="HATCH">
	<path class="st6" d="M1004.3,1308.8c0-38.9-31.6-71.3-71.3-71.3s-71.3,32.4-71.3,71.3c0,39.7,31.6,72.1,71.3,72.1
		S1004.3,1348.5,1004.3,1308.8z M933,1245.7c35.6,0,64,28.3,64,63.2c0,35.6-28.4,64-64,64c-34.8,0-64-28.3-64-64
		C869,1274,898.2,1245.7,933,1245.7z"/>
</g>
<g id="HATCH_1_">
	<path class="st6" d="M970.3,1308.8c0-20.2-17-36.5-37.3-36.5v-6.5l-15.4,8.9l15.4,8.9v-5.7c17.8,0,31.6,13.8,31.6,30.8
		c0,17.8-13.8,31.6-31.6,31.6c-17,0-31.6-13.8-31.6-31.6h-5.7c0,21.1,17,37.3,37.3,37.3S970.3,1329.9,970.3,1308.8z"/>
</g>
<g id="HATCH_2_">
	<path d="M933,1416.6c-39.7,0-71.3,31.6-71.3,71.3c0,39.7,31.6,71.3,71.3,71.3s71.3-31.6,71.3-71.3S972.7,1416.6,933,1416.6z
		 M869,1487.9c0-35.6,29.2-64,64-64c35.6,0,64,28.4,64,64c0,34.8-28.4,64-64,64C898.2,1551.8,869,1522.7,869,1487.9z"/>
</g>
<g id="HATCH_3_">
	<polygon points="954.9,1471.7 954.9,1516.2 962.2,1516.2 962.2,1458.7 950.8,1458.7 933,1510.5 915.2,1458.7 904.7,1458.7 
		904.7,1516.2 911.1,1516.2 911.1,1471.7 928.1,1516.2 937.9,1516.2 	"/>
</g>
<path class="st3" d="M1150.1,1653.9c0,3.2-2.9,5.7-6.5,5.7"/>
<path class="st3" d="M1.5,1653.9c0,3.2,2.9,5.7,6.5,5.7"/>
<path class="st3" d="M1.5,8c0-3.6,2.9-6.5,6.5-6.5"/>
<path class="st3" d="M1150.1,8c0-3.6-2.9-6.5-6.5-6.5"/>
</svg>
