<?xml version="1.0" encoding="UTF-8" standalone="no"?>
<!-- Generator: Adobe Illustrator 21.1.0, SVG Export Plug-In . SVG Version: 6.00 Build 0)  -->

<svg
   xmlns:dc="http://purl.org/dc/elements/1.1/"
   xmlns:cc="http://creativecommons.org/ns#"
   xmlns:rdf="http://www.w3.org/1999/02/22-rdf-syntax-ns#"
   xmlns:svg="http://www.w3.org/2000/svg"
   xmlns="http://www.w3.org/2000/svg"
   xmlns:sodipodi="http://sodipodi.sourceforge.net/DTD/sodipodi-0.dtd"
   xmlns:inkscape="http://www.inkscape.org/namespaces/inkscape"
   version="1.1"
   id="svg2"
   inkscape:version="0.91 r13725"
   sodipodi:docname="MH-S411_learnmode.svg"
   x="0px"
   y="0px"
   viewBox="0 0 254 254"
   style="enable-background:new 0 0 254 254;"
   xml:space="preserve"><metadata
     id="metadata65"><rdf:RDF><cc:Work
         rdf:about=""><dc:format>image/svg+xml</dc:format><dc:type
           rdf:resource="http://purl.org/dc/dcmitype/StillImage" /><dc:title></dc:title></cc:Work></rdf:RDF></metadata><defs
     id="defs63" /><style
     type="text/css"
     id="style3">
	.st0{stroke:#000000;stroke-width:0.216;stroke-linejoin:bevel;}
	.st1{fill:none;stroke:#000000;stroke-width:0.216;stroke-linejoin:bevel;}
	.st2{fill:#000200;}
	.st3{fill:none;}
</style><sodipodi:namedview
     bordercolor="#666666"
     borderopacity="1"
     fit-margin-bottom="5"
     fit-margin-left="5"
     fit-margin-right="5"
     fit-margin-top="5"
     gridtolerance="10"
     guidetolerance="10"
     id="namedview194"
     inkscape:current-layer="svg2"
     inkscape:cx="133.65889"
     inkscape:cy="218.40171"
     inkscape:pageopacity="0"
     inkscape:pageshadow="2"
     inkscape:window-height="739"
     inkscape:window-maximized="0"
     inkscape:window-width="1226"
     inkscape:window-x="0"
     inkscape:window-y="0"
     inkscape:zoom="1"
     objecttolerance="10"
     pagecolor="#ffffff"
     showgrid="false" /><g
     id="Layer1000"
     transform="translate(-165.5958,-105.3511)"><path
       id="path5"
       inkscape:connector-curvature="0"
       class="st0"
       d="M-1006.1,221.4C-1006.1,221.4-1006.1,221.4-1006.1,221.4   C-1006.2,221.4-1006.2,221.4-1006.1,221.4C-1006.2,221.4-1006.2,221.5-1006.1,221.4C-1006.1,221.5-1006.1,221.4-1006.1,221.4z" /><path
       id="path7"
       inkscape:connector-curvature="0"
       class="st0"
       d="M-1006.1,589.9C-1006.1,589.9-1006.1,589.9-1006.1,589.9   C-1006.2,589.9-1006.2,589.9-1006.1,589.9C-1006.2,589.9-1006.2,590-1006.1,589.9C-1006.1,590-1006.1,589.9-1006.1,589.9z" /><path
       id="path9"
       inkscape:connector-curvature="0"
       class="st0"
       d="M-1033.2,589.9C-1033.2,589.9-1033.2,589.9-1033.2,589.9   C-1033.2,589.9-1033.2,589.9-1033.2,589.9C-1033.2,589.9-1033.2,590-1033.2,589.9C-1033.2,590-1033.2,589.9-1033.2,589.9z" /><path
       id="path11"
       inkscape:connector-curvature="0"
       class="st0"
       d="M-962.2,261.1C-962.2,261.1-962.2,261.1-962.2,261.1   C-962.2,261.1-962.3,261.1-962.2,261.1C-962.3,261.1-962.2,261.1-962.2,261.1C-962.2,261.1-962.2,261.1-962.2,261.1z" /><path
       id="path13"
       inkscape:connector-curvature="0"
       class="st0"
       d="M-965,479.4C-965,479.4-965,479.3-965,479.4   C-965.1,479.3-965.1,479.4-965,479.4C-965.1,479.4-965.1,479.4-965,479.4C-965,479.4-965,479.4-965,479.4z" /><path
       id="path15"
       inkscape:connector-curvature="0"
       class="st0"
       d="M-1016.2,479.4C-1016.2,479.4-1016.2,479.3-1016.2,479.4   C-1016.3,479.3-1016.3,479.4-1016.2,479.4C-1016.3,479.4-1016.3,479.4-1016.2,479.4C-1016.2,479.4-1016.2,479.4-1016.2,479.4z" /><path
       id="path17"
       inkscape:connector-curvature="0"
       class="st0"
       d="M-965,265C-965,264.9-965,264.9-965,265   C-965.1,264.9-965.1,264.9-965,265C-965.1,265-965.1,265-965,265C-965,265-965,265-965,265z" /><path
       id="path19"
       inkscape:connector-curvature="0"
       class="st0"
       d="M-795,266.1C-795,266.1-795,266.1-795,266.1   C-795,266.1-795,266.1-795,266.1C-795,266.1-795,266.1-795,266.1C-795,266.1-795,266.1-795,266.1z" /><path
       id="path21"
       inkscape:connector-curvature="0"
       class="st0"
       d="M-795,200.4C-795,200.4-795,200.4-795,200.4   C-795,200.4-795,200.4-795,200.4C-795,200.4-795,200.4-795,200.4C-795,200.4-795,200.4-795,200.4z" /><path
       id="path23"
       inkscape:connector-curvature="0"
       class="st0"
       d="M-1007.6,222.8C-1007.6,222.8-1007.6,222.8-1007.6,222.8   C-1007.6,222.8-1007.6,222.8-1007.6,222.8C-1007.6,222.9-1007.6,222.9-1007.6,222.8C-1007.6,222.9-1007.6,222.9-1007.6,222.8z" /><path
       id="path25"
       inkscape:connector-curvature="0"
       class="st0"
       d="M-752.4,222.8C-752.4,222.8-752.4,222.8-752.4,222.8   C-752.5,222.8-752.5,222.8-752.4,222.8C-752.5,222.9-752.5,222.9-752.4,222.8C-752.4,222.9-752.4,222.9-752.4,222.8z" /><path
       id="path27"
       inkscape:connector-curvature="0"
       class="st0"
       d="M-752.4,177.9C-752.4,177.9-752.4,177.9-752.4,177.9   C-752.5,177.9-752.5,177.9-752.4,177.9C-752.5,177.9-752.5,177.9-752.4,177.9C-752.4,177.9-752.4,177.9-752.4,177.9z" /></g><g
     id="Layer1001"
     transform="translate(-165.5958,-105.3511)"><path
       id="path30"
       inkscape:connector-curvature="0"
       class="st0"
       d="M-1097.9,95.2C-1097.9,95.2-1097.9,95.2-1097.9,95.2   C-1097.9,95.2-1097.9,95.2-1097.9,95.2C-1097.9,95.2-1097.9,95.2-1097.9,95.2C-1097.9,95.2-1097.9,95.2-1097.9,95.2z" /><path
       id="path32"
       inkscape:connector-curvature="0"
       class="st0"
       d="M-1097.9,463.7C-1097.9,463.7-1097.9,463.7-1097.9,463.7   C-1097.9,463.7-1097.9,463.7-1097.9,463.7C-1097.9,463.7-1097.9,463.7-1097.9,463.7C-1097.9,463.7-1097.9,463.7-1097.9,463.7z" /><path
       id="path34"
       inkscape:connector-curvature="0"
       class="st0"
       d="M-1124.9,463.7C-1124.9,463.7-1125,463.7-1124.9,463.7   C-1125,463.7-1125,463.7-1124.9,463.7C-1125,463.7-1125,463.7-1124.9,463.7C-1125,463.7-1124.9,463.7-1124.9,463.7z" /><path
       id="path36"
       inkscape:connector-curvature="0"
       class="st0"
       d="M-1059.6,137.7C-1059.6,137.7-1059.6,137.7-1059.6,137.7   C-1059.7,137.7-1059.7,137.7-1059.6,137.7C-1059.7,137.8-1059.7,137.8-1059.6,137.7C-1059.6,137.8-1059.6,137.8-1059.6,137.7z" /><path
       id="path38"
       inkscape:connector-curvature="0"
       class="st0"
       d="M-1059.6,350.3C-1059.6,350.3-1059.6,350.3-1059.6,350.3   C-1059.7,350.3-1059.7,350.3-1059.6,350.3C-1059.7,350.4-1059.7,350.4-1059.6,350.3C-1059.6,350.4-1059.6,350.4-1059.6,350.3z" /><path
       id="path40"
       inkscape:connector-curvature="0"
       class="st0"
       d="M-1108,350.3C-1108,350.3-1108,350.3-1108,350.3   C-1108,350.3-1108,350.3-1108,350.3C-1108,350.4-1108,350.4-1108,350.3C-1108,350.4-1108,350.4-1108,350.3z" /><path
       id="path42"
       inkscape:connector-curvature="0"
       class="st0"
       d="M-1059.6,137.7C-1059.6,137.7-1059.6,137.7-1059.6,137.7   C-1059.7,137.7-1059.7,137.7-1059.6,137.7C-1059.7,137.8-1059.7,137.8-1059.6,137.7C-1059.6,137.8-1059.6,137.8-1059.6,137.7z" /><path
       id="path44"
       inkscape:connector-curvature="0"
       class="st0"
       d="M-883.9,137.7C-883.9,137.7-883.9,137.7-883.9,137.7   C-883.9,137.7-883.9,137.7-883.9,137.7C-883.9,137.8-883.9,137.8-883.9,137.7C-883.9,137.8-883.9,137.8-883.9,137.7z" /><path
       id="path46"
       inkscape:connector-curvature="0"
       class="st0"
       d="M-883.9,74.2C-883.9,74.2-883.9,74.2-883.9,74.2   C-883.9,74.2-883.9,74.2-883.9,74.2C-883.9,74.2-883.9,74.2-883.9,74.2C-883.9,74.2-883.9,74.2-883.9,74.2z" /><path
       id="path48"
       inkscape:connector-curvature="0"
       class="st0"
       d="M-1099.3,96.6C-1099.3,96.6-1099.3,96.6-1099.3,96.6   C-1099.3,96.6-1099.4,96.6-1099.3,96.6C-1099.4,96.7-1099.3,96.7-1099.3,96.6C-1099.3,96.7-1099.3,96.7-1099.3,96.6z" /><path
       id="path50"
       inkscape:connector-curvature="0"
       class="st0"
       d="M-844.2,96.6C-844.2,96.6-844.2,96.6-844.2,96.6   C-844.2,96.6-844.2,96.6-844.2,96.6C-844.2,96.7-844.2,96.7-844.2,96.6C-844.2,96.7-844.2,96.7-844.2,96.6z" /><path
       id="path52"
       inkscape:connector-curvature="0"
       class="st0"
       d="M-844.2,51.7C-844.2,51.7-844.2,51.7-844.2,51.7   C-844.2,51.7-844.2,51.7-844.2,51.7C-844.2,51.7-844.2,51.7-844.2,51.7C-844.2,51.7-844.2,51.7-844.2,51.7z" /><path
       id="path54"
       inkscape:connector-curvature="0"
       class="st0"
       d="M-883.9,349.2C-883.9,349.2-883.9,349.1-883.9,349.2   C-883.9,349.1-883.9,349.2-883.9,349.2C-883.9,349.2-883.9,349.2-883.9,349.2C-883.9,349.2-883.9,349.2-883.9,349.2z" /><path
       id="path56"
       inkscape:connector-curvature="0"
       class="st0"
       d="M-885.3,348.9C-885.3,348.9-885.3,348.9-885.3,348.9   C-885.3,348.9-885.3,348.9-885.3,348.9C-885.3,348.9-885.3,348.9-885.3,348.9C-885.3,348.9-885.3,348.9-885.3,348.9z" /></g><g
     id="Layer1002"
     transform="translate(-165.5958,-105.3511)"><path
       id="path59"
       inkscape:connector-curvature="0"
       class="st1"
       d="M170.7,111.9l1.4-1.4" /><path
       id="path61"
       inkscape:connector-curvature="0"
       class="st1"
       d="M172.1,354.2l-1.4-1.4" /><path
       id="path63"
       inkscape:connector-curvature="0"
       class="st1"
       d="M170.7,111.9v240.9" /><path
       id="path65"
       inkscape:connector-curvature="0"
       class="st1"
       d="M173.5,113.3v238.1" /><path
       id="path67"
       inkscape:connector-curvature="0"
       class="st1"
       d="M172.1,354.2h240.9" /><path
       id="path69"
       inkscape:connector-curvature="0"
       class="st1"
       d="M173.5,351.4h238.1" /><path
       id="path71"
       inkscape:connector-curvature="0"
       class="st1"
       d="M173.5,351.4l-2.1,2.1" /><path
       id="path73"
       inkscape:connector-curvature="0"
       class="st1"
       d="M411.6,113.3l2.1-2.1" /><path
       id="path75"
       inkscape:connector-curvature="0"
       class="st1"
       d="M171.4,111.2l2.1,2.1" /><path
       id="path77"
       inkscape:connector-curvature="0"
       class="st1"
       d="M411.6,351.4l2.1,2.1" /><path
       id="path79"
       inkscape:connector-curvature="0"
       class="st1"
       d="M411.6,351.4V113.3" /><path
       id="path81"
       inkscape:connector-curvature="0"
       class="st1"
       d="M414.5,352.8V111.9" /><path
       id="path83"
       inkscape:connector-curvature="0"
       class="st1"
       d="M411.6,113.3H173.5" /><path
       id="path85"
       inkscape:connector-curvature="0"
       class="st1"
       d="M413.1,110.5H172.1" /><path
       id="path87"
       inkscape:connector-curvature="0"
       class="st1"
       d="M414.5,352.8l-1.4,1.4" /><path
       id="path89"
       inkscape:connector-curvature="0"
       class="st1"
       d="M413.1,110.5l1.4,1.4" /></g><g
     id="Layer1004"
     transform="translate(-165.5958,-105.3511)"><path
       id="path99"
       inkscape:connector-curvature="0"
       class="st2"
       d="M380.8,323.9v4.3c0,0.4-0.1,0.5-0.5,0.5h-2.8c0,0-0.3,0-0.6,0.3   c-0.4,0.4-1.7,1.5-1.7,1.5s-0.9,0.7,0.1,0.7h7.9c0.7,0,0.9-0.2,0.9-0.9v-8.5c0-0.7-0.2-1-1-1h-3.1l0,0c0,0,0,0,0,0   c-0.5,0-1.2,0.1-1.6,0.5c-0.3,0.2-4.9,4.3-4.9,4.3s-0.2,0.2-0.4,0.2c0,0,0,0,0,0c-0.1,0-0.3-0.2-0.3-0.2s-4.6-4.1-4.9-4.4   c-0.4-0.3-1.1-0.4-1.6-0.4c0,0,0,0,0,0l0,0h-3.1c-0.8,0-1,0.3-1,1v5.4v1v2.1c0,0.6,0.2,0.8,0.8,0.9v0h0.1c0,0,0,0,0,0h1.4h0.6   c0,0,0.3,0,0.6-0.3c0.4-0.4,1.7-1.5,1.7-1.5s0.9-0.7-0.1-0.7h-1.4c-0.4,0-0.5-0.1-0.5-0.5c0,0,0,0,0-0.1v-0.9v-3.4   c0-0.2,0-0.6,0.5-0.2l4.7,4.2c0.1,0.1,0.2,0.2,0.3,0.3l-3,2.7c0,0-0.5,0.4,0.2,0.4h3l0,0c0,0,0,0,0,0c0.3,0,0.9,0,1.6-0.5   c0.3-0.2,7.9-7,7.9-7C380.8,323.3,380.8,323.7,380.8,323.9L380.8,323.9z" /><path
       id="path101"
       inkscape:connector-curvature="0"
       class="st2"
       d="M383.7,334.4h-5.5c-0.4,0-0.6,0.2-0.6,0.6v3.5   c0,0.4,0.2,0.6,0.6,0.6h5.5c0.4,0,0.6-0.2,0.6-0.6V335C384.3,334.6,384.1,334.4,383.7,334.4z M382.7,337.7L382.7,337.7   c0,0.2,0,0.2-0.2,0.2h-3c-0.2,0-0.2,0-0.2-0.2v-1.8c0-0.2,0-0.2,0.2-0.2h3c0.2,0,0.2,0,0.2,0.2V337.7z" /><path
       id="path103"
       inkscape:connector-curvature="0"
       class="st2"
       d="M367.7,334.4h-5.5c-0.4,0-0.6,0.2-0.6,0.6v3.5   c0,0.4,0.2,0.6,0.6,0.6h5.5c0.4,0,0.6-0.2,0.6-0.6V335C368.3,334.6,368.1,334.4,367.7,334.4z M366.7,337.7L366.7,337.7   c0,0.2,0,0.2-0.2,0.2h-3c-0.2,0-0.2,0-0.2-0.2v-1.8c0-0.2,0-0.2,0.2-0.2h3c0.2,0,0.2,0,0.2,0.2V337.7z" /><path
       id="path105"
       inkscape:connector-curvature="0"
       class="st2"
       d="M376.3,334.4h-0.7c-0.3,0-0.5,0.1-0.5,0.5v2h-3.5v-2   c0-0.3-0.1-0.5-0.5-0.5h-0.7c-0.3,0-0.5,0.1-0.5,0.5v3.7c0,0.3,0.1,0.5,0.5,0.5h0.7c0.3,0,0.5-0.1,0.5-0.5v-0.5h3.5v0.5   c0,0.3,0.1,0.5,0.5,0.5h0.7c0.3,0,0.5-0.1,0.5-0.5v-3.7C376.7,334.6,376.6,334.4,376.3,334.4z" /><path
       id="path107"
       inkscape:connector-curvature="0"
       class="st2"
       d="M394.7,335.6l4.3,0c0.2,0,0.3-0.1,0.3-0.3v-0.6   c0-0.2-0.1-0.3-0.3-0.3h-2.2h-3h-0.5c-0.4,0-0.6,0.2-0.6,0.6v3.5c0,0.4,0.2,0.6,0.6,0.6h0.5h3h2.2c0.2,0,0.3-0.1,0.3-0.3v-0.6   c0-0.2-0.1-0.3-0.3-0.3l-4.3,0c-0.2,0-0.3-0.1-0.3-0.3v-0.3h4.6c0.2,0,0.3-0.1,0.3-0.3v-0.6c0-0.2-0.1-0.3-0.3-0.3h-4.6v-0.3   C394.4,335.7,394.5,335.6,394.7,335.6L394.7,335.6z" /><path
       id="path109"
       inkscape:connector-curvature="0"
       class="st2"
       d="M356,337.4v0.3c0,0.2,0.2,0.3,0.3,0.3l4.3,0   c0.2,0,0.3,0.1,0.3,0.3v0.6c0,0.2-0.1,0.3-0.3,0.3h-2.2h-3H355c-0.4,0-0.6-0.2-0.6-0.6V335c0-0.4,0.2-0.6,0.6-0.6h0.5h3h2.2   c0.2,0,0.3,0.1,0.3,0.3v0.6c0,0.2-0.1,0.3-0.3,0.3l-4.3,0c-0.2,0-0.3,0.1-0.3,0.3v0.3V337.4L356,337.4z" /><path
       id="path111"
       inkscape:connector-curvature="0"
       class="st2"
       d="M353.1,334.4c0,0-0.9,0-0.9,0c-0.3,0-0.5,0-0.8,0.3   c-0.1,0.1-1,0.9-1,0.9s-0.1,0.1-0.2,0.1c-0.1,0-0.2-0.1-0.2-0.1s-0.8-0.8-1-0.9c-0.4-0.3-0.6-0.3-0.8-0.3c0,0-0.9,0-0.9,0   c-0.3,0-0.5,0.2-0.5,0.5v3.8c0,0.3,0.1,0.4,0.5,0.4h0.7c0.3,0,0.4-0.1,0.4-0.5v-2.4c0,0,1.3,1.1,1.4,1.3c0.1,0.1,0.2,0.1,0.3,0.1   c0,0,0,0,0,0c0,0,0,0,0,0h0c0.1,0,0.2,0,0.3-0.1c0.2-0.1,1.4-1.3,1.4-1.3v2.4c0,0.3,0.1,0.5,0.4,0.5h0.7c0.3,0,0.5-0.1,0.5-0.4   v-3.8C353.6,334.6,353.4,334.4,353.1,334.4L353.1,334.4z" /><path
       id="path113"
       inkscape:connector-curvature="0"
       class="st2"
       d="M391.4,334.4c0,0-0.9,0-0.9,0c-0.3,0-0.5,0-0.8,0.3   c-0.1,0.1-1,0.9-1,0.9s-0.1,0.1-0.2,0.1c-0.1,0-0.2-0.1-0.2-0.1s-0.8-0.8-1-0.9c-0.4-0.3-0.6-0.3-0.8-0.3c0,0-0.9,0-0.9,0   c-0.3,0-0.5,0.2-0.5,0.5v3.8c0,0.3,0.1,0.4,0.5,0.4h0.7c0.3,0,0.4-0.1,0.4-0.5v-2.4c0,0,1.3,1.1,1.4,1.3c0.1,0.1,0.2,0.1,0.3,0.1   c0,0,0,0,0,0c0,0,0,0,0,0h0c0.1,0,0.2,0,0.3-0.1c0.2-0.1,1.4-1.3,1.4-1.3v2.4c0,0.3,0.1,0.5,0.4,0.5h0.7c0.3,0,0.5-0.1,0.5-0.4   v-3.8C391.9,334.6,391.7,334.4,391.4,334.4L391.4,334.4z" /></g><path
     id="path115"
     inkscape:connector-curvature="0"
     class="st3"
     d="M127,103.8c-1.7,0-3.1,1.4-3.1,3.1c0,1.7,1.4,3.1,3.1,3.1  c1.7,0,3.1-1.4,3.1-3.1C130.1,105.1,128.7,103.8,127,103.8z"
     style="fill:#0078cc;fill-opacity:1" /><path
     id="path117"
     inkscape:connector-curvature="0"
     class="st2"
     d="M135.9,107.3l-1.1,2.6c7.4,3.2,12,10.4,12,18.2c0,0,0,0,0,0  s0,0,0,0c0,1.3-0.1,2.6-0.4,4c-1.9,9.2-10,15.9-19.4,15.9s-17.5-6.6-19.4-15.9c-1.9-9.2,3-18.5,11.6-22.2l-1.1-2.6  c-9.9,4.2-15.5,14.8-13.3,25.4c2.2,10.6,11.4,18.1,22.2,18.1c10.8,0,20.1-7.6,22.2-18.1C151.4,122.1,145.8,111.5,135.9,107.3z"
     style="fill:#0078cc;fill-opacity:1" /><path
     id="path119"
     inkscape:connector-curvature="0"
     class="st2"
     d="M127,110c1.7,0,3.1-1.4,3.1-3.1c0-1.7-1.4-3.1-3.1-3.1  c-1.7,0-3.1,1.4-3.1,3.1C123.9,108.6,125.3,110,127,110z"
     style="fill:#0078cc;fill-opacity:1" /></svg>