<?xml version="1.0" encoding="utf-8"?>
<!-- Generator: Adobe Illustrator 26.3.1, SVG Export Plug-In . SVG Version: 6.00 Build 0)  -->
<svg version="1.1" id="Laag_1" xmlns="http://www.w3.org/2000/svg" xmlns:xlink="http://www.w3.org/1999/xlink" x="0px" y="0px"
	 viewBox="0 0 900 900" style="enable-background:new 0 0 900 900;" xml:space="preserve">
<style type="text/css">
	.st0{fill:none;stroke:#000000;stroke-width:3;stroke-miterlimit:10;}
	.st1{fill:none;stroke:#000000;stroke-width:6;stroke-miterlimit:10;}
</style>
<path d="M11.8,0h873c4.2,0.7,10.1-0.9,13,3.1c2.1,3.2,0.9,7.3,1.2,10.9c0,292.7,0,585.4,0,878.1c0.3,3.6-2.5,7-6.1,7.3
	c-2.7,0.2-8,0.4-10.7,0.6H21.6c-4.5-0.3-13.4-1-17.9-1.3c-2-1.1-3.1-3.2-3.8-5.3V6.8C0.3,0.7,7-0.2,11.8,0 M5.1,3.9
	c-2.9,1.6-1.6,5.4-1.9,8c0,293.4,0,586.7,0,880.1c-0.2,1.8,0.9,3.8,2.8,4c2.6,0.3,5.3,0.2,7.9,0.2c292.3,0,584.7,0,877,0
	c3.1,0.6,5.6-2.1,4.9-5.2c0-294.4,0-588.8,0-883.2c0.3-2.3-1.4-4.6-3.8-4.4c-293.3,0-586.7,0-880,0C9.7,3.6,7.3,3.1,5.1,3.9z"/>
<path d="M570.9,812.6c8.9-15.6,17.9-31.1,26.9-46.7c9,15.5,18,31,26.9,46.6c-2.2,0-4.4,0-6.6,0c-6.8-11.7-13.5-23.5-20.3-35.2
	c-6.8,11.8-13.6,23.5-20.4,35.3C575.3,812.7,573.1,812.7,570.9,812.6z"/>
<path d="M421.8,765.9c2.2,0,4.4,0,6.6,0c6.8,11.7,13.5,23.5,20.3,35.2c6.8-11.7,13.6-23.5,20.4-35.2c2.2,0,4.4,0,6.6,0
	c-9,15.6-17.9,31.1-27,46.7C439.8,797,430.7,781.5,421.8,765.9z"/>
<path d="M279.2,767.9c3.1,0,6.1,0,9.2,0c3.8,11.5,7.8,22.9,11.5,34.5c3.9-11.5,7.9-22.9,11.8-34.4c2.8,0,5.5,0,8.3,0
	c0,14.2,0,28.4,0,42.6c-2.1,0-4.2,0-6.4,0c0-10.7,0-21.4,0-32.2c-3.7,10.7-7.4,21.4-11.2,32.1c-1.9,0-3.8,0-5.7,0
	c-3.8-11-7.5-22-11.2-32.9c0,11,0,21.9,0,32.9c-2.1,0-4.2,0-6.3,0C279.2,796.4,279.2,782.1,279.2,767.9z"/>
<path d="M102.1,46.6c0.2-0.3,0.7-0.8,0.9-1.1c4-0.3,8-0.2,12-0.1c1.9,0,3.5,1.2,4.8,2.4c4.5,4,8.9,8,13.4,11.9
	c5.6-4.3,10.3-9.6,16-13.7c4.4-1.2,9.1-0.5,13.6-0.5c1.7-0.1,1.8,1.8,1.8,3.1c0,7.7,0,15.4,0,23.2c0,1.2,0,3.2-1.8,3.1
	c-6,0.3-12,0-18,0.1c-2.4-0.1-5,0.4-7.1-0.8c2.3-2.2,4.5-4.5,7.1-6.3c3.4-0.3,6.8-0.1,10.1-0.2c0.3-4.9,0.2-9.9,0-14.8
	c-7.4,6.3-14.5,12.9-21.8,19.3c-4.2,4.4-10.8,2.3-16.2,2.6c2.9-3.2,6.2-5.8,9.4-8.7c-5-4.5-10-9-15-13.4c-0.1,5-0.2,10,0,14.9
	c2.3,0,4.6,0.1,6.9,0.2c-1.5,2.9-4.3,4.8-6.8,6.8c-3,0.5-6.4,0.7-9.4-0.1c-0.7-1.5-0.3-3.1-0.5-4.7
	C102.1,61.9,101.8,54.3,102.1,46.6z"/>
<path d="M59.3,84c2.1,0.1,4.6-0.7,6.2,0.9c1.1,0.9,2.2,1.9,3.3,2.8c1.5-1.3,2.8-2.8,4.5-3.7c1.6-0.2,3.2-0.1,4.8-0.1
	c0.4,4.5,0.2,8.9,0.2,13.4c-1.5,0-3,0-4.5,0c-0.1-2.7-0.1-5.3-0.1-8c-1.5,1.4-3,2.8-4.7,3.9c-2.1-0.5-3.5-2.6-5.1-3.8
	c0,2.6,0,5.2-0.1,7.8c-1.5,0-3.1,0-4.6,0C59.1,92.9,59,88.4,59.3,84z"/>
<path d="M168.1,84c1.6,0,3.1-0.1,4.7,0.1c1.8,0.8,3.2,2.4,4.7,3.7c1.5-1.3,2.9-2.9,4.8-3.7c1.6-0.2,3.2-0.1,4.8,0
	c0.1,4.4,0.1,8.9,0,13.3c-1.5,0-3,0-4.5,0c-0.1-2.7-0.1-5.4,0-8.1c-1.6,1.6-3.3,3.2-5.3,4.3c-1.5-1.4-3.1-2.8-4.6-4.1
	c0,2.6,0,5.2,0,7.8c-1.6,0-3.1,0-4.6,0.1C167.9,92.9,167.7,88.4,168.1,84z"/>
<path d="M80.5,96.4c0.1-4-0.9-8.6,0.6-12.2c6-0.3,12-0.1,17.9-0.1c0,0.8-0.1,2.5-0.1,3.3c-4.6,0.1-9.2,0-13.8,0.1c0,2.1,0,4.2,0,6.4
	c4.6,0.2,9.2,0.1,13.8,0.1c0,1.1,0,2.2,0,3.3c-5.9,0-11.8,0.2-17.7-0.1C81.1,97,80.7,96.6,80.5,96.4z"/>
<path d="M101.1,84.4c6.3-0.6,12.6-0.3,18.9-0.1c0.2,4.2,0.1,8.4,0.1,12.7c-3.7,0.8-7.4,0.3-11.1,0.4c-2.6,0-5.3,0.3-7.9-0.5
	C101.1,92.7,101.1,88.5,101.1,84.4 M105.9,87.6c0,2.1,0,4.1,0,6.2c3.2,0,6.3,0,9.5,0c0-2.1,0-4.1,0-6.2
	C112.2,87.6,109,87.6,105.9,87.6z"/>
<path d="M125.1,84.3c1.5-0.1,3-0.1,4.4-0.3c0.2,2.4,0.3,4.8,0.2,7.2c3.2,0,6.5,0,9.7,0c-0.1-2.4,0.1-4.8,0.2-7.2
	c1.5,0,2.9,0.1,4.4,0.1c0.1,4.4,0.1,8.8,0,13.2c-1.4,0-2.8,0.1-4.2,0.1c-0.1-0.7-0.3-2.1-0.5-2.8c-3.2,0-6.4,0-9.5,0
	c-0.1,0.7-0.2,2.1-0.3,2.8c-1.5-0.1-2.9-0.1-4.4-0.1C124.9,93,125,88.6,125.1,84.3z"/>
<path d="M146.7,84.2c6.2-0.1,12.5-0.2,18.7,0.1c0.1,4.2,0,8.3,0.1,12.5c-6,1.2-12.2,0.5-18.2,0.4l-0.6-0.6
	C146.3,92.4,146.4,88.3,146.7,84.2 M151.3,87.6c0,2.1,0,4.1,0,6.2c3.2,0,6.3,0,9.5,0c0-2.1,0-4.1,0-6.2
	C157.6,87.6,154.4,87.6,151.3,87.6z"/>
<path d="M189.7,96.8c-0.6-4.2-0.5-8.4,0.1-12.6c6.1-0.1,12.2,0,18.4,0c0,0.8,0,2.4,0,3.2c-4.5,0.2-9-0.2-13.5,0.2
	c-0.2,0.4-0.5,1.1-0.7,1.5c4.8,0.2,9.5,0,14.3,0.1c0,0.8,0,2.5,0,3.3c-4.8,0.1-9.7-0.2-14.5,0.3c0.4,0.3,1.2,0.8,1.5,1.1
	c4.3,0.3,8.6,0,12.9,0.1c0,1.1,0,2.1,0,3.2c-6-0.1-12,0.2-17.9-0.1L189.7,96.8z"/>
<g>
	<path class="st0" d="M742.8,797.7c0,0-1.8,2.6-1.7,3.9c0.1,1.3,0.8,9.4-1.3,11.3c-2.1,1.9-5.1,4.4-7.8,3.3
		c-2.6-1.1-11.8-3.6-11.5-15.9s16.5-11.1,16.5-11.1"/>
	<path class="st0" d="M739.1,785.4c0,0-1.6-2.7-2.8-3.2s-8.9-3.1-9.8-5.9c-0.8-2.7-1.9-6.5,0.2-8.4c2.1-2,8.2-9.2,19.3-3.9
		c11.1,5.4,3.2,19.6,3.2,19.6"/>
	<path class="st0" d="M751.3,787.7c0,0,3.1,0.3,4.2-0.4c1.1-0.7,7.8-5.3,10.5-4.4c2.7,0.9,6.3,2.3,6.7,5.1s2.6,12.1-8.3,17.8
		s-17.7-9-17.7-9"/>
	<circle class="st0" cx="744.5" cy="790.2" r="8.4"/>
</g>
<g>
	<g>
		<g>
			<circle cx="792.5" cy="515.6" r="3.3"/>
		</g>
	</g>
	<g>
		<g>
			<path d="M61.2,143.2c0,176.9,0,353.7,0,530.5c259.3,0,518.4,0,777.5,0c0-176.8,0-353.6,0-530.5
				C579.4,143.2,320.3,143.2,61.2,143.2z M793.5,487.2c1.2,0.7,1.6,2.2,0.9,3.4l-17.3,29.8c-0.5,0.8-1.3,1.2-2.2,1.2
				c-0.4,0-0.9-0.1-1.3-0.3c-1.2-0.7-1.6-2.2-0.9-3.4l17.3-29.8C790.7,486.9,792.3,486.5,793.5,487.2z M774.2,486.8
				c3.5,0,6.3,2.8,6.3,6.3s-2.8,6.3-6.3,6.3s-6.3-2.8-6.3-6.3S770.7,486.8,774.2,486.8z M754.1,462.9c-0.3,6.6-1.1,13-1.6,19.6
				c-1.3,1.1-2.6,2-3.9,3.1c-1.3-1.4-2.6-2.6-3.9-3.8c0.7-5.5,0.7-11.1,1.6-16.6c1.6-2.7,3.5-5.3,5.4-7.9
				C752.8,459,754.4,460.8,754.1,462.9z M743.4,493.1c1.6-1.2,3.2-2.4,4.6-3.8c0.8,0.7,2.4,2.1,3.2,2.8c-0.5,7-1,14-1.7,20.8
				c0,2.5-1.9,4.3-3.4,6c-1.5-2.5-3-4.9-4.3-7.5C742.3,505.3,742.9,499.1,743.4,493.1z M721.8,491.1c-1.3-1.3-2.7-2.7-4-4
				c1.7-1.2,3.3-2.6,5-3.9c6.4,0,12.9,0,19.3,0c1.4,1.5,2.9,2.8,4.4,4.3c-1.5,1.2-3.1,2.4-4.6,3.6
				C735.2,491.1,728.5,491.1,721.8,491.1z M749.7,455.1c-1.6,2.5-3.2,5.1-4.8,7.5c-6.7,0-13.3,0-20,0c-1.2-2.6-2.4-5.1-3.6-7.7
				C730.7,454.9,740.2,454.6,749.7,455.1z M715.1,460.6c0.3-2.2,1.9-3.8,3.2-5.4c1.5,2.8,3.1,5.6,4.2,8.7
				c-0.3,5.8-1.1,11.7-1.5,17.5c-1.6,1.3-3.2,2.6-4.8,3.9c-0.8-0.7-2.3-2-3.1-2.7C713.8,475.2,714.2,467.8,715.1,460.6z
				 M573.2,344.7c-2.2,0.6-4.5,1.3-6.7,1.8c-1.4-1.9-2.3-4.5-4.8-5.2c-3.8-1.5-8.6,0.5-10,4.5s-1.2,8.5,0,12.6
				c1.1,4.5,6.9,6.9,10.9,4.4c2-1.5,2.8-4,3.8-6.2c2.2,0.7,4.5,1.4,6.7,2.1c-2,12-19.4,14.7-26.1,5.3c-5.5-7.8-4.9-20.5,3-26.5
				C557.6,331.9,570.6,334.8,573.2,344.7z M540.5,325.3c4.3-2,9.6,2.9,7.8,7.2c-1.2,3.8-6.4,5.2-9.3,2.6
				C535.7,332.6,536.5,326.7,540.5,325.3z M571.9,413c2.1-0.1,4.2,0.4,6.3,1c-2.4,3.6-4.9,7.3-7.4,11c-11,0-22.1,0-33.1,0
				c-2-3.9-3.9-7.9-5.8-11.9C545.3,412.9,558.6,413.1,571.9,413z M573.5,464.4c-2.5,2.1-5,4.1-7.5,6.1c-11.1,0-22.3,0-33.5,0
				c-2.3-2-4.4-4.2-6.5-6.3c2.6-1.9,5.1-3.9,7.6-5.9c11.1-0.1,22.2,0,33.3-0.1C569.1,460.2,571.3,462.3,573.5,464.4z M476.3,313.8
				c4.7-0.1,9.6,0.6,14.1,2.2c-4.7,7-9.6,14.3-14.5,21.5c-21.6,0-43.3,0-64.8,0c-3.9-7.6-7.6-15.5-11.3-23.3
				C425.4,314,450.8,314,476.3,313.8z M480.9,414.7c-4.9,3.9-9.6,7.8-14.5,11.7c-21.9,0-43.6-0.2-65.5,0c-4.1-3.9-8.2-8-12.5-11.7
				c4.3-4.7,9.6-8.4,14.5-12.3c21.7,0,43.4,0.2,65.1,0.2C472.5,406.5,476.6,410.6,480.9,414.7z M381,335.5c0.6-8.2,6-15,12.9-19.1
				c3.6,7.6,7.7,14.9,10.8,22.5c-1.2,19.6-3.3,39.1-4.9,58.7c-4.9,3.9-10,7.6-14.9,11.5c-3.1-3.1-6.3-6.3-9.4-9.4
				C377.3,378.3,379,356.8,381,335.5z M318,314c4.7-0.2,9.2,0.6,13.5,2c-4.9,7.2-9.8,14.3-14.5,21.5c-21.8,0-43.3,0-65,0
				c-3.7-7.8-7.6-15.5-11.3-23.3C266.3,313.6,292.1,314.2,318,314z M139.9,376.2c-0.8,0-2.6,0-3.5,0c0-9.1,0-18.2,0-27.3
				c0.9,0,2.7,0,3.5,0C139.9,358,139.9,367.1,139.9,376.2z M164,372.8c-1.4,4.3-8.2,4.6-9.8,0.4c-1.3-2.4,0.2-5,1.5-7
				c0.1-5.8-0.3-11.5,0.1-17.3c0.5-3.2,5.9-3.3,6.6-0.1c0.4,5.4-0.2,10.8,0.1,16.2C162.8,367.7,165.5,370.1,164,372.8z M181.6,376.2
				c-0.8,0-2.7,0-3.6,0c0-9.1,0-18.2,0-27.3c1,0,2.8,0,3.6,0C181.6,358,181.6,367.1,181.6,376.2z M183,347.6
				c-8.1-5.8-16-11.6-24-17.4c-8.1,5.9-16.1,11.5-24,17.4c-2.1,0-4.3,0-6.4,0c10.1-7.4,20.2-14.6,30.4-22
				c10.1,7.3,20.3,14.6,30.3,22C187.2,347.6,185.1,347.6,183,347.6z M208.4,490.3c1.8-21.4,3.7-42.9,5.7-64.2
				c3.5-2.7,7-5.5,10.5-8.4c4.3,4.3,8.8,8.8,13.1,13.1c-1.8,17.8-2.7,35.6-4.9,53.4c-4.8,9.4-10.5,18.4-15.8,27.4
				C211.3,506.1,207.4,498.3,208.4,490.3z M251.3,516.3c-9.4-0.2-19,1-28.2-1.2c4.3-7.6,8.8-15.1,13.1-22.7c21.3,0,42.6,0,64.2-0.2
				c4.5,8,9.2,15.9,13.5,23.7C293,516.7,272.2,516.1,251.3,516.3z M307.3,426.4c-21.7,0-43.6,0-65.5,0c-4.3-4.1-8.6-8.2-12.7-12.3
				c4.9-3.9,9.8-7.8,14.9-11.7c21.7,0.2,43.5,0,65.3,0.2c4.1,4.1,8.4,8,12.7,12.1C317.1,418.6,312.2,422.5,307.3,426.4z M345,338.9
				c-2,21.3-3.7,42.5-5.7,63.6c-3.8,2.7-7.3,5.9-10.6,9c-5.1-3.1-9-7.6-13.3-11.5c1.8-18.7,2.9-37.7,5.1-56.5
				c4.9-8.4,10.8-16.2,16.5-24.4C341.9,324.6,345.6,331.5,345,338.9z M367.2,490.3c2-21.4,3.9-42.7,5.7-64c3.6-2.9,7.1-5.7,10.6-8.4
				c4.3,4.3,8.8,8.8,13.1,13.1c-1.8,17.8-2.7,35.6-4.9,53.4c-4.7,9.2-10.4,18.2-15.7,27.2C370.1,506.3,366.2,498.3,367.2,490.3z
				 M409.8,516.5c-9.4-0.4-18.6,0.8-27.8-1.2c4.3-7.8,8.8-15.3,13.1-22.9c21.5,0,43,0,64.4,0.2c4.5,7.8,9.2,15.5,13.5,23.5
				C452.1,516.9,430.9,516.3,409.8,516.5z M490.2,496.2c-0.7,7.2-5.6,13.5-11.5,17.6c-4.3-7-8.2-14.3-12.3-21.3
				c1.8-20.9,3.7-41.7,5.5-62.6c4.3-3.8,8.8-7.3,13.3-11c3.6,3.3,7.1,6.6,10.9,10.2C494.1,451.4,492.4,473.9,490.2,496.2z
				 M509.1,521.4c-3.2,0-6.5,0-9.7,0c0.2-3.6,0.4-7.3,0.6-10.9c3.3,0,6.5,0,9.6,0C509.5,514.1,509.3,517.8,509.1,521.4z M522.3,424
				c0.3-4.2,3.1-7.7,6.6-9.9c2,5.2,6.7,9.9,5.3,15.8c-0.8,8.6-1.5,17.2-2.3,25.8c-2.6,2-5.1,3.9-7.6,5.9c-1.6-1.6-3.2-3.2-4.8-4.8
				C520.4,445.9,521.3,434.9,522.3,424z M537,516.4c-4.7-0.1-9.5,0.5-14.1-0.6c2.2-3.9,4.5-7.7,6.7-11.6c10.9,0,21.9,0,32.8,0
				c2.3,4,4.7,7.9,6.9,12C558.5,516.6,547.8,516.3,537,516.4z M578.3,505.1c-0.2,4.1-2.7,7.7-6,10c-2.2-3.6-4.2-7.3-6.3-10.9
				c0.9-10.7,1.9-21.3,2.8-32c2.2-1.9,4.5-3.7,6.9-5.4c1.8,1.6,3.7,3.3,5.5,5C580.2,482.9,579.3,494,578.3,505.1z M661.1,482.4
				c0.7-7.2,1.2-14.5,2-21.6c0.1-2.4,1.7-4,3.2-5.8c1.5,2.8,3.1,5.6,4.2,8.6c0,5.9-0.9,11.8-1.2,17.7c-1.7,1.3-3.4,2.6-5.1,3.9
				C663.4,484.4,661.9,483.1,661.1,482.4z M669.8,491.1c-1.3-1.3-2.7-2.7-4-4c1.7-1.2,3.3-2.6,5-3.9c6.4,0,12.9,0,19.3,0
				c1.4,1.5,2.9,2.8,4.4,4.3c-1.5,1.2-3.1,2.4-4.6,3.6C683.2,491.1,676.5,491.1,669.8,491.1z M697.5,513c0,2.4-1.9,4.2-3.4,5.9
				c-1.5-2.5-3.1-4.8-4.2-7.5c0-6.1,0.9-12.1,1.3-18.3c1.6-1.2,3.2-2.5,4.9-3.7c1.1,1.1,2,2,3.1,3.1
				C698.6,499.3,698.2,506.2,697.5,513z M701.5,462.9c-0.4,6.6-1.2,13-1.7,19.6c-1.2,1.1-2.6,2-3.8,3.1c-1.3-1.2-2.6-2.4-3.9-3.6
				c0.4-4.6,0.8-9.3,1.2-14c0.2-4.3,3.8-7.2,5.8-10.9C700.2,458.9,701.8,460.6,701.5,462.9z M710.4,514.4c0.2-7.7,1.2-15.2,1.7-22.7
				c0.8-0.7,2.7-2.1,3.7-2.6c1.5,1.4,2.8,2.9,4.3,4.2c-0.6,5.3-0.7,10.5-1.5,15.6c-1.5,3.6-3.9,6.8-5.8,10.3
				C711.7,517.8,710.3,516.3,710.4,514.4z M719.7,512.3c6.5,0,13.1,0,19.9,0c1.4,2.6,2.9,5.2,4.4,7.8c-9.5,0.4-18.9,0-28.3,0.3
				C716.3,517.4,718.1,514.9,719.7,512.3z M773.3,608.9L788,605c1.9-0.5,3.8,0.6,4.3,2.5c0.5,1.9-0.6,3.8-2.5,4.3l-7.9,2.1l7.8,4.5
				c1.7,1,2.2,3.1,1.3,4.8c-0.6,1.1-1.8,1.7-3,1.7c-0.6,0-1.2-0.2-1.8-0.5l-7.8-4.5l2.1,7.9c0.5,1.9-0.6,3.8-2.5,4.3
				c-0.3,0.1-0.6,0.1-0.9,0.1c-1.6,0-3-1-3.4-2.6l-3.8-14.6l-12.1-7v13.8l10.8,10.8c1.4,1.4,1.4,3.6,0,4.9c-0.7,0.7-1.6,1-2.5,1
				s-1.8-0.3-2.5-1l-5.8-5.8v9.3c0,1.9-1.6,3.5-3.5,3.5s-3.5-1.6-3.5-3.5v-9.3l-5.8,5.8c-0.7,0.7-1.6,1-2.5,1s-1.8-0.3-2.5-1
				c-1.4-1.4-1.4-3.6,0-4.9l10.8-10.8v-13.9l-12.2,7l-3.9,14.6c-0.4,1.6-1.8,2.6-3.4,2.6c-0.3,0-0.6,0-0.9-0.1
				c-1.9-0.5-3-2.4-2.5-4.3l2.1-7.9l-8,4.6c-0.5,0.3-1.2,0.5-1.7,0.5c-1.2,0-2.4-0.6-3-1.8c-1-1.7-0.4-3.8,1.3-4.8l8.1-4.7l-7.9-2.1
				c-1.9-0.5-3-2.4-2.5-4.3s2.4-3,4.3-2.5l14.7,4l12.1-7l-12.2-7.1l-14.7,3.8c-0.3,0.1-0.6,0.1-0.9,0.1c-1.6,0-3-1-3.4-2.6
				c-0.5-1.9,0.6-3.8,2.5-4.3l7.9-2.1l-8-4.6c-1.7-1-2.2-3.1-1.3-4.8c1-1.7,3.1-2.2,4.8-1.3l8,4.6l-2.1-7.9
				c-0.5-1.9,0.6-3.8,2.5-4.3c1.9-0.5,3.8,0.6,4.3,2.5l3.9,14.7l12.2,7.1v-14.2l-10.8-10.7c-1.4-1.4-1.4-3.6,0-5
				c1.4-1.4,3.6-1.4,5,0l5.8,5.8v-9.1c0-1.9,1.6-3.5,3.5-3.5s3.5,1.6,3.5,3.5v9.1l5.8-5.8c1.4-1.4,3.6-1.4,5,0c1.4,1.4,1.4,3.6,0,5
				l-10.8,10.7v14.2l12.2-7l3.9-14.7c0.5-1.9,2.4-3,4.3-2.5c1.9,0.5,3,2.4,2.5,4.3l-2.1,7.9l7.9-4.5c1.7-1,3.8-0.4,4.8,1.3
				c1,1.7,0.4,3.8-1.3,4.8l-7.9,4.5l7.9,2.2c1.9,0.5,3,2.4,2.5,4.3c-0.4,1.6-1.8,2.6-3.4,2.6c-0.3,0-0.6,0-0.9-0.1l-14.6-4
				l-12.3,7.1L773.3,608.9z M792.5,521.9c-3.5,0-6.3-2.8-6.3-6.3s2.8-6.3,6.3-6.3s6.3,2.8,6.3,6.3S796,521.9,792.5,521.9z"/>
		</g>
	</g>
	<g>
		<g>
			<circle cx="774.2" cy="493.1" r="3.3"/>
		</g>
	</g>
</g>
<g>
	<line class="st1" x1="150.6" y1="759" x2="150.6" y2="783.8"/>
	<path class="st1" d="M160.7,769.8c9.3,3.9,15.8,13.1,15.8,23.9c0,14.3-11.6,25.9-25.9,25.9s-25.9-11.6-25.9-25.9
		c0-10.7,6.5-19.9,15.8-23.9"/>
</g>
</svg>
