<?xml version="1.0" encoding="utf-8"?>
<!-- Generator: Adobe Illustrator 26.3.1, SVG Export Plug-In . SVG Version: 6.00 Build 0)  -->
<svg version="1.1" id="Laag_1" xmlns="http://www.w3.org/2000/svg" xmlns:xlink="http://www.w3.org/1999/xlink" x="0px" y="0px"
	 viewBox="0 0 900 900" style="enable-background:new 0 0 900 900;" xml:space="preserve">
<style type="text/css">
	.st0{fill:#0F1BF4;}
	.st1{fill:none;stroke:#000000;stroke-width:6;stroke-miterlimit:10;}
	.st2{fill:none;stroke:#0F1BF4;stroke-width:4;stroke-miterlimit:10;}
	.st3{fill:#FFFFFF;}
	.st4{fill:none;stroke:#FFFFFF;stroke-width:7;stroke-linecap:round;stroke-miterlimit:10;}
	.st5{fill:none;stroke:#FFFFFF;stroke-width:5;stroke-linecap:round;stroke-miterlimit:10;}
	.st6{fill:none;stroke:#FFFFFF;stroke-width:3;stroke-linecap:round;stroke-miterlimit:10;}
</style>
<path d="M838.7,673.7c-259.1,0-518.2,0-777.5,0c0-176.8,0-353.6,0-530.5c259.1,0,518.2,0,777.5,0
	C838.7,320.1,838.7,496.9,838.7,673.7"/>
<path d="M11.8,0h873c4.2,0.7,10.1-0.9,13,3.1c2.1,3.2,0.9,7.3,1.2,10.9c0,292.7,0,585.4,0,878.1c0.3,3.6-2.5,7-6.1,7.3
	c-2.7,0.2-8,0.4-10.7,0.6H21.6c-4.5-0.3-13.4-1-17.9-1.3c-2-1.1-3.1-3.2-3.8-5.3V6.8C0.3,0.7,7-0.2,11.8,0 M5.1,3.9
	c-2.9,1.6-1.6,5.4-1.9,8c0,293.4,0,586.7,0,880.1c-0.2,1.8,0.9,3.8,2.8,4c2.6,0.3,5.3,0.2,7.9,0.2c292.3,0,584.7,0,877,0
	c3.1,0.6,5.6-2.1,4.9-5.2c0-294.4,0-588.8,0-883.2c0.3-2.3-1.4-4.6-3.8-4.4c-293.3,0-586.7,0-880,0C9.7,3.6,7.3,3.1,5.1,3.9z"/>
<path class="st0" d="M570.9,812.6c8.9-15.6,17.9-31.1,26.9-46.7c9,15.5,18,31,26.9,46.6c-2.2,0-4.4,0-6.6,0
	c-6.8-11.7-13.5-23.5-20.3-35.2c-6.8,11.8-13.6,23.5-20.4,35.3C575.3,812.7,573.1,812.7,570.9,812.6z"/>
<path d="M421.8,765.9c2.2,0,4.4,0,6.6,0c6.8,11.7,13.5,23.5,20.3,35.2c6.8-11.7,13.6-23.5,20.4-35.2c2.2,0,4.4,0,6.6,0
	c-9,15.6-17.9,31.1-27,46.7C439.8,797,430.7,781.5,421.8,765.9z"/>
<path d="M279.2,767.9c3.1,0,6.1,0,9.2,0c3.8,11.5,7.8,22.9,11.5,34.5c3.9-11.5,7.9-22.9,11.8-34.4c2.8,0,5.5,0,8.3,0
	c0,14.2,0,28.4,0,42.6c-2.1,0-4.2,0-6.4,0c0-10.7,0-21.4,0-32.2c-3.7,10.7-7.4,21.4-11.2,32.1c-1.9,0-3.8,0-5.7,0
	c-3.8-11-7.5-22-11.2-32.9c0,11,0,21.9,0,32.9c-2.1,0-4.2,0-6.3,0C279.2,796.4,279.2,782.1,279.2,767.9z"/>
<path d="M102.1,46.6c0.2-0.3,0.7-0.8,0.9-1.1c4-0.3,8-0.2,12-0.1c1.9,0,3.5,1.2,4.8,2.4c4.5,4,8.9,8,13.4,11.9
	c5.6-4.3,10.3-9.6,16-13.7c4.4-1.2,9.1-0.5,13.6-0.5c1.7-0.1,1.8,1.8,1.8,3.1c0,7.7,0,15.4,0,23.2c0,1.2,0,3.2-1.8,3.1
	c-6,0.3-12,0-18,0.1c-2.4-0.1-5,0.4-7.1-0.8c2.3-2.2,4.5-4.5,7.1-6.3c3.4-0.3,6.8-0.1,10.1-0.2c0.3-4.9,0.2-9.9,0-14.8
	c-7.4,6.3-14.5,12.9-21.8,19.3c-4.2,4.4-10.8,2.3-16.2,2.6c2.9-3.2,6.2-5.8,9.4-8.7c-5-4.5-10-9-15-13.4c-0.1,5-0.2,10,0,14.9
	c2.3,0,4.6,0.1,6.9,0.2c-1.5,2.9-4.3,4.8-6.8,6.8c-3,0.5-6.4,0.7-9.4-0.1c-0.7-1.5-0.3-3.1-0.5-4.7
	C102.1,61.9,101.8,54.3,102.1,46.6z"/>
<path d="M59.3,84c2.1,0.1,4.6-0.7,6.2,0.9c1.1,0.9,2.2,1.9,3.3,2.8c1.5-1.3,2.8-2.8,4.5-3.7c1.6-0.2,3.2-0.1,4.8-0.1
	c0.4,4.5,0.2,8.9,0.2,13.4c-1.5,0-3,0-4.5,0c-0.1-2.7-0.1-5.3-0.1-8c-1.5,1.4-3,2.8-4.7,3.9c-2.1-0.5-3.5-2.6-5.1-3.8
	c0,2.6,0,5.2-0.1,7.8c-1.5,0-3.1,0-4.6,0C59.1,92.9,59,88.4,59.3,84z"/>
<path d="M168.1,84c1.6,0,3.1-0.1,4.7,0.1c1.8,0.8,3.2,2.4,4.7,3.7c1.5-1.3,2.9-2.9,4.8-3.7c1.6-0.2,3.2-0.1,4.8,0
	c0.1,4.4,0.1,8.9,0,13.3c-1.5,0-3,0-4.5,0c-0.1-2.7-0.1-5.4,0-8.1c-1.6,1.6-3.3,3.2-5.3,4.3c-1.5-1.4-3.1-2.8-4.6-4.1
	c0,2.6,0,5.2,0,7.8c-1.6,0-3.1,0-4.6,0.1C167.9,92.9,167.7,88.4,168.1,84z"/>
<path d="M80.5,96.4c0.1-4-0.9-8.6,0.6-12.2c6-0.3,12-0.1,17.9-0.1c0,0.8-0.1,2.5-0.1,3.3c-4.6,0.1-9.2,0-13.8,0.1c0,2.1,0,4.2,0,6.4
	c4.6,0.2,9.2,0.1,13.8,0.1c0,1.1,0,2.2,0,3.3c-5.9,0-11.8,0.2-17.7-0.1C81.1,97,80.7,96.6,80.5,96.4z"/>
<path d="M101.1,84.4c6.3-0.6,12.6-0.3,18.9-0.1c0.2,4.2,0.1,8.4,0.1,12.7c-3.7,0.8-7.4,0.3-11.1,0.4c-2.6,0-5.3,0.3-7.9-0.5
	C101.1,92.7,101.1,88.5,101.1,84.4 M105.9,87.6c0,2.1,0,4.1,0,6.2c3.2,0,6.3,0,9.5,0c0-2.1,0-4.1,0-6.2
	C112.2,87.6,109,87.6,105.9,87.6z"/>
<path d="M125.1,84.3c1.5-0.1,3-0.1,4.4-0.3c0.2,2.4,0.3,4.8,0.2,7.2c3.2,0,6.5,0,9.7,0c-0.1-2.4,0.1-4.8,0.2-7.2
	c1.5,0,2.9,0.1,4.4,0.1c0.1,4.4,0.1,8.8,0,13.2c-1.4,0-2.8,0.1-4.2,0.1c-0.1-0.7-0.3-2.1-0.5-2.8c-3.2,0-6.4,0-9.5,0
	c-0.1,0.7-0.2,2.1-0.3,2.8c-1.5-0.1-2.9-0.1-4.4-0.1C124.9,93,125,88.6,125.1,84.3z"/>
<path d="M146.7,84.2c6.2-0.1,12.5-0.2,18.7,0.1c0.1,4.2,0,8.3,0.1,12.5c-6,1.2-12.2,0.5-18.2,0.4l-0.6-0.6
	C146.3,92.4,146.4,88.3,146.7,84.2 M151.3,87.6c0,2.1,0,4.1,0,6.2c3.2,0,6.3,0,9.5,0c0-2.1,0-4.1,0-6.2
	C157.6,87.6,154.4,87.6,151.3,87.6z"/>
<path d="M189.7,96.8c-0.6-4.2-0.5-8.4,0.1-12.6c6.1-0.1,12.2,0,18.4,0c0,0.8,0,2.4,0,3.2c-4.5,0.2-9-0.2-13.5,0.2
	c-0.2,0.4-0.5,1.1-0.7,1.5c4.8,0.2,9.5,0,14.3,0.1c0,0.8,0,2.5,0,3.3c-4.8,0.1-9.7-0.2-14.5,0.3c0.4,0.3,1.2,0.8,1.5,1.1
	c4.3,0.3,8.6,0,12.9,0.1c0,1.1,0,2.1,0,3.2c-6-0.1-12,0.2-17.9-0.1L189.7,96.8z"/>
<g>
	<line class="st1" x1="150.6" y1="759" x2="150.6" y2="783.8"/>
	<path class="st1" d="M160.7,769.8c9.3,3.9,15.8,13.1,15.8,23.9c0,14.3-11.6,25.9-25.9,25.9s-25.9-11.6-25.9-25.9
		c0-10.7,6.5-19.9,15.8-23.9"/>
</g>
<g>
	<path class="st2" d="M742.8,797.7c0,0-1.8,2.6-1.7,3.9c0.1,1.3,0.8,9.4-1.3,11.3c-2.1,1.9-5.1,4.4-7.8,3.3
		c-2.6-1.1-11.8-3.6-11.5-15.9s16.5-11.1,16.5-11.1"/>
	<path class="st2" d="M739.1,785.4c0,0-1.6-2.7-2.8-3.2s-8.9-3.1-9.8-5.9c-0.8-2.7-1.9-6.5,0.2-8.4c2.1-2,8.2-9.2,19.3-3.9
		c11.1,5.4,3.2,19.6,3.2,19.6"/>
	<path class="st2" d="M751.3,787.7c0,0,3.1,0.3,4.2-0.4c1.1-0.7,7.8-5.3,10.5-4.4c2.7,0.9,6.3,2.3,6.7,5.1s2.6,12.1-8.3,17.8
		s-17.7-9-17.7-9"/>
	<circle class="st2" cx="744.5" cy="790.2" r="8.4"/>
</g>
<path class="st3" d="M721.3,454.9c1.2,2.6,2.4,5.1,3.6,7.7c6.7,0,13.3,0,20,0c1.6-2.4,3.2-5,4.8-7.5
	C740.2,454.6,730.7,454.9,721.3,454.9"/>
<path class="st3" d="M715.1,460.6c-0.9,7.2-1.3,14.6-2,22c0.8,0.7,2.3,2,3.1,2.7c1.6-1.3,3.2-2.6,4.8-3.9c0.4-5.8,1.2-11.7,1.5-17.5
	c-1.1-3.1-2.7-5.9-4.2-8.7C717,456.8,715.4,458.4,715.1,460.6"/>
<path class="st3" d="M663.1,460.8c-0.8,7.1-1.3,14.4-2,21.6c0.8,0.7,2.3,2,3.1,2.8c1.7-1.3,3.4-2.6,5.1-3.9
	c0.3-5.9,1.2-11.8,1.2-17.7c-1.1-3-2.7-5.8-4.2-8.6C664.8,456.8,663.2,458.4,663.1,460.8"/>
<path class="st3" d="M693.3,468c-0.4,4.7-0.8,9.4-1.2,14c1.3,1.2,2.6,2.4,3.9,3.6c1.2-1.1,2.6-2,3.8-3.1c0.5-6.6,1.3-13,1.7-19.6
	c0.3-2.3-1.3-4-2.4-5.8C697.1,460.8,693.5,463.7,693.3,468"/>
<path class="st3" d="M751.7,457.3c-1.9,2.6-3.8,5.2-5.4,7.9c-0.9,5.5-0.9,11.1-1.6,16.6c1.3,1.2,2.6,2.4,3.9,3.8
	c1.3-1.1,2.6-2,3.9-3.1c0.5-6.6,1.3-13,1.6-19.6C754.4,460.8,752.8,459,751.7,457.3"/>
<path class="st3" d="M717.8,487.1c1.3,1.3,2.7,2.7,4,4c6.7,0,13.4,0,20.1,0c1.5-1.2,3.1-2.4,4.6-3.6c-1.5-1.5-3-2.8-4.4-4.3
	c-6.4,0-12.9,0-19.3,0C721.1,484.5,719.5,485.9,717.8,487.1"/>
<path class="st3" d="M691.2,493.1c-0.4,6.2-1.3,12.2-1.3,18.3c1.1,2.7,2.7,5,4.2,7.5c1.5-1.7,3.4-3.5,3.4-5.9
	c0.7-6.8,1.1-13.7,1.7-20.5c-1.1-1.1-2-2-3.1-3.1C694.4,490.6,692.8,491.9,691.2,493.1"/>
<path class="st3" d="M712.1,491.7c-0.5,7.5-1.5,15-1.7,22.7c-0.1,1.9,1.3,3.4,2.4,4.8c1.9-3.5,4.3-6.7,5.8-10.3
	c0.8-5.1,0.9-10.3,1.5-15.6c-1.5-1.3-2.8-2.8-4.3-4.2C714.8,489.6,712.9,491,712.1,491.7"/>
<path class="st3" d="M743.4,493.1c-0.5,6-1.1,12.2-1.6,18.3c1.3,2.6,2.8,5,4.3,7.5c1.5-1.7,3.4-3.5,3.4-6c0.7-6.8,1.2-13.8,1.7-20.8
	c-0.8-0.7-2.4-2.1-3.2-2.8C746.6,490.7,745,491.9,743.4,493.1"/>
<path class="st3" d="M719.7,512.3c-1.6,2.6-3.4,5.1-4,8.1c9.4-0.3,18.8,0.1,28.3-0.3c-1.5-2.6-3-5.2-4.4-7.8
	C732.8,512.3,726.2,512.3,719.7,512.3"/>
<path class="st3" d="M540.5,325.3c-4,1.4-4.8,7.3-1.5,9.8c2.9,2.6,8.1,1.2,9.3-2.6C550.1,328.2,544.8,323.3,540.5,325.3"/>
<path class="st3" d="M550,337.5c-7.9,6-8.5,18.7-3,26.5c6.7,9.4,24.1,6.7,26.1-5.3c-2.2-0.7-4.5-1.4-6.7-2.1c-1,2.2-1.8,4.7-3.8,6.2
	c-4,2.5-9.8,0.1-10.9-4.4c-1.2-4.1-1.4-8.6,0-12.6s6.2-6,10-4.5c2.5,0.7,3.4,3.3,4.8,5.2c2.2-0.5,4.5-1.2,6.7-1.8
	C570.6,334.8,557.6,331.9,550,337.5"/>
<path class="st3" d="M240.7,314.2c3.7,7.8,7.6,15.5,11.3,23.3c21.7,0,43.2,0,65,0c4.7-7.2,9.6-14.3,14.5-21.5
	c-4.3-1.4-8.8-2.2-13.5-2C292.1,314.2,266.3,313.6,240.7,314.2"/>
<path class="st3" d="M399.8,314.2c3.7,7.8,7.4,15.7,11.3,23.3c21.5,0,43.2,0,64.8,0c4.9-7.2,9.8-14.5,14.5-21.5
	c-4.5-1.6-9.4-2.3-14.1-2.2C450.8,314,425.4,314,399.8,314.2"/>
<path class="st3" d="M531.9,413.1c1.9,4,3.8,8,5.8,11.9c11,0,22.1,0,33.1,0c2.5-3.7,5-7.4,7.4-11c-2.1-0.6-4.2-1.1-6.3-1
	C558.6,413.1,545.3,412.9,531.9,413.1"/>
<path class="st3" d="M381,335.5c-2,21.3-3.7,42.8-5.5,64.2c3.1,3.1,6.3,6.3,9.4,9.4c4.9-3.9,10-7.6,14.9-11.5
	c1.6-19.6,3.7-39.1,4.9-58.7c-3.1-7.6-7.2-14.9-10.8-22.5C387,320.5,381.6,327.3,381,335.5"/>
<path class="st3" d="M522.3,424c-1,10.9-1.9,21.9-2.8,32.8c1.6,1.6,3.2,3.2,4.8,4.8c2.5-2,5-3.9,7.6-5.9c0.8-8.6,1.5-17.2,2.3-25.8
	c1.4-5.9-3.3-10.6-5.3-15.8C525.4,416.3,522.6,419.8,522.3,424"/>
<path class="st3" d="M320.5,343.5c-2.2,18.8-3.3,37.8-5.1,56.5c4.3,3.9,8.2,8.4,13.3,11.5c3.3-3.1,6.8-6.3,10.6-9
	c2-21.1,3.7-42.3,5.7-63.6c0.6-7.4-3.1-14.3-8-19.8C331.3,327.3,325.4,335.1,320.5,343.5"/>
<path class="st3" d="M128.6,347.6c2.1,0,4.3,0,6.4,0c7.9-5.9,15.9-11.5,24-17.4c8,5.8,15.9,11.6,24,17.4c2.1,0,4.2,0,6.3,0
	c-10-7.4-20.2-14.7-30.3-22C148.8,333,138.7,340.2,128.6,347.6"/>
<path class="st3" d="M244,402.4c-5.1,3.9-10,7.8-14.9,11.7c4.1,4.1,8.4,8.2,12.7,12.3c21.9,0,43.8,0,65.5,0
	c4.9-3.9,9.8-7.8,14.7-11.7c-4.3-4.1-8.6-8-12.7-12.1C287.5,402.4,265.7,402.6,244,402.4"/>
<path class="st3" d="M402.9,402.4c-4.9,3.9-10.2,7.6-14.5,12.3c4.3,3.7,8.4,7.8,12.5,11.7c21.9-0.2,43.6,0,65.5,0
	c4.9-3.9,9.6-7.8,14.5-11.7c-4.3-4.1-8.4-8.2-12.9-12.1C446.3,402.6,424.6,402.4,402.9,402.4"/>
<path class="st3" d="M533.6,458.3c-2.5,2-5,4-7.6,5.9c2.1,2.1,4.2,4.3,6.5,6.3c11.2,0,22.4,0,33.5,0c2.5-2,5-4,7.5-6.1
	c-2.2-2.1-4.4-4.2-6.6-6.2C555.8,458.3,544.7,458.2,533.6,458.3"/>
<path class="st3" d="M372.9,426.3c-1.8,21.3-3.7,42.6-5.7,64c-1,8,2.9,16,8.8,21.3c5.3-9,11-18,15.7-27.2
	c2.2-17.8,3.1-35.6,4.9-53.4c-4.3-4.3-8.8-8.8-13.1-13.1C380,420.6,376.5,423.4,372.9,426.3"/>
<path class="st3" d="M214.1,426.1c-2,21.3-3.9,42.8-5.7,64.2c-1,8,2.9,15.8,8.6,21.3c5.3-9,11-18,15.8-27.4
	c2.2-17.8,3.1-35.6,4.9-53.4c-4.3-4.3-8.8-8.8-13.1-13.1C221.1,420.6,217.6,423.4,214.1,426.1"/>
<path class="st3" d="M485.2,418.9c-4.5,3.7-9,7.2-13.3,11c-1.8,20.9-3.7,41.7-5.5,62.6c4.1,7,8,14.3,12.3,21.3
	c5.9-4.1,10.8-10.4,11.5-17.6c2.2-22.3,3.9-44.8,5.9-67.1C492.3,425.5,488.8,422.2,485.2,418.9"/>
<path class="st3" d="M568.8,472.2c-0.9,10.7-1.9,21.3-2.8,32c2.1,3.6,4.1,7.3,6.3,10.9c3.3-2.3,5.8-5.9,6-10
	c1-11.1,1.9-22.2,2.9-33.3c-1.8-1.7-3.7-3.4-5.5-5C573.3,468.5,571,470.3,568.8,472.2"/>
<path class="st3" d="M155.8,348.9c-0.4,5.8,0,11.5-0.1,17.3c-1.3,2-2.8,4.6-1.5,7c1.6,4.2,8.4,3.9,9.8-0.4c1.5-2.7-1.2-5.1-1.5-7.8
	c-0.3-5.4,0.3-10.8-0.1-16.2C161.7,345.6,156.3,345.7,155.8,348.9"/>
<path class="st3" d="M136.4,348.9c0,9.1,0,18.2,0,27.3c0.9,0,2.7,0,3.5,0c0-9.1,0-18.2,0-27.3C139.1,348.9,137.3,348.9,136.4,348.9"
	/>
<path class="st3" d="M178,348.9c0,9.1,0,18.2,0,27.3c0.9,0,2.8,0,3.6,0c0-9.1,0-18.2,0-27.3C180.8,348.9,179,348.9,178,348.9"/>
<path class="st3" d="M236.2,492.4c-4.3,7.6-8.8,15.1-13.1,22.7c9.2,2.2,18.8,1,28.2,1.2c20.9-0.2,41.7,0.4,62.6-0.4
	c-4.3-7.8-9-15.7-13.5-23.7C278.8,492.4,257.5,492.4,236.2,492.4"/>
<path class="st3" d="M395.1,492.4c-4.3,7.6-8.8,15.1-13.1,22.9c9.2,2,18.4,0.8,27.8,1.2c21.1-0.2,42.3,0.4,63.2-0.4
	c-4.3-8-9-15.7-13.5-23.5C438.1,492.4,416.6,492.4,395.1,492.4"/>
<path class="st3" d="M529.6,504.2c-2.2,3.9-4.5,7.7-6.7,11.6c4.6,1.1,9.4,0.5,14.1,0.6c10.8-0.1,21.5,0.2,32.3-0.2
	c-2.2-4.1-4.6-8-6.9-12C551.5,504.2,540.5,504.2,529.6,504.2"/>
<path class="st3" d="M500,510.5c-0.2,3.6-0.4,7.3-0.6,10.9c3.2,0,6.5,0,9.7,0c0.2-3.6,0.4-7.3,0.5-10.9
	C506.5,510.5,503.3,510.5,500,510.5z"/>
<path class="st3" d="M665.8,487.1c1.3,1.3,2.7,2.7,4,4c6.7,0,13.4,0,20.1,0c1.5-1.2,3.1-2.4,4.6-3.6c-1.5-1.5-3-2.8-4.4-4.3
	c-6.4,0-12.9,0-19.3,0C669.1,484.5,667.5,485.9,665.8,487.1"/>
<line class="st4" x1="754.2" y1="562.6" x2="754.2" y2="640.9"/>
<line class="st4" x1="742.4" y1="635" x2="754.2" y2="623.2"/>
<line class="st4" x1="766" y1="635" x2="754.2" y2="623.2"/>
<line class="st4" x1="766" y1="568.4" x2="754.2" y2="580.1"/>
<line class="st4" x1="742.4" y1="568.4" x2="754.2" y2="580.1"/>
<line class="st4" x1="788.1" y1="582.3" x2="720.2" y2="621.4"/>
<line class="st4" x1="719.5" y1="608.2" x2="735.5" y2="612.5"/>
<line class="st4" x1="731.2" y1="628.6" x2="735.5" y2="612.5"/>
<line class="st4" x1="789" y1="595.4" x2="772.9" y2="591"/>
<line class="st4" x1="777.2" y1="575" x2="772.9" y2="591"/>
<line class="st4" x1="787.9" y1="621.4" x2="720.2" y2="582.1"/>
<line class="st4" x1="731.2" y1="574.9" x2="735.5" y2="591"/>
<line class="st4" x1="719.4" y1="595.2" x2="735.5" y2="591"/>
<line class="st4" x1="777" y1="628.7" x2="772.8" y2="612.6"/>
<line class="st4" x1="788.9" y1="608.4" x2="772.8" y2="612.6"/>
<line class="st5" x1="774.9" y1="519.2" x2="792.2" y2="489.4"/>
<circle class="st6" cx="774.2" cy="493.1" r="4.8"/>
<circle class="st6" cx="792.5" cy="515.6" r="4.8"/>
</svg>
