<svg xmlns="http://www.w3.org/2000/svg" x="0px" y="0px" viewBox="0 0 900 900" fill="none" xml:space="preserve">
<g clip-path="url(#clip0_1_20)">
<path d="M11.8 3.15905e-06H884.8C889 0.700003 894.9 -0.899997 897.8 3.1C899.9 6.3 898.7 10.4 899 14C899 306.7 899 599.4 899 892.1C899.3 895.7 896.5 899.1 892.9 899.4C890.2 899.6 884.9 899.8 882.2 900H21.6C17.1 899.7 8.20002 899 3.70002 898.7C1.70002 897.6 0.600024 895.5 -0.0999756 893.4V6.8C0.300024 0.700004 7.00002 -0.199997 11.8 3.15905e-06ZM5.10002 3.9C2.20002 5.5 3.50002 9.3 3.20002 11.9C3.20002 305.3 3.20002 598.6 3.20002 892C3.00002 893.8 4.10002 895.8 6.00002 896C8.60002 896.3 11.3 896.2 13.9 896.2C306.2 896.2 598.6 896.2 890.9 896.2C894 896.8 896.5 894.1 895.8 891C895.8 596.6 895.8 302.2 895.8 7.8C896.1 5.5 894.4 3.2 892 3.4C598.7 3.4 305.3 3.4 12 3.4C9.70002 3.6 7.30002 3.1 5.10002 3.9Z" fill="black"/>
<rect x="11.75" y="12.75" width="875.5" height="874.5" rx="2.25" stroke="black" stroke-width="3.5"/>
<path d="M743.1 802C743.3 801.7 743.8 801.2 744 800.9C748 800.6 752 800.7 756 800.8C757.9 800.8 759.5 802 760.8 803.2C765.3 807.2 769.7 811.2 774.2 815.1C779.8 810.8 784.5 805.5 790.2 801.4C794.6 800.2 799.3 800.9 803.8 800.9C805.5 800.8 805.6 802.7 805.6 804C805.6 811.7 805.6 819.4 805.6 827.2C805.6 828.4 805.6 830.4 803.8 830.3C797.8 830.6 791.8 830.3 785.8 830.4C783.4 830.3 780.8 830.8 778.7 829.6C781 827.4 783.2 825.1 785.8 823.3C789.2 823 792.6 823.2 795.9 823.1C796.2 818.2 796.1 813.2 795.9 808.3C788.5 814.6 781.4 821.2 774.1 827.6C769.9 832 763.3 829.9 757.9 830.2C760.8 827 764.1 824.4 767.3 821.5C762.3 817 757.3 812.5 752.3 808.1C752.2 813.1 752.1 818.1 752.3 823C754.6 823 756.9 823.1 759.2 823.2C757.7 826.1 754.9 828 752.4 830C749.4 830.5 746 830.7 743 829.9C742.3 828.4 742.7 826.8 742.5 825.2C743.1 817.3 742.8 809.7 743.1 802Z" fill="black"/>
<path d="M700.3 839.4C702.4 839.5 704.9 838.7 706.5 840.3C707.6 841.2 708.7 842.2 709.8 843.1C711.3 841.8 712.6 840.3 714.3 839.4C715.9 839.2 717.5 839.3 719.1 839.3C719.5 843.8 719.3 848.2 719.3 852.7C717.8 852.7 716.3 852.7 714.8 852.7C714.7 850 714.7 847.4 714.7 844.7C713.2 846.1 711.7 847.5 710 848.6C707.9 848.1 706.5 846 704.9 844.8C704.9 847.4 704.9 850 704.8 852.6C703.3 852.6 701.7 852.6 700.2 852.6C700.1 848.3 700 843.8 700.3 839.4Z" fill="black"/>
<path d="M809.1 839.4C810.7 839.4 812.2 839.3 813.8 839.5C815.6 840.3 817 841.9 818.5 843.2C820 841.9 821.4 840.3 823.3 839.5C824.9 839.3 826.5 839.4 828.1 839.5C828.2 843.9 828.2 848.4 828.1 852.8C826.6 852.8 825.1 852.8 823.6 852.8C823.5 850.1 823.5 847.4 823.6 844.7C822 846.3 820.3 847.9 818.3 849C816.8 847.6 815.2 846.2 813.7 844.9C813.7 847.5 813.7 850.1 813.7 852.7C812.1 852.7 810.6 852.7 809.1 852.8C808.9 848.3 808.7 843.8 809.1 839.4Z" fill="black"/>
<path d="M721.5 851.8C721.6 847.8 720.6 843.2 722.1 839.6C728.1 839.3 734.1 839.5 740 839.5C740 840.3 739.9 842 739.9 842.8C735.3 842.9 730.7 842.8 726.1 842.9C726.1 845 726.1 847.1 726.1 849.3C730.7 849.5 735.3 849.4 739.9 849.4C739.9 850.5 739.9 851.6 739.9 852.7C734 852.7 728.1 852.9 722.2 852.6C722.1 852.4 721.7 852 721.5 851.8Z" fill="black"/>
<path d="M742.1 839.8C748.4 839.2 754.7 839.5 761 839.7C761.2 843.9 761.1 848.1 761.1 852.4C757.4 853.2 753.7 852.7 750 852.8C747.4 852.8 744.7 853.1 742.1 852.3C742.1 848.1 742.1 843.9 742.1 839.8ZM746.9 843C746.9 845.1 746.9 847.1 746.9 849.2C750.1 849.2 753.2 849.2 756.4 849.2C756.4 847.1 756.4 845.1 756.4 843C753.2 843 750 843 746.9 843Z" fill="black"/>
<path d="M766.1 839.7C767.6 839.6 769.1 839.6 770.5 839.4C770.7 841.8 770.8 844.2 770.7 846.6C773.9 846.6 777.2 846.6 780.4 846.6C780.3 844.2 780.5 841.8 780.6 839.4C782.1 839.4 783.5 839.5 785 839.5C785.1 843.9 785.1 848.3 785 852.7C783.6 852.7 782.2 852.8 780.8 852.8C780.7 852.1 780.5 850.7 780.3 850C777.1 850 773.9 850 770.8 850C770.7 850.7 770.6 852.1 770.5 852.8C769 852.7 767.6 852.7 766.1 852.7C765.9 848.4 766 844 766.1 839.7Z" fill="black"/>
<path d="M787.7 839.6C793.9 839.5 800.2 839.4 806.4 839.7C806.5 843.9 806.4 848 806.5 852.2C800.5 853.4 794.3 852.7 788.3 852.6L787.7 852C787.3 847.8 787.4 843.7 787.7 839.6ZM792.3 843C792.3 845.1 792.3 847.1 792.3 849.2C795.5 849.2 798.6 849.2 801.8 849.2C801.8 847.1 801.8 845.1 801.8 843C798.6 843 795.4 843 792.3 843Z" fill="black"/>
<path d="M830.7 852.2C830.1 848 830.2 843.8 830.8 839.6C836.9 839.5 843 839.6 849.2 839.6C849.2 840.4 849.2 842 849.2 842.8C844.7 843 840.2 842.6 835.7 843C835.5 843.4 835.2 844.1 835 844.5C839.8 844.7 844.5 844.5 849.3 844.6C849.3 845.4 849.3 847.1 849.3 847.9C844.5 848 839.6 847.7 834.8 848.2C835.2 848.5 836 849 836.3 849.3C840.6 849.6 844.9 849.3 849.2 849.4C849.2 850.5 849.2 851.5 849.2 852.6C843.2 852.5 837.2 852.8 831.3 852.5L830.7 852.2Z" fill="black"/>
<rect x="125" y="132" width="636" height="439" fill="black"/>
<path d="M710 665C713.1 665 716.1 665 719.2 665C723 676.5 727 687.9 730.7 699.5C734.6 688 738.6 676.6 742.5 665.1C745.3 665.1 748 665.1 750.8 665.1C750.8 679.3 750.8 693.5 750.8 707.7C748.7 707.7 746.6 707.7 744.4 707.7C744.4 697 744.4 686.3 744.4 675.5C740.7 686.2 737 696.9 733.2 707.6C731.3 707.6 729.4 707.6 727.5 707.6C723.7 696.6 720 685.6 716.3 674.7C716.3 685.7 716.3 696.6 716.3 707.6C714.2 707.6 712.1 707.6 710 707.6C710 693.5 710 679.2 710 665Z" fill="black"/>
<path d="M137.61 662.11C133.752 664.765 130.538 668.352 128.388 672.486C123.788 680.986 123.888 691.786 128.588 700.186C135.188 712.887 151.788 718.786 164.988 713.286C178.488 708.186 186.388 692.186 182.188 678.286C180.425 671.602 176.075 665.953 170.471 662.157L167.383 666.96C171.589 669.871 174.867 674.089 176.288 679.086C179.088 687.386 176.488 697.186 169.988 703.186C164.188 708.686 155.288 710.987 147.488 708.587C137.988 705.987 130.688 696.786 130.588 686.886C130.215 678.963 134.367 671.263 140.789 666.794L137.61 662.11Z" fill="black"/>
<line x1="154.25" y1="687" x2="154.25" y2="653" stroke="black" stroke-width="5.5"/>
<path d="M422 661C424.2 661 426.4 661 428.6 661C435.4 672.7 442.1 684.5 448.9 696.2C455.7 684.5 462.5 672.7 469.3 661C471.5 661 473.7 661 475.9 661C466.9 676.6 458 692.1 448.9 707.7C440 692.1 430.9 676.6 422 661Z" fill="black"/>
<path d="M566 707.7C574.9 692.1 583.9 676.6 592.9 661C601.9 676.5 610.9 692 619.8 707.6C617.6 707.6 615.4 707.6 613.2 707.6C606.4 695.9 599.7 684.1 592.9 672.4C586.1 684.2 579.3 695.9 572.5 707.7C570.4 707.8 568.2 707.8 566 707.7Z" fill="black"/>
<path d="M289 663C298.5 663 308 663 317.5 663C317.5 664.7 317.5 666.4 317.5 668.1C309.8 668.1 302.1 668.1 294.4 668.1C294.4 672.5 294.4 676.9 294.4 681.3C301.1 681.3 307.7 681.3 314.4 681.3C314.4 682.9 314.4 684.4 314.4 686C307.7 686 301.1 686 294.4 686C294.4 692.4 294.4 698.8 294.4 705.2C292.6 705.2 290.8 705.2 289 705.2C289 691.3 289 677.2 289 663Z" fill="black"/>
<path fill-rule="evenodd" clip-rule="evenodd" d="M594 304.551C591.6 302.651 592.2 298.351 595.1 297.351C598.2 295.851 602.1 299.451 600.8 302.651C599.9 305.451 596.1 306.451 594 304.551ZM599.8 325.651C595.8 319.951 596.2 310.651 602 306.251C607.6 302.151 617.1 304.251 618.9 311.551C618.1 311.751 617.275 311.976 616.45 312.201C615.625 312.426 614.8 312.651 614 312.851C613.764 312.52 613.544 312.161 613.322 311.799C612.607 310.631 611.874 309.433 610.5 309.051C607.7 307.951 604.2 309.451 603.2 312.351C602.2 315.251 602.3 318.551 603.2 321.551C604 324.851 608.3 326.551 611.2 324.751C612.5 323.798 613.124 322.319 613.723 320.901C613.815 320.682 613.907 320.465 614 320.251C615.214 320.63 616.486 321.01 617.727 321.389C618.122 321.51 618.514 321.63 618.9 321.751C617.4 330.551 604.7 332.551 599.8 325.651ZM342.1 311.901C341.125 309.926 340.15 307.951 339.2 305.951C347.058 305.771 354.952 305.807 362.86 305.843C368.136 305.867 373.418 305.891 378.7 305.851C381.1 305.751 383.4 306.151 385.6 306.851C384.88 307.917 384.159 308.975 383.441 310.03C381.667 312.634 379.908 315.217 378.2 317.851H345C344.05 315.851 343.075 313.876 342.1 311.901ZM426.3 317.851C424.3 313.951 422.4 309.951 420.5 305.951C427.037 305.901 433.55 305.876 440.05 305.851C446.575 305.826 453.087 305.801 459.6 305.751C462 305.651 464.5 306.051 466.8 306.851C464.4 310.451 461.9 314.151 459.4 317.851H426.3ZM511.3 317.851C509.3 313.951 507.4 309.951 505.5 305.951C513.159 305.837 520.786 305.853 528.398 305.869C534.104 305.882 539.802 305.894 545.5 305.851C547.6 305.751 549.7 306.251 551.8 306.851C549.4 310.451 546.9 314.151 544.4 317.851H511.3ZM408.291 347.336C409.128 337.195 409.971 326.98 410.9 316.851C411.2 312.651 414 309.151 417.5 307.051C418.22 308.611 418.988 310.139 419.753 311.661C420.9 313.943 422.04 316.211 423 318.551C422.625 324.801 422.055 331.052 421.484 337.303C421.142 341.052 420.8 344.801 420.5 348.551C419.25 349.551 417.975 350.526 416.7 351.501C415.425 352.476 414.15 353.451 412.9 354.451L408.1 349.651L408.291 347.336ZM493.291 347.336C494.128 337.195 494.971 326.98 495.9 316.851C496.2 312.651 499 309.151 502.5 306.951C503.111 308.54 503.975 310.082 504.839 311.626C506.803 315.135 508.772 318.654 507.8 322.751C507.4 327.051 507.025 331.351 506.65 335.651C506.275 339.951 505.9 344.251 505.5 348.551C505.01 348.928 504.523 349.302 504.039 349.673C501.957 351.271 499.928 352.828 497.9 354.451L493.1 349.651L493.291 347.336ZM378.334 338.946C378.824 332.941 379.315 326.926 380 320.951C382.016 317.483 384.357 314.211 386.709 310.923C387.274 310.134 387.839 309.345 388.4 308.551C390.9 311.351 392.8 314.851 392.5 318.651C392.023 323.85 391.569 329.027 391.116 334.192C390.619 339.855 390.123 345.503 389.6 351.151C387.7 352.551 385.9 354.151 384.2 355.751C382.323 354.596 380.759 353.076 379.206 351.568C378.608 350.987 378.012 350.407 377.4 349.851C377.74 346.226 378.037 342.588 378.334 338.946ZM459.747 337.536C460.188 332.108 460.629 326.679 461.2 321.251C462.675 318.546 464.491 315.992 466.298 313.45C467.431 311.857 468.56 310.269 469.6 308.651C472.4 311.251 474.2 314.951 473.8 318.851C473.329 325.156 472.753 331.461 472.176 337.786C471.773 342.195 471.37 346.615 471 351.051C470.665 351.319 470.332 351.585 470.002 351.848C468.363 353.157 466.781 354.419 465.2 355.751C463 353.751 460.8 351.751 458.7 349.751C459.086 345.679 459.416 341.608 459.747 337.536ZM333.3 357.051C335.8 355.051 338.3 353.051 340.9 351.051C346.45 351.101 352 351.101 357.563 351.101C363.125 351.101 368.7 351.101 374.3 351.151C375.686 352.537 377.116 353.88 378.561 355.237C379.305 355.935 380.052 356.637 380.8 357.351L373.3 363.351H339.8C337.6 361.251 335.4 359.151 333.3 357.051ZM420.403 352.382C420.974 351.939 421.542 351.497 422.1 351.051C427.65 351.051 433.2 351.076 438.75 351.101C444.3 351.126 449.85 351.151 455.4 351.151C457.13 352.655 458.747 354.216 460.378 355.791C460.916 356.31 461.455 356.83 462 357.351C460.75 358.351 459.525 359.351 458.3 360.351C457.075 361.351 455.85 362.351 454.6 363.351C450.863 363.351 447.137 363.34 443.415 363.329C435.982 363.306 428.563 363.284 421.1 363.351C420.57 362.846 420.041 362.336 419.51 361.824C417.935 360.304 416.345 358.772 414.7 357.351C416.409 355.487 418.419 353.924 420.403 352.382ZM499.6 357.051C502.2 355.151 504.7 353.151 507.2 351.151C512.75 351.101 518.3 351.101 523.85 351.101C529.4 351.101 534.95 351.101 540.5 351.051C542.7 353.051 544.9 355.151 547.1 357.251C544.6 359.351 542.1 361.351 539.6 363.351H506.1C504.258 361.749 502.545 360.02 500.857 358.316C500.437 357.892 500.018 357.469 499.6 357.051ZM403.9 395.951C404.9 385.051 405.9 374.151 406.8 363.251C408.598 361.752 410.397 360.354 412.195 358.955L412.2 358.951L418.9 365.651C418.54 369.291 418.244 372.931 417.948 376.572C417.504 382.031 417.06 387.491 416.4 392.951C414.632 396.414 412.592 399.822 410.561 403.216C409.835 404.429 409.111 405.64 408.4 406.851C405.4 404.151 403.4 400.051 403.9 395.951ZM322.7 395.951C323.6 385.051 324.6 374.051 325.6 363.151L325.601 363.15C327.401 361.75 329.2 360.35 331 358.851L337.7 365.551C337.34 369.19 337.044 372.829 336.748 376.468C336.304 381.929 335.86 387.39 335.2 392.851C333.394 396.318 331.38 399.681 329.383 403.015C328.615 404.296 327.85 405.574 327.1 406.851C324.2 404.051 322.2 400.051 322.7 395.951ZM461.748 361.451C462.562 360.791 463.381 360.127 464.2 359.451C466 361.151 467.8 362.851 469.8 364.651C469.458 368.552 469.127 372.465 468.797 376.382C468.161 383.91 467.524 391.452 466.8 398.951C466.4 402.651 463.9 405.851 460.9 407.951C459.534 405.715 458.245 403.441 456.961 401.176C456.177 399.794 455.396 398.415 454.6 397.051C455.05 391.701 455.525 386.376 456 381.052C456.475 375.726 456.95 370.401 457.4 365.051C458.817 363.827 460.275 362.645 461.748 361.451ZM541 381.052C541.475 375.726 541.95 370.401 542.4 365.051C544.6 363.151 546.9 361.351 549.3 359.651C551.1 361.251 553 362.951 554.8 364.651C554.3 370.201 553.825 375.751 553.35 381.301C552.875 386.851 552.4 392.401 551.9 397.951C551.7 402.051 549.2 405.651 545.9 407.951C544.534 405.715 543.245 403.441 541.961 401.176C541.177 399.794 540.396 398.415 539.6 397.051C540.05 391.701 540.525 386.376 541 381.052ZM333.55 402.851C334.675 400.926 335.8 399.001 336.9 397.051C347.8 397.051 358.7 397.051 369.7 396.951C370.714 398.758 371.747 400.547 372.775 402.324C374.077 404.578 375.37 406.814 376.6 409.051C369.792 409.305 363.024 409.277 356.245 409.248C352.37 409.231 348.492 409.215 344.6 409.251C343.201 409.222 341.793 409.252 340.384 409.283C336.96 409.356 333.53 409.43 330.2 408.651C331.3 406.701 332.425 404.776 333.55 402.851ZM415.274 401.962C416.224 400.328 417.171 398.698 418.1 397.051C429.1 397.051 440.1 397.051 451 397.151C451.766 398.484 452.544 399.806 453.322 401.128C454.877 403.772 456.433 406.417 457.9 409.151C451.092 409.405 444.243 409.376 437.38 409.348C433.457 409.331 429.528 409.314 425.6 409.351C423.998 409.284 422.407 409.306 420.824 409.329C417.663 409.373 414.531 409.417 411.4 408.751C412.671 406.441 413.975 404.197 415.274 401.962ZM499.849 402.853C500.974 400.927 502.1 399.002 503.2 397.051H536C536.766 398.384 537.544 399.706 538.322 401.028C539.877 403.672 541.433 406.317 542.9 409.051C536.028 409.305 529.196 409.277 522.354 409.248C518.443 409.231 514.528 409.215 510.6 409.251C509.23 409.222 507.851 409.252 506.471 409.283C503.118 409.356 499.759 409.43 496.5 408.651C497.6 406.702 498.724 404.777 499.849 402.853ZM473 414.251C473.2 410.651 473.4 406.951 473.6 403.351H483.2C483.1 406.951 482.9 410.651 482.7 414.251H473Z" fill="white"/>
<path fill-rule="evenodd" clip-rule="evenodd" d="M378.1 200.789L375.4 195.089C377.394 195.089 379.397 195.073 381.405 195.057C386.446 195.016 391.523 194.975 396.6 195.189L396.595 195.197C395.397 197.094 394.198 198.992 393 200.789H378.1ZM431.9 200.789C430.9 198.889 430 196.989 429.1 195.089C431.129 195.089 433.157 195.073 435.186 195.057C440.257 195.016 445.329 194.975 450.4 195.189C449.498 196.618 448.539 198.047 447.608 199.433C447.302 199.89 446.998 200.343 446.7 200.789C445.07 200.789 443.43 200.778 441.785 200.767C438.485 200.745 435.17 200.722 431.9 200.789ZM468.401 195.091L468.4 195.089C470.336 195.089 472.273 195.067 474.209 195.045C479.373 194.985 484.536 194.926 489.7 195.289C489.1 196.19 488.5 197.115 487.899 198.04C487.3 198.965 486.7 199.89 486.1 200.789H471.2C470.2 198.89 469.3 196.99 468.401 195.091ZM423.25 210.364C423.541 206.681 423.83 203.013 424.3 199.389C424.486 197.807 425.539 196.658 426.49 195.619C426.561 195.542 426.631 195.465 426.7 195.389C426.881 195.736 427.066 196.082 427.25 196.43C428.185 198.188 429.132 199.969 429.8 201.889C429.685 204.356 429.439 206.855 429.193 209.349C429.01 211.204 428.828 213.056 428.7 214.889C428.1 215.389 427.5 215.864 426.9 216.339C426.3 216.814 425.7 217.289 425.1 217.789C424.8 217.539 424.375 217.164 423.95 216.789C423.525 216.414 423.1 216.039 422.8 215.789C422.964 213.98 423.107 212.17 423.25 210.364ZM462.465 210.344C462.78 206.701 463.094 203.072 463.5 199.489C463.59 197.875 464.564 196.743 465.557 195.589C465.672 195.456 465.786 195.323 465.9 195.189C466.099 195.569 466.301 195.949 466.504 196.329C467.421 198.052 468.345 199.787 469 201.589C469 204.156 468.762 206.722 468.524 209.289C468.354 211.122 468.183 212.956 468.1 214.789C467.45 215.289 466.825 215.764 466.2 216.239C465.575 216.714 464.95 217.189 464.3 217.689C463.7 217.089 462.6 216.089 462 215.589C462.162 213.84 462.313 212.09 462.465 210.344ZM353.7 215.289C354 211.889 354.3 208.389 354.6 204.889C354.668 202.712 355.939 200.998 357.217 199.275C357.818 198.465 358.42 197.653 358.9 196.789C359.054 197.04 359.224 197.292 359.395 197.546C360.111 198.607 360.861 199.718 360.7 201.089C360.521 204.011 360.236 206.896 359.949 209.789C359.756 211.748 359.561 213.711 359.4 215.689C358.95 216.089 358.475 216.464 358 216.84C357.525 217.214 357.05 217.589 356.6 217.989C356.1 217.539 355.625 217.089 355.15 216.639C354.675 216.189 354.2 215.739 353.7 215.289ZM394.1 202.789C395.3 200.789 396.7 198.789 398.1 196.889C398.26 197.149 398.436 197.409 398.613 197.671C399.323 198.72 400.06 199.809 399.9 201.089C399.768 204.331 399.46 207.529 399.152 210.741C398.994 212.384 398.835 214.031 398.7 215.689C398.2 216.089 397.725 216.464 397.25 216.839C396.775 217.214 396.3 217.589 395.8 217.989C394.8 216.989 393.9 216.089 392.9 215.189C393.109 213.477 393.23 211.747 393.352 210.015C393.522 207.599 393.692 205.177 394.1 202.789ZM447.109 209.822C447.288 207.545 447.467 205.267 447.8 202.989C448.523 201.542 449.463 200.225 450.392 198.923C450.875 198.246 451.355 197.574 451.8 196.889C451.901 197.035 452.004 197.181 452.108 197.327C452.93 198.486 453.777 199.68 453.6 201.189C453.468 204.431 453.16 207.628 452.852 210.84C452.694 212.483 452.535 214.131 452.4 215.789C451.4 216.589 450.5 217.289 449.5 218.089C448.501 217.19 447.501 216.191 446.602 215.291L446.6 215.289C446.822 213.467 446.965 211.645 447.109 209.822ZM490.923 197.264L491.2 196.889C491.318 197.082 491.444 197.274 491.57 197.469C492.295 198.585 493.056 199.756 492.8 201.289C492.668 204.531 492.36 207.729 492.052 210.941C491.894 212.584 491.735 214.231 491.6 215.889C491.1 216.289 490.625 216.664 490.15 217.039C489.675 217.414 489.2 217.789 488.7 218.189C487.8 217.189 486.9 216.189 485.9 215.289C486.109 213.577 486.23 211.847 486.352 210.115C486.522 207.699 486.692 205.277 487.1 202.889C488.221 200.927 489.605 199.052 490.923 197.264ZM407.75 209.089C407.875 207.689 408 206.289 408.1 204.889H415.3C415.2 206.289 415.075 207.689 414.95 209.089C414.825 210.489 414.7 211.889 414.6 213.289H407.4C407.5 211.889 407.625 210.489 407.75 209.089ZM375.8 222.089L372.8 219.089C374.099 218.19 375.299 217.19 376.498 216.191L376.5 216.189H390.9C391.45 216.739 391.999 217.264 392.549 217.788C393.099 218.314 393.65 218.839 394.2 219.389C393.65 219.839 393.075 220.289 392.5 220.739C391.925 221.189 391.35 221.639 390.8 222.089H375.8ZM352.559 228.649C352.724 226.972 352.889 225.288 353 223.589C353.599 223.14 354.199 222.665 354.799 222.19C355.399 221.715 356 221.24 356.6 220.789L358.9 223.089C358.65 225.639 358.45 228.189 358.25 230.739C358.05 233.289 357.85 235.839 357.6 238.389C357.6 239.937 356.565 241.115 355.576 242.241C355.414 242.425 355.254 242.607 355.1 242.789C354.797 242.265 354.485 241.756 354.177 241.252C353.368 239.928 352.579 238.637 352 237.189C352 234.351 352.279 231.512 352.559 228.649ZM368.072 228.723C368.262 226.642 368.452 224.566 368.6 222.489C369.2 221.989 370.6 220.989 371.3 220.589C371.85 221.089 372.375 221.614 372.9 222.139C373.425 222.664 373.95 223.189 374.5 223.689C374.351 225.138 374.244 226.587 374.137 228.031C373.957 230.473 373.777 232.901 373.4 235.289C372.709 236.986 371.741 238.564 370.77 240.149C370.195 241.085 369.62 242.023 369.1 242.989C368.961 242.799 368.814 242.608 368.665 242.416C367.955 241.499 367.217 240.547 367.3 239.389C367.426 235.803 367.75 232.256 368.072 228.723ZM421.761 228.804C421.955 226.706 422.149 224.605 422.3 222.489C423.2 221.889 424.1 221.189 425 220.389C426.1 221.389 427.1 222.389 428.2 223.489C427.993 225.146 427.872 226.802 427.751 228.452C427.58 230.785 427.41 233.104 427 235.389C426.241 237.035 425.281 238.6 424.324 240.161C423.769 241.067 423.214 241.971 422.7 242.889C422.525 242.589 422.325 242.295 422.125 242.002C421.525 241.12 420.925 240.239 421 239.189C421.124 235.705 421.442 232.259 421.761 228.804ZM445.304 230.342C445.503 228.082 445.701 225.824 445.9 223.589C447.1 222.689 448.3 221.789 449.3 220.689C449.6 220.939 450.05 221.339 450.5 221.739C450.95 222.139 451.4 222.539 451.7 222.789C451.3 227.989 450.9 233.189 450.4 238.289C450.4 239.933 449.352 241.128 448.357 242.262C448.202 242.439 448.048 242.614 447.9 242.789C447.603 242.276 447.306 241.77 447.01 241.267C446.213 239.909 445.43 238.576 444.7 237.189C444.901 234.923 445.103 232.632 445.304 230.342ZM460.75 230.393C460.975 227.767 461.2 225.141 461.4 222.489C462.123 222.007 462.846 221.46 463.518 220.953C463.682 220.829 463.843 220.707 464 220.589C464.531 221.068 465.091 221.574 465.664 222.094C466.169 222.552 466.685 223.021 467.2 223.489C467.066 224.83 466.977 226.182 466.887 227.538C466.71 230.226 466.532 232.93 466 235.589C465.132 237.469 464.056 239.192 462.959 240.948C462.538 241.62 462.115 242.297 461.7 242.989C461.615 242.848 461.529 242.707 461.443 242.567C460.623 241.221 459.828 239.919 460.1 238.289C460.3 235.641 460.525 233.017 460.75 230.393ZM484.6 230.389C484.8 228.114 485 225.839 485.2 223.589C485.979 223.005 486.716 222.379 487.438 221.765C487.828 221.433 488.214 221.105 488.6 220.789C489 221.139 489.4 221.514 489.8 221.889C490.2 222.264 490.6 222.639 491 222.989C490.75 225.539 490.55 228.089 490.35 230.639C490.15 233.189 489.95 235.739 489.7 238.289C489.626 239.54 488.958 240.628 488.291 241.713C488.051 242.103 487.811 242.493 487.6 242.889C486.2 241.089 485 239.189 484 237.189C484.2 234.939 484.4 232.664 484.6 230.389ZM405.95 230.589C406.075 229.164 406.2 227.739 406.3 226.289H413.5C413.405 227.626 413.286 228.984 413.167 230.355C413.036 231.857 412.905 233.373 412.8 234.889H405.6C405.7 233.439 405.825 232.014 405.95 230.589ZM373.868 238.413C373.979 238.238 374.09 238.064 374.2 237.889H389C389.55 238.839 390.1 239.814 390.65 240.789C391.2 241.764 391.75 242.739 392.3 243.689C388.426 243.853 384.582 243.838 380.752 243.823C377.562 243.811 374.381 243.798 371.2 243.889C371.654 241.891 372.768 240.141 373.868 238.413ZM426.249 240.69C426.8 239.765 427.35 238.84 427.9 237.889C432.8 237.889 437.8 237.889 442.7 237.789C443.25 238.74 443.8 239.715 444.35 240.69C444.9 241.665 445.45 242.64 446 243.589C444.328 243.612 442.662 243.652 441 243.691C435.503 243.821 430.051 243.95 424.6 243.489C425.15 242.54 425.7 241.615 426.249 240.69ZM467.199 237.891L467.2 237.889H481.9L481.909 237.905C483.006 239.8 484.103 241.695 485.2 243.689C481.2 243.804 477.167 243.787 473.138 243.771C470.118 243.759 467.1 243.746 464.1 243.789C464.8 241.69 465.999 239.79 467.199 237.891Z" fill="white"/>
<line x1="147" y1="266" x2="743" y2="266" stroke="white" stroke-width="4"/>
<line x1="147" y1="445" x2="743" y2="445" stroke="white" stroke-width="4"/>
<path fill-rule="evenodd" clip-rule="evenodd" d="M300.08 512.832C301.108 512.832 302.137 512.318 302.137 511.804C302.651 510.775 302.651 509.747 302.137 509.233C301.622 508.205 301.108 508.205 300.08 508.205H291.34C290.312 508.205 289.798 508.719 289.284 509.233C288.769 510.261 288.769 510.775 289.284 511.804C289.798 512.318 290.312 512.832 291.34 512.832H300.08Z" fill="white"/>
<path fill-rule="evenodd" clip-rule="evenodd" d="M284.142 512.832C285.171 505.12 280.029 497.922 272.318 496.38C264.606 495.352 257.408 501.007 256.38 508.719C255.352 516.431 260.493 523.628 268.205 524.657C275.916 525.685 283.114 520.544 284.142 512.832Z" fill="white"/>
<path fill-rule="evenodd" clip-rule="evenodd" d="M272.317 480.442C272.317 479.928 272.317 478.9 271.289 478.386C270.775 477.871 269.747 477.871 268.719 478.386C268.204 478.9 267.69 479.928 267.69 480.442V489.696C267.69 490.21 268.204 491.239 269.233 491.753C269.747 492.267 270.775 492.267 271.289 491.753C272.317 491.239 272.832 490.21 272.832 489.696L272.317 480.442Z" fill="white"/>
<path fill-rule="evenodd" clip-rule="evenodd" d="M240.442 508.205C239.414 508.205 238.9 508.719 238.386 509.747C237.871 510.261 237.871 511.289 238.386 511.804C238.9 512.832 239.414 513.346 240.442 513.346L249.182 512.832C250.21 512.832 250.725 512.832 251.239 511.804C251.753 511.289 251.753 510.261 251.239 509.233C250.725 508.719 250.21 508.205 249.182 508.205H240.442Z" fill="white"/>
<path fill-rule="evenodd" clip-rule="evenodd" d="M247.639 530.312C247.125 530.826 246.611 531.854 247.125 532.369C247.125 533.397 247.639 533.911 248.668 534.425C249.696 534.425 250.21 533.911 250.724 533.397L257.408 527.227C257.922 526.713 257.922 525.685 257.922 524.657C257.408 524.143 256.894 523.114 255.865 523.114C255.351 523.114 254.323 523.114 253.809 523.628L247.639 530.312Z" fill="white"/>
<path fill-rule="evenodd" clip-rule="evenodd" d="M250.725 487.64C250.21 487.126 249.182 487.126 248.154 487.126C247.64 487.64 247.126 488.154 246.612 488.668C246.612 489.696 246.612 490.725 247.126 491.239L253.809 497.408C254.323 497.922 255.352 498.436 255.866 497.922C256.894 497.922 257.408 497.408 257.922 496.38C257.922 495.352 257.922 494.838 256.894 493.809L250.725 487.64Z" fill="white"/>
<path fill-rule="evenodd" clip-rule="evenodd" d="M268.204 540.595C268.204 541.109 268.719 542.137 269.233 542.651C269.747 543.165 270.775 543.165 271.803 542.651C272.317 542.137 272.832 541.109 272.832 540.595V531.34C272.832 530.826 272.317 529.798 271.803 529.284C270.775 529.284 269.747 529.284 269.233 529.284C268.204 529.798 267.69 530.826 267.69 531.34L268.204 540.595Z" fill="white"/>
<path fill-rule="evenodd" clip-rule="evenodd" d="M289.798 533.397C290.312 533.911 291.34 534.425 292.368 533.911C292.882 533.911 293.911 532.883 293.911 532.368C293.911 531.34 293.911 530.312 293.396 529.798L286.713 523.628C286.199 523.114 285.17 522.6 284.656 523.114C283.628 523.114 283.114 524.143 283.114 524.657C282.6 525.685 283.114 526.713 283.628 527.227L289.798 533.397Z" fill="white"/>
<path fill-rule="evenodd" clip-rule="evenodd" d="M292.883 491.239C293.911 490.21 293.911 489.696 293.911 488.668C293.397 487.64 292.883 487.126 291.854 487.126C291.34 486.612 290.312 487.126 289.798 487.64L283.114 493.809C282.6 494.323 282.6 495.352 282.6 496.38C283.114 496.894 283.628 497.922 284.657 497.922C285.171 498.436 286.199 497.922 286.713 497.408L292.883 491.239Z" fill="white"/>
</g>
<defs>
<clipPath id="clip0_1_20">
<rect width="900" height="900" fill="white"/>
</clipPath>
</defs>
</svg>
