<?xml version="1.0" encoding="utf-8"?>
<svg version="1.1" xmlns="http://www.w3.org/2000/svg" xmlns:xlink="http://www.w3.org/1999/xlink" x="0px" y="0px"
	 viewBox="0 0 900 900" style="enable-background:new 0 0 900 900;" xml:space="preserve">
<path d="M11.8 3.15905e-06H884.8C889 0.700003 894.9 -0.899997 897.8 3.1C899.9 6.3 898.7 10.4 899 14C899 306.7 899 599.4 899 892.1C899.3 895.7 896.5 899.1 892.9 899.4C890.2 899.6 884.9 899.8 882.2 900H21.6C17.1 899.7 8.20002 899 3.70002 898.7C1.70002 897.6 0.600024 895.5 -0.0999756 893.4V6.8C0.300024 0.700004 7.00002 -0.199997 11.8 3.15905e-06ZM5.10002 3.9C2.20002 5.5 3.50002 9.3 3.20002 11.9C3.20002 305.3 3.20002 598.6 3.20002 892C3.00002 893.8 4.10002 895.8 6.00002 896C8.60002 896.3 11.3 896.2 13.9 896.2C306.2 896.2 598.6 896.2 890.9 896.2C894 896.8 896.5 894.1 895.8 891C895.8 596.6 895.8 302.2 895.8 7.8C896.1 5.5 894.4 3.2 892 3.4C598.7 3.4 305.3 3.4 12 3.4C9.70002 3.6 7.30002 3.1 5.10002 3.9Z"/>
<path fill-rule="evenodd" clip-rule="evenodd" d="M14 14.5C13.7239 14.5 13.5 14.7239 13.5 15V885C13.5 885.276 13.7238 885.5 14 885.5H885C885.276 885.5 885.5 885.276 885.5 885V15C885.5 14.7239 885.276 14.5 885 14.5H14ZM14 11C11.7909 11 10 12.7909 10 15V885C10 887.209 11.7909 889 14 889H885C887.209 889 889 887.209 889 885V15C889 12.7909 887.209 11 885 11H14Z"/>
<path d="M743.1 802C743.3 801.7 743.8 801.2 744 800.9C748 800.6 752 800.7 756 800.8C757.9 800.8 759.5 802 760.8 803.2C765.3 807.2 769.7 811.2 774.2 815.1C779.8 810.8 784.5 805.5 790.2 801.4C794.6 800.2 799.3 800.9 803.8 800.9C805.5 800.8 805.6 802.7 805.6 804C805.6 811.7 805.6 819.4 805.6 827.2C805.6 828.4 805.6 830.4 803.8 830.3C797.8 830.6 791.8 830.3 785.8 830.4C783.4 830.3 780.8 830.8 778.7 829.6C781 827.4 783.2 825.1 785.8 823.3C789.2 823 792.6 823.2 795.9 823.1C796.2 818.2 796.1 813.2 795.9 808.3C788.5 814.6 781.4 821.2 774.1 827.6C769.9 832 763.3 829.9 757.9 830.2C760.8 827 764.1 824.4 767.3 821.5C762.3 817 757.3 812.5 752.3 808.1C752.2 813.1 752.1 818.1 752.3 823C754.6 823 756.9 823.1 759.2 823.2C757.7 826.1 754.9 828 752.4 830C749.4 830.5 746 830.7 743 829.9C742.3 828.4 742.7 826.8 742.5 825.2C743.1 817.3 742.8 809.7 743.1 802Z"/>
<path d="M700.3 839.4C702.4 839.5 704.9 838.7 706.5 840.3C707.6 841.2 708.7 842.2 709.8 843.1C711.3 841.8 712.6 840.3 714.3 839.4C715.9 839.2 717.5 839.3 719.1 839.3C719.5 843.8 719.3 848.2 719.3 852.7C717.8 852.7 716.3 852.7 714.8 852.7C714.7 850 714.7 847.4 714.7 844.7C713.2 846.1 711.7 847.5 710 848.6C707.9 848.1 706.5 846 704.9 844.8C704.9 847.4 704.9 850 704.8 852.6C703.3 852.6 701.7 852.6 700.2 852.6C700.1 848.3 700 843.8 700.3 839.4Z"/>
<path d="M809.1 839.4C810.7 839.4 812.2 839.3 813.8 839.5C815.6 840.3 817 841.9 818.5 843.2C820 841.9 821.4 840.3 823.3 839.5C824.9 839.3 826.5 839.4 828.1 839.5C828.2 843.9 828.2 848.4 828.1 852.8C826.6 852.8 825.1 852.8 823.6 852.8C823.5 850.1 823.5 847.4 823.6 844.7C822 846.3 820.3 847.9 818.3 849C816.8 847.6 815.2 846.2 813.7 844.9C813.7 847.5 813.7 850.1 813.7 852.7C812.1 852.7 810.6 852.7 809.1 852.8C808.9 848.3 808.7 843.8 809.1 839.4Z"/>
<path d="M721.5 851.8C721.6 847.8 720.6 843.2 722.1 839.6C728.1 839.3 734.1 839.5 740 839.5C740 840.3 739.9 842 739.9 842.8C735.3 842.9 730.7 842.8 726.1 842.9C726.1 845 726.1 847.1 726.1 849.3C730.7 849.5 735.3 849.4 739.9 849.4C739.9 850.5 739.9 851.6 739.9 852.7C734 852.7 728.1 852.9 722.2 852.6C722.1 852.4 721.7 852 721.5 851.8Z"/>
<path d="M742.1 839.8C748.4 839.2 754.7 839.5 761 839.7C761.2 843.9 761.1 848.1 761.1 852.4C757.4 853.2 753.7 852.7 750 852.8C747.4 852.8 744.7 853.1 742.1 852.3C742.1 848.1 742.1 843.9 742.1 839.8ZM746.9 843C746.9 845.1 746.9 847.1 746.9 849.2C750.1 849.2 753.2 849.2 756.4 849.2C756.4 847.1 756.4 845.1 756.4 843C753.2 843 750 843 746.9 843Z"/>
<path d="M766.1 839.7C767.6 839.6 769.1 839.6 770.5 839.4C770.7 841.8 770.8 844.2 770.7 846.6C773.9 846.6 777.2 846.6 780.4 846.6C780.3 844.2 780.5 841.8 780.6 839.4C782.1 839.4 783.5 839.5 785 839.5C785.1 843.9 785.1 848.3 785 852.7C783.6 852.7 782.2 852.8 780.8 852.8C780.7 852.1 780.5 850.7 780.3 850C777.1 850 773.9 850 770.8 850C770.7 850.7 770.6 852.1 770.5 852.8C769 852.7 767.6 852.7 766.1 852.7C765.9 848.4 766 844 766.1 839.7Z"/>
<path d="M787.7 839.6C793.9 839.5 800.2 839.4 806.4 839.7C806.5 843.9 806.4 848 806.5 852.2C800.5 853.4 794.3 852.7 788.3 852.6L787.7 852C787.3 847.8 787.4 843.7 787.7 839.6ZM792.3 843C792.3 845.1 792.3 847.1 792.3 849.2C795.5 849.2 798.6 849.2 801.8 849.2C801.8 847.1 801.8 845.1 801.8 843C798.6 843 795.4 843 792.3 843Z"/>
<path d="M830.7 852.2C830.1 848 830.2 843.8 830.8 839.6C836.9 839.5 843 839.6 849.2 839.6C849.2 840.4 849.2 842 849.2 842.8C844.7 843 840.2 842.6 835.7 843C835.5 843.4 835.2 844.1 835 844.5C839.8 844.7 844.5 844.5 849.3 844.6C849.3 845.4 849.3 847.1 849.3 847.9C844.5 848 839.6 847.7 834.8 848.2C835.2 848.5 836 849 836.3 849.3C840.6 849.6 844.9 849.3 849.2 849.4C849.2 850.5 849.2 851.5 849.2 852.6C843.2 852.5 837.2 852.8 831.3 852.5L830.7 852.2Z"/>
<path d="M710 665C713.1 665 716.1 665 719.2 665C723 676.5 727 687.9 730.7 699.5C734.6 688 738.6 676.6 742.5 665.1C745.3 665.1 748 665.1 750.8 665.1C750.8 679.3 750.8 693.5 750.8 707.7C748.7 707.7 746.6 707.7 744.4 707.7C744.4 697 744.4 686.3 744.4 675.5C740.7 686.2 737 696.9 733.2 707.6C731.3 707.6 729.4 707.6 727.5 707.6C723.7 696.6 720 685.6 716.3 674.7C716.3 685.7 716.3 696.6 716.3 707.6C714.2 707.6 712.1 707.6 710 707.6C710 693.5 710 679.2 710 665Z"/>
<path d="M137.61 662.11C133.752 664.765 130.538 668.352 128.388 672.486C123.788 680.986 123.888 691.786 128.588 700.186C135.188 712.887 151.788 718.786 164.988 713.286C178.488 708.186 186.388 692.186 182.188 678.286C180.425 671.602 176.075 665.953 170.471 662.157L167.383 666.96C171.589 669.871 174.867 674.089 176.288 679.086C179.088 687.386 176.488 697.186 169.988 703.186C164.188 708.686 155.288 710.987 147.488 708.587C137.988 705.987 130.688 696.786 130.588 686.886C130.215 678.963 134.367 671.263 140.789 666.794L137.61 662.11Z"/>
<path fill-rule="evenodd" clip-rule="evenodd" d="M157 653V687H151.5V653H157Z"/>
<path d="M422 661C424.2 661 426.4 661 428.6 661C435.4 672.7 442.1 684.5 448.9 696.2C455.7 684.5 462.5 672.7 469.3 661C471.5 661 473.7 661 475.9 661C466.9 676.6 458 692.1 448.9 707.7C440 692.1 430.9 676.6 422 661Z"/>
<path d="M566 707.7C574.9 692.1 583.9 676.6 592.9 661C601.9 676.5 610.9 692 619.8 707.6C617.6 707.6 615.4 707.6 613.2 707.6C606.4 695.9 599.7 684.1 592.9 672.4C586.1 684.2 579.3 695.9 572.5 707.7C570.4 707.8 568.2 707.8 566 707.7Z"/>
<path d="M289 663C298.5 663 308 663 317.5 663C317.5 664.7 317.5 666.4 317.5 668.1C309.8 668.1 302.1 668.1 294.4 668.1C294.4 672.5 294.4 676.9 294.4 681.3C301.1 681.3 307.7 681.3 314.4 681.3C314.4 682.9 314.4 684.4 314.4 686C307.7 686 301.1 686 294.4 686C294.4 692.4 294.4 698.8 294.4 705.2C292.6 705.2 290.8 705.2 289 705.2C289 691.3 289 677.2 289 663Z"/>
<path fill-rule="evenodd" clip-rule="evenodd" d="M761 132H125V571H761V132ZM595.1 297.351C592.2 298.351 591.6 302.651 594 304.551C596.1 306.451 599.9 305.451 600.8 302.651C602.1 299.451 598.2 295.851 595.1 297.351ZM602 306.251C596.2 310.651 595.8 319.951 599.8 325.651C604.7 332.551 617.4 330.551 618.9 321.751C618.677 321.681 618.453 321.612 618.227 321.542L617.907 321.444L617.727 321.389C617.548 321.334 617.367 321.279 617.186 321.224C616.941 321.15 616.694 321.075 616.447 321C615.623 320.75 614.799 320.501 614 320.251C613.906 320.465 613.815 320.682 613.723 320.901L613.722 320.902C613.123 322.32 612.499 323.798 611.2 324.751C608.3 326.551 604 324.851 603.2 321.551C602.3 318.551 602.2 315.251 603.2 312.351C604.2 309.451 607.7 307.951 610.5 309.051C611.874 309.433 612.607 310.631 613.322 311.799C613.544 312.161 613.764 312.52 614 312.851C614.797 312.652 615.62 312.427 616.442 312.203L616.458 312.199C617.281 311.974 618.103 311.75 618.9 311.551C617.1 304.251 607.6 302.151 602 306.251ZM342.088 311.877L342.112 311.925L342.117 311.935C343.086 313.898 344.056 315.862 345 317.851H378.2C379.908 315.217 381.667 312.634 383.441 310.03L383.453 310.012L383.5 309.943C384.199 308.917 384.899 307.888 385.6 306.851C383.4 306.151 381.1 305.751 378.7 305.851C373.421 305.891 368.142 305.867 362.869 305.843H362.86C354.952 305.807 347.058 305.771 339.2 305.951C340.145 307.939 341.114 309.903 342.083 311.867L342.088 311.877ZM420.5 305.951C422.4 309.951 424.3 313.951 426.3 317.851H459.4C461.9 314.151 464.4 310.451 466.8 306.851C464.5 306.051 462 305.651 459.6 305.751C453.087 305.801 446.575 305.826 440.05 305.851C433.55 305.876 427.037 305.901 420.5 305.951ZM505.5 305.951C507.4 309.951 509.3 313.951 511.3 317.851H544.4C546.9 314.151 549.4 310.451 551.8 306.851C549.7 306.251 547.6 305.751 545.5 305.851C539.802 305.894 534.104 305.882 528.398 305.869C520.786 305.853 513.159 305.837 505.5 305.951ZM410.9 316.851C409.971 326.98 409.128 337.195 408.291 347.336L408.1 349.651L412.9 354.451C414.147 353.453 415.42 352.48 416.692 351.507L416.7 351.501L416.711 351.493L416.712 351.492C417.983 350.52 419.254 349.548 420.5 348.551C420.8 344.801 421.142 341.052 421.484 337.303C422.055 331.052 422.625 324.801 423 318.551C422.04 316.212 420.901 313.944 419.754 311.663L419.753 311.662C418.988 310.14 418.22 308.611 417.5 307.051C414 309.151 411.2 312.651 410.9 316.851ZM495.9 316.851C494.971 326.98 494.128 337.195 493.291 347.336L493.1 349.651L497.9 354.451C499.925 352.83 501.951 351.276 504.03 349.68L504.039 349.673C504.523 349.302 505.01 348.928 505.5 348.551C505.9 344.251 506.275 339.951 506.65 335.651C507.025 331.351 507.4 327.051 507.8 322.751C508.772 318.654 506.803 315.135 504.839 311.626C503.975 310.082 503.111 308.54 502.5 306.951C499 309.151 496.2 312.651 495.9 316.851ZM380 320.951C379.315 326.926 378.824 332.941 378.334 338.946L378.333 338.967C378.036 342.602 377.739 346.234 377.4 349.851C378.011 350.406 378.606 350.984 379.203 351.564L379.206 351.568C380.759 353.076 382.323 354.596 384.2 355.751C385.9 354.151 387.7 352.551 389.6 351.151C390.121 345.524 390.615 339.898 391.11 334.257L391.111 334.241L391.12 334.138C391.572 328.991 392.025 323.832 392.5 318.651C392.8 314.851 390.9 311.351 388.4 308.551C387.839 309.345 387.274 310.134 386.709 310.923L386.705 310.93C384.354 314.215 382.015 317.485 380 320.951ZM461.2 321.251C460.629 326.679 460.188 332.108 459.747 337.536C459.416 341.608 459.086 345.679 458.7 349.751C460.8 351.751 463 353.751 465.2 355.751C466.781 354.419 468.363 353.157 470.002 351.848C470.332 351.585 470.665 351.319 471 351.051C471.37 346.615 471.773 342.195 472.176 337.786L472.176 337.781C472.753 331.457 473.329 325.154 473.8 318.851C474.2 314.951 472.4 311.251 469.6 308.651C468.56 310.269 467.431 311.857 466.298 313.45C464.491 315.992 462.675 318.546 461.2 321.251ZM340.9 351.051C338.3 353.051 335.8 355.051 333.3 357.051C335.4 359.151 337.6 361.251 339.8 363.351H373.3L380.8 357.351C380.053 356.638 379.306 355.937 378.563 355.239L378.562 355.238L378.561 355.237C377.116 353.88 375.686 352.537 374.3 351.151C368.7 351.101 363.125 351.101 357.563 351.101C352 351.101 346.45 351.101 340.9 351.051ZM422.1 351.051C421.542 351.497 420.974 351.939 420.403 352.382C418.419 353.924 416.409 355.487 414.7 357.351C416.344 358.771 417.933 360.303 419.508 361.821L419.509 361.823L419.526 361.839L419.528 361.841C419.726 362.033 419.925 362.224 420.123 362.414C420.348 362.631 420.573 362.847 420.798 363.063C420.899 363.159 420.999 363.255 421.1 363.351C428.555 363.284 435.965 363.306 443.39 363.329H443.415C447.137 363.34 450.863 363.351 454.6 363.351C455.844 362.356 457.063 361.361 458.282 360.365L458.3 360.351C459.525 359.351 460.75 358.351 462 357.351C461.746 357.109 461.494 356.866 461.242 356.624C461.033 356.423 460.825 356.222 460.617 356.021L460.378 355.791C458.747 354.216 457.13 352.655 455.4 351.151C449.85 351.151 444.3 351.126 438.75 351.101L438.669 351.1C433.146 351.076 427.623 351.051 422.1 351.051ZM507.2 351.151C504.7 353.151 502.2 355.151 499.6 357.051C500.017 357.468 500.434 357.888 500.852 358.311L500.857 358.316C502.545 360.02 504.258 361.749 506.1 363.351H539.6C542.1 361.351 544.6 359.351 547.1 357.251C544.9 355.151 542.7 353.051 540.5 351.051C534.95 351.101 529.4 351.101 523.85 351.101C518.3 351.101 512.75 351.101 507.2 351.151ZM406.8 363.251C405.9 374.151 404.9 385.051 403.9 395.951C403.4 400.051 405.4 404.151 408.4 406.851C409.111 405.64 409.835 404.429 410.561 403.216C412.592 399.822 414.632 396.414 416.4 392.951C417.059 387.495 417.503 382.04 417.947 376.584L417.947 376.582L417.948 376.572C418.244 372.931 418.54 369.291 418.9 365.651L412.2 358.951L412.195 358.955C410.397 360.354 408.598 361.752 406.8 363.251ZM325.6 363.151C324.6 374.051 323.6 385.051 322.7 395.951C322.2 400.051 324.2 404.051 327.1 406.851C327.85 405.574 328.615 404.296 329.383 403.015C331.38 399.681 333.394 396.318 335.2 392.851C335.86 387.391 336.304 381.932 336.748 376.472L336.748 376.469C337.044 372.83 337.34 369.19 337.7 365.551L331 358.851C329.201 360.35 327.402 361.749 325.603 363.149L325.6 363.151ZM464.2 359.451C463.381 360.127 462.562 360.791 461.748 361.451L461.743 361.455C460.272 362.648 458.815 363.829 457.4 365.051C456.95 370.401 456.475 375.726 456 381.052C455.525 386.376 455.05 391.701 454.6 397.051C455.396 398.415 456.177 399.794 456.961 401.176C458.245 403.441 459.534 405.715 460.9 407.951C463.9 405.851 466.4 402.651 466.8 398.951C467.524 391.452 468.161 383.91 468.797 376.382C469.127 372.465 469.458 368.552 469.8 364.651C467.803 362.854 466.006 361.156 464.208 359.459L464.207 359.458L464.2 359.451ZM542.4 365.051C541.95 370.401 541.475 375.726 541 381.052C540.525 386.376 540.05 391.701 539.6 397.051C540.396 398.415 541.177 399.794 541.961 401.176C543.245 403.441 544.534 405.715 545.9 407.951C549.2 405.651 551.7 402.051 551.9 397.951C552.397 392.439 552.869 386.928 553.34 381.416L553.343 381.389L553.35 381.301L553.353 381.266C553.827 375.728 554.301 370.189 554.8 364.651C553 362.951 551.1 361.251 549.3 359.651C546.9 361.351 544.6 363.151 542.4 365.051ZM336.9 397.051C335.8 399.001 334.675 400.926 333.55 402.851C332.425 404.776 331.3 406.701 330.2 408.651C333.53 409.43 336.96 409.356 340.384 409.283H340.39C341.797 409.252 343.203 409.222 344.6 409.251C348.479 409.215 352.346 409.231 356.208 409.247H356.222L356.245 409.248C363.024 409.277 369.792 409.305 376.6 409.051C375.37 406.814 374.077 404.578 372.775 402.324L372.768 402.312C371.743 400.539 370.712 398.754 369.7 396.951C358.7 397.051 347.8 397.051 336.9 397.051ZM418.1 397.051C417.171 398.698 416.224 400.328 415.274 401.962C413.975 404.197 412.671 406.441 411.4 408.751C414.531 409.417 417.663 409.373 420.824 409.329C422.407 409.306 423.998 409.284 425.6 409.351C429.518 409.315 433.436 409.331 437.349 409.347H437.358L437.38 409.348C444.243 409.376 451.092 409.405 457.9 409.151C456.433 406.417 454.877 403.772 453.322 401.128C452.544 399.806 451.766 398.484 451 397.151C440.1 397.051 429.1 397.051 418.1 397.051ZM499.855 402.843L499.849 402.853C498.724 404.777 497.6 406.702 496.5 408.651C499.759 409.43 503.118 409.356 506.471 409.283H506.48C507.857 409.252 509.233 409.222 510.6 409.251C514.516 409.215 518.418 409.231 522.317 409.247H522.33L522.354 409.248C529.196 409.277 536.028 409.305 542.9 409.051C541.433 406.317 539.877 403.672 538.322 401.028C537.544 399.706 536.766 398.384 536 397.051H503.2C502.102 398.998 500.978 400.92 499.855 402.843ZM473.3 408.801C473.2 410.626 473.1 412.451 473 414.251H482.7C482.9 410.651 483.1 406.951 483.2 403.351H473.6C473.545 404.336 473.491 405.329 473.436 406.325L473.3 408.801ZM378.1 200.789L375.4 195.089C377.394 195.089 379.397 195.073 381.405 195.057C386.446 195.016 391.523 194.975 396.6 195.189L396.595 195.197C395.397 197.094 394.198 198.992 393 200.789H378.1ZM431.9 200.789C430.901 198.892 430.003 196.995 429.104 195.098L429.1 195.089C431.129 195.089 433.157 195.073 435.186 195.057C440.257 195.016 445.329 194.975 450.4 195.189C449.498 196.618 448.539 198.047 447.608 199.433C447.459 199.656 447.309 199.878 447.161 200.099C447.006 200.331 446.852 200.561 446.7 200.789C445.07 200.789 443.43 200.778 441.785 200.767C438.485 200.745 435.17 200.722 431.9 200.789ZM468.401 195.091L468.4 195.089C470.336 195.089 472.273 195.067 474.209 195.045C479.373 194.985 484.536 194.926 489.7 195.289C489.1 196.19 488.5 197.115 487.899 198.04C487.3 198.965 486.7 199.89 486.1 200.789H471.2C470.201 198.892 469.303 196.995 468.404 195.097L468.401 195.091ZM423.25 210.364C423.541 206.681 423.83 203.013 424.3 199.389C424.486 197.807 425.539 196.658 426.49 195.619C426.561 195.542 426.631 195.465 426.7 195.389C426.881 195.736 427.066 196.082 427.25 196.43C428.185 198.188 429.132 199.969 429.8 201.889C429.685 204.356 429.439 206.855 429.193 209.349L429.192 209.358C429.01 211.21 428.828 213.058 428.7 214.889C428.1 215.389 427.5 215.864 426.9 216.339L426.896 216.343C426.297 216.817 425.698 217.29 425.1 217.789C424.8 217.539 424.375 217.164 423.95 216.789C423.525 216.414 423.1 216.039 422.8 215.789C422.964 213.98 423.107 212.17 423.25 210.364ZM462.465 210.344C462.78 206.701 463.094 203.072 463.5 199.489C463.59 197.875 464.564 196.743 465.557 195.589L465.613 195.525L465.733 195.385C465.789 195.32 465.845 195.255 465.9 195.189C466.099 195.569 466.301 195.949 466.504 196.329C467.421 198.052 468.345 199.787 469 201.589C469 204.156 468.762 206.722 468.524 209.289C468.354 211.122 468.183 212.956 468.1 214.789C467.45 215.289 466.825 215.764 466.2 216.239C465.575 216.714 464.95 217.189 464.3 217.689C463.7 217.089 462.6 216.089 462 215.589C462.161 213.852 462.311 212.115 462.461 210.382L462.462 210.373L462.463 210.367L462.465 210.344ZM354.588 205.035L354.6 204.889C354.668 202.712 355.939 200.998 357.217 199.275C357.818 198.465 358.42 197.653 358.9 196.789C359.053 197.038 359.221 197.287 359.39 197.538L359.395 197.546C360.111 198.606 360.861 199.718 360.7 201.089C360.521 204.009 360.236 206.893 359.95 209.784L359.949 209.789L359.949 209.798C359.755 211.754 359.561 213.714 359.4 215.689C358.95 216.089 358.475 216.464 358 216.84C357.525 217.214 357.05 217.589 356.6 217.989C356.102 217.541 355.63 217.094 355.157 216.646L355.15 216.639C354.675 216.189 354.2 215.739 353.7 215.289C353.996 211.939 354.291 208.492 354.587 205.044L354.588 205.035ZM394.1 202.789C395.3 200.789 396.7 198.789 398.1 196.889C398.26 197.148 398.435 197.408 398.612 197.669L398.613 197.671C399.323 198.72 400.06 199.809 399.9 201.089C399.768 204.328 399.461 207.524 399.152 210.733L399.152 210.741L399.151 210.744L399.151 210.747C398.993 212.388 398.835 214.033 398.7 215.689C398.2 216.089 397.725 216.464 397.25 216.839C396.775 217.214 396.3 217.589 395.8 217.989C394.8 216.989 393.9 216.089 392.9 215.189C393.109 213.478 393.23 211.749 393.352 210.018L393.352 210.015C393.522 207.599 393.692 205.177 394.1 202.789ZM447.109 209.822C447.288 207.545 447.467 205.267 447.8 202.989C448.523 201.542 449.463 200.225 450.392 198.923C450.875 198.246 451.355 197.574 451.8 196.889C451.9 197.034 452.002 197.178 452.105 197.323L452.108 197.327C452.93 198.486 453.777 199.68 453.6 201.189C453.468 204.43 453.16 207.628 452.852 210.839L452.851 210.843L452.85 210.852C452.693 212.491 452.535 214.134 452.4 215.789C451.9 216.189 451.425 216.564 450.95 216.939C450.475 217.314 450 217.689 449.5 218.089C448.504 217.193 447.508 216.197 446.61 215.3L446.6 215.289C446.822 213.467 446.965 211.645 447.109 209.822ZM490.923 197.264L491.2 196.889C491.317 197.079 491.44 197.269 491.564 197.46L491.57 197.469C492.295 198.585 493.056 199.756 492.8 201.289C492.668 204.528 492.361 207.724 492.052 210.934L492.052 210.941L492.051 210.944L492.051 210.947C491.893 212.588 491.735 214.233 491.6 215.889C491.1 216.289 490.625 216.664 490.15 217.039C489.675 217.414 489.2 217.789 488.7 218.189C487.8 217.189 486.9 216.189 485.9 215.289C486.109 213.579 486.23 211.85 486.352 210.119L486.352 210.118L486.352 210.115C486.522 207.699 486.692 205.277 487.1 202.889C488.22 200.928 489.602 199.055 490.92 197.268L490.921 197.267L490.923 197.264ZM407.75 209.089C407.875 207.689 408 206.289 408.1 204.889H415.3C415.2 206.289 415.075 207.689 414.95 209.089C414.825 210.489 414.7 211.889 414.6 213.289H407.4C407.5 211.889 407.625 210.489 407.75 209.089ZM375.8 222.089L372.8 219.089C374.099 218.19 375.299 217.19 376.498 216.191L376.5 216.189H390.9C391.45 216.739 391.999 217.264 392.549 217.788C393.099 218.314 393.65 218.839 394.2 219.389C393.65 219.839 393.075 220.289 392.5 220.739C391.925 221.189 391.35 221.639 390.8 222.089H375.8ZM352.559 228.649L352.56 228.647C352.724 226.971 352.889 225.287 353 223.589C353.597 223.141 354.194 222.669 354.791 222.196L354.799 222.19C355.399 221.715 356 221.24 356.6 220.789L358.9 223.089C358.65 225.639 358.45 228.189 358.25 230.739C358.05 233.289 357.85 235.839 357.6 238.389C357.6 239.937 356.565 241.115 355.576 242.241C355.414 242.425 355.254 242.607 355.1 242.789C354.798 242.268 354.489 241.762 354.183 241.261L354.18 241.257L354.178 241.253L354.177 241.252C353.368 239.928 352.579 238.637 352 237.189C352 234.352 352.278 231.515 352.559 228.653L352.559 228.649ZM368.072 228.723L368.074 228.708L368.074 228.706C368.263 226.631 368.452 224.56 368.6 222.489C369.2 221.989 370.6 220.989 371.3 220.589C371.85 221.089 372.375 221.614 372.9 222.139C373.425 222.664 373.95 223.189 374.5 223.689C374.351 225.138 374.244 226.586 374.137 228.03L374.137 228.031C373.957 230.473 373.777 232.901 373.4 235.289C372.709 236.986 371.741 238.564 370.77 240.148C370.196 241.084 369.62 242.023 369.1 242.989C368.962 242.799 368.814 242.609 368.666 242.417L368.665 242.416C367.955 241.499 367.217 240.547 367.3 239.389C367.426 235.803 367.75 232.256 368.072 228.724V228.723ZM421.761 228.804L421.762 228.798C421.955 226.702 422.149 224.603 422.3 222.489C423.2 221.889 424.1 221.189 425 220.389C426.1 221.389 427.1 222.389 428.2 223.489C427.993 225.145 427.872 226.801 427.751 228.45L427.751 228.452L427.751 228.454C427.58 230.786 427.41 233.105 427 235.389C426.241 237.035 425.281 238.6 424.324 240.161C423.769 241.067 423.214 241.971 422.7 242.889C422.525 242.589 422.325 242.295 422.125 242.002C421.525 241.12 420.925 240.239 421 239.189C421.124 235.705 421.442 232.259 421.761 228.804ZM445.304 230.342C445.503 228.082 445.701 225.824 445.9 223.589C447.1 222.689 448.3 221.789 449.3 220.689C449.6 220.939 450.05 221.339 450.5 221.739C450.95 222.139 451.4 222.539 451.7 222.789L451.7 222.792C451.3 227.991 450.9 233.19 450.4 238.289C450.4 239.933 449.352 241.128 448.357 242.262L448.345 242.276C448.283 242.347 448.221 242.418 448.159 242.488C448.071 242.589 447.985 242.689 447.9 242.789C447.603 242.276 447.306 241.77 447.01 241.267C446.213 239.909 445.43 238.576 444.7 237.189C444.901 234.923 445.103 232.632 445.304 230.342ZM460.75 230.393C460.975 227.767 461.2 225.141 461.4 222.489C462.122 222.008 462.843 221.463 463.514 220.956L463.518 220.953C463.682 220.829 463.843 220.707 464 220.589C464.531 221.068 465.091 221.574 465.664 222.094C466.169 222.552 466.685 223.021 467.2 223.489C467.066 224.83 466.977 226.181 466.887 227.537L466.887 227.54C466.71 230.228 466.532 232.931 466 235.589C465.132 237.469 464.056 239.192 462.959 240.948C462.538 241.62 462.115 242.297 461.7 242.989C461.615 242.848 461.529 242.707 461.443 242.567C460.623 241.221 459.828 239.919 460.1 238.289C460.3 235.641 460.525 233.017 460.75 230.393ZM484.6 230.389C484.8 228.114 485 225.839 485.2 223.589C485.979 223.005 486.716 222.379 487.438 221.765C487.828 221.433 488.214 221.105 488.6 220.789C489 221.139 489.4 221.514 489.8 221.889C490.2 222.264 490.6 222.639 491 222.989C490.751 225.533 490.551 228.077 490.351 230.621L490.349 230.658C490.149 233.202 489.949 235.745 489.7 238.289C489.626 239.54 488.958 240.628 488.291 241.713L488.288 241.717C488.049 242.106 487.811 242.494 487.6 242.889C486.2 241.089 485 239.189 484 237.189C484.188 235.074 484.376 232.937 484.564 230.799L484.565 230.786L484.6 230.389ZM405.95 230.589C406.075 229.164 406.2 227.739 406.3 226.289H413.5C413.405 227.621 413.287 228.976 413.168 230.343L413.167 230.355C413.036 231.857 412.905 233.373 412.8 234.889H405.6C405.7 233.439 405.825 232.014 405.95 230.589ZM373.868 238.413L374.001 238.204C374.067 238.099 374.134 237.994 374.2 237.889H389C389.549 238.837 390.097 239.81 390.646 240.782L390.65 240.789C391.2 241.764 391.75 242.739 392.3 243.689C388.426 243.853 384.583 243.838 380.752 243.823C377.562 243.811 374.381 243.798 371.2 243.889C371.654 241.891 372.768 240.14 373.868 238.413ZM426.249 240.69C426.8 239.765 427.35 238.84 427.9 237.889C432.8 237.889 437.8 237.889 442.7 237.789C443.25 238.74 443.8 239.715 444.35 240.69C444.9 241.665 445.45 242.64 446 243.589C444.328 243.612 442.662 243.652 441 243.691C435.503 243.821 430.051 243.95 424.6 243.489C425.15 242.54 425.7 241.615 426.249 240.69ZM467.199 237.891L467.2 237.889H481.9L481.909 237.905C483.006 239.8 484.103 241.695 485.2 243.689C481.201 243.803 477.17 243.787 473.143 243.771H473.138C470.118 243.759 467.1 243.746 464.1 243.789C464.8 241.69 465.999 239.79 467.199 237.891ZM147 268L743 268V264L147 264V268ZM743 447L147 447V443L743 443V447ZM271.289 478.386C272.317 478.9 272.317 479.928 272.317 480.442L272.832 489.696C272.832 490.21 272.317 491.239 271.289 491.753C270.775 492.267 269.747 492.267 269.233 491.753C268.204 491.239 267.69 490.21 267.69 489.696V480.442C267.69 479.928 268.204 478.9 268.719 478.386C269.747 477.871 270.775 477.871 271.289 478.386ZM284.142 512.832C285.171 505.12 280.029 497.922 272.318 496.38C264.606 495.352 257.408 501.007 256.38 508.719C255.352 516.431 260.493 523.628 268.205 524.657C275.916 525.685 283.114 520.544 284.142 512.832ZM300.08 512.832C301.108 512.832 302.137 512.318 302.137 511.804C302.651 510.775 302.651 509.747 302.137 509.233C301.622 508.205 301.108 508.205 300.08 508.205H291.34C290.312 508.205 289.798 508.719 289.284 509.233C288.769 510.261 288.769 510.775 289.284 511.804C289.798 512.318 290.312 512.832 291.34 512.832H300.08ZM240.442 508.205C239.414 508.205 238.9 508.719 238.386 509.747C237.871 510.261 237.871 511.289 238.386 511.804C238.9 512.832 239.414 513.346 240.442 513.346L249.182 512.832C250.21 512.832 250.725 512.832 251.239 511.804C251.753 511.289 251.753 510.261 251.239 509.233C250.725 508.719 250.21 508.205 249.182 508.205H240.442ZM247.125 532.369C246.611 531.854 247.125 530.826 247.639 530.312L253.809 523.628C254.323 523.114 255.351 523.114 255.865 523.114C256.651 523.114 257.136 523.714 257.551 524.227C257.679 524.385 257.801 524.535 257.922 524.657C257.922 525.685 257.922 526.713 257.408 527.227L250.724 533.397C250.21 533.911 249.696 534.425 248.668 534.425C247.639 533.911 247.125 533.397 247.125 532.369ZM250.725 487.64C250.21 487.126 249.182 487.126 248.154 487.126L246.612 488.668C246.612 489.696 246.612 490.725 247.126 491.239L253.809 497.408C254.323 497.922 255.352 498.436 255.866 497.922C256.894 497.922 257.408 497.408 257.922 496.38C257.922 495.352 257.922 494.838 256.894 493.809L250.725 487.64ZM269.233 542.651C268.719 542.137 268.204 541.109 268.204 540.595L267.69 531.34C267.69 530.826 268.204 529.798 269.233 529.284H271.803C272.317 529.798 272.832 530.826 272.832 531.34V540.595C272.832 541.109 272.317 542.137 271.803 542.651C270.775 543.165 269.747 543.165 269.233 542.651ZM289.797 533.397C290.312 533.911 291.34 534.425 292.368 533.911C292.882 533.911 293.91 532.883 293.91 532.368C293.91 531.34 293.91 530.312 293.396 529.798L286.713 523.628C286.199 523.114 285.17 522.6 284.656 523.114C283.628 523.114 283.114 524.143 283.114 524.657C282.6 525.685 283.114 526.713 283.628 527.227L289.797 533.397ZM293.911 488.668C293.911 489.696 293.911 490.21 292.883 491.239L286.713 497.408C286.199 497.922 285.171 498.436 284.657 497.922C283.871 497.922 283.386 497.322 282.971 496.81C282.843 496.651 282.721 496.501 282.6 496.38C282.6 495.352 282.6 494.323 283.114 493.809L289.798 487.64C290.312 487.126 291.34 486.612 291.854 487.126C292.883 487.126 293.397 487.64 293.911 488.668Z"/>
</svg>
