<?xml version="1.0" encoding="utf-8"?>
<svg version="1.1" xmlns="http://www.w3.org/2000/svg" xmlns:xlink="http://www.w3.org/1999/xlink" x="0px" y="0px"
	 viewBox="0 0 900 900" style="enable-background:new 0 0 900 900;" xml:space="preserve">
<style type="text/css">
	.st0{fill:#0066FF;}
</style>
<path d="M11.8 3.15905e-06H884.8C889 0.700003 894.9 -0.899997 897.8 3.1C899.9 6.3 898.7 10.4 899 14C899 306.7 899 599.4 899 892.1C899.3 895.7 896.5 899.1 892.9 899.4C890.2 899.6 884.9 899.8 882.2 900H21.6C17.1 899.7 8.20002 899 3.70002 898.7C1.70002 897.6 0.600024 895.5 -0.0999756 893.4V6.8C0.300024 0.700004 7.00002 -0.199997 11.8 3.15905e-06ZM5.10002 3.9C2.20002 5.5 3.50002 9.3 3.20002 11.9C3.20002 305.3 3.20002 598.6 3.20002 892C3.00002 893.8 4.10002 895.8 6.00002 896C8.60002 896.3 11.3 896.2 13.9 896.2C306.2 896.2 598.6 896.2 890.9 896.2C894 896.8 896.5 894.1 895.8 891C895.8 596.6 895.8 302.2 895.8 7.8C896.1 5.5 894.4 3.2 892 3.4C598.7 3.4 305.3 3.4 12 3.4C9.70002 3.6 7.30002 3.1 5.10002 3.9Z"/>
<path fill-rule="evenodd" clip-rule="evenodd" d="M885 14.5H14C13.7239 14.5 13.5 14.7239 13.5 15V885C13.5 885.276 13.7239 885.5 14 885.5H885C885.276 885.5 885.5 885.276 885.5 885V15C885.5 14.7239 885.276 14.5 885 14.5ZM14 11C11.7909 11 10 12.7909 10 15V885C10 887.209 11.7909 889 14 889H885C887.209 889 889 887.209 889 885V15C889 12.7909 887.209 11 885 11H14Z"/>
<path d="M743.1 802C743.3 801.7 743.8 801.2 744 800.9C748 800.6 752 800.7 756 800.8C757.9 800.8 759.5 802 760.8 803.2C765.3 807.2 769.7 811.2 774.2 815.1C779.8 810.8 784.5 805.5 790.2 801.4C794.6 800.2 799.3 800.9 803.8 800.9C805.5 800.8 805.6 802.7 805.6 804C805.6 811.7 805.6 819.4 805.6 827.2C805.6 828.4 805.6 830.4 803.8 830.3C797.8 830.6 791.8 830.3 785.8 830.4C783.4 830.3 780.8 830.8 778.7 829.6C781 827.4 783.2 825.1 785.8 823.3C789.2 823 792.6 823.2 795.9 823.1C796.2 818.2 796.1 813.2 795.9 808.3C788.5 814.6 781.4 821.2 774.1 827.6C769.9 832 763.3 829.9 757.9 830.2C760.8 827 764.1 824.4 767.3 821.5C762.3 817 757.3 812.5 752.3 808.1C752.2 813.1 752.1 818.1 752.3 823C754.6 823 756.9 823.1 759.2 823.2C757.7 826.1 754.9 828 752.4 830C749.4 830.5 746 830.7 743 829.9C742.3 828.4 742.7 826.8 742.5 825.2C743.1 817.3 742.8 809.7 743.1 802Z"/>
<path d="M700.3 839.4C702.4 839.5 704.9 838.7 706.5 840.3C707.6 841.2 708.7 842.2 709.8 843.1C711.3 841.8 712.6 840.3 714.3 839.4C715.9 839.2 717.5 839.3 719.1 839.3C719.5 843.8 719.3 848.2 719.3 852.7C717.8 852.7 716.3 852.7 714.8 852.7C714.7 850 714.7 847.4 714.7 844.7C713.2 846.1 711.7 847.5 710 848.6C707.9 848.1 706.5 846 704.9 844.8C704.9 847.4 704.9 850 704.8 852.6C703.3 852.6 701.7 852.6 700.2 852.6C700.1 848.3 700 843.8 700.3 839.4Z"/>
<path d="M809.1 839.4C810.7 839.4 812.2 839.3 813.8 839.5C815.6 840.3 817 841.9 818.5 843.2C820 841.9 821.4 840.3 823.3 839.5C824.9 839.3 826.5 839.4 828.1 839.5C828.2 843.9 828.2 848.4 828.1 852.8C826.6 852.8 825.1 852.8 823.6 852.8C823.5 850.1 823.5 847.4 823.6 844.7C822 846.3 820.3 847.9 818.3 849C816.8 847.6 815.2 846.2 813.7 844.9C813.7 847.5 813.7 850.1 813.7 852.7C812.1 852.7 810.6 852.7 809.1 852.8C808.9 848.3 808.7 843.8 809.1 839.4Z"/>
<path d="M721.5 851.8C721.6 847.8 720.6 843.2 722.1 839.6C728.1 839.3 734.1 839.5 740 839.5C740 840.3 739.9 842 739.9 842.8C735.3 842.9 730.7 842.8 726.1 842.9C726.1 845 726.1 847.1 726.1 849.3C730.7 849.5 735.3 849.4 739.9 849.4C739.9 850.5 739.9 851.6 739.9 852.7C734 852.7 728.1 852.9 722.2 852.6C722.1 852.4 721.7 852 721.5 851.8Z"/>
<path d="M742.1 839.8C748.4 839.2 754.7 839.5 761 839.7C761.2 843.9 761.1 848.1 761.1 852.4C757.4 853.2 753.7 852.7 750 852.8C747.4 852.8 744.7 853.1 742.1 852.3C742.1 848.1 742.1 843.9 742.1 839.8ZM746.9 843C746.9 845.1 746.9 847.1 746.9 849.2C750.1 849.2 753.2 849.2 756.4 849.2C756.4 847.1 756.4 845.1 756.4 843C753.2 843 750 843 746.9 843Z"/>
<path d="M766.1 839.7C767.6 839.6 769.1 839.6 770.5 839.4C770.7 841.8 770.8 844.2 770.7 846.6C773.9 846.6 777.2 846.6 780.4 846.6C780.3 844.2 780.5 841.8 780.6 839.4C782.1 839.4 783.5 839.5 785 839.5C785.1 843.9 785.1 848.3 785 852.7C783.6 852.7 782.2 852.8 780.8 852.8C780.7 852.1 780.5 850.7 780.3 850C777.1 850 773.9 850 770.8 850C770.7 850.7 770.6 852.1 770.5 852.8C769 852.7 767.6 852.7 766.1 852.7C765.9 848.4 766 844 766.1 839.7Z"/>
<path d="M787.7 839.6C793.9 839.5 800.2 839.4 806.4 839.7C806.5 843.9 806.4 848 806.5 852.2C800.5 853.4 794.3 852.7 788.3 852.6L787.7 852C787.3 847.8 787.4 843.7 787.7 839.6ZM792.3 843C792.3 845.1 792.3 847.1 792.3 849.2C795.5 849.2 798.6 849.2 801.8 849.2C801.8 847.1 801.8 845.1 801.8 843C798.6 843 795.4 843 792.3 843Z"/>
<path d="M830.7 852.2C830.1 848 830.2 843.8 830.8 839.6C836.9 839.5 843 839.6 849.2 839.6C849.2 840.4 849.2 842 849.2 842.8C844.7 843 840.2 842.6 835.7 843C835.5 843.4 835.2 844.1 835 844.5C839.8 844.7 844.5 844.5 849.3 844.6C849.3 845.4 849.3 847.1 849.3 847.9C844.5 848 839.6 847.7 834.8 848.2C835.2 848.5 836 849 836.3 849.3C840.6 849.6 844.9 849.3 849.2 849.4C849.2 850.5 849.2 851.5 849.2 852.6C843.2 852.5 837.2 852.8 831.3 852.5L830.7 852.2Z"/>
<path d="M710 665C713.1 665 716.1 665 719.2 665C723 676.5 727 687.9 730.7 699.5C734.6 688 738.6 676.6 742.5 665.1C745.3 665.1 748 665.1 750.8 665.1C750.8 679.3 750.8 693.5 750.8 707.7C748.7 707.7 746.6 707.7 744.4 707.7C744.4 697 744.4 686.3 744.4 675.5C740.7 686.2 737 696.9 733.2 707.6C731.3 707.6 729.4 707.6 727.5 707.6C723.7 696.6 720 685.6 716.3 674.7C716.3 685.7 716.3 696.6 716.3 707.6C714.2 707.6 712.1 707.6 710 707.6C710 693.5 710 679.2 710 665Z"/>
<path d="M137.61 662.11C133.752 664.765 130.538 668.352 128.388 672.486C123.788 680.986 123.888 691.786 128.588 700.186C135.188 712.887 151.788 718.786 164.988 713.286C178.488 708.186 186.388 692.186 182.188 678.286C180.425 671.602 176.075 665.953 170.471 662.157L167.383 666.96C171.589 669.871 174.867 674.089 176.288 679.086C179.088 687.386 176.488 697.186 169.988 703.186C164.188 708.686 155.288 710.987 147.488 708.587C137.988 705.987 130.688 696.786 130.588 686.886C130.215 678.963 134.367 671.263 140.789 666.794L137.61 662.11Z"/>
<path fill-rule="evenodd" clip-rule="evenodd" d="M157 653V687H151.5V653H157Z"/>
<path class="st0" d="M429.751 659H418.556L420.263 661.991C424.716 669.796 429.218 677.576 433.717 685.349L433.719 685.352C438.22 693.128 442.716 700.897 447.163 708.691L448.881 711.702L450.628 708.708C457.644 696.68 464.542 684.71 471.456 672.713L471.457 672.712C473.513 669.144 475.57 665.574 477.632 661.999L479.363 659H468.149L467.571 659.995C464.17 665.847 460.769 671.723 457.369 677.598C454.546 682.477 451.723 687.354 448.901 692.216C446.087 687.357 443.287 682.482 440.484 677.604L440.483 677.602C437.109 671.728 433.732 665.849 430.329 659.995L429.751 659ZM469.722 671.716C471.779 668.148 473.837 664.577 475.9 661L474.746 663C473.073 665.901 471.403 668.799 469.734 671.695L469.722 671.716Z"/>
<path d="M566 707.7C574.9 692.1 583.9 676.6 592.9 661C601.9 676.5 610.9 692 619.8 707.6C617.6 707.6 615.4 707.6 613.2 707.6C606.4 695.9 599.7 684.1 592.9 672.4C586.1 684.2 579.3 695.9 572.5 707.7C570.4 707.8 568.2 707.8 566 707.7Z"/>
<path d="M289 663C298.5 663 308 663 317.5 663C317.5 664.7 317.5 666.4 317.5 668.1C309.8 668.1 302.1 668.1 294.4 668.1C294.4 672.5 294.4 676.9 294.4 681.3C301.1 681.3 307.7 681.3 314.4 681.3C314.4 682.9 314.4 684.4 314.4 686C307.7 686 301.1 686 294.4 686C294.4 692.4 294.4 698.8 294.4 705.2C292.6 705.2 290.8 705.2 289 705.2C289 691.3 289 677.2 289 663Z"/>
<path fill-rule="evenodd" clip-rule="evenodd" d="M761 132H125V571H761V132ZM426.678 318.115C424.678 314.215 422.778 310.215 420.878 306.215C427.416 306.165 433.928 306.14 440.428 306.115C446.953 306.09 453.466 306.065 459.978 306.015C462.378 305.915 464.878 306.315 467.178 307.115C464.778 310.715 462.278 314.415 459.778 318.115H426.678ZM408.67 347.6C409.506 337.459 410.349 327.244 411.278 317.115C411.578 312.915 414.378 309.415 417.878 307.315C418.599 308.875 419.367 310.404 420.132 311.926L420.133 311.929C421.279 314.21 422.419 316.477 423.378 318.815C423.003 325.066 422.433 331.316 421.863 337.567C421.52 341.316 421.178 345.066 420.878 348.815C419.632 349.812 418.361 350.784 417.09 351.756L417.089 351.757L417.078 351.765L417.07 351.771C415.798 352.744 414.526 353.717 413.278 354.715L408.478 349.915L408.67 347.6ZM420.782 352.646C421.352 352.203 421.92 351.762 422.478 351.315C428.001 351.315 433.524 351.34 439.048 351.365L439.128 351.365C444.678 351.39 450.229 351.415 455.778 351.415C457.508 352.919 459.125 354.48 460.757 356.056L460.802 356.099C461.324 356.603 461.849 357.109 462.378 357.615C461.128 358.615 459.903 359.615 458.678 360.615L458.661 360.63C457.441 361.625 456.222 362.62 454.978 363.615C451.241 363.615 447.515 363.604 443.793 363.593H443.745C436.328 363.571 428.925 363.549 421.478 363.615C421.095 363.25 420.711 362.881 420.326 362.51L419.888 362.088L419.884 362.083C418.31 360.566 416.722 359.035 415.078 357.615C416.787 355.751 418.798 354.188 420.782 352.646ZM404.279 396.214L404.279 396.205C405.279 385.309 406.279 374.411 407.178 363.515C408.977 362.017 410.775 360.618 412.573 359.219L412.578 359.215L419.278 365.915C418.918 369.555 418.622 373.196 418.326 376.836L418.326 376.846L418.325 376.853C417.881 382.307 417.438 387.761 416.778 393.215C415.01 396.678 412.971 400.086 410.939 403.48C410.214 404.693 409.489 405.904 408.778 407.115C405.778 404.415 403.779 400.314 404.279 396.214ZM339.677 306.415C346.214 306.365 352.726 306.34 359.226 306.315C365.751 306.29 372.264 306.265 378.777 306.215C381.177 306.115 383.677 306.515 385.977 307.315C383.577 310.915 381.077 314.615 378.577 318.315H345.477C343.477 314.416 341.577 310.417 339.678 306.418L339.677 306.415ZM330.077 317.315C329.147 327.444 328.304 337.659 327.468 347.8L327.277 350.115L332.077 354.915C333.324 353.917 334.596 352.944 335.868 351.971L335.887 351.957L335.893 351.953C337.163 350.982 338.432 350.011 339.677 349.015C339.976 345.266 340.319 341.516 340.661 337.767C341.231 331.516 341.802 325.266 342.177 319.015C341.217 316.676 340.077 314.408 338.93 312.126C338.165 310.604 337.397 309.075 336.677 307.515C333.177 309.615 330.376 313.115 330.077 317.315ZM378.923 338C379.364 332.572 379.805 327.144 380.376 321.715C381.852 319.01 383.667 316.457 385.474 313.915L385.475 313.915C386.607 312.322 387.736 310.733 388.776 309.115C391.577 311.715 393.377 315.415 392.977 319.315C392.506 325.615 391.931 331.914 391.354 338.234L391.353 338.245L391.352 338.25C390.95 342.66 390.546 347.079 390.177 351.515C389.841 351.783 389.509 352.049 389.178 352.312C387.539 353.621 385.958 354.883 384.376 356.215C382.177 354.215 379.977 352.215 377.876 350.215C378.262 346.144 378.593 342.072 378.923 338ZM325.977 363.715C325.077 374.615 324.077 385.515 323.077 396.415C322.577 400.515 324.577 404.615 327.577 407.315C328.287 406.104 329.012 404.893 329.738 403.68C331.769 400.286 333.808 396.878 335.577 393.415C336.236 387.961 336.679 382.507 337.123 377.052L337.124 377.047L337.125 377.036C337.421 373.396 337.717 369.755 338.077 366.115L331.376 359.415L331.371 359.419L331.37 359.421C329.572 360.819 327.774 362.217 325.977 363.715ZM380.925 361.915C381.739 361.255 382.558 360.591 383.376 359.915L383.384 359.922C385.181 361.62 386.979 363.318 388.977 365.115C388.634 369.016 388.304 372.929 387.973 376.846C387.337 384.374 386.7 391.916 385.977 399.415C385.577 403.115 383.077 406.315 380.077 408.415C378.71 406.179 377.421 403.905 376.137 401.64C375.354 400.258 374.572 398.879 373.777 397.515C374.226 392.165 374.701 386.841 375.176 381.516C375.652 376.191 376.126 370.865 376.577 365.515C377.992 364.293 379.448 363.112 380.919 361.92L380.925 361.915ZM337.277 397.515C336.347 399.163 335.4 400.792 334.45 402.427C333.151 404.661 331.847 406.905 330.577 409.215C333.708 409.881 336.839 409.837 340 409.793C341.584 409.771 343.174 409.748 344.777 409.815C348.697 409.779 352.618 409.795 356.534 409.812L356.557 409.812C363.42 409.841 370.268 409.87 377.077 409.615C375.61 406.881 374.054 404.237 372.498 401.592C371.721 400.27 370.943 398.948 370.177 397.615C359.277 397.515 348.277 397.515 337.277 397.515ZM501.878 306.415C508.416 306.365 514.928 306.34 521.428 306.315C527.953 306.29 534.466 306.265 540.978 306.215C543.378 306.115 545.878 306.515 548.178 307.315C545.778 310.915 543.278 314.615 540.778 318.315H507.678C505.678 314.415 503.778 310.415 501.878 306.415ZM492.278 317.315C491.349 327.444 490.506 337.659 489.67 347.8L489.478 350.115L494.278 354.915C495.524 353.919 496.794 352.947 498.065 351.976L498.07 351.971L498.089 351.957C499.36 350.985 500.632 350.012 501.878 349.015C502.178 345.266 502.521 341.516 502.863 337.767C503.433 331.516 504.003 325.266 504.378 319.015C503.419 316.676 502.279 314.408 501.132 312.126C500.367 310.604 499.599 309.075 498.878 307.515C495.378 309.615 492.578 313.115 492.278 317.315ZM501.782 352.846C502.352 352.403 502.92 351.962 503.478 351.515C509.001 351.515 514.524 351.54 520.048 351.565L520.128 351.565C525.678 351.59 531.229 351.615 536.778 351.615C538.508 353.119 540.125 354.681 541.757 356.256L541.802 356.299L541.808 356.305C542.165 356.65 542.523 356.995 542.883 357.34C543.047 357.499 543.213 357.657 543.378 357.815C542.128 358.815 540.903 359.815 539.678 360.815L539.661 360.829C538.442 361.824 537.223 362.82 535.978 363.815C532.241 363.815 528.516 363.804 524.793 363.793L524.782 363.793H524.769C517.344 363.771 509.933 363.749 502.478 363.815C501.957 363.319 501.436 362.816 500.914 362.312L500.905 362.304L500.888 362.288C499.313 360.769 497.724 359.236 496.078 357.815C497.787 355.951 499.798 354.388 501.782 352.846ZM488.178 363.715C487.278 374.615 486.278 385.515 485.278 396.415C484.778 400.515 486.778 404.615 489.778 407.315C490.489 406.104 491.214 404.893 491.939 403.68C493.971 400.286 496.01 396.878 497.778 393.415C498.438 387.96 498.881 382.505 499.325 377.05L499.325 377.049L499.326 377.046L499.326 377.036C499.622 373.396 499.918 369.755 500.278 366.115L493.578 359.415L493.573 359.419C491.775 360.818 489.977 362.217 488.178 363.715Z"/>
</svg>
