<svg xmlns="http://www.w3.org/2000/svg" x="0px" y="0px" viewBox="0 0 900 900" fill="none" xml:space="preserve">
<g clip-path="url(#clip0_1_181)">
<path d="M11.8 3.15905e-06H884.8C889 0.700003 894.9 -0.899997 897.8 3.1C899.9 6.3 898.7 10.4 899 14C899 306.7 899 599.4 899 892.1C899.3 895.7 896.5 899.1 892.9 899.4C890.2 899.6 884.9 899.8 882.2 900H21.6C17.1 899.7 8.20002 899 3.70002 898.7C1.70002 897.6 0.600024 895.5 -0.0999756 893.4V6.8C0.300024 0.700004 7.00002 -0.199997 11.8 3.15905e-06ZM5.10002 3.9C2.20002 5.5 3.50002 9.3 3.20002 11.9C3.20002 305.3 3.20002 598.6 3.20002 892C3.00002 893.8 4.10002 895.8 6.00002 896C8.60002 896.3 11.3 896.2 13.9 896.2C306.2 896.2 598.6 896.2 890.9 896.2C894 896.8 896.5 894.1 895.8 891C895.8 596.6 895.8 302.2 895.8 7.8C896.1 5.5 894.4 3.2 892 3.4C598.7 3.4 305.3 3.4 12 3.4C9.70002 3.6 7.30002 3.1 5.10002 3.9Z" fill="black"/>
<rect x="11.75" y="12.75" width="875.5" height="874.5" rx="2.25" stroke="black" stroke-width="3.5"/>
<path d="M743.1 802C743.3 801.7 743.8 801.2 744 800.9C748 800.6 752 800.7 756 800.8C757.9 800.8 759.5 802 760.8 803.2C765.3 807.2 769.7 811.2 774.2 815.1C779.8 810.8 784.5 805.5 790.2 801.4C794.6 800.2 799.3 800.9 803.8 800.9C805.5 800.8 805.6 802.7 805.6 804C805.6 811.7 805.6 819.4 805.6 827.2C805.6 828.4 805.6 830.4 803.8 830.3C797.8 830.6 791.8 830.3 785.8 830.4C783.4 830.3 780.8 830.8 778.7 829.6C781 827.4 783.2 825.1 785.8 823.3C789.2 823 792.6 823.2 795.9 823.1C796.2 818.2 796.1 813.2 795.9 808.3C788.5 814.6 781.4 821.2 774.1 827.6C769.9 832 763.3 829.9 757.9 830.2C760.8 827 764.1 824.4 767.3 821.5C762.3 817 757.3 812.5 752.3 808.1C752.2 813.1 752.1 818.1 752.3 823C754.6 823 756.9 823.1 759.2 823.2C757.7 826.1 754.9 828 752.4 830C749.4 830.5 746 830.7 743 829.9C742.3 828.4 742.7 826.8 742.5 825.2C743.1 817.3 742.8 809.7 743.1 802Z" fill="black"/>
<path d="M700.3 839.4C702.4 839.5 704.9 838.7 706.5 840.3C707.6 841.2 708.7 842.2 709.8 843.1C711.3 841.8 712.6 840.3 714.3 839.4C715.9 839.2 717.5 839.3 719.1 839.3C719.5 843.8 719.3 848.2 719.3 852.7C717.8 852.7 716.3 852.7 714.8 852.7C714.7 850 714.7 847.4 714.7 844.7C713.2 846.1 711.7 847.5 710 848.6C707.9 848.1 706.5 846 704.9 844.8C704.9 847.4 704.9 850 704.8 852.6C703.3 852.6 701.7 852.6 700.2 852.6C700.1 848.3 700 843.8 700.3 839.4Z" fill="black"/>
<path d="M809.1 839.4C810.7 839.4 812.2 839.3 813.8 839.5C815.6 840.3 817 841.9 818.5 843.2C820 841.9 821.4 840.3 823.3 839.5C824.9 839.3 826.5 839.4 828.1 839.5C828.2 843.9 828.2 848.4 828.1 852.8C826.6 852.8 825.1 852.8 823.6 852.8C823.5 850.1 823.5 847.4 823.6 844.7C822 846.3 820.3 847.9 818.3 849C816.8 847.6 815.2 846.2 813.7 844.9C813.7 847.5 813.7 850.1 813.7 852.7C812.1 852.7 810.6 852.7 809.1 852.8C808.9 848.3 808.7 843.8 809.1 839.4Z" fill="black"/>
<path d="M721.5 851.8C721.6 847.8 720.6 843.2 722.1 839.6C728.1 839.3 734.1 839.5 740 839.5C740 840.3 739.9 842 739.9 842.8C735.3 842.9 730.7 842.8 726.1 842.9C726.1 845 726.1 847.1 726.1 849.3C730.7 849.5 735.3 849.4 739.9 849.4C739.9 850.5 739.9 851.6 739.9 852.7C734 852.7 728.1 852.9 722.2 852.6C722.1 852.4 721.7 852 721.5 851.8Z" fill="black"/>
<path d="M742.1 839.8C748.4 839.2 754.7 839.5 761 839.7C761.2 843.9 761.1 848.1 761.1 852.4C757.4 853.2 753.7 852.7 750 852.8C747.4 852.8 744.7 853.1 742.1 852.3C742.1 848.1 742.1 843.9 742.1 839.8ZM746.9 843C746.9 845.1 746.9 847.1 746.9 849.2C750.1 849.2 753.2 849.2 756.4 849.2C756.4 847.1 756.4 845.1 756.4 843C753.2 843 750 843 746.9 843Z" fill="black"/>
<path d="M766.1 839.7C767.6 839.6 769.1 839.6 770.5 839.4C770.7 841.8 770.8 844.2 770.7 846.6C773.9 846.6 777.2 846.6 780.4 846.6C780.3 844.2 780.5 841.8 780.6 839.4C782.1 839.4 783.5 839.5 785 839.5C785.1 843.9 785.1 848.3 785 852.7C783.6 852.7 782.2 852.8 780.8 852.8C780.7 852.1 780.5 850.7 780.3 850C777.1 850 773.9 850 770.8 850C770.7 850.7 770.6 852.1 770.5 852.8C769 852.7 767.6 852.7 766.1 852.7C765.9 848.4 766 844 766.1 839.7Z" fill="black"/>
<path d="M787.7 839.6C793.9 839.5 800.2 839.4 806.4 839.7C806.5 843.9 806.4 848 806.5 852.2C800.5 853.4 794.3 852.7 788.3 852.6L787.7 852C787.3 847.8 787.4 843.7 787.7 839.6ZM792.3 843C792.3 845.1 792.3 847.1 792.3 849.2C795.5 849.2 798.6 849.2 801.8 849.2C801.8 847.1 801.8 845.1 801.8 843C798.6 843 795.4 843 792.3 843Z" fill="black"/>
<path d="M830.7 852.2C830.1 848 830.2 843.8 830.8 839.6C836.9 839.5 843 839.6 849.2 839.6C849.2 840.4 849.2 842 849.2 842.8C844.7 843 840.2 842.6 835.7 843C835.5 843.4 835.2 844.1 835 844.5C839.8 844.7 844.5 844.5 849.3 844.6C849.3 845.4 849.3 847.1 849.3 847.9C844.5 848 839.6 847.7 834.8 848.2C835.2 848.5 836 849 836.3 849.3C840.6 849.6 844.9 849.3 849.2 849.4C849.2 850.5 849.2 851.5 849.2 852.6C843.2 852.5 837.2 852.8 831.3 852.5L830.7 852.2Z" fill="black"/>
<rect x="125" y="132" width="636" height="439" fill="black"/>
<path d="M710 665C713.1 665 716.1 665 719.2 665C723 676.5 727 687.9 730.7 699.5C734.6 688 738.6 676.6 742.5 665.1C745.3 665.1 748 665.1 750.8 665.1C750.8 679.3 750.8 693.5 750.8 707.7C748.7 707.7 746.6 707.7 744.4 707.7C744.4 697 744.4 686.3 744.4 675.5C740.7 686.2 737 696.9 733.2 707.6C731.3 707.6 729.4 707.6 727.5 707.6C723.7 696.6 720 685.6 716.3 674.7C716.3 685.7 716.3 696.6 716.3 707.6C714.2 707.6 712.1 707.6 710 707.6C710 693.5 710 679.2 710 665Z" fill="black"/>
<path d="M137.61 662.109C133.752 664.765 130.538 668.352 128.388 672.486C123.788 680.986 123.888 691.786 128.588 700.186C135.188 712.886 151.788 718.786 164.988 713.286C178.488 708.186 186.388 692.186 182.188 678.286C180.425 671.602 176.075 665.952 170.471 662.157L167.383 666.96C171.589 669.871 174.867 674.089 176.288 679.086C179.088 687.386 176.488 697.186 169.988 703.186C164.188 708.686 155.288 710.986 147.488 708.586C137.988 705.986 130.688 696.786 130.588 686.886C130.215 678.963 134.367 671.263 140.789 666.794L137.61 662.109Z" fill="black"/>
<line x1="154.25" y1="687" x2="154.25" y2="653" stroke="black" stroke-width="5.5"/>
<path d="M422 660H420.278L421.131 661.496C425.583 669.298 430.084 677.075 434.584 684.85L434.585 684.851C439.085 692.626 443.583 700.399 448.031 708.195L448.89 709.701L449.764 708.204C456.779 696.178 463.676 684.211 470.589 672.214C472.645 668.646 474.703 665.075 476.766 661.5L477.631 660H475.9H475.887H475.874H475.861H475.848H475.836H475.823H475.81H475.797H475.784H475.771H475.758H475.745H475.732H475.72H475.707H475.694H475.681H475.668H475.655H475.642H475.629H475.616H475.604H475.591H475.578H475.565H475.552H475.539H475.526H475.513H475.5H475.488H475.475H475.462H475.449H475.436H475.423H475.41H475.397H475.384H475.372H475.359H475.346H475.333H475.32H475.307H475.294H475.281H475.268H475.255H475.243H475.23H475.217H475.204H475.191H475.178H475.165H475.152H475.139H475.127H475.114H475.101H475.088H475.075H475.062H475.049H475.036H475.023H475.011H474.998H474.985H474.972H474.959H474.946H474.933H474.92H474.907H474.895H474.882H474.869H474.856H474.843H474.83H474.817H474.804H474.791H474.779H474.766H474.753H474.74H474.727H474.714H474.701H474.688H474.675H474.663H474.65H474.637H474.624H474.611H474.598H474.585H474.572H474.559H474.547H474.534H474.521H474.508H474.495H474.482H474.469H474.456H474.443H474.43H474.418H474.405H474.392H474.379H474.366H474.353H474.34H474.327H474.314H474.302H474.289H474.276H474.263H474.25H474.237H474.224H474.211H474.198H474.186H474.173H474.16H474.147H474.134H474.121H474.108H474.095H474.082H474.07H474.057H474.044H474.031H474.018H474.005H473.992H473.979H473.966H473.954H473.941H473.928H473.915H473.902H473.889H473.876H473.863H473.85H473.838H473.825H473.812H473.799H473.786H473.773H473.76H473.747H473.734H473.722H473.709H473.696H473.683H473.67H473.657H473.644H473.631H473.618H473.605H473.593H473.58H473.567H473.554H473.541H473.528H473.515H473.502H473.489H473.477H473.464H473.451H473.438H473.425H473.412H473.399H473.386H473.373H473.361H473.348H473.335H473.322H473.309H473.296H473.283H473.27H473.257H473.245H473.232H473.219H473.206H473.193H473.18H473.167H473.154H473.141H473.129H473.116H473.103H473.09H473.077H473.064H473.051H473.038H473.025H473.013H473H472.987H472.974H472.961H472.948H472.935H472.922H472.909H472.896H472.884H472.871H472.858H472.845H472.832H472.819H472.806H472.793H472.78H472.768H472.755H472.742H472.729H472.716H472.703H472.69H472.677H472.664H472.652H472.639H472.626H472.613H472.6H472.587H472.574H472.561H472.548H472.536H472.523H472.51H472.497H472.484H472.471H472.458H472.445H472.432H472.42H472.407H472.394H472.381H472.368H472.355H472.342H472.329H472.316H472.304H472.291H472.278H472.265H472.252H472.239H472.226H472.213H472.2H472.188H472.175H472.162H472.149H472.136H472.123H472.11H472.097H472.084H472.071H472.059H472.046H472.033H472.02H472.007H471.994H471.981H471.968H471.955H471.943H471.93H471.917H471.904H471.891H471.878H471.865H471.852H471.839H471.827H471.814H471.801H471.788H471.775H471.762H471.749H471.736H471.723H471.711H471.698H471.685H471.672H471.659H471.646H471.633H471.62H471.607H471.595H471.582H471.569H471.556H471.543H471.53H471.517H471.504H471.491H471.479H471.466H471.453H471.44H471.427H471.414H471.401H471.388H471.375H471.362H471.35H471.337H471.324H471.311H471.298H471.285H471.272H471.259H471.246H471.234H471.221H471.208H471.195H471.182H471.169H471.156H471.143H471.13H471.118H471.105H471.092H471.079H471.066H471.053H471.04H471.027H471.014H471.002H470.989H470.976H470.963H470.95H470.937H470.924H470.911H470.898H470.886H470.873H470.86H470.847H470.834H470.821H470.808H470.795H470.782H470.77H470.757H470.744H470.731H470.718H470.705H470.692H470.679H470.666H470.654H470.641H470.628H470.615H470.602H470.589H470.576H470.563H470.55H470.537H470.525H470.512H470.499H470.486H470.473H470.46H470.447H470.434H470.421H470.409H470.396H470.383H470.37H470.357H470.344H470.331H470.318H470.305H470.293H470.28H470.267H470.254H470.241H470.228H470.215H470.202H470.189H470.177H470.164H470.151H470.138H470.125H470.112H470.099H470.086H470.073H470.061H470.048H470.035H470.022H470.009H469.996H469.983H469.97H469.957H469.945H469.932H469.919H469.906H469.893H469.88H469.867H469.854H469.841H469.829H469.816H469.803H469.79H469.777H469.764H469.751H469.738H469.725H469.712H469.7H469.687H469.674H469.661H469.648H469.635H469.622H469.609H469.596H469.584H469.571H469.558H469.545H469.532H469.519H469.506H469.493H469.48H469.468H469.455H469.442H469.429H469.416H469.403H469.39H469.377H469.364H469.352H469.339H469.326H469.313H469.3H468.725L468.435 660.498C465.035 666.348 461.634 672.224 458.234 678.099C455.123 683.476 452.011 688.852 448.9 694.209C445.794 688.854 442.706 683.479 439.617 678.102L439.617 678.101C436.242 672.227 432.866 666.35 429.465 660.498L429.175 660H428.6H428.587H428.574H428.561H428.548H428.536H428.523H428.51H428.497H428.484H428.471H428.458H428.445H428.432H428.42H428.407H428.394H428.381H428.368H428.355H428.342H428.329H428.316H428.304H428.291H428.278H428.265H428.252H428.239H428.226H428.213H428.2H428.188H428.175H428.162H428.149H428.136H428.123H428.11H428.097H428.084H428.072H428.059H428.046H428.033H428.02H428.007H427.994H427.981H427.968H427.956H427.943H427.93H427.917H427.904H427.891H427.878H427.865H427.852H427.839H427.827H427.814H427.801H427.788H427.775H427.762H427.749H427.736H427.723H427.711H427.698H427.685H427.672H427.659H427.646H427.633H427.62H427.607H427.595H427.582H427.569H427.556H427.543H427.53H427.517H427.504H427.491H427.479H427.466H427.453H427.44H427.427H427.414H427.401H427.388H427.375H427.363H427.35H427.337H427.324H427.311H427.298H427.285H427.272H427.259H427.247H427.234H427.221H427.208H427.195H427.182H427.169H427.156H427.143H427.131H427.118H427.105H427.092H427.079H427.066H427.053H427.04H427.027H427.014H427.002H426.989H426.976H426.963H426.95H426.937H426.924H426.911H426.898H426.886H426.873H426.86H426.847H426.834H426.821H426.808H426.795H426.782H426.77H426.757H426.744H426.731H426.718H426.705H426.692H426.679H426.666H426.654H426.641H426.628H426.615H426.602H426.589H426.576H426.563H426.55H426.538H426.525H426.512H426.499H426.486H426.473H426.46H426.447H426.434H426.422H426.409H426.396H426.383H426.37H426.357H426.344H426.331H426.318H426.305H426.293H426.28H426.267H426.254H426.241H426.228H426.215H426.202H426.189H426.177H426.164H426.151H426.138H426.125H426.112H426.099H426.086H426.073H426.061H426.048H426.035H426.022H426.009H425.996H425.983H425.97H425.957H425.945H425.932H425.919H425.906H425.893H425.88H425.867H425.854H425.841H425.829H425.816H425.803H425.79H425.777H425.764H425.751H425.738H425.725H425.713H425.7H425.687H425.674H425.661H425.648H425.635H425.622H425.609H425.597H425.584H425.571H425.558H425.545H425.532H425.519H425.506H425.493H425.48H425.468H425.455H425.442H425.429H425.416H425.403H425.39H425.377H425.364H425.352H425.339H425.326H425.313H425.3H425.287H425.274H425.261H425.248H425.236H425.223H425.21H425.197H425.184H425.171H425.158H425.145H425.132H425.12H425.107H425.094H425.081H425.068H425.055H425.042H425.029H425.016H425.004H424.991H424.978H424.965H424.952H424.939H424.926H424.913H424.9H424.888H424.875H424.862H424.849H424.836H424.823H424.81H424.797H424.784H424.771H424.759H424.746H424.733H424.72H424.707H424.694H424.681H424.668H424.655H424.643H424.63H424.617H424.604H424.591H424.578H424.565H424.552H424.539H424.527H424.514H424.501H424.488H424.475H424.462H424.449H424.436H424.423H424.411H424.398H424.385H424.372H424.359H424.346H424.333H424.32H424.307H424.295H424.282H424.269H424.256H424.243H424.23H424.217H424.204H424.191H424.179H424.166H424.153H424.14H424.127H424.114H424.101H424.088H424.075H424.063H424.05H424.037H424.024H424.011H423.998H423.985H423.972H423.959H423.946H423.934H423.921H423.908H423.895H423.882H423.869H423.856H423.843H423.83H423.818H423.805H423.792H423.779H423.766H423.753H423.74H423.727H423.714H423.702H423.689H423.676H423.663H423.65H423.637H423.624H423.611H423.598H423.586H423.573H423.56H423.547H423.534H423.521H423.508H423.495H423.482H423.47H423.457H423.444H423.431H423.418H423.405H423.392H423.379H423.366H423.354H423.341H423.328H423.315H423.302H423.289H423.276H423.263H423.25H423.238H423.225H423.212H423.199H423.186H423.173H423.16H423.147H423.134H423.121H423.109H423.096H423.083H423.07H423.057H423.044H423.031H423.018H423.005H422.993H422.98H422.967H422.954H422.941H422.928H422.915H422.902H422.889H422.877H422.864H422.851H422.838H422.825H422.812H422.799H422.786H422.773H422.761H422.748H422.735H422.722H422.709H422.696H422.683H422.67H422.657H422.645H422.632H422.619H422.606H422.593H422.58H422.567H422.554H422.541H422.529H422.516H422.503H422.49H422.477H422.464H422.451H422.438H422.425H422.413H422.4H422.387H422.374H422.361H422.348H422.335H422.322H422.309H422.296H422.284H422.271H422.258H422.245H422.232H422.219H422.206H422.193H422.18H422.168H422.155H422.142H422.129H422.116H422.103H422.09H422.077H422.064H422.052H422.039H422.026H422.013H422Z" fill="#0066FF" stroke="#0066FF" stroke-width="2"/>
<path d="M566 707.7C574.9 692.1 583.9 676.6 592.9 661C601.9 676.5 610.9 692 619.8 707.6C617.6 707.6 615.4 707.6 613.2 707.6C606.4 695.9 599.7 684.1 592.9 672.4C586.1 684.2 579.3 695.9 572.5 707.7C570.4 707.8 568.2 707.8 566 707.7Z" fill="black"/>
<path d="M289 663C298.5 663 308 663 317.5 663C317.5 664.7 317.5 666.4 317.5 668.1C309.8 668.1 302.1 668.1 294.4 668.1C294.4 672.5 294.4 676.9 294.4 681.3C301.1 681.3 307.7 681.3 314.4 681.3C314.4 682.9 314.4 684.4 314.4 686C307.7 686 301.1 686 294.4 686C294.4 692.4 294.4 698.8 294.4 705.2C292.6 705.2 290.8 705.2 289 705.2C289 691.3 289 677.2 289 663Z" fill="black"/>
<path fill-rule="evenodd" clip-rule="evenodd" d="M426.678 318.115C424.678 314.215 422.778 310.215 420.878 306.215C427.416 306.165 433.928 306.14 440.428 306.115C446.953 306.09 453.466 306.065 459.978 306.015C462.378 305.915 464.878 306.315 467.178 307.115C464.778 310.715 462.278 314.415 459.778 318.115H426.678ZM408.67 347.6C409.506 337.459 410.349 327.244 411.278 317.115C411.578 312.915 414.378 309.415 417.878 307.315C418.599 308.875 419.367 310.404 420.132 311.926C421.279 314.208 422.419 316.475 423.378 318.815C423.003 325.066 422.433 331.316 421.863 337.567C421.52 341.316 421.178 345.066 420.878 348.815C419.628 349.815 418.353 350.79 417.078 351.765C415.803 352.74 414.528 353.715 413.278 354.715L408.478 349.915L408.67 347.6ZM420.782 352.646C421.352 352.203 421.92 351.762 422.478 351.315C428.028 351.315 433.578 351.34 439.128 351.365C444.678 351.39 450.229 351.415 455.778 351.415C457.508 352.919 459.125 354.48 460.757 356.056C461.294 356.574 461.833 357.095 462.378 357.615C461.128 358.615 459.903 359.615 458.678 360.615C457.453 361.615 456.228 362.615 454.978 363.615C451.241 363.615 447.515 363.604 443.793 363.593C436.36 363.571 428.941 363.548 421.478 363.615C420.949 363.111 420.419 362.6 419.888 362.088C418.313 360.569 416.724 359.036 415.078 357.615C416.787 355.751 418.798 354.188 420.782 352.646ZM404.278 396.215C405.278 385.315 406.278 374.415 407.178 363.515C408.977 362.017 410.775 360.618 412.573 359.219L412.578 359.215L419.278 365.915C418.918 369.555 418.622 373.196 418.326 376.836C417.882 382.296 417.438 387.755 416.778 393.215C415.01 396.678 412.971 400.086 410.939 403.48C410.214 404.693 409.489 405.904 408.778 407.115C405.778 404.415 403.778 400.315 404.278 396.215Z" fill="white"/>
<path d="M339.677 306.415C346.214 306.365 352.726 306.34 359.226 306.315C365.751 306.29 372.264 306.265 378.777 306.215C381.177 306.115 383.677 306.515 385.977 307.315C383.577 310.915 381.077 314.615 378.577 318.315H345.477C343.477 314.415 341.577 310.415 339.677 306.415Z" fill="white"/>
<path d="M327.468 347.8C328.304 337.659 329.147 327.444 330.077 317.315C330.376 313.115 333.177 309.615 336.677 307.515C337.397 309.075 338.165 310.604 338.93 312.126C340.077 314.408 341.217 316.675 342.177 319.015C341.802 325.266 341.231 331.516 340.661 337.767C340.319 341.516 339.976 345.266 339.677 349.015C338.43 350.012 337.159 350.985 335.887 351.957L335.876 351.965L335.868 351.971C334.596 352.944 333.324 353.917 332.077 354.915L327.277 350.115L327.468 347.8Z" fill="white"/>
<path d="M378.923 338C379.364 332.572 379.805 327.144 380.376 321.715C381.852 319.011 383.667 316.457 385.474 313.915L385.475 313.915C386.607 312.322 387.736 310.733 388.776 309.115C391.577 311.715 393.377 315.415 392.977 319.315C392.505 325.618 391.93 331.921 391.353 338.245L391.352 338.25C390.95 342.66 390.546 347.079 390.177 351.515C389.841 351.783 389.509 352.049 389.178 352.312C387.539 353.621 385.958 354.883 384.376 356.215C382.177 354.215 379.977 352.215 377.876 350.215C378.262 346.144 378.593 342.072 378.923 338Z" fill="white"/>
<path d="M323.077 396.415C324.077 385.515 325.077 374.615 325.977 363.715C327.775 362.217 329.573 360.818 331.371 359.419L331.376 359.415L338.077 366.115C337.717 369.755 337.421 373.396 337.125 377.036L337.124 377.046C336.68 382.502 336.236 387.959 335.577 393.415C333.808 396.878 331.769 400.286 329.738 403.68C329.012 404.893 328.287 406.104 327.577 407.315C324.577 404.615 322.577 400.515 323.077 396.415Z" fill="white"/>
<path d="M380.925 361.915C381.739 361.255 382.558 360.591 383.376 359.915L383.384 359.922C385.181 361.62 386.979 363.318 388.977 365.115C388.634 369.016 388.304 372.929 387.973 376.846C387.337 384.374 386.7 391.916 385.977 399.415C385.577 403.115 383.077 406.315 380.077 408.415C378.71 406.179 377.421 403.905 376.137 401.64C375.354 400.258 374.572 398.879 373.777 397.515C374.226 392.165 374.701 386.841 375.176 381.516C375.652 376.191 376.126 370.865 376.577 365.515C377.992 364.293 379.448 363.112 380.919 361.92L380.925 361.915Z" fill="white"/>
<path d="M334.45 402.427C335.4 400.792 336.347 399.163 337.277 397.515C348.277 397.515 359.277 397.515 370.177 397.615C370.943 398.948 371.721 400.27 372.498 401.592C374.054 404.237 375.61 406.881 377.077 409.615C370.268 409.87 363.42 409.841 356.557 409.812L356.534 409.812C352.618 409.795 348.697 409.779 344.777 409.815C343.174 409.748 341.584 409.771 340 409.793C336.839 409.837 333.708 409.881 330.577 409.215C331.847 406.905 333.151 404.661 334.45 402.427Z" fill="white"/>
<path d="M501.878 306.415C508.416 306.365 514.928 306.34 521.428 306.315C527.953 306.29 534.466 306.265 540.978 306.215C543.378 306.115 545.878 306.515 548.178 307.315C545.778 310.915 543.278 314.615 540.778 318.315H507.678C505.678 314.415 503.778 310.415 501.878 306.415Z" fill="white"/>
<path d="M489.67 347.8C490.506 337.659 491.349 327.444 492.278 317.315C492.578 313.115 495.378 309.615 498.878 307.515C499.599 309.075 500.367 310.604 501.132 312.126C502.279 314.408 503.419 316.675 504.378 319.015C504.003 325.266 503.433 331.516 502.863 337.767C502.521 341.516 502.178 345.266 501.878 349.015C500.632 350.012 499.36 350.985 498.089 351.957L498.078 351.965L498.07 351.971C496.798 352.944 495.526 353.917 494.278 354.915L489.478 350.115L489.67 347.8Z" fill="white"/>
<path d="M501.782 352.846C502.352 352.403 502.92 351.962 503.478 351.515C509.001 351.515 514.524 351.54 520.048 351.565L520.128 351.565C525.678 351.59 531.229 351.615 536.778 351.615C538.508 353.119 540.125 354.681 541.757 356.256L541.802 356.299C542.324 356.803 542.849 357.309 543.378 357.815C542.128 358.815 540.903 359.815 539.678 360.815L539.661 360.829C538.442 361.824 537.223 362.82 535.978 363.815C532.241 363.815 528.516 363.804 524.793 363.793L524.782 363.793C517.353 363.771 509.938 363.749 502.478 363.815C501.954 363.316 501.43 362.811 500.905 362.304L500.888 362.288C499.313 360.769 497.724 359.236 496.078 357.815C497.787 355.951 499.798 354.388 501.782 352.846Z" fill="white"/>
<path d="M485.278 396.415C486.278 385.515 487.278 374.615 488.178 363.715C489.977 362.217 491.775 360.818 493.573 359.419L493.578 359.415L500.278 366.115C499.918 369.755 499.622 373.396 499.326 377.036L499.326 377.046C498.882 382.502 498.438 387.959 497.778 393.415C496.01 396.878 493.971 400.286 491.939 403.68C491.214 404.893 490.489 406.104 489.778 407.315C486.778 404.615 484.778 400.515 485.278 396.415Z" fill="white"/>
</g>
<defs>
<clipPath id="clip0_1_181">
<rect width="900" height="900" fill="white"/>
</clipPath>
</defs>
</svg>
