<?xml version="1.0" encoding="utf-8"?>
<!-- Generator: Adobe Illustrator 21.1.0, SVG Export Plug-In . SVG Version: 6.00 Build 0)  -->
<svg version="1.1"
	 id="svg2" inkscape:version="0.91 r13725" sodipodi:docname="MH-S412_icon.svg" xmlns:cc="http://creativecommons.org/ns#" xmlns:dc="http://purl.org/dc/elements/1.1/" xmlns:inkscape="http://www.inkscape.org/namespaces/inkscape" xmlns:rdf="http://www.w3.org/1999/02/22-rdf-syntax-ns#" xmlns:sodipodi="http://sodipodi.sourceforge.net/DTD/sodipodi-0.dtd" xmlns:svg="http://www.w3.org/2000/svg"
	 xmlns="http://www.w3.org/2000/svg" xmlns:xlink="http://www.w3.org/1999/xlink" x="0px" y="0px" viewBox="0 0 244.8 244.7"
	 style="enable-background:new 0 0 244.8 244.7;" xml:space="preserve">
<style type="text/css">
	.st0{fill:none;stroke:#000000;stroke-linejoin:bevel;}
	.st1{fill:#000200;}
	.st2{fill:none;}
	.st3{fill:none;stroke:#000000;stroke-miterlimit:10;}
</style>
<sodipodi:namedview  bordercolor="#666666" borderopacity="1" fit-margin-bottom="5" fit-margin-left="5" fit-margin-right="5" fit-margin-top="5" gridtolerance="10" guidetolerance="10" id="namedview194" inkscape:current-layer="svg2" inkscape:cx="74.609338" inkscape:cy="170.23821" inkscape:pageopacity="0" inkscape:pageshadow="2" inkscape:window-height="781" inkscape:window-maximized="0" inkscape:window-width="1321" inkscape:window-x="0" inkscape:window-y="0" inkscape:zoom="1" objecttolerance="10" pagecolor="#ffffff" showgrid="false">
	</sodipodi:namedview>
<path id="path126" inkscape:connector-curvature="0" class="st0" d="M0.5,1.9v240.9"/>
<path id="path130" inkscape:connector-curvature="0" class="st0" d="M2,244.2h240.9"/>
<path id="path144" inkscape:connector-curvature="0" class="st0" d="M244.3,242.8V1.9"/>
<path id="path146" inkscape:connector-curvature="0" class="st0" d="M241.5,241.4H3.4V3.3h238.1V241.4z"/>
<path id="path148" inkscape:connector-curvature="0" class="st0" d="M242.9,0.5H2"/>
<g id="Layer1007" transform="translate(-163.6351,-451.0562)">
	<path id="path166" inkscape:connector-curvature="0" class="st1" d="M374.2,665v4.3c0,0.4-0.1,0.5-0.5,0.5h-2.8c0,0-0.3,0-0.6,0.3
		c-0.4,0.4-1.7,1.5-1.7,1.5s-0.9,0.7,0.1,0.7h7.9c0.7,0,0.9-0.2,0.9-0.9v-8.5c0-0.7-0.2-1-1-1h-3.1l0,0l0,0c-0.5,0-1.2,0.1-1.6,0.5
		c-0.3,0.2-4.9,4.3-4.9,4.3s-0.2,0.2-0.4,0.2l0,0c-0.1,0-0.3-0.2-0.3-0.2s-4.6-4.1-4.9-4.4c-0.4-0.3-1.1-0.4-1.6-0.4l0,0l0,0h-3.3
		c-0.8,0-1,0.3-1,1v5.4v1v2.1c0,0.6,0.2,0.8,0.8,0.9l0,0h0.1l0,0h1.4h0.6c0,0,0.3,0,0.6-0.3c0.4-0.4,1.7-1.5,1.7-1.5
		s0.9-0.7-0.1-0.7h-1.4c-0.4,0-0.5-0.1-0.5-0.5c0,0,0,0,0-0.1v-0.9v-3.4c0-0.2,0-0.6,0.5-0.2l4.7,4.2c0.1,0.1,0.2,0.2,0.3,0.3
		l-3,2.7c0,0-0.5,0.4,0.2,0.4h3l0,0l0,0c0.3,0,0.9,0,1.6-0.5c0.3-0.2,7.9-7,7.9-7C374.2,664.4,374.2,664.8,374.2,665L374.2,665z"/>
	<path id="path168" inkscape:connector-curvature="0" class="st1" d="M377.1,675.6h-5.5c-0.4,0-0.6,0.2-0.6,0.6v3.5
		c0,0.4,0.2,0.6,0.6,0.6h5.5c0.4,0,0.6-0.2,0.6-0.6v-3.5C377.7,675.8,377.5,675.6,377.1,675.6z M376.1,678.8L376.1,678.8
		c0,0.2,0,0.2-0.2,0.2h-3c-0.2,0-0.2,0-0.2-0.2V677c0-0.2,0-0.2,0.2-0.2h3c0.2,0,0.2,0,0.2,0.2V678.8z"/>
	<path id="path170" inkscape:connector-curvature="0" class="st1" d="M361.1,675.6h-5.5c-0.4,0-0.6,0.2-0.6,0.6v3.5
		c0,0.4,0.2,0.6,0.6,0.6h5.5c0.4,0,0.6-0.2,0.6-0.6v-3.5C361.7,675.8,361.5,675.6,361.1,675.6z M360.1,678.8L360.1,678.8
		c0,0.2,0,0.2-0.2,0.2h-3c-0.2,0-0.2,0-0.2-0.2V677c0-0.2,0-0.2,0.2-0.2h3c0.2,0,0.2,0,0.2,0.2V678.8z"/>
	<path id="path172" inkscape:connector-curvature="0" class="st1" d="M369.7,675.6H369c-0.3,0-0.5,0.1-0.5,0.5v2H365v-2
		c0-0.3-0.1-0.5-0.5-0.5h-0.7c-0.3,0-0.5,0.1-0.5,0.5v3.7c0,0.3,0.1,0.5,0.5,0.5h0.7c0.3,0,0.5-0.1,0.5-0.5v-0.5h3.5v0.5
		c0,0.3,0.1,0.5,0.5,0.5h0.7c0.3,0,0.5-0.1,0.5-0.5v-3.7C370.2,675.7,370,675.6,369.7,675.6z"/>
	<path id="path174" inkscape:connector-curvature="0" class="st1" d="M388.2,676.7h4.3c0.2,0,0.3-0.1,0.3-0.3v-0.6
		c0-0.2-0.1-0.3-0.3-0.3h-2.2h-3h-0.5c-0.4,0-0.6,0.2-0.6,0.6v3.5c0,0.4,0.2,0.6,0.6,0.6h0.5h3h2.2c0.2,0,0.3-0.1,0.3-0.3v-0.6
		c0-0.2-0.1-0.3-0.3-0.3h-4.3c-0.2,0-0.3-0.1-0.3-0.3v-0.3h4.6c0.2,0,0.3-0.1,0.3-0.3v-0.6c0-0.2-0.1-0.3-0.3-0.3h-4.6v-0.3
		C387.8,676.8,388,676.7,388.2,676.7L388.2,676.7z"/>
	<path id="path176" inkscape:connector-curvature="0" class="st1" d="M349.4,678.5v0.3c0,0.2,0.2,0.3,0.3,0.3h4.3
		c0.2,0,0.3,0.1,0.3,0.3v0.6c0,0.2-0.1,0.3-0.3,0.3h-2.2h-3h-0.4c-0.4,0-0.6-0.2-0.6-0.6v-3.5c0-0.4,0.2-0.6,0.6-0.6h0.5h3h2.2
		c0.2,0,0.3,0.1,0.3,0.3v0.6c0,0.2-0.1,0.3-0.3,0.3h-4.3c-0.2,0-0.3,0.1-0.3,0.3v0.3v1.1L349.4,678.5L349.4,678.5z"/>
	<path id="path178" inkscape:connector-curvature="0" class="st1" d="M346.5,675.5h-0.9c-0.3,0-0.5,0-0.8,0.3c-0.1,0.1-1,0.9-1,0.9
		s-0.1,0.1-0.2,0.1s-0.2-0.1-0.2-0.1s-0.8-0.8-1-0.9c-0.4-0.3-0.6-0.3-0.8-0.3h-0.9c-0.3,0-0.5,0.2-0.5,0.5v3.8
		c0,0.3,0.1,0.4,0.5,0.4h0.7c0.3,0,0.4-0.1,0.4-0.5v-2.3c0,0,1.3,1.1,1.4,1.3c0.1,0.1,0.2,0.1,0.3,0.1l0,0l0,0l0,0
		c0.1,0,0.2,0,0.3-0.1c0.2-0.1,1.4-1.3,1.4-1.3v2.4c0,0.3,0.1,0.5,0.4,0.5h0.7c0.3,0,0.5-0.1,0.5-0.4v-3.8
		C347,675.7,346.9,675.5,346.5,675.5L346.5,675.5z"/>
	<path id="path180" inkscape:connector-curvature="0" class="st1" d="M384.9,675.5H384c-0.3,0-0.5,0-0.8,0.3c-0.1,0.1-1,0.9-1,0.9
		s-0.1,0.1-0.2,0.1s-0.2-0.1-0.2-0.1s-0.8-0.8-1-0.9c-0.4-0.3-0.6-0.3-0.8-0.3h-0.9c-0.3,0-0.5,0.2-0.5,0.5v3.8
		c0,0.3,0.1,0.4,0.5,0.4h0.7c0.3,0,0.4-0.1,0.4-0.5v-2.3c0,0,1.3,1.1,1.4,1.3c0.1,0.1,0.2,0.1,0.3,0.1l0,0l0,0l0,0
		c0.1,0,0.2,0,0.3-0.1c0.2-0.1,1.4-1.3,1.4-1.3v2.4c0,0.3,0.1,0.5,0.4,0.5h0.7c0.3,0,0.5-0.1,0.5-0.4v-3.8
		C385.3,675.7,385.2,675.5,384.9,675.5L384.9,675.5z"/>
</g>
<path id="path182" inkscape:connector-curvature="0" class="st2" d="M122.4,64c-1.7,0-3.1,1.4-3.1,3.1s1.4,3.1,3.1,3.1
	s3.1-1.4,3.1-3.1S124.1,64,122.4,64z"/>
<path class="st0" d="M244.3,1.9c0-0.8-0.6-1.4-1.4-1.4"/>
<path class="st0" d="M0.5,1.9c0-0.8,0.7-1.4,1.5-1.4"/>
<path class="st0" d="M0.5,242.8c0,0.8,0.7,1.4,1.5,1.4"/>
<path class="st0" d="M244.3,242.8c0,0.8-0.6,1.4-1.4,1.4"/>
<path class="st3" d="M153.4,98.8c4.9-0.8,10,0.1,14.3,2.5c3.4,1.8,6.3,4.6,8.5,7.8c5,7.5,5.1,18.2,0.4,25.9
	c-2.3,3.7-5.5,6.8-9.3,8.7c-4.2,2.2-9.1,2.9-13.7,2.2c-7.5-1.1-14.2-6.2-17.4-13.2c-3.7-8-2.8-18.1,2.6-25.1
	C142.3,102.9,147.6,99.7,153.4,98.8 M154.1,102.2c-4.1,0.6-8,2.5-11,5.5c-3.6,3.5-5.9,8.4-6.3,13.5c-0.3,3.6,0.5,7.1,2.1,10.2
	c2.2,4.3,6,7.9,10.6,9.7c4.3,1.7,9.1,1.8,13.5,0.4c7.5-2.3,13-9.5,13.8-17.3c0.8-7.4-2.9-15.1-9.1-19
	C163.6,102.5,158.8,101.5,154.1,102.2z"/>
<path d="M88.2,98.8c3.9-0.3,7.8,0.4,11.3,2.2c4.3,2.1,8,5.5,10.2,9.7c4.2,7.5,3.9,17.4-0.8,24.6c-2.6,4.1-6.5,7.3-10.9,9
	c-4.5,1.7-9.5,2.1-14.1,0.9c-7.1-1.8-13.2-7.3-15.8-14.3c-2.1-5.5-2-12,0.2-17.5C71.5,105.1,79.6,99.2,88.2,98.8 M86.9,101.9
	c-5.1,0.7-9.9,3.5-13,7.6c-2.3,2.9-3.8,6.6-4.2,10.3c-0.6,4.4,0.4,8.9,2.6,12.7c2.2,3.8,5.6,6.9,9.7,8.6c4.5,1.9,9.7,2.2,14.3,0.5
	c4-1.4,7.5-4,10-7.5c2.5-3.5,3.8-7.7,3.8-12c0-6.8-3.5-13.4-9-17.2C96.9,102.4,91.8,101.3,86.9,101.9z"/>
<g>
	<rect x="88.3" y="114.9" width="2.8" height="14.7"/>
	<rect x="82.5" y="120.9" width="14.4" height="2.9"/>
</g>
<rect x="149.8" y="120.6" class="st3" width="14.4" height="2.9"/>
</svg>
