<?xml version="1.0" encoding="utf-8"?>
<!-- Generator: Adobe Illustrator 21.1.0, SVG Export Plug-In . SVG Version: 6.00 Build 0)  -->
<svg version="1.1" id="Laag_1" xmlns="http://www.w3.org/2000/svg" xmlns:xlink="http://www.w3.org/1999/xlink" x="0px" y="0px"
	 viewBox="0 0 1151.6 1661.1" style="enable-background:new 0 0 1151.6 1661.1;" xml:space="preserve">
<style type="text/css">
	.st0{stroke:#000000;stroke-width:2;stroke-miterlimit:10;}
	.st1{fill:#FFFFFF;}
	.st2{fill:none;stroke:#000000;stroke-width:3;stroke-linecap:round;stroke-linejoin:round;stroke-miterlimit:10;}
	.st3{fill:none;stroke:#000000;stroke-width:2;stroke-miterlimit:10;}
	.st4{fill:#0078CC;stroke:#0066CC;stroke-miterlimit:10;}
	.st5{fill:none;stroke:#000000;stroke-width:3;stroke-miterlimit:10;}
</style>
<path class="st0" d="M187,1150.1h777.6c2.4,0,4-0.8,4.9-2.4c0.8-0.8,1.6-2.4,1.6-4v-0.1V199.1c0-3.5-2.9-6.4-6.5-6.4H187l-6.5,6.4
	v944.5c0,1.6,0.8,3.2,1.6,4C183.7,1149.2,185.3,1150,187,1150.1"/>
<g id="LWPOLYLINE_69_">
	<path class="st1" d="M677.2,868.6c-0.2,0.4-0.5,0.8-0.6,1.2l-5.3-13.8l-9.5,24.8c-3.3,5.2-1.8,12.2,3.4,15.6
		c5.2,3.3,12.2,1.8,15.6-3.4c2.3-3.7,2.4-8.3,0.1-12c4.3,2,9.3,0.1,11.3-4.2c1.2-2.6,1-5.7-0.6-8.1l-7.2-18.8
		C684.3,849.8,677.2,868.6,677.2,868.6z"/>
</g>
<path class="st1" d="M616.9,818.3h325c3.6,0,6.5-2.9,6.5-6.5v-52c0-3.6-2.9-6.5-6.5-6.5h-325c-3.6,0-6.5,2.9-6.5,6.5v52
	C610.4,815.4,613.3,818.3,616.9,818.3L616.9,818.3z M616.9,814.4h325c1.4,0,2.6-1.2,2.6-2.6v-52c0-1.4-1.2-2.6-2.6-2.6h-325
	c-1.4,0-2.6,1.2-2.6,2.6v52C614.3,813.3,615.4,814.4,616.9,814.4L616.9,814.4z"/>
<g id="LWPOLYLINE_16_">
	<path d="M616.9,814.4h325c1.4,0,2.6-1.2,2.6-2.6v-52c0-1.4-1.2-2.6-2.6-2.6h-325c-1.4,0-2.6,1.2-2.6,2.6v52
		C614.3,813.3,615.4,814.4,616.9,814.4z"/>
</g>
<g id="LWPOLYLINE_21_">
	<path class="st1" d="M226.9,818.3h325c3.6,0,6.5-2.9,6.5-6.5v-52c0-3.6-2.9-6.5-6.5-6.5h-325c-3.6,0-6.5,2.9-6.5,6.5v52
		C220.4,815.4,223.3,818.3,226.9,818.3z"/>
</g>
<g id="LWPOLYLINE_20_">
	<path d="M226.9,814.4h325c1.4,0,2.6-1.2,2.6-2.6v-52c0-1.4-1.2-2.6-2.6-2.6h-325c-1.4,0-2.6,1.2-2.6,2.6v52
		C224.3,813.3,225.4,814.4,226.9,814.4z"/>
</g>
<g id="LWPOLYLINE_3_">
	<line class="st2" x1="8" y1="1659.6" x2="1143.6" y2="1659.6"/>
</g>
<g id="LWPOLYLINE_4_">
	<line class="st2" x1="14.5" y1="1647.4" x2="1137.1" y2="1647.4"/>
</g>
<g id="LWPOLYLINE_5_">
	<line class="st2" x1="1.5" y1="8" x2="1.5" y2="1653.9"/>
</g>
<g id="LWPOLYLINE_6_">
	<line class="st2" x1="14.5" y1="14.5" x2="14.5" y2="1647.4"/>
</g>
<g id="LWPOLYLINE_9_">
	<line class="st2" x1="1137.1" y1="1647.4" x2="1137.1" y2="14.5"/>
</g>
<g id="LWPOLYLINE_10_">
	<line class="st2" x1="1150.1" y1="1653.9" x2="1150.1" y2="8"/>
</g>
<g id="LWPOLYLINE_11_">
	<line class="st2" x1="1137.1" y1="14.5" x2="14.5" y2="14.5"/>
</g>
<g id="HATCH_96_">
	<path d="M379.1,1482.7H374c-1.5,0-2.7,0-4.7,1.8c-0.8,0.7-5.6,5.1-5.6,5.1s-0.5,0.5-1.1,0.5s-1.1-0.5-1.1-0.5s-4.8-4.4-5.6-5.1
		c-2.1-1.8-3.3-1.8-4.7-1.8h-5.1c-1.8,0-2.7,0.9-2.7,2.8v21.8c0,1.8,0.9,2.3,2.7,2.3h4.1c1.8,0,2.3-0.8,2.3-2.6v-13.7
		c0,0,7.2,6.5,8.2,7.3c0.8,0.7,1.4,0.7,1.8,0.7s1-0.1,1.8-0.7c1-0.8,8.2-7.3,8.2-7.3v13.7c0,1.8,0.5,2.6,2.3,2.6h4.1
		c1.8,0,2.7-0.5,2.7-2.3v-21.8C381.8,1483.6,381,1482.7,379.1,1482.7z M159.8,1482.7h-5.1c-1.5,0-2.7,0-4.7,1.8
		c-0.8,0.7-5.6,5.1-5.6,5.1s-0.5,0.5-1.1,0.5s-1.1-0.5-1.1-0.5s-4.8-4.4-5.6-5.1c-2.1-1.8-3.3-1.8-4.7-1.8h-5.1
		c-1.8,0-2.7,0.9-2.7,2.8v21.8c0,1.8,0.9,2.3,2.7,2.3h4.1c1.8,0,2.3-0.8,2.3-2.6v-13.7c0,0,7.2,6.5,8.2,7.3c0.8,0.7,1.4,0.7,1.8,0.7
		c0.4,0,1-0.1,1.8-0.7c1-0.8,8.2-7.3,8.2-7.3v13.7c0,1.8,0.5,2.6,2.3,2.6h4.2c1.8,0,2.7-0.5,2.7-2.3v-21.8
		C162.5,1483.6,161.6,1482.7,159.8,1482.7z M176.2,1499.7v1.6c0,1.1,0.9,1.5,2,1.5h24.4c1.4,0,1.8,0.4,1.8,1.8v3.2
		c0,1.4-0.4,1.8-1.8,1.8h-12.4h-17.1h-2.8c-2.3,0-3.4-1.2-3.4-3.4v-19.8c0-2.3,1.2-3.4,3.4-3.4h2.8h17.1h12.4c1.4,0,1.8,0.4,1.8,1.8
		v3.2c0,1.4-0.4,1.8-1.8,1.8h-24.4c-1.1,0-2,0.4-2,1.5v1.8V1499.7z M398.1,1489.7h24.4c1.4,0,1.8-0.4,1.8-1.8v-3.2
		c0-1.4-0.4-1.8-1.8-1.8h-12.4H393h-2.8c-2.3,0-3.4,1.2-3.4,3.4v19.8c0,2.3,1.2,3.4,3.4,3.4h2.8h17.1h12.4c1.4,0,1.8-0.4,1.8-1.8
		v-3.2c0-1.4-0.4-1.8-1.8-1.8h-24.4c-1.1,0-2-0.4-2-1.5v-1.6h26.4c1.4,0,1.8-0.4,1.8-1.8v-3.2c0-1.4-0.4-1.8-1.8-1.8h-26.4v-1.8
		C396.1,1490,397,1489.7,398.1,1489.7z M292.5,1482.9h-3.9c-1.8,0-2.6,0.8-2.6,2.6v11.7h-19.9v-11.7c0-1.8-0.8-2.6-2.6-2.6h-3.9
		c-1.8,0-2.6,0.8-2.6,2.6v21.4c0,1.8,0.8,2.6,2.6,2.6h3.9c1.8,0,2.6-0.8,2.6-2.6v-2.9H286v2.9c0,1.8,0.8,2.6,2.6,2.6h3.9
		c1.8,0,2.6-0.8,2.6-2.6v-21.4C295.1,1483.7,294.3,1482.9,292.5,1482.9z M237.4,1501.4c0,1.1-0.2,1.3-1.3,1.3h-17
		c-1.1,0-1.3-0.2-1.3-1.3v-10.2c0-1.1,0.2-1.3,1.3-1.3h17c1.1,0,1.3,0.2,1.3,1.3C237.4,1491.1,237.4,1501.4,237.4,1501.4z
		 M243.3,1482.9H212c-2.3,0-3.4,1.2-3.4,3.4v19.8c0,2.3,1.2,3.4,3.4,3.4h31.3c2.3,0,3.4-1.2,3.4-3.4v-19.8
		C246.7,1484.1,245.5,1482.9,243.3,1482.9z M329,1501.4c0,1.1-0.2,1.3-1.3,1.3h-17c-1.1,0-1.3-0.2-1.3-1.3v-10.2
		c0-1.1,0.2-1.3,1.3-1.3h17c1.1,0,1.3,0.2,1.3,1.3C329,1491.1,329,1501.4,329,1501.4z M334.9,1482.9h-31.3c-2.3,0-3.4,1.2-3.4,3.4
		v19.8c0,2.3,1.2,3.4,3.4,3.4h31.3c2.3,0,3.4-1.2,3.4-3.4v-19.8C338.3,1484.1,337.1,1482.9,334.9,1482.9z M318.1,1422.3v24.4
		c0,2.3-0.8,3.1-3.1,3.1h-16.1c0,0-1.8-0.1-3.5,1.4c-2.3,2.1-9.7,8.7-9.7,8.7s-5,4.3,0.8,4.3h44.9c4,0,5.3-1.2,5.3-4.9v-48.6
		c0-4.2-1.4-5.7-5.8-5.7H313c-2.9,0-6.9,0.7-9.5,2.7c-1.8,1.4-28,24.8-28,24.8s-1.3,1.3-2.1,1.3c-0.1,0-0.2,0-0.3,0
		c-0.7-0.2-1.8-1.3-1.8-1.3s-26.4-23.5-28.2-24.9c-2.6-2-6.3-2.5-9.2-2.5H216c-4.4,0-5.8,1.4-5.8,5.7v30.9v5.5v12.2
		c0,3.5,1.1,4.8,4.6,4.9h0.6c0,0,0,0,0.1,0h8.2h3.7c0,0,1.8,0.1,3.5-1.4c2.3-2.1,9.7-8.7,9.7-8.7s5-4.3-0.8-4.3h-8
		c-2.1,0-3-0.8-3-2.8c0-0.1,0-0.2,0-0.3v-5.2v-19.3c0-1.1,0-3.4,2.7-1.2l26.7,23.9c0.6,0.5,1.1,1,1.7,1.5l-17.2,15.3
		c0,0-3,2.4,1.1,2.4h17.1c1.8,0,5,0,9.2-2.9c1.9-1.3,45.3-40.2,45.3-40.2C318.1,1418.9,318.1,1421.2,318.1,1422.3z"/>
</g>
<g id="HATCH_4_">
	<path d="M502.2,781.6l2.7-0.5l2.7,0.6l1.1,2.1l-0.2,1.1l-2,2.1l-2.3,0.8l-3.3,0.3l-1-0.1l-2.9-0.7l1-2.3l1.8-2.2L502.2,781.6
		L502.2,781.6z M452.6,793l2.7-15h-4.4l-2.7,15.4l-0.3,2.3l0.3,2.1l1.3,2.5l1.2,0.9l3.1,0.7h0.7l3.3-0.5l2.5-1.3l1.9-1.9l-0.6,3.3
		h4.4l4.3-23.5h-4.4l-2.7,14.5l-0.5,1.7l-2,2.4l-1.7,1.1l-2.8,0.7h-0.4l-2.5-1l-0.8-2.6L452.6,793L452.6,793z M476.9,801.5l2.4-13.4
		l0.7-2.5l1.7-2.5l1.5-1.2l2.7-0.8h0.3l2.8,1.1l1.1-4.3l-2.3-0.3l-2.8,0.5l-2.5,1.4l-2.1,2.3l0.7-3.8h-4.2l-4.2,23.5H476.9
		L476.9,801.5z M496.7,795.6l-0.6-3.1l0.2-2l2.1,0.8l3.2,0.3l2.5-0.1l3-0.7l2.5-1.3l0.9-0.7l1.7-2.3l0.5-3l-0.3-1.9l-1.7-2.3
		l-2.3-1.1l-3.2-0.4l-1.8,0.1l-2.9,0.7l-2.6,1.3l-2.3,2l-1.2,1.5L493,786l-0.9,2.8l-0.3,3.2l0.1,2.1l0.7,2.9l1.2,2.3l1.7,1.6l2.4,1
		l3,0.3h0.1l2.9-0.3l3.2-0.9l0.4-4.2l-2.3,1.3l-2.8,0.5l-2.1-0.2l-2.5-1.3L496.7,795.6L496.7,795.6z M391,801.5l2.4-13.4l0.7-2.5
		l1.7-2.5l1.5-1.2l2.7-0.8h0.3l2.8,1.1l1.1-4.3l-2.3-0.3l-2.8,0.5l-2.5,1.4l-2.1,2.3l0.7-3.8H391l-4.2,23.5H391L391,801.5z
		 M405.2,790.9L405,794v0.3l0.5,3.2l1.4,2.3l2.3,1.5l3.1,0.5l1.3-0.1l3-0.7l0.7-0.3l2.4-1.7l0.7,2.3h4.2l-0.1-0.3l-0.7-2.9l-0.3-3.2
		l0.2-2l2.9-13.7l-1.7-0.9l-2.8-0.7l-3.6-0.3l-2.4,0.2l-2.7,0.9l-2.5,1.5l-2.1,2.3l-0.1,0.1l-1.7,2.5l-1.1,2.7L405.2,790.9
		L405.2,790.9z M409.6,790.1l0.9-2.9l1.4-2.5l1.1-1.3l2.3-1.8l2.7-0.6l1.7,0.1l2.2,0.8l-1.8,8.7l-0.1,0.3l-1,3l-1.5,2.4l-1.5,1.4
		l-2.6,0.9l-1.6-0.3l-1.9-1.5l-0.6-3v-0.6L409.6,790.1L409.6,790.1z M373.6,781.6l2.7-0.5l2.7,0.6l1.1,2.1l-0.2,1.1l-2,2.1l-2.3,0.8
		l-3.3,0.3l-1-0.1l-2.9-0.7l1-2.3l1.9-2.2L373.6,781.6L373.6,781.6z M346.9,782.1l2.9-0.9l1.9,0.1l2.4,1.3l0.9,1.2l0.6,3.2l-0.3,3.2
		l-0.8,2.8l-1.4,2.4l-1.4,1.3l-2.5,1.3l-3.1,0.5l-2.3-0.5l-1.6-1.2l2.3-12.9L346.9,782.1L346.9,782.1L346.9,782.1z M368.1,795.6
		l-0.7-3.1l0.2-2l2.1,0.8l3.2,0.3l2.5-0.1l3-0.7l2.5-1.3l1-0.7l1.7-2.3l0.5-3l-0.3-1.9l-1.7-2.3l-2.3-1.1l-3.3-0.4l-1.7,0.1l-3,0.7
		l-2.5,1.3l-2.3,2l-1.2,1.5l-1.4,2.6l-0.9,2.8l-0.3,3.2l0.1,2.1l0.7,2.9l1.2,2.3l1.7,1.6l2.4,1l3,0.3h0.1l2.8-0.3l3.2-0.9l0.5-4.2
		l-2.4,1.3l-2.8,0.5l-2.1-0.2l-2.5-1.3L368.1,795.6L368.1,795.6z M354.2,799.7l2.1-2.1l1.5-2.3l1.2-2.7l0.7-3l0.3-3.2l-0.1-1.2
		l-0.7-3.1l-1.5-2.2l-0.7-0.6l-2.5-1.2l-3.3-0.3h-0.6l-3,0.8l-0.6,0.3l-2.3,1.8l-0.4-3l-4.2,0.7l0.1,0.2l0.3,3.1v0.2l-0.3,3.1
		l-4.6,25.8h4.2l1.8-10.5l2.1,1.3l3,0.5l2.1-0.1l2.8-0.8C351.6,801.1,354.2,799.7,354.2,799.7L354.2,799.7z M282,795.6l-0.7-3.1
		l0.2-2l2.1,0.8l3.2,0.3l2.5-0.1l3-0.7l2.5-1.3l1-0.7l1.7-2.3l0.5-3l-0.3-1.9l-1.7-2.3l-2.3-1.1l-3.3-0.4l-1.7,0.1l-3,0.7l-2.5,1.3
		l-2.3,2l-1.3,1.5l-1.4,2.6l-0.9,2.8L277,792l0.1,2.1l0.7,2.9l1.2,2.3l1.8,1.6l2.3,1l3,0.3h0.1l2.8-0.3l3.2-0.9l0.5-4.2l-2.4,1.3
		l-2.8,0.5l-2.1-0.2l-2.5-1.3L282,795.6L282,795.6z M287.4,781.6l2.7-0.5l2.7,0.6l1.1,2.1l-0.2,1.1l-1.9,2.1l-2.3,0.8l-3.3,0.3
		l-1-0.1l-2.9-0.7l1.1-2.3l1.8-2.2L287.4,781.6L287.4,781.6z M261.8,801.5l5-28.1h10.5l0.7-4h-25.2l-0.7,4h10.2l-4.9,28.1H261.8
		L261.8,801.5z M313.7,801.5h4.2l3.1-17.4l2.2-2.1l2.9-0.9l0.7,0.1l2.4,1.1l0.7,2.7l-0.1,1.7l-2.6,14.8h4.3l2.7-15.7l0.2-2.1
		l-0.1-1.8l-1.1-2.4l-2.1-1.4l-3.1-0.5l-1,0.1l-3.1,0.8l-0.7,0.3l-2.3,1.9l-0.8-1.3l-2.3-1.4l-3.4-0.5l-1.2,0.1l-3,0.7l-0.7,0.3
		l-2.2,1.9l-0.5-3.1l-4,0.8l0.1,0.7l0.3,3.2l-0.1,2.1l-3,17.1h4.3l3-17.3h0.1l2.3-2.1l2.7-0.9h0.3l2.9,0.8l1,2.2l-0.1,0.7
		L313.7,801.5L313.7,801.5z M435.9,793l2.4-11.7h6.4l0.7-3.3H439l1.6-6.6l-4.8,1.7l-0.9,4.9h-2.7l-0.7,3.3h2.7l-2.8,13.3l-0.2,1.5
		l0.2,1.7l1.2,2.5l0.9,0.8l3,0.7l3.2-0.1l2.5-0.5l0.2-3.7l-0.6,0.3l-3,0.6l-2.4-0.7l-0.9-2.6L435.9,793L435.9,793z"/>
</g>
<g id="LWPOLYLINE_19_">
	<polygon class="st1" points="435.9,793 438.3,781.3 444.7,781.3 445.4,778.1 439,778.1 440.6,771.4 435.8,773.2 434.9,778.1 
		432.1,778.1 431.4,781.3 434.1,781.3 431.3,794.7 431.1,796.2 431.3,797.8 432.5,800.4 433.5,801.2 436.4,801.9 439.6,801.8 
		442.2,801.3 442.4,797.6 441.8,797.8 438.9,798.4 436.5,797.7 435.5,795.1 	"/>
</g>
<g id="HATCH_6_">
	<polygon points="209,401.7 959.6,401.7 959.6,408.6 209,408.6 	"/>
</g>
<g id="LWPOLYLINE_22_">
	<rect x="209" y="401.7" class="st1" width="750.5" height="6.9"/>
</g>
<g id="HATCH_7_">
	<polygon class="st1" points="440,946.4 440.4,937.4 432.3,937.4 431.9,946.4 	"/>
</g>
<g id="HATCH_8_">
	<polygon class="st1" points="951.4,983.8 951.4,990.8 210.4,990.8 210.4,983.8 	"/>
</g>
<g id="HATCH_9_">
	<path class="st1" d="M349.5,897.7l5.3,5l4.9-3.9l2.4-27c0.3-3.3-1-6.5-3.5-8.6l-6.9,10.2C351.7,873.3,349.5,897.7,349.5,897.7
		L349.5,897.7z"/>
</g>
<g id="HATCH_10_">
	<path class="st1" d="M383.4,861.7c-3.1,1.6-5.2,4.7-5.5,8.2l-2.4,27.6l4,3.9l6.4-5l2.2-25.3L383.4,861.7L383.4,861.7z"/>
</g>
<g id="HATCH_11_">
	<path class="st1" d="M423.5,902.7l4.9-3.9l2.4-27c0.3-3.3-1-6.5-3.5-8.6l-6.9,10.2l-2.1,24.4L423.5,902.7L423.5,902.7z"/>
</g>
<path class="st1" d="M266.8,883.1v32.4c-4.8,1.4-7.5,6.4-6.1,11.2s6.4,7.5,11.2,6.1c4.8-1.4,7.5-6.4,6.1-11.2
	c-0.9-3-3.2-5.3-6.1-6.1v-32.4c0-1.4-1.1-2.5-2.5-2.5C267.9,880.5,266.8,881.7,266.8,883.1L266.8,883.1z M260.1,861.1v48.5
	c-8.1,5.1-10.5,15.7-5.5,23.8c5.1,8.1,15.7,10.5,23.8,5.5c8.1-5.1,10.5-15.7,5.5-23.8c-1.4-2.2-3.3-4.1-5.5-5.5v-48.5
	c-0.6-5.1-5.2-8.7-10.2-8.1C264,853.5,260.6,856.9,260.1,861.1L260.1,861.1z M262.2,861.2v49.6c-7.4,3.9-10.2,13.1-6.4,20.5
	c3.9,7.4,13.1,10.2,20.5,6.4s10.2-13.1,6.4-20.5c-1.4-2.7-3.6-4.9-6.4-6.4v-49.6c-0.5-3.9-4.1-6.6-8-6.1
	C265.2,855.6,262.7,858.1,262.2,861.2L262.2,861.2z"/>
<g id="HATCH_13_">
	<polygon class="st1" points="346.7,898.9 352.2,904 345.9,909.1 317.7,909.1 312.3,903.8 318.7,898.9 	"/>
</g>
<g id="HATCH_14_">
	<path class="st1" d="M313.5,948H346c0.9,0,1.8-0.1,2.6-0.3l-5.8-10h-27.6l-5.6,9.6C310.9,947.8,312.2,948,313.5,948L313.5,948z"/>
</g>
<g id="HATCH_15_">
	<path class="st1" d="M303.3,936.9c-0.3,3.4,1.1,6.7,3.8,8.8l6.8-11.6l2-23l-5.6-5.5l-4.5,3.5L303.3,936.9L303.3,936.9z"/>
</g>
<g id="HATCH_16_">
	<polygon class="st1" points="415.4,898.9 420.9,904 414.6,909.1 386.3,909.1 380.9,903.8 387.3,898.9 	"/>
</g>
<g id="HATCH_17_">
	<path class="st1" d="M417.3,947.7l-5.8-10h-27.6l-5.6,9.6c1.2,0.5,2.5,0.7,3.8,0.7h32.5C415.6,948,416.4,947.9,417.3,947.7
		L417.3,947.7z"/>
</g>
<g id="HATCH_18_">
	<path class="st1" d="M372,936.9c-0.3,3.4,1.1,6.7,3.8,8.8l6.8-11.6l2-23l-5.6-5.5l-4.5,3.5L372,936.9L372,936.9z"/>
</g>
<g id="HATCH_19_">
	<path class="st1" d="M427.4,910.3l-4.6-4.3l-5.7,4.6l-2.4,26.9l5.2,9c2.8-1.7,4.7-4.6,5-7.9L427.4,910.3L427.4,910.3z"/>
</g>
<g id="LWPOLYLINE_38_">
	<polygon class="st1" points="313.7,801.5 317.9,801.5 321,784.2 323.2,782 326.1,781.1 326.8,781.2 329.2,782.3 329.9,785 
		329.8,786.7 327.2,801.5 331.5,801.5 334.2,785.8 334.4,783.8 334.3,781.9 333.2,779.5 331.1,778.1 328,777.7 327,777.7 
		323.9,778.5 323.3,778.9 320.9,780.8 320.1,779.5 317.8,778.1 314.5,777.7 313.3,777.7 310.3,778.5 309.6,778.8 307.4,780.7 
		306.9,777.7 302.9,778.5 303,779.1 303.3,782.3 303.2,784.4 300.1,801.5 304.4,801.5 307.4,784.2 307.5,784.2 309.8,782.1 
		312.5,781.1 312.8,781.1 315.7,781.9 316.7,784.2 316.6,784.9 	"/>
</g>
<g id="HATCH_20_">
	<path class="st1" d="M350.1,870.7l6.2-9.1c-1.4-0.6-2.8-1-4.3-1h-32.5c-0.7,0-1.4,0.1-2,0.2l4.9,9.9L350.1,870.7L350.1,870.7z"/>
</g>
<g id="LWPOLYLINE_40_">
	<polygon class="st1" points="261.8,801.5 266.8,773.4 277.3,773.4 278.1,769.5 252.9,769.5 252.1,773.4 262.3,773.4 257.4,801.5 	
		"/>
</g>
<g id="LWPOLYLINE_42_">
	<polygon class="st1" points="282,795.6 281.3,792.5 281.5,790.5 283.6,791.3 286.8,791.6 289.3,791.5 292.2,790.7 294.8,789.4 
		295.8,788.7 297.5,786.3 298,783.4 297.7,781.4 295.9,779.1 293.6,778.1 290.3,777.7 288.6,777.7 285.7,778.5 283.1,779.7 
		280.8,781.7 279.6,783.2 278.1,785.8 277.3,788.7 277,791.8 277.1,793.9 277.7,796.8 278.9,799 280.8,800.7 283.1,801.7 
		286.1,801.9 286.2,801.9 289,801.7 292.2,800.8 292.7,796.6 290.3,797.9 287.5,798.4 285.4,798.2 282.9,796.9 	"/>
</g>
<g id="LWPOLYLINE_43_">
	<polygon class="st1" points="354.2,799.7 356.3,797.6 357.9,795.3 359.1,792.6 359.8,789.7 360,786.4 360,785.2 359.3,782.1 
		357.8,779.9 357.1,779.3 354.6,778.1 351.3,777.8 350.7,777.8 347.7,778.6 347.1,778.9 344.7,780.7 344.3,777.8 340.2,778.5 
		340.2,778.7 340.5,781.8 340.5,782 340.2,785.1 335.6,810.8 339.8,810.8 341.6,800.3 343.7,801.6 346.7,802.1 348.8,801.9 
		351.6,801.1 	"/>
</g>
<g id="HATCH_21_">
	<path class="st1" d="M424.9,861.6c-1.4-0.6-2.8-1-4.3-1h-32.5c-0.7,0-1.4,0.1-2,0.2l4.9,9.9h27.9L424.9,861.6L424.9,861.6z"/>
</g>
<g id="LWPOLYLINE_45_">
	<polygon class="st1" points="368.1,795.6 367.5,792.5 367.7,790.5 369.8,791.3 373,791.6 375.4,791.5 378.4,790.7 380.9,789.4 
		382,788.7 383.6,786.3 384.2,783.4 383.8,781.4 382.1,779.1 379.8,778.1 376.5,777.7 374.8,777.7 371.8,778.5 369.3,779.7 
		366.9,781.7 365.7,783.2 364.3,785.8 363.4,788.7 363.2,791.8 363.2,793.9 363.9,796.8 365.1,799 366.9,800.7 369.3,801.7 
		372.2,801.9 372.4,801.9 375.2,801.7 378.4,800.8 378.9,796.6 376.5,797.9 373.6,798.4 371.6,798.2 369.1,796.9 	"/>
</g>
<g id="LWPOLYLINE_46_">
	<polygon points="346.9,782.1 349.8,781.3 351.7,781.4 354.1,782.7 355,783.9 355.6,787 355.3,790.3 354.5,793.1 353.1,795.5 
		351.7,796.8 349.2,798.1 346.1,798.6 343.8,798.1 342.2,796.9 344.5,784 346.8,782.1 	"/>
</g>
<g id="LWPOLYLINE_47_">
	<polygon points="373.6,781.6 376.3,781.1 379,781.7 380.1,783.8 379.9,785 377.9,787 375.6,787.8 372.3,788.2 371.3,788.1 
		368.4,787.4 369.4,785.2 371.3,783 	"/>
</g>
<g id="LWPOLYLINE_49_">
	<polygon class="st1" points="405.2,790.9 405,794 405,794.4 405.5,797.6 406.9,799.9 409.2,801.5 412.3,801.9 413.6,801.9 
		416.6,801.2 417.2,800.9 419.6,799.2 420.4,801.5 424.6,801.5 424.5,801.3 423.8,798.4 423.5,795.2 423.7,793.2 426.6,779.5 
		424.9,778.7 422.1,777.9 418.5,777.7 416.1,777.9 413.3,778.8 410.9,780.3 408.8,782.6 408.7,782.7 407,785.2 405.9,788 	"/>
</g>
<g id="LWPOLYLINE_50_">
	<polygon class="st1" points="391,801.5 393.4,788.1 394.2,785.6 395.9,783.2 397.4,781.9 400.1,781.1 400.4,781.1 403.2,782.2 
		404.3,777.9 402,777.7 399.2,778.1 396.6,779.5 394.5,781.8 395.2,778.1 391,778.1 386.8,801.5 	"/>
</g>
<g id="HATCH_22_">
	<path class="st1" d="M290.2,548.7l3.2,1l0.2,0.1l1.4,3l-0.1,0.9l-1.1,3.5l-0.4,0.6l-1.8,2.7l-2.7,3.5l-12,15.5v2.3h20.4l0.8-4.5
		h-13.5l8.9-11.6l1.8-2.3l2.1-3.1l1.4-2.3l0.8-1.9l0.6-3.4l-0.6-3.2l-2-2.7l-0.6-0.5l-3.1-1.2l-3.9-0.5l-1.9,0.2l-3.5,0.9l-2.6,1.7
		l-1.8,2.7l3.5,2.3l2.6-2.5l3.1-0.8h0.8V548.7z M249.1,567.5l0.2-2.4l0.6-3.5l1.1-3.3l1.6-3.3l0.8-1.3l2.5-2.7l2.7-1.6l3.1-0.6
		l1.4,0.1l2.9,0.9l2.1,1.9l1.2,2.8l0.4,3.8v0.2l-0.2,3.7l-0.6,3.5l-1.1,3.2l-1.6,3l-1,1.5l-2.5,2.3l-3,1.4l-3.3,0.5l-2.9-0.6
		l-2.5-2.2l-0.4-0.6l-1.1-3.1C249.5,571.4,249.1,567.5,249.1,567.5L249.1,567.5z M244.6,561l-0.6,3.5l-0.2,3.7v0.3l0.4,3.7l1,3.3
		l1.7,2.8l2.1,1.9l3,1.4l3.6,0.5l2.9-0.2l3.4-0.8l3.1-1.4l2.7-1.9l2.3-2.6l2.2-3.6l1.3-3.1l1-3.4l0.6-3.6l0.2-3.9v-0.2l-0.4-3.9
		l-1-3.2l-1.9-2.6l-2.6-1.9l-3.1-1.1l-3.9-0.4l-1.9,0.2l-3.3,0.7l-3.1,1.4l-2.7,2.1l-2.4,2.7l-0.1,0.1l-1.9,3l-1.4,3.1L244.6,561
		L244.6,561z M222.7,576.3l-1.9-2l-1.2-3l-0.3-3.9l0.2-2.9l0.7-3.5l1.3-3.2l1.9-3.1l1.1-1.5l2.7-2.4l2.9-1.4l3.2-0.5l3,0.3l2.9,1.3
		l1.4-4.9l-3.1-0.9l-3.9-0.2l-2.5,0.2l-3.4,0.7l-3,1.4l-2.8,2l-2.4,2.7l-0.3,0.4l-1.9,2.9l-1.5,3l-1,3.3l-0.6,3.5l-0.2,3.8v0.5
		l0.4,3.8l1.1,3.2l1.8,2.7l2.3,1.9l3.1,1.3l3.8,0.4l3.6-0.2l3.3-1l2.6-1.6l0.4-5.2l-2.3,1.6l-3.1,1.5l-3.2,0.5l-2.5-0.3L222.7,576.3
		L222.7,576.3z"/>
</g>
<g id="LWPOLYLINE_53_">
	<polygon points="249.1,567.5 249.3,565.1 249.9,561.6 251.1,558.3 252.7,555 253.5,553.7 256,551.1 258.7,549.5 261.9,548.9 
		263.3,549 266.2,549.9 268.3,551.7 269.5,554.5 269.9,558.3 269.9,558.6 269.7,562.3 269,565.8 267.9,569 266.3,572 265.2,573.5 
		262.7,575.9 259.8,577.3 256.5,577.8 253.6,577.1 251.1,575 250.7,574.4 249.5,571.4 	"/>
</g>
<g id="HATCH_25_">
	<path class="st1" d="M476.8,901.6l3.7-5.5c-0.8-0.4-1.7-0.6-2.6-0.6h-19.5c-0.4,0-0.8,0-1.2,0.1l2.9,5.9L476.8,901.6L476.8,901.6z"
		/>
</g>
<g id="HATCH_26_">
	<polygon class="st1" points="474.8,918.5 478.1,921.6 474.3,924.7 457.3,924.7 454.1,921.5 457.9,918.5 	"/>
</g>
<g id="HATCH_27_">
	<path class="st1" d="M480.5,942.4l1.5-17l-2.8-2.6l-3.4,2.8l-1.4,16.2l3.1,5.4C479.2,946.2,480.3,944.4,480.5,942.4L480.5,942.4z"
		/>
</g>
<g id="HATCH_28_">
	<path class="st1" d="M454.8,948h19.5c0.5,0,1.1-0.1,1.6-0.2l-3.5-6h-16.6l-3.3,5.7C453.3,947.9,454,948,454.8,948L454.8,948z"/>
</g>
<g id="HATCH_29_">
	<path class="st1" d="M448.7,941.3c-0.2,2,0.7,4,2.3,5.3l4.1-7l1.2-13.8l-3.4-3.3l-2.7,2.1L448.7,941.3L448.7,941.3z"/>
</g>
<g id="HATCH_30_">
	<path class="st1" d="M476.5,917.8l3.2,3l2.9-2.4l1.4-16.2c0.2-2-0.6-3.9-2.1-5.2l-4.1,6.1L476.5,917.8L476.5,917.8z"/>
</g>
<g id="HATCH_31_">
	<path class="st1" d="M455.6,896.2c-1.9,1-3.1,2.8-3.3,4.9l-1.5,16.6l2.4,2.4l3.8-3l1.3-15.2L455.6,896.2L455.6,896.2z"/>
</g>
<g id="LWPOLYLINE_65_">
	<polygon class="st1" points="496.7,795.6 496.1,792.5 496.3,790.5 498.4,791.3 501.6,791.6 504.1,791.5 507,790.7 509.6,789.4 
		510.5,788.7 512.2,786.3 512.8,783.4 512.4,781.4 510.7,779.1 508.4,778.1 505.1,777.7 503.3,777.7 500.4,778.5 497.8,779.7 
		495.5,781.7 494.3,783.2 492.9,785.8 492.1,788.7 491.8,791.8 491.9,793.9 492.5,796.8 493.7,799 495.5,800.7 497.9,801.7 
		500.8,801.9 500.9,801.9 503.8,801.7 507,800.8 507.4,796.6 505.1,797.9 502.3,798.4 500.2,798.2 497.7,796.9 	"/>
</g>
<g id="LWPOLYLINE_66_">
	<polygon class="st1" points="476.9,801.5 479.3,788.1 480.1,785.6 481.8,783.2 483.3,781.9 486,781.1 486.3,781.1 489.1,782.2 
		490.3,777.9 487.9,777.7 485.1,778.1 482.5,779.5 480.4,781.8 481.1,778.1 476.9,778.1 472.7,801.5 	"/>
</g>
<g id="LWPOLYLINE_67_">
	<polygon class="st1" points="452.6,793 455.3,778.1 451,778.1 448.3,793.5 448,795.8 448.3,797.8 449.5,800.3 450.8,801.3 
		453.8,801.9 454.6,801.9 457.9,801.5 460.4,800.2 462.3,798.2 461.7,801.5 466,801.5 470.3,778.1 466,778.1 463.3,792.5 
		462.8,794.3 460.7,796.7 459.1,797.8 456.3,798.4 455.8,798.4 453.2,797.4 452.4,794.8 	"/>
</g>
<g id="LWPOLYLINE_68_">
	<polygon points="502.2,781.6 504.9,781.1 507.6,781.7 508.7,783.8 508.5,785 506.5,787 504.2,787.8 500.9,788.2 499.9,788.1 
		497,787.4 498,785.2 499.8,783 	"/>
</g>
<g id="HATCH_34_">
	<path class="st1" d="M758.5,890.5l5.3,5l4.9-3.9l2.4-27c0.3-3.3-1-6.5-3.5-8.6l-6.9,10.2L758.5,890.5L758.5,890.5z"/>
</g>
<g id="HATCH_35_">
	<path class="st1" d="M832.5,895.5l4.9-3.9l2.4-27c0.3-3.3-1-6.5-3.5-8.6l-6.9,10.2l-2.1,24.4L832.5,895.5L832.5,895.5z"/>
</g>
<g id="HATCH_36_">
	<path class="st1" d="M765.2,931.5l2.5-28.4l-4.6-4.3l-5.7,4.6l-2.4,26.9l5.2,9C763.1,937.8,764.9,934.8,765.2,931.5L765.2,931.5z"
		/>
</g>
<g id="HATCH_37_">
	<polygon class="st1" points="755.7,891.7 761.2,896.8 754.9,901.9 726.7,901.9 721.3,896.7 727.7,891.7 	"/>
</g>
<g id="HATCH_38_">
	<path class="st1" d="M722.5,940.9H755c0.9,0,1.8-0.1,2.6-0.3l-5.8-10h-27.6l-5.6,9.6C719.9,940.6,721.2,940.9,722.5,940.9
		L722.5,940.9z"/>
</g>
<g id="HATCH_39_">
	<polygon class="st1" points="824.4,891.7 829.9,896.8 823.6,901.9 795.3,901.9 790,896.7 796.3,891.7 	"/>
</g>
<g id="HATCH_40_">
	<path class="st1" d="M826.3,940.5l-5.8-10h-27.6l-5.6,9.6c1.2,0.5,2.5,0.7,3.8,0.7h32.5C824.6,940.9,825.4,940.7,826.3,940.5
		L826.3,940.5z"/>
</g>
<g id="HATCH_42_">
	<path class="st1" d="M836.4,903.1l-4.6-4.3l-5.7,4.6l-2.4,26.9l5.2,9c2.8-1.7,4.7-4.6,5-7.9L836.4,903.1L836.4,903.1z"/>
</g>
<g id="HATCH_43_">
	<path class="st1" d="M828.7,790.6l2.3-11.1h6.1l0.7-3.2h-6l1.5-6.4l-4.5,1.7l-0.9,4.6h-2.5l-0.7,3.2h2.5l-2.6,12.6l-0.2,1.4
		l0.1,1.6l1.2,2.4l0.8,0.7l2.9,0.7l3.1-0.1l2.4-0.5l0.1-3.5l-0.5,0.2l-2.8,0.6l-2.3-0.7l-0.9-2.5L828.7,790.6L828.7,790.6z
		 M818.6,772.4l0.8-1.9l-0.8-1.9l-1.9-0.8l-1.9,0.8l-0.8,1.9l0.8,1.9l1.9,0.8L818.6,772.4L818.6,772.4z M814.3,798.7l3.9-22.2h-6.8
		l-0.7,3.3h3l-3.4,18.9H814.3L814.3,798.7z M789.9,787.5l0.8-2.7l1.4-2.4l0.9-0.9l2.4-1.5l2.8-0.5l1.7,0.5l1.5,1.5l0.5,1.1l-0.9,5.6
		v0.3l-0.9,3l-1.5,2.3l-1.5,1.3l-2.5,0.8h-0.7l-2.3-0.9l-1.3-1.9l-0.5-3L789.9,787.5L789.9,787.5z M777.6,798.7l4-22.2h-6.8
		l-0.7,3.3h3l-3.4,18.9H777.6L777.6,798.7z M781.9,772.4l0.8-1.9l-0.8-1.9l-1.9-0.8l-1.9,0.8l-0.8,1.9l0.8,1.9l1.9,0.8L781.9,772.4
		L781.9,772.4z M787.5,782.2l-1.1,2.5l-0.7,2.9l-0.3,3.2l0.1,0.7l0.6,3l1.4,2.3l0.3,0.3l2.3,1.5l3,0.5l1.8-0.1l2.6-1l2.1-1.8
		l-0.5,2.5h3.9l5.4-31.4h-3.6l-2.1,11.4l-0.1-0.1l-2-1.9l-2.7-0.6l-1.6,0.1l-2.7,0.7l-2.5,1.3l-2.1,2L787.5,782.2L787.5,782.2z
		 M846.8,798.8l-0.5,1.3l-1.7,2.1l-2.1,0.8l-3.4,0.3v4l1.9-0.1l3-0.5l2.3-0.9l0.1-0.1l2-1.9l1.6-2.7l11.1-24.9h-4.4l-8,18.6
		l-0.3-0.1l-1.3-2.3l-2.5-16.2h-4.3l2.7,16.6l0.7,2.7l1.3,2.3L846.8,798.8L846.8,798.8z M718.1,790.6l2.5-14.2h-4.2l-2.5,14.6
		l-0.2,2.1l0.2,2l1.2,2.3l1.2,0.9l2.9,0.6h0.7l3.1-0.5l2.5-1.2l1.7-1.9l-0.6,3.2h4.2l4.1-22.3h-4.1l-2.5,13.7l-0.5,1.7l-1.9,2.3
		l-1.6,1l-2.7,0.7h-0.5l-2.3-1l-0.8-2.5L718.1,790.6L718.1,790.6z M690.7,768.2l-5.4,30.4h4.3l2.6-14.7h13.3l-2.5,14.7h4.2l5.4-30.4
		h-4.2l-2.1,12.2H693l2.1-12.2H690.7L690.7,768.2z M749.5,798.7h4.1l2.9-16.4v-0.1l2.1-2l2.7-0.8h0.7l2.2,1.1l0.8,2.5l-0.2,1.6
		l-2.5,14.1h4.1l2.6-14.9l0.2-2l-0.2-1.7l-1-2.3l-1.9-1.3l-2.9-0.5l-1,0.1l-2.9,0.7l-0.7,0.3l-2.2,1.8l-0.7-1.1l-2.2-1.3l-3.2-0.5
		l-1.1,0.1l-2.9,0.7l-0.6,0.3l-2.1,1.9l-0.5-3l-3.8,0.7l0.1,0.7l0.3,3.1l-0.1,1.9l-2.8,16.2h4l2.9-16.4l2.2-2l2.6-0.9h0.3l2.7,0.7
		l0.9,2.1l-0.1,0.6L749.5,798.7L749.5,798.7z"/>
</g>
<g id="HATCH_44_">
	<path class="st1" d="M759.1,863.5l6.2-9.1c-1.4-0.6-2.8-1-4.3-1h-32.5c-0.7,0-1.4,0.1-2,0.2l4.9,9.9
		C731.2,863.5,759.1,863.5,759.1,863.5L759.1,863.5z"/>
</g>
<g id="HATCH_45_">
	<path class="st1" d="M833.9,854.4c-1.4-0.6-2.8-1-4.3-1h-32.5c-0.7,0-1.4,0.1-2,0.2l4.9,9.9h27.8L833.9,854.4L833.9,854.4z"/>
</g>
<g id="HATCH_46_">
	<path class="st1" d="M639.2,680.6l9.4,16.3c4.5-2.9,7.4-7.7,7.8-13.1l4.1-46.8l-6.8-6.3h-0.6l-10.4,8.4L639.2,680.6L639.2,680.6z"
		/>
</g>
<g id="HATCH_47_">
	<path class="st1" d="M456,567c0.1-0.6,0.1-1.2,0.3-1.8c0.5-5.1,3.3-9.7,7.6-12.6l9.3,18.9l-3.5,39.8l-10.9,8.5h-0.6l-6.2-6.1
		L456,567L456,567z"/>
</g>
<g id="HATCH_48_">
	<path class="st1" d="M576.2,567c0.1-0.6,0.1-1.2,0.3-1.8c0.5-5.1,3.3-9.7,7.6-12.6l9.3,18.9l-3.5,39.8l-10.9,8.5h-0.6l-6.2-6.1
		L576.2,567L576.2,567z"/>
</g>
<g id="HATCH_49_">
	<path class="st1" d="M519,680.6l9.4,16.3c4.5-2.9,7.4-7.7,7.8-13.1l4.1-46.8l-6.8-6.3h-0.6l-10.4,8.4L519,680.6L519,680.6z"/>
</g>
<g id="HATCH_50_">
	<path class="st1" d="M464.1,674.5l-12.9,22.2c-3.8-2.9-5.9-7.6-5.5-12.3l4.3-49l7.5-5.9h0.6l9.1,9L464.1,674.5L464.1,674.5z"/>
</g>
<g id="HATCH_51_">
	<path class="st1" d="M457.5,699.6c1.7,0.5,3.4,0.7,5.1,0.7H516c2,0.2,4.1,0,6.1-0.5l-9.8-17.1h-44.8L457.5,699.6L457.5,699.6z"/>
</g>
<g id="HATCH_52_">
	<polygon class="st1" points="518.4,616.5 528.2,625.7 518,633.9 472.6,633.9 463.4,625 474.3,616.5 	"/>
</g>
<g id="HATCH_53_">
	<path class="st1" d="M584.3,674.5l-12.9,22.2c-3.8-2.9-5.9-7.6-5.5-12.3l4.3-49l7.5-5.9h0.6l9.1,9L584.3,674.5L584.3,674.5z"/>
</g>
<g id="HATCH_54_">
	<path class="st1" d="M577.7,699.6c1.7,0.5,3.4,0.7,5.1,0.7h53.4c2,0.2,4.1,0,6.1-0.5l-9.8-17.1h-44.8L577.7,699.6L577.7,699.6z"/>
</g>
<g id="HATCH_55_">
	<polygon class="st1" points="638.6,616.5 648.4,625.7 638.2,633.9 592.8,633.9 583.6,625 594.5,616.5 	"/>
</g>
<g id="HATCH_56_">
	<path class="st1" d="M476,551.2c-1.6-0.1-3.3-0.1-4.9,0.3l8.3,17h45l11-16.3c-1.9-0.7-4-1-6-1H476L476,551.2z"/>
</g>
<g id="HATCH_57_">
	<path class="st1" d="M596.2,551.2c-1.6-0.1-3.3-0.1-4.9,0.3l8.3,17h45l11-16.3c-1.9-0.7-4-1-6-1H596.2L596.2,551.2z"/>
</g>
<g id="HATCH_58_">
	<path class="st1" d="M696.4,567c0.1-0.6,0.1-1.2,0.3-1.8c0.5-5.1,3.3-9.7,7.6-12.6l9.3,18.9l-3.5,39.8l-10.9,8.5h-0.6l-6.2-6.1
		L696.4,567L696.4,567z"/>
</g>
<g id="HATCH_59_">
	<path class="st1" d="M786.5,571.8c0.5-5.5-1.6-10.9-5.7-14.5l-12.1,17.9l-3.3,37.9l8.4,7.9h0.6l8.4-6.8L786.5,571.8L786.5,571.8z"
		/>
</g>
<g id="HATCH_60_">
	<path class="st1" d="M759.4,680.6l9.4,16.3c4.5-2.9,7.4-7.7,7.8-13.1l4.1-46.8l-6.8-6.3h-0.6l-10.4,8.4L759.4,680.6L759.4,680.6z"
		/>
</g>
<g id="HATCH_61_">
	<polygon class="st1" points="758.7,616.5 768.6,625.7 758.4,633.9 712.9,633.9 703.8,625 714.7,616.5 	"/>
</g>
<g id="HATCH_62_">
	<path class="st1" d="M704.5,674.5l-12.9,22.2c-3.8-2.9-5.9-7.6-5.5-12.3l4.3-49l7.5-5.9h0.6l9.1,9L704.5,674.5L704.5,674.5z"/>
</g>
<g id="HATCH_63_">
	<path class="st1" d="M697.9,699.6c1.7,0.5,3.4,0.7,5.1,0.7h53.4c2,0.2,4.1,0,6.1-0.5l-9.8-17.1h-44.9L697.9,699.6L697.9,699.6z"/>
</g>
<g id="LWPOLYLINE_117_">
	<polygon points="800.2,624 800.2,623.2 800.8,620.2 801.2,619.1 802.5,616.7 802.7,616.4 804.8,614.4 807.4,613.7 808.2,613.8 
		810.6,615.2 811.4,616.4 811.9,619.5 811.8,621.2 811.2,624 810,626.7 809.4,627.7 807.3,629.7 804.8,630.3 802.2,629.5 
		800.5,627.4 800.4,627.1 	"/>
</g>
<g id="HATCH_65_">
	<path class="st1" d="M716.4,551.2c-1.6-0.1-3.3-0.1-4.9,0.3l8.3,17h45l11-16.3c-1.9-0.7-4-1-6-1H716.4L716.4,551.2z"/>
</g>
<g id="HATCH_66_">
	<path class="st1" d="M636.5,292.6c-0.7-0.1-1.4,0-2,0.1l3.4,7h18.5l4.5-6.7c-0.8-0.3-1.6-0.4-2.5-0.4H636.5L636.5,292.6z"/>
</g>
<g id="HATCH_67_">
	<path class="st1" d="M665.4,301c0.2-2.3-0.7-4.5-2.4-6l-5,7.4l-1.4,15.6l3.5,3.3h0.2l3.5-2.8L665.4,301L665.4,301z"/>
</g>
<g id="HATCH_68_">
	<path class="st1" d="M654.2,345.8l3.9,6.7c1.8-1.2,3-3.2,3.2-5.4l1.7-19.3l-2.8-2.6H660l-4.3,3.5L654.2,345.8L654.2,345.8z"/>
</g>
<g id="HATCH_69_">
	<path class="st1" d="M548,301c0.2-2.3-0.7-4.5-2.4-6l-5,7.4l-1.4,15.6l3.5,3.3h0.2l3.5-2.8L548,301L548,301z"/>
</g>
<g id="HATCH_70_">
	<polygon class="st1" points="536.6,319.4 540.6,323.2 536.4,326.6 517.7,326.6 514,322.9 518.5,319.4 	"/>
</g>
<g id="HATCH_71_">
	<path class="st1" d="M519.2,292.6c-0.7-0.1-1.4,0-2,0.1l3.4,7h18.5l4.5-6.7c-0.8-0.3-1.6-0.4-2.5-0.4
		C541.1,292.6,519.2,292.6,519.2,292.6L519.2,292.6z"/>
</g>
<g id="HATCH_72_">
	<path class="st1" d="M511.5,353.7c0.7,0.2,1.4,0.3,2.1,0.3h22c0.8,0.1,1.7,0,2.5-0.2l-4.1-7h-18.5
		C515.6,346.7,511.5,353.7,511.5,353.7L511.5,353.7z"/>
</g>
<g id="HATCH_73_">
	<path class="st1" d="M514.3,343.3l-5.3,9.1c-1.6-1.2-2.4-3.1-2.3-5.1l1.8-20.2l3.1-2.4h0.2l3.8,3.7L514.3,343.3L514.3,343.3z"/>
</g>
<g id="HATCH_74_">
	<path class="st1" d="M597.5,301c0.2-2.3-0.7-4.5-2.4-6l-5,7.4l-1.4,15.6l3.5,3.3h0.2l3.5-2.8L597.5,301L597.5,301z"/>
</g>
<g id="HATCH_75_">
	<path class="st1" d="M560.4,299.1c0-0.3,0.1-0.5,0.1-0.8c0.2-2.1,1.4-4,3.1-5.2l3.8,7.8l-1.4,16.4l-4.5,3.5h-0.2l-2.6-2.5
		L560.4,299.1L560.4,299.1z"/>
</g>
<g id="HATCH_76_">
	<path class="st1" d="M561,353.7c0.7,0.2,1.4,0.3,2.1,0.3h22c0.8,0.1,1.7,0,2.5-0.2l-4.1-7H565L561,353.7L561,353.7z"/>
</g>
<g id="HATCH_77_">
	<path class="st1" d="M563.8,343.3l-5.3,9.1c-1.6-1.2-2.4-3.1-2.3-5.1l1.8-20.2l3.1-2.4h0.2l3.8,3.7L563.8,343.3L563.8,343.3z"/>
</g>
<g id="HATCH_78_">
	<path class="st1" d="M586.4,345.8l3.9,6.7c1.8-1.2,3-3.2,3.2-5.4l1.7-19.3l-2.8-2.6h-0.2l-4.3,3.5L586.4,345.8L586.4,345.8z"/>
</g>
<g id="HATCH_79_">
	<path class="st1" d="M568.7,292.6c-0.7-0.1-1.4,0-2,0.1l3.4,7h18.5l4.5-6.7c-0.8-0.3-1.6-0.4-2.5-0.4H568.7L568.7,292.6z"/>
</g>
<g id="HATCH_80_">
	<path class="st1" d="M628.9,353.7c0.7,0.2,1.4,0.3,2.1,0.3h22c0.8,0.1,1.7,0,2.5-0.2l-4.1-7h-18.5L628.9,353.7L628.9,353.7z"/>
</g>
<g id="HATCH_81_">
	<path class="st1" d="M628.3,299.1c0-0.3,0.1-0.5,0.1-0.8c0.2-2.1,1.4-4,3.1-5.2l3.8,7.8l-1.4,16.4l-4.5,3.5h-0.2l-2.6-2.5
		L628.3,299.1L628.3,299.1z"/>
</g>
<g id="HATCH_82_">
	<polygon class="st1" points="617,304.9 608,304.9 607,315.6 616,315.6 	"/>
</g>
<g id="HATCH_83_">
	<polygon class="st1" points="604.6,342.7 613.6,342.7 614.6,332.1 605.6,332.1 	"/>
</g>
<g id="HATCH_84_">
	<path class="st1" d="M631.6,343.3l-5.3,9.1c-1.6-1.2-2.4-3.1-2.3-5.1l1.8-20.2l3.1-2.4h0.2l3.8,3.7L631.6,343.3L631.6,343.3z"/>
</g>
<g id="HATCH_86_">
	<path class="st1" d="M677.8,299.1c0-0.3,0.1-0.5,0.1-0.8c0.2-2.1,1.4-4,3.1-5.2l3.8,7.8l-1.4,16.4l-4.5,3.5h-0.2l-2.6-2.5
		L677.8,299.1L677.8,299.1z"/>
</g>
<g id="HATCH_87_">
	<polygon class="st1" points="703.5,319.4 707.5,323.2 703.3,326.6 684.6,326.6 680.8,322.9 685.3,319.4 	"/>
</g>
<g id="HATCH_88_">
	<path class="st1" d="M678.4,353.7c0.7,0.2,1.4,0.3,2.1,0.3h22c0.8,0.1,1.7,0,2.5-0.2l-4.1-7h-18.5L678.4,353.7L678.4,353.7z"/>
</g>
<g id="LWPOLYLINE_147_">
	<path class="st1" d="M678.4,353.7c0.7,0.2,1.4,0.3,2.1,0.3h22c0.8,0.1,1.7,0,2.5-0.2l-4.1-7h-18.5L678.4,353.7z"/>
</g>
<g id="HATCH_89_">
	<path class="st1" d="M703.7,345.8l3.9,6.7c1.8-1.2,3-3.2,3.2-5.4l1.7-19.3l-2.8-2.6h-0.2l-4.3,3.5L703.7,345.8L703.7,345.8z"/>
</g>
<g id="HATCH_90_">
	<path class="st1" d="M686,292.6c-0.7-0.1-1.4,0-2,0.1l3.4,7h18.5l4.5-6.7c-0.8-0.3-1.6-0.4-2.5-0.4C708,292.6,686,292.6,686,292.6
		L686,292.6z"/>
</g>
<g id="LWPOLYLINE_151_">
	<polygon points="867,455.8 867.1,457.3 867.1,458.6 866.9,460 866.5,461.5 866,462.8 865.3,464 865.3,464.1 864.3,465.3 
		863.2,466.1 861.9,466.6 860.5,466.8 860.3,466.8 858.9,466.4 857.9,465.4 857.5,464.8 857.2,463.4 857,461.8 857,461.3 
		857.2,459.9 857.5,458.5 858,457.1 858.7,455.7 859.6,454.5 860.7,453.5 861.9,453 863.2,452.8 863.4,452.8 864.8,453 865.8,453.6 
		866.5,454.5 	"/>
</g>
<path class="st3" d="M180.5,199.1c0-3.5,2.9-6.4,6.5-6.4"/>
<g id="LWPOLYLINE_15_">
	<polygon points="287.4,781.6 290.1,781.1 292.8,781.7 293.9,783.8 293.7,785 291.7,787 289.4,787.8 286.1,788.2 285.1,788.1 
		282.2,787.4 283.2,785.2 285.1,783 	"/>
</g>
<g id="LWPOLYLINE_17_">
	<polygon id="polygon259" points="409.6,790.1 410.5,787.2 411.9,784.7 413,783.4 415.3,781.6 418,781 419.8,781.1 422,781.9 
		420.2,790.6 420.1,790.9 419.1,793.9 417.6,796.3 416.1,797.7 413.5,798.6 411.9,798.3 409.9,796.8 409.3,793.9 409.3,793.3 	"/>
</g>
<g id="HATCH">
	<path class="st4" d="M1004.3,1308.8c0-38.9-31.6-71.3-71.3-71.3s-71.3,32.4-71.3,71.3c0,39.7,31.6,72.1,71.3,72.1
		S1004.3,1348.5,1004.3,1308.8z M933,1245.7c35.6,0,64,28.3,64,63.2c0,35.6-28.4,64-64,64c-34.8,0-64-28.3-64-64
		C869,1274,898.2,1245.7,933,1245.7z"/>
</g>
<g id="HATCH_1_">
	<path class="st4" d="M970.3,1308.8c0-20.2-17-36.5-37.3-36.5v-6.5l-15.4,8.9l15.4,8.9v-5.7c17.8,0,31.6,13.8,31.6,30.8
		c0,17.8-13.8,31.6-31.6,31.6c-17,0-31.6-13.8-31.6-31.6h-5.7c0,21.1,17,37.3,37.3,37.3S970.3,1329.9,970.3,1308.8z"/>
</g>
<g id="HATCH_2_">
	<path d="M933,1416.6c-39.7,0-71.3,31.6-71.3,71.3c0,39.7,31.6,71.3,71.3,71.3s71.3-31.6,71.3-71.3S972.7,1416.6,933,1416.6z
		 M869,1487.9c0-35.6,29.2-64,64-64c35.6,0,64,28.4,64,64c0,34.8-28.4,64-64,64C898.2,1551.8,869,1522.7,869,1487.9z"/>
</g>
<g id="HATCH_3_">
	<polygon points="954.9,1471.7 954.9,1516.2 962.2,1516.2 962.2,1458.7 950.8,1458.7 933,1510.5 915.2,1458.7 904.7,1458.7 
		904.7,1516.2 911.1,1516.2 911.1,1471.7 928.1,1516.2 937.9,1516.2 	"/>
</g>
<path class="st2" d="M1150.1,1653.9c0,3.2-2.9,5.7-6.5,5.7"/>
<path class="st2" d="M1.5,1653.9c0,3.2,2.9,5.7,6.5,5.7"/>
<path class="st2" d="M1.5,8c0-3.6,2.9-6.5,6.5-6.5"/>
<path class="st2" d="M1150.1,8c0-3.6-2.9-6.5-6.5-6.5"/>
<line class="st5" x1="8" y1="1.5" x2="1143.6" y2="1.5"/>
</svg>
